<svg width="240" height="41" viewBox="0 0 240 41" fill="none" xmlns="http://www.w3.org/2000/svg">
<path fill-rule="evenodd" clip-rule="evenodd" d="M36.0205 24.5C35.3055 24.952 34.4635 25.008 33.8235 24.647C33.0105 24.188 32.5635 23.113 32.5635 21.618V17.145C32.5635 14.985 31.7095 13.448 30.2815 13.033C27.8615 12.328 26.0415 15.289 25.3575 16.401L21.0895 23.321V14.863C21.0415 12.917 20.4095 11.753 19.2095 11.402C18.4155 11.17 17.2275 11.263 16.0735 13.029L6.51148 28.383C5.23136 25.9528 4.56403 23.2467 4.56748 20.5C4.56748 11.251 11.9795 3.727 21.0895 3.727C30.1995 3.727 37.6105 11.251 37.6105 20.5C37.6105 20.516 37.6145 20.53 37.6155 20.545C37.6155 20.561 37.6125 20.575 37.6135 20.591C37.6995 22.382 37.1195 23.807 36.0205 24.501V24.5ZM41.2815 20.501V20.5V20.454L41.2805 20.408C41.2295 9.144 32.1925 0 21.0885 0C9.95548 0 0.896484 9.196 0.896484 20.5C0.896484 31.803 9.95549 41 21.0895 41C26.1985 41 31.0745 39.058 34.8175 35.533C35.5615 34.833 35.6055 33.654 34.9155 32.9C34.7531 32.7209 34.5566 32.576 34.3375 32.4739C34.1184 32.3717 33.8811 32.3142 33.6395 32.3049C33.3979 32.2956 33.1569 32.3346 32.9306 32.4196C32.7043 32.5046 32.4972 32.6339 32.3215 32.8C29.2876 35.673 25.2678 37.2738 21.0895 37.273C16.2115 37.273 11.8225 35.114 8.79548 31.69L17.4185 17.844V24.227C17.4185 27.293 18.6075 28.284 19.6045 28.574C20.6025 28.864 22.1275 28.666 23.7285 26.066L28.4715 18.377C28.6235 18.129 28.7635 17.915 28.8915 17.73V21.618C28.8915 24.484 30.0395 26.776 32.0405 27.905C33.8445 28.923 36.1125 28.831 37.9605 27.665C40.2005 26.25 41.4075 23.643 41.2815 20.501ZM69.3945 13.497C69.8795 13.792 70.2995 14.448 70.2995 15.039C70.2995 15.99 69.4915 16.777 68.5865 16.777C68.3605 16.777 68.1345 16.712 67.9405 16.646C66.8735 15.859 65.5165 15.334 64.0945 15.334C60.7345 15.334 58.4075 18.089 58.4075 21.5C58.4075 24.912 60.7345 27.634 64.0945 27.634C65.7745 27.634 67.2615 26.945 68.3925 25.896C68.6847 25.686 69.0347 25.5714 69.3945 25.568C70.2995 25.568 71.0105 26.289 71.0105 27.208C71.0105 27.798 70.6545 28.323 70.2025 28.618C68.5865 29.996 66.3895 30.914 64.1275 30.914C58.9575 30.914 54.7555 26.65 54.7555 21.402C54.7555 16.154 58.9565 11.89 64.1275 11.89C66.0665 11.89 67.9075 12.48 69.3945 13.497ZM78.8485 17.466C82.3705 17.466 85.3435 20.451 85.3435 24.124C85.3435 27.798 82.3705 30.914 78.8485 30.914C75.1645 30.914 72.0945 27.798 72.0945 24.124C72.0945 20.451 75.1645 17.466 78.8485 17.466ZM78.8155 27.634C80.3675 27.634 81.6915 26.158 81.6915 24.157C81.6915 22.157 80.3675 20.91 78.8155 20.91C77.1355 20.91 75.7455 22.124 75.7455 24.157C75.7455 26.158 77.1355 27.634 78.8155 27.634ZM87.5585 28.88V19.5C87.5585 18.483 88.3665 17.63 89.3685 17.63C90.3705 17.63 91.2105 18.483 91.2105 19.5V28.88C91.2105 29.897 90.3705 30.75 89.3685 30.75C88.3665 30.75 87.5585 29.897 87.5585 28.88ZM87.2685 14.088C87.2685 12.874 88.2045 11.89 89.3685 11.89C90.5635 11.89 91.5335 12.874 91.5335 14.088C91.5335 15.268 90.5635 16.22 89.3685 16.22C88.2045 16.22 87.2685 15.268 87.2685 14.088ZM98.2085 23.796V28.88C98.2085 29.897 97.3685 30.75 96.3655 30.75C95.3645 30.75 94.5555 29.897 94.5555 28.88V19.073C94.5555 18.286 95.2025 17.63 95.9785 17.63C96.7535 17.63 97.3685 18.286 97.3685 19.073C98.8545 17.696 100.146 17.466 101.374 17.466C105.026 17.466 106.642 20.221 106.642 23.337V28.88C106.642 29.897 105.802 30.75 104.8 30.75C103.798 30.75 102.99 29.897 102.99 28.88V23.796C102.99 22.189 102.796 20.844 100.502 20.844C98.8865 20.844 98.2075 22.189 98.2075 23.796H98.2085ZM118.519 25.732C118.099 25.732 117.809 25.535 117.582 25.272L113.316 20.648V28.88C113.316 29.897 112.476 30.75 111.474 30.75C110.472 30.75 109.664 29.897 109.664 28.88V12.58C109.717 12.4427 109.81 12.3248 109.932 12.2425C110.053 12.1602 110.198 12.1174 110.344 12.12C110.666 12.12 110.924 12.383 111.119 12.58L117.905 20.222C118.099 20.452 118.357 20.583 118.487 20.583C118.616 20.583 118.874 20.452 119.068 20.223L125.855 12.58C126.049 12.383 126.307 12.12 126.63 12.12C126.953 12.12 127.212 12.317 127.309 12.58V28.88C127.309 29.897 126.501 30.75 125.499 30.75C124.497 30.75 123.657 29.897 123.657 28.88V20.648L119.392 25.272C119.165 25.535 118.874 25.732 118.519 25.732ZM136.084 27.634C137.732 27.634 139.121 26.158 139.121 24.157C139.121 22.157 137.7 20.844 136.084 20.844C134.468 20.844 133.175 22.189 133.175 24.157C133.175 26.092 134.468 27.634 136.084 27.634ZM139.962 29.307L139.896 28.88C139.186 30.29 136.923 30.914 135.469 30.914C132.043 30.914 129.523 27.798 129.523 24.124C129.523 20.451 132.108 17.466 135.663 17.466C136.277 17.466 138.313 17.63 139.896 19.5L139.961 19.073C139.961 18.286 140.575 17.63 141.351 17.63C142.126 17.63 142.772 18.286 142.772 19.073V29.307C142.772 30.094 142.126 30.75 141.35 30.75C140.575 30.75 139.96 30.094 139.96 29.307H139.962ZM152.905 20.844H152.518C150.223 20.976 149.771 22.288 149.771 23.796V28.88C149.771 29.897 148.931 30.75 147.929 30.75C146.927 30.75 146.119 29.897 146.119 28.88V19.073C146.119 18.286 146.765 17.63 147.541 17.63C148.317 17.63 148.931 18.286 148.931 19.073C150.288 17.794 151.387 17.532 152.518 17.466H152.873C153.746 17.466 154.553 18.22 154.553 19.172C154.553 20.057 153.778 20.844 152.905 20.844ZM166.98 28.028C167.142 28.29 167.239 28.585 167.239 28.913C167.239 29.864 166.366 30.75 165.429 30.75C164.783 30.75 164.233 30.258 163.813 29.733L159.613 24.846V28.88C159.613 29.897 158.772 30.75 157.77 30.75C156.768 30.75 155.96 29.897 155.96 28.88V13.99C155.96 12.972 156.768 12.12 157.77 12.12C158.772 12.12 159.612 12.972 159.612 13.99V23.272L163.813 18.614C164.233 18.122 164.75 17.63 165.397 17.63C166.302 17.63 167.142 18.483 167.142 19.434C167.142 19.729 167.077 20.024 166.915 20.287L163.587 23.927L166.98 28.027V28.028ZM174.14 20.91C173.138 20.91 171.522 21.435 171.522 22.976H176.789C176.789 21.402 175.109 20.91 174.139 20.91H174.14ZM178.922 25.305H171.522C171.522 27.503 173.622 27.831 174.559 27.831C175.239 27.831 176.208 27.7 176.951 27.371C177.177 27.208 177.565 27.076 177.888 27.076C178.696 27.076 179.374 27.766 179.374 28.586C179.374 29.143 179.019 29.635 178.567 29.897C177.436 30.717 175.981 30.914 174.592 30.914C170.908 30.914 167.838 28.914 167.838 24.288C167.838 20.648 169.712 17.466 174.075 17.466C177.597 17.466 180.279 19.762 180.344 23.862C180.344 24.649 179.698 25.305 178.922 25.305ZM189.087 30.914H188.085C185.305 30.914 183.69 29.7 183.69 25.338V20.844H182.753C181.88 20.844 181.105 20.057 181.105 19.172C181.105 18.22 181.88 17.466 182.753 17.466H183.69V13.989C183.69 12.972 184.498 12.119 185.5 12.119C186.501 12.119 187.342 12.972 187.342 13.989V17.466H188.86C189.733 17.466 190.509 18.22 190.509 19.172C190.509 20.057 189.733 20.844 188.86 20.844H187.342V24.616C187.342 27.109 187.471 27.634 188.57 27.634H189.087C189.959 27.634 190.702 28.356 190.702 29.274C190.702 30.16 189.959 30.914 189.087 30.914ZM206.781 13.497C207.265 13.792 207.686 14.448 207.686 15.039C207.686 15.99 206.878 16.777 205.973 16.777C205.747 16.777 205.52 16.712 205.327 16.646C204.26 15.859 202.903 15.334 201.481 15.334C198.121 15.334 195.793 18.089 195.793 21.5C195.793 24.912 198.12 27.634 201.481 27.634C203.161 27.634 204.648 26.945 205.779 25.896C206.072 25.686 206.422 25.5714 206.781 25.568C207.686 25.568 208.396 26.289 208.396 27.208C208.396 27.798 208.041 28.323 207.589 28.618C205.973 29.996 203.775 30.914 201.513 30.914C196.343 30.914 192.142 26.65 192.142 21.402C192.142 16.154 196.342 11.89 201.513 11.89C203.453 11.89 205.294 12.48 206.781 13.497ZM216.041 27.634C217.689 27.634 219.078 26.158 219.078 24.157C219.078 22.157 217.656 20.844 216.04 20.844C214.425 20.844 213.132 22.189 213.132 24.157C213.132 26.092 214.425 27.634 216.04 27.634H216.041ZM219.918 29.307L219.854 28.88C219.143 30.29 216.881 30.914 215.426 30.914C212.001 30.914 209.48 27.798 209.48 24.124C209.48 20.451 212.066 17.466 215.62 17.466C216.234 17.466 218.27 17.63 219.854 19.5L219.918 19.073C219.918 18.286 220.532 17.63 221.308 17.63C222.083 17.63 222.73 18.286 222.73 19.073V29.307C222.73 30.094 222.083 30.75 221.308 30.75C220.532 30.75 219.918 30.094 219.918 29.307ZM232.765 27.634C234.381 27.634 235.673 26.092 235.673 24.157C235.673 22.189 234.381 20.844 232.765 20.844C231.149 20.844 229.727 22.156 229.727 24.157C229.727 26.158 231.117 27.634 232.765 27.634ZM229.727 29.832V34.489C229.727 35.506 228.887 36.359 227.885 36.359C226.884 36.359 226.075 35.506 226.075 34.489V19.073C226.075 18.286 226.722 17.63 227.498 17.63C228.273 17.63 228.888 18.286 228.888 19.204C230.244 17.794 231.925 17.466 233.185 17.466C236.74 17.466 239.325 20.451 239.325 24.124C239.325 27.798 236.805 30.914 233.379 30.914C232.313 30.914 230.729 30.586 229.727 29.832Z" fill="white"/>
</svg>
