<svg width="148" height="41" viewBox="0 0 148 41" fill="none" xmlns="http://www.w3.org/2000/svg">
<path d="M42.2383 0.263165C42.2383 0.263165 32.6019 2.91732 28.9724 3.95084C25.343 4.98436 23.077 12.7624 23.0576 12.8352L12.3827 15.829C12.3827 15.829 8.50098 16.6005 8.50098 20.6133C8.50098 24.4223 12.3827 22.986 12.3827 22.986C12.3827 22.986 14.2411 22.5008 17.8706 21.4624C21.5 20.4241 23.043 12.9031 23.0576 12.8352L42.2383 7.4978C42.2383 7.4978 46.1201 6.66322 46.1201 2.6456C46.1395 -1.16823 42.2383 0.263165 42.2383 0.263165Z" fill="#FF671D"/>
<path d="M3.88187 40.0317C3.88187 40.0317 14.2365 37.1204 17.8659 36.082C21.4954 35.0437 23.0384 27.5325 23.0578 27.4597L33.7326 24.4659C33.7326 24.4659 37.6144 23.6944 37.6144 19.6816C37.6144 15.8726 33.7326 17.2264 33.7326 17.2264C33.7326 17.2264 31.8742 17.7116 28.2448 18.7548C24.6153 19.798 23.0723 27.3917 23.0578 27.4597L3.88187 32.7971C3.88187 32.7971 0.000112551 33.6317 0.000112551 37.6493C-0.0241485 41.4631 3.88187 40.0317 3.88187 40.0317Z" fill="#FF671D"/>
<path d="M53.9229 13.3008H62.1231V14.4605H55.2135V19.3127H61.6524V20.4723H55.2135V26.9937H53.9374L53.9229 13.3008Z" fill="white"/>
<path d="M67.0137 13.3008H70.614C70.7935 13.3008 71.0361 13.3008 71.3467 13.3008C71.6836 13.3184 72.0191 13.3573 72.3511 13.4172C72.7293 13.4835 73.0999 13.5876 73.4574 13.7278C73.8289 13.8663 74.17 14.0756 74.4618 14.344C74.7722 14.6327 75.0214 14.9808 75.1945 15.3678C75.4006 15.8435 75.5 16.3586 75.4856 16.8769C75.5086 17.4384 75.3919 17.997 75.146 18.5023C74.9404 18.9052 74.6508 19.2593 74.2968 19.5407C73.9601 19.8101 73.5769 20.0157 73.1663 20.1472C72.7815 20.2704 72.3871 20.3613 71.9872 20.419L75.9708 26.9937H74.5152L70.6674 20.4966H68.3141V26.9937H67.0379L67.0137 13.3008ZM68.3141 19.3369H71.0264C71.5808 19.3542 72.1336 19.2686 72.6568 19.0846C73.0211 18.9496 73.352 18.7378 73.6272 18.4635C73.8495 18.2422 74.0158 17.971 74.1124 17.6726C74.1904 17.421 74.2328 17.1597 74.2386 16.8963C74.2328 16.6345 74.1904 16.3748 74.1124 16.1248C74.0148 15.8254 73.8487 15.5529 73.6272 15.329C73.3505 15.0579 73.0198 14.8479 72.6568 14.7128C72.1336 14.5288 71.5808 14.4432 71.0264 14.4605H68.3141V19.3369Z" fill="white"/>
<path d="M85.0199 13.3008H86.3349L92.0896 26.9937H90.6339L89.1783 23.3594H81.9242L80.3812 26.9937H79.0469L85.0199 13.3008ZM85.6216 14.6934L82.4289 22.1997H88.7367L85.6216 14.6934Z" fill="white"/>
<path d="M107.69 24.8494C107.109 25.6745 106.323 26.3335 105.409 26.7612C104.526 27.1524 103.57 27.3509 102.605 27.3434C101.622 27.3547 100.646 27.1734 99.7322 26.8097C98.8901 26.476 98.1278 25.9684 97.4953 25.3201C96.8636 24.664 96.3688 23.8887 96.0396 23.0395C95.3475 21.1771 95.3475 19.1279 96.0396 17.2654C96.3713 16.4204 96.8659 15.6488 97.4953 14.9946C98.1286 14.3447 98.8904 13.8341 99.7322 13.4952C100.644 13.1237 101.62 12.9389 102.605 12.9518C103.495 12.9415 104.379 13.1064 105.205 13.437C106.044 13.7919 106.774 14.3628 107.321 15.0916L106.278 15.9941C105.888 15.3584 105.319 14.852 104.643 14.5385C104.003 14.2471 103.308 14.095 102.605 14.0921C101.771 14.0837 100.945 14.249 100.179 14.5773C99.4884 14.8713 98.867 15.3059 98.3541 15.8534C97.8416 16.407 97.447 17.0591 97.1945 17.77C96.651 19.3085 96.651 20.9867 97.1945 22.5252C97.447 23.2361 97.8416 23.8882 98.3541 24.4418C98.8719 24.9854 99.4986 25.4136 100.193 25.6985C100.959 26.0269 101.786 26.1921 102.619 26.1838C102.983 26.1809 103.346 26.1386 103.701 26.0576C104.079 25.9727 104.446 25.8423 104.793 25.6694C105.155 25.4903 105.495 25.2706 105.807 25.0144C106.139 24.7358 106.427 24.4087 106.661 24.0439L107.69 24.8494Z" fill="white"/>
<path d="M115.41 14.4605H110.728V13.3008H121.364V14.4605H116.686V26.9937H115.41V14.4605Z" fill="white"/>
<path d="M128.695 13.3008H130.01L135.76 26.9937H134.328L132.848 23.3594H125.599L124.051 26.9937H122.717L128.695 13.3008ZM129.292 14.6934L126.104 22.1997H132.387L129.292 14.6934Z" fill="white"/>
<path d="M140.088 13.3008H141.364V25.834H147.745V26.9937H140.088V13.3008Z" fill="white"/>
</svg>
