<svg width="129" height="39" viewBox="0 0 129 39" fill="none" xmlns="http://www.w3.org/2000/svg">
<path d="M15.6716 19.1927L15.3252 18.8527C15.0629 18.5973 14.6124 18.7782 14.6124 19.1403V23.9956C14.6124 24.2198 14.8011 24.4022 15.0316 24.4022H20.013C20.3845 24.4022 20.5714 23.9637 20.3073 23.7086C20.1445 23.5499 20.1445 23.2928 20.3073 23.1344L25.6056 17.9531C25.7688 17.7953 25.7688 17.5382 25.6056 17.3788L25.1229 16.9099C24.8606 16.6545 25.0475 16.2158 25.4179 16.2158H30.3962C30.6265 16.2158 30.8148 16.3981 30.8148 16.6225V21.4774C30.8148 21.8395 30.3634 22.0207 30.1005 21.765L29.765 21.4379C29.601 21.2747 29.3374 21.2747 29.177 21.4379L20.2442 30.1425C20.082 30.3009 19.8188 30.3009 19.6545 30.1425L8.72583 19.4879C8.56155 19.3278 8.56155 19.0703 8.72583 18.9112L23.8548 4.16234C24.0173 4.00357 24.0173 3.74452 23.8548 3.58645L20.2973 0.118556C20.1345 -0.0395187 19.8708 -0.0395187 19.7072 0.118556L0.121606 19.2136C-0.0405354 19.3723 -0.0405354 19.6314 0.121606 19.7894L19.7052 38.8816C19.868 39.0394 20.1339 39.0394 20.296 38.8816L39.8786 19.7894C40.0405 19.6307 40.0405 19.373 39.8786 19.2148L28.3574 7.98245C28.1963 7.82438 27.9312 7.82438 27.768 7.98245L16.2645 19.1928C16.1002 19.353 15.8359 19.353 15.6716 19.1928V19.1927Z" fill="#DE5959"/>
<path d="M103.945 22.6915C103.456 22.6915 103.035 22.8665 102.681 23.2188C102.332 23.5712 102.154 23.9874 102.154 24.4693C102.154 25.2037 102.527 25.7753 103.267 26.1835C104.078 26.4051 104.731 26.2608 105.222 25.7584C105.578 25.4037 105.752 24.9785 105.752 24.483C105.752 23.9828 105.578 23.5646 105.222 23.2189C104.87 22.87 104.447 22.6962 103.944 22.6962V22.6916H103.945V22.6915ZM75.1325 9.06204H73.7962C73.2189 9.06204 72.7486 9.52695 72.7486 10.1056V10.8512C71.3285 9.37237 69.7176 8.63229 67.9182 8.63229C65.8426 8.63229 64.1096 9.4052 62.7267 10.9467C61.3411 12.4881 60.6522 14.416 60.6522 16.7281C60.6522 19.08 61.3423 21.0478 62.7239 22.6209C64.121 24.1632 65.8824 24.9329 68.016 24.9329C69.7035 24.9329 71.2819 24.244 72.75 22.8697V24.344C72.75 25.0601 73.332 25.6421 74.0464 25.6421H76.3279V10.2569C76.3276 9.59865 75.7922 9.06204 75.1324 9.06204H75.1325ZM71.7546 20.3851C70.9398 21.2935 69.8756 21.747 68.5535 21.747C67.3174 21.747 66.2921 21.2797 65.4806 20.3385C64.6888 19.412 64.2933 18.2049 64.2933 16.726C64.2933 15.3437 64.7007 14.1797 65.512 13.241C66.3349 12.3109 67.3596 11.8495 68.585 11.8495C69.8842 11.8495 70.9386 12.3088 71.7513 13.2319C72.5658 14.1708 72.9733 15.362 72.9733 16.8081C72.9733 18.2549 72.5659 19.4475 71.7513 20.3874H71.7548V20.3851H71.7546ZM60.6499 11.6664V10.142C60.6499 9.54406 60.168 9.06437 59.5723 9.06437H58.1633C57.5699 9.06437 57.0869 9.54185 57.0869 10.1397V10.8035C55.7983 9.35759 54.1827 8.63241 52.2399 8.63241C50.0225 8.63241 48.2357 9.47015 46.8852 11.1355C45.6281 12.7064 45 14.6185 45 16.8692C45 19.1802 45.6769 21.1104 47.0297 22.6506C48.3709 24.175 50.0914 24.9309 52.1932 24.9309C54.0391 24.9309 55.6715 24.2104 57.0867 22.7632V24.9173C57.0867 28.1183 55.7831 29.7188 53.1757 29.7188C51.76 29.7188 50.6847 29.2369 49.9458 28.2752C49.7572 28.0319 49.6008 27.7295 49.4763 27.3647C49.3017 26.8543 48.8163 26.5156 48.2797 26.5156H46.9295C46.2485 26.5156 45.7422 27.1635 45.9142 27.8228C46.2837 29.2277 46.997 30.369 48.0587 31.2511C49.3894 32.3604 51.0853 32.9153 53.1428 32.9153C55.5817 32.9153 57.4988 32.1127 58.8935 30.51C59.6324 29.6756 60.1269 28.6776 60.3809 27.5158C60.4656 27.0975 60.5322 26.6053 60.5788 26.0494C60.6253 25.497 60.6486 24.8558 60.6486 24.1261V21.8842C59.6511 20.4475 59.1494 18.7297 59.1494 16.7281C59.1494 14.7605 59.6499 13.0792 60.6486 11.6663H60.6498L60.6499 11.6664ZM56.1359 20.2634C55.3443 21.2536 54.2688 21.7469 52.9048 21.7469C51.5424 21.7469 50.4762 21.258 49.7038 20.2725C48.9979 19.3768 48.6443 18.2241 48.6443 16.8215C48.6443 15.3937 48.9978 14.232 49.7038 13.3364C50.4872 12.3348 51.5522 11.8337 52.9048 11.8337C54.1712 11.8337 55.2119 12.2928 56.024 13.2101C56.8269 14.1071 57.2299 15.3053 57.2299 16.8069C57.2299 18.2107 56.8644 19.361 56.1357 20.2613V20.2637L56.1359 20.2634ZM90.276 9.07345V9.06204H82.8848V4.53555C82.8848 3.95355 82.4144 3.48294 81.8312 3.48294H80.388C79.8005 3.48294 79.323 3.96041 79.323 4.54917V9.06204H77.8004V12.3847H79.3209V25.6401H81.3532C82.2006 25.6401 82.8828 24.958 82.8828 24.11V12.387H86.5373C86.826 11.8358 87.1755 11.3276 87.5911 10.8627C88.3483 10.035 89.244 9.43942 90.2739 9.07357H90.2762L90.276 9.07345ZM108.461 3.48294C107.829 3.48294 107.286 3.71143 106.831 4.16738C106.379 4.62076 106.149 5.16074 106.149 5.78256C106.149 6.43859 106.377 6.98871 106.831 7.44686C107.286 7.90036 107.836 8.12664 108.479 8.12664C109.124 8.12664 109.667 7.90048 110.107 7.44453C110.562 6.9865 110.792 6.44313 110.792 5.79746C110.792 5.15422 110.564 4.60853 110.108 4.16749C109.651 3.70934 109.102 3.48096 108.459 3.48096L108.461 3.48305V3.48294ZM109.183 10.8104H107.891C107.228 10.8104 106.688 11.3447 106.688 12.013V23.3258C106.961 23.6464 107.092 24.0249 107.092 24.4615C107.092 24.898 106.963 25.28 106.688 25.6017V26.2384H108.982C109.684 26.2384 110.253 25.6677 110.253 24.965V11.8745C110.253 11.2855 109.773 10.8083 109.182 10.8083L109.183 10.8106L109.183 10.8104ZM125.933 12.9929C124.328 11.422 122.374 10.6353 120.072 10.6353C117.78 10.6353 115.836 11.4152 114.243 12.9816C112.649 14.5412 111.851 16.4373 111.851 18.6653C111.851 21.0285 112.631 22.9962 114.195 24.5592C115.759 26.1427 117.698 26.9338 120.008 26.9338C122.341 26.9338 124.309 26.1586 125.916 24.6058C127.506 23.0394 128.306 21.1058 128.306 18.7927C128.306 16.4998 127.515 14.5674 125.933 12.993V12.9929ZM123.412 22.4028C122.58 23.302 121.465 23.7464 120.07 23.7464C118.685 23.7464 117.573 23.2951 116.728 22.3845C115.905 21.4889 115.491 20.2658 115.491 18.7266C115.491 17.2921 115.916 16.119 116.759 15.2119C117.605 14.3024 118.708 13.8488 120.072 13.8488C121.453 13.8488 122.568 14.3024 123.411 15.2119C124.246 16.1076 124.664 17.3057 124.664 18.804C124.664 20.3067 124.244 21.5036 123.411 22.4005V22.4051V22.4028H123.412Z" fill="#DE5959"/>
<path d="M91.6036 21.7798C90.8692 21.0364 90.459 20.0224 90.3646 18.7538H100.579C101.045 18.7538 101.43 18.381 101.436 17.9161C101.436 15.3665 100.782 13.3817 99.4732 11.9447C98.1512 10.4979 96.3528 9.77478 94.0861 9.77478C91.8401 9.77478 90.0327 10.5193 88.6709 12.0085C87.3188 13.5202 86.6436 15.4924 86.6436 17.933C86.6436 20.3917 87.3422 22.3674 88.7324 23.8555C89.7055 24.8909 90.8979 25.5604 92.3131 25.8719C92.9065 26.0116 93.5214 26.0856 94.1433 26.0765C96.6805 26.1289 98.888 26.1811 101.425 26.2334L101.43 25.8606C101.119 25.523 100.964 25.1151 100.964 24.6421C100.964 24.1806 101.126 23.7839 101.443 23.4406L101.446 22.9893C99.445 22.9393 94.5935 22.8916 94.4003 22.8916C93.2635 22.8916 92.3292 22.5244 91.604 21.7823V21.7799L91.6036 21.7798ZM91.108 14.6549C91.332 14.3045 91.5969 14.0091 91.9094 13.7613C92.2243 13.5089 92.5653 13.3225 92.9473 13.1907C93.327 13.0588 93.7339 12.9928 94.1704 12.9928C96.0666 12.9928 97.2669 13.941 97.767 15.8416H90.6022C90.7193 15.3981 90.8874 15.0027 91.1081 14.6526V14.6549H91.108Z" fill="#DE5959"/>
</svg>
