<svg width="107" height="49" viewBox="0 0 107 49" fill="none" xmlns="http://www.w3.org/2000/svg">
<path d="M85.0978 23.0737C85.0978 23.0737 79.9211 28.51 81.4329 30.1745L92.7941 42.6962C92.901 42.8184 93.069 42.8947 93.2369 42.8947H101.743C102.079 42.8947 102.338 42.6351 102.338 42.2992C102.338 42.1465 102.277 42.0091 102.185 41.9022L85.0978 23.0737Z" fill="#8C145A"/>
<path d="M96.1681 25.3029C96.1681 25.3029 101.345 19.8667 99.833 18.2022L88.4718 5.68045C88.3649 5.55829 88.1969 5.48193 88.0289 5.48193H79.5386C79.2026 5.48193 78.943 5.74153 78.9277 6.06221C78.9277 6.21491 78.9888 6.36762 79.0957 6.48978L96.1681 25.3029Z" fill="#8C145A"/>
<path d="M96.1687 25.3029C96.1687 25.3029 101.345 19.8666 99.8336 18.2021C103.544 22.2794 105.255 24.1729 105.911 24.9059C106.11 25.1349 106.11 25.4709 105.911 25.6999L86.2429 48.1933C86.136 48.3154 85.968 48.3918 85.8 48.3918H77.2791C76.9432 48.3918 76.6836 48.1322 76.6836 47.7962C76.6836 47.6435 76.7294 47.5061 76.8363 47.3992L96.1687 25.3029Z" fill="#F05A28"/>
<path d="M85.0975 23.0736C85.0975 23.0736 79.9208 28.5099 81.4326 30.1744C77.7219 26.0972 76.0116 24.2036 75.3549 23.4706C75.1564 23.2416 75.1564 22.9056 75.3549 22.6766L95.0538 0.198516C95.1607 0.0610819 95.3287 0 95.4966 0H104.018C104.353 0 104.613 0.259597 104.613 0.595547C104.613 0.748251 104.567 0.885685 104.46 0.992578L85.0975 23.0736Z" fill="#F05A28"/>
<path d="M29.2533 11.0711V39.352C29.2533 39.6879 28.9785 39.9475 28.6578 39.9475H24.8554C24.5195 39.9475 24.2599 39.6726 24.2599 39.352V14.3543C24.2599 14.2016 24.321 14.0641 24.4126 13.9572L27.314 10.6741C27.4209 10.5519 27.5888 10.4756 27.7568 10.4756H28.6578C28.9937 10.4756 29.2533 10.7505 29.2533 11.0711ZM63.4896 10.4756H47.868C47.532 10.4756 47.2724 10.7505 47.2724 11.0711V14.1252C47.2724 14.4612 47.5473 14.7208 47.868 14.7208H52.22C52.556 14.7208 52.8156 14.9804 52.8156 15.3163V39.352C52.8156 39.6879 53.0905 39.9475 53.4111 39.9475H57.1371C57.4731 39.9475 57.7327 39.6726 57.7327 39.352V15.3163C57.7327 14.9804 57.9923 14.7208 58.3282 14.7208H60.7715C60.9395 14.7208 61.1074 14.6444 61.2143 14.5222L63.9172 11.4682C64.131 11.2238 64.1157 10.8421 63.8714 10.6283C63.7645 10.5367 63.627 10.4756 63.4896 10.4756ZM48.3719 35.3358H41.2253C40.8894 35.3358 40.6298 35.0762 40.6298 34.7403V11.0711C40.6298 10.7352 40.3549 10.4756 40.0342 10.4756H36.1861C35.8501 10.4756 35.5905 10.7352 35.5905 11.0711V39.352C35.5905 39.6879 35.8654 39.9475 36.1861 39.9475H45.4705C45.6385 39.9475 45.8065 39.8712 45.9134 39.749L48.8758 36.4048C49.1201 36.1299 49.0896 35.7329 48.8147 35.4885C48.6773 35.3817 48.5246 35.3358 48.3719 35.3358ZM12.4406 24.9825C12.349 24.7992 12.349 24.5855 12.4406 24.4175L19.6177 11.3613C19.7704 11.0711 19.6635 10.7046 19.3734 10.5519C19.2817 10.5061 19.1901 10.4756 19.0985 10.4756H14.7617C14.5479 10.4756 14.3494 10.5977 14.2425 10.781L6.59201 24.6924L14.7922 39.6421C14.8991 39.8253 15.0976 39.9475 15.3114 39.9475H19.6482C19.9689 39.9475 20.2438 39.6879 20.2438 39.352C20.2438 39.2451 20.2132 39.1535 20.1674 39.0618L12.4406 24.9825ZM5.12604 10.4756H1.30844C0.972488 10.4756 0.712891 10.7505 0.712891 11.0711V39.352C0.712891 39.6879 0.987759 39.9475 1.30844 39.9475H5.12604C5.46199 39.9475 5.72159 39.6726 5.72159 39.352V11.0711C5.72159 10.7505 5.46199 10.4756 5.12604 10.4756Z" fill="white"/>
</svg>
