<svg width="101" height="42" viewBox="0 0 101 42" fill="none" xmlns="http://www.w3.org/2000/svg">
<path d="M90.3606 5.68603L83.6636 10.386L77.9902 6.39845V1.64651C77.9902 1.22722 78.4009 0.887085 78.9054 0.887085H83.5316L90.3606 5.68603ZM100.898 13.0848L97.0588 10.3897L90.3618 15.0897L96.3558 19.295L100.898 22.4848V13.0848ZM83.4453 19.9481L80.1905 22.2337C79.123 23.0765 78.3837 24.2678 78.1012 25.6004L83.6636 29.5064L90.3606 24.8064L83.4453 19.9481ZM97.0588 29.5064L90.3618 34.2064L95.4764 37.7932H99.9756C100.106 37.7942 100.236 37.7698 100.358 37.7215C100.453 37.688 100.542 37.6378 100.619 37.5731V37.5731C100.701 37.5094 100.768 37.4282 100.815 37.3353C100.861 37.2424 100.886 37.1402 100.888 37.0363V32.1977L97.0588 29.5064Z" fill="url(#paint0_linear)"/>
<path d="M98.5505 17.7589L98.5394 17.7675L77.9785 32.2052V41.6114L100.899 25.5163V13.0848C100.899 13.9938 100.687 14.8901 100.279 15.7019C99.871 16.5136 99.2791 17.2181 98.5505 17.7589V17.7589Z" fill="white"/>
<path d="M100.899 1.48821V6.39477L80.1911 20.94C79.5014 21.4833 78.9439 22.1767 78.5606 22.9678C78.1773 23.7589 77.9782 24.6269 77.9785 25.5065V13.0873L95.3685 0.875977H100.031C100.463 0.887108 100.82 1.14685 100.899 1.48821Z" fill="white"/>
<path d="M31.128 1.62919V36.9732C31.1286 37.0727 31.1097 37.1713 31.0722 37.2634C31.0347 37.3555 30.9795 37.4393 30.9097 37.51V37.51C30.8492 37.5728 30.7772 37.6232 30.6975 37.6584C30.6005 37.7062 30.4937 37.7307 30.3855 37.7301H25.6199C25.4216 37.7272 25.2324 37.6457 25.0938 37.5034C24.9551 37.3611 24.8783 37.1696 24.8799 36.9707V1.62919C24.8783 1.43015 24.9551 1.23851 25.0937 1.09604C25.2323 0.95356 25.4215 0.871786 25.6199 0.86853H30.383C30.4818 0.869338 30.5794 0.889664 30.6703 0.928345C30.7612 0.967025 30.8436 1.0233 30.9128 1.09395C30.982 1.1646 31.0366 1.24824 31.0735 1.34008C31.1105 1.43192 31.129 1.53017 31.128 1.62919Z" fill="white"/>
<path d="M52.3074 32.4439H43.1659H43.1215C42.9628 32.4277 42.8136 32.3606 42.696 32.2525C42.5784 32.1444 42.4988 32.0011 42.4691 31.844L42.4629 1.61186C42.4629 1.41504 42.3849 1.22628 42.2462 1.08711C42.1074 0.947937 41.9192 0.869751 41.7229 0.869751H36.9548C36.7586 0.869751 36.5704 0.947937 36.4316 1.08711C36.2928 1.22628 36.2148 1.41504 36.2148 1.61186V36.9905C36.2148 37.1873 36.2928 37.3761 36.4316 37.5152C36.5704 37.6544 36.7586 37.7326 36.9548 37.7326L52.3074 37.7425C52.5036 37.7425 52.6918 37.6643 52.8306 37.5251C52.9694 37.386 53.0474 37.1972 53.0474 37.0004V33.1909C53.048 33.093 53.0294 32.996 52.9925 32.9054C52.9556 32.8148 52.9012 32.7324 52.8324 32.663C52.7636 32.5935 52.6818 32.5384 52.5917 32.5008C52.5016 32.4632 52.405 32.4439 52.3074 32.4439Z" fill="white"/>
<path d="M21.0808 36.6368L11.4312 19.0105C11.3711 18.901 11.3397 18.7781 11.3397 18.6531C11.3397 18.5281 11.3711 18.4052 11.4312 18.2956L20.3852 1.95447C20.4461 1.84133 20.4766 1.71426 20.4738 1.58572C20.471 1.45718 20.4349 1.33158 20.3692 1.22122C20.3034 1.11086 20.2101 1.01953 20.0986 0.956185C19.987 0.89284 19.8609 0.859648 19.7327 0.859864H14.3295C14.1967 0.859695 14.0663 0.895014 13.9516 0.962187C13.8369 1.02936 13.7422 1.12596 13.6771 1.24205L6.35354 14.6135V1.60939C6.35354 1.41257 6.27557 1.22381 6.13679 1.08464C5.99802 0.945471 5.8098 0.867286 5.61353 0.867286H0.845469C0.649209 0.867286 0.460987 0.945471 0.32221 1.08464C0.183433 1.22381 0.105469 1.41257 0.105469 1.60939V36.9917C0.105469 37.1886 0.183433 37.3773 0.32221 37.5165C0.460987 37.6557 0.649209 37.7338 0.845469 37.7338H5.60614C5.8024 37.7338 5.99062 37.6557 6.12939 37.5165C6.26817 37.3773 6.34614 37.1886 6.34614 36.9917V28.8348L4.12614 18.6593L14.3628 37.3566C14.4272 37.473 14.5216 37.5699 14.6362 37.6372C14.7508 37.7044 14.8813 37.7395 15.014 37.7388H20.4172C20.5464 37.7395 20.6735 37.7063 20.7859 37.6425C20.8983 37.5787 20.9921 37.4865 21.0579 37.375C21.1238 37.2636 21.1594 37.1368 21.1612 37.0073C21.1631 36.8778 21.1311 36.75 21.0684 36.6368H21.0808Z" fill="white"/>
<path d="M70.3088 1.60943V5.43127C70.3088 5.62809 70.2309 5.81685 70.0921 5.95602C69.9533 6.09519 69.7651 6.17338 69.5688 6.17338H60.341L63.269 8.25004C63.3174 8.28429 63.3569 8.32969 63.3841 8.38242C63.4114 8.43515 63.4256 8.49367 63.4256 8.55306V37.0004C63.4256 37.1972 63.3477 37.386 63.2089 37.5252C63.0701 37.6643 62.8819 37.7425 62.6856 37.7425H57.999C57.8027 37.7425 57.6145 37.6643 57.4757 37.5252C57.3369 37.386 57.259 37.1972 57.259 37.0004V6.92167C57.2599 6.73706 57.1921 6.55873 57.069 6.42151C56.9458 6.28428 56.7761 6.19802 56.593 6.17956H56.5486H51.117C50.9207 6.17956 50.7325 6.10138 50.5937 5.9622C50.4549 5.82303 50.377 5.63428 50.377 5.43746V1.60943C50.377 1.41261 50.4549 1.22386 50.5937 1.08468C50.7325 0.945512 50.9207 0.867326 51.117 0.867326H69.5639C69.6615 0.866674 69.7583 0.885387 69.8486 0.922389C69.939 0.959391 70.0211 1.01395 70.0904 1.08293C70.1596 1.1519 70.2146 1.23393 70.2521 1.32429C70.2895 1.41465 70.3089 1.51156 70.3088 1.60943V1.60943Z" fill="white"/>
<defs>
<linearGradient id="paint0_linear" x1="77.9853" y1="19.3445" x2="100.898" y2="19.3445" gradientUnits="userSpaceOnUse">
<stop offset="0.2" stop-color="white"/>
<stop offset="0.68" stop-color="white" stop-opacity="0.5"/>
<stop offset="1" stop-color="#1D1D1B" stop-opacity="0"/>
</linearGradient>
</defs>
</svg>
