<svg width="149" height="35" viewBox="0 0 149 35" fill="none" xmlns="http://www.w3.org/2000/svg">
<path d="M117.214 17.059C117.214 16.1878 117.214 15.3684 117.186 14.6116C117.167 13.8977 117.096 13.1861 116.975 12.4823C116.861 11.8397 116.66 11.2156 116.378 10.6272C116.08 10.0206 115.681 9.46862 115.199 8.9946C114.516 8.29443 113.703 7.73405 112.805 7.34475C111.834 6.95142 110.794 6.75644 109.747 6.7713C108.695 6.75771 107.652 6.95261 106.676 7.34475C105.773 7.72873 104.955 8.28668 104.268 8.98676C103.787 9.4605 103.39 10.0126 103.094 10.6194C102.814 11.2079 102.617 11.8321 102.507 12.4745C102.388 13.1784 102.32 13.89 102.303 14.6038C102.284 15.3605 102.275 16.18 102.28 17.0511C102.284 17.9223 102.28 18.7354 102.303 19.4969C102.32 20.2106 102.388 20.9222 102.507 21.6262C102.617 22.2686 102.814 22.8928 103.094 23.4813C103.391 24.0874 103.788 24.6393 104.268 25.1139C104.954 25.8145 105.772 26.3717 106.676 26.7528C107.651 27.1475 108.695 27.3435 109.747 27.3294C110.795 27.3448 111.835 27.1487 112.805 26.7528C113.703 26.3687 114.516 25.8118 115.199 25.1139C115.68 24.639 116.078 24.0872 116.378 23.4813C116.66 22.8929 116.861 22.2688 116.975 21.6262C117.095 20.9244 117.165 20.2149 117.183 19.5032C117.206 18.7417 117.217 17.927 117.211 17.0574L117.214 17.059ZM113.266 17.059C113.266 18.0241 113.252 18.8279 113.219 19.4671C113.2 19.9922 113.148 20.5156 113.062 21.0339C113.004 21.3793 112.898 21.7151 112.749 22.032C112.628 22.2874 112.469 22.5235 112.279 22.7324C111.985 23.069 111.62 23.3366 111.21 23.5158C110.749 23.713 110.253 23.8132 109.752 23.8104C109.248 23.8125 108.749 23.7123 108.285 23.5158C107.866 23.3399 107.491 23.0722 107.188 22.7324C106.997 22.5244 106.838 22.2882 106.718 22.032C106.573 21.7147 106.473 21.3788 106.421 21.0339C106.337 20.5153 106.285 19.9921 106.264 19.4671C106.236 18.8279 106.222 18.0251 106.222 17.059C106.222 16.0938 106.236 15.2885 106.264 14.6492C106.285 14.1243 106.337 13.6011 106.421 13.0824C106.473 12.7375 106.573 12.4016 106.718 12.0843C106.838 11.8283 106.997 11.5922 107.188 11.384C107.491 11.0446 107.866 10.777 108.285 10.6006C108.748 10.4018 109.248 10.3015 109.752 10.306C110.253 10.3008 110.75 10.4012 111.21 10.6006C111.62 10.7803 111.984 11.0477 112.279 11.384C112.469 11.5931 112.627 11.8291 112.749 12.0843C112.898 12.4013 113.004 12.737 113.062 13.0824C113.148 13.6008 113.2 14.1241 113.219 14.6492C113.253 15.2869 113.266 16.0922 113.266 17.059Z" fill="#23AF91"/>
<path d="M148.676 7.29451C148.674 7.10398 148.52 6.94994 148.329 6.94824H145.072C144.881 6.9491 144.727 7.10363 144.726 7.29451V19.3276L136.782 7.04538C136.729 6.96234 136.682 6.94824 136.564 6.94824H133.544C133.353 6.95077 133.2 7.10433 133.197 7.29451V26.8201C133.2 27.01 133.354 27.1631 133.544 27.1648H136.799C136.989 27.1639 137.143 27.0101 137.144 26.8201V14.7556L145.089 27.066C145.144 27.1491 145.188 27.1632 145.307 27.1632H148.326C148.517 27.1623 148.671 27.0088 148.673 26.8185L148.676 7.29451Z" fill="#23AF91"/>
<path d="M126.84 7.29451C126.839 7.10363 126.685 6.9491 126.494 6.94824H123.24C123.049 6.9491 122.894 7.10363 122.894 7.29451V26.8185C122.894 27.0094 123.049 27.1639 123.24 27.1648H126.494C126.685 27.1639 126.839 27.0094 126.84 26.8185V7.29451Z" fill="#23AF91"/>
<path d="M87.8838 17.0589C87.8838 16.0875 87.8947 15.279 87.9229 14.635C87.9421 14.11 87.9944 13.5867 88.0796 13.0682C88.3804 11.3291 89.7122 10.3028 91.4122 10.3028C92.5215 10.3122 93.5274 10.7227 94.1698 11.6565C94.4607 12.0925 94.6728 12.5761 94.7965 13.0855C94.806 13.1391 94.8551 13.1765 94.9093 13.1716H98.7402C98.795 13.1716 98.8154 13.134 98.806 13.0808C98.3876 10.7102 97.1232 8.58089 94.8889 7.52643C93.7909 7.01802 92.5923 6.76364 91.3824 6.7822C89.2255 6.7822 87.4085 7.52069 85.9315 8.99766C85.0883 9.81949 84.5127 10.8767 84.2801 12.031C84.0545 13.1675 83.9406 14.8429 83.9385 17.0573C83.9364 19.2717 84.0503 20.9467 84.2801 22.0821C84.5108 23.2378 85.0847 24.2972 85.9268 25.1217C87.4027 26.5976 89.2197 27.3356 91.3777 27.3356C92.5875 27.3539 93.7858 27.1001 94.8842 26.5929C97.1185 25.5384 98.3829 23.4092 98.8013 21.0386C98.8107 20.9837 98.7903 20.9477 98.7355 20.9477H94.903C94.8486 20.942 94.7991 20.9798 94.7902 21.0339C94.6663 21.5426 94.4542 22.0257 94.1635 22.4612C93.5211 23.4013 92.5152 23.8071 91.4059 23.815C89.7059 23.815 88.3742 22.7903 88.0733 21.0511C87.9882 20.5327 87.9359 20.0093 87.9167 19.4843C87.8947 18.8372 87.8838 18.0272 87.8838 17.0589Z" fill="#23AF91"/>
<path d="M47.4224 7.29451C47.4215 7.10363 47.267 6.9491 47.0761 6.94824H43.8218C43.631 6.9491 43.4764 7.10363 43.4756 7.29451V26.8201C43.4773 27.0103 43.6316 27.1639 43.8218 27.1649H47.0761C47.2664 27.1639 47.4207 27.0103 47.4224 26.8201V21.0887L50.0342 17.966L55.399 27.0613C55.4403 27.1284 55.5146 27.1679 55.5933 27.1649H59.5479C59.7296 27.1649 59.7625 27.0519 59.6717 26.8968L52.6477 14.9891L59.092 7.25847C59.222 7.10179 59.1672 6.95294 58.9635 6.95294H54.6407C54.5881 6.94985 54.5374 6.9734 54.5059 7.01561L47.4224 15.5108V7.29451Z" fill="#23AF91"/>
<path d="M71.1316 23.8149C69.3 23.8149 67.6392 22.1196 67.6392 20.0953V7.29451C67.6383 7.10363 67.4838 6.9491 67.2929 6.94824H64.0386C63.8478 6.9491 63.6932 7.10363 63.6924 7.29451V20.0452C63.6924 24.5027 67.0266 27.3355 71.1316 27.3355C75.2366 27.3355 78.5708 24.5027 78.5708 20.0452V7.29451C78.5691 7.10398 78.4151 6.94994 78.2245 6.94824H74.9687C74.7784 6.94995 74.6248 7.10423 74.624 7.29451V20.0953C74.624 22.1181 72.9616 23.8149 71.1316 23.8149Z" fill="#23AF91"/>
<path fill-rule="evenodd" clip-rule="evenodd" d="M10.7638 17.0587L20.8666 27.163L27.2435 20.7861C28.3837 19.7594 30.1282 19.8051 31.2132 20.89C32.2982 21.975 32.3439 23.7195 31.3172 24.8598L22.9018 33.2767C21.7715 34.3884 19.9585 34.3884 18.8281 33.2767L6.68695 21.1324V28.3506C6.68695 29.9437 5.39552 31.2351 3.80246 31.2351C2.2094 31.2351 0.917969 29.9437 0.917969 28.3506V5.7573C0.917969 4.16424 2.2094 2.87281 3.80246 2.87281C5.39552 2.87281 6.68695 4.16424 6.68695 5.7573V12.9756L18.8266 0.834391C19.9566 -0.27813 21.7702 -0.27813 22.9003 0.834391L31.3219 9.24971C32.3486 10.39 32.3029 12.1345 31.2179 13.2195C30.1329 14.3045 28.3884 14.3501 27.2482 13.3234L20.8713 6.9465L10.7638 17.0587ZM20.8713 14.171C19.7032 14.1704 18.6498 14.8736 18.2023 15.9525C17.7549 17.0315 18.0015 18.2738 18.8273 19.1C19.653 19.9262 20.8951 20.1735 21.9744 19.7266C23.0536 19.2798 23.7573 18.2268 23.7573 17.0587C23.7577 16.2928 23.4539 15.5582 22.9127 15.0164C22.3714 14.4745 21.6371 14.1699 20.8713 14.1695V14.171Z" fill="#23AF91"/>
</svg>
