<svg width="225" height="47" viewBox="0 0 225 47" fill="none" xmlns="http://www.w3.org/2000/svg">
<path d="M49.1439 46.9023V0H0V10.9536L5.20925 18.3701V4.88565H44.0329V42.0166H29.4863V17.9792L14.5466 38.4012L0 17.6958V46.9023H5.20925V34.1019L14.4483 47L24.2771 33.8087V46.9023H49.1439Z" fill="#007DFF"/>
<path d="M64.5166 14.5454V31.9999H68.0961V20.5965H68.241L72.7581 31.9147H75.1956L79.7126 20.6391H79.8575V31.9999H83.4371V14.5454H78.8859L74.0791 26.2727H73.8746L69.0677 14.5454H64.5166Z" fill="white"/>
<path d="M90.1423 32.2471C92.077 32.2471 93.3298 31.4034 93.969 30.1846H94.0713V31.9999H97.5145V23.1704C97.5145 20.0511 94.8724 18.7386 91.9577 18.7386C88.8213 18.7386 86.7588 20.2386 86.2559 22.6249L89.6139 22.8977C89.8611 22.0284 90.6366 21.3891 91.9406 21.3891C93.1764 21.3891 93.8838 22.0113 93.8838 23.0852V23.1363C93.8838 23.9801 92.9889 24.0909 90.7133 24.3124C88.1224 24.5511 85.7957 25.4204 85.7957 28.3437C85.7957 30.9346 87.6452 32.2471 90.1423 32.2471ZM91.1821 29.7414C90.0656 29.7414 89.2645 29.2215 89.2645 28.2244C89.2645 27.2016 90.1082 26.6988 91.3866 26.5198C92.1792 26.409 93.4747 26.2215 93.9094 25.9318V27.321C93.9094 28.6931 92.7758 29.7414 91.1821 29.7414Z" fill="white"/>
<path d="M100.331 31.9999H103.962V24.5937C103.962 22.9829 105.138 21.8749 106.74 21.8749C107.243 21.8749 107.934 21.9602 108.274 22.071V18.8494C107.951 18.7727 107.499 18.7215 107.132 18.7215C105.666 18.7215 104.465 19.5738 103.987 21.1931H103.851V18.909H100.331V31.9999Z" fill="white"/>
<path d="M110.152 31.9999H113.782V27.8409L114.762 26.7244L118.333 31.9999H122.586L117.481 24.5766L122.339 18.909H118.171L113.978 23.8778H113.782V14.5454H110.152V31.9999Z" fill="white"/>
<path d="M129.547 32.2556C132.786 32.2556 134.968 30.6789 135.479 28.2499L132.121 28.0284C131.755 29.0255 130.817 29.5454 129.607 29.5454C127.791 29.5454 126.641 28.3437 126.641 26.392V26.3835H135.556V25.3863C135.556 20.9374 132.862 18.7386 129.402 18.7386C125.55 18.7386 123.053 21.4744 123.053 25.5141C123.053 29.6647 125.516 32.2556 129.547 32.2556ZM126.641 24.1335C126.718 22.642 127.851 21.4488 129.462 21.4488C131.039 21.4488 132.13 22.5738 132.138 24.1335H126.641Z" fill="white"/>
<path d="M144.888 18.909H142.425V15.7727H138.794V18.909H137.005V21.6363H138.794V28.4545C138.777 31.0198 140.524 32.2897 143.158 32.1789C144.095 32.1448 144.76 31.9573 145.127 31.838L144.556 29.1363C144.377 29.1704 143.993 29.2556 143.652 29.2556C142.928 29.2556 142.425 28.9829 142.425 27.9772V21.6363H144.888V18.909Z" fill="white"/>
<path d="M157.463 18.909H159.509C159.415 16.2755 156.986 14.3068 153.611 14.3068C150.27 14.3068 147.645 16.2499 147.645 19.1818C147.645 21.534 149.35 22.9318 152.077 23.7159L154.225 24.3295C156.066 24.8409 157.702 25.4886 157.702 27.2272C157.702 29.1363 155.861 30.3977 153.441 30.3977C151.361 30.3977 149.52 29.4772 149.35 27.4999H147.168C147.372 30.3636 149.691 32.3068 153.441 32.3068C157.463 32.3068 159.747 30.0909 159.747 27.2613C159.747 23.9886 156.645 22.9318 154.838 22.4545L153.066 21.9772C151.77 21.6363 149.691 20.9545 149.691 19.0795C149.691 17.409 151.225 16.1818 153.543 16.1818C155.657 16.1818 157.259 17.1874 157.463 18.909Z" fill="white"/>
<path d="M173.893 36.909V18.909H171.95V20.9886H171.711C171.268 20.3068 170.484 18.7386 167.927 18.7386C164.62 18.7386 162.336 21.3636 162.336 25.4886C162.336 29.6477 164.62 32.2727 167.893 32.2727C170.416 32.2727 171.268 30.7045 171.711 29.9886H171.882V36.909H173.893ZM171.916 25.4545C171.916 28.4204 170.586 30.4659 168.166 30.4659C165.643 30.4659 164.348 28.2499 164.348 25.4545C164.348 22.6931 165.609 20.5454 168.166 20.5454C170.62 20.5454 171.916 22.5227 171.916 25.4545Z" fill="white"/>
<path d="M185.825 26.6477C185.825 29.1022 183.95 30.2272 182.45 30.2272C180.779 30.2272 179.586 28.9999 179.586 27.0909V18.909H177.575V27.2272C177.575 30.5681 179.348 32.1704 181.802 32.1704C183.779 32.1704 185.075 31.1136 185.688 29.784H185.825V31.9999H187.836V18.909H185.825V26.6477Z" fill="white"/>
<path d="M195.372 32.3068C197.657 32.3068 198.85 31.0795 199.259 30.2272H199.361V31.9999H201.372V23.3749C201.372 19.2159 198.202 18.7386 196.532 18.7386C194.554 18.7386 192.304 19.4204 191.282 21.8068L193.191 22.4886C193.634 21.534 194.682 20.5113 196.6 20.5113C198.449 20.5113 199.361 21.4914 199.361 23.1704V23.2386C199.361 24.2102 198.372 24.1249 195.986 24.4318C193.557 24.7471 190.907 25.284 190.907 28.284C190.907 30.8409 192.884 32.3068 195.372 32.3068ZM195.679 30.4999C194.077 30.4999 192.918 29.784 192.918 28.3863C192.918 26.8522 194.316 26.3749 195.884 26.1704C196.736 26.0681 199.02 25.8295 199.361 25.4204V27.2613C199.361 28.8977 198.066 30.4999 195.679 30.4999Z" fill="white"/>
<path d="M205.044 31.9999H207.055V23.7159C207.055 21.9431 208.453 20.6477 210.362 20.6477C210.899 20.6477 211.453 20.7499 211.589 20.784V18.7386C211.359 18.7215 210.831 18.7045 210.532 18.7045C208.964 18.7045 207.6 19.5909 207.123 20.8863H206.987V18.909H205.044V31.9999Z" fill="white"/>
<path d="M219.063 32.2727C221.723 32.2727 223.666 30.9431 224.279 28.9659L222.336 28.4204C221.825 29.784 220.64 30.4659 219.063 30.4659C216.703 30.4659 215.075 28.9403 214.981 26.1363H224.484V25.284C224.484 20.409 221.586 18.7386 218.859 18.7386C215.313 18.7386 212.961 21.534 212.961 25.5568C212.961 29.5795 215.279 32.2727 219.063 32.2727ZM214.981 24.3977C215.117 22.3607 216.558 20.5454 218.859 20.5454C221.041 20.5454 222.438 22.1818 222.438 24.3977H214.981Z" fill="white"/>
</svg>
