<svg width="157" height="24" viewBox="0 0 157 24" fill="none" xmlns="http://www.w3.org/2000/svg">
<path d="M9.17888 17.6141C7.48493 17.6141 5.95846 17.2484 4.60638 16.517C3.24661 15.7849 2.18185 14.7755 1.41055 13.4795C0.654609 12.1673 0.28125 10.6808 0.28125 9.03448C0.28125 7.38049 0.654609 5.9101 1.41055 4.61409C2.18185 3.31732 3.24661 2.3071 4.60638 1.57651C5.96615 0.84516 7.49339 0.478715 9.17888 0.478715C10.8882 0.478715 12.4308 0.84516 13.7821 1.57651C15.1419 2.30787 16.1913 3.31732 16.9472 4.61409C17.7185 5.9101 18.1072 7.38049 18.1072 9.03448C18.1072 10.6885 17.7185 12.1673 16.9472 13.4871C16.192 14.7831 15.1419 15.7934 13.7821 16.5247C12.43 17.2561 10.8959 17.6141 9.17888 17.6141ZM9.17888 14.2661C10.6178 14.2661 11.8108 13.7898 12.7488 12.8272C13.6868 11.8654 14.1562 10.6009 14.1562 9.03448C14.1562 7.46806 13.6876 6.20433 12.7488 5.24174C11.8108 4.27991 10.6178 3.80284 9.17888 3.80284C7.73922 3.80284 6.54693 4.27915 5.60892 5.24174C4.68628 6.20433 4.23302 7.46806 4.23302 9.03448C4.23302 10.6017 4.69396 11.8654 5.60815 12.8272C6.54693 13.7814 7.73922 14.2661 9.17888 14.2661ZM30.6709 0.478715C32.301 0.478715 33.7561 0.83671 35.0283 1.54425C36.3243 2.25256 37.3337 3.25433 38.0658 4.55033C38.7972 5.84633 39.1629 7.34131 39.1629 9.03448C39.1629 10.7284 38.7972 12.2303 38.0658 13.5509C37.3337 14.8469 36.3243 15.8487 35.0283 16.5562C33.7561 17.2645 32.301 17.6217 30.6709 17.6217C28.9055 17.6217 27.4266 17.1608 26.2343 16.2389C25.884 15.9678 25.3125 16.199 25.3125 16.6361V23.0047C25.3125 23.2675 25.0974 23.4818 24.8346 23.4818H21.8693C21.743 23.4814 21.622 23.4311 21.5326 23.3419C21.4433 23.2527 21.3928 23.1318 21.3922 23.0055V1.13939C21.3922 0.876658 21.6065 0.662322 21.8685 0.662322H24.6441C24.9061 0.662322 25.1204 0.876658 25.1204 1.13862V1.51275C25.1204 1.95832 25.7173 2.18879 26.0669 1.91069C26.5014 1.56284 26.9833 1.2788 27.4981 1.06718C28.4683 0.678455 29.5185 0.478715 30.6709 0.478715ZM30.233 14.2669C31.6726 14.2669 32.8572 13.7898 33.7722 12.8272C34.7094 11.8654 35.1788 10.6009 35.1788 9.03448C35.1788 7.46806 34.7102 6.20433 33.7722 5.24174C32.8496 4.27991 31.6726 3.80284 30.2337 3.80284C29.2957 3.80284 28.4445 4.02563 27.697 4.46275C26.9419 4.88374 26.3526 5.48834 25.9078 6.28345C25.4623 7.07857 25.2479 7.99276 25.2479 9.04293C25.2479 10.0839 25.4707 11.0065 25.9086 11.8016C26.3238 12.5715 26.9424 13.2124 27.697 13.6546C28.4445 14.0518 29.2873 14.2661 30.2337 14.2661L30.233 14.2669ZM59.3911 9.12206C59.3911 9.3049 59.3834 9.5515 59.3588 9.84573C59.3435 10.0916 59.1361 10.2836 58.8902 10.2836H46.7714C46.4695 10.2836 46.2467 10.5533 46.3335 10.8398C46.61 11.794 47.1908 12.6317 47.9875 13.2252C48.9739 13.9319 50.1823 14.2907 51.6212 14.2907C53.2752 14.2907 54.6588 13.8052 55.7881 12.8272C55.8376 12.7827 55.8954 12.7483 55.9582 12.7262C56.021 12.7041 56.0876 12.6946 56.154 12.6983C56.2205 12.702 56.2856 12.7189 56.3456 12.7479C56.4055 12.7768 56.4591 12.8174 56.5033 12.8672L57.9983 14.5849C58.0733 14.6693 58.1147 14.7782 58.1147 14.8911C58.1147 15.0039 58.0733 15.1129 57.9983 15.1972C57.2915 15.9439 56.4319 16.5247 55.414 16.9303C54.2616 17.3913 52.9733 17.6217 51.5267 17.6217C49.6899 17.6217 48.0674 17.2561 46.6677 16.5247C45.2688 15.7934 44.1786 14.7831 43.4081 13.4871C42.6529 12.1673 42.2788 10.6885 42.2788 9.03448C42.2788 7.4043 42.6445 5.94159 43.3758 4.64559C44.1048 3.35461 45.1786 2.29195 46.4772 1.57651C47.7978 0.84516 49.2766 0.478715 50.9306 0.478715C52.5608 0.478715 54.0158 0.84516 55.288 1.57651C56.584 2.28405 57.5858 3.30196 58.2933 4.61409C59.0247 5.9101 59.3911 7.41275 59.3911 9.12206ZM50.9306 3.61155C49.6745 3.61155 48.609 3.98568 47.7348 4.74085C47.0103 5.36081 46.5256 6.16438 46.279 7.14234C46.2075 7.42812 46.4303 7.68317 46.7245 7.68317H55.1213C55.4071 7.68317 55.6375 7.42812 55.5669 7.14234C55.3356 6.17206 54.8586 5.36926 54.1349 4.73317C53.276 3.98568 52.2028 3.61155 50.9314 3.61155H50.9306ZM72.6538 0.478715C74.7603 0.478715 76.4542 1.09944 77.7341 2.33168C79.0063 3.56392 79.6424 5.39308 79.6424 7.81838V16.9296C79.6422 17.0561 79.5919 17.1774 79.5025 17.267C79.4131 17.3565 79.2919 17.407 79.1653 17.4074H76.2C76.0736 17.407 75.9525 17.3566 75.8631 17.2672C75.7737 17.1779 75.7233 17.0567 75.7229 16.9303V8.31081C75.7229 6.8481 75.381 5.75107 74.6889 5.01895C73.9975 4.26378 73.0195 3.88965 71.7465 3.88965C70.3076 3.88965 69.163 4.32754 68.3279 5.21024C67.4929 6.06067 67.0719 7.30904 67.0719 8.93922V16.9227C67.0719 17.1846 66.8568 17.399 66.5948 17.399H63.6294C63.503 17.3988 63.3818 17.3486 63.2923 17.2593C63.2028 17.1701 63.1522 17.0491 63.1516 16.9227V1.13939C63.1516 0.876658 63.3667 0.662322 63.6287 0.662322H66.4035C66.6662 0.662322 66.8806 0.876658 66.8806 1.13862V1.51275C66.8806 1.95832 67.469 2.18879 67.827 1.91838C68.2864 1.56695 68.7921 1.28052 69.3297 1.06718C70.3161 0.678455 71.4208 0.478715 72.6538 0.478715ZM116.107 0.478715C118.572 0.478715 120.456 1.07563 121.744 2.26869C123.064 3.4364 123.716 5.21024 123.716 7.59559V16.9296C123.716 17.1923 123.501 17.4074 123.239 17.4074H120.488C120.426 17.4079 120.365 17.3962 120.308 17.3728C120.251 17.3494 120.199 17.3149 120.155 17.2713C120.111 17.2277 120.077 17.1758 120.054 17.1187C120.03 17.0616 120.018 17.0005 120.019 16.9388C120.019 16.4694 119.319 16.2228 118.937 16.4932C118.643 16.7076 118.31 16.8981 117.952 17.0571C117.077 17.4312 116.011 17.6217 114.755 17.6217C113.499 17.6217 112.401 17.4151 111.463 16.9941C110.525 16.5562 109.794 15.9601 109.269 15.2041C108.768 14.4336 108.513 13.567 108.513 12.6044C108.513 11.1018 109.07 9.90105 110.175 9.00299C111.304 8.08111 113.07 7.62786 115.471 7.62786H119.542C119.609 7.62745 119.674 7.60043 119.722 7.55266C119.769 7.50489 119.796 7.44025 119.796 7.3728C119.796 6.20433 119.438 5.3055 118.731 4.67709C118.039 4.04944 117.005 3.73908 115.63 3.73908C114.691 3.73908 113.761 3.88197 112.839 4.17697C112.194 4.38089 111.581 4.67523 111.018 5.05122C110.772 5.21792 110.414 5.15416 110.279 4.88374L109.213 2.90401C109.159 2.80532 109.142 2.69012 109.167 2.58025C109.192 2.47037 109.257 2.37346 109.348 2.30787C110.16 1.75167 111.105 1.32223 112.187 1.01187C113.419 0.653871 114.724 0.478715 116.107 0.478715ZM115.566 14.7678C116.552 14.7678 117.419 14.545 118.166 14.1071C118.894 13.6853 119.457 13.0298 119.765 12.2472C119.787 12.1942 119.797 12.1371 119.796 12.0797V10.7046C119.796 10.5782 119.745 10.4571 119.656 10.3677C119.567 10.2783 119.446 10.2279 119.319 10.2275H115.757C113.499 10.2275 112.37 10.9666 112.37 12.4539C112.37 13.1606 112.656 13.7261 113.212 14.147C113.785 14.5604 114.565 14.7678 115.566 14.7678ZM131.85 1.48049C131.85 1.95756 132.558 2.19648 132.924 1.89456C133.997 1.01955 135.46 0.550161 137.329 0.478715C137.591 0.471033 137.806 0.686137 137.806 0.947335V3.62845C137.806 3.93037 137.535 4.15316 137.233 4.12166C137.114 4.11398 137.003 4.10553 136.892 4.10553C135.364 4.10553 134.172 4.5511 133.321 5.44993C132.463 6.32417 132.033 7.60404 132.033 9.2734V16.915C132.033 17.1769 131.818 17.3913 131.556 17.3913H128.59C128.464 17.3909 128.343 17.3406 128.254 17.2514C128.164 17.1622 128.114 17.0412 128.113 16.915V1.13862C128.113 0.876658 128.328 0.662322 128.59 0.662322H131.365C131.628 0.662322 131.842 0.876658 131.842 1.13862V1.48049H131.85ZM157 9.12206C157 9.3049 156.992 9.5515 156.969 9.84573C156.96 9.96462 156.907 10.076 156.82 10.1573C156.733 10.2385 156.618 10.2837 156.499 10.2836H144.381C144.079 10.2836 143.856 10.5533 143.944 10.8398C144.22 11.7941 144.801 12.6317 145.598 13.2252C146.576 13.9319 147.793 14.2907 149.232 14.2907C150.886 14.2907 152.269 13.8052 153.398 12.8272C153.447 12.7826 153.505 12.7481 153.568 12.7259C153.631 12.7037 153.698 12.6942 153.764 12.6979C153.831 12.7017 153.896 12.7185 153.956 12.7476C154.016 12.7766 154.07 12.8173 154.114 12.8672L155.609 14.5849C155.684 14.6694 155.725 14.7783 155.725 14.8911C155.725 15.0039 155.684 15.1128 155.609 15.1972C154.901 15.9439 154.042 16.5247 153.024 16.9303C151.879 17.3913 150.583 17.6217 149.136 17.6217C147.3 17.6217 145.677 17.2561 144.278 16.5247C142.878 15.7934 141.789 14.7831 141.018 13.4871C140.263 12.1673 139.889 10.6885 139.889 9.03448C139.889 7.4043 140.255 5.94159 140.986 4.64559C141.715 3.35474 142.789 2.29209 144.087 1.57651C145.407 0.84516 146.886 0.478715 148.539 0.478715C150.17 0.478715 151.625 0.84516 152.897 1.57651C154.193 2.28405 155.195 3.30196 155.903 4.61409C156.634 5.9101 157 7.41275 157 9.12129V9.12206ZM148.539 3.61155C147.283 3.61155 146.218 3.98568 145.344 4.74085C144.62 5.36081 144.134 6.16438 143.889 7.14234C143.816 7.42812 144.039 7.68317 144.333 7.68317H152.723C153.008 7.68317 153.239 7.42812 153.167 7.14234C152.937 6.17206 152.46 5.36926 151.736 4.73317C150.877 3.98568 149.812 3.61155 148.539 3.61155Z" fill="white"/>
<path d="M100.491 0.716903C100.666 0.478752 100.849 0.471069 101.103 0.471069L104.022 0.486434C104.411 0.486434 104.832 0.852879 104.697 1.24237L93.8356 16.9219C93.5253 17.3437 93.1519 17.3037 92.8976 17.3037L89.7963 17.2884C89.5658 17.2884 89.2716 16.9142 89.5182 16.5563L100.491 0.717671V0.716903Z" fill="#1BE6E6"/>
<path d="M93.5811 16.5324C93.7877 17.0333 93.6525 17.3122 93.4297 17.3122H89.8037C89.6864 17.3101 89.5728 17.2713 89.4787 17.2013C89.3846 17.1313 89.3147 17.0336 89.279 16.9219L82.0115 1.25005C81.8848 0.860562 82.1629 0.471069 82.5362 0.471069H85.6453C85.8842 0.471069 86.0908 0.630093 86.1861 0.860562L93.5811 16.5324ZM103.178 16.5324C103.384 17.0333 103.249 17.3122 103.027 17.3122H99.1945C99.0778 17.308 98.9652 17.2684 98.8715 17.1987C98.7777 17.129 98.7074 17.0325 98.6698 16.9219L91.1481 1.25005C91.0129 0.860562 91.2748 0.471069 91.6728 0.471069H94.9962C95.1136 0.471849 95.2278 0.510019 95.3222 0.580049C95.4165 0.650078 95.4861 0.748329 95.5209 0.860562L103.178 16.5324ZM106.55 4.13629C106.828 4.75702 106.478 4.91604 106.248 4.91604H103.099C102.876 4.91604 102.503 4.78083 102.391 4.52655L100.578 1.25005C100.332 0.765301 100.522 0.471069 100.912 0.471069H104.021C104.267 0.471069 104.601 0.606278 104.729 0.860562L106.55 4.13629Z" fill="white"/>
</svg>
