<svg width="222" height="46" viewBox="0 0 222 46" fill="none" xmlns="http://www.w3.org/2000/svg">
<path d="M23.4538 11.8699C23.4538 18.4485 18.1624 23.5969 11.7269 23.5969C5.14841 23.5969 0 18.3054 0 11.8699C0 5.43443 5.14841 0 11.7269 0C18.1624 0 23.4538 5.29142 23.4538 11.8699Z" fill="#E30613"/>
<path d="M7.43598 17.5906L7.29297 17.4475V13.8723L7.86501 14.3013C8.58007 14.7303 9.29513 15.1594 10.0102 15.4454C10.7252 15.7314 11.2973 15.8744 11.7263 15.8744C12.1554 15.8744 12.5844 15.7314 12.8704 15.5884C13.1564 15.3024 13.2994 15.1594 13.2994 15.0163C13.2994 14.7303 13.1564 14.5873 13.0134 14.3013C12.8704 14.1583 12.2984 13.7292 11.4403 13.3002C9.72416 12.4421 8.72308 11.5841 8.15104 10.869C7.57899 10.154 7.29297 9.43891 7.29297 8.58084C7.29297 7.43675 7.722 6.57869 8.58007 5.86363C9.43814 5.14857 10.4392 4.86255 11.7263 4.86255C13.0134 4.86255 14.4435 5.29158 15.7306 6.00664L15.8736 6.14965V9.58192L15.3016 9.2959C13.8715 8.43783 12.5844 8.0088 11.7263 8.0088C11.2973 8.0088 11.0113 8.15181 10.7252 8.29482C10.4392 8.43783 10.4392 8.58084 10.4392 8.86686C10.4392 9.00988 10.5822 9.2959 10.7252 9.43891C11.0113 9.72493 11.4403 10.011 12.1554 10.297L13.0134 10.869C15.1586 12.1561 16.4457 13.5862 16.4457 15.1594C16.4457 16.3035 16.0167 17.3045 15.0156 18.0196C14.1575 18.7346 13.0134 19.1637 11.5833 19.1637C10.7252 19.1637 10.0102 19.0207 9.43814 18.8777C9.15212 18.3056 8.43706 18.0196 7.43598 17.5906Z" fill="white"/>
<path d="M75.7947 11.8699C75.7947 18.4485 70.5033 23.5969 64.0677 23.5969C57.6322 23.5969 52.3408 18.3054 52.3408 11.8699C52.3408 5.43443 57.6322 0 64.0677 0C70.5033 0 75.7947 5.29142 75.7947 11.8699Z" fill="#E30613"/>
<path d="M59.6352 17.5906V14.0153L60.2072 14.4444C60.9223 14.8734 61.6374 15.3024 62.3524 15.5884C63.0675 15.8745 63.6395 16.0175 64.0685 16.0175C64.4976 16.0175 64.9266 15.8745 65.2126 15.7315C65.4987 15.4454 65.6417 15.3024 65.6417 15.1594C65.6417 14.8734 65.4987 14.7304 65.3556 14.4444C65.2126 14.3013 64.6406 13.8723 63.7825 13.4433C62.0664 12.5852 61.0653 11.7271 60.4933 11.0121C59.9212 10.297 59.6352 9.58198 59.6352 8.72391C59.6352 7.57982 60.0642 6.72175 60.9223 6.00669C61.7804 5.29164 62.7814 5.00562 64.0685 5.00562C65.3557 5.00562 66.7858 5.43465 68.0729 6.14971L68.2159 6.29272V9.72499L67.6438 9.43896C66.2137 8.5809 64.9266 8.15186 64.0685 8.15186C63.6395 8.15186 63.3535 8.29487 63.0675 8.43789C62.7814 8.5809 62.7814 8.72391 62.7814 9.00993C62.7814 9.15294 62.9245 9.43896 63.0675 9.58198C63.3535 9.868 63.7825 10.154 64.4976 10.44L65.3556 11.0121C67.5008 12.2992 68.7879 13.7293 68.7879 15.3024C68.7879 16.4465 68.3589 17.4476 67.3578 18.1627C66.4997 18.8777 65.3556 19.3067 63.9255 19.3067C63.0675 19.3067 62.4954 19.1637 61.7804 19.0207C61.2083 18.8777 60.3503 18.5917 59.4922 18.1627" fill="white"/>
<path d="M49.6247 11.8699C49.6247 18.4485 44.3333 23.5969 37.8978 23.5969C31.3193 23.5969 26.1709 18.3054 26.1709 11.8699C26.1709 5.43443 31.3193 0 37.8978 0C44.3333 0 49.6247 5.29142 49.6247 11.8699Z" fill="#E30613"/>
<path d="M33.3211 16.8749C32.034 15.5878 31.4619 13.8717 31.4619 11.8696C31.4619 9.72439 32.034 8.00825 33.3211 6.72115C34.6082 5.43405 36.1813 4.71899 38.1834 4.71899C38.8985 4.71899 39.4705 4.71899 40.0426 4.862C40.6146 5.00502 41.3297 5.29104 42.0447 5.57706L42.1878 5.72007V9.29535L41.6157 9.00933C40.3286 8.15126 39.1845 7.86524 38.1834 7.86524C37.1824 7.86524 36.3243 8.29428 35.6092 9.00933C34.8942 9.72439 34.6082 10.7255 34.6082 11.8696C34.6082 13.1567 35.0372 14.0147 35.7523 14.7298C36.4673 15.4448 37.4684 15.7309 38.7555 15.7309C39.6136 15.7309 40.7576 15.4448 42.0447 14.8728L42.6168 14.5868V17.876L42.3308 18.019C41.0437 18.4481 39.7566 18.7341 38.4695 18.7341C36.3243 18.7341 34.6082 18.1621 33.3211 16.8749Z" fill="white"/>
<path d="M3.86035 40.3295V38.6134C4.28939 38.8994 4.86143 39.1854 5.29046 39.4714C5.86251 39.6144 6.14853 39.7574 6.57756 39.7574C6.86359 39.7574 7.29262 39.6144 7.43563 39.4714C7.72166 39.3284 7.86467 39.0424 7.86467 38.8994C7.86467 38.6134 7.72165 38.4703 7.57864 38.3273C7.43563 38.1843 7.0066 37.8983 6.57756 37.6123C5.43347 37.0402 4.71842 36.4682 4.4324 36.0391C4.14637 35.6101 3.86035 35.1811 3.86035 34.609C3.86035 33.894 4.14637 33.4649 4.57541 33.0359C5.14745 32.6069 5.7195 32.4639 6.57756 32.4639C7.43563 32.4639 8.2937 32.7499 9.15177 33.1789V34.8951C8.15069 34.323 7.29262 34.037 6.72058 34.037C6.43455 34.037 6.14853 34.037 5.86251 34.18C5.7195 34.323 5.57649 34.466 5.57649 34.752C5.57649 34.8951 5.7195 35.1811 5.86251 35.3241C6.00552 35.4671 6.43455 35.7531 6.86359 36.0391L7.43563 36.3252C8.86575 37.1832 9.5808 38.0413 9.5808 39.0424C9.5808 39.7574 9.29478 40.3295 8.72273 40.7585C8.15069 41.1876 7.43563 41.4736 6.57756 41.4736C6.00552 41.4736 5.57649 41.4736 5.14745 41.3306C5.00444 40.9015 4.4324 40.6155 3.86035 40.3295Z" fill="#A4A3A3"/>
<path d="M18.162 41.0445V39.9004C17.7329 40.3294 17.4469 40.6155 16.8749 40.7585C16.4458 41.0445 16.0168 41.0445 15.4448 41.0445C14.8727 41.0445 14.4437 40.9015 14.0146 40.6155C13.5856 40.3294 13.1566 40.0434 13.0136 39.4714C12.7275 39.0423 12.7275 38.1843 12.7275 37.1832V32.3208H14.4437V37.1832C14.4437 38.0413 14.5867 38.7563 14.8727 39.0423C15.1587 39.4714 15.5878 39.6144 16.3028 39.6144C17.1609 39.6144 17.7329 39.1853 18.305 38.4703V32.3208H20.0211V40.9015H18.162V41.0445Z" fill="#A4A3A3"/>
<path d="M23.3086 45.3348V32.3208H26.3118C27.885 32.3208 29.029 32.7498 29.8871 33.4649C30.7452 34.1799 31.1742 35.324 31.1742 36.6111C31.1742 37.8982 30.7452 38.8993 30.0301 39.7574C29.1721 40.6155 28.171 41.0445 27.0269 41.0445C26.4548 41.0445 25.8828 40.9015 25.1677 40.6155V45.1918H23.3086V45.3348ZM26.1688 34.0369H25.0247V39.3284C25.5968 39.6144 26.0258 39.7574 26.5979 39.7574C27.4559 39.7574 28.028 39.4714 28.6 38.8993C29.1721 38.3273 29.3151 37.6122 29.3151 36.7542C29.3151 36.1821 29.1721 35.7531 28.886 35.324C28.6 34.895 28.314 34.609 27.885 34.323C27.5989 34.0369 27.0269 34.0369 26.1688 34.0369Z" fill="#A4A3A3"/>
<path d="M41.3291 36.8972H35.3226C35.3226 37.7553 35.6086 38.3273 36.1806 38.8994C36.7527 39.3284 37.3247 39.6144 38.1828 39.6144C39.3269 39.6144 40.328 39.3284 41.3291 38.6134V40.3295C40.757 40.6155 40.328 40.9015 39.7559 41.0445C39.1839 41.1876 38.6118 41.3306 37.8968 41.3306C36.8957 41.3306 36.1806 41.1876 35.6086 40.7585C35.0366 40.3295 34.6075 39.9005 34.1785 39.1854C33.8925 38.4703 33.6064 37.7553 33.6064 36.8972C33.6064 35.6101 34.0355 34.466 34.7505 33.751C35.4656 32.8929 36.4667 32.4639 37.6108 32.4639C38.7549 32.4639 39.6129 32.8929 40.328 33.608C41.043 34.466 41.3291 35.4671 41.3291 36.7542V36.8972ZM35.3226 35.8961H39.6129C39.6129 35.1811 39.3269 34.752 39.0409 34.323C38.6118 33.894 38.1828 33.751 37.6108 33.751C37.0387 33.751 36.4667 33.894 36.1806 34.323C35.7516 34.609 35.4656 35.1811 35.3226 35.8961Z" fill="#A4A3A3"/>
<path d="M46.0491 32.4638V34.3229L46.1922 34.1799C47.0502 32.8928 47.9083 32.1777 48.6233 32.1777C49.1954 32.1777 49.9104 32.4638 50.6255 33.1788L49.7674 34.6089C49.1954 34.0369 48.6233 33.7509 48.0513 33.7509C47.4793 33.7509 47.0502 34.0369 46.6212 34.4659C46.1922 35.038 46.0491 35.61 46.0491 36.3251V40.7584H44.333V32.1777H46.0491V32.4638Z" fill="#A4A3A3"/>
<path d="M65.6413 39.0423V40.7585C64.7833 41.0445 63.9252 41.1875 63.0671 41.1875C61.78 41.1875 60.6359 40.7585 59.7779 40.0434C58.9198 39.1853 58.6338 38.1843 58.6338 36.8972C58.6338 35.6101 59.0628 34.466 59.7779 33.6079C60.4929 32.7498 61.637 32.3208 62.9241 32.3208C63.3532 32.3208 63.7822 32.3208 64.0682 32.4638C64.3542 32.6068 64.9263 32.7498 65.3553 32.8928V34.752C64.4972 34.1799 63.6392 33.8939 62.9241 33.8939C62.2091 33.8939 61.494 34.1799 61.065 34.752C60.6359 35.324 60.3499 36.0391 60.3499 36.7542C60.3499 37.6122 60.6359 38.3273 61.208 38.8993C61.78 39.4714 62.4951 39.6144 63.3532 39.6144C64.0682 39.6144 64.7833 39.3284 65.6413 39.0423Z" fill="#A4A3A3"/>
<path d="M72.7912 32.3208C74.0783 32.3208 75.2224 32.7498 76.0805 33.6079C76.9385 34.466 77.3676 35.467 77.3676 36.7542C77.3676 38.0413 76.9385 39.0423 76.0805 39.9004C75.2224 40.7585 74.0783 41.1875 72.7912 41.1875C71.5041 41.1875 70.36 40.7585 69.5019 39.9004C68.6439 39.0423 68.2148 38.0413 68.2148 36.7542C68.2148 35.467 68.6439 34.466 69.5019 33.6079C70.36 32.7498 71.5041 32.3208 72.7912 32.3208ZM72.6482 33.8939C71.7901 33.8939 71.2181 34.1799 70.646 34.752C70.074 35.324 69.931 36.0391 69.931 36.7542C69.931 37.6122 70.217 38.1843 70.7891 38.7563C71.3611 39.3283 72.0761 39.4714 72.7912 39.4714C73.6493 39.4714 74.3643 39.1853 74.7934 38.6133C75.3654 38.0413 75.6514 37.4692 75.6514 36.6111C75.6514 35.7531 75.3654 35.181 74.7934 34.609C74.2213 34.1799 73.5063 33.8939 72.6482 33.8939Z" fill="#A4A3A3"/>
<path d="M87.3801 34.752V41.0445H85.6639V36.3252C85.6639 35.3241 85.5209 34.752 85.2349 34.323C84.9489 33.894 84.5198 33.751 83.9478 33.751C83.6618 33.751 83.2327 33.894 82.9467 34.037C82.6607 34.18 82.3747 34.466 81.9456 34.8951V41.1876H80.2295V32.6069H81.9456V33.751C82.8037 32.8929 83.6618 32.4639 84.5198 32.4639C85.6639 32.4639 86.522 33.0359 87.094 34.037C87.9521 33.0359 88.9532 32.4639 89.9543 32.4639C90.8123 32.4639 91.5274 32.7499 91.9564 33.3219C92.5285 33.894 92.8145 34.8951 92.8145 36.1822V41.3306H91.0983V36.1822C91.0983 35.4671 90.9553 34.8951 90.6693 34.466C90.3833 34.037 89.9543 33.894 89.3822 33.894C88.6672 33.751 87.9521 34.037 87.3801 34.752Z" fill="#A4A3A3"/>
<path d="M95.9609 45.3348V32.3208H98.9642C100.537 32.3208 101.681 32.7498 102.539 33.4649C103.398 34.1799 103.827 35.324 103.827 36.6111C103.827 37.8982 103.398 38.8993 102.682 39.7574C101.824 40.6155 100.823 41.0445 99.6792 41.0445C99.1072 41.0445 98.5351 40.9015 97.8201 40.6155V45.1918H95.9609V45.3348ZM98.9642 34.0369H97.8201V39.3284C98.3921 39.6144 98.8212 39.7574 99.3932 39.7574C100.251 39.7574 100.823 39.4714 101.395 38.8993C101.967 38.3273 102.11 37.6122 102.11 36.7542C102.11 36.1821 101.967 35.7531 101.681 35.324C101.395 34.895 101.109 34.609 100.68 34.323C100.394 34.0369 99.8222 34.0369 98.9642 34.0369Z" fill="#A4A3A3"/>
<path d="M112.263 41.0445V39.9004C111.834 40.3294 111.547 40.6155 110.975 40.7585C110.546 41.0445 110.117 41.0445 109.545 41.0445C108.973 41.0445 108.544 40.9015 108.115 40.6155C107.686 40.3294 107.257 40.0434 107.114 39.4714C106.828 39.0423 106.828 38.1843 106.828 37.1832V32.3208H108.544V37.1832C108.544 38.0413 108.687 38.7563 108.973 39.0423C109.259 39.4714 109.688 39.6144 110.403 39.6144C111.261 39.6144 111.834 39.1853 112.406 38.4703V32.3208H114.122V40.9015H112.263V41.0445Z" fill="#A4A3A3"/>
<path d="M116.124 33.7507L119.27 30.6045V32.3206H121.987V33.8938H119.27V38.0411C119.27 39.0422 119.699 39.4712 120.557 39.4712C121.129 39.4712 121.844 39.3282 122.56 38.8991V40.4723C121.844 40.9013 121.129 41.0443 120.414 41.0443C119.699 41.0443 118.984 40.7583 118.412 40.3293C118.269 40.3293 118.126 40.1862 118.126 40.0432C117.983 39.9002 117.983 39.6142 117.84 39.3282C117.697 39.0422 117.697 38.4701 117.697 37.7551V33.8938H116.267V33.7507H116.124Z" fill="#A4A3A3"/>
<path d="M125.705 28.7456C125.991 28.7456 126.277 28.8886 126.42 29.0316C126.563 29.1746 126.706 29.4607 126.706 29.7467C126.706 30.0327 126.563 30.3187 126.42 30.4617C126.277 30.6048 125.991 30.7478 125.705 30.7478C125.419 30.7478 125.276 30.6048 124.99 30.4617C124.847 30.3187 124.704 30.0327 124.704 29.7467C124.704 29.4607 124.847 29.3176 124.99 29.0316C125.276 28.8886 125.419 28.7456 125.705 28.7456ZM124.847 32.4639H126.563V41.0446H124.847V32.4639Z" fill="#A4A3A3"/>
<path d="M131.855 32.4638V33.6079C132.57 32.7498 133.428 32.3208 134.429 32.3208C135.001 32.3208 135.43 32.4638 135.859 32.7498C136.288 33.0359 136.717 33.4649 136.86 33.8939C137.146 34.323 137.289 35.181 137.289 36.1821V41.0445H135.573V36.1821C135.573 35.324 135.43 34.609 135.144 34.323C134.858 34.0369 134.429 33.7509 133.857 33.7509C132.999 33.7509 132.427 34.1799 131.855 34.895V41.0445H130.139V32.4638H131.855Z" fill="#A4A3A3"/>
<path d="M140.293 35.324C140.293 34.466 140.579 33.7509 141.294 33.1789C142.009 32.6068 142.867 32.3208 144.011 32.3208H147.587V33.6079H145.871C146.157 33.8939 146.443 34.323 146.586 34.609C146.729 34.895 146.729 35.181 146.729 35.6101C146.729 36.0391 146.586 36.4681 146.3 36.8972C146.014 37.3262 145.727 37.6122 145.298 37.8982C144.869 38.1843 144.297 38.3273 143.296 38.4703C142.724 38.6133 142.295 38.7563 142.295 39.1853C142.295 39.3284 142.438 39.6144 142.724 39.6144C143.01 39.7574 143.439 39.9004 144.011 40.0434C145.012 40.3294 145.727 40.4724 146.014 40.6155C146.3 40.7585 146.586 40.9015 146.872 41.1875C147.301 41.6165 147.444 42.1886 147.444 42.7606C147.444 43.6187 147.015 44.1907 146.3 44.7628C145.584 45.1918 144.583 45.4778 143.439 45.4778C142.152 45.4778 141.294 45.1918 140.436 44.7628C139.721 44.3337 139.292 43.6187 139.292 42.7606C139.292 41.6165 140.007 40.9015 141.437 40.4724C140.865 40.0434 140.579 39.7574 140.579 39.3284C140.579 39.0423 140.722 38.7563 141.008 38.6133C141.294 38.3273 141.58 38.1843 142.009 38.1843C140.865 37.4692 140.293 36.6111 140.293 35.324ZM143.01 41.4735C142.438 41.4735 142.009 41.6165 141.58 41.9026C141.151 42.1886 141.008 42.4746 141.008 42.9036C141.008 43.7617 141.866 44.1907 143.439 44.1907C144.154 44.1907 144.726 44.0477 145.155 43.9047C145.584 43.6187 145.727 43.3327 145.727 42.9036C145.727 42.4746 145.441 42.1886 145.012 41.9026C144.583 41.4735 143.868 41.4735 143.01 41.4735ZM143.439 33.8939C143.01 33.8939 142.581 34.0369 142.295 34.323C142.009 34.609 141.866 35.038 141.866 35.467C141.866 35.8961 142.009 36.3251 142.295 36.6111C142.581 36.8972 143.01 37.0402 143.439 37.0402C143.868 37.0402 144.297 36.8972 144.583 36.6111C144.869 36.3251 145.012 35.8961 145.012 35.467C145.012 35.038 144.869 34.609 144.583 34.323C144.44 34.0369 144.011 33.8939 143.439 33.8939Z" fill="#A4A3A3"/>
<path d="M155.881 40.3295V38.6134C156.31 38.8994 156.882 39.1854 157.311 39.4714C157.883 39.6144 158.169 39.7574 158.599 39.7574C158.885 39.7574 159.314 39.6144 159.457 39.4714C159.743 39.3284 159.886 39.0424 159.886 38.8994C159.886 38.6134 159.743 38.4703 159.6 38.3273C159.457 38.1843 159.028 37.8983 158.455 37.6123C157.311 37.0402 156.596 36.4682 156.31 36.0391C156.024 35.6101 155.738 35.1811 155.738 34.609C155.738 33.894 156.024 33.4649 156.453 33.0359C157.025 32.6069 157.597 32.4639 158.455 32.4639C159.314 32.4639 160.172 32.7499 161.03 33.1789V34.8951C160.029 34.323 159.171 34.037 158.599 34.037C158.312 34.037 158.026 34.037 157.74 34.18C157.597 34.323 157.454 34.466 157.454 34.752C157.454 34.8951 157.597 35.1811 157.74 35.3241C157.883 35.4671 158.312 35.7531 158.742 36.0391L159.314 36.3252C160.744 37.1832 161.459 38.0413 161.459 39.0424C161.459 39.7574 161.173 40.3295 160.601 40.7585C160.029 41.1876 159.314 41.4736 158.455 41.4736C157.883 41.4736 157.454 41.4736 157.025 41.3306C157.025 40.9015 156.453 40.6155 155.881 40.3295Z" fill="#A4A3A3"/>
<path d="M170.039 32.4639H171.899L165.749 45.4779H163.89L166.75 39.1854L163.461 32.4639H165.463L167.751 37.3262L170.039 32.4639Z" fill="#A4A3A3"/>
<path d="M173.758 40.3295V38.6134C174.187 38.8994 174.759 39.1854 175.188 39.4714C175.617 39.6144 176.046 39.7574 176.475 39.7574C176.904 39.7574 177.19 39.6144 177.333 39.4714C177.619 39.3284 177.762 39.0424 177.762 38.8994C177.762 38.6134 177.619 38.4703 177.476 38.3273C177.333 38.1843 176.904 37.8983 176.475 37.6123C175.331 37.0402 174.616 36.4682 174.33 36.0391C174.044 35.6101 173.758 35.1811 173.758 34.609C173.758 33.894 174.044 33.4649 174.473 33.0359C175.045 32.6069 175.617 32.4639 176.475 32.4639C177.333 32.4639 178.191 32.7499 179.049 33.1789V34.8951C178.048 34.323 177.19 34.037 176.618 34.037C176.332 34.037 176.046 34.037 175.76 34.18C175.617 34.323 175.474 34.466 175.474 34.752C175.474 34.8951 175.617 35.1811 175.76 35.3241C175.903 35.4671 176.332 35.7531 176.761 36.0391L177.333 36.3252C178.763 37.1832 179.478 38.0413 179.478 39.0424C179.478 39.7574 179.192 40.3295 178.62 40.7585C178.048 41.1876 177.333 41.4736 176.475 41.4736C175.903 41.4736 175.474 41.4736 175.045 41.3306C174.902 40.9015 174.33 40.6155 173.758 40.3295Z" fill="#A4A3A3"/>
<path d="M181.48 33.7507L184.627 30.6045V32.3206H187.344V33.8938H184.627V38.0411C184.627 39.0422 185.056 39.4712 185.914 39.4712C186.486 39.4712 187.201 39.3282 187.916 38.8991V40.4723C187.201 40.9013 186.486 41.0443 185.771 41.0443C185.056 41.0443 184.341 40.7583 183.769 40.3293C183.626 40.1862 183.483 40.0432 183.34 39.9002C183.197 39.7572 183.197 39.4712 183.054 39.1852C182.911 38.8991 182.911 38.3271 182.911 37.612V33.7507H181.48Z" fill="#A4A3A3"/>
<path d="M197.354 36.8972H191.348C191.348 37.7553 191.634 38.3273 192.206 38.8994C192.778 39.3284 193.35 39.6144 194.208 39.6144C195.352 39.6144 196.353 39.3284 197.354 38.6134V40.3295C196.782 40.6155 196.353 40.9015 195.781 41.0445C195.209 41.1876 194.637 41.3306 193.922 41.3306C192.921 41.3306 192.206 41.1876 191.634 40.7585C191.062 40.3295 190.633 39.9005 190.204 39.1854C189.918 38.4703 189.632 37.7553 189.632 36.8972C189.632 35.6101 190.061 34.466 190.776 33.751C191.491 32.8929 192.492 32.4639 193.636 32.4639C194.78 32.4639 195.638 32.8929 196.353 33.608C197.068 34.466 197.354 35.4671 197.354 36.7542V36.8972ZM191.348 35.8961H195.638C195.638 35.1811 195.352 34.752 195.066 34.323C194.637 33.894 194.208 33.751 193.636 33.751C193.064 33.751 192.492 33.894 192.063 34.323C191.777 34.609 191.491 35.1811 191.348 35.8961Z" fill="#A4A3A3"/>
<path d="M207.364 34.752V41.0445H205.648V36.3252C205.648 35.3241 205.505 34.752 205.219 34.323C204.933 33.894 204.504 33.751 203.932 33.751C203.646 33.751 203.217 33.894 202.931 34.037C202.645 34.18 202.359 34.466 201.93 34.8951V41.1876H200.214V32.6069H201.93V33.751C202.788 32.8929 203.646 32.4639 204.504 32.4639C205.648 32.4639 206.506 33.0359 207.078 34.037C207.936 33.0359 208.938 32.4639 209.939 32.4639C210.797 32.4639 211.512 32.7499 211.941 33.3219C212.513 33.894 212.799 34.8951 212.799 36.1822V41.3306H211.083V36.1822C211.083 35.4671 210.94 34.8951 210.654 34.466C210.368 34.037 209.939 33.894 209.367 33.894C208.652 33.751 207.936 34.037 207.364 34.752Z" fill="#A4A3A3"/>
<path d="M215.66 40.3295V38.6134C216.089 38.8994 216.661 39.1854 217.09 39.4714C217.662 39.6144 217.948 39.7574 218.377 39.7574C218.663 39.7574 219.092 39.6144 219.235 39.4714C219.521 39.3284 219.664 39.0424 219.664 38.8994C219.664 38.6134 219.521 38.4703 219.378 38.3273C219.235 38.1843 218.806 37.8983 218.234 37.6123C217.09 37.0402 216.375 36.4682 216.089 36.0391C215.803 35.6101 215.517 35.1811 215.517 34.609C215.517 33.894 215.803 33.4649 216.232 33.0359C216.804 32.6069 217.376 32.4639 218.234 32.4639C219.092 32.4639 219.95 32.7499 220.808 33.1789V34.8951C219.807 34.323 218.949 34.037 218.377 34.037C218.091 34.037 217.805 34.037 217.519 34.18C217.376 34.323 217.233 34.466 217.233 34.752C217.233 34.8951 217.376 35.1811 217.519 35.3241C217.662 35.4671 218.091 35.7531 218.52 36.0391L219.092 36.3252C220.522 37.1832 221.237 38.0413 221.237 39.0424C221.237 39.7574 220.951 40.3295 220.379 40.7585C219.807 41.1876 219.092 41.4736 218.234 41.4736C217.662 41.4736 217.233 41.4736 216.804 41.3306C216.804 40.9015 216.232 40.6155 215.66 40.3295Z" fill="#A4A3A3"/>
</svg>
