<svg width="20" height="20" viewBox="0 0 20 20" fill="none" xmlns="http://www.w3.org/2000/svg">
<path fill-rule="evenodd" clip-rule="evenodd" d="M5.19317 14.4665L8.73744 10.2134C8.84045 10.0898 8.84045 9.91023 8.73744 9.78662L5.19317 5.5335C4.89853 5.17993 4.9463 4.65446 5.29987 4.35983C5.65343 4.06519 6.1789 4.11296 6.47354 4.46652L10.6402 9.46652C10.8977 9.77556 10.8977 10.2245 10.6402 10.5335L6.47354 15.5335C6.1789 15.8871 5.65343 15.9348 5.29987 15.6402C4.9463 15.3456 4.89853 14.8201 5.19317 14.4665Z" fill="white" fill-opacity="0.5"/>
<path fill-rule="evenodd" clip-rule="evenodd" d="M9.36016 14.4665L12.9044 10.2134C13.0074 10.0898 13.0074 9.91023 12.9044 9.78662L9.36016 5.5335C9.06553 5.17993 9.1133 4.65446 9.46686 4.35983C9.82042 4.06519 10.3459 4.11296 10.6405 4.46652L14.8072 9.46652C15.0647 9.77556 15.0647 10.2245 14.8072 10.5335L10.6405 15.5335C10.3459 15.8871 9.82042 15.9348 9.46686 15.6402C9.1133 15.3456 9.06553 14.8201 9.36016 14.4665Z" fill="white"/>
</svg>
