<svg width="24" height="24" viewBox="0 0 24 24" fill="none" xmlns="http://www.w3.org/2000/svg">
<path fill-rule="evenodd" clip-rule="evenodd" d="M14 10.6C14 10.8209 13.8209 11 13.6 11H12.4C12.1791 11 12 10.8209 12 10.6V10C12 8.34315 13.3431 7 15 7H16.6C16.8209 7 17 7.17909 17 7.4V8.6C17 8.82091 16.8209 9 16.6 9H15C14.4477 9 14 9.44772 14 10V10.6Z" fill="white" fill-opacity="0.5"/>
<path fill-rule="evenodd" clip-rule="evenodd" d="M12 20V14H10.4C10.1791 14 10 13.8209 10 13.6V12.4C10 12.1791 10.1791 12 10.4 12H16.6C16.8209 12 17 12.1791 17 12.4V13.6C17 13.8209 16.8209 14 16.6 14H14V20H16C18.2091 20 20 18.2091 20 16V8C20 5.79086 18.2091 4 16 4H8C5.79086 4 4 5.79086 4 8V16C4 18.2091 5.79086 20 8 20H12ZM8 2H16C19.3137 2 22 4.68629 22 8V16C22 19.3137 19.3137 22 16 22H8C4.68629 22 2 19.3137 2 16V8C2 4.68629 4.68629 2 8 2Z" fill="white"/>
</svg>
