<svg width="34" height="34" viewBox="0 0 34 34" fill="none" xmlns="http://www.w3.org/2000/svg">
<path fill-rule="evenodd" clip-rule="evenodd" d="M17 34C26.3888 34 34 26.3888 34 17C34 7.61116 26.3888 0 17 0C7.61116 0 0 7.61116 0 17C0 26.3888 7.61116 34 17 34ZM17 30.9091C24.6818 30.9091 30.9091 24.6818 30.9091 17C30.9091 9.31822 24.6818 3.09091 17 3.09091C9.31822 3.09091 3.09091 9.31822 3.09091 17C3.09091 24.6818 9.31822 30.9091 17 30.9091Z" fill="white"/>
<path fill-rule="evenodd" clip-rule="evenodd" d="M17.7731 30.909C25.0281 30.909 30.9094 25.0276 30.9094 17.7726C30.9094 10.5176 25.0281 4.63623 17.7731 4.63623C10.5181 4.63623 4.63672 10.5176 4.63672 17.7726C4.63672 25.0276 10.5181 30.909 17.7731 30.909ZM27.2015 21.874V24.4249L20.2958 17.4632H22.8899L27.2015 21.874ZM8.65581 11.0707V13.6213L12.9656 18.0325H15.5615L8.65581 11.0707ZM13.4355 8.34575H10.9197L17.786 15.3478L24.7255 8.34575H22.0969L17.7857 12.7156L13.4355 8.34575ZM11.3432 26.9346H13.8587L18.2089 22.5648L22.5201 26.9346H25.149L18.2092 19.9325L11.3432 26.9346ZM17.9632 19.0624C18.6107 19.0624 19.1356 18.53 19.1356 17.8734C19.1356 17.2167 18.6107 16.6844 17.9632 16.6844C17.3156 16.6844 16.7907 17.2167 16.7907 17.8734C16.7907 18.53 17.3156 19.0624 17.9632 19.0624Z" fill="white"/>
</svg>
