<svg width="21" height="21" viewBox="0 0 21 21" fill="none" xmlns="http://www.w3.org/2000/svg">
<path fill-rule="evenodd" clip-rule="evenodd" d="M7.60192 17.0258C6.14361 17.378 4.31799 17.0326 3.45561 15.5187C3.42238 15.4568 3.32825 15.3235 3.18792 15.1894C2.9908 15.0009 2.77671 14.8897 2.54487 14.873C2.08571 14.8399 1.73903 14.4222 1.77054 13.9401C1.80205 13.458 2.19982 13.094 2.65898 13.1271C3.30308 13.1735 3.85469 13.4601 4.31003 13.8954C4.59855 14.1713 4.79408 14.4481 4.8967 14.6398C5.14875 15.0822 5.61757 15.3175 6.2766 15.3615C6.76693 15.3942 7.32471 15.3033 7.61606 15.1928C7.6067 15.2996 7.60192 15.4079 7.60192 15.5173V17.0258Z" fill="white" fill-opacity="0.5"/>
<path fill-rule="evenodd" clip-rule="evenodd" d="M15.1019 15.5172V17.5C15.1019 18.4665 14.3557 19.25 13.4352 19.25H9.26856C8.34808 19.25 7.60189 18.4665 7.60189 17.5V15.5172C7.60189 14.8469 7.78138 14.2205 8.09265 13.6883C5.73646 12.9131 4.26855 10.7793 4.26855 8.27885C4.26855 7.31574 4.56052 6.39135 5.10172 5.57266C5.08514 3.03338 5.42015 1.75 6.66582 1.75C7.33791 1.75 8.14526 2.118 9.16327 2.83372C9.86365 2.65161 10.6001 2.55769 11.3519 2.55769C12.1042 2.55769 12.8412 2.65175 13.5421 2.83413C14.5595 2.11817 15.3669 1.75 16.0395 1.75C17.2858 1.75 17.6209 3.03443 17.6039 5.57539C18.1439 6.39342 18.4352 7.31682 18.4352 8.27885C18.4352 10.7789 16.9668 12.9138 14.6114 13.6888C14.9225 14.2209 15.1019 14.8471 15.1019 15.5172ZM13.0227 12.2337C15.3382 12.0514 16.7686 10.3585 16.7686 8.27885C16.7686 7.61906 16.5438 6.97774 16.1109 6.39691L15.9289 6.1527L15.934 5.84265C15.9505 4.83165 15.9028 4.08806 15.8007 3.63444C15.794 3.60444 15.7872 3.57666 15.7805 3.55115C15.4291 3.66656 14.8792 3.97851 14.1774 4.49959L13.8462 4.7455L13.4575 4.62348C12.7971 4.41611 12.0852 4.30769 11.3519 4.30769C10.6191 4.30769 9.90782 4.41595 9.24777 4.623L8.85947 4.74481L8.52846 4.49931C7.82639 3.97864 7.27641 3.66681 6.92507 3.5513C6.91845 3.57662 6.91172 3.60418 6.90502 3.63393C6.80295 4.08718 6.7552 4.8302 6.77157 5.84044L6.7766 6.15072L6.59432 6.39499C6.16052 6.97631 5.93522 7.61833 5.93522 8.27885C5.93522 10.3595 7.3656 12.0513 9.6843 12.2337C9.9189 12.2428 10.1045 12.4453 10.1041 12.6918L10.1022 13.7885C10.102 13.9215 10.0385 14.0455 9.93289 14.1189C9.5294 14.4383 9.26855 14.9458 9.26855 15.5172V17.15C9.26855 17.3433 9.41779 17.5 9.60189 17.5H13.1019C13.286 17.5 13.4352 17.3433 13.4352 17.15V15.5172C13.4352 14.9436 13.1724 14.4344 12.7662 14.1153C12.6636 14.0442 12.6019 13.9237 12.6021 13.7946L12.6029 12.6906C12.6031 12.4446 12.7885 12.2428 13.0227 12.2337Z" fill="white"/>
</svg>
