<svg width="24" height="24" viewBox="0 0 24 24" fill="none" xmlns="http://www.w3.org/2000/svg">
<path fill-rule="evenodd" clip-rule="evenodd" d="M18 12V10.6C18 10.2686 18.2686 10 18.6 10H19.4C19.7314 10 20 10.2686 20 10.6V12H21.4C21.7314 12 22 12.2686 22 12.6V13.4C22 13.7314 21.7314 14 21.4 14H20V15.4C20 15.7314 19.7314 16 19.4 16H18.6C18.2686 16 18 15.7314 18 15.4V14H16.6C16.2686 14 16 13.7314 16 13.4V12.6C16 12.2686 16.2686 12 16.6 12H18Z" fill="white" fill-opacity="0.5"/>
<path fill-rule="evenodd" clip-rule="evenodd" d="M14 12C14.5523 12 15 12.4477 15 13V14C15 16.7614 12.7614 19 10 19H7C4.23858 19 2 16.7614 2 14V10C2 7.23858 4.23858 5 7 5H10C12.2961 5 14.2804 6.5604 14.8434 8.75437C14.9806 9.28932 14.6582 9.83426 14.1233 9.97152C13.5883 10.1088 13.0434 9.78638 12.9061 9.25143C12.5688 7.93675 11.3776 7 10 7H7C5.34315 7 4 8.34315 4 10V14C4 15.6569 5.34315 17 7 17H10C11.6569 17 13 15.6569 13 14H10C9.44772 14 9 13.5523 9 13C9 12.4477 9.44772 12 10 12H14Z" fill="white"/>
</svg>
