<svg width="40" height="34" viewBox="0 0 40 34" fill="none" xmlns="http://www.w3.org/2000/svg">
<path fill-rule="evenodd" clip-rule="evenodd" d="M25.0354 30.7609H28.2499V18.6184C28.2499 18.2607 28.5377 17.9708 28.8928 17.9708H30.8214C31.1765 17.9708 31.4643 18.2607 31.4643 18.6184V30.7609H34.6788V9.71401C34.6788 9.35635 34.9666 9.06641 35.3217 9.06641H37.2503C37.6054 9.06641 37.8932 9.35635 37.8932 9.71401V30.7609C38.7809 30.7609 39.5005 31.4857 39.5005 32.3799C39.5005 33.274 38.7809 33.9989 37.8932 33.9989H10.5289C8.11667 33.9989 7.92371 30.7609 10.336 30.7609H15.3921V21.8564C15.3921 21.4987 15.6799 21.2088 16.035 21.2088H17.9636C18.3187 21.2088 18.6065 21.4987 18.6065 21.8564V30.7609H21.821V25.0944C21.821 24.7367 22.1088 24.4468 22.4639 24.4468H24.3925C24.7476 24.4468 25.0354 24.7367 25.0354 25.0944V30.7609Z" fill="white"/>
<path d="M8.62121 32.3355L11.8238 31.9749V27.7655C11.8238 27.4079 11.536 27.1179 11.1809 27.1179H9.25226C8.89721 27.1179 8.60938 27.4079 8.60938 27.7655L8.62121 32.3355Z" fill="white"/>
<path opacity="0.5" fill-rule="evenodd" clip-rule="evenodd" d="M4.94394 17.809V32.38C4.94394 33.2742 4.22436 33.9991 3.33671 33.9991C2.44907 33.9991 1.72949 33.2742 1.72949 32.38V1.619C1.72949 0.724852 2.44907 0 3.33671 0C4.22436 0 4.94394 0.724852 4.94394 1.619C7.62264 0.539667 9.76561 0 11.3728 0C12.9801 0 14.5873 0.539667 16.1945 1.619C17.8017 2.69834 19.4089 3.238 21.0162 3.238C22.9086 3.238 24.5336 2.69932 25.8912 1.62196C25.9888 1.54451 26.1533 1.38358 26.3397 1.19191C26.7373 0.782905 27.4451 1.05519 27.4451 1.62562L27.4451 15.6794C27.4451 16.0102 27.334 16.3314 27.1296 16.5915C25.5611 18.4825 23.5233 19.428 21.0162 19.428C19.4089 19.428 17.8017 18.8884 16.1945 17.809C14.5873 16.7297 12.9801 16.19 11.3728 16.19C9.76561 16.19 7.62264 16.7297 4.94394 17.809ZM24.2305 6.55515C24.2305 6.29453 23.9853 6.10351 23.7326 6.16733L23.5894 6.2035C22.7681 6.3847 21.9088 6.47601 21.0161 6.47601C18.7406 6.47601 16.5234 5.73153 14.4113 4.31319C13.3089 3.57286 12.3117 3.238 11.3727 3.238C10.2474 3.238 8.47011 3.68559 6.13764 4.62541C6.13764 4.62541 5.55934 4.85843 5.2702 4.97494C5.07299 5.0544 4.94383 5.24569 4.94383 5.45831V13.7752C4.94383 14.0517 5.21763 14.2448 5.47808 14.152L5.58296 14.1147C7.807 13.3469 9.72097 12.952 11.3727 12.952C13.6482 12.952 15.8654 13.6965 17.9774 15.1148C19.0799 15.8552 20.0771 16.19 21.0161 16.19C22.1832 16.19 23.1167 15.8961 23.9148 15.2588C24.1154 15.083 24.2305 14.8291 24.2305 14.5624L24.2305 6.55515Z" fill="white"/>
<g filter="url(#filter0_d)">
<path d="M9.81021 6.88454V12.5415H8.40723V6.88454H9.81021Z" fill="white"/>
<path d="M13.288 6.88454C14.1308 6.88454 14.7752 7.13025 15.2211 7.62166C15.6725 8.11308 15.8982 8.8102 15.8982 9.71303C15.8982 10.6159 15.6725 11.313 15.2211 11.8044C14.7752 12.2958 14.1308 12.5415 13.288 12.5415H11.004V6.88454H13.288ZM13.1493 11.4273C13.6061 11.4273 13.9378 11.2844 14.1444 10.9987C14.3565 10.7073 14.4626 10.2787 14.4626 9.71303C14.4626 9.14733 14.3565 8.72163 14.1444 8.43593C13.9378 8.1445 13.6061 7.99879 13.1493 7.99879H12.407V11.4273H13.1493Z" fill="white"/>
<path d="M19.2733 6.79883C19.817 6.79883 20.2847 6.91597 20.6762 7.15025C21.0732 7.37881 21.3777 7.71023 21.5898 8.14451C21.8019 8.57878 21.9079 9.10162 21.9079 9.71303C21.9079 10.3244 21.8019 10.8473 21.5898 11.2816C21.3777 11.7158 21.0732 12.0501 20.6762 12.2844C20.2847 12.513 19.817 12.6272 19.2733 12.6272C18.7295 12.6272 18.2591 12.513 17.8621 12.2844C17.4651 12.0501 17.1606 11.7158 16.9485 11.2816C16.7365 10.8473 16.6304 10.3244 16.6304 9.71303C16.6304 9.10162 16.7365 8.57878 16.9485 8.14451C17.1606 7.71023 17.4651 7.37881 17.8621 7.15025C18.2591 6.91597 18.7295 6.79883 19.2733 6.79883ZM19.2733 7.95594C19.0122 7.95594 18.792 8.02165 18.6125 8.15308C18.4331 8.2845 18.2971 8.48164 18.2047 8.74449C18.1123 9.00162 18.066 9.32447 18.066 9.71303C18.066 10.0959 18.1123 10.4187 18.2047 10.6816C18.2971 10.9444 18.4331 11.1416 18.6125 11.273C18.792 11.4044 19.0122 11.4701 19.2733 11.4701C19.5343 11.4701 19.7518 11.4044 19.9258 11.273C20.1053 11.1416 20.2412 10.9444 20.3336 10.6816C20.4261 10.4187 20.4723 10.0959 20.4723 9.71303C20.4723 9.32447 20.4261 9.00162 20.3336 8.74449C20.2412 8.48164 20.1053 8.2845 19.9258 8.15308C19.7518 8.02165 19.5343 7.95594 19.2733 7.95594Z" fill="white"/>
</g>
<ellipse cx="3.39301" cy="31.0856" rx="2.89301" ry="2.9142" fill="white"/>
<defs>
<filter id="filter0_d" x="4.40723" y="6.79883" width="21.5007" height="13.8284" filterUnits="userSpaceOnUse" color-interpolation-filters="sRGB">
<feFlood flood-opacity="0" result="BackgroundImageFix"/>
<feColorMatrix in="SourceAlpha" type="matrix" values="0 0 0 0 0 0 0 0 0 0 0 0 0 0 0 0 0 0 127 0"/>
<feOffset dy="4"/>
<feGaussianBlur stdDeviation="2"/>
<feColorMatrix type="matrix" values="0 0 0 0 0 0 0 0 0 0 0 0 0 0 0 0 0 0 0.25 0"/>
<feBlend mode="normal" in2="BackgroundImageFix" result="effect1_dropShadow"/>
<feBlend mode="normal" in="SourceGraphic" in2="effect1_dropShadow" result="shape"/>
</filter>
</defs>
</svg>
