<svg width="24" height="24" viewBox="0 0 24 24" fill="none" xmlns="http://www.w3.org/2000/svg">
<path fill-rule="evenodd" clip-rule="evenodd" d="M17 8C17.5523 8 18 7.55228 18 7C18 6.44772 17.5523 6 17 6C16.4477 6 16 6.44772 16 7C16 7.55228 16.4477 8 17 8Z" fill="white" fill-opacity="0.5"/>
<path fill-rule="evenodd" clip-rule="evenodd" d="M8 2H16C19.3137 2 22 4.68629 22 8V16C22 19.3137 19.3137 22 16 22H8C4.68629 22 2 19.3137 2 16V8C2 4.68629 4.68629 2 8 2ZM8 4C5.79086 4 4 5.79086 4 8V16C4 18.2091 5.79086 20 8 20H16C18.2091 20 20 18.2091 20 16V8C20 5.79086 18.2091 4 16 4H8ZM9.57711 15.337C9.37051 15.8492 9.61823 16.4319 10.1304 16.6385C10.7199 16.8762 11.3522 17 12 17C14.7614 17 17 14.7614 17 12C17 9.23858 14.7614 7 12 7C9.23858 7 7 9.23858 7 12C7 12.6498 7.12452 13.2839 7.3637 13.8749C7.5709 14.3869 8.15388 14.6339 8.66582 14.4267C9.17777 14.2195 9.42482 13.6366 9.21763 13.1246C9.07451 12.771 9 12.3915 9 12C9 10.3431 10.3431 9 12 9C13.6569 9 15 10.3431 15 12C15 13.6569 13.6569 15 12 15C11.6097 15 11.2313 14.9259 10.8786 14.7837C10.3664 14.5771 9.78371 14.8248 9.57711 15.337Z" fill="white"/>
</svg>
