<svg width="48" height="47" viewBox="0 0 48 47" fill="none" xmlns="http://www.w3.org/2000/svg">
<rect x="14.0879" y="36.8823" width="7.76471" height="3.88235" rx="1.16471" fill="white" fill-opacity="0.5"/>
<path fill-rule="evenodd" clip-rule="evenodd" d="M24.9593 40.7649C24.316 40.7649 23.7946 40.2435 23.7946 39.6002V38.0473C23.7946 37.404 24.316 36.8826 24.9593 36.8826H27.2887C27.5031 36.8826 27.6769 36.7087 27.6769 36.4943V33.0002C27.6769 28.7119 24.2006 25.2355 19.9122 25.2355H16.0299C11.7415 25.2355 8.26517 28.7119 8.26517 33.0002V36.4943C8.26517 36.7087 8.43898 36.8826 8.6534 36.8826H10.9828C11.6261 36.8826 12.1475 37.404 12.1475 38.0473V39.6002C12.1475 40.2435 11.6261 40.7649 10.9828 40.7649H5.54752C4.90427 40.7649 4.38281 40.2435 4.38281 39.6002V33.0002C4.38281 28.3137 7.15081 24.2736 11.1411 22.4257C9.36522 20.6668 8.26517 18.2267 8.26517 15.5296C8.26517 10.1692 12.6106 5.82373 17.971 5.82373C23.3315 5.82373 27.6769 10.1692 27.6769 15.5296C27.6769 18.2267 26.5769 20.6668 24.801 22.4257C28.7913 24.2736 31.5593 28.3137 31.5593 33.0002V39.6002C31.5593 40.2435 31.0378 40.7649 30.3946 40.7649H24.9593ZM17.9706 21.3529C21.1868 21.3529 23.7941 18.7457 23.7941 15.5294C23.7941 12.3132 21.1868 9.70588 17.9706 9.70588C14.7543 9.70588 12.1471 12.3132 12.1471 15.5294C12.1471 18.7457 14.7543 21.3529 17.9706 21.3529ZM37.2018 14.7998L42.0596 9.94209C42.3745 9.62715 42.8851 9.62715 43.2001 9.94209L44.9109 11.6528C45.2258 11.9678 45.2258 12.4784 44.9109 12.7934L37.7509 19.9533C37.296 20.4082 36.5586 20.4082 36.1037 19.9533L31.795 15.6446C31.4801 15.3297 31.4801 14.8191 31.795 14.5041L33.5058 12.7934C33.8207 12.4784 34.3314 12.4784 34.6463 12.7934L36.6528 14.7998C36.8044 14.9515 37.0502 14.9515 37.2018 14.7998Z" fill="white"/>
</svg>
