<svg width="21" height="21" viewBox="0 0 21 21" fill="none" xmlns="http://www.w3.org/2000/svg">
<path opacity="0.5" fill-rule="evenodd" clip-rule="evenodd" d="M4.26984 5.25C3.34745 5.25 2.60156 4.46569 2.60156 3.49943C2.60156 2.53431 3.34745 1.75 4.26984 1.75C5.18901 1.75 5.9349 2.53431 5.9349 3.49943C5.9349 4.46569 5.18901 5.25 4.26984 5.25Z" fill="white"/>
<path fill-rule="evenodd" clip-rule="evenodd" d="M13.1567 6.18311H13.9107C16.4091 6.18311 18.4345 8.23 18.4345 10.755V17.7652C18.4345 18.1019 18.1644 18.3748 17.8313 18.3748H16.0218C15.6886 18.3748 15.4186 18.1019 15.4186 17.7652V10.755C15.4186 9.91332 14.7435 9.23102 13.9107 9.23102H13.1567C11.9075 9.23102 10.8948 10.2545 10.8948 11.517V17.7652C10.8948 18.1019 10.6247 18.3748 10.2916 18.3748H8.48208C8.14896 18.3748 7.87891 18.1019 7.87891 17.7652V6.79269C7.87891 6.45603 8.14896 6.18311 8.48208 6.18311H10.3869C10.6674 6.18311 10.8948 6.41291 10.8948 6.6964C11.5803 6.36727 12.3472 6.18311 13.1567 6.18311Z" fill="white"/>
<path fill-rule="evenodd" clip-rule="evenodd" d="M2.60156 17.7652V6.79269C2.60156 6.45603 2.88512 6.18311 3.2349 6.18311H5.1349C5.48468 6.18311 5.76823 6.45603 5.76823 6.79269V17.7652C5.76823 18.1019 5.48468 18.3748 5.1349 18.3748H3.2349C2.88512 18.3748 2.60156 18.1019 2.60156 17.7652Z" fill="white"/>
</svg>
