<svg width="44" height="41" viewBox="0 0 44 41" fill="none" xmlns="http://www.w3.org/2000/svg">
<g opacity="0.5">
<mask id="mask0" mask-type="alpha" maskUnits="userSpaceOnUse" x="-1" y="-1" width="30" height="44">
<path d="M17.7045 41L0 38.2045V12.1136V0.931818L13.0455 0L27.9545 0.931818V17.7045C27.9545 17.7045 23.6891 17.4012 21.4318 18.6364C19.626 19.6245 17.7045 22.3636 17.7045 22.3636V41Z" fill="white" stroke="white" stroke-width="1.86364"/>
</mask>
<g mask="url(#mask0)">
<path d="M14.2053 12.8049C17.3328 12.8049 20.2247 12.3544 22.3846 11.583C23.4585 11.1995 24.4265 10.7102 25.1528 10.097C25.8726 9.4892 26.5055 8.62199 26.5055 7.51339C26.5055 6.40479 25.8726 5.53759 25.1528 4.92983C24.4265 4.31659 23.4585 3.82731 22.3846 3.44379C20.2247 2.67239 17.3328 2.2219 14.2053 2.2219C11.0778 2.2219 8.18581 2.67239 6.02591 3.44379C4.95204 3.82731 3.98402 4.31659 3.25776 4.92983C2.53799 5.53759 1.90501 6.40479 1.90501 7.51339C1.90501 8.62199 2.53799 9.4892 3.25776 10.097C3.98402 10.7102 4.95204 11.1995 6.02591 11.583C8.18581 12.3544 11.0778 12.8049 14.2053 12.8049Z" stroke="white" stroke-width="2.79545"/>
<path d="M1.95632 10.4418C2.2658 10.6426 2.60624 10.8476 2.97888 11.0518C5.34962 12.3508 8.98181 13.5956 14.1631 13.5956C19.3445 13.5956 22.9767 12.3508 25.3474 11.0518C25.72 10.8476 26.0605 10.6426 26.37 10.4418V10.4596V10.4798V10.5001V10.5204V10.5408V10.5611V10.5815V10.602V10.6225V10.643V10.6635V10.684V10.7046V10.7252V10.7459V10.7666V10.7872V10.808V10.8287V10.8495V10.8703V10.8911V10.912V10.9329V10.9538V10.9747V10.9956V11.0166V11.0376V11.0586V11.0797V11.1007V11.1218V11.1429V11.164V11.1852V11.2063V11.2275V11.2487V11.2699V11.2911V11.3124V11.3337V11.3549V11.3762V11.3976V11.4189V11.4402V11.4616V11.483V11.5044V11.5258V11.5472V11.5686V11.5901V11.6115V11.633V11.6545V11.676V11.6975V11.719V11.7405V11.762V11.7836V11.8051V11.8267V11.8482V11.8698V11.8914V11.9129V11.9345V11.9561V11.9777V11.9993V12.0209V12.0425V12.0642V12.0858V12.1074V12.129V12.1507V12.1723V12.1939V12.2156V12.2372V12.2588V12.2805V12.3021V12.3237V12.3454V12.367V12.3886V12.4102V12.4319V12.4535V12.4751V12.4967V12.5183V12.5399V12.5615V12.5831V12.6047V12.6263V12.6478V12.6694V12.6909V12.7125V12.734V12.7556V12.7771V12.7986V12.8201V12.8416V12.8631V12.8846V12.906V12.9275V12.9489V12.9703V12.9917V13.0131V13.0345V13.0559V13.0772V13.0986V13.1199V13.1412V13.1625V13.1838V13.205V13.2263V13.2475V13.2687V13.2899V13.3111V13.3322V13.3533V13.3744V13.3955V13.4166V13.4377V13.4587V13.4797V13.5007V13.5216V13.5426V13.5635V13.5844V13.6052V13.6261V13.6469V13.6677V13.6884V13.7091V13.7299V13.7505V13.7712V13.7918V13.8124V13.833V13.8535V13.874V13.8945V13.915V13.9354V13.9558V13.9761V13.9965V14.0168V14.037V14.0572V14.0774V14.0976V14.1177V14.1378V14.1579V14.1779V14.1979V14.2178V14.2378V14.2576V14.2775V14.2973V14.317V14.3368V14.3565V14.3761V14.3957V14.4153V14.4348V14.4543V14.4737V14.4931V14.5125V14.5318V14.5511V14.5703V14.5895V14.6087V14.6278V14.6468V14.6658V14.6848V14.7037V14.7226V14.7414V14.7602V14.779V14.7976V14.8163V14.8349V14.8534V14.8719V14.8903V14.9087V14.9271V14.9454V14.9636V14.9818V14.9999V15.018V15.036V15.054V15.0719V15.0898V15.1076V15.1254V15.1431V15.1607V15.1783V15.1959V15.2133V15.2308V15.2481V15.2654V15.2827V15.2999V15.317V15.3341V15.3511V15.368V15.3849V15.4018V15.4185V15.4352V15.4519V15.4685V15.485V15.5014V15.5178V15.5341V15.5504V15.5666V15.5827V15.5988V15.6148V15.6307V15.6466V15.6624V15.6781V15.6938V15.7094V15.7249V15.7404V15.7558C26.37 15.8258 26.3324 16.0927 25.8095 16.5238C25.2959 16.9472 24.4685 17.3908 23.3228 17.7903C21.0445 18.5848 17.8061 19.1018 14.1631 19.1018C10.5202 19.1018 7.2818 18.5848 5.00348 17.7903C3.85779 17.3908 3.03038 16.9472 2.51681 16.5238C1.99388 16.0927 1.95632 15.8258 1.95632 15.7558V15.7476V15.7392V15.7308V15.7222V15.7135V15.7047V15.6957V15.6866V15.6774V15.6681V15.6587V15.6491V15.6394V15.6296V15.6197V15.6097V15.5995V15.5893V15.5789V15.5684V15.5578V15.547V15.5362V15.5252V15.5142V15.503V15.4917V15.4803V15.4688V15.4571V15.4454V15.4335V15.4216V15.4095V15.3974V15.3851V15.3727V15.3602V15.3476V15.3349V15.3221V15.3092V15.2962V15.2831V15.2699V15.2565V15.2431V15.2296V15.216V15.2023V15.1884V15.1745V15.1605V15.1464V15.1322V15.1179V15.1035V15.089V15.0744V15.0598V15.045V15.0301V15.0152V15.0001V14.985V14.9698V14.9544V14.939V14.9235V14.9079V14.8923V14.8765V14.8607V14.8447V14.8287V14.8126V14.7964V14.7802V14.7638V14.7474V14.7309V14.7143V14.6976V14.6808V14.664V14.6471V14.6301V14.613V14.5959V14.5786V14.5613V14.5439V14.5265V14.509V14.4914V14.4737V14.4559V14.4381V14.4202V14.4022V14.3842V14.3661V14.3479V14.3297V14.3114V14.293V14.2745V14.256V14.2374V14.2188V14.2001V14.1813V14.1624V14.1435V14.1245V14.1055V14.0864V14.0673V14.048V14.0288V14.0094V13.99V13.9706V13.9511V13.9315V13.9119V13.8922V13.8724V13.8527V13.8328V13.8129V13.7929V13.7729V13.7529V13.7328V13.7126V13.6924V13.6721V13.6518V13.6314V13.611V13.5905V13.57V13.5495V13.5289V13.5082V13.4875V13.4668V13.446V13.4252V13.4043V13.3834V13.3624V13.3414V13.3204V13.2993V13.2782V13.2571V13.2359V13.2146V13.1934V13.1721V13.1507V13.1293V13.1079V13.0865V13.065V13.0435V13.0219V13.0003V12.9787V12.9571V12.9354V12.9137V12.892V12.8702V12.8484V12.8266V12.8047V12.7829V12.761V12.739V12.7171V12.6951V12.6731V12.6511V12.629V12.607V12.5849V12.5627V12.5406V12.5185V12.4963V12.4741V12.4519V12.4296V12.4074V12.3851V12.3629V12.3406V12.3182V12.2959V12.2736V12.2512V12.2289V12.2065V12.1841V12.1617V12.1393V12.1168V12.0944V12.072V12.0495V12.0271V12.0046V11.9821V11.9596V11.9371V11.9147V11.8922V11.8697V11.8472V11.8246V11.8021V11.7796V11.7571V11.7346V11.7121V11.6896V11.6671V11.6446V11.622V11.5995V11.577V11.5545V11.532V11.5096V11.4871V11.4646V11.4421V11.4196V11.3972V11.3747V11.3523V11.3299V11.3074V11.285V11.2626V11.2402V11.2179V11.1955V11.1731V11.1508V11.1285V11.1062V11.0839V11.0616V11.0393V11.0171V10.9949V10.9727V10.9505V10.9283V10.9062V10.884V10.8619V10.8398V10.8178V10.7957V10.7737V10.7517V10.7297V10.7078V10.6859V10.664V10.6421V10.6202V10.5984V10.5766V10.5549V10.5332V10.5115V10.4898V10.4681V10.4465V10.4418Z" stroke="white" stroke-width="2.79545"/>
<path d="M1.64885 15.4536C2.06765 15.7496 2.55871 16.0622 3.12663 16.3734C5.45197 17.6476 9.03334 18.8795 14.1631 18.8795C19.2929 18.8795 22.8743 17.6476 25.1996 16.3734C25.7676 16.0622 26.2586 15.7496 26.6774 15.4536V15.4606V15.4797V15.4988V15.518V15.5372V15.5565V15.5758V15.5951V15.6145V15.6339V15.6534V15.6729V15.6925V15.7121V15.7317V15.7514V15.7711V15.7908V15.8106V15.8304V15.8503V15.8702V15.8901V15.9101V15.9301V15.9502V15.9702V15.9903V16.0105V16.0307V16.0509V16.0711V16.0914V16.1117V16.1321V16.1524V16.1729V16.1933V16.2138V16.2343V16.2548V16.2753V16.2959V16.3165V16.3372V16.3579V16.3786V16.3993V16.42V16.4408V16.4616V16.4824V16.5033V16.5242V16.5451V16.566V16.5869V16.6079V16.6289V16.6499V16.671V16.692V16.7131V16.7342V16.7553V16.7765V16.7976V16.8188V16.84V16.8612V16.8825V16.9037V16.925V16.9463V16.9676V16.9889V17.0102V17.0316V17.0529V17.0743V17.0957V17.1171V17.1385V17.1599V17.1814V17.2028V17.2243V17.2458V17.2673V17.2888V17.3103V17.3318V17.3533V17.3749V17.3964V17.418V17.4395V17.4611V17.4827V17.5043V17.5258V17.5474V17.569V17.5906V17.6122V17.6339V17.6555V17.6771V17.6987V17.7203V17.742V17.7636V17.7852V17.8069V17.8285V17.8501V17.8718V17.8934V17.915V17.9367V17.9583V17.9799V18.0015V18.0232V18.0448V18.0664V18.088V18.1096V18.1312V18.1528V18.1744V18.196V18.2176V18.2391V18.2607V18.2823V18.3038V18.3253V18.3469V18.3684V18.3899V18.4114V18.4329V18.4544V18.4759V18.4973V18.5188V18.5402V18.5616V18.583V18.6044V18.6258V18.6472V18.6685V18.6899V18.7112V18.7325V18.7538V18.7751V18.7963V18.8176V18.8388V18.86V18.8812V18.9024V18.9235V18.9446V18.9658V18.9868V19.0079V19.029V19.05V19.071V19.092V19.1129V19.1339V19.1548V19.1757V19.1965V19.2174V19.2382V19.259V19.2797V19.3005V19.3212V19.3418V19.3625V19.3831V19.4037V19.4243V19.4448V19.4653V19.4858V19.5063V19.5267V19.5471V19.5674V19.5878V19.6081V19.6283V19.6486V19.6687V19.6889V19.709V19.7291V19.7492V19.7692V19.7892V19.8091V19.8291V19.8489V19.8688V19.8886V19.9083V19.9281V19.9478V19.9674V19.987V20.0066V20.0261V20.0456V20.065V20.0845V20.1038V20.1231V20.1424V20.1616V20.1808V20.2V20.2191V20.2381V20.2572V20.2761V20.295V20.3139V20.3328V20.3515V20.3703V20.389V20.4076V20.4262V20.4447V20.4632V20.4817V20.5001V20.5184V20.5367V20.5549V20.5731V20.5912V20.6093V20.6274V20.6453V20.6633V20.6811V20.6989V20.7167V20.7344V20.752V20.7696V20.7872V20.8047V20.8221V20.8394V20.8568V20.874V20.8912V20.9083V20.9254V20.9424V20.9594V20.9762V20.9931V21.0098V21.0265V21.0432V21.0598V21.0763V21.0927V21.1091V21.1255V21.1417V21.1579V21.174V21.1901V21.2061V21.222V21.2379V21.2537V21.2694V21.2851V21.3007V21.3162V21.3317V21.3471C26.6774 21.5458 26.5644 21.8912 26.0051 22.3523C25.453 22.8074 24.5885 23.2659 23.424 23.672C21.1053 24.4805 17.8311 25.0006 14.1631 25.0006C10.4951 25.0006 7.22096 24.4805 4.90224 23.672C3.73779 23.2659 2.87326 22.8074 2.32123 22.3523C1.76189 21.8912 1.64885 21.5458 1.64885 21.3471V21.3389V21.3305V21.3221V21.3135V21.3048V21.296V21.287V21.2779V21.2687V21.2594V21.25V21.2404V21.2307V21.221V21.211V21.201V21.1909V21.1806V21.1702V21.1597V21.1491V21.1384V21.1275V21.1165V21.1055V21.0943V21.083V21.0716V21.0601V21.0484V21.0367V21.0249V21.0129V21.0008V20.9887V20.9764V20.964V20.9515V20.9389V20.9262V20.9134V20.9005V20.8875V20.8744V20.8612V20.8478V20.8344V20.8209V20.8073V20.7936V20.7798V20.7658V20.7518V20.7377V20.7235V20.7092V20.6948V20.6803V20.6657V20.6511V20.6363V20.6214V20.6065V20.5914V20.5763V20.5611V20.5457V20.5303V20.5148V20.4993V20.4836V20.4678V20.452V20.436V20.42V20.4039V20.3877V20.3715V20.3551V20.3387V20.3222V20.3056V20.2889V20.2721V20.2553V20.2384V20.2214V20.2043V20.1872V20.1699V20.1526V20.1353V20.1178V20.1003V20.0827V20.065V20.0472V20.0294V20.0115V19.9935V19.9755V19.9574V19.9392V19.921V19.9027V19.8843V19.8658V19.8473V19.8287V19.8101V19.7914V19.7726V19.7537V19.7348V19.7159V19.6968V19.6777V19.6586V19.6394V19.6201V19.6007V19.5813V19.5619V19.5424V19.5228V19.5032V19.4835V19.4638V19.444V19.4241V19.4042V19.3842V19.3642V19.3442V19.3241V19.3039V19.2837V19.2634V19.2431V19.2227V19.2023V19.1818V19.1613V19.1408V19.1202V19.0995V19.0788V19.0581V19.0373V19.0165V18.9956V18.9747V18.9537V18.9328V18.9117V18.8906V18.8695V18.8484V18.8272V18.8059V18.7847V18.7634V18.742V18.7206V18.6992V18.6778V18.6563V18.6348V18.6132V18.5917V18.57V18.5484V18.5267V18.505V18.4833V18.4615V18.4397V18.4179V18.396V18.3742V18.3523V18.3303V18.3084V18.2864V18.2644V18.2424V18.2203V18.1983V18.1762V18.1541V18.1319V18.1098V18.0876V18.0654V18.0432V18.021V17.9987V17.9764V17.9542V17.9319V17.9096V17.8872V17.8649V17.8425V17.8202V17.7978V17.7754V17.753V17.7306V17.7081V17.6857V17.6633V17.6408V17.6184V17.5959V17.5734V17.5509V17.5285V17.506V17.4835V17.461V17.4385V17.416V17.3934V17.3709V17.3484V17.3259V17.3034V17.2809V17.2584V17.2359V17.2134V17.1908V17.1683V17.1458V17.1233V17.1009V17.0784V17.0559V17.0334V17.011V16.9885V16.966V16.9436V16.9212V16.8988V16.8763V16.8539V16.8316V16.8092V16.7868V16.7645V16.7421V16.7198V16.6975V16.6752V16.6529V16.6307V16.6084V16.5862V16.564V16.5418V16.5196V16.4975V16.4753V16.4532V16.4311V16.4091V16.387V16.365V16.343V16.321V16.2991V16.2772V16.2553V16.2334V16.2116V16.1897V16.1679V16.1462V16.1245V16.1028V16.0811V16.0595V16.0378V16.0163V15.9947V15.9732V15.9517V15.9303V15.9089V15.8875V15.8662V15.8449V15.8236V15.8024V15.7812V15.7601V15.739V15.7179V15.6969V15.6759V15.6549V15.634V15.6132V15.5924V15.5716V15.5508V15.5302V15.5095V15.4889V15.4684V15.4536Z" stroke="white" stroke-width="2.18051"/>
<path d="M1.95632 21.6239C2.2658 21.8248 2.60624 22.0297 2.97888 22.2339C5.34962 23.5329 8.98181 24.7778 14.1631 24.7778C19.3445 24.7778 22.9767 23.5329 25.3474 22.2339C25.72 22.0297 26.0605 21.8248 26.37 21.6239V21.6417V21.662V21.6822V21.7025V21.7229V21.7433V21.7637V21.7841V21.8046V21.8251V21.8456V21.8662V21.8868V21.9074V21.928V21.9487V21.9694V21.9901V22.0109V22.0316V22.0524V22.0733V22.0941V22.115V22.1359V22.1568V22.1778V22.1987V22.2197V22.2407V22.2618V22.2828V22.3039V22.325V22.3461V22.3673V22.3884V22.4096V22.4308V22.452V22.4733V22.4945V22.5158V22.5371V22.5584V22.5797V22.601V22.6224V22.6437V22.6651V22.6865V22.7079V22.7293V22.7508V22.7722V22.7937V22.8151V22.8366V22.8581V22.8796V22.9011V22.9226V22.9441V22.9657V22.9872V23.0088V23.0303V23.0519V23.0735V23.0951V23.1167V23.1383V23.1599V23.1815V23.2031V23.2247V23.2463V23.2679V23.2895V23.3112V23.3328V23.3544V23.3761V23.3977V23.4193V23.441V23.4626V23.4842V23.5059V23.5275V23.5491V23.5707V23.5924V23.614V23.6356V23.6572V23.6788V23.7004V23.722V23.7436V23.7652V23.7868V23.8084V23.83V23.8515V23.8731V23.8946V23.9162V23.9377V23.9592V23.9807V24.0022V24.0237V24.0452V24.0667V24.0881V24.1096V24.131V24.1525V24.1739V24.1953V24.2166V24.238V24.2594V24.2807V24.302V24.3233V24.3446V24.3659V24.3872V24.4084V24.4296V24.4508V24.472V24.4932V24.5143V24.5355V24.5566V24.5777V24.5987V24.6198V24.6408V24.6618V24.6828V24.7037V24.7247V24.7456V24.7665V24.7873V24.8082V24.829V24.8498V24.8705V24.8913V24.912V24.9327V24.9533V24.9739V24.9945V25.0151V25.0357V25.0562V25.0766V25.0971V25.1175V25.1379V25.1583V25.1786V25.1989V25.2191V25.2394V25.2596V25.2797V25.2999V25.32V25.34V25.36V25.38V25.4V25.4199V25.4398V25.4596V25.4794V25.4992V25.5189V25.5386V25.5582V25.5778V25.5974V25.6169V25.6364V25.6559V25.6753V25.6946V25.714V25.7332V25.7525V25.7717V25.7908V25.8099V25.829V25.848V25.8669V25.8859V25.9047V25.9236V25.9424V25.9611V25.9798V25.9984V26.017V26.0355V26.054V26.0725V26.0909V26.1092V26.1275V26.1457V26.1639V26.1821V26.2001V26.2182V26.2362V26.2541V26.2719V26.2898V26.3075V26.3252V26.3429V26.3605V26.378V26.3955V26.4129V26.4303V26.4476V26.4648V26.482V26.4991V26.5162V26.5332V26.5502V26.5671V26.5839V26.6007V26.6174V26.634V26.6506V26.6671V26.6836V26.7V26.7163V26.7325V26.7487V26.7649V26.7809V26.7969V26.8129V26.8287V26.8445V26.8603V26.8759V26.8915V26.907V26.9225V26.9379C26.37 27.0079 26.3324 27.2748 25.8095 27.7059C25.2959 28.1293 24.4685 28.573 23.3228 28.9725C21.0445 29.7669 17.8061 30.284 14.1631 30.284C10.5202 30.284 7.2818 29.7669 5.00348 28.9725C3.85779 28.573 3.03038 28.1293 2.51681 27.7059C1.99388 27.2748 1.95632 27.0079 1.95632 26.9379V26.9297V26.9213V26.9129V26.9043V26.8956V26.8868V26.8778V26.8688V26.8596V26.8502V26.8408V26.8312V26.8216V26.8118V26.8019V26.7918V26.7817V26.7714V26.761V26.7505V26.7399V26.7292V26.7183V26.7074V26.6963V26.6851V26.6738V26.6624V26.6509V26.6393V26.6275V26.6157V26.6037V26.5917V26.5795V26.5672V26.5548V26.5423V26.5297V26.517V26.5042V26.4913V26.4783V26.4652V26.452V26.4387V26.4252V26.4117V26.3981V26.3844V26.3706V26.3567V26.3426V26.3285V26.3143V26.3V26.2856V26.2711V26.2566V26.2419V26.2271V26.2122V26.1973V26.1822V26.1671V26.1519V26.1366V26.1212V26.1057V26.0901V26.0744V26.0586V26.0428V26.0269V26.0109V25.9948V25.9786V25.9623V25.9459V25.9295V25.913V25.8964V25.8797V25.863V25.8461V25.8292V25.8122V25.7951V25.778V25.7608V25.7435V25.7261V25.7086V25.6911V25.6735V25.6558V25.6381V25.6202V25.6023V25.5844V25.5663V25.5482V25.53V25.5118V25.4935V25.4751V25.4566V25.4381V25.4195V25.4009V25.3822V25.3634V25.3446V25.3256V25.3067V25.2876V25.2685V25.2494V25.2302V25.2109V25.1916V25.1722V25.1527V25.1332V25.1136V25.094V25.0743V25.0546V25.0348V25.0149V24.995V24.9751V24.9551V24.935V24.9149V24.8947V24.8745V24.8542V24.8339V24.8135V24.7931V24.7727V24.7522V24.7316V24.711V24.6904V24.6697V24.6489V24.6281V24.6073V24.5864V24.5655V24.5446V24.5236V24.5025V24.4815V24.4603V24.4392V24.418V24.3968V24.3755V24.3542V24.3328V24.3115V24.2901V24.2686V24.2471V24.2256V24.2041V24.1825V24.1609V24.1392V24.1175V24.0958V24.0741V24.0523V24.0305V24.0087V23.9869V23.965V23.9431V23.9212V23.8992V23.8772V23.8552V23.8332V23.8112V23.7891V23.767V23.7449V23.7227V23.7006V23.6784V23.6562V23.634V23.6118V23.5895V23.5673V23.545V23.5227V23.5004V23.478V23.4557V23.4334V23.411V23.3886V23.3662V23.3438V23.3214V23.299V23.2765V23.2541V23.2316V23.2092V23.1867V23.1642V23.1418V23.1193V23.0968V23.0743V23.0518V23.0293V23.0068V22.9843V22.9618V22.9392V22.9167V22.8942V22.8717V22.8492V22.8267V22.8042V22.7817V22.7592V22.7367V22.7142V22.6917V22.6692V22.6467V22.6242V22.6018V22.5793V22.5569V22.5344V22.512V22.4896V22.4672V22.4448V22.4224V22.4V22.3776V22.3553V22.3329V22.3106V22.2883V22.266V22.2437V22.2215V22.1992V22.177V22.1548V22.1326V22.1104V22.0883V22.0661V22.044V22.022V21.9999V21.9778V21.9558V21.9338V21.9119V21.8899V21.868V21.8461V21.8242V21.8024V21.7806V21.7588V21.737V21.7153V21.6936V21.6719V21.6503V21.6287V21.6239Z" stroke="white" stroke-width="2.79545"/>
<path d="M25.2699 29.389C25.6737 29.1994 26.0399 29.0088 26.37 28.8226V28.8241V28.8417V28.8593V28.877V28.8947V28.9123V28.9301V28.9478V28.9656V28.9834V29.0012V29.019V29.0368V29.0547V29.0726V29.0905V29.1085V29.1264V29.1444V29.1624V29.1804V29.1984V29.2165V29.2346V29.2526V29.2707V29.2889V29.307V29.3252V29.3433V29.3615V29.3797V29.3979V29.4162V29.4344V29.4527V29.4709V29.4892V29.5075V29.5258V29.5442V29.5625V29.5808V29.5992V29.6176V29.6359V29.6543V29.6727V29.6911V29.7096V29.728V29.7464V29.7649V29.7833V29.8018V29.8202V29.8387V29.8572V29.8757V29.8942V29.9127V29.9312V29.9497V29.9682V29.9867V30.0053V30.0238V30.0423V30.0608V30.0794V30.0979V30.1164V30.135V30.1535V30.1721V30.1906V30.2092V30.2277V30.2462V30.2648V30.2833V30.3019V30.3204V30.3389V30.3575V30.376V30.3945V30.413V30.4316V30.4501V30.4686V30.4871V30.5056V30.5241V30.5426V30.5611V30.5795V30.598V30.6165V30.6349V30.6534V30.6718V30.6903V30.7087V30.7271V30.7455V30.7639V30.7823V30.8006V30.819V30.8374V30.8557V30.874V30.8923V30.9107V30.9289V30.9472V30.9655V30.9837V31.002V31.0202V31.0384V31.0566V31.0748V31.0929V31.1111V31.1292V31.1473V31.1654V31.1835V31.2015V31.2196V31.2376V31.2556V31.2736V31.2915V31.3095V31.3274V31.3453V31.3632V31.3811V31.3989V31.4167V31.4345V31.4523V31.47V31.4878V31.5055V31.5231V31.5408V31.5584V31.576V31.5936V31.6112V31.6287V31.6462V31.6637V31.6811V31.6986V31.716V31.7333V31.7507V31.768V31.7852V31.8025V31.8197V31.8369V31.8541V31.8712V31.8883V31.9054V31.9224V31.9394V31.9564V31.9733V31.9902V32.0071V32.024V32.0408V32.0575V32.0743V32.091V32.1077V32.1243V32.1409V32.1574V32.174V32.1905V32.2069V32.2233V32.2397V32.256V32.2723V32.2886V32.3048V32.321V32.3371V32.3532V32.3693V32.3853V32.4013V32.4172V32.4331V32.4489V32.4647V32.4805V32.4962V32.5119V32.5275V32.5431V32.5587V32.5742V32.5896V32.605V32.6204V32.6357V32.651V32.6662V32.6814V32.6965V32.7116V32.7266V32.7416V32.7565V32.7714V32.7863V32.801V32.8158V32.8305V32.8451V32.8597V32.8742V32.8887V32.9031V32.9175V32.9318V32.9461V32.9603V32.9744V32.9885V33.0026V33.0166V33.0305V33.0444V33.0582V33.072V33.0857V33.0994V33.113V33.1265V33.14V33.1534V33.1668V33.1785C26.3539 33.2178 26.2689 33.3814 25.892 33.6477C25.3771 34.0115 24.5413 34.3962 23.3827 34.7425C21.0835 35.4297 17.8235 35.8749 14.1631 35.8749C10.5028 35.8749 7.24281 35.4297 4.94353 34.7425C3.78494 34.3962 2.94917 34.0115 2.43432 33.6477C2.05743 33.3814 1.97236 33.2178 1.95632 33.1785V33.1777V33.1703V33.1627V33.155V33.1473V33.1394V33.1314V33.1233V33.1151V33.1068V33.0984V33.0899V33.0813V33.0726V33.0638V33.0549V33.0459V33.0368V33.0276V33.0183V33.0089V32.9994V32.9899V32.9802V32.9704V32.9605V32.9506V32.9405V32.9303V32.9201V32.9098V32.8993V32.8888V32.8782V32.8675V32.8567V32.8458V32.8348V32.8238V32.8126V32.8014V32.79V32.7786V32.7671V32.7555V32.7439V32.7321V32.7203V32.7083V32.6963V32.6842V32.6721V32.6598V32.6475V32.635V32.6225V32.61V32.5973V32.5846V32.5717V32.5588V32.5459V32.5328V32.5197V32.5065V32.4932V32.4798V32.4664V32.4529V32.4393V32.4257V32.4119V32.3981V32.3843V32.3703V32.3563V32.3422V32.328V32.3138V32.2995V32.2852V32.2707V32.2562V32.2417V32.227V32.2123V32.1976V32.1827V32.1678V32.1529V32.1378V32.1228V32.1076V32.0924V32.0771V32.0618V32.0464V32.0309V32.0154V31.9998V31.9842V31.9685V31.9527V31.9369V31.921V31.9051V31.8891V31.8731V31.857V31.8408V31.8246V31.8083V31.792V31.7757V31.7592V31.7428V31.7262V31.7097V31.693V31.6764V31.6596V31.6429V31.626V31.6092V31.5923V31.5753V31.5583V31.5412V31.5241V31.507V31.4898V31.4725V31.4552V31.4379V31.4205V31.4031V31.3857V31.3682V31.3506V31.333V31.3154V31.2978V31.2801V31.2623V31.2446V31.2267V31.2089V31.191V31.1731V31.1551V31.1371V31.1191V31.101V31.0829V31.0648V31.0466V31.0284V31.0102V30.9919V30.9736V30.9553V30.937V30.9186V30.9002V30.8817V30.8632V30.8447V30.8262V30.8077V30.7891V30.7705V30.7518V30.7332V30.7145V30.6958V30.6771V30.6583V30.6396V30.6208V30.6019V30.5831V30.5642V30.5454V30.5265V30.5076V30.4886V30.4697V30.4507V30.4317V30.4127V30.3937V30.3746V30.3556V30.3365V30.3174V30.2983V30.2792V30.2601V30.2409V30.2218V30.2026V30.1835V30.1643V30.1451V30.1259V30.1067V30.0875V30.0682V30.049V30.0297V30.0105V29.9912V29.972V29.9527V29.9334V29.9141V29.8949V29.8756V29.8563V29.837V29.8177V29.7984V29.7791V29.7598V29.7405V29.7212V29.7019V29.6826V29.6633V29.6441V29.6248V29.6055V29.5862V29.5669V29.5476V29.5284V29.5091V29.4899V29.4706V29.4514V29.4321V29.4129V29.3937V29.3745V29.3553V29.3361V29.3169V29.2977V29.2786V29.2594V29.2403V29.2212V29.2021V29.183V29.1639V29.1448V29.1258V29.1067V29.0877V29.0687V29.0497V29.0308V29.0118V28.9929V28.974V28.9551V28.9362V28.9173V28.8985V28.8797V28.8609V28.8421V28.8234V28.8226C2.2864 29.0088 2.65255 29.1994 3.05634 29.389C5.41309 30.4959 9.01791 31.5547 14.1631 31.5547C19.3084 31.5547 22.9132 30.4959 25.2699 29.389Z" stroke="white" stroke-width="2.79545"/>
</g>
</g>
<path d="M29.7805 28.3801C32.908 28.3801 35.7999 27.9296 37.9598 27.1582C39.0337 26.7747 40.0017 26.2854 40.728 25.6722C41.4478 25.0644 42.0807 24.1972 42.0807 23.0886C42.0807 21.98 41.4478 21.1128 40.728 20.505C40.0017 19.8918 39.0337 19.4025 37.9598 19.019C35.7999 18.2476 32.908 17.7971 29.7805 17.7971C26.653 17.7971 23.761 18.2476 21.6011 19.019C20.5272 19.4025 19.5592 19.8918 18.833 20.505C18.1132 21.1128 17.4802 21.98 17.4802 23.0886C17.4802 24.1972 18.1132 25.0644 18.833 25.6722C19.5592 26.2854 20.5272 26.7747 21.6011 27.1582C23.761 27.9296 26.653 28.3801 29.7805 28.3801Z" stroke="white" stroke-width="2.79545"/>
<path d="M41.9507 25.2735V25.292V25.3114V25.3309V25.3504V25.3699V25.3895V25.409V25.4286V25.4483V25.4679V25.4876V25.5073V25.5271V25.5469V25.5666V25.5865V25.6063V25.6262V25.6461V25.666V25.6859V25.7059V25.7259V25.7459V25.7659V25.786V25.806V25.8261V25.8463V25.8664V25.8865V25.9067V25.9269V25.9471V25.9673V25.9876V26.0079V26.0281V26.0484V26.0687V26.0891V26.1094V26.1298V26.1502V26.1705V26.191V26.2114V26.2318V26.2522V26.2727V26.2932V26.3137V26.3341V26.3546V26.3752V26.3957V26.4162V26.4368V26.4573V26.4779V26.4985V26.519V26.5396V26.5602V26.5808V26.6014V26.622V26.6427V26.6633V26.6839V26.7045V26.7252V26.7458V26.7665V26.7871V26.8078V26.8284V26.8491V26.8697V26.8904V26.9111V26.9317V26.9524V26.9731V26.9937V27.0144V27.035V27.0557V27.0764V27.097V27.1177V27.1383V27.159V27.1796V27.2002V27.2209V27.2415V27.2621V27.2827V27.3033V27.3239V27.3445V27.3651V27.3857V27.4063V27.4268V27.4474V27.468V27.4885V27.509V27.5295V27.55V27.5705V27.591V27.6115V27.632V27.6524V27.6728V27.6933V27.7137V27.7341V27.7545V27.7748V27.7952V27.8155V27.8358V27.8561V27.8764V27.8967V27.917V27.9372V27.9574V27.9776V27.9978V28.018V28.0381V28.0582V28.0783V28.0984V28.1185V28.1385V28.1585V28.1785V28.1985V28.2184V28.2384V28.2583V28.2781V28.298V28.3178V28.3376V28.3574V28.3772V28.3969V28.4166V28.4363V28.4559V28.4755V28.4951V28.5147V28.5342V28.5537V28.5732V28.5926V28.6121V28.6314V28.6508V28.6701V28.6894V28.7087V28.7279V28.7471V28.7662V28.7854V28.8044V28.8235V28.8425V28.8615V28.8805V28.8994V28.9182V28.9371V28.9559V28.9747V28.9934V29.0121V29.0307V29.0493V29.0679V29.0864V29.1049V29.1234V29.1418V29.1602V29.1785V29.1968V29.215V29.2332V29.2514V29.2695V29.2876V29.3056V29.3236V29.3415V29.3594V29.3773V29.3951V29.4128V29.4306V29.4482V29.4658V29.4834V29.5009V29.5184V29.5358V29.5532V29.5705V29.5878V29.605V29.6222V29.6393V29.6563V29.6734V29.6903V29.7072V29.7241V29.7409V29.7576V29.7743V29.791V29.8076V29.8241V29.8406V29.857V29.8733V29.8896V29.9059V29.9221V29.9382V29.9543V29.9703V29.9863V30.0022V30.018V30.0338V30.0495V30.0651V30.0807V30.0963V30.1117V30.1271V30.1425V30.1578V30.173V30.1881V30.2032V30.2183V30.2332V30.2481V30.2629V30.2777V30.2924C41.9507 30.3073 41.943 30.543 41.4161 30.959C40.9046 31.3629 40.0779 31.7878 38.9319 32.1705C36.6544 32.9311 33.419 33.4256 29.7811 33.4256C26.1433 33.4256 22.9079 32.9311 20.6304 32.1705C19.4843 31.7878 18.6577 31.3629 18.1462 30.959C17.6193 30.543 17.6116 30.3073 17.6116 30.2924V30.2846V30.2766V30.2685V30.2603V30.252V30.2436V30.235V30.2264V30.2176V30.2087V30.1997V30.1905V30.1813V30.1719V30.1625V30.1529V30.1432V30.1334V30.1235V30.1134V30.1033V30.0931V30.0827V30.0722V30.0617V30.051V30.0402V30.0293V30.0183V30.0072V29.996V29.9847V29.9732V29.9617V29.9501V29.9384V29.9265V29.9146V29.9026V29.8904V29.8782V29.8659V29.8534V29.8409V29.8283V29.8156V29.8028V29.7899V29.7768V29.7637V29.7505V29.7373V29.7239V29.7104V29.6968V29.6832V29.6694V29.6556V29.6417V29.6276V29.6135V29.5993V29.585V29.5707V29.5562V29.5417V29.527V29.5123V29.4975V29.4826V29.4677V29.4526V29.4375V29.4223V29.407V29.3916V29.3761V29.3606V29.345V29.3293V29.3135V29.2977V29.2817V29.2657V29.2496V29.2335V29.2172V29.2009V29.1846V29.1681V29.1516V29.135V29.1183V29.1016V29.0847V29.0679V29.0509V29.0339V29.0168V28.9996V28.9824V28.9651V28.9477V28.9303V28.9128V28.8953V28.8776V28.8599V28.8422V28.8244V28.8065V28.7886V28.7706V28.7525V28.7344V28.7162V28.698V28.6797V28.6613V28.6429V28.6244V28.6059V28.5873V28.5687V28.55V28.5313V28.5125V28.4936V28.4747V28.4557V28.4367V28.4177V28.3986V28.3794V28.3602V28.3409V28.3216V28.3022V28.2828V28.2634V28.2439V28.2243V28.2048V28.1851V28.1654V28.1457V28.126V28.1061V28.0863V28.0664V28.0465V28.0265V28.0065V27.9864V27.9663V27.9462V27.926V27.9058V27.8856V27.8653V27.845V27.8246V27.8043V27.7838V27.7634V27.7429V27.7224V27.7018V27.6813V27.6606V27.64V27.6193V27.5986V27.5779V27.5571V27.5363V27.5155V27.4947V27.4738V27.4529V27.432V27.4111V27.3901V27.3691V27.3481V27.327V27.306V27.2849V27.2638V27.2427V27.2215V27.2004V27.1792V27.158V27.1368V27.1156V27.0943V27.073V27.0518V27.0305V27.0091V26.9878V26.9665V26.9451V26.9238V26.9024V26.881V26.8596V26.8382V26.8168V26.7954V26.7739V26.7525V26.731V26.7096V26.6881V26.6666V26.6451V26.6237V26.6022V26.5807V26.5592V26.5377V26.5162V26.4947V26.4732V26.4517V26.4302V26.4087V26.3872V26.3657V26.3442V26.3227V26.3012V26.2797V26.2582V26.2367V26.2153V26.1938V26.1723V26.1509V26.1294V26.108V26.0865V26.0651V26.0437V26.0223V26.0009V25.9795V25.9581V25.9368V25.9154V25.8941V25.8728V25.8515V25.8302V25.8089V25.7876V25.7664V25.7452V25.7239V25.7028V25.6816V25.6604V25.6393V25.6182V25.5971V25.576V25.5549V25.5339V25.5129V25.4919V25.4709V25.45V25.4291V25.4082V25.3873V25.3665V25.3457V25.3249V25.3042V25.2834V25.2735C17.9247 25.4687 18.2697 25.6679 18.6478 25.8664C21.0091 27.1056 24.6241 28.2919 29.7811 28.2919C34.9381 28.2919 38.5532 27.1056 40.9145 25.8664C41.2926 25.6679 41.6376 25.4687 41.9507 25.2735Z" stroke="white" stroke-width="2.79545" stroke-linecap="round"/>
<path d="M41.9507 31.0367V31.0552V31.0746V31.0941V31.1136V31.1331V31.1526V31.1722V31.1918V31.2115V31.2311V31.2508V31.2705V31.2903V31.31V31.3298V31.3497V31.3695V31.3894V31.4093V31.4292V31.4491V31.4691V31.4891V31.5091V31.5291V31.5492V31.5692V31.5893V31.6094V31.6296V31.6497V31.6699V31.6901V31.7103V31.7305V31.7508V31.771V31.7913V31.8116V31.8319V31.8523V31.8726V31.893V31.9133V31.9337V31.9541V31.9746V31.995V32.0154V32.0359V32.0564V32.0768V32.0973V32.1178V32.1383V32.1589V32.1794V32.1999V32.2205V32.2411V32.2616V32.2822V32.3028V32.3234V32.344V32.3646V32.3852V32.4058V32.4265V32.4471V32.4677V32.4884V32.509V32.5297V32.5503V32.571V32.5916V32.6123V32.6329V32.6536V32.6743V32.6949V32.7156V32.7362V32.7569V32.7776V32.7982V32.8189V32.8395V32.8602V32.8808V32.9015V32.9221V32.9428V32.9634V32.984V33.0047V33.0253V33.0459V33.0665V33.0871V33.1077V33.1283V33.1489V33.1695V33.19V33.2106V33.2311V33.2517V33.2722V33.2927V33.3132V33.3337V33.3542V33.3747V33.3951V33.4156V33.436V33.4565V33.4769V33.4973V33.5176V33.538V33.5584V33.5787V33.599V33.6193V33.6396V33.6599V33.6801V33.7004V33.7206V33.7408V33.761V33.7811V33.8013V33.8214V33.8415V33.8616V33.8816V33.9017V33.9217V33.9417V33.9617V33.9816V34.0015V34.0215V34.0413V34.0612V34.081V34.1008V34.1206V34.1404V34.1601V34.1798V34.1995V34.2191V34.2387V34.2583V34.2779V34.2974V34.3169V34.3364V34.3558V34.3752V34.3946V34.414V34.4333V34.4526V34.4718V34.4911V34.5103V34.5294V34.5485V34.5676V34.5867V34.6057V34.6247V34.6436V34.6626V34.6814V34.7003V34.7191V34.7378V34.7566V34.7753V34.7939V34.8125V34.8311V34.8496V34.8681V34.8866V34.905V34.9234V34.9417V34.96V34.9782V34.9964V35.0146V35.0327V35.0508V35.0688V35.0868V35.1047V35.1226V35.1405V35.1583V35.176V35.1937V35.2114V35.229V35.2466V35.2641V35.2816V35.299V35.3164V35.3337V35.351V35.3682V35.3853V35.4025V35.4195V35.4365V35.4535V35.4704V35.4873V35.5041V35.5208V35.5375V35.5542V35.5707V35.5873V35.6037V35.6202V35.6365V35.6528V35.6691V35.6853V35.7014V35.7175V35.7335V35.7494V35.7653V35.7812V35.797V35.8127V35.8283V35.8439V35.8595V35.8749V35.8903V35.9057V35.921V35.9362V35.9513V35.9664V35.9814V35.9964V36.0113V36.0261V36.0409V36.0556C41.9507 36.0705 41.943 36.3062 41.4161 36.7222C40.9046 37.1261 40.0779 37.5509 38.9319 37.9337C36.6544 38.6943 33.419 39.1888 29.7811 39.1888C26.1433 39.1888 22.9079 38.6943 20.6304 37.9337C19.4843 37.5509 18.6577 37.1261 18.1462 36.7222C17.6193 36.3062 17.6116 36.0705 17.6116 36.0556V36.0477V36.0398V36.0317V36.0235V36.0152V36.0068V35.9982V35.9896V35.9808V35.9719V35.9629V35.9537V35.9445V35.9351V35.9257V35.9161V35.9064V35.8966V35.8867V35.8766V35.8665V35.8562V35.8459V35.8354V35.8248V35.8142V35.8034V35.7925V35.7815V35.7704V35.7592V35.7478V35.7364V35.7249V35.7133V35.7015V35.6897V35.6778V35.6658V35.6536V35.6414V35.6291V35.6166V35.6041V35.5915V35.5788V35.5659V35.553V35.54V35.5269V35.5137V35.5004V35.4871V35.4736V35.46V35.4464V35.4326V35.4188V35.4048V35.3908V35.3767V35.3625V35.3482V35.3339V35.3194V35.3049V35.2902V35.2755V35.2607V35.2458V35.2309V35.2158V35.2007V35.1855V35.1702V35.1548V35.1393V35.1238V35.1082V35.0925V35.0767V35.0608V35.0449V35.0289V35.0128V34.9967V34.9804V34.9641V34.9477V34.9313V34.9148V34.8982V34.8815V34.8647V34.8479V34.831V34.8141V34.7971V34.78V34.7628V34.7456V34.7283V34.7109V34.6935V34.676V34.6584V34.6408V34.6231V34.6054V34.5876V34.5697V34.5518V34.5338V34.5157V34.4976V34.4794V34.4612V34.4429V34.4245V34.4061V34.3876V34.3691V34.3505V34.3319V34.3132V34.2944V34.2756V34.2568V34.2379V34.2189V34.1999V34.1808V34.1617V34.1426V34.1234V34.1041V34.0848V34.0654V34.046V34.0266V34.0071V33.9875V33.9679V33.9483V33.9286V33.9089V33.8891V33.8693V33.8495V33.8296V33.8097V33.7897V33.7697V33.7496V33.7295V33.7094V33.6892V33.669V33.6488V33.6285V33.6082V33.5878V33.5674V33.547V33.5266V33.5061V33.4856V33.465V33.4444V33.4238V33.4032V33.3825V33.3618V33.3411V33.3203V33.2995V33.2787V33.2579V33.237V33.2161V33.1952V33.1742V33.1533V33.1323V33.1113V33.0902V33.0692V33.0481V33.027V33.0059V32.9847V32.9636V32.9424V32.9212V32.9V32.8787V32.8575V32.8362V32.8149V32.7936V32.7723V32.751V32.7297V32.7083V32.687V32.6656V32.6442V32.6228V32.6014V32.58V32.5585V32.5371V32.5157V32.4942V32.4727V32.4513V32.4298V32.4083V32.3868V32.3654V32.3439V32.3224V32.3009V32.2794V32.2579V32.2364V32.2149V32.1934V32.1719V32.1504V32.1289V32.1074V32.0859V32.0644V32.0429V32.0214V31.9999V31.9784V31.957V31.9355V31.9141V31.8926V31.8712V31.8497V31.8283V31.8069V31.7855V31.7641V31.7427V31.7213V31.7V31.6786V31.6573V31.636V31.6147V31.5934V31.5721V31.5508V31.5296V31.5083V31.4871V31.4659V31.4448V31.4236V31.4025V31.3813V31.3603V31.3392V31.3181V31.2971V31.2761V31.2551V31.2341V31.2132V31.1923V31.1714V31.1505V31.1297V31.1089V31.0881V31.0673V31.0466V31.0367C17.9247 31.2318 18.2697 31.4311 18.6478 31.6296C21.0091 32.8688 24.6241 34.0551 29.7811 34.0551C34.9381 34.0551 38.5532 32.8688 40.9145 31.6296C41.2926 31.4311 41.6376 31.2318 41.9507 31.0367Z" stroke="white" stroke-width="2.79545" stroke-linecap="round"/>
</svg>
