<svg width="24" height="24" viewBox="0 0 24 24" fill="none" xmlns="http://www.w3.org/2000/svg">
<path d="M19.4844 5.76336L21 4.31718V4H15.7482L12.0052 13.2908L7.74662 4H2.23997V4.31718L4.01045 6.44237C4.18362 6.59928 4.27254 6.82839 4.25042 7.06069V15.4195C4.30349 15.7208 4.20825 16.0292 3.99438 16.2485L2 18.6565V18.9691H7.65706V18.6565L5.66153 16.2519C5.44521 16.0335 5.34369 15.7268 5.38712 15.4229V8.18969L10.353 18.9737H10.9271L15.204 8.18969V16.7775C15.204 17.0065 15.204 17.0511 15.0547 17.1989L13.5185 18.6805V19H20.9701V18.6828L19.4902 17.2366C19.3595 17.1385 19.2941 16.9763 19.3202 16.8153V6.18473C19.2933 6.02388 19.3584 5.86146 19.489 5.76336H19.4844Z" fill="white"/>
</svg>
