<svg width="61" height="39" viewBox="0 0 61 39" fill="none" xmlns="http://www.w3.org/2000/svg">
<path fill-rule="evenodd" clip-rule="evenodd" d="M12.999 28.7715H23.7133V28.7715C23.7133 29.7577 22.9138 30.5572 21.9276 30.5572V30.5572H14.7847V30.5572C13.7985 30.5572 12.999 29.7577 12.999 28.7715V28.7715Z" fill="white" fill-opacity="0.5"/>
<path fill-rule="evenodd" clip-rule="evenodd" d="M22.6428 7.3429H7.64286C4.68419 7.3429 2.28571 9.74137 2.28571 12.7V25.2H0.857143C0.659898 25.2 0.5 25.3599 0.5 25.5572V30.5572C0.5 33.5158 2.89847 35.9143 5.85714 35.9143H22.6428V7.3429ZM20.5 10.9144H7.64286C6.65664 10.9144 5.85715 11.7139 5.85715 12.7001V24.8429C5.85715 25.0402 6.01705 25.2001 6.21429 25.2001H20.5V10.9144ZM4.42927 28.7715H20.5007V32.3429H5.85784C4.87162 32.3429 4.07213 31.5434 4.07213 30.5572V29.1286C4.07213 28.9314 4.23203 28.7715 4.42927 28.7715Z" fill="white"/>
<path fill-rule="evenodd" clip-rule="evenodd" d="M38.8945 5.19989H26.3945L27.0845 7.95975C27.2037 8.43671 27.6323 8.77132 28.1239 8.77132H37.1651C37.6568 8.77132 38.0853 8.43671 38.2046 7.95975L38.8945 5.19989Z" fill="white" fill-opacity="0.5"/>
<path fill-rule="evenodd" clip-rule="evenodd" d="M25.5007 1.62842H39.7864C42.7451 1.62842 45.1436 4.02689 45.1436 6.98556V31.9856C45.1436 34.9442 42.7451 37.3427 39.7864 37.3427H25.5007C22.542 37.3427 20.1436 34.9442 20.1436 31.9856V6.98556C20.1436 4.02689 22.542 1.62842 25.5007 1.62842ZM25.5014 5.19991C24.5152 5.19991 23.7157 5.9994 23.7157 6.98562V31.9856C23.7157 32.9718 24.5152 33.7713 25.5014 33.7713H39.7871C40.7733 33.7713 41.5728 32.9718 41.5728 31.9856V6.98562C41.5728 5.9994 40.7733 5.19991 39.7871 5.19991H25.5014Z" fill="white"/>
<path fill-rule="evenodd" clip-rule="evenodd" d="M51.9283 23.4143C52.9145 23.4143 53.714 22.6148 53.714 21.6286C53.714 20.6424 52.9145 19.8429 51.9283 19.8429C50.9421 19.8429 50.1426 20.6424 50.1426 21.6286C50.1426 22.6148 50.9421 23.4143 51.9283 23.4143Z" fill="white" fill-opacity="0.5"/>
<path fill-rule="evenodd" clip-rule="evenodd" d="M53.7139 35.9143H43.3567V32.3429H53.7136C54.6998 32.3429 55.4993 31.5434 55.4993 30.5572V12.7001C55.4993 11.7139 54.6998 10.9144 53.7136 10.9144H43.3567V7.3429H53.7139C56.6725 7.3429 59.071 9.74137 59.071 12.7V30.5572C59.071 33.5158 56.6725 35.9143 53.7139 35.9143ZM43.3567 10.9144V32.3429H43.3564V10.9144H43.3567Z" fill="white"/>
</svg>
