<svg width="41" height="41" viewBox="0 0 41 41" fill="none" xmlns="http://www.w3.org/2000/svg">
<path fill-rule="evenodd" clip-rule="evenodd" d="M28.4987 8.54167C27.8554 8.54167 27.334 8.02021 27.334 7.37696V6.28971C27.334 5.64646 27.8554 5.125 28.4987 5.125H32.459C35.2894 5.125 37.584 7.41954 37.584 10.25V14.2103C37.584 14.8535 37.0625 15.375 36.4193 15.375H35.332C34.6888 15.375 34.1673 14.8535 34.1673 14.2103V10.25C34.1673 9.30651 33.4025 8.54167 32.459 8.54167H28.4987Z" fill="white" fill-opacity="0.5"/>
<path fill-rule="evenodd" clip-rule="evenodd" d="M30.7493 29.0417V30.75C30.7493 33.5805 28.4548 35.875 25.6243 35.875H8.54102C5.71056 35.875 3.41602 33.5805 3.41602 30.75V17.0833C3.41602 14.2529 5.71056 11.9583 8.54102 11.9583H10.2493V10.25C10.2493 7.41954 12.5439 5.125 15.3743 5.125H24.5993C25.1654 5.125 25.6243 5.58391 25.6243 6.15V7.51667C25.6243 8.08276 25.1654 8.54167 24.5993 8.54167H15.3743C14.4309 8.54167 13.666 9.30651 13.666 10.25V11.9583H25.6243C28.4548 11.9583 30.7493 14.2529 30.7493 17.0833V25.625H32.4577C33.4012 25.625 34.166 24.8602 34.166 23.9167V18.1083C34.166 17.5422 34.6249 17.0833 35.191 17.0833H36.5577C37.1238 17.0833 37.5827 17.5422 37.5827 18.1083V23.9167C37.5827 26.7471 35.2881 29.0417 32.4577 29.0417H30.7493ZM25.6 32.4582C26.5672 32.4582 27.332 31.6934 27.332 30.7499V17.0832C27.332 16.1398 26.5672 15.3749 25.6237 15.3749H8.54036C7.59688 15.3749 6.83203 16.1398 6.83203 17.0832V20.8136C9.44214 19.319 12.8279 19.6861 15.0569 21.9151L25.6 32.4582ZM23.0624 23.9169C21.6472 23.9169 20.4999 22.7696 20.4999 21.3544C20.4999 19.9391 21.6472 18.7919 23.0624 18.7919C24.4776 18.7919 25.6249 19.9391 25.6249 21.3544C25.6249 22.7696 24.4776 23.9169 23.0624 23.9169ZM8.54036 32.4587H20.7681L12.641 24.3316C11.3067 22.9973 8.80922 22.5977 6.83203 24.8054V30.7504C6.83203 31.6939 7.59688 32.4587 8.54036 32.4587Z" fill="white"/>
</svg>
