<svg width="101" height="134" viewBox="0 0 101 134" fill="none" xmlns="http://www.w3.org/2000/svg">
<mask id="mask0_1208_1228" style="mask-type:alpha" maskUnits="userSpaceOnUse" x="0" y="0" width="101" height="134">
<rect width="101" height="133.5" fill="#C4C4C4"/>
</mask>
<g mask="url(#mask0_1208_1228)">
<path opacity="0.1" d="M0.115234 35.1763L0.115234 139.497C39.3714 139.497 61.3808 139.497 100.637 139.497V35.1763L50.3761 64.196L0.115234 35.1763Z" fill="url(#paint0_linear_1208_1228)"/>
<path opacity="0.3" d="M0.115234 35.1763L0.115234 122.743H50.3761V64.196L0.115234 35.1763Z" fill="url(#paint1_linear_1208_1228)"/>
<path d="M0 35.1099L50.4245 5.99729L100.849 35.1099L50.4245 64.2224L0 35.1099Z" fill="url(#paint2_linear_1208_1228)"/>
<path opacity="0.4" d="M8.04199 33.9448L50.5486 9.40352L94.0311 33.944L51.5245 58.4853L8.04199 33.9448Z" fill="#1C1C26"/>
<path d="M14.3787 33.3476L14.3787 21.7178L86.7773 20.1501L86.7773 31.7799L48.9133 53.6407L14.3787 33.3476Z" fill="#E8EFF8"/>
<path d="M48.9128 20.0555L86.7769 20.0555L86.7769 31.86L48.9129 53.7209L48.9128 20.0555Z" fill="#8BA1BE" fill-opacity="0.2"/>
<path d="M14.0337 21.8594L51.8977 -0.00144156L86.7772 20.1362L48.9131 41.997L14.0337 21.8594Z" fill="white"/>
<path d="M30.123 17.7437L46.4409 15.8523" stroke="#1C1C26" stroke-width="2" stroke-miterlimit="10"/>
<path d="M40.7568 12.5708L36.1342 21.2762L63.4931 25.6976" stroke="#1C1C26" stroke-width="2" stroke-miterlimit="10"/>
<path d="M44.9033 26.3386L52.125 19.1338" stroke="#1C1C26" stroke-width="2" stroke-miterlimit="10"/>
<path d="M57.8091 22.4155L53.6427 31.3844" stroke="#1C1C26" stroke-width="2" stroke-miterlimit="10"/>
<path d="M52.0356 10.5143C53.0474 9.93008 54.6743 9.93008 55.6861 10.5143C56.6979 11.0984 56.6979 12.0377 55.6861 12.6219L48.1073 16.9975C47.0955 17.5817 45.4687 17.5817 44.4568 16.9975C43.4549 16.419 43.445 15.474 44.4568 14.8899L52.0356 10.5143Z" fill="#1C1C26"/>
<path d="M57.7202 13.796C58.732 13.2118 60.3588 13.2118 61.3707 13.796C62.3825 14.3802 62.3825 15.3194 61.3707 15.9036L53.7919 20.2792C52.7801 20.8634 51.1532 20.8634 50.1414 20.2792C49.1395 19.7008 49.1296 18.7558 50.1414 18.1716L57.7202 13.796V13.796Z" fill="#1C1C26"/>
<path d="M63.4036 17.0781C64.3857 16.4882 66.0225 16.4596 67.0442 17.0266C68.0659 17.5936 68.1156 18.5386 67.1335 19.1285C67.1037 19.1456 67.074 19.1628 67.0442 19.18L59.4654 23.5556C58.4834 24.1455 56.8466 24.1742 55.8249 23.6072C54.8031 23.0402 54.7535 22.0952 55.7356 21.5053C55.7653 21.4881 55.7951 21.4709 55.8249 21.4537L63.4036 17.0781Z" fill="#1C1C26"/>
<path d="M46.352 7.23252C47.3638 6.64834 48.9907 6.64834 50.0025 7.23252C51.0143 7.8167 51.0143 8.75596 50.0025 9.34014L42.4237 13.7157C41.4119 14.2999 39.7851 14.2999 38.7732 13.7157C37.7614 13.1316 37.7614 12.1923 38.7732 11.6081L46.352 7.23252Z" fill="#1C1C26"/>
<path d="M69.0878 20.3595C70.0997 19.7753 71.7265 19.7753 72.7383 20.3595C73.7502 20.9436 73.7402 21.8886 72.7383 22.4671L65.1596 26.8427C64.1477 27.4269 62.5209 27.4269 61.5091 26.8427C60.4972 26.2585 60.4972 25.3193 61.5091 24.7351L69.0878 20.3595V20.3595Z" fill="#1C1C26"/>
<path d="M40.0551 25.3651C40.6204 25.6915 41.5369 25.6915 42.1022 25.3652C42.6675 25.0388 42.6675 24.5096 42.1022 24.1832C41.5369 23.8569 40.6203 23.8569 40.055 24.1832C39.4897 24.5096 39.4898 25.0388 40.0551 25.3651Z" fill="#E6007A"/>
<path d="M28.2513 18.5502C28.8166 18.8766 29.7332 18.8766 30.2985 18.5502C30.8638 18.2238 30.8638 17.6947 30.2985 17.3683C29.7332 17.0419 28.8166 17.0419 28.2513 17.3683C27.686 17.6947 27.686 18.2238 28.2513 18.5502Z" fill="#E6007A"/>
<path d="M36.8275 27.2284C37.3928 27.5548 38.3093 27.5548 38.8746 27.2284C39.44 26.9021 39.4399 26.3729 38.8746 26.0465C38.3093 25.7201 37.3928 25.7201 36.8275 26.0465C36.2622 26.3729 36.2622 26.9021 36.8275 27.2284Z" fill="#E6007A"/>
<path d="M25.0238 20.4135C25.5891 20.7399 26.5056 20.7399 27.0709 20.4135C27.6362 20.0871 27.6362 19.558 27.0709 19.2316C26.5056 18.9052 25.5891 18.9052 25.0238 19.2316C24.4585 19.558 24.4585 20.0871 25.0238 20.4135Z" fill="#E6007A"/>
<path d="M33.6805 21.6845C34.2458 22.0109 35.1624 22.0109 35.7277 21.6845C36.293 21.3581 36.293 20.829 35.7277 20.5026C35.1624 20.1762 34.2458 20.1762 33.6805 20.5026C33.1152 20.829 33.1152 21.3581 33.6805 21.6845Z" fill="#E6007A"/>
<path d="M31.0062 20.1405C31.5715 20.4669 32.4881 20.4669 33.0534 20.1405C33.6187 19.8142 33.6187 19.285 33.0534 18.9586C32.488 18.6323 31.5715 18.6323 31.0062 18.9586C30.4409 19.285 30.4409 19.8142 31.0062 20.1405Z" fill="#E6007A"/>
<path d="M36.514 23.3207C37.0793 23.6471 37.9959 23.6471 38.5612 23.3207C39.1265 22.9943 39.1265 22.4652 38.5612 22.1388C37.9959 21.8124 37.0793 21.8124 36.514 22.1388C35.9487 22.4652 35.9487 22.9943 36.514 23.3207Z" fill="#E6007A"/>
<path d="M30.453 23.5478C31.0183 23.8742 31.9348 23.8742 32.5001 23.5478C33.0654 23.2214 33.0654 22.6922 32.5001 22.3659C31.9348 22.0395 31.0183 22.0395 30.453 22.3659C29.8877 22.6922 29.8877 23.2214 30.453 23.5478Z" fill="#E6007A"/>
<path d="M27.7787 22.0043C28.344 22.3307 29.2605 22.3307 29.8258 22.0043C30.3911 21.6779 30.3911 21.1488 29.8258 20.8224C29.2605 20.496 28.344 20.496 27.7787 20.8224C27.2134 21.1488 27.2134 21.6779 27.7787 22.0043Z" fill="#E6007A"/>
<path d="M33.287 25.1845C33.8523 25.5109 34.7688 25.5109 35.3341 25.1845C35.8994 24.8581 35.8994 24.329 35.3341 24.0026C34.7688 23.6762 33.8523 23.6762 33.287 24.0026C32.7217 24.329 32.7217 24.8581 33.287 25.1845Z" fill="#E6007A"/>
<path d="M49.4183 30.7709C49.9836 31.0973 50.9002 31.0973 51.4655 30.7709C52.0308 30.4445 52.0308 29.9154 51.4655 29.589C50.9002 29.2626 49.9836 29.2626 49.4183 29.589C48.853 29.9154 48.853 30.4445 49.4183 30.7709Z" fill="#E6007A"/>
<path d="M46.744 29.227C47.3093 29.5533 48.2259 29.5533 48.7912 29.227C49.3565 28.9006 49.3564 28.3714 48.7911 28.0451C48.2258 27.7187 47.3093 27.7187 46.744 28.0451C46.1787 28.3714 46.1787 28.9006 46.744 29.227Z" fill="#E6007A"/>
<path d="M43.9901 27.6366C44.5554 27.963 45.4719 27.963 46.0372 27.6366C46.6025 27.3103 46.6025 26.7811 46.0372 26.4547C45.4719 26.1283 44.5554 26.1284 43.9901 26.4547C43.4248 26.7811 43.4248 27.3103 43.9901 27.6366Z" fill="#E6007A"/>
<path d="M52.2523 32.4071C52.8176 32.7335 53.7342 32.7335 54.2995 32.4072C54.8648 32.0808 54.8648 31.5516 54.2995 31.2252C53.7341 30.8989 52.8176 30.8989 52.2523 31.2252C51.687 31.5516 51.687 32.0808 52.2523 32.4071Z" fill="#E6007A"/>
<path d="M46.1908 32.6342C46.7561 32.9606 47.6726 32.9606 48.2379 32.6342C48.8032 32.3078 48.8032 31.7787 48.2379 31.4523C47.6726 31.1259 46.7561 31.1259 46.1908 31.4523C45.6255 31.7787 45.6255 32.3078 46.1908 32.6342Z" fill="#E6007A"/>
<path d="M43.517 31.0903C44.0823 31.4166 44.9988 31.4166 45.5641 31.0903C46.1294 30.7639 46.1294 30.2347 45.5641 29.9083C44.9988 29.582 44.0823 29.582 43.517 29.9083C42.9517 30.2347 42.9517 30.7639 43.517 31.0903Z" fill="#E6007A"/>
<path d="M40.7626 29.5004C41.3279 29.8268 42.2444 29.8268 42.8097 29.5004C43.375 29.174 43.375 28.6449 42.8097 28.3185C42.2444 27.9921 41.3279 27.9921 40.7626 28.3185C40.1973 28.6449 40.1973 29.174 40.7626 29.5004Z" fill="#E6007A"/>
<path d="M49.0248 34.2704C49.5901 34.5968 50.5066 34.5968 51.0719 34.2704C51.6372 33.9441 51.6372 33.4149 51.0719 33.0885C50.5066 32.7621 49.5901 32.7621 49.0248 33.0885C48.4595 33.4149 48.4595 33.9441 49.0248 34.2704Z" fill="#E6007A"/>
</g>
<defs>
<linearGradient id="paint0_linear_1208_1228" x1="5.3873" y1="32.749" x2="0.000248883" y2="86.9971" gradientUnits="userSpaceOnUse">
<stop/>
<stop offset="1" stop-opacity="0"/>
</linearGradient>
<linearGradient id="paint1_linear_1208_1228" x1="25.2457" y1="35.1763" x2="23.2957" y2="118.719" gradientUnits="userSpaceOnUse">
<stop stop-color="white"/>
<stop offset="1" stop-color="white" stop-opacity="0"/>
</linearGradient>
<linearGradient id="paint2_linear_1208_1228" x1="44.6062" y1="60.8633" x2="50.3551" y2="-17.1151" gradientUnits="userSpaceOnUse">
<stop offset="0.104167" stop-color="#E6007A"/>
<stop offset="0.963542" stop-color="white"/>
</linearGradient>
</defs>
</svg>
