<svg width="101" height="135" viewBox="0 0 101 135" fill="none" xmlns="http://www.w3.org/2000/svg">
<mask id="mask0_1208_1081" style="mask-type:alpha" maskUnits="userSpaceOnUse" x="0" y="0" width="101" height="135">
<rect y="0.998535" width="101" height="133.5" fill="#C4C4C4"/>
</mask>
<g mask="url(#mask0_1208_1081)">
<path opacity="0.1" d="M0.115234 43.1763L0.115234 147.497C39.3714 147.497 61.3808 147.497 100.637 147.497V43.1763L50.3761 72.196L0.115234 43.1763Z" fill="url(#paint0_linear_1208_1081)"/>
<path opacity="0.3" d="M0.115234 43.1763L0.115234 130.743H50.3761V72.196L0.115234 43.1763Z" fill="url(#paint1_linear_1208_1081)"/>
<path d="M0 43.1099L50.4245 13.9973L100.849 43.1099L50.4245 72.2224L0 43.1099Z" fill="url(#paint2_linear_1208_1081)"/>
<path opacity="0.2" fill-rule="evenodd" clip-rule="evenodd" d="M65 62.9971C64.8143 62.9971 64.6209 62.946 64.4331 62.8379L21.7555 37.6867C21.2466 37.3941 20.9283 36.7713 20.9273 36.1556C20.9269 35.987 20.9502 35.819 20.9998 35.6585L32.3881 5.83496C32.5522 5.30406 32.9592 4.99707 33.4136 4.99707C33.599 4.99707 33.7924 5.04812 33.9805 5.1562C41.767 15.8986 70.4999 55.4971 71.9999 57.9971C72.0003 58.1661 71.977 58.3336 71.9271 58.4942C70.6138 59.2853 66.3982 62.9971 65 62.9971Z" fill="#1C1C26"/>
<path d="M65.2862 59.9461C65.4805 60.0585 65.6809 60.1114 65.8728 60.1114C65.9933 60.1114 66.111 60.0904 66.2216 60.0497C66.5424 59.9324 66.8076 59.6505 66.9337 59.2403L76.584 27.908C76.8229 27.1312 76.4726 26.187 75.8016 25.8L33.1294 1.16273C32.9347 1.05031 32.7347 0.99707 32.5428 0.99707C32.4342 0.99707 32.3284 1.01423 32.2275 1.04716C31.8917 1.15678 31.6122 1.44362 31.4819 1.8681L24.8975 23.2461L24.7917 23.5889L21.8315 33.2008C21.6039 33.9405 21.9103 34.8315 22.5194 35.2493C22.5499 35.2703 22.5814 35.2903 22.6136 35.3088L65.2378 59.918L65.2862 59.9461Z" fill="#E3E9F0"/>
<path fill-rule="evenodd" clip-rule="evenodd" d="M65.7005 59.6012C65.5148 59.6012 65.3214 59.5501 65.1336 59.4421L23.3409 35.4014C22.832 35.1088 22.5138 34.486 22.5127 33.8703C22.5123 33.7017 22.5357 33.5337 22.5852 33.3732L31.9008 3.26416C32.0649 2.73326 32.472 2.42627 32.9264 2.42627C33.1117 2.42627 33.3051 2.47732 33.4933 2.5854L75.2859 26.6264C75.7948 26.9186 76.1128 27.5418 76.1142 28.1572C76.1145 28.3262 76.0912 28.4937 76.0413 28.6543L66.7257 58.7633C66.5619 59.2942 66.1549 59.6012 65.7005 59.6012Z" fill="white"/>
<path fill-rule="evenodd" clip-rule="evenodd" d="M58.9669 49.8118C58.8408 49.8118 58.7095 49.7768 58.5817 49.7029L30.5626 33.5266C30.1223 33.272 29.8922 32.6524 30.0495 32.1421L36.3852 11.569C36.4969 11.2069 36.7733 10.9971 37.0822 10.9971C37.2083 10.9971 37.3396 11.0321 37.4674 11.1056L39.7545 12.426L65.4862 27.283C65.9268 27.5369 66.1569 28.1568 66 28.6671L60.0807 47.8862L59.6635 49.2399C59.5522 49.602 59.2758 49.8118 58.9669 49.8118ZM56.019 24.5399C55.7914 24.5399 55.5875 24.6947 55.5052 24.962L50.8327 40.1317C50.7172 40.5078 50.887 40.9652 51.2113 41.1526L57.9187 45.0097C58.0129 45.064 58.1099 45.0899 58.2027 45.0899C58.4304 45.0899 58.6342 44.9355 58.7162 44.6682L63.3886 29.4982C63.5042 29.122 63.3351 28.665 63.01 28.4773L56.3027 24.6201C56.2088 24.5658 56.1118 24.5399 56.019 24.5399Z" fill="#E3E9F0"/>
<path fill-rule="evenodd" clip-rule="evenodd" d="M58.3027 45.5554C58.2099 45.5554 58.1129 45.5295 58.0187 45.4752L51.3114 41.618C50.987 41.4307 50.8172 40.9733 50.9328 40.5971L55.6052 25.4274C55.6875 25.1602 55.8914 25.0054 56.119 25.0054C56.2118 25.0054 56.3089 25.0313 56.4027 25.0856L63.1101 28.9427C63.4351 29.1304 63.6042 29.5875 63.4887 29.9636L58.8162 45.1337C58.7342 45.4009 58.5304 45.5554 58.3027 45.5554Z" fill="#8BA1BE" fill-opacity="0.2"/>
<path d="M65.752 27.7487L37.7332 11.5713C37.4569 11.412 37.1637 11.4344 36.9448 11.5983C37.0769 11.5945 37.2149 11.6246 37.3497 11.702L65.3684 27.8789C65.8087 28.1329 66.0388 28.7531 65.8819 29.2631L59.5458 49.8358C59.487 50.0264 59.3826 50.1745 59.2519 50.2722C59.5524 50.2635 59.8204 50.06 59.9293 49.7056L66.2657 29.1328C66.4226 28.6225 66.1925 28.0026 65.752 27.7487Z" fill="white"/>
<path fill-rule="evenodd" clip-rule="evenodd" d="M40.1222 35.4666L33.4152 31.6098C33.0906 31.4221 32.9207 30.965 33.0363 30.5889L37.7087 15.4185C37.8243 15.0423 38.1819 14.8896 38.5066 15.0774L45.2136 18.9341C45.5386 19.1219 45.7081 19.5789 45.5922 19.9551L40.92 35.1251C40.8041 35.5013 40.4472 35.6543 40.1222 35.4666Z" fill="#E6007A"/>
<path fill-rule="evenodd" clip-rule="evenodd" d="M49.1222 40.4666L42.4152 36.6098C42.0906 36.4221 41.9207 35.965 42.0363 35.5889L46.7087 20.4185C46.8243 20.0423 47.1819 19.8896 47.5066 20.0774L54.2136 23.9341C54.5386 24.1219 54.7081 24.5789 54.5922 24.9551L49.92 40.1251C49.8041 40.5013 49.4472 40.6543 49.1222 40.4666Z" fill="white"/>
</g>
<defs>
<linearGradient id="paint0_linear_1208_1081" x1="5.3873" y1="40.749" x2="0.00024892" y2="94.9971" gradientUnits="userSpaceOnUse">
<stop/>
<stop offset="1" stop-opacity="0"/>
</linearGradient>
<linearGradient id="paint1_linear_1208_1081" x1="25.2457" y1="43.1763" x2="23.2957" y2="126.719" gradientUnits="userSpaceOnUse">
<stop stop-color="white"/>
<stop offset="1" stop-color="white" stop-opacity="0"/>
</linearGradient>
<linearGradient id="paint2_linear_1208_1081" x1="44.6062" y1="68.8633" x2="50.3551" y2="-9.11514" gradientUnits="userSpaceOnUse">
<stop offset="0.104167" stop-color="#E6007A"/>
<stop offset="0.963542" stop-color="white"/>
</linearGradient>
</defs>
</svg>
