<svg width="101" height="135" viewBox="0 0 101 135" fill="none" xmlns="http://www.w3.org/2000/svg">
<mask id="mask0_1208_1067" style="mask-type:alpha" maskUnits="userSpaceOnUse" x="0" y="0" width="101" height="135">
<rect y="0.998535" width="101" height="133.5" fill="#C4C4C4"/>
</mask>
<g mask="url(#mask0_1208_1067)">
<path opacity="0.1" d="M0.115234 31.1763L0.115234 135.497C39.3714 135.497 61.3808 135.497 100.637 135.497V31.1763L50.3761 60.196L0.115234 31.1763Z" fill="url(#paint0_linear_1208_1067)"/>
<path opacity="0.3" d="M0.115234 31.1763L0.115234 118.743H50.3761V60.196L0.115234 31.1763Z" fill="url(#paint1_linear_1208_1067)"/>
<path d="M0 31.1099L50.4245 1.99729L100.849 31.1099L50.4245 60.2224L0 31.1099Z" fill="url(#paint2_linear_1208_1067)"/>
<path opacity="0.5" d="M67.5 34.4971C61 31.7419 59.2892 35.9036 43.9799 35.4971C43.9799 35.4971 29.8482 11.623 29.0627 31.7419C29.0627 31.7419 26.5199 44.1788 53.8214 43.9951C81.1229 43.8114 73 35.4971 67.5 34.4971Z" fill="#1C1C26"/>
<path d="M35.9058 6.26466C35.9058 6.26466 38.1423 9.41553 40.1965 9.45911C42.2507 9.50268 45.3688 7.99878 45.3688 7.99878C45.3688 7.99878 47.2529 3.79941 45.975 2.15629C45.5372 2.00027 45.0668 1.95802 44.6082 2.03349C44.1495 2.10897 43.7176 2.2997 43.3528 2.58779C43.0956 2.78058 42.8625 3.00367 42.6587 3.25222C42.3815 3.59872 42.0059 3.8532 41.5813 3.98218C40.1159 4.42757 38.3807 3.37985 37.7293 4.39133C37.4105 4.88448 37.0299 5.33481 36.5968 5.73135C36.3819 5.92823 36.1507 6.10663 35.9058 6.26466V6.26466Z" fill="white"/>
<path d="M65.0881 28.9956C62.7979 21.3596 57.176 9.82465 42.9348 9.45947C42.9348 9.45947 29.7891 10.9202 29.0583 28.9956C29.0583 28.9956 26.6929 40.1693 52.0897 40.0042C77.4865 39.8392 67.3767 36.632 65.0881 28.9956Z" fill="white"/>
<path d="M46.8361 10.0454C46.8361 10.0454 41.1289 11.3148 39.3667 10.569C39.3667 10.569 39.1006 8.18167 41.5045 8.51677C43.1499 8.74583 44.2212 7.95493 44.8521 7.63448C45.7444 7.18022 47.0732 9.04661 46.8361 10.0454Z" fill="#E6007A"/>
<path d="M41.8672 6.44705C42.2323 6.72045 43.3537 2.5874 43.3537 2.5874C43.0965 2.78018 42.8634 3.00326 42.6596 3.25182C42.3824 3.59832 42.0068 3.85281 41.5822 3.98179C41.5803 4.10249 41.5147 6.18136 41.8672 6.44705Z" fill="#E3E9F0"/>
<path d="M36.5996 5.73102C36.6802 5.77884 39.3205 7.35987 39.6776 7.35987C40.0428 7.35987 37.7318 4.39062 37.7318 4.39062C37.4131 4.88389 37.0326 5.33434 36.5996 5.73102V5.73102Z" fill="#E3E9F0"/>
<path d="M57.3585 23.6399C57.5046 23.515 51.7593 15.1806 50.1771 15.1177C48.595 15.0549 45.0396 16.9429 42.4648 17.1866C39.89 17.4303 37.3959 16.6995 36.9088 18.2212C36.4218 19.7428 35.0829 25.1372 35.9062 26.0002C36.7295 26.8633 54.1999 26.3388 57.3585 23.6399Z" fill="#E3E9F0"/>
</g>
<defs>
<linearGradient id="paint0_linear_1208_1067" x1="5.3873" y1="28.749" x2="0.00024892" y2="82.9971" gradientUnits="userSpaceOnUse">
<stop/>
<stop offset="1" stop-opacity="0"/>
</linearGradient>
<linearGradient id="paint1_linear_1208_1067" x1="25.2457" y1="31.1763" x2="23.2957" y2="114.719" gradientUnits="userSpaceOnUse">
<stop stop-color="white"/>
<stop offset="1" stop-color="white" stop-opacity="0"/>
</linearGradient>
<linearGradient id="paint2_linear_1208_1067" x1="44.6062" y1="56.8633" x2="50.3551" y2="-21.1151" gradientUnits="userSpaceOnUse">
<stop offset="0.104167" stop-color="#E6007A"/>
<stop offset="0.963542" stop-color="white"/>
</linearGradient>
</defs>
</svg>
