<svg width="14" height="19" viewBox="0 0 14 19" fill="none" xmlns="http://www.w3.org/2000/svg">
<path d="M7.09058 0.0769348C3.32972 0.0927466 0.284638 3.27995 0.269531 7.21634C0.269531 8.00467 0.391104 8.78773 0.629215 9.5354C0.806899 10.0444 1.3342 10.3185 1.82912 10.1611C2.3075 9.9691 2.56144 9.42171 2.40893 8.90971C2.20679 8.32693 2.11687 7.70876 2.14349 7.08984C2.22549 4.24673 4.49366 2.01124 7.21 2.09708C9.92633 2.18292 12.0621 4.55694 11.9801 7.40005C11.9032 10.0617 9.90043 12.2234 7.36034 12.3853C7.36034 12.3853 6.40286 12.4463 5.92664 12.5073C5.75112 12.5336 5.57703 12.5698 5.4051 12.6157C5.38064 12.642 5.34108 12.642 5.3159 12.6164L5.31518 12.6157C5.29792 12.5923 5.29792 12.5592 5.31518 12.5359L5.46337 11.6896L6.36258 7.45653C6.47049 6.92796 6.14893 6.40768 5.64393 6.29473C5.13893 6.18179 4.64185 6.51836 4.53395 7.04693C4.53395 7.04693 2.39526 17.4082 2.39526 17.5023C2.27297 18.006 2.5636 18.518 3.04485 18.646C3.04989 18.6475 3.05564 18.649 3.06068 18.6498H3.11032C3.59085 18.78 4.08146 18.4773 4.20519 17.9744C4.20735 17.9661 4.20951 17.9578 4.21095 17.9488C4.20951 17.933 4.20951 17.9172 4.21095 17.9021C4.23757 17.7801 4.50733 16.4015 4.50733 16.4015C4.71163 15.3609 5.51301 14.5636 6.51581 14.4024C6.72226 14.3693 7.58982 14.3083 7.58982 14.3083C11.3363 13.9175 14.0706 10.4216 13.6965 6.50029C13.3556 2.92381 10.5248 0.1703 7.09058 0.0769348Z"/>
<path d="M7.50418 16.5385C6.88912 16.4044 6.28772 16.8178 6.15968 17.4608C6.15824 17.4669 6.15752 17.4729 6.15608 17.4789C6.023 18.1181 6.41002 18.7499 7.02148 18.8892C7.0222 18.8892 7.02292 18.8892 7.02364 18.8899H7.05529C7.6538 19.0413 8.25592 18.6557 8.39979 18.0301C8.40123 18.0255 8.40195 18.0203 8.40339 18.0157V17.9502C8.50913 17.3042 8.11492 16.6845 7.50418 16.5385Z" fill="#E6007A"/>
</svg>
