<svg width="24" height="24" viewBox="0 0 24 24" fill="none" xmlns="http://www.w3.org/2000/svg">
<path fill-rule="evenodd" clip-rule="evenodd" d="M9.25 15.5C8.55964 15.5 8 14.9404 8 14.25C8 13.5596 8.55964 13 9.25 13C9.94036 13 10.5 13.5596 10.5 14.25C10.5 14.9404 9.94036 15.5 9.25 15.5ZM14.75 15.5C14.0596 15.5 13.5 14.9404 13.5 14.25C13.5 13.5596 14.0596 13 14.75 13C15.4404 13 16 13.5596 16 14.25C16 14.9404 15.4404 15.5 14.75 15.5ZM8.61861 18.2465C8.1695 18.0336 7.97807 17.4968 8.19105 17.0477C8.40403 16.5986 8.94077 16.4072 9.38988 16.6201C10.1982 17.0035 11.0839 17.205 12 17.205C12.9183 17.205 13.806 17.0025 14.6159 16.6174C15.0647 16.404 15.6017 16.5948 15.8151 17.0437C16.0286 17.4926 15.8377 18.0296 15.3888 18.243C14.3387 18.7423 13.1871 19.005 12 19.005C10.8157 19.005 9.66673 18.7436 8.61861 18.2465Z" fill="white" fill-opacity="0.5"/>
<path fill-rule="evenodd" clip-rule="evenodd" d="M15.6667 5.9413L13.7614 5.3069L13.0139 9.04022C14.1869 9.13392 15.297 9.38862 16.2959 9.77573C16.9079 9.28205 17.6789 9 18.4961 9C20.4313 9 22 10.567 22 12.5C22 13.453 21.6156 14.3292 20.9821 14.9669C21.0012 15.1423 21.011 15.3201 21.011 15.5C21.011 19.1869 16.9146 22 12.001 22C7.08746 22 2.99109 19.1869 2.99109 15.5C2.99109 15.3208 3.00077 15.1436 3.01976 14.9687C2.38524 14.331 2 13.4541 2 12.5C2 10.567 3.56873 9 5.50387 9C6.32144 9 7.09269 9.28229 7.70478 9.77627C8.70756 9.3875 9.82243 9.13218 11.0005 9.03924C10.9975 8.96195 11.0035 8.88307 11.0194 8.80388L11.7981 4.91467C12.0149 3.83155 13.0697 3.12912 14.1541 3.34574C14.2355 3.362 14.3158 3.38331 14.3946 3.40953L15.2956 3.70956C15.7786 2.69856 16.8115 2 18.0077 2C19.6663 2 21.011 3.34315 21.011 5C21.011 6.65685 19.6663 8 18.0077 8C17.4548 8 17.0066 7.55228 17.0066 7C17.0066 6.44772 17.4548 6 18.0077 6C18.5606 6 19.0088 5.55228 19.0088 5C19.0088 4.44772 18.5606 4 18.0077 4C17.4603 4 17.0156 4.43878 17.0067 4.98341C17.0077 5.04193 17.0035 5.10106 16.9938 5.16021C16.9923 5.16935 16.9907 5.17845 16.989 5.18751C16.9806 5.23053 16.9694 5.27352 16.9552 5.31623C16.9351 5.37641 16.9098 5.43342 16.8801 5.48692C16.8084 5.61505 16.7094 5.72582 16.5909 5.8113C16.4722 5.89659 16.3357 5.95542 16.1913 5.9828C16.1311 5.99409 16.069 6 16.0055 6C15.9509 6 15.8973 5.99564 15.8451 5.98724C15.836 5.98575 15.8269 5.98413 15.8178 5.98238C15.7659 5.97262 15.7154 5.95879 15.6667 5.9413ZM4.00221 12.5C4.00221 12.9329 4.1875 13.329 4.48829 13.6054C4.63382 13.7391 4.80638 13.8448 4.99808 13.9131C5.2058 13.9872 5.31412 14.2154 5.24002 14.4229C5.23972 14.4237 5.23943 14.4245 5.23913 14.4253C5.07524 14.8748 4.9933 15.233 4.9933 15.5C4.9933 17.8883 8.06829 20 12.001 20C15.9338 20 19.0088 17.8883 19.0088 15.5C19.0088 15.2344 18.9277 14.8785 18.7655 14.4323L18.7655 14.4323C18.6886 14.2208 18.798 13.9871 19.0097 13.9104C19.0097 13.9104 19.0097 13.9103 19.0097 13.9103C19.5936 13.6986 19.9978 13.1393 19.9978 12.5C19.9978 11.6756 19.332 11.0065 18.5082 11C18.1249 11 17.7751 11.1435 17.5098 11.3796C17.4017 11.4757 17.3005 11.6276 17.2062 11.8353L17.2062 11.8353C17.0909 12.089 16.7916 12.2014 16.5376 12.0862C16.5261 12.0811 16.5149 12.0754 16.5038 12.0694C15.2946 11.4085 13.7308 11 12.001 11C10.2691 11 8.70359 11.4095 7.49375 12.0719C7.2517 12.2044 6.94794 12.1158 6.81528 11.874C6.80908 11.8627 6.80332 11.8512 6.79802 11.8395C6.70355 11.6305 6.6022 11.4776 6.49393 11.381C6.22838 11.1441 5.87796 11 5.49385 11C4.66912 11.0054 4.00221 11.6749 4.00221 12.5Z" fill="white"/>
</svg>
