<svg width="51" height="40" viewBox="0 0 51 40" fill="none" xmlns="http://www.w3.org/2000/svg">
<g opacity="0.5">
<mask id="mask0" mask-type="alpha" maskUnits="userSpaceOnUse" x="8" y="0" width="29" height="41">
<path d="M9.24902 1.19995H35.499V17.1069C35.499 17.1069 31.4937 16.8192 29.374 17.9906C27.6783 18.9277 25.874 21.5254 25.874 21.5254V39.1998L12.749 36.5486L21.499 25.944V14.4557L12.749 10.9208L9.24902 11.8046V1.19995Z" fill="white" stroke="white" stroke-width="2.14286"/>
</mask>
<g mask="url(#mask0)">
<path d="M22.5913 12.7419C25.5542 12.7419 28.3066 12.3114 30.3758 11.565C31.4036 11.1943 32.3488 10.7151 33.0673 10.1023C33.7797 9.49477 34.4362 8.60186 34.4362 7.44203C34.4362 6.2822 33.7797 5.38929 33.0673 4.78178C32.3488 4.16899 31.4036 3.68978 30.3758 3.31905C28.3066 2.57269 25.5542 2.14212 22.5913 2.14212C19.6284 2.14212 16.876 2.57269 14.8068 3.31905C13.779 3.68978 12.8338 4.16899 12.1152 4.78178C11.4028 5.38929 10.7464 6.2822 10.7464 7.44203C10.7464 8.60186 11.4028 9.49477 12.1152 10.1023C12.8338 10.7151 13.779 11.1943 14.8068 11.565C16.876 12.3114 19.6284 12.7419 22.5913 12.7419Z" stroke="white" stroke-width="3.21429"/>
<path d="M33.719 10.8046V10.8244V10.8444V10.8643V10.8844V10.9044V10.9244V10.9445V10.9646V10.9847V11.0048V11.025V11.0451V11.0653V11.0855V11.1057V11.1259V11.1461V11.1664V11.1866V11.2069V11.2272V11.2475V11.2678V11.2881V11.3085V11.3288V11.3492V11.3695V11.3899V11.4103V11.4307V11.4511V11.4715V11.492V11.5124V11.5328V11.5533V11.5737V11.5942V11.6147V11.6351V11.6556V11.6761V11.6966V11.7171V11.7376V11.7581V11.7786V11.7991V11.8196V11.8401V11.8606V11.8811V11.9017V11.9222V11.9427V11.9632V11.9837V12.0042V12.0247V12.0453V12.0658V12.0863V12.1068V12.1273V12.1478V12.1683V12.1888V12.2093V12.2297V12.2502V12.2707V12.2912V12.3116V12.3321V12.3525V12.3729V12.3934V12.4138V12.4342V12.4546V12.475V12.4954V12.5158V12.5361V12.5565V12.5768V12.5971V12.6175V12.6378V12.6581V12.6783V12.6986V12.7189V12.7391V12.7593V12.7795V12.7997V12.8199V12.8401V12.8602V12.8803V12.9004V12.9205V12.9406V12.9607V12.9807V13.0007V13.0207V13.0407V13.0607V13.0806V13.1005V13.1204V13.1403V13.1601V13.18V13.1998V13.2196V13.2393V13.2591V13.2788V13.2985V13.3181V13.3378V13.3574V13.377V13.3965V13.4161V13.4356V13.4551V13.4745V13.4939V13.5133V13.5327V13.552V13.5714V13.5906V13.6099V13.6291V13.6483V13.6674V13.6865V13.7056V13.7247V13.7437V13.7627V13.7817V13.8006V13.8195V13.8383V13.8571V13.8759V13.8947V13.9134V13.932V13.9507V13.9693V13.9878V14.0063V14.0248V14.0433V14.0617V14.08V14.0984V14.1166V14.1349V14.1531V14.1712V14.1894V14.2074V14.2255V14.2434V14.2614V14.2793V14.2972V14.315V14.3327V14.3505V14.3681V14.3858V14.4033V14.4209V14.4384V14.4558V14.4732V14.4906V14.5079V14.5251V14.5423V14.5594V14.5765V14.5936V14.6106V14.6275V14.6444V14.6613V14.6781V14.6948V14.7115V14.7281V14.7447V14.7612V14.7777V14.7941V14.8105V14.8268V14.843V14.8592V14.8753V14.8914V14.9074V14.9234V14.9393V14.9551V14.9709V14.9866V15.0023V15.0179V15.0335V15.0489V15.0644V15.0797V15.095V15.1103V15.1254V15.1405V15.1556V15.1706V15.1855V15.2003V15.2151V15.2299V15.2445V15.2591L33.719 15.2594C33.7191 15.2642 33.7194 15.3009 33.6734 15.3836C33.6216 15.4765 33.5148 15.6188 33.3098 15.7968C32.89 16.1613 32.1893 16.5626 31.1842 16.9317C29.1868 17.6653 26.3204 18.1509 23.0762 18.1509C19.8319 18.1509 16.9656 17.6653 14.9682 16.9317C13.9631 16.5626 13.2623 16.1613 12.8425 15.7968C12.6376 15.6188 12.5308 15.4765 12.479 15.3836C12.4329 15.3009 12.4333 15.2642 12.4333 15.2594L12.4333 15.2591V15.2513V15.2434V15.2354V15.2273V15.219V15.2106V15.2021V15.1935V15.1848V15.176V15.167V15.158V15.1488V15.1395V15.1301V15.1206V15.111V15.1012V15.0914V15.0814V15.0713V15.0612V15.0509V15.0405V15.03V15.0194V15.0087V14.9978V14.9869V14.9759V14.9648V14.9535V14.9422V14.9307V14.9192V14.9076V14.8958V14.884V14.872V14.86V14.8478V14.8356V14.8233V14.8108V14.7983V14.7857V14.7729V14.7601V14.7472V14.7342V14.7211V14.7079V14.6946V14.6812V14.6677V14.6542V14.6405V14.6268V14.613V14.599V14.585V14.5709V14.5567V14.5425V14.5281V14.5137V14.4991V14.4845V14.4698V14.4551V14.4402V14.4253V14.4102V14.3951V14.3799V14.3647V14.3493V14.3339V14.3184V14.3028V14.2871V14.2714V14.2556V14.2397V14.2237V14.2077V14.1915V14.1753V14.1591V14.1427V14.1263V14.1099V14.0933V14.0767V14.06V14.0432V14.0264V14.0095V13.9925V13.9755V13.9584V13.9412V13.9239V13.9066V13.8893V13.8718V13.8543V13.8368V13.8191V13.8015V13.7837V13.7659V13.748V13.7301V13.7121V13.6941V13.6759V13.6578V13.6395V13.6213V13.6029V13.5845V13.5661V13.5476V13.529V13.5104V13.4917V13.473V13.4542V13.4354V13.4165V13.3976V13.3786V13.3596V13.3405V13.3214V13.3022V13.283V13.2637V13.2444V13.2251V13.2057V13.1862V13.1667V13.1472V13.1276V13.108V13.0883V13.0686V13.0488V13.029V13.0092V12.9893V12.9694V12.9495V12.9295V12.9095V12.8894V12.8693V12.8492V12.829V12.8088V12.7885V12.7683V12.748V12.7276V12.7072V12.6868V12.6664V12.6459V12.6254V12.6049V12.5843V12.5638V12.5431V12.5225V12.5018V12.4811V12.4604V12.4397V12.4189V12.3981V12.3773V12.3564V12.3356V12.3147V12.2938V12.2728V12.2519V12.2309V12.2099V12.1889V12.1679V12.1468V12.1258V12.1047V12.0836V12.0625V12.0413V12.0202V11.999V11.9779V11.9567V11.9355V11.9143V11.893V11.8718V11.8506V11.8293V11.808V11.7868V11.7655V11.7442V11.7229V11.7016V11.6803V11.6589V11.6376V11.6163V11.5949V11.5736V11.5523V11.5309V11.5096V11.4882V11.4669V11.4455V11.4242V11.4028V11.3815V11.3601V11.3388V11.3174V11.2961V11.2748V11.2534V11.2321V11.2108V11.1894V11.1681V11.1468V11.1255V11.1042V11.083V11.0617V11.0404V11.0192V10.9979V10.9767V10.9555V10.9343V10.9131V10.8919V10.8707V10.8495V10.8284V10.8073V10.8046C12.5538 10.8788 12.6783 10.9532 12.8069 11.0274C14.9974 12.2916 18.3366 13.4921 23.0762 13.4921C27.8158 13.4921 31.1549 12.2916 33.3454 11.0274C33.4741 10.9532 33.5986 10.8788 33.719 10.8046Z" stroke="white" stroke-width="3.21429"/>
<path d="M33.6219 15.3066V15.3159V15.3342V15.3526V15.371V15.3894V15.4078V15.4262V15.4447V15.4632V15.4818V15.5003V15.5189V15.5376V15.5562V15.5749V15.5936V15.6123V15.6311V15.6498V15.6686V15.6874V15.7063V15.7251V15.744V15.7629V15.7819V15.8008V15.8198V15.8388V15.8578V15.8769V15.8959V15.915V15.9341V15.9532V15.9723V15.9915V16.0106V16.0298V16.049V16.0683V16.0875V16.1067V16.126V16.1453V16.1646V16.1839V16.2032V16.2226V16.2419V16.2613V16.2806V16.3V16.3194V16.3388V16.3583V16.3777V16.3971V16.4166V16.4361V16.4555V16.475V16.4945V16.514V16.5335V16.553V16.5726V16.5921V16.6116V16.6312V16.6507V16.6703V16.6898V16.7094V16.729V16.7486V16.7681V16.7877V16.8073V16.8269V16.8465V16.8661V16.8857V16.9052V16.9248V16.9444V16.964V16.9836V17.0032V17.0228V17.0424V17.062V17.0816V17.1012V17.1208V17.1404V17.1599V17.1795V17.1991V17.2186V17.2382V17.2578V17.2773V17.2969V17.3164V17.3359V17.3555V17.375V17.3945V17.414V17.4335V17.453V17.4725V17.4919V17.5114V17.5308V17.5503V17.5697V17.5891V17.6085V17.6279V17.6473V17.6667V17.686V17.7054V17.7247V17.744V17.7633V17.7826V17.8019V17.8211V17.8404V17.8596V17.8788V17.898V17.9172V17.9363V17.9555V17.9746V17.9937V18.0128V18.0318V18.0509V18.0699V18.0889V18.1079V18.1269V18.1458V18.1647V18.1836V18.2025V18.2214V18.2402V18.259V18.2778V18.2965V18.3153V18.334V18.3527V18.3713V18.3899V18.4085V18.4271V18.4457V18.4642V18.4827V18.5012V18.5196V18.538V18.5564V18.5748V18.5931V18.6114V18.6296V18.6479V18.6661V18.6842V18.7024V18.7205V18.7386V18.7566V18.7746V18.7926V18.8105V18.8284V18.8463V18.8641V18.8819V18.8997V18.9174V18.9351V18.9527V18.9703V18.9879V19.0055V19.023V19.0404V19.0579V19.0752V19.0926V19.1099V19.1271V19.1444V19.1616V19.1787V19.1958V19.2128V19.2299V19.2468V19.2638V19.2806V19.2975V19.3143V19.331V19.3477V19.3644V19.381V19.3976V19.4141V19.4306V19.447V19.4634V19.4797V19.496V19.5122V19.5284V19.5445V19.5606V19.5767V19.5927V19.6086V19.6245V19.6403V19.6561V19.6718V19.6875V19.7031V19.7187V19.7342V19.7497V19.7651V19.7804V19.7957V19.811V19.8262V19.8413V19.8564V19.8714V19.8864V19.9013V19.9161V19.9309V19.9456V19.9603V19.9749V19.9895V20.004V20.0184V20.0328V20.0471V20.0613V20.0755V20.0896V20.1037V20.1177V20.1316C33.6219 20.2051 33.5827 20.4507 33.1141 20.8405C32.6529 21.2242 31.9104 21.6259 30.8826 21.9876C28.8384 22.7068 25.9325 23.1751 22.6634 23.1751C19.3942 23.1751 16.4883 22.7068 14.4441 21.9876C13.4163 21.6259 12.6738 21.2242 12.2126 20.8405C11.744 20.4507 11.7048 20.2051 11.7048 20.1316V20.1242V20.1167V20.109V20.1012V20.0933V20.0853V20.0772V20.069V20.0607V20.0522V20.0437V20.035V20.0263V20.0174V20.0084V19.9993V19.9901V19.9808V19.9714V19.9619V19.9523V19.9426V19.9327V19.9228V19.9128V19.9027V19.8924V19.8821V19.8717V19.8611V19.8505V19.8398V19.8289V19.818V19.807V19.7959V19.7846V19.7733V19.7619V19.7504V19.7388V19.7271V19.7153V19.7035V19.6915V19.6794V19.6673V19.655V19.6427V19.6303V19.6177V19.6051V19.5925V19.5797V19.5668V19.5539V19.5408V19.5277V19.5145V19.5012V19.4878V19.4743V19.4608V19.4472V19.4334V19.4196V19.4058V19.3918V19.3778V19.3637V19.3495V19.3352V19.3208V19.3064V19.2919V19.2773V19.2627V19.2479V19.2331V19.2182V19.2033V19.1882V19.1731V19.1579V19.1427V19.1274V19.112V19.0965V19.081V19.0654V19.0497V19.0339V19.0181V19.0023V18.9863V18.9703V18.9542V18.9381V18.9219V18.9056V18.8892V18.8728V18.8564V18.8399V18.8233V18.8066V18.7899V18.7731V18.7563V18.7394V18.7224V18.7054V18.6884V18.6712V18.654V18.6368V18.6195V18.6022V18.5848V18.5673V18.5498V18.5322V18.5146V18.4969V18.4792V18.4614V18.4436V18.4257V18.4078V18.3898V18.3717V18.3537V18.3355V18.3174V18.2991V18.2809V18.2626V18.2442V18.2258V18.2074V18.1889V18.1703V18.1518V18.1331V18.1145V18.0958V18.077V18.0582V18.0394V18.0205V18.0016V17.9827V17.9637V17.9447V17.9256V17.9065V17.8874V17.8683V17.8491V17.8298V17.8106V17.7913V17.7719V17.7526V17.7332V17.7137V17.6943V17.6748V17.6553V17.6357V17.6161V17.5965V17.5769V17.5572V17.5376V17.5178V17.4981V17.4783V17.4585V17.4387V17.4189V17.399V17.3791V17.3592V17.3393V17.3193V17.2994V17.2794V17.2594V17.2393V17.2193V17.1992V17.1791V17.159V17.1389V17.1188V17.0986V17.0784V17.0583V17.0381V17.0179V16.9976V16.9774V16.9571V16.9369V16.9166V16.8963V16.876V16.8557V16.8354V16.8151V16.7948V16.7744V16.7541V16.7337V16.7134V16.693V16.6727V16.6523V16.6319V16.6115V16.5911V16.5707V16.5504V16.53V16.5096V16.4892V16.4688V16.4484V16.428V16.4076V16.3872V16.3668V16.3465V16.3261V16.3057V16.2853V16.265V16.2446V16.2242V16.2039V16.1835V16.1632V16.1429V16.1226V16.1023V16.082V16.0617V16.0414V16.0211V16.0009V15.9806V15.9604V15.9402V15.9199V15.8997V15.8796V15.8594V15.8393V15.8191V15.799V15.7789V15.7588V15.7388V15.7187V15.6987V15.6787V15.6587V15.6387V15.6188V15.5988V15.5789V15.5591V15.5392V15.5194V15.4996V15.4798V15.46V15.4403V15.4206V15.4009V15.3812V15.3616V15.342V15.3224V15.3066C11.9819 15.4879 12.2866 15.673 12.6201 15.8574C14.7486 17.0344 18.0104 18.1625 22.6634 18.1625C27.3163 18.1625 30.5781 17.0344 32.7066 15.8574C33.0401 15.673 33.3448 15.4879 33.6219 15.3066Z" stroke="white" stroke-width="2.5072"/>
<path d="M33.2684 21.8516V21.8616V21.8808V21.8999V21.9191V21.9383V21.9575V21.9767V21.9959V22.0152V22.0345V22.0537V22.073V22.0923V22.1117V22.131V22.1503V22.1697V22.1891V22.2085V22.2279V22.2473V22.2667V22.2861V22.3056V22.325V22.3445V22.364V22.3835V22.403V22.4225V22.442V22.4615V22.481V22.5005V22.5201V22.5396V22.5592V22.5787V22.5983V22.6179V22.6374V22.657V22.6766V22.6962V22.7157V22.7353V22.7549V22.7745V22.7941V22.8137V22.8333V22.8529V22.8725V22.8921V22.9117V22.9313V22.9509V22.9705V22.99V23.0096V23.0292V23.0488V23.0684V23.088V23.1075V23.1271V23.1467V23.1662V23.1858V23.2053V23.2248V23.2444V23.2639V23.2834V23.3029V23.3224V23.3419V23.3614V23.3809V23.4004V23.4198V23.4393V23.4587V23.4782V23.4976V23.517V23.5364V23.5557V23.5751V23.5945V23.6138V23.6331V23.6525V23.6718V23.6911V23.7103V23.7296V23.7488V23.768V23.7873V23.8064V23.8256V23.8448V23.8639V23.883V23.9021V23.9212V23.9403V23.9593V23.9784V23.9974V24.0163V24.0353V24.0543V24.0732V24.0921V24.1109V24.1298V24.1486V24.1674V24.1862V24.205V24.2237V24.2424V24.2611V24.2798V24.2984V24.317V24.3356V24.3541V24.3727V24.3912V24.4096V24.4281V24.4465V24.4649V24.4832V24.5015V24.5198V24.5381V24.5563V24.5745V24.5927V24.6108V24.6289V24.647V24.665V24.683V24.701V24.719V24.7369V24.7547V24.7726V24.7904V24.8081V24.8258V24.8435V24.8612V24.8788V24.8964V24.9139V24.9314V24.9489V24.9663V24.9837V25.001V25.0183V25.0356V25.0528V25.07V25.0871V25.1042V25.1213V25.1383V25.1553V25.1722V25.1891V25.2059V25.2227V25.2395V25.2562V25.2728V25.2894V25.306V25.3225V25.339V25.3554V25.3718V25.3881V25.4044V25.4207V25.4369V25.453V25.4691V25.4851V25.5011V25.517V25.5329V25.5488V25.5645V25.5803V25.5959V25.6116V25.6271V25.6427V25.6581V25.6735V25.6889V25.7042V25.7194V25.7346V25.7497V25.7648V25.7798V25.7948V25.8097V25.8246V25.8393V25.8541V25.8687V25.8834V25.8979V25.9124V25.9268V25.9412V25.9555V25.9698V25.984V25.9981V26.0121V26.0261V26.0298C33.2594 26.064 33.2008 26.217 32.888 26.4772C32.471 26.8241 31.7712 27.2085 30.7652 27.5625C28.7678 28.2653 25.9035 28.73 22.6634 28.73C19.4232 28.73 16.5589 28.2653 14.5615 27.5625C13.5555 27.2085 12.8557 26.8241 12.4387 26.4772C12.1259 26.217 12.0673 26.064 12.0583 26.0298V26.0251V26.0174V26.0097V26.0018V25.9938V25.9857V25.9775V25.9691V25.9607V25.9521V25.9435V25.9347V25.9258V25.9169V25.9078V25.8986V25.8893V25.8799V25.8704V25.8607V25.851V25.8412V25.8313V25.8212V25.8111V25.8009V25.7905V25.7801V25.7696V25.7589V25.7482V25.7374V25.7265V25.7154V25.7043V25.6931V25.6818V25.6704V25.6589V25.6473V25.6356V25.6238V25.6119V25.5999V25.5879V25.5757V25.5635V25.5511V25.5387V25.5262V25.5136V25.5009V25.4881V25.4753V25.4623V25.4493V25.4361V25.4229V25.4096V25.3962V25.3828V25.3692V25.3556V25.3419V25.3281V25.3142V25.3003V25.2862V25.2721V25.2579V25.2436V25.2293V25.2149V25.2004V25.1858V25.1711V25.1564V25.1416V25.1267V25.1117V25.0967V25.0816V25.0664V25.0511V25.0358V25.0204V25.005V24.9894V24.9738V24.9581V24.9424V24.9266V24.9107V24.8948V24.8787V24.8627V24.8465V24.8303V24.814V24.7977V24.7813V24.7648V24.7483V24.7317V24.7151V24.6983V24.6816V24.6647V24.6478V24.6309V24.6139V24.5968V24.5797V24.5625V24.5453V24.528V24.5106V24.4932V24.4757V24.4582V24.4406V24.423V24.4054V24.3876V24.3698V24.352V24.3341V24.3162V24.2982V24.2802V24.2621V24.244V24.2258V24.2076V24.1893V24.171V24.1527V24.1343V24.1158V24.0973V24.0788V24.0602V24.0416V24.0229V24.0042V23.9855V23.9667V23.9479V23.929V23.9101V23.8911V23.8722V23.8531V23.8341V23.815V23.7959V23.7767V23.7575V23.7383V23.719V23.6997V23.6804V23.661V23.6416V23.6222V23.6027V23.5832V23.5637V23.5442V23.5246V23.505V23.4853V23.4657V23.446V23.4263V23.4065V23.3868V23.367V23.3472V23.3273V23.3075V23.2876V23.2677V23.2477V23.2278V23.2078V23.1878V23.1678V23.1478V23.1277V23.1077V23.0876V23.0675V23.0474V23.0272V23.0071V22.9869V22.9667V22.9465V22.9263V22.9061V22.8858V22.8656V22.8453V22.8251V22.8048V22.7845V22.7642V22.7439V22.7235V22.7032V22.6829V22.6625V22.6422V22.6218V22.6015V22.5811V22.5607V22.5403V22.52V22.4996V22.4792V22.4588V22.4384V22.418V22.3976V22.3772V22.3568V22.3365V22.3161V22.2957V22.2753V22.2549V22.2345V22.2141V22.1938V22.1734V22.153V22.1327V22.1123V22.092V22.0717V22.0513V22.031V22.0107V21.9904V21.9701V21.9498V21.9296V21.9093V21.8891V21.8688V21.8516C12.1841 21.9261 12.3143 22.0007 12.449 22.0752C14.6299 23.2812 17.9506 24.4244 22.6634 24.4244C27.3761 24.4244 30.6968 23.2812 32.8777 22.0752C33.0124 22.0007 33.1427 21.9261 33.2684 21.8516ZM12.0569 26.0224C12.057 26.0224 12.0574 26.0241 12.0578 26.0276C12.0569 26.0241 12.0568 26.0224 12.0569 26.0224ZM33.2698 26.0224C33.2699 26.0224 33.2698 26.0241 33.2689 26.0276C33.2693 26.0241 33.2697 26.0224 33.2698 26.0224Z" stroke="white" stroke-width="3.21429"/>
<path d="M33.2684 27.7601V27.7701V27.7892V27.8084V27.8275V27.8467V27.8659V27.8851V27.9044V27.9236V27.9429V27.9622V27.9815V28.0008V28.0201V28.0394V28.0588V28.0782V28.0975V28.1169V28.1363V28.1557V28.1752V28.1946V28.214V28.2335V28.253V28.2724V28.2919V28.3114V28.3309V28.3504V28.3699V28.3895V28.409V28.4285V28.4481V28.4676V28.4872V28.5067V28.5263V28.5459V28.5654V28.585V28.6046V28.6242V28.6438V28.6634V28.683V28.7025V28.7221V28.7417V28.7613V28.7809V28.8005V28.8201V28.8397V28.8593V28.8789V28.8985V28.9181V28.9377V28.9572V28.9768V28.9964V29.016V29.0355V29.0551V29.0747V29.0942V29.1138V29.1333V29.1528V29.1724V29.1919V29.2114V29.2309V29.2504V29.2699V29.2894V29.3088V29.3283V29.3477V29.3672V29.3866V29.406V29.4254V29.4448V29.4642V29.4836V29.5029V29.5223V29.5416V29.5609V29.5802V29.5995V29.6188V29.638V29.6573V29.6765V29.6957V29.7149V29.7341V29.7532V29.7724V29.7915V29.8106V29.8297V29.8487V29.8678V29.8868V29.9058V29.9248V29.9438V29.9627V29.9816V30.0005V30.0194V30.0382V30.0571V30.0759V30.0947V30.1134V30.1322V30.1509V30.1695V30.1882V30.2068V30.2254V30.244V30.2626V30.2811V30.2996V30.3181V30.3365V30.3549V30.3733V30.3917V30.41V30.4283V30.4465V30.4648V30.483V30.5011V30.5193V30.5374V30.5554V30.5735V30.5915V30.6095V30.6274V30.6453V30.6632V30.681V30.6988V30.7166V30.7343V30.752V30.7696V30.7872V30.8048V30.8224V30.8399V30.8573V30.8747V30.8921V30.9095V30.9268V30.944V30.9613V30.9784V30.9956V31.0127V31.0297V31.0468V31.0637V31.0806V31.0975V31.1144V31.1312V31.1479V31.1646V31.1813V31.1979V31.2145V31.231V31.2475V31.2639V31.2803V31.2966V31.3129V31.3291V31.3453V31.3614V31.3775V31.3936V31.4095V31.4255V31.4414V31.4572V31.473V31.4887V31.5044V31.52V31.5356V31.5511V31.5666V31.582V31.5973V31.6126V31.6279V31.6431V31.6582V31.6733V31.6883V31.7032V31.7182V31.733V31.7478V31.7625V31.7772V31.7918V31.8064V31.8208V31.8353V31.8497V31.864V31.8782V31.8924V31.9065V31.9206V31.9346V31.9382C33.2594 31.9724 33.2008 32.1254 32.888 32.3856C32.471 32.7325 31.7712 33.117 30.7652 33.471C28.7678 34.1738 25.9035 34.6384 22.6634 34.6384C19.4232 34.6384 16.5589 34.1738 14.5615 33.471C13.5555 33.117 12.8557 32.7325 12.4387 32.3856C12.1259 32.1254 12.0673 31.9724 12.0583 31.9382V31.9335V31.9259V31.9181V31.9102V31.9022V31.8941V31.8859V31.8776V31.8691V31.8606V31.8519V31.8432V31.8343V31.8253V31.8162V31.807V31.7977V31.7883V31.7788V31.7692V31.7595V31.7496V31.7397V31.7297V31.7196V31.7093V31.699V31.6886V31.678V31.6674V31.6567V31.6458V31.6349V31.6239V31.6128V31.6015V31.5902V31.5788V31.5673V31.5557V31.544V31.5322V31.5204V31.5084V31.4963V31.4842V31.4719V31.4596V31.4472V31.4346V31.422V31.4093V31.3966V31.3837V31.3707V31.3577V31.3446V31.3314V31.3181V31.3047V31.2912V31.2777V31.2641V31.2503V31.2365V31.2227V31.2087V31.1947V31.1806V31.1664V31.1521V31.1377V31.1233V31.1088V31.0942V31.0796V31.0648V31.05V31.0351V31.0202V31.0051V30.99V30.9748V30.9596V30.9443V30.9289V30.9134V30.8979V30.8823V30.8666V30.8508V30.835V30.8192V30.8032V30.7872V30.7711V30.755V30.7388V30.7225V30.7061V30.6897V30.6733V30.6567V30.6402V30.6235V30.6068V30.59V30.5732V30.5563V30.5393V30.5223V30.5053V30.4881V30.4709V30.4537V30.4364V30.4191V30.4016V30.3842V30.3667V30.3491V30.3315V30.3138V30.2961V30.2783V30.2605V30.2426V30.2247V30.2067V30.1886V30.1706V30.1524V30.1343V30.116V30.0978V30.0795V30.0611V30.0427V30.0243V30.0058V29.9872V29.9686V29.95V29.9314V29.9127V29.8939V29.8751V29.8563V29.8374V29.8185V29.7996V29.7806V29.7616V29.7425V29.7234V29.7043V29.6852V29.666V29.6467V29.6275V29.6082V29.5888V29.5695V29.5501V29.5306V29.5112V29.4917V29.4722V29.4526V29.433V29.4134V29.3938V29.3741V29.3544V29.3347V29.315V29.2952V29.2754V29.2556V29.2358V29.2159V29.196V29.1761V29.1562V29.1362V29.1163V29.0963V29.0763V29.0562V29.0362V29.0161V28.996V28.9759V28.9558V28.9357V28.9155V28.8953V28.8752V28.855V28.8348V28.8145V28.7943V28.774V28.7538V28.7335V28.7132V28.6929V28.6726V28.6523V28.632V28.6117V28.5913V28.571V28.5506V28.5303V28.5099V28.4895V28.4692V28.4488V28.4284V28.408V28.3876V28.3673V28.3469V28.3265V28.3061V28.2857V28.2653V28.2449V28.2245V28.2041V28.1837V28.1634V28.143V28.1226V28.1022V28.0819V28.0615V28.0411V28.0208V28.0004V27.9801V27.9598V27.9395V27.9191V27.8988V27.8786V27.8583V27.838V27.8177V27.7975V27.7773V27.7601C12.1841 27.8346 12.3143 27.9092 12.449 27.9837C14.6299 29.1896 17.9506 30.3329 22.6634 30.3329C27.3761 30.3329 30.6968 29.1896 32.8777 27.9837C33.0124 27.9092 33.1427 27.8346 33.2684 27.7601ZM12.0569 31.9308C12.057 31.9308 12.0574 31.9326 12.0578 31.936C12.0569 31.9326 12.0568 31.9308 12.0569 31.9308ZM33.2698 31.9308C33.2699 31.9308 33.2698 31.9326 33.2689 31.936C33.2693 31.9325 33.2697 31.9308 33.2698 31.9308Z" stroke="white" stroke-width="3.21429"/>
</g>
</g>
<path d="M37.2153 27.5129C40.1782 27.5129 42.9306 27.0824 44.9998 26.336C46.0276 25.9653 46.9728 25.4861 47.6914 24.8733C48.4037 24.2658 49.0602 23.3729 49.0602 22.213C49.0602 21.0532 48.4037 20.1603 47.6914 19.5528C46.9728 18.94 46.0276 18.4608 44.9998 18.09C42.9306 17.3437 40.1782 16.9131 37.2153 16.9131C34.2524 16.9131 31.5 17.3437 29.4308 18.09C28.403 18.4608 27.4578 18.94 26.7392 19.5528C26.0269 20.1603 25.3704 21.0532 25.3704 22.213C25.3704 23.3729 26.0269 24.2658 26.7392 24.8733C27.4578 25.4861 28.403 25.9653 29.4308 26.336C31.5 27.0824 34.2524 27.5129 37.2153 27.5129Z" stroke="white" stroke-width="3.21429"/>
<path d="M48.3475 24.7965V24.8094V24.8284V24.8475V24.8667V24.8858V24.9049V24.9241V24.9433V24.9625V24.9817V25.0009V25.0202V25.0395V25.0587V25.078V25.0973V25.1167V25.136V25.1554V25.1747V25.1941V25.2135V25.2329V25.2523V25.2717V25.2912V25.3106V25.3301V25.3495V25.369V25.3885V25.408V25.4275V25.447V25.4665V25.486V25.5055V25.5251V25.5446V25.5642V25.5837V25.6033V25.6229V25.6424V25.662V25.6816V25.7012V25.7207V25.7403V25.7599V25.7795V25.7991V25.8187V25.8383V25.8579V25.8775V25.8971V25.9167V25.9363V25.9559V25.9755V25.995V26.0146V26.0342V26.0538V26.0734V26.093V26.1125V26.1321V26.1517V26.1712V26.1908V26.2103V26.2299V26.2494V26.2689V26.2884V26.3079V26.3274V26.3469V26.3664V26.3859V26.4054V26.4248V26.4443V26.4637V26.4832V26.5026V26.522V26.5414V26.5608V26.5801V26.5995V26.6188V26.6382V26.6575V26.6768V26.6961V26.7153V26.7346V26.7538V26.773V26.7923V26.8114V26.8306V26.8498V26.8689V26.888V26.9071V26.9262V26.9453V26.9643V26.9834V27.0024V27.0214V27.0403V27.0593V27.0782V27.0971V27.116V27.1348V27.1536V27.1724V27.1912V27.21V27.2287V27.2474V27.2661V27.2848V27.3034V27.322V27.3406V27.3591V27.3777V27.3962V27.4146V27.4331V27.4515V27.4699V27.4882V27.5065V27.5248V27.5431V27.5613V27.5795V27.5977V27.6158V27.6339V27.652V27.67V27.688V27.706V27.724V27.7419V27.7597V27.7776V27.7954V27.8131V27.8308V27.8485V27.8662V27.8838V27.9014V27.9189V27.9364V27.9539V27.9713V27.9887V28.006V28.0233V28.0406V28.0578V28.075V28.0921V28.1092V28.1263V28.1433V28.1603V28.1772V28.1941V28.2109V28.2277V28.2445V28.2612V28.2778V28.2945V28.311V28.3275V28.344V28.3604V28.3768V28.3932V28.4094V28.4257V28.4419V28.458V28.4741V28.4901V28.5061V28.522V28.5379V28.5538V28.5695V28.5853V28.6009V28.6166V28.6321V28.6477V28.6631V28.6785V28.6939V28.7092V28.7244V28.7396V28.7547V28.7698V28.7848V28.7998V28.8147V28.8296V28.8443V28.8591V28.8737V28.8884V28.9029V28.9174V28.9318V28.9462V28.9605V28.9748V28.989V29.0031V29.0171V29.0246C48.3336 29.0641 48.2618 29.2136 47.9514 29.4611C47.508 29.8147 46.7675 30.2038 45.7095 30.5607C43.6099 31.2689 40.6064 31.735 37.2146 31.735C33.8228 31.735 30.8194 31.2689 28.7197 30.5607C27.6617 30.2038 26.9212 29.8147 26.4778 29.4611C26.1674 29.2136 26.0956 29.0641 26.0818 29.0246V29.0224V29.0147V29.0068V28.9988V28.9907V28.9825V28.9741V28.9657V28.9571V28.9485V28.9397V28.9308V28.9219V28.9128V28.9036V28.8943V28.8849V28.8754V28.8657V28.856V28.8462V28.8363V28.8262V28.8161V28.8059V28.7955V28.7851V28.7746V28.7639V28.7532V28.7424V28.7315V28.7204V28.7093V28.6981V28.6868V28.6754V28.6639V28.6523V28.6406V28.6288V28.6169V28.6049V28.5929V28.5807V28.5685V28.5561V28.5437V28.5312V28.5186V28.5059V28.4931V28.4803V28.4673V28.4543V28.4411V28.4279V28.4146V28.4012V28.3878V28.3742V28.3606V28.3469V28.3331V28.3192V28.3053V28.2912V28.2771V28.2629V28.2486V28.2343V28.2199V28.2054V28.1908V28.1761V28.1614V28.1466V28.1317V28.1167V28.1017V28.0866V28.0714V28.0561V28.0408V28.0254V28.01V27.9944V27.9788V27.9631V27.9474V27.9316V27.9157V27.8998V27.8837V27.8677V27.8515V27.8353V27.819V27.8027V27.7863V27.7698V27.7533V27.7367V27.7201V27.7033V27.6866V27.6697V27.6528V27.6359V27.6189V27.6018V27.5847V27.5675V27.5503V27.533V27.5156V27.4982V27.4807V27.4632V27.4457V27.428V27.4104V27.3926V27.3748V27.357V27.3391V27.3212V27.3032V27.2852V27.2671V27.249V27.2308V27.2126V27.1943V27.176V27.1577V27.1393V27.1208V27.1023V27.0838V27.0652V27.0466V27.0279V27.0092V26.9905V26.9717V26.9529V26.934V26.9151V26.8961V26.8772V26.8581V26.8391V26.82V26.8009V26.7817V26.7625V26.7433V26.724V26.7047V26.6854V26.666V26.6466V26.6272V26.6077V26.5882V26.5687V26.5492V26.5296V26.51V26.4904V26.4707V26.451V26.4313V26.4115V26.3918V26.372V26.3522V26.3323V26.3125V26.2926V26.2727V26.2527V26.2328V26.2128V26.1928V26.1728V26.1528V26.1327V26.1127V26.0926V26.0725V26.0524V26.0322V26.0121V25.9919V25.9717V25.9515V25.9313V25.9111V25.8908V25.8706V25.8503V25.8301V25.8098V25.7895V25.7692V25.7489V25.7286V25.7082V25.6879V25.6675V25.6472V25.6268V25.6065V25.5861V25.5657V25.5454V25.525V25.5046V25.4842V25.4638V25.4434V25.423V25.4026V25.3822V25.3618V25.3415V25.3211V25.3007V25.2803V25.2599V25.2395V25.2192V25.1988V25.1784V25.158V25.1377V25.1173V25.097V25.0767V25.0563V25.036V25.0157V24.9954V24.9751V24.9548V24.9346V24.9143V24.8941V24.8738V24.8536V24.8334V24.8132V24.7965C26.252 24.8954 26.4305 24.9947 26.6174 25.0938C28.8784 26.2922 32.3222 27.4294 37.2146 27.4294C42.1071 27.4294 45.5508 26.2922 47.8118 25.0938C47.9987 24.9947 48.1772 24.8954 48.3475 24.7965ZM26.0788 29.014C26.0789 29.014 26.0795 29.0158 26.08 29.0193C26.079 29.0158 26.0787 29.014 26.0788 29.014ZM48.3504 29.014C48.3505 29.014 48.3503 29.0158 48.3492 29.0193C48.3498 29.0158 48.3503 29.014 48.3504 29.014Z" stroke="white" stroke-width="3.21429" stroke-linecap="round"/>
<path d="M48.3475 30.2618V30.2747V30.2938V30.3129V30.332V30.3511V30.3703V30.3894V30.4086V30.4278V30.447V30.4663V30.4855V30.5048V30.5241V30.5434V30.5627V30.582V30.6013V30.6207V30.6401V30.6594V30.6788V30.6982V30.7176V30.7371V30.7565V30.7759V30.7954V30.8149V30.8343V30.8538V30.8733V30.8928V30.9123V30.9318V30.9514V30.9709V30.9904V31.01V31.0295V31.0491V31.0686V31.0882V31.1078V31.1273V31.1469V31.1665V31.1861V31.2057V31.2253V31.2448V31.2644V31.284V31.3036V31.3232V31.3428V31.3624V31.382V31.4016V31.4212V31.4408V31.4604V31.48V31.4996V31.5191V31.5387V31.5583V31.5779V31.5974V31.617V31.6366V31.6561V31.6756V31.6952V31.7147V31.7342V31.7538V31.7733V31.7928V31.8123V31.8318V31.8512V31.8707V31.8902V31.9096V31.9291V31.9485V31.9679V31.9873V32.0067V32.0261V32.0455V32.0648V32.0842V32.1035V32.1228V32.1421V32.1614V32.1807V32.1999V32.2192V32.2384V32.2576V32.2768V32.296V32.3151V32.3343V32.3534V32.3725V32.3916V32.4106V32.4297V32.4487V32.4677V32.4867V32.5056V32.5246V32.5435V32.5624V32.5813V32.6001V32.619V32.6378V32.6566V32.6753V32.694V32.7128V32.7314V32.7501V32.7687V32.7873V32.8059V32.8245V32.843V32.8615V32.88V32.8984V32.9168V32.9352V32.9535V32.9719V32.9902V33.0084V33.0267V33.0449V33.063V33.0812V33.0993V33.1173V33.1354V33.1534V33.1714V33.1893V33.2072V33.2251V33.2429V33.2607V33.2785V33.2962V33.3139V33.3315V33.3491V33.3667V33.3843V33.4018V33.4192V33.4366V33.454V33.4714V33.4887V33.5059V33.5232V33.5403V33.5575V33.5746V33.5916V33.6086V33.6256V33.6425V33.6594V33.6763V33.6931V33.7098V33.7265V33.7432V33.7598V33.7764V33.7929V33.8093V33.8258V33.8422V33.8585V33.8748V33.891V33.9072V33.9233V33.9394V33.9555V33.9714V33.9874V34.0033V34.0191V34.0349V34.0506V34.0663V34.0819V34.0975V34.113V34.1285V34.1439V34.1592V34.1745V34.1898V34.205V34.2201V34.2352V34.2502V34.2651V34.28V34.2949V34.3097V34.3244V34.3391V34.3537V34.3682V34.3827V34.3972V34.4115V34.4259V34.4401V34.4543V34.4684V34.4825V34.4899C48.3336 34.5294 48.2618 34.679 47.9514 34.9265C47.508 35.2801 46.7675 35.6692 45.7095 36.026C43.6099 36.7342 40.6064 37.2003 37.2146 37.2003C33.8228 37.2003 30.8194 36.7342 28.7197 36.026C27.6617 35.6692 26.9212 35.2801 26.4778 34.9265C26.1674 34.679 26.0956 34.5294 26.0818 34.4899V34.4878V34.48V34.4721V34.4641V34.456V34.4478V34.4395V34.431V34.4225V34.4138V34.4051V34.3962V34.3872V34.3781V34.3689V34.3596V34.3502V34.3407V34.3311V34.3214V34.3115V34.3016V34.2916V34.2814V34.2712V34.2609V34.2505V34.2399V34.2293V34.2186V34.2077V34.1968V34.1858V34.1746V34.1634V34.1521V34.1407V34.1292V34.1176V34.1059V34.0941V34.0822V34.0703V34.0582V34.0461V34.0338V34.0215V34.009V33.9965V33.9839V33.9712V33.9585V33.9456V33.9326V33.9196V33.9065V33.8933V33.88V33.8666V33.8531V33.8396V33.8259V33.8122V33.7984V33.7846V33.7706V33.7566V33.7425V33.7283V33.714V33.6996V33.6852V33.6707V33.6561V33.6414V33.6267V33.6119V33.597V33.5821V33.567V33.5519V33.5367V33.5215V33.5062V33.4908V33.4753V33.4598V33.4442V33.4285V33.4127V33.3969V33.381V33.3651V33.3491V33.333V33.3169V33.3006V33.2844V33.268V33.2516V33.2352V33.2186V33.202V33.1854V33.1687V33.1519V33.1351V33.1182V33.1012V33.0842V33.0671V33.05V33.0328V33.0156V32.9983V32.9809V32.9635V32.9461V32.9286V32.911V32.8934V32.8757V32.858V32.8402V32.8224V32.8045V32.7865V32.7686V32.7505V32.7325V32.7143V32.6962V32.6779V32.6597V32.6414V32.623V32.6046V32.5861V32.5677V32.5491V32.5305V32.5119V32.4933V32.4746V32.4558V32.437V32.4182V32.3993V32.3804V32.3615V32.3425V32.3235V32.3044V32.2853V32.2662V32.247V32.2278V32.2086V32.1893V32.17V32.1507V32.1313V32.112V32.0925V32.0731V32.0536V32.0341V32.0145V31.9949V31.9753V31.9557V31.936V31.9163V31.8966V31.8769V31.8571V31.8373V31.8175V31.7977V31.7778V31.7579V31.738V31.7181V31.6981V31.6782V31.6582V31.6382V31.6181V31.5981V31.578V31.5579V31.5378V31.5177V31.4976V31.4774V31.4572V31.4371V31.4169V31.3966V31.3764V31.3562V31.3359V31.3157V31.2954V31.2751V31.2548V31.2345V31.2142V31.1939V31.1736V31.1532V31.1329V31.1125V31.0922V31.0718V31.0514V31.0311V31.0107V30.9903V30.9699V30.9495V30.9291V30.9088V30.8884V30.868V30.8476V30.8272V30.8068V30.7864V30.766V30.7456V30.7252V30.7049V30.6845V30.6641V30.6437V30.6234V30.603V30.5827V30.5623V30.542V30.5217V30.5014V30.481V30.4607V30.4404V30.4202V30.3999V30.3796V30.3594V30.3392V30.3189V30.2987V30.2785V30.2618C26.252 30.3608 26.4305 30.4601 26.6174 30.5591C28.8784 31.7575 32.3222 32.8948 37.2146 32.8948C42.1071 32.8948 45.5508 31.7575 47.8118 30.5591C47.9987 30.4601 48.1772 30.3608 48.3475 30.2618ZM26.0788 34.4793C26.0789 34.4793 26.0795 34.4811 26.08 34.4847C26.079 34.4811 26.0787 34.4793 26.0788 34.4793ZM48.3504 34.4793C48.3505 34.4793 48.3503 34.4811 48.3492 34.4847C48.3498 34.4811 48.3503 34.4793 48.3504 34.4793Z" stroke="white" stroke-width="3.21429" stroke-linecap="round"/>
<rect x="19.7041" y="19.2278" width="2.74344" height="2.77077" rx="0.716344" fill="white"/>
<path fill-rule="evenodd" clip-rule="evenodd" d="M3.24344 24.0467C3.24344 24.7522 3.37362 25.4558 3.64136 26.1727C3.94148 26.9766 4.30364 27.6714 4.725 28.2631C5.18832 28.914 5.74967 29.558 6.41195 30.1942C7.11709 30.8719 7.75743 31.4253 8.32595 31.8523C8.92198 32.2996 9.54347 32.7221 10.1907 33.1197C10.79 33.4881 11.2242 33.7449 11.4736 33.8808C11.7218 33.7456 12.1575 33.488 12.7565 33.1198C13.4045 32.7215 14.0262 32.2988 14.6206 31.8526C15.1895 31.4256 15.8296 30.8724 16.5352 30.1944C17.1976 29.5577 17.7592 28.9134 18.2221 28.2631C18.6431 27.6718 19.0056 26.9765 19.3065 26.172C19.574 25.456 19.7041 24.7526 19.7041 24.0467V23.8385C19.7041 23.3794 20.0726 23.0072 20.5271 23.0072H21.6245C22.0791 23.0072 22.4475 23.3794 22.4475 23.8385V24.0467C22.4475 25.0903 22.2564 26.1247 21.8733 27.1502C21.4898 28.1756 21.0154 29.0858 20.4496 29.8806C19.8838 30.6755 19.2092 31.4492 18.4266 32.2015C17.6434 32.9541 16.9205 33.5784 16.2573 34.0763C15.5945 34.5738 14.9027 35.0442 14.183 35.4866C13.4628 35.9293 12.9508 36.2302 12.6481 36.3877C12.3453 36.5457 12.1024 36.6669 11.9197 36.7516C11.7823 36.8244 11.634 36.8611 11.4736 36.8611C11.3134 36.8611 11.1649 36.8244 11.0276 36.7516C10.8448 36.6669 10.6019 36.5457 10.299 36.3877C9.99623 36.2302 9.48454 35.9292 8.7644 35.4866C8.04426 35.0442 7.35265 34.5738 6.68974 34.0763C6.02684 33.5785 5.30388 32.9541 4.52074 32.2015C3.73772 31.4492 3.0634 30.6755 2.49749 29.8806C1.93157 29.0858 1.45712 28.1756 1.07432 27.1502C0.691341 26.1247 0.5 25.0903 0.5 24.0467V14.2616C0.5 13.946 0.608643 13.673 0.825748 13.4425C1.04297 13.2119 1.3002 13.0967 1.5976 13.0967C5.85138 11.829 8.7387 10.7128 10.2595 9.74806C10.4158 9.64892 10.6087 9.519 10.8382 9.3583C11.2284 9.08508 11.7191 9.08508 12.1093 9.35827C12.3391 9.51917 12.5322 9.64924 12.6887 9.74848C14.2095 10.7131 17.0967 11.8292 21.3504 13.0967C21.6476 13.0967 21.9049 13.2119 22.1223 13.4425C22.339 13.6731 22.4475 13.9459 22.4475 14.2616V16.6345C22.4475 17.0935 22.0791 17.4657 21.6245 17.4657H20.5271C20.0726 17.4657 19.7041 17.0935 19.7041 16.6345V15.4914C15.8822 14.3203 13.1692 13.2611 11.4738 12.2453C9.77811 13.2612 7.06515 14.3204 3.24344 15.4915V24.0467ZM10.6706 23.5422L14.9541 19.082C15.2498 18.7741 15.7292 18.7741 16.025 19.082L16.7389 19.8254C17.0346 20.1333 17.0346 20.6325 16.7389 20.9404L11.2061 26.7015C10.6146 27.3173 9.65574 27.3173 9.06432 26.7015L6.20867 23.728C5.91296 23.4201 5.91296 22.9209 6.20867 22.613L6.92258 21.8696C7.21829 21.5617 7.69774 21.5617 7.99345 21.8696L9.59975 23.5422C9.89546 23.8501 10.3749 23.8501 10.6706 23.5422Z" fill="white"/>
</svg>
