<svg width="19" height="20" viewBox="0 0 19 20" fill="none" xmlns="http://www.w3.org/2000/svg">
<path opacity="0.5" fill-rule="evenodd" clip-rule="evenodd" d="M8.5514 13.7102C8.99068 14.1487 8.99068 14.8596 8.5514 15.2981C8.11212 15.7366 7.3999 15.7366 6.96062 15.2981L3.91787 12.0833C3.49964 11.6414 3.50919 10.9469 3.9394 10.5167V10.5167C4.38666 10.0694 5.11485 10.0794 5.54965 10.5388L8.5514 13.7102Z" fill="white"/>
<path fill-rule="evenodd" clip-rule="evenodd" d="M8.63356 15.3483C8.19508 15.7876 7.48417 15.7876 7.04569 15.3483C6.60721 14.909 6.60721 14.1968 7.04569 13.7575L14.9472 6.02733C15.3874 5.59668 16.0922 5.60054 16.5277 6.03599V6.03599C16.9699 6.47825 16.966 7.1965 16.5189 7.63388L8.63356 15.3483Z" fill="white"/>
</svg>
