<svg width="21" height="21" viewBox="0 0 21 21" fill="none" xmlns="http://www.w3.org/2000/svg">
<rect x="16.7559" y="8.69824" width="1.66667" height="3.33333" rx="0.833333" fill="white" fill-opacity="0.5"/>
<path fill-rule="evenodd" clip-rule="evenodd" d="M17.5859 7.86556C17.1254 7.86556 16.7522 7.49212 16.7525 7.03164L16.7536 5.19408C16.7537 5.10203 16.6792 5.02734 16.5871 5.02726C16.554 5.02723 16.5216 5.03709 16.494 5.05558L6.89044 11.5076C6.81404 11.5589 6.79371 11.6625 6.84504 11.7389C6.86494 11.7685 6.89381 11.791 6.92741 11.8029L9.50517 12.7221C9.62908 12.7663 9.76739 12.7335 9.85823 12.6383L15.1376 7.10815C15.215 7.01497 15.3484 7.00637 15.4354 7.08893C15.5128 7.16237 15.5288 7.28512 15.4731 7.37857L11.9176 13.4354L11.3886 15.4592C11.377 15.5037 11.4036 15.5492 11.4481 15.5609C11.4783 15.5688 11.5104 15.5591 11.5312 15.5359L12.8017 14.1208C12.8921 14.0201 13.0344 13.984 13.1619 14.0295L14.0046 14.3305L16.5219 15.2295C16.6086 15.2604 16.704 15.2153 16.7349 15.1286C16.7414 15.1106 16.7446 15.0917 16.7447 15.0727L16.7454 13.6984C16.7457 13.2383 17.1187 12.8656 17.5787 12.8656C18.0391 12.8656 18.4123 13.239 18.412 13.6994L18.4094 17.1656C18.4093 17.2847 18.36 17.3964 18.2765 17.4667C18.2194 17.5147 18.151 17.5395 18.0817 17.5391C18.0496 17.5389 18.0174 17.5333 17.986 17.5221L13.4441 15.9001L11.0262 18.5933C10.9638 18.6629 10.8812 18.6994 10.7973 18.6989C10.7545 18.6986 10.7114 18.6887 10.6704 18.6687C10.6049 18.6367 10.5524 18.5816 10.5106 18.5025L8.41402 14.1038L3.65409 12.4039C3.53014 12.3596 3.44034 12.2357 3.42512 12.0879C3.4099 11.94 3.47219 11.7963 3.58388 11.7212L17.9292 2.0835C18.0304 2.01548 18.156 2.01511 18.258 2.08256C18.36 2.14998 18.423 2.27487 18.4229 2.4097L18.4193 7.03281C18.4189 7.49283 18.0459 7.86556 17.5859 7.86556Z" fill="white"/>
</svg>
