<svg width="61" height="35" viewBox="0 0 61 35" fill="none" xmlns="http://www.w3.org/2000/svg">
<path fill-rule="evenodd" clip-rule="evenodd" d="M44.0917 0.125166L59.8962 6.42517C60.5629 6.69093 61.0001 7.33442 61.0001 8.05V26.95C61.0001 27.6656 60.5629 28.3091 59.8962 28.5748L44.0917 34.8748C43.673 35.0417 43.206 35.0417 42.7873 34.8748L26.9828 28.5748C26.3161 28.3091 25.8789 27.6656 25.8789 26.95V8.05C25.8789 7.33442 26.3161 6.69093 26.9828 6.42517L42.7873 0.125166C43.206 -0.0417219 43.673 -0.0417219 44.0917 0.125166ZM57.2361 25.8655C57.3882 25.8048 57.488 25.6576 57.488 25.4939V12.1822C57.488 12.1115 57.4166 12.0631 57.351 12.0893L45.4475 16.8343C45.2954 16.8949 45.1956 17.0421 45.1956 17.2058V30.5175C45.1956 30.5882 45.2669 30.6366 45.3326 30.6104L57.2361 25.8655ZM41.5464 30.6104C41.6121 30.6366 41.6835 30.5882 41.6835 30.5175V17.2058C41.6835 17.0421 41.5837 16.8949 41.4316 16.8343L29.5281 12.0893C29.4624 12.0631 29.391 12.1115 29.391 12.1822V25.4939C29.391 25.6576 29.4908 25.8048 29.6429 25.8655L41.5464 30.6104ZM30.8404 8.65731C30.7564 8.69078 30.7564 8.80962 30.8404 8.84309L43.2915 13.8064C43.3866 13.8443 43.4926 13.8443 43.5877 13.8064L56.0388 8.84309C56.1228 8.80962 56.1228 8.69078 56.0388 8.65731L43.5877 3.69405C43.4926 3.65614 43.3866 3.65614 43.2915 3.69405L30.8404 8.65731Z" fill="white"/>
<path opacity="0.5" d="M5.5459 7.36865L21.5101 7.36865" stroke="white" stroke-width="2" stroke-linecap="round"/>
<path opacity="0.5" d="M1.84863 22.1055L22.182 22.1055" stroke="white" stroke-width="2" stroke-linecap="round"/>
<path opacity="0.5" d="M14.7881 14.7368L22.182 14.7368" stroke="white" stroke-width="2" stroke-linecap="round"/>
<path opacity="0.5" d="M11.0908 29.4736L22.1817 29.4736" stroke="white" stroke-width="2" stroke-linecap="round"/>
</svg>
