<svg width="101" height="134" viewBox="0 0 101 134" fill="none" xmlns="http://www.w3.org/2000/svg">
<mask id="mask0_1302_1518" style="mask-type:alpha" maskUnits="userSpaceOnUse" x="0" y="0" width="101" height="134">
<rect width="101" height="133.5" fill="#C4C4C4"/>
</mask>
<g mask="url(#mask0_1302_1518)">
<path opacity="0.1" d="M0.115234 36.9941L0.115234 141.315C39.3714 141.315 61.3808 141.315 100.637 141.315V36.9941L50.3761 66.0138L0.115234 36.9941Z" fill="url(#paint0_linear_1302_1518)"/>
<path opacity="0.3" d="M0.115234 36.9941L0.115234 124.561H50.3761V66.0138L0.115234 36.9941Z" fill="url(#paint1_linear_1302_1518)"/>
<path d="M0 36.9277L50.4245 7.81516L100.849 36.9277L50.4245 66.0403L0 36.9277Z" fill="url(#paint2_linear_1302_1518)"/>
<path d="M47.6147 22.4863C59.0071 22.4863 70.265 18.8461 68.2425 35.8337C68.2425 43.2053 59.0071 49.1812 47.6147 49.1812C36.2223 49.1812 26.9869 43.2053 26.9869 35.8337C25.7736 18.4416 36.2223 22.4863 47.6147 22.4863Z" fill="#E3E9F0"/>
<path opacity="0.12" d="M47.9153 23.168C61.6117 23.168 75.1464 18.6909 72.7149 39.584C72.7149 48.6503 61.6117 56 47.9153 56C34.2188 56 23.1157 48.6503 23.1157 39.584C21.6571 18.1935 34.2188 23.168 47.9153 23.168Z" fill="#333333"/>
<ellipse cx="47.6156" cy="30.1721" rx="15.7742" ry="20.6278" transform="rotate(-90 47.6156 30.1721)" fill="white"/>
<ellipse cx="47.6154" cy="30.171" rx="12.5385" ry="16.5832" transform="rotate(-90 47.6154 30.171)" fill="#E3E9F0"/>
<path d="M50.8517 24.004C51.5445 24.004 52.1973 24.1899 52.8101 24.5617C53.4096 24.9197 53.9091 25.4567 54.3088 26.1727C54.6951 26.8749 54.9216 27.708 54.9882 28.6718L56.6069 28.6718L56.6069 29.9937L54.9683 29.9937C54.8484 31.3706 54.4487 32.479 53.7693 33.3189C53.0765 34.1588 52.144 34.5926 50.9716 34.6201L50.9716 31.522C51.9308 31.4394 52.5103 30.93 52.7102 29.9937L48.8934 29.9937C48.6536 30.985 48.4138 31.7837 48.174 32.3895C47.9342 32.9953 47.5478 33.5186 47.0149 33.9592C46.4821 34.3998 45.756 34.6201 44.8368 34.6201C43.6777 34.6201 42.7319 34.1933 41.9992 33.3396C41.2664 32.4721 40.8468 31.3568 40.7402 29.9937L39.1216 29.9937L39.1216 28.6718L40.7402 28.6718C40.8468 27.35 41.2331 26.2966 41.8992 25.5118C42.5654 24.7132 43.4846 24.2657 44.6569 24.1693L44.6569 27.288C44.2706 27.3293 43.9375 27.4739 43.6578 27.7217C43.3647 27.9558 43.1582 28.2725 43.0383 28.6718L46.8151 28.6718C47.0682 27.6391 47.3147 26.8267 47.5545 26.2347C47.781 25.6288 48.1606 25.1056 48.6935 24.665C49.2131 24.2244 49.9325 24.004 50.8517 24.004ZM44.6969 31.6047C45.1365 31.6047 45.4962 31.467 45.776 31.1916C46.0424 30.9162 46.2622 30.5169 46.4354 29.9937L42.9783 29.9937C43.0449 30.4894 43.2248 30.8818 43.5179 31.1709C43.811 31.4601 44.204 31.6047 44.6969 31.6047ZM52.7501 28.6718C52.6569 28.1486 52.4504 27.7424 52.1306 27.4532C51.8109 27.1503 51.4246 26.9989 50.9716 26.9989C50.532 26.9989 50.1789 27.1434 49.9125 27.4326C49.6461 27.7217 49.4262 28.1348 49.2531 28.6718L52.7501 28.6718Z" fill="#E6007A"/>
<path d="M45.9965 16.0136C57.389 16.0136 68.6469 12.3734 66.6244 29.3611C66.6244 36.7326 57.389 42.7085 45.9965 42.7085C34.6041 42.7085 25.3687 36.7326 25.3687 29.3611C24.1554 11.969 34.6041 16.0136 45.9965 16.0136Z" fill="#E3E9F0"/>
<ellipse cx="45.997" cy="23.6989" rx="15.7742" ry="20.6278" transform="rotate(-90 45.997 23.6989)" fill="white"/>
<ellipse cx="45.9967" cy="23.6983" rx="12.5385" ry="16.5832" transform="rotate(-90 45.9967 23.6983)" fill="#E3E9F0"/>
<path d="M49.2331 17.5314C49.9258 17.5314 50.5786 17.7173 51.1914 18.089C51.7909 18.447 52.2905 18.984 52.6902 19.7C53.0765 20.4023 53.303 21.2353 53.3696 22.1992L54.9882 22.1992L54.9882 23.521L53.3496 23.521C53.2297 24.8979 52.83 26.0063 52.1506 26.8463C51.4579 27.6862 50.5253 28.1199 49.353 28.1475L49.353 25.0494C50.3122 24.9668 50.8917 24.4573 51.0915 23.521L47.2747 23.521C47.0349 24.5124 46.7951 25.311 46.5553 25.9168C46.3155 26.5227 45.9292 27.0459 45.3963 27.4865C44.8634 27.9272 44.1373 28.1475 43.2181 28.1475C42.0591 28.1475 41.1132 27.7206 40.3805 26.8669C39.6478 25.9995 39.2281 24.8842 39.1216 23.521L37.5029 23.521L37.5029 22.1992L39.1216 22.1992C39.2281 20.8773 39.6145 19.824 40.2806 19.0391C40.9467 18.2405 41.8659 17.793 43.0383 17.6966L43.0383 20.8153C42.6519 20.8567 42.3189 21.0012 42.0391 21.2491C41.746 21.4832 41.5395 21.7998 41.4196 22.1992L45.1965 22.1992C45.4496 21.1665 45.696 20.3541 45.9358 19.762C46.1623 19.1562 46.542 18.6329 47.0749 18.1923C47.5944 17.7517 48.3138 17.5314 49.2331 17.5314ZM43.0782 25.132C43.5179 25.132 43.8776 24.9943 44.1573 24.7189C44.4238 24.4435 44.6436 24.0442 44.8168 23.521L41.3597 23.521C41.4263 24.0167 41.6061 24.4091 41.8992 24.6983C42.1923 24.9874 42.5853 25.132 43.0782 25.132ZM51.1315 22.1992C51.0382 21.6759 50.8317 21.2697 50.512 20.9806C50.1923 20.6777 49.8059 20.5262 49.353 20.5262C48.9133 20.5262 48.5603 20.6708 48.2939 20.9599C48.0274 21.2491 47.8076 21.6622 47.6344 22.1992L51.1315 22.1992Z" fill="#E6007A"/>
<path d="M45.9965 9.54294C57.389 9.54294 68.6469 5.90273 66.6244 22.8904C66.6244 30.2619 57.389 36.2378 45.9965 36.2378C34.6041 36.2378 25.3687 30.2619 25.3687 22.8904C24.1554 5.49826 34.6041 9.54294 45.9965 9.54294Z" fill="#E3E9F0"/>
<ellipse cx="46.1058" cy="16.6058" rx="15.1515" ry="20.8333" transform="rotate(-90 46.1058 16.6058)" fill="white"/>
<ellipse cx="45.7267" cy="16.2273" rx="11.7424" ry="16.6667" transform="rotate(-90 45.7267 16.2273)" fill="#E3E9F0"/>
</g>
<defs>
<linearGradient id="paint0_linear_1302_1518" x1="5.3873" y1="34.5669" x2="0.000248883" y2="88.815" gradientUnits="userSpaceOnUse">
<stop/>
<stop offset="1" stop-opacity="0"/>
</linearGradient>
<linearGradient id="paint1_linear_1302_1518" x1="25.2457" y1="36.9941" x2="23.2957" y2="120.537" gradientUnits="userSpaceOnUse">
<stop stop-color="white"/>
<stop offset="1" stop-color="white" stop-opacity="0"/>
</linearGradient>
<linearGradient id="paint2_linear_1302_1518" x1="44.6062" y1="62.6812" x2="50.3551" y2="-15.2973" gradientUnits="userSpaceOnUse">
<stop offset="0.104167" stop-color="#E6007A"/>
<stop offset="0.963542" stop-color="white"/>
</linearGradient>
</defs>
</svg>
