<svg width="63" height="46" viewBox="0 0 63 46" fill="none" xmlns="http://www.w3.org/2000/svg">
<path fill-rule="evenodd" clip-rule="evenodd" d="M37.4186 7.99216H41.9798C46.2833 7.99216 49.772 11.4808 49.772 15.7844C49.772 20.0879 46.2833 23.5766 41.9798 23.5766H26.3953C19.9401 23.5766 14.707 18.3435 14.707 11.8883C14.707 5.43299 19.9401 0.199951 26.3953 0.199951C31.4845 0.199951 35.814 3.45245 37.4186 7.99216ZM33.1455 7.99215C31.7982 5.66305 29.2799 4.09604 26.3957 4.09604C22.0922 4.09604 18.6035 7.58473 18.6035 11.8883C18.6035 16.1918 22.0922 19.6805 26.3957 19.6805H41.9801C44.1319 19.6805 45.8762 17.9361 45.8762 15.7844C45.8762 13.6326 44.1319 11.8883 41.9801 11.8883H32.2399C31.164 11.8883 30.2918 11.0161 30.2918 9.9402C30.2918 8.86432 31.164 7.99215 32.2399 7.99215H33.1455V7.99215Z" fill="white"/>
<path d="M19.8721 19.9006L19.8721 37.9921C19.8721 39.1756 18.9127 40.135 17.7292 40.135L13.0539 40.135" stroke="white" stroke-width="3.21429" stroke-linecap="round"/>
<path d="M26.8838 23.5765L26.8838 29.2259C26.8838 30.4094 25.9244 31.3687 24.7409 31.3687L4.28596 31.3687" stroke="white" stroke-width="3.21429" stroke-linecap="round"/>
<circle opacity="0.5" cx="11.4934" cy="39.9398" r="2.92208" fill="white"/>
<circle opacity="0.5" cx="2.92208" cy="31.369" r="2.92208" fill="white"/>
<path d="M31.7568 21.6285L31.7568 40.135" stroke="white" stroke-width="3.21429" stroke-linecap="round"/>
<circle opacity="0.5" r="2.92208" transform="matrix(-1 0 0 1 31.7557 41.6934)" fill="white"/>
<path d="M36.623 23.5765L36.623 29.2259C36.623 30.4094 37.5824 31.3687 38.7659 31.3687L56.7851 31.3687" stroke="white" stroke-width="3.21429" stroke-linecap="round"/>
<path d="M45.001 21.6285L45.001 39.0636C45.001 40.2471 45.9604 41.2065 47.1438 41.2065L51.8192 41.2065" stroke="white" stroke-width="3.21429" stroke-linecap="round"/>
<circle opacity="0.5" r="2.92208" transform="matrix(-1 0 0 1 53.3787 41.0113)" fill="white"/>
<path opacity="0.5" d="M55.7154 31.3695C55.7154 32.9833 57.0237 34.2915 58.6375 34.2915C60.2513 34.2915 61.5596 32.9833 61.5596 31.3695C61.5596 29.7556 60.2513 28.4474 58.6375 28.4474C57.0237 28.4474 55.7154 29.7556 55.7154 31.3695Z" fill="white"/>
</svg>
