<svg width="45" height="41" viewBox="0 0 45 41" fill="none" xmlns="http://www.w3.org/2000/svg">
<mask id="mask0" mask-type="alpha" maskUnits="userSpaceOnUse" x="0" y="0" width="30" height="30">
<path d="M20.5 14.7129C19.2144 17.9958 15.5 15.6938 15.5 29.4258C7.21573 29.4258 0.5 22.8386 0.5 14.7129C0.5 6.5872 7.21573 0 15.5 0C22.0311 0 27.5873 4.09415 29.6465 9.80861C30.1992 11.3426 21.7856 11.43 20.5 14.7129Z" fill="#C4C4C4"/>
</mask>
<g mask="url(#mask0)">
<path fill-rule="evenodd" clip-rule="evenodd" d="M15.5 29.4258C23.7843 29.4258 30.5 22.8386 30.5 14.7129C30.5 6.5872 23.7843 0 15.5 0C7.21573 0 0.5 6.5872 0.5 14.7129C0.5 22.8386 7.21573 29.4258 15.5 29.4258ZM15.5003 26.3285C22.0405 26.3285 27.3424 21.128 27.3424 14.713C27.3424 8.29796 22.0405 3.09754 15.5003 3.09754C8.96009 3.09754 3.6582 8.29796 3.6582 14.713C3.6582 21.128 8.96009 26.3285 15.5003 26.3285Z" fill="white"/>
<path fill-rule="evenodd" clip-rule="evenodd" d="M19.5183 18.6645C19.9688 18.3458 20.5988 18.5856 20.7232 19.1233L21.0247 20.4262C21.1372 20.9121 20.8238 21.3948 20.3249 21.5043C20.094 21.555 19.852 21.5176 19.6484 21.3999L18.4979 20.7346C18.0078 20.4512 17.976 19.7555 18.4382 19.4286L19.5183 18.6645Z" fill="white" fill-opacity="0.5"/>
<path fill-rule="evenodd" clip-rule="evenodd" d="M17.3255 18.3078L11.9457 21.4186C11.5112 21.6461 10.9658 21.5014 10.7115 21.0843C10.5907 20.8862 10.5523 20.6504 10.6044 20.4256L11.5847 16.1894L8.23482 13.3234C7.85056 12.9947 7.81271 12.4248 8.15027 12.0506C8.30648 11.8774 8.52484 11.7691 8.7605 11.7478L13.2004 11.3467L14.9641 7.35839C15.1664 6.90091 15.7112 6.68975 16.1809 6.88676C16.3983 6.97793 16.5716 7.14669 16.6652 7.35839L18.4289 11.3467L22.8688 11.7478C23.378 11.7938 23.7526 12.2331 23.7054 12.7291C23.6854 12.9388 23.5908 13.1345 23.4389 13.2827L18.7234 17.3176L17.3255 18.3078Z" fill="white"/>
</g>
<path fill-rule="evenodd" clip-rule="evenodd" d="M29.499 39.2344C37.7833 39.2344 44.499 32.6472 44.499 24.5215C44.499 16.3958 37.7833 9.80859 29.499 9.80859C21.2148 9.80859 14.499 16.3958 14.499 24.5215C14.499 32.6472 21.2148 39.2344 29.499 39.2344ZM29.4989 36.1372C36.0391 36.1372 41.341 30.9368 41.341 24.5217C41.341 18.1067 36.0391 12.9063 29.4989 12.9063C22.9587 12.9063 17.6568 18.1067 17.6568 24.5217C17.6568 30.9368 22.9587 36.1372 29.4989 36.1372Z" fill="white"/>
<path fill-rule="evenodd" clip-rule="evenodd" d="M26.9286 20.2977C26.3706 20.3557 25.9387 19.8353 26.107 19.3077L27.0023 16.5005C27.2523 15.7166 28.1033 15.2783 28.903 15.5215C29.2731 15.634 29.5848 15.8812 29.7742 16.2122L31.2347 18.7651C31.5108 19.2477 31.1891 19.8549 30.6265 19.9134L26.9286 20.2977Z" fill="white" fill-opacity="0.5"/>
<path fill-rule="evenodd" clip-rule="evenodd" d="M29.9036 21.0649L36.1424 20.9836C36.634 20.9978 37.0305 21.3894 37.0361 21.8758C37.0387 22.107 36.9509 22.3306 36.7906 22.5006L33.7716 25.7048L35.1927 29.8289C35.3557 30.3019 35.0961 30.8157 34.6128 30.9764C34.3891 31.0508 34.1451 31.0385 33.9308 30.9421L29.8932 29.1263L26.3253 31.7331C25.916 32.0322 25.3375 31.9501 25.0331 31.5499C24.8923 31.3646 24.8293 31.1335 24.8571 30.9038L25.3807 26.5775L21.7545 24.0645C21.3386 23.7763 21.2407 23.2118 21.5359 22.8037C21.6607 22.6312 21.8427 22.5072 22.0498 22.4524L28.1892 21.2441L29.9036 21.0649Z" fill="white"/>
</svg>
