<svg width="22" height="21" viewBox="0 0 22 21" fill="none" xmlns="http://www.w3.org/2000/svg">
<path fill-rule="evenodd" clip-rule="evenodd" d="M5.12601 8.90014C5.14411 8.41723 4.7673 8.01108 4.28439 7.99297C3.88909 7.97816 3.50812 7.8663 3.16654 7.66886C2.74815 7.42703 2.21294 7.57015 1.97111 7.98854C1.72927 8.40692 1.8724 8.94214 2.29078 9.18397C2.87691 9.52276 3.53553 9.71613 4.21884 9.74175C4.70175 9.75985 5.1079 9.38305 5.12601 8.90014ZM6.26638 11.6942C6.13055 11.2305 5.64447 10.9646 5.18071 11.1005C4.97932 11.1595 4.76673 11.1892 4.54046 11.1892C4.38172 11.1892 4.23 11.1743 4.08446 11.1447C3.61088 11.0485 3.14898 11.3544 3.05278 11.828C2.95658 12.3016 3.2625 12.7635 3.73608 12.8597C3.99753 12.9128 4.26594 12.9392 4.54046 12.9392C4.93125 12.9392 5.30946 12.8863 5.67261 12.7799C6.13638 12.6441 6.40222 12.158 6.26638 11.6942Z" fill="white" fill-opacity="0.5"/>
<path fill-rule="evenodd" clip-rule="evenodd" d="M17.9125 7.8601C17.7792 7.94459 17.629 8.03356 17.596 8.22971C17.4211 13.7632 13.1654 18.375 7.10156 18.375C5.52502 18.375 3.32337 17.8155 2.26207 16.9476C2.01696 16.7471 1.85156 16.5165 1.85156 16.1265C1.85156 15.5693 2.29569 15.0955 2.8728 15.0955C3.70176 15.0955 5.39764 14.269 6.54555 13.3244C6.9187 13.0173 7.47012 13.0709 7.7772 13.444C8.08427 13.8171 8.03071 14.3686 7.65757 14.6756C6.87607 15.3188 5.91497 15.9063 4.98878 16.3073C5.69798 16.5028 6.48095 16.625 7.10156 16.625C12.2823 16.625 15.8516 12.6387 15.8516 7.875C15.8516 7.45738 15.951 7.24331 16.5868 6.77548C16.5868 6.77548 16.2048 6.39326 15.9135 6.05395C15.7854 5.90474 15.295 5.30628 15.1998 5.19991C14.7214 4.66584 14.1063 4.375 13.4285 4.375C12.0771 4.375 10.958 5.53564 10.9362 6.99122L10.948 7.10256C11.03 7.8768 10.4688 8.5709 9.69456 8.65286C9.58674 8.66428 9.47797 8.66321 9.3704 8.6497C6.66742 8.31008 4.61407 7.10252 2.91082 4.91212C2.61418 4.53063 2.68296 3.9809 3.06444 3.68426C3.44593 3.38761 3.99566 3.45639 4.29231 3.83788C5.62994 5.55809 7.15731 6.51284 9.18938 6.85483C9.28008 4.51328 11.1361 2.625 13.4285 2.625C14.6182 2.625 15.7017 3.13731 16.5034 4.03238C16.6298 4.17351 17.1364 4.79187 17.2412 4.91394C17.5595 5.2846 17.7725 5.56148 18.0259 5.67372C18.2793 5.78597 19.04 5.73281 19.2577 6.16423C19.4754 6.59566 19.3022 7.1219 18.8708 7.33961C18.3053 7.62498 18.2035 7.67574 17.9125 7.8601Z" fill="white"/>
</svg>
