<svg width="45" height="41" viewBox="0 0 45 41" fill="none" xmlns="http://www.w3.org/2000/svg">
<path fill-rule="evenodd" clip-rule="evenodd" d="M18.101 22.0774C18.101 22.7306 17.5637 23.2601 16.901 23.2601C16.2382 23.2601 15.701 22.7306 15.701 22.0774C15.701 20.7711 14.6265 19.7121 13.301 19.7121C11.9755 19.7121 10.901 20.7711 10.901 22.0774C10.901 23.3838 11.9755 24.4428 13.301 24.4428C13.9637 24.4428 14.501 24.9723 14.501 25.6255C14.501 26.2787 13.9637 26.8082 13.301 26.8082C10.65 26.8082 8.50098 24.6902 8.50098 22.0774C8.50098 19.4647 10.65 17.3467 13.301 17.3467C15.9519 17.3467 18.101 19.4647 18.101 22.0774Z" fill="white" fill-opacity="0.5"/>
<path fill-rule="evenodd" clip-rule="evenodd" d="M11.2936 13.8731C11.2086 14.5144 10.8266 15.0819 10.2577 15.4116L8.80319 16.2548C8.22344 16.5909 7.5161 16.6417 6.89241 16.3919L5.89894 15.9941C5.67947 15.9062 5.42777 15.9893 5.30624 16.1897L3.92507 18.4673C3.79801 18.6768 3.85357 18.9473 4.05334 19.0916L4.98411 19.764C5.53287 20.1604 5.85667 20.788 5.85667 21.4552V22.7003C5.85667 23.3675 5.53287 23.9951 4.98411 24.3915L4.05334 25.0639C3.85357 25.2082 3.79801 25.4786 3.92507 25.6882L5.30624 27.9658C5.42777 28.1662 5.67947 28.2493 5.89894 28.1614L6.89241 27.7636C7.5161 27.5138 8.22344 27.5646 8.80319 27.9007L10.2577 28.7439C10.8266 29.0736 11.2086 29.6411 11.2936 30.2824L11.4055 31.1274C11.4367 31.363 11.6404 31.5393 11.8815 31.5393H14.7203C14.9614 31.5393 15.1651 31.363 15.1963 31.1274L15.3082 30.2824C15.3932 29.6411 15.7752 29.0736 16.3441 28.7439L17.7986 27.9007C18.3784 27.5646 19.0857 27.5138 19.7094 27.7636L20.7029 28.1614C20.9223 28.2493 21.174 28.1662 21.2956 27.9658L22.6767 25.6882C22.8038 25.4786 22.7482 25.2082 22.5485 25.0639L21.6177 24.3915C21.0689 23.9951 20.7451 23.3675 20.7451 22.7003V21.4552C20.7451 20.788 21.0689 20.1604 21.6177 19.764L22.5485 19.0916C22.7482 18.9473 22.8038 18.6768 22.6767 18.4673L21.2956 16.1897C21.174 15.9893 20.9223 15.9062 20.7029 15.9941L19.7094 16.3919C19.0857 16.6417 18.3784 16.5909 17.7986 16.2548L16.3441 15.4116C15.7752 15.0819 15.3932 14.5144 15.3082 13.8731L15.1963 13.028C15.1651 12.7924 14.9614 12.6162 14.7203 12.6162H11.8815C11.6404 12.6162 11.4367 12.7924 11.4055 13.028L11.2936 13.8731ZM11.2644 10.2505H15.3371C16.3318 10.2505 17.1807 10.9687 17.3084 11.94L17.4716 13.1813C17.4906 13.3256 17.5759 13.4533 17.7029 13.5275L18.7723 14.1523C18.9018 14.2279 19.0597 14.2393 19.199 14.1831L20.5159 13.6517C21.4299 13.2828 22.4881 13.6244 22.9915 14.461L25.0279 17.8451C25.5405 18.6971 25.3117 19.7851 24.5032 20.3737L23.2323 21.2989C23.1098 21.3881 23.0375 21.5293 23.0375 21.6794V22.4754C23.0375 22.6255 23.1098 22.7667 23.2323 22.8559L24.5032 23.7811C25.3117 24.3697 25.5405 25.4578 25.0279 26.3097L22.9915 29.6938C22.4881 30.5304 21.4299 30.872 20.5159 30.5031L19.199 29.9717C19.0597 29.9155 18.9018 29.9269 18.7723 30.0025L17.7029 30.6273C17.5759 30.7015 17.4906 30.8292 17.4716 30.9735L17.3084 32.2148C17.1807 33.1861 16.3318 33.9043 15.3371 33.9043H11.2644C10.2697 33.9043 9.42082 33.1861 9.29313 32.2148L9.12995 30.9735C9.11097 30.8292 9.02568 30.7015 8.89868 30.6273L7.82922 30.0025C7.69978 29.9269 7.54185 29.9155 7.40259 29.9717L6.08565 30.5031C5.17163 30.872 4.11351 30.5304 3.61007 29.6938L1.57371 26.3097C1.06107 25.4578 1.28986 24.3697 2.09837 23.7811L3.36924 22.8559C3.49176 22.7667 3.56406 22.6255 3.56406 22.4754V21.6794C3.56406 21.5293 3.49176 21.3881 3.36924 21.2989L2.09837 20.3737C1.28986 19.7851 1.06107 18.6971 1.57371 17.8451L3.61007 14.461C4.11351 13.6244 5.17163 13.2828 6.08565 13.6517L7.40259 14.1831C7.54185 14.2393 7.69978 14.2279 7.82922 14.1523L8.89868 13.5275C9.02568 13.4533 9.11097 13.3256 9.12995 13.1813L9.29313 11.94C9.42082 10.9687 10.2697 10.2505 11.2644 10.2505Z" fill="white"/>
<mask id="mask0" mask-type="alpha" maskUnits="userSpaceOnUse" x="10" y="-2" width="36" height="35">
<path d="M14.9002 4.73077L11.7002 10.25L14.1002 11.0385L15.7002 11.8269L18.1002 14.9808H21.3002L23.7002 18.9231L22.1002 21.2885L23.7002 23.6538L22.1002 31.5385H30.9002L39.7002 27.5962L44.5002 19.7115L44.0404 10.8056L40.0404 4.49792L31.7002 0H23.7002L14.9002 4.73077Z" fill="white" stroke="black" stroke-width="2.14583"/>
</mask>
<g mask="url(#mask0)">
<path fill-rule="evenodd" clip-rule="evenodd" d="M34.1014 14.9807C34.1014 15.7427 33.4746 16.3605 32.7014 16.3605C31.9282 16.3605 31.3014 15.7427 31.3014 14.9807C31.3014 13.4566 30.0478 12.221 28.5014 12.221C26.955 12.221 25.7014 13.4566 25.7014 14.9807C25.7014 16.5048 26.955 17.7403 28.5014 17.7403C29.2746 17.7403 29.9014 18.358 29.9014 19.1201C29.9014 19.8821 29.2746 20.4999 28.5014 20.4999C25.4086 20.4999 22.9014 18.0288 22.9014 14.9807C22.9014 11.9325 25.4086 9.46143 28.5014 9.46143C31.5942 9.46143 34.1014 11.9325 34.1014 14.9807Z" fill="white" fill-opacity="0.5"/>
<path fill-rule="evenodd" clip-rule="evenodd" d="M25.0234 4.82961C24.9101 5.68475 24.4007 6.44132 23.6423 6.881L21.7029 8.00529C20.9299 8.4534 19.9867 8.52106 19.1552 8.18806L17.8305 7.65763C17.5379 7.54045 17.2023 7.6512 17.0403 7.91841L15.1987 10.9553C15.0293 11.2347 15.1034 11.5952 15.3697 11.7876L16.6108 12.6841C17.3424 13.2127 17.7742 14.0495 17.7742 14.9391V16.5992C17.7742 17.4889 17.3424 18.3257 16.6108 18.8542L15.3697 19.7507C15.1034 19.9431 15.0293 20.3037 15.1987 20.5831L17.0403 23.6199C17.2023 23.8871 17.5379 23.9979 17.8305 23.8807L19.1552 23.3503C19.9867 23.0173 20.9299 23.0849 21.7029 23.5331L23.6423 24.6574C24.4007 25.097 24.9101 25.8536 25.0234 26.7087L25.1726 27.8355C25.2142 28.1496 25.4858 28.3846 25.8072 28.3846H29.5924C29.9138 28.3846 30.1854 28.1496 30.227 27.8355L30.3763 26.7087C30.4895 25.8536 30.9989 25.097 31.7574 24.6574L33.6968 23.5331C34.4698 23.0849 35.4129 23.0173 36.2445 23.3503L37.5691 23.8807C37.8617 23.9979 38.1973 23.8871 38.3594 23.6199L40.2009 20.5831C40.3703 20.3037 40.2963 19.9431 40.0299 19.7507L38.7889 18.8542C38.0572 18.3257 37.6255 17.4889 37.6255 16.5992V14.9391C37.6255 14.0495 38.0572 13.2127 38.7889 12.6841L40.0299 11.7876C40.2963 11.5952 40.3703 11.2347 40.2009 10.9553L38.3594 7.91841C38.1973 7.6512 37.8617 7.54045 37.5691 7.65763L36.2445 8.18806C35.4129 8.52106 34.4698 8.4534 33.6968 8.00529L31.7574 6.881C30.9989 6.44132 30.4895 5.68475 30.3763 4.82961L30.227 3.70289C30.1854 3.38876 29.9138 3.15379 29.5924 3.15379H25.8072C25.4858 3.15379 25.2142 3.38876 25.1726 3.70289L25.0234 4.82961ZM24.985 0H30.4153C31.7416 0 32.8735 0.957623 33.0437 2.2527L33.2613 3.90781C33.2866 4.10021 33.4003 4.27044 33.5697 4.36937L34.9956 5.20239C35.1682 5.30322 35.3788 5.31844 35.5644 5.24352L37.3204 4.53493C38.5391 4.04314 39.9499 4.49854 40.6211 5.61405L43.3363 10.1262C44.0198 11.2621 43.7148 12.7129 42.6367 13.4977L40.9422 14.7312C40.7789 14.8501 40.6825 15.0384 40.6825 15.2386V16.2999C40.6825 16.5 40.7789 16.6883 40.9422 16.8073L42.6367 18.0408C43.7148 18.8256 44.0198 20.2764 43.3363 21.4123L40.6211 25.9244C39.9499 27.0399 38.5391 27.4953 37.3204 27.0035L35.5644 26.2949C35.3788 26.22 35.1682 26.2352 34.9956 26.3361L33.5697 27.1691C33.4003 27.268 33.2866 27.4382 33.2613 27.6307L33.0437 29.2858C32.8735 30.5808 31.7416 31.5385 30.4153 31.5385H24.985C23.6588 31.5385 22.5269 30.5808 22.3567 29.2858L22.1391 27.6307C22.1138 27.4382 22.0001 27.268 21.8307 27.1691L20.4048 26.3361C20.2322 26.2352 20.0216 26.22 19.8359 26.2949L18.08 27.0035C16.8613 27.4953 15.4505 27.0399 14.7792 25.9244L12.0641 21.4123C11.3806 20.2764 11.6856 18.8256 12.7636 18.0408L14.4581 16.8073C14.6215 16.6883 14.7179 16.5 14.7179 16.2999V15.2386C14.7179 15.0384 14.6215 14.8501 14.4581 14.7312L12.7636 13.4977C11.6856 12.7129 11.3806 11.2621 12.0641 10.1262L14.7792 5.61405C15.4505 4.49854 16.8613 4.04314 18.08 4.53493L19.8359 5.24352C20.0216 5.31844 20.2322 5.30322 20.4048 5.20239L21.8307 4.36937C22.0001 4.27044 22.1138 4.10021 22.1391 3.90781L22.3567 2.2527C22.5269 0.957623 23.6588 0 24.985 0Z" fill="white"/>
</g>
<path fill-rule="evenodd" clip-rule="evenodd" d="M2.86538 36.2695C1.55902 36.2695 0.5 37.3285 0.5 38.6349C0.5 39.9413 1.55902 41.0003 2.86539 41.0003H41.3346C42.641 41.0003 43.7 39.9413 43.7 38.6349C43.7 37.3285 42.641 36.2695 41.3346 36.2695H2.86538ZM3.46265 37.4966C3.13537 37.4966 2.87006 37.7619 2.87006 38.0891V39.2401C2.87006 39.5674 3.13537 39.8327 3.46265 39.8327C3.78993 39.8327 4.05524 39.5674 4.05524 39.2401V38.0891C4.05524 37.7619 3.78993 37.4966 3.46265 37.4966ZM5.24005 38.0891C5.24005 37.7618 5.50536 37.4965 5.83264 37.4965C6.15992 37.4965 6.42524 37.7618 6.42524 38.0891V39.2401C6.42524 39.5674 6.15992 39.8327 5.83264 39.8327C5.50536 39.8327 5.24005 39.5674 5.24005 39.2401V38.0891ZM8.2027 37.4965C7.87542 37.4965 7.61011 37.7618 7.61011 38.0891V39.2401C7.61011 39.5674 7.87542 39.8327 8.2027 39.8327C8.52998 39.8327 8.79529 39.5674 8.79529 39.2401V38.0891C8.79529 37.7618 8.52998 37.4965 8.2027 37.4965ZM9.98016 38.0891C9.98016 37.7618 10.2455 37.4965 10.5728 37.4965C10.9 37.4965 11.1653 37.7618 11.1653 38.0891V39.2401C11.1653 39.5674 10.9 39.8327 10.5728 39.8327C10.2455 39.8327 9.98016 39.5674 9.98016 39.2401V38.0891ZM12.9449 37.4965C12.6176 37.4965 12.3523 37.7618 12.3523 38.0891V39.2401C12.3523 39.5674 12.6176 39.8327 12.9449 39.8327C13.2722 39.8327 13.5375 39.5674 13.5375 39.2401V38.0891C13.5375 37.7618 13.2722 37.4965 12.9449 37.4965Z" fill="white"/>
</svg>
