<svg width="101" height="134" viewBox="0 0 101 134" fill="none" xmlns="http://www.w3.org/2000/svg">
<mask id="mask0_1208_1167" style="mask-type:alpha" maskUnits="userSpaceOnUse" x="0" y="0" width="101" height="134">
<rect width="101" height="133.5" fill="#C4C4C4"/>
</mask>
<g mask="url(#mask0_1208_1167)">
<path opacity="0.1" d="M0.115234 35.1763L0.115234 139.497C39.3714 139.497 61.3808 139.497 100.637 139.497V35.1763L50.3761 64.196L0.115234 35.1763Z" fill="url(#paint0_linear_1208_1167)"/>
<path opacity="0.3" d="M0.115234 35.1763L0.115234 122.743H50.3761V64.196L0.115234 35.1763Z" fill="url(#paint1_linear_1208_1167)"/>
<path d="M0 35.1099L50.4245 5.99729L100.849 35.1099L50.4245 64.2224L0 35.1099Z" fill="url(#paint2_linear_1208_1167)"/>
<path opacity="0.4" d="M8.04199 33.9448L50.5486 9.40352L94.0311 33.944L51.5245 58.4853L8.04199 33.9448Z" fill="#1C1C26"/>
<path d="M14.3787 33.3476L14.3787 21.7178L86.7773 20.1501L86.7773 31.7799L48.9133 53.6407L14.3787 33.3476Z" fill="#E8EFF8"/>
<path d="M48.9128 20.0555L86.7769 20.0555L86.7769 31.86L48.9129 53.7209L48.9128 20.0555Z" fill="#8BA1BE" fill-opacity="0.2"/>
<path d="M14.0337 21.8594L51.8977 -0.00144156L86.7772 20.1362L48.9131 41.997L14.0337 21.8594Z" fill="white"/>
<path d="M46.8284 9.49197L37.607 22.61L45.6311 27.2427L68.3521 21.9187L68.3521 16.6715L63.8009 12.1196L55.9168 9.49197L46.8284 9.49197Z" stroke="#1C1C26" stroke-width="1.36042" stroke-miterlimit="10"/>
<path d="M33.8678 29.4019L63.8008 12.1201" stroke="#1C1C26" stroke-width="1.36042" stroke-miterlimit="10"/>
<path d="M62.5124 12.8638C63.224 13.2746 64.3776 13.2746 65.0891 12.8638C65.8007 12.453 65.8007 11.787 65.0891 11.3761C64.3776 10.9653 63.224 10.9653 62.5124 11.3761C61.8009 11.787 61.8009 12.453 62.5124 12.8638Z" fill="#1C1C26"/>
<path d="M38.9929 20.3219C39.7071 19.9096 40.8554 19.9096 41.5696 20.3219C42.2768 20.7302 42.2838 21.3973 41.5696 21.8096L36.2202 24.8981C35.506 25.3104 34.3577 25.3104 33.6435 24.8981C32.9363 24.4898 32.9293 23.8228 33.6435 23.4104L38.9929 20.3219Z" fill="#E6007A"/>
<path d="M43.0051 22.6388C43.7193 22.2265 44.8676 22.2265 45.5818 22.6388C46.289 23.0471 46.296 23.7142 45.5818 24.1265L40.2324 27.215C39.5182 27.6273 38.3699 27.6273 37.6557 27.215C36.9485 26.8067 36.9415 26.1397 37.6557 25.7273L43.0051 22.6388V22.6388Z" fill="#E6007A"/>
<path d="M47.0176 24.9551C47.7108 24.5387 48.8661 24.5185 49.5873 24.9187C50.3085 25.3189 50.3435 25.986 49.6503 26.4023C49.6293 26.4145 49.6083 26.4266 49.5873 26.4387L44.2379 29.5272C43.5167 29.9274 42.3544 29.9112 41.6682 29.4908C40.996 29.0866 40.996 28.4479 41.6682 28.0436L47.0176 24.9551Z" fill="#E6007A"/>
<path d="M68.3518 21.9189L51.3723 19.2953L46.8281 9.49219" stroke="#1C1C26" stroke-width="1.36042" stroke-miterlimit="10"/>
<path d="M62.5124 12.8638C63.224 13.2746 64.3776 13.2746 65.0891 12.8638C65.8007 12.453 65.8007 11.787 65.0891 11.3761C64.3776 10.9653 63.224 10.9653 62.5124 11.3761C61.8009 11.787 61.8009 12.453 62.5124 12.8638Z" fill="#1C1C26"/>
<path d="M45.5398 10.2364C46.2513 10.6472 47.4049 10.6472 48.1165 10.2364C48.828 9.82555 48.828 9.15951 48.1165 8.74871C47.4049 8.3379 46.2513 8.3379 45.5398 8.74871C44.8283 9.15951 44.8283 9.82555 45.5398 10.2364Z" fill="#1C1C26"/>
<path d="M67.0632 22.6626C67.7748 23.0734 68.9284 23.0734 69.6399 22.6626C70.3514 22.2518 70.3514 21.5858 69.6399 21.175C68.9284 20.7642 67.7748 20.7642 67.0632 21.175C66.3517 21.5858 66.3517 22.2518 67.0632 22.6626Z" fill="#1C1C26"/>
<path d="M68.3518 16.6717L51.3723 19.2953L55.9165 9.49219" stroke="#1C1C26" stroke-width="1.36042" stroke-miterlimit="10"/>
<path d="M54.6282 10.2364C55.3397 10.6472 56.4933 10.6472 57.2048 10.2364C57.9164 9.82555 57.9164 9.15951 57.2048 8.74871C56.4933 8.3379 55.3397 8.3379 54.6282 8.74871C53.9166 9.15951 53.9166 9.82555 54.6282 10.2364Z" fill="#1C1C26"/>
<path d="M67.0632 17.4151C67.7748 17.8259 68.9284 17.8259 69.6399 17.4151C70.3514 17.0043 70.3514 16.3382 69.6399 15.9274C68.9284 15.5166 67.7748 15.5166 67.0632 15.9274C66.3517 16.3382 66.3517 17.0043 67.0632 17.4151Z" fill="#1C1C26"/>
<path d="M50.0701 15.4709L44.7206 18.5594C44.0064 18.9717 44.0065 19.6347 44.7206 20.047L50.0701 23.1355C50.7842 23.5478 51.9326 23.5478 52.6467 23.1355L57.9962 20.047C58.7103 19.6347 58.7103 18.9717 57.9962 18.5594L52.6467 15.4709C51.9326 15.0585 50.7842 15.0585 50.0701 15.4709Z" fill="#1C1C26"/>
<path d="M52.6467 17.7912L53.9841 18.5633C54.6983 18.9756 54.6983 19.6386 53.9841 20.051L52.6467 20.8231C51.9326 21.2354 50.7842 21.2354 50.0701 20.8231L48.7327 20.051C48.0185 19.6386 48.0185 18.9756 48.7327 18.5633L50.0701 17.7912C50.7842 17.3789 51.9326 17.3788 52.6467 17.7912Z" fill="white"/>
</g>
<defs>
<linearGradient id="paint0_linear_1208_1167" x1="5.3873" y1="32.749" x2="0.00024892" y2="86.9971" gradientUnits="userSpaceOnUse">
<stop/>
<stop offset="1" stop-opacity="0"/>
</linearGradient>
<linearGradient id="paint1_linear_1208_1167" x1="25.2457" y1="35.1763" x2="23.2957" y2="118.719" gradientUnits="userSpaceOnUse">
<stop stop-color="white"/>
<stop offset="1" stop-color="white" stop-opacity="0"/>
</linearGradient>
<linearGradient id="paint2_linear_1208_1167" x1="44.6062" y1="60.8633" x2="50.3551" y2="-17.1151" gradientUnits="userSpaceOnUse">
<stop offset="0.104167" stop-color="#E6007A"/>
<stop offset="0.963542" stop-color="white"/>
</linearGradient>
</defs>
</svg>
