<svg width="19" height="20" viewBox="0 0 19 20" fill="none" xmlns="http://www.w3.org/2000/svg">
<path fill-rule="evenodd" clip-rule="evenodd" d="M18.208 10.3955C18.208 14.9864 14.4864 18.708 9.89551 18.708C5.30464 18.708 1.58301 14.9864 1.58301 10.3955C1.58301 5.80464 5.30464 2.08301 9.89551 2.08301C14.4864 2.08301 18.208 5.80464 18.208 10.3955ZM16.6247 10.3955C16.6247 14.1119 13.6119 17.1247 9.89551 17.1247C6.17909 17.1247 3.16634 14.1119 3.16634 10.3955C3.16634 6.67909 6.17909 3.66634 9.89551 3.66634C13.6119 3.66634 16.6247 6.67909 16.6247 10.3955Z" />
<path fill-rule="evenodd" clip-rule="evenodd" d="M10.2913 10.0003H13.458C13.8952 10.0003 14.2497 10.3548 14.2497 10.792C14.2497 11.2292 13.8952 11.5837 13.458 11.5837H9.49967C9.28106 11.5837 9.08315 11.495 8.93988 11.3518C8.79662 11.2085 8.70801 11.0106 8.70801 10.792V6.83366C8.70801 6.39643 9.06245 6.04199 9.49967 6.04199C9.9369 6.04199 10.2913 6.39643 10.2913 6.83366V10.0003Z"  fill-opacity="0.5"/>
</svg>
