<svg width="24" height="24" viewBox="0 0 24 24" fill="none" xmlns="http://www.w3.org/2000/svg">
<path fill-rule="evenodd" clip-rule="evenodd" d="M7.51203 12.0669C7.17351 11.4535 7 10.8781 7 10.342C7 9.73474 7.16266 9.22369 7.47985 8.77835C7.54684 8.68431 7.61866 8.59594 7.70264 8.50364C7.72242 8.4819 7.74805 8.45477 7.81262 8.38707C7.84119 8.35724 7.84119 8.35724 7.86038 8.33733L7.86813 8.32934C7.86725 8.33025 7.86725 8.33025 7.85914 8.33814L7.87244 8.32504C8.07405 8.11216 8.3351 8 8.59278 8C8.79751 8 8.93748 8.00244 9.05964 8.00832C9.08545 8.00894 9.08545 8.00894 9.10629 8.00883C9.37163 8.00742 9.51201 8.09649 9.65956 8.39611C9.6716 8.42118 9.6716 8.42118 9.67721 8.4332L9.67769 8.43423C9.68333 8.44668 9.68333 8.44668 9.69664 8.4769C9.75439 8.61113 9.82347 8.77335 10.0237 9.24482C10.2818 9.85214 10.4055 10.1394 10.4339 10.1943C10.533 10.386 10.5396 10.5375 10.4538 10.7037C10.4317 10.7471 10.4317 10.7471 10.419 10.772C10.405 10.7993 10.405 10.7993 10.3805 10.847C10.3604 10.8852 10.342 10.9175 10.3225 10.9487C10.2868 11.0057 10.2472 11.0584 10.1979 11.114C10.151 11.1675 10.151 11.1675 10.0763 11.2553C9.97636 11.373 9.92805 11.4282 9.88615 11.4724L9.64904 11.7223L9.83437 12.0135C10.1776 12.5527 10.5936 13.0499 11.0598 13.4519C11.4455 13.7845 11.8404 14.0515 12.2609 14.2687C12.4122 14.3469 12.7151 14.4829 12.95 14.5832L13.2353 14.705L13.4425 14.4723C13.7236 14.1566 14.0129 13.8106 14.1187 13.6569C14.2895 13.4091 14.4324 13.3754 14.7853 13.4996C14.945 13.5559 15.7685 13.9361 16.4408 14.2613C16.5169 14.2976 16.5169 14.2976 16.6363 14.3535C16.7094 14.3881 16.7523 14.4103 16.7913 14.4335C16.8709 14.4808 16.9144 14.5208 16.9471 14.5736C17.045 14.7315 17.0101 15.2521 16.8166 15.7768C16.636 16.2663 15.7633 16.8585 15.1058 16.9534C14.5277 17.0371 14.038 17.0098 13.5431 16.8577C13.0057 16.6929 12.6245 16.5574 12.1611 16.3639C11.3408 16.0215 10.5449 15.4996 9.77749 14.8104C9.32973 14.4082 8.9111 13.9669 8.52171 13.4918C8.42572 13.3746 8.27697 13.1825 8.12988 12.9874C8.0746 12.9141 8.04738 12.8776 8.00303 12.8172C7.81425 12.5694 7.66877 12.3509 7.51203 12.0669Z" fill="white" fill-opacity="0.5"/>
<path fill-rule="evenodd" clip-rule="evenodd" d="M4.44233 19.5559L7.52375 18.6314C8.80122 19.4954 10.3417 20 12 20C16.4183 20 20 16.4183 20 12C20 7.58172 16.4183 4 12 4C7.58172 4 4 7.58172 4 12C4 13.6573 4.50394 15.1969 5.36693 16.4739L4.44233 19.5559ZM3.19671 16.7477C2.43335 15.3352 2 13.7182 2 12C2 6.47715 6.47715 2 12 2C17.5228 2 22 6.47715 22 12C22 17.5228 17.5228 22 12 22C10.2806 22 8.66264 21.5661 7.24951 20.8018L3.41608 21.9518C2.83419 22.1264 2.22096 21.7962 2.04639 21.2143C1.98454 21.0081 1.98454 20.7883 2.04639 20.5821L3.19671 16.7477Z" fill="white"/>
</svg>
