<svg width="40" height="350" viewBox="60 0 65 600" fill="none" xmlns="http://www.w3.org/2000/svg">
<g filter="url(#filter0_d_669_9954)">
<path d="M71.6675 594.602L71.6675 0.342896L99.1728 0.342894C111.166 0.342894 120.888 10.0649 120.888 22.0576L120.888 572.888C120.888 584.88 111.166 594.602 99.1728 594.602L71.6675 594.602Z" fill="#2E303C"/>
</g>
<path d="M93.3824 527.519C93.1797 527.519 92.9698 527.468 92.7816 527.367C92.369 527.15 92.1157 526.715 92.1157 526.252V525.224C89.9298 525 88.4966 523.393 88.4966 521.091V516.748C88.4966 514.258 90.1686 512.586 92.6586 512.586H99.8968C102.387 512.586 104.059 514.258 104.059 516.748V521.091C104.059 523.581 102.387 525.253 99.8968 525.253H97.168L94.0845 527.309C93.8746 527.446 93.6285 527.519 93.3824 527.519ZM92.6586 513.665C90.7911 513.665 89.5823 514.873 89.5823 516.741V521.084C89.5823 522.951 90.7911 524.16 92.6586 524.16C92.9553 524.16 93.2014 524.406 93.2014 524.703V526.245C93.2014 526.339 93.2593 526.382 93.2955 526.404C93.3317 526.426 93.4041 526.447 93.4837 526.397L96.7048 524.254C96.7916 524.196 96.9002 524.16 97.0088 524.16H99.9041C101.772 524.16 102.98 522.951 102.98 521.084V516.741C102.98 514.873 101.772 513.665 99.9041 513.665H92.6586Z" fill="white"/>
<path d="M96.2776 520.128C95.9808 520.128 95.7347 519.882 95.7347 519.586V519.434C95.7347 518.594 96.35 518.181 96.5816 518.022C96.8494 517.841 96.9363 517.718 96.9363 517.53C96.9363 517.168 96.6395 516.871 96.2776 516.871C95.9157 516.871 95.6189 517.168 95.6189 517.53C95.6189 517.827 95.3728 518.073 95.0761 518.073C94.7793 518.073 94.5332 517.827 94.5332 517.53C94.5332 516.567 95.3149 515.786 96.2776 515.786C97.2403 515.786 98.022 516.567 98.022 517.53C98.022 518.355 97.414 518.768 97.1896 518.92C96.9073 519.108 96.8205 519.231 96.8205 519.434V519.586C96.8205 519.89 96.5744 520.128 96.2776 520.128Z" fill="white"/>
<path d="M96.2777 521.931C95.9737 521.931 95.7349 521.685 95.7349 521.388C95.7349 521.091 95.981 520.845 96.2777 520.845C96.5745 520.845 96.8206 521.091 96.8206 521.388C96.8206 521.685 96.5817 521.931 96.2777 521.931Z" fill="white"/>
<path d="M102.068 296.387V300.006C102.068 303.625 100.62 305.073 97.001 305.073H92.6581C89.039 305.073 87.5913 303.625 87.5913 300.006V295.663C87.5913 292.044 89.039 290.596 92.6581 290.596H96.2772" stroke="white" stroke-width="1.08574" stroke-linecap="round" stroke-linejoin="round"/>
<path d="M102.067 296.387H99.1722C97.0007 296.387 96.2769 295.663 96.2769 293.492V290.596L102.067 296.387Z" stroke="white" stroke-width="1.08574" stroke-linecap="round" stroke-linejoin="round"/>
<path d="M91.2104 298.558H95.5534" stroke="white" stroke-width="1.08574" stroke-linecap="round" stroke-linejoin="round"/>
<path d="M91.2104 301.454H94.1057" stroke="white" stroke-width="1.08574" stroke-linecap="round" stroke-linejoin="round"/>
<path d="M91.934 325.883C91.6372 325.883 91.3911 325.637 91.3911 325.34V323.169C91.3911 322.872 91.6372 322.626 91.934 322.626C92.2307 322.626 92.4768 322.872 92.4768 323.169V325.34C92.4768 325.637 92.2307 325.883 91.934 325.883Z" fill="white"/>
<path d="M97.7245 325.883C97.4277 325.883 97.1816 325.637 97.1816 325.34V323.169C97.1816 322.872 97.4277 322.626 97.7245 322.626C98.0213 322.626 98.2674 322.872 98.2674 323.169V325.34C98.2674 325.637 98.0213 325.883 97.7245 325.883Z" fill="white"/>
<path d="M100.982 328.843H88.6771C88.3804 328.843 88.1343 328.597 88.1343 328.3C88.1343 328.004 88.3804 327.758 88.6771 327.758H100.982C101.279 327.758 101.525 328.004 101.525 328.3C101.525 328.597 101.279 328.843 100.982 328.843Z" fill="white"/>
<path d="M97.7246 338.188H91.934C89.292 338.188 87.772 336.668 87.772 334.026V327.873C87.772 325.231 89.292 323.711 91.934 323.711H97.7246C100.367 323.711 101.887 325.231 101.887 327.873V334.026C101.887 336.668 100.367 338.188 97.7246 338.188ZM91.934 324.797C89.8638 324.797 88.8577 325.803 88.8577 327.873V334.026C88.8577 336.096 89.8638 337.102 91.934 337.102H97.7246C99.7947 337.102 100.801 336.096 100.801 334.026V327.873C100.801 325.803 99.7947 324.797 97.7246 324.797H91.934Z" fill="white"/>
<path d="M92.2961 332.216C92.202 332.216 92.1079 332.195 92.021 332.159C91.9342 332.122 91.8546 332.072 91.7822 332.007C91.717 331.934 91.6664 331.855 91.6302 331.768C91.594 331.681 91.5723 331.587 91.5723 331.493C91.5723 331.304 91.6519 331.116 91.7822 330.979C91.8546 330.914 91.9342 330.863 92.021 330.827C92.1513 330.769 92.2961 330.754 92.4409 330.783C92.4843 330.791 92.5277 330.805 92.5711 330.827C92.6146 330.841 92.658 330.863 92.7014 330.892C92.7376 330.921 92.7738 330.95 92.81 330.979C92.839 331.015 92.8751 331.051 92.8969 331.087C92.9258 331.131 92.9475 331.174 92.962 331.218C92.9837 331.261 92.9982 331.304 93.0054 331.348C93.0127 331.399 93.0199 331.442 93.0199 331.493C93.0199 331.681 92.9403 331.869 92.81 332.007C92.6725 332.137 92.4843 332.216 92.2961 332.216Z" fill="white"/>
<path d="M94.8293 332.216C94.6411 332.216 94.4529 332.137 94.3154 332.006C94.2864 331.97 94.2575 331.934 94.2285 331.898C94.1996 331.854 94.1778 331.811 94.1634 331.768C94.1417 331.724 94.1272 331.681 94.1199 331.637C94.1127 331.587 94.1055 331.543 94.1055 331.493C94.1055 331.398 94.1272 331.304 94.1634 331.218C94.1996 331.131 94.2502 331.051 94.3154 330.979C94.5181 330.776 94.8438 330.711 95.1043 330.827C95.1984 330.863 95.2708 330.914 95.3432 330.979C95.4735 331.116 95.5531 331.304 95.5531 331.493C95.5531 331.543 95.5459 331.587 95.5386 331.637C95.5314 331.681 95.5169 331.724 95.4952 331.768C95.4807 331.811 95.459 331.854 95.4301 331.898C95.4011 331.934 95.3722 331.97 95.3432 332.006C95.2708 332.072 95.1984 332.122 95.1043 332.158C95.0175 332.195 94.9234 332.216 94.8293 332.216Z" fill="white"/>
<path d="M92.2961 334.75C92.202 334.75 92.1079 334.728 92.021 334.692C91.9342 334.656 91.8546 334.605 91.7822 334.54C91.717 334.468 91.6664 334.395 91.6302 334.301C91.594 334.214 91.5723 334.12 91.5723 334.026C91.5723 333.838 91.6519 333.65 91.7822 333.512C91.8546 333.447 91.9342 333.396 92.021 333.36C92.2888 333.244 92.6073 333.309 92.81 333.512C92.839 333.548 92.8751 333.584 92.8969 333.621C92.9258 333.664 92.9475 333.708 92.962 333.751C92.9837 333.794 92.9982 333.838 93.0054 333.888C93.0127 333.932 93.0199 333.983 93.0199 334.026C93.0199 334.214 92.9403 334.402 92.81 334.54C92.6725 334.67 92.4843 334.75 92.2961 334.75Z" fill="white"/>
<path d="M94.8295 370.275C94.6123 370.275 94.3952 370.224 94.2142 370.123C92.8606 369.385 90.4793 368.603 88.9882 368.408L88.7783 368.379C87.8301 368.263 87.0483 367.373 87.0483 366.41V357.666C87.0483 357.094 87.2727 356.573 87.6853 356.197C88.0979 355.82 88.6335 355.639 89.1981 355.69C90.7905 355.813 93.1936 356.609 94.5544 357.463L94.7281 357.565C94.7788 357.594 94.8874 357.594 94.9308 357.572L95.0466 357.5C96.4074 356.645 98.8105 355.835 100.41 355.697C100.425 355.697 100.483 355.697 100.497 355.697C101.025 355.647 101.568 355.835 101.974 356.211C102.386 356.588 102.611 357.109 102.611 357.681V366.417C102.611 367.387 101.829 368.27 100.873 368.386L100.635 368.415C99.1434 368.61 96.7548 369.399 95.4302 370.13C95.2565 370.232 95.0466 370.275 94.8295 370.275ZM89.0244 356.768C88.7928 356.768 88.5828 356.848 88.4164 357C88.2354 357.167 88.1341 357.405 88.1341 357.666V366.41C88.1341 366.837 88.5032 367.249 88.9158 367.307L89.133 367.336C90.7616 367.553 93.2588 368.371 94.7064 369.16C94.7715 369.189 94.8656 369.197 94.9018 369.182C96.3495 368.379 98.8612 367.553 100.497 367.336L100.743 367.307C101.156 367.257 101.525 366.837 101.525 366.41V357.673C101.525 357.405 101.423 357.174 101.243 357C101.054 356.834 100.815 356.754 100.548 356.768C100.533 356.768 100.475 356.768 100.461 356.768C99.0783 356.892 96.8489 357.637 95.6329 358.397L95.5171 358.477C95.119 358.723 94.5544 358.723 94.1708 358.484L93.9971 358.383C92.7593 357.623 90.5299 356.884 89.1112 356.768C89.0823 356.768 89.0533 356.768 89.0244 356.768Z" fill="white"/>
<path d="M94.8295 369.667C94.5327 369.667 94.2866 369.421 94.2866 369.124V358.267C94.2866 357.97 94.5327 357.724 94.8295 357.724C95.1263 357.724 95.3724 357.97 95.3724 358.267V369.124C95.3724 369.428 95.1263 369.667 94.8295 369.667Z" fill="white"/>
<path d="M91.753 360.981H90.1244C89.8276 360.981 89.5815 360.735 89.5815 360.438C89.5815 360.141 89.8276 359.895 90.1244 359.895H91.753C92.0498 359.895 92.2959 360.141 92.2959 360.438C92.2959 360.735 92.0498 360.981 91.753 360.981Z" fill="white"/>
<path d="M92.2959 363.153H90.1244C89.8276 363.153 89.5815 362.907 89.5815 362.61C89.5815 362.313 89.8276 362.067 90.1244 362.067H92.2959C92.5927 362.067 92.8388 362.313 92.8388 362.61C92.8388 362.907 92.5927 363.153 92.2959 363.153Z" fill="white"/>
<path d="M99.1725 545.383H91.2104C87.2128 545.383 83.9722 548.623 83.9722 552.621V560.583C83.9722 564.58 87.2128 567.821 91.2104 567.821H99.1725C103.17 567.821 106.411 564.58 106.411 560.583V552.621C106.411 548.623 103.17 545.383 99.1725 545.383Z" fill="white"/>
<path opacity="0.5" d="M99.6485 561.782C99.4567 561.782 99.2726 561.706 99.1368 561.57L98.6251 561.059C98.5559 560.992 98.5008 560.912 98.4628 560.824C98.4249 560.735 98.4049 560.64 98.4041 560.544C98.4033 560.448 98.4216 560.353 98.458 560.264C98.4944 560.175 98.5481 560.094 98.6161 560.026C98.684 559.958 98.7649 559.904 98.8538 559.868C98.9428 559.832 99.0381 559.813 99.1342 559.814C99.2303 559.815 99.3253 559.835 99.4136 559.873C99.5019 559.911 99.5818 559.966 99.6485 560.035L100.16 560.546C100.261 560.647 100.33 560.776 100.358 560.917C100.386 561.057 100.372 561.203 100.317 561.335C100.262 561.467 100.17 561.58 100.051 561.66C99.9316 561.739 99.7917 561.782 99.6485 561.782ZM91.4592 561.782C91.3161 561.782 91.1761 561.739 91.0571 561.66C90.9381 561.58 90.8454 561.467 90.7906 561.335C90.7358 561.203 90.7215 561.057 90.7494 560.917C90.7773 560.776 90.8463 560.647 90.9475 560.546L91.4592 560.035C91.526 559.966 91.6058 559.911 91.6941 559.873C91.7825 559.835 91.8774 559.815 91.9735 559.814C92.0697 559.813 92.165 559.832 92.2539 559.868C92.3429 559.904 92.4237 559.958 92.4917 560.026C92.5596 560.094 92.6134 560.175 92.6498 560.264C92.6862 560.353 92.7045 560.448 92.7036 560.544C92.7028 560.64 92.6828 560.735 92.6449 560.824C92.607 560.912 92.5518 560.992 92.4827 561.059L91.9717 561.57C91.9043 561.637 91.8244 561.691 91.7365 561.727C91.6485 561.763 91.5543 561.782 91.4592 561.782ZM99.1368 554.105C98.9937 554.105 98.8537 554.062 98.7347 553.983C98.6157 553.903 98.523 553.79 98.4682 553.658C98.4134 553.526 98.3991 553.38 98.427 553.24C98.4549 553.099 98.5239 552.97 98.6251 552.869L99.1368 552.357C99.2726 552.222 99.4568 552.145 99.6489 552.145C99.841 552.145 100.025 552.222 100.161 552.357C100.297 552.493 100.373 552.678 100.373 552.87C100.373 553.062 100.297 553.246 100.161 553.382L99.6493 553.893C99.5821 553.96 99.5023 554.014 99.4143 554.05C99.3263 554.087 99.232 554.105 99.1368 554.105ZM91.9709 554.105C91.8759 554.105 91.7817 554.086 91.6938 554.05C91.606 554.014 91.5263 553.96 91.4592 553.893L90.9467 553.381C90.811 553.245 90.7348 553.061 90.7349 552.869C90.7349 552.677 90.8113 552.493 90.9471 552.357C91.0829 552.221 91.2671 552.145 91.4591 552.145C91.6511 552.145 91.8352 552.222 91.9709 552.357L92.4827 552.869C92.5839 552.97 92.6528 553.099 92.6807 553.24C92.7086 553.38 92.6943 553.526 92.6395 553.658C92.5847 553.79 92.492 553.903 92.373 553.983C92.254 554.062 92.1141 554.105 91.9709 554.105Z" fill="black"/>
<path d="M95.5535 563.478C95.3615 563.478 95.1774 563.402 95.0417 563.266C94.9059 563.13 94.8297 562.946 94.8297 562.754V562.031C94.8297 561.839 94.9059 561.654 95.0417 561.519C95.1774 561.383 95.3615 561.307 95.5535 561.307C95.7455 561.307 95.9296 561.383 96.0653 561.519C96.201 561.654 96.2773 561.839 96.2773 562.031V562.754C96.2773 562.946 96.201 563.13 96.0653 563.266C95.9296 563.402 95.7455 563.478 95.5535 563.478ZM95.5535 560.583C94.7162 560.583 93.9047 560.293 93.2573 559.762C92.61 559.231 92.1668 558.492 92.0033 557.671C91.8398 556.849 91.966 555.997 92.3606 555.258C92.7552 554.52 93.3936 553.941 94.1671 553.62C94.9406 553.3 95.8014 553.257 96.6027 553.5C97.404 553.743 98.0963 554.256 98.5616 554.953C99.0269 555.649 99.2364 556.485 99.1545 557.318C99.0725 558.151 98.7042 558.93 98.1122 559.522C97.777 559.86 97.3783 560.127 96.9391 560.309C96.4999 560.491 96.0289 560.584 95.5535 560.583ZM95.5535 554.792C95.0511 554.792 94.5642 554.966 94.1758 555.285C93.7874 555.604 93.5215 556.047 93.4234 556.54C93.3252 557.032 93.401 557.544 93.6378 557.987C93.8745 558.43 94.2576 558.777 94.7217 558.97C95.1858 559.162 95.7022 559.188 96.183 559.042C96.6638 558.896 97.0791 558.588 97.3583 558.17C97.6375 557.753 97.7632 557.251 97.7141 556.751C97.6649 556.251 97.4439 555.784 97.0887 555.429C96.8876 555.226 96.6484 555.066 96.3848 554.957C96.1213 554.847 95.8387 554.792 95.5535 554.792ZM101.344 557.688H100.62C100.428 557.688 100.244 557.611 100.108 557.476C99.9727 557.34 99.8964 557.156 99.8964 556.964C99.8964 556.772 99.9727 556.588 100.108 556.452C100.244 556.316 100.428 556.24 100.62 556.24H101.344C101.536 556.24 101.72 556.316 101.856 556.452C101.992 556.588 102.068 556.772 102.068 556.964C102.068 557.156 101.992 557.34 101.856 557.476C101.72 557.611 101.536 557.688 101.344 557.688ZM90.4867 557.688H89.7629C89.5709 557.688 89.3868 557.611 89.2511 557.476C89.1153 557.34 89.0391 557.156 89.0391 556.964C89.0391 556.772 89.1153 556.588 89.2511 556.452C89.3868 556.316 89.5709 556.24 89.7629 556.24H90.4867C90.6787 556.24 90.8628 556.316 90.9985 556.452C91.1343 556.588 91.2105 556.772 91.2105 556.964C91.2105 557.156 91.1343 557.34 90.9985 557.476C90.8628 557.611 90.6787 557.688 90.4867 557.688ZM95.5535 552.621C95.3615 552.621 95.1774 552.545 95.0417 552.409C94.9059 552.273 94.8297 552.089 94.8297 551.897V551.173C94.8297 550.981 94.9059 550.797 95.0417 550.661C95.1774 550.526 95.3615 550.449 95.5535 550.449C95.7455 550.449 95.9296 550.526 96.0653 550.661C96.201 550.797 96.2773 550.981 96.2773 551.173V551.897C96.2773 552.089 96.201 552.273 96.0653 552.409C95.9296 552.545 95.7455 552.621 95.5535 552.621Z" fill="black"/>
<path d="M87.5889 146.556H102.065" stroke="white" stroke-width="1.08574" stroke-miterlimit="10" stroke-linecap="round" stroke-linejoin="round"/>
<path d="M93.1982 133.527V146.556H96.4555V133.527C96.4555 132.731 96.1297 132.079 95.1526 132.079H94.5011C93.524 132.079 93.1982 132.731 93.1982 133.527Z" stroke="white" stroke-width="1.08574" stroke-linecap="round" stroke-linejoin="round"/>
<path d="M88.3125 137.87V146.556H91.2078V137.87C91.2078 137.074 90.9183 136.422 90.0497 136.422H89.4706C88.602 136.422 88.3125 137.074 88.3125 137.87Z" stroke="white" stroke-width="1.08574" stroke-linecap="round" stroke-linejoin="round"/>
<path d="M98.4463 141.489V146.556H101.342V141.489C101.342 140.693 101.052 140.041 100.183 140.041H99.6044C98.7358 140.041 98.4463 140.693 98.4463 141.489Z" stroke="white" stroke-width="1.08574" stroke-linecap="round" stroke-linejoin="round"/>
<g filter="url(#filter1_d_669_9954)">
<path d="M102.065 163.204H87.5888C83.5913 163.204 80.3506 166.444 80.3506 170.442V184.918C80.3506 188.916 83.5913 192.157 87.5888 192.157H102.065C106.063 192.157 109.304 188.916 109.304 184.918V170.442C109.304 166.444 106.063 163.204 102.065 163.204Z" fill="#E6007A"/>
</g>
<path d="M89.4917 176.489H100.892L96.1368 172.343" stroke="white" stroke-width="1.22145" stroke-linecap="round" stroke-linejoin="round"/>
<path d="M100.892 179.598L89.4919 179.598L94.247 183.744" stroke="white" stroke-width="1.22145" stroke-linecap="round" stroke-linejoin="round"/>
<path fill-rule="evenodd" clip-rule="evenodd" d="M101.985 218.862H99.0549C97.6818 218.862 96.5642 217.745 96.5635 216.373C96.5635 214.999 97.6811 213.882 99.0549 213.881H101.985C102.285 213.881 102.528 214.124 102.528 214.424C102.528 214.724 102.285 214.967 101.985 214.967H99.0549C98.2797 214.967 97.6492 215.598 97.6492 216.372C97.6492 217.146 98.2804 217.777 99.0549 217.777H101.985C102.285 217.777 102.528 218.02 102.528 218.319C102.528 218.619 102.285 218.862 101.985 218.862Z" fill="white"/>
<path fill-rule="evenodd" clip-rule="evenodd" d="M99.3859 216.87H99.1601C98.8604 216.87 98.6172 216.627 98.6172 216.328C98.6172 216.028 98.8604 215.785 99.1601 215.785H99.3859C99.6856 215.785 99.9288 216.028 99.9288 216.328C99.9288 216.627 99.6856 216.87 99.3859 216.87Z" fill="white"/>
<mask id="mask0_669_9954" style="mask-type:alpha" maskUnits="userSpaceOnUse" x="87" y="209" width="16" height="15">
<path fill-rule="evenodd" clip-rule="evenodd" d="M87.5889 209.528H102.528V223.406H87.5889V209.528Z" fill="white"/>
</mask>
<g mask="url(#mask0_669_9954)">
<path fill-rule="evenodd" clip-rule="evenodd" d="M91.9299 210.614C90.1348 210.614 88.6741 212.075 88.6741 213.87V219.065C88.6741 220.86 90.1348 222.32 91.9299 222.32H98.1866C99.9817 222.32 101.442 220.86 101.442 219.065V213.87C101.442 212.075 99.9817 210.614 98.1866 210.614H91.9299ZM98.1866 223.406H91.9299C89.5362 223.406 87.5884 221.458 87.5884 219.065V213.87C87.5884 211.475 89.5362 209.528 91.9299 209.528H98.1866C100.58 209.528 102.527 211.475 102.527 213.87V219.065C102.527 221.458 100.58 223.406 98.1866 223.406Z" fill="white"/>
</g>
<path fill-rule="evenodd" clip-rule="evenodd" d="M95.3224 213.899H91.4145C91.1148 213.899 90.8716 213.656 90.8716 213.356C90.8716 213.056 91.1148 212.813 91.4145 212.813H95.3224C95.622 212.813 95.8652 213.056 95.8652 213.356C95.8652 213.656 95.622 213.899 95.3224 213.899Z" fill="white"/>
<path d="M102.068 16.267H106.073L95.2637 27.0746L84.411 16.267H88.508L95.2637 23.0212L102.068 16.267Z" fill="white"/>
<path d="M81.0762 19.305V23.3584L88.0007 30.283H92.0541L81.0762 19.305Z" fill="white"/>
<path d="M109.45 37.2102V41.2636L98.4724 30.2856H102.526L109.45 37.2102Z" fill="white"/>
<path d="M88.4592 44.3016H84.4544L95.2635 33.4939L106.116 44.3016H102.019L95.2635 37.5474L88.4592 44.3016Z" fill="white"/>
<path d="M95.2954 32.1399C96.3392 32.1399 97.1855 31.2937 97.1855 30.2498C97.1855 29.206 96.3392 28.3597 95.2954 28.3597C94.2515 28.3597 93.4053 29.206 93.4053 30.2498C93.4053 31.2937 94.2515 32.1399 95.2954 32.1399Z" fill="#E6007A"/>
<defs>
<filter id="filter0_d_669_9954" x="0.00888062" y="0.342896" width="192.537" height="738.301" filterUnits="userSpaceOnUse" color-interpolation-filters="sRGB">
<feFlood flood-opacity="0" result="BackgroundImageFix"/>
<feColorMatrix in="SourceAlpha" type="matrix" values="0 0 0 0 0 0 0 0 0 0 0 0 0 0 0 0 0 0 127 0" result="hardAlpha"/>
<feOffset dy="72.3824"/>
<feGaussianBlur stdDeviation="35.8293"/>
<feColorMatrix type="matrix" values="0 0 0 0 0 0 0 0 0 0 0 0 0 0 0 0 0 0 0.173 0"/>
<feBlend mode="normal" in2="BackgroundImageFix" result="effect1_dropShadow_669_9954"/>
<feBlend mode="normal" in="SourceGraphic" in2="effect1_dropShadow_669_9954" result="shape"/>
</filter>
<filter id="filter1_d_669_9954" x="73.1123" y="158.137" width="43.4296" height="43.4295" filterUnits="userSpaceOnUse" color-interpolation-filters="sRGB">
<feFlood flood-opacity="0" result="BackgroundImageFix"/>
<feColorMatrix in="SourceAlpha" type="matrix" values="0 0 0 0 0 0 0 0 0 0 0 0 0 0 0 0 0 0 127 0" result="hardAlpha"/>
<feOffset dy="2.17147"/>
<feGaussianBlur stdDeviation="3.61912"/>
<feColorMatrix type="matrix" values="0 0 0 0 0 0 0 0 0 0 0 0 0 0 0 0 0 0 0.161 0"/>
<feBlend mode="normal" in2="BackgroundImageFix" result="effect1_dropShadow_669_9954"/>
<feBlend mode="normal" in="SourceGraphic" in2="effect1_dropShadow_669_9954" result="shape"/>
</filter>
</defs>
</svg>
