<svg width="369" height="580" viewBox="72 0 290 440" fill="none" xmlns="http://www.w3.org/2000/svg">
<g filter="url(#filter0_d_669_9136)">
<path d="M72.1943 94.9547H339.285C351.278 94.9547 361 104.677 361 116.669V424.295C361 436.287 351.278 446.009 339.285 446.009H93.9091C81.9164 446.009 72.1943 436.287 72.1943 424.295V94.9547Z" fill="#2E303C"/>
</g>
<rect width="10.1335" height="10.1335" rx="3.61912" transform="matrix(1 0 0 -1 336.393 82.6495)" fill="#8BA1BE" fill-opacity="0.2"/>
<path d="M343.269 76.4969L341.459 78.6683L339.649 76.4969" stroke="white" stroke-width="0.723824"/>
<path d="M311.406 81.6208V80.3006H307.642V73.4098H306.252V81.6208H311.406ZM313.892 81.6208V75.9808H312.56V81.6208H313.892ZM312.352 74.0004C312.352 74.4868 312.745 74.869 313.22 74.869C313.707 74.869 314.1 74.4868 314.1 74.0004C314.1 73.514 313.707 73.1203 313.22 73.1203C312.745 73.1203 312.352 73.514 312.352 74.0004ZM316.957 81.6208V78.2739C316.957 77.5559 317.409 77.0231 318.127 77.0231C318.891 77.0231 319.215 77.5327 319.215 78.1812V81.6208H320.535V78.2739C320.535 77.579 320.999 77.0231 321.705 77.0231C322.458 77.0231 322.794 77.5211 322.794 78.1812V81.6208H324.091V77.9612C324.091 76.4672 323.118 75.8187 322.099 75.8187C321.369 75.8187 320.709 76.0735 320.269 76.8147C319.968 76.1545 319.319 75.8187 318.578 75.8187C317.941 75.8187 317.235 76.1198 316.911 76.6988V75.9808H315.625V81.6208H316.957ZM327.068 81.6208V75.9808H325.736V81.6208H327.068ZM325.528 74.0004C325.528 74.4868 325.921 74.869 326.396 74.869C326.883 74.869 327.276 74.4868 327.276 74.0004C327.276 73.514 326.883 73.1203 326.396 73.1203C325.921 73.1203 325.528 73.514 325.528 74.0004ZM330.503 74.2552H329.287V75.1006C329.287 75.5986 329.021 75.9808 328.419 75.9808H328.129V77.1737H329.172V80.0111C329.172 81.065 329.82 81.6903 330.862 81.6903C331.349 81.6903 331.604 81.5977 331.685 81.5629V80.4511C331.627 80.4627 331.407 80.4975 331.221 80.4975C330.723 80.4975 330.503 80.289 330.503 79.791V77.1737H331.673V75.9808H330.503V74.2552Z" fill="white"/>
<path d="M159.622 74.0987C159.414 73.0694 158.567 71.7405 156.391 71.7405C154.671 71.7405 153.251 73.0173 153.251 74.5677C153.251 75.9488 154.189 76.8738 155.596 77.1605L156.899 77.4341C157.694 77.6034 158.137 78.0855 158.137 78.6848C158.137 79.4014 157.564 79.9617 156.456 79.9617C155.127 79.9617 154.437 79.0757 154.345 78.1116L152.886 78.5285C153.029 79.8574 154.111 81.3688 156.456 81.3688C158.567 81.3688 159.726 80.0007 159.726 78.5676C159.726 77.2647 158.853 76.2354 157.225 75.9097L155.896 75.6361C155.179 75.4797 154.814 75.0368 154.814 74.4505C154.814 73.7469 155.466 73.1215 156.404 73.1215C157.642 73.1215 158.124 73.9684 158.215 74.5417L159.622 74.0987ZM162.186 77.3038C162.238 76.6263 162.785 75.8967 163.737 75.8967C164.779 75.8967 165.274 76.5611 165.3 77.3038H162.186ZM165.469 78.9584C165.261 79.5838 164.792 80.0659 163.88 80.0659C162.942 80.0659 162.186 79.3754 162.147 78.4112H166.785C166.798 78.3852 166.824 78.1767 166.824 77.9292C166.824 75.9227 165.678 74.6329 163.724 74.6329C162.121 74.6329 160.636 75.9618 160.636 77.9682C160.636 80.118 162.16 81.3688 163.88 81.3688C165.404 81.3688 166.407 80.4698 166.746 79.3623L165.469 78.9584ZM169.78 81.1733V71.7405H168.269V81.1733H169.78ZM173.241 81.1733V71.7405H171.729V81.1733H173.241Z" fill="white"/>
<path opacity="0.2" d="M143.268 72.5161C143.268 70.9171 141.924 69.5702 140.446 70.1819C139.56 70.5491 138.745 71.0892 138.053 71.781C136.67 73.1642 135.893 75.0402 135.893 76.9962C135.893 78.9523 136.67 80.8282 138.053 82.2114C138.745 82.9032 139.56 83.4434 140.446 83.8105C141.924 84.4223 143.268 83.0753 143.268 81.4763L143.268 72.5161Z" fill="#ABB2BC"/>
<path d="M139.79 76.9405C139.79 76.7205 139.953 76.5388 140.166 76.51L140.225 76.506H148.914C149.154 76.506 149.349 76.7005 149.349 76.9405C149.349 77.1605 149.185 77.3423 148.973 77.371L148.914 77.375H140.225C139.985 77.375 139.79 77.1805 139.79 76.9405Z" fill="white"/>
<path d="M145.104 73.7584C144.933 73.5891 144.933 73.314 145.102 73.1439C145.256 72.9894 145.497 72.9748 145.668 73.1007L145.717 73.1426L149.222 76.6324C149.377 76.7868 149.391 77.029 149.264 77.1994L149.222 77.2482L145.717 80.7386C145.547 80.9079 145.272 80.9074 145.102 80.7373C144.948 80.5828 144.935 80.3414 145.061 80.1715L145.103 80.1229L148.299 76.9402L145.104 73.7584Z" fill="white"/>
<path opacity="0.3" d="M79.5726 71.7924C79.5726 70.1934 78.2285 68.8464 76.7511 69.4582C75.8643 69.8253 75.0493 70.3655 74.3575 71.0573C72.9743 72.4404 72.1973 74.3164 72.1973 76.2725C72.1973 78.2285 72.9743 80.1045 74.3575 81.4876C75.0493 82.1794 75.8643 82.7196 76.7511 83.0868C78.2285 83.6985 79.5726 82.3516 79.5726 80.7525L79.5726 71.7924Z" fill="#02C076"/>
<path d="M85.3652 76.5345C85.3652 76.7544 85.2018 76.9362 84.9897 76.965L84.9307 76.969L76.2409 76.969C76.001 76.969 75.8064 76.7744 75.8064 76.5345C75.8064 76.3145 75.9699 76.1327 76.182 76.1039L76.2409 76.1L84.9307 76.1C85.1707 76.1 85.3652 76.2945 85.3652 76.5345Z" fill="#02C076"/>
<path d="M80.0518 79.7166C80.2218 79.8859 80.2224 80.161 80.0531 80.331C79.8992 80.4856 79.6578 80.5002 79.4874 80.3743L79.4386 80.3324L75.9337 76.8425C75.7787 76.6881 75.7646 76.4459 75.8914 76.2756L75.9337 76.2268L79.4386 72.7364C79.6086 72.567 79.8837 72.5676 80.0531 72.7376C80.207 72.8922 80.2205 73.1336 80.094 73.3035L80.0518 73.3521L76.8562 76.5348L80.0518 79.7166Z" fill="#02C076"/>
<path d="M91.2305 71.2121V80.4496H94.6441C96.3639 80.4496 97.5104 79.3812 97.5104 77.8959C97.5104 76.8015 96.8329 75.9546 95.8557 75.6941C96.6505 75.4074 97.2238 74.6778 97.2238 73.7006C97.2238 72.2544 96.1815 71.2121 94.4095 71.2121H91.2305ZM92.7809 75.1208V72.5411H94.162C95.1131 72.5411 95.6603 73.0492 95.6603 73.8309C95.6603 74.5996 95.1131 75.1208 94.2011 75.1208H92.7809ZM92.7809 79.1206V76.4367H94.4226C95.3867 76.4367 95.9209 76.9969 95.9209 77.7917C95.9209 78.6125 95.3085 79.1206 94.3704 79.1206H92.7809ZM102.979 79.746C102.979 80.0066 103.005 80.3063 103.031 80.4496H104.477C104.451 80.2151 104.412 79.8112 104.412 79.29V74.1045H102.901V77.8568C102.901 78.6907 102.445 79.277 101.572 79.277C100.66 79.277 100.295 78.6125 100.295 77.8308V74.1045H98.7837V78.1044C98.7837 79.5115 99.6696 80.632 101.181 80.632C101.924 80.632 102.666 80.3193 102.979 79.746ZM108.297 83.0163L112.336 74.1045H110.733L109.026 78.1174L107.202 74.1045H105.495L108.205 79.6939L106.681 83.0163H108.297Z" fill="#02C076"/>
<rect x="91.0127" y="212.214" width="250.443" height="0.723824" fill="#8BA1BE" fill-opacity="0.1"/>
<rect x="91.1937" y="212.395" width="250.081" height="0.361912" stroke="#8BA1BE" stroke-opacity="0.2" stroke-width="0.361912"/>
<path d="M93.9136 173.512H95.5581C96.0445 173.512 96.4306 173.388 96.7162 173.141C97.0019 172.886 97.1447 172.547 97.1447 172.122C97.1447 171.69 97.0019 171.346 96.7162 171.091C96.4306 170.829 96.0445 170.697 95.5581 170.697H93.9136V173.512ZM95.7666 174.531H93.9136V177.889H92.7786V169.678H95.7666C96.5155 169.678 97.1254 169.91 97.5964 170.373C98.0674 170.836 98.3029 171.416 98.3029 172.11C98.3029 172.813 98.0674 173.392 97.5964 173.848C97.1254 174.303 96.5155 174.531 95.7666 174.531ZM102.496 172.261V173.419C102.333 173.396 102.175 173.384 102.021 173.384C101.002 173.384 100.492 173.956 100.492 175.098V177.889H99.4034V172.319H100.469V173.292C100.809 172.581 101.365 172.226 102.137 172.226C102.26 172.226 102.38 172.238 102.496 172.261ZM104.733 177.889H103.656V172.319H104.733V177.889ZM103.633 170.767C103.486 170.613 103.413 170.427 103.413 170.211C103.413 169.995 103.486 169.81 103.633 169.655C103.787 169.501 103.972 169.424 104.189 169.424C104.405 169.424 104.59 169.501 104.745 169.655C104.899 169.802 104.976 169.987 104.976 170.211C104.976 170.427 104.899 170.613 104.745 170.767C104.59 170.914 104.405 170.987 104.189 170.987C103.972 170.987 103.787 170.914 103.633 170.767ZM108.925 173.153C108.454 173.153 108.052 173.323 107.72 173.662C107.396 174.002 107.234 174.481 107.234 175.098C107.234 175.708 107.396 176.187 107.72 176.534C108.052 176.882 108.457 177.056 108.936 177.056C109.399 177.056 109.751 176.94 109.99 176.708C110.237 176.476 110.403 176.21 110.488 175.909L111.449 176.326C111.295 176.789 111.001 177.195 110.569 177.542C110.144 177.889 109.6 178.063 108.936 178.063C108.125 178.063 107.454 177.781 106.921 177.218C106.388 176.654 106.122 175.948 106.122 175.098C106.122 174.234 106.388 173.527 106.921 172.979C107.454 172.423 108.122 172.145 108.925 172.145C109.604 172.145 110.152 172.319 110.569 172.666C110.994 173.014 111.272 173.431 111.403 173.917L110.419 174.334C110.334 174.01 110.171 173.732 109.932 173.5C109.693 173.269 109.357 173.153 108.925 173.153ZM113.376 174.531H116.422C116.407 174.114 116.268 173.774 116.005 173.512C115.743 173.241 115.372 173.106 114.893 173.106C114.461 173.106 114.106 173.249 113.828 173.535C113.55 173.813 113.399 174.145 113.376 174.531ZM116.584 175.979L117.522 176.303C117.36 176.82 117.059 177.245 116.619 177.577C116.179 177.901 115.646 178.063 115.021 178.063C114.241 178.063 113.577 177.797 113.029 177.264C112.488 176.724 112.218 175.998 112.218 175.087C112.218 174.237 112.481 173.535 113.006 172.979C113.531 172.423 114.156 172.145 114.882 172.145C115.723 172.145 116.38 172.412 116.851 172.944C117.322 173.469 117.557 174.176 117.557 175.064C117.557 175.203 117.549 175.318 117.534 175.411H113.341C113.349 175.905 113.511 176.311 113.828 176.627C114.152 176.944 114.55 177.102 115.021 177.102C115.816 177.102 116.337 176.727 116.584 175.979Z" fill="#ABB2BC"/>
<path d="M310.04 195.169V192.621H311.487C312.367 192.621 312.9 193.119 312.9 193.906C312.9 194.682 312.367 195.169 311.487 195.169H310.04ZM311.696 196.396C313.271 196.396 314.313 195.342 314.313 193.895C314.313 192.459 313.271 191.393 311.696 191.393H308.65V199.604H310.04V196.396H311.696ZM316.984 198.33V192.667H318.455C319.879 192.667 321.049 193.593 321.049 195.516C321.049 197.415 319.867 198.33 318.443 198.33H316.984ZM318.489 199.604C320.713 199.604 322.496 198.145 322.496 195.516C322.496 192.875 320.736 191.393 318.501 191.393H315.594V199.604H318.489ZM329.024 199.604V198.307H325.342V196.13H328.677V194.867H325.342V192.69H329.024V191.393H323.952V199.604H329.024ZM337.038 191.393H335.405L333.483 194.404L331.572 191.393H329.904L332.626 195.493L329.881 199.604H331.514L333.448 196.605L335.359 199.604H337.027L334.305 195.504L337.038 191.393Z" fill="#ABB2BC"/>
<path d="M89.6992 195.466C89.6992 194.279 89.9019 193.367 90.3652 192.788C90.6836 192.368 91.1324 192.093 91.8128 192.093C92.4932 192.093 92.9275 192.368 93.2605 192.788C93.7092 193.367 93.9119 194.279 93.9119 195.466C93.9119 196.653 93.7092 197.565 93.2605 198.144C92.9275 198.564 92.4932 198.839 91.8128 198.839C91.1324 198.839 90.6836 198.564 90.3652 198.144C89.9164 197.565 89.6992 196.653 89.6992 195.466ZM87.9765 195.466C87.9765 196.711 88.1792 197.884 88.8162 198.839C89.4242 199.751 90.4086 200.374 91.8128 200.374C93.217 200.374 94.187 199.751 94.795 198.839C95.4319 197.884 95.6346 196.711 95.6346 195.466C95.6346 194.221 95.4319 193.048 94.795 192.093C94.187 191.181 93.217 190.558 91.8128 190.558C90.4086 190.558 89.4242 191.181 88.8162 192.093C88.1792 193.048 87.9765 194.221 87.9765 195.466ZM96.6784 199.071C96.6784 199.722 97.1995 200.243 97.851 200.243C98.5024 200.243 99.038 199.722 99.038 199.071C99.038 198.419 98.5024 197.884 97.851 197.884C97.1995 197.884 96.6784 198.419 96.6784 199.071ZM102.083 195.466C102.083 194.279 102.286 193.367 102.749 192.788C103.068 192.368 103.517 192.093 104.197 192.093C104.877 192.093 105.312 192.368 105.645 192.788C106.093 193.367 106.296 194.279 106.296 195.466C106.296 196.653 106.093 197.565 105.645 198.144C105.312 198.564 104.877 198.839 104.197 198.839C103.517 198.839 103.068 198.564 102.749 198.144C102.301 197.565 102.083 196.653 102.083 195.466ZM100.361 195.466C100.361 196.711 100.563 197.884 101.2 198.839C101.808 199.751 102.793 200.374 104.197 200.374C105.601 200.374 106.571 199.751 107.179 198.839C107.816 197.884 108.019 196.711 108.019 195.466C108.019 194.221 107.816 193.048 107.179 192.093C106.571 191.181 105.601 190.558 104.197 190.558C102.793 190.558 101.808 191.181 101.2 192.093C100.563 193.048 100.361 194.221 100.361 195.466ZM112.946 200.156V190.776H111.44C111.237 191.76 110.311 192.513 108.964 192.542V193.729H111.237V200.156H112.946ZM116.431 194.293C116.416 194.134 116.387 193.96 116.387 193.816C116.387 192.846 116.923 192.078 118.023 192.078C119.08 192.078 119.601 192.773 119.601 193.541C119.601 194.221 119.239 194.786 118.399 195.307L116.85 196.277C115.215 197.29 114.65 198.549 114.621 200.156H121.411V198.622H116.764C116.894 198.159 117.27 197.826 117.719 197.551L119.543 196.421C120.672 195.727 121.353 194.728 121.353 193.512C121.353 191.905 120.122 190.558 118.052 190.558C115.924 190.558 114.708 192.021 114.708 193.642C114.708 193.83 114.737 194.047 114.751 194.178L116.431 194.293ZM122.382 197.565C122.498 199.042 123.888 200.388 125.914 200.388C128.086 200.388 129.447 198.911 129.447 197.145C129.447 195.176 128.1 194.018 126.233 194.018C125.567 194.018 124.843 194.25 124.438 194.67L125.017 192.296H128.983V190.776H123.844L122.686 195.509L124.322 196.103C124.655 195.727 125.219 195.452 125.885 195.452C126.841 195.452 127.695 196.031 127.695 197.189C127.695 198.231 126.899 198.897 125.914 198.897C124.829 198.897 124.09 198.144 124.018 197.145L122.382 197.565ZM137.014 190.776H130.007V192.296H135.045C135.045 192.296 131.773 194.916 131.368 200.156H133.163C133.583 195.321 136.232 192.947 137.014 192.296V190.776ZM144.605 190.776H137.599V192.296H142.636C142.636 192.296 139.365 194.916 138.959 200.156H140.755C141.174 195.321 143.824 192.947 144.605 192.296V190.776Z" fill="white"/>
<rect x="90.29" y="286.044" width="251.167" height="0.723824" fill="#8BA1BE" fill-opacity="0.1"/>
<rect x="90.471" y="286.225" width="250.805" height="0.361912" stroke="#8BA1BE" stroke-opacity="0.2" stroke-width="0.361912"/>
<path d="M339.467 307.035H93.7268C92.628 307.035 91.7373 307.845 91.7373 308.845C91.7373 309.844 92.628 310.654 93.7268 310.654H339.467C340.566 310.654 341.457 309.844 341.457 308.845C341.457 307.845 340.566 307.035 339.467 307.035Z" fill="#1C1C26"/>
<path d="M203.568 307.035L92.2785 307.035C91.1798 307.035 90.2891 307.845 90.2891 308.845C90.2891 309.844 91.1798 310.654 92.2785 310.654L203.568 310.654C204.666 310.654 205.557 309.844 205.557 308.845C205.557 307.845 204.666 307.035 203.568 307.035Z" fill="#E6007A"/>
<path d="M209.33 305.588C209.33 304.788 208.745 304.14 208.025 304.14C207.304 304.14 206.72 304.788 206.72 305.588V312.102C206.72 312.902 207.304 313.55 208.025 313.55C208.745 313.55 209.33 312.902 209.33 312.102V305.588Z" fill="#E3E9F0"/>
<rect width="23.8862" height="19.5432" rx="4.34295" transform="matrix(1 0 0 -1 194.073 318.617)" fill="#E6007A"/>
<path d="M199.816 307.725C199.269 307.725 198.843 307.89 198.591 308.159H198.582C198.582 308.142 198.6 308.072 198.608 307.994L198.773 306.648H201.318V305.684H197.87L197.514 308.932L198.452 309.036C198.678 308.75 199.051 308.62 199.503 308.62C200.155 308.62 200.493 308.958 200.502 309.584C200.502 310.2 200.111 310.548 199.477 310.548C198.8 310.548 198.548 310.218 198.409 309.697L197.332 310.296C197.775 311.13 198.452 311.503 199.486 311.503C200.71 311.503 201.614 310.834 201.614 309.505C201.614 308.454 200.936 307.725 199.816 307.725ZM204.784 311.503C206.304 311.503 207.077 310.487 207.077 308.55C207.077 306.613 206.304 305.597 204.784 305.597C203.264 305.597 202.491 306.613 202.491 308.55C202.491 310.487 203.264 311.503 204.784 311.503ZM204.784 310.539C204.046 310.539 203.69 309.914 203.69 308.55C203.69 307.186 204.046 306.561 204.784 306.561C205.523 306.561 205.879 307.186 205.879 308.55C205.879 309.914 205.523 310.539 204.784 310.539ZM209.368 305.597C208.448 305.597 207.84 306.24 207.84 307.212C207.84 308.185 208.448 308.828 209.368 308.828C210.298 308.828 210.897 308.185 210.897 307.212C210.897 306.24 210.298 305.597 209.368 305.597ZM209.082 311.416H210.037L213.902 305.684H212.947L209.082 311.416ZM209.368 306.422C209.759 306.422 209.976 306.717 209.976 307.212C209.976 307.708 209.759 307.994 209.368 307.994C208.977 307.994 208.76 307.708 208.76 307.212C208.76 306.717 208.977 306.422 209.368 306.422ZM213.607 308.272C212.678 308.272 212.078 308.915 212.078 309.888C212.078 310.86 212.678 311.503 213.607 311.503C214.528 311.503 215.136 310.86 215.136 309.888C215.136 308.915 214.528 308.272 213.607 308.272ZM213.607 309.106C213.998 309.106 214.215 309.393 214.215 309.888C214.215 310.383 213.998 310.678 213.607 310.678C213.207 310.678 212.999 310.383 212.999 309.888C212.999 309.393 213.207 309.106 213.607 309.106Z" fill="white"/>
<path d="M97.7423 252.443L96.8506 250.15H93.2141L92.3455 252.443H91.1295L94.3954 244.232H95.7041L98.9699 252.443H97.7423ZM95.0208 245.414L93.6194 249.096H96.4452L95.0208 245.414ZM101.036 252.443H99.9588V246.873H101.001V247.614C101.171 247.321 101.41 247.097 101.719 246.942C102.028 246.788 102.352 246.711 102.692 246.711C103.055 246.711 103.387 246.799 103.688 246.977C103.989 247.155 104.213 247.417 104.36 247.765C104.746 247.062 105.367 246.711 106.224 246.711C106.757 246.711 107.209 246.892 107.579 247.255C107.958 247.618 108.147 248.143 108.147 248.83V252.443H107.07V248.946C107.07 248.56 106.969 248.251 106.769 248.019C106.576 247.788 106.282 247.672 105.888 247.672C105.51 247.672 105.201 247.807 104.962 248.077C104.723 248.34 104.603 248.672 104.603 249.073V252.443H103.514V248.946C103.514 248.56 103.414 248.251 103.213 248.019C103.02 247.788 102.727 247.672 102.333 247.672C101.947 247.672 101.634 247.803 101.395 248.066C101.156 248.328 101.036 248.668 101.036 249.085V252.443ZM111.035 251.123C111.375 251.471 111.788 251.644 112.274 251.644C112.761 251.644 113.17 251.471 113.502 251.123C113.842 250.768 114.012 250.278 114.012 249.652C114.012 249.035 113.842 248.552 113.502 248.205C113.17 247.849 112.761 247.672 112.274 247.672C111.788 247.672 111.375 247.849 111.035 248.205C110.703 248.552 110.537 249.035 110.537 249.652C110.537 250.278 110.703 250.768 111.035 251.123ZM110.225 247.545C110.765 246.981 111.448 246.699 112.274 246.699C113.101 246.699 113.78 246.981 114.313 247.545C114.853 248.1 115.123 248.803 115.123 249.652C115.123 250.509 114.857 251.22 114.324 251.783C113.792 252.339 113.108 252.617 112.274 252.617C111.441 252.617 110.757 252.339 110.225 251.783C109.692 251.22 109.425 250.509 109.425 249.652C109.425 248.803 109.692 248.1 110.225 247.545ZM120.131 251.772C119.984 252.05 119.76 252.262 119.459 252.409C119.158 252.548 118.834 252.617 118.486 252.617C117.853 252.617 117.348 252.409 116.969 251.992C116.591 251.567 116.402 251.03 116.402 250.382V246.873H117.49V250.22C117.49 250.637 117.591 250.98 117.792 251.25C118 251.521 118.32 251.656 118.753 251.656C119.185 251.656 119.513 251.528 119.737 251.274C119.961 251.011 120.073 250.664 120.073 250.231V246.873H121.162V251.413C121.162 251.776 121.181 252.119 121.22 252.443H120.177C120.146 252.274 120.131 252.05 120.131 251.772ZM124.108 249.224V252.443H123.019V246.873H124.085V247.672C124.455 247.031 125.027 246.711 125.799 246.711C126.44 246.711 126.93 246.915 127.27 247.324C127.617 247.734 127.791 248.263 127.791 248.911V252.443H126.702V249.096C126.702 248.162 126.27 247.695 125.405 247.695C124.996 247.695 124.675 247.842 124.444 248.135C124.22 248.421 124.108 248.784 124.108 249.224ZM130.982 245.112V246.873H132.186V247.857H130.982V250.753C130.982 251.015 131.04 251.208 131.155 251.332C131.279 251.455 131.48 251.517 131.758 251.517C131.92 251.517 132.063 251.501 132.186 251.471V252.397C132.001 252.467 131.754 252.501 131.445 252.501C130.966 252.501 130.588 252.362 130.31 252.084C130.032 251.806 129.893 251.416 129.893 250.915V247.857H128.828V246.873H129.129C129.414 246.873 129.627 246.796 129.766 246.641C129.912 246.479 129.986 246.271 129.986 246.016V245.112H130.982Z" fill="#ABB2BC"/>
<path d="M314.606 272.16V266.497H316.077C317.501 266.497 318.671 267.424 318.671 269.346C318.671 271.245 317.49 272.16 316.065 272.16H314.606ZM316.112 273.434C318.335 273.434 320.119 271.975 320.119 269.346C320.119 266.706 318.358 265.223 316.123 265.223H313.216V273.434H316.112ZM322.501 269.323C322.501 267.342 323.867 266.358 325.245 266.358C326.635 266.358 328.002 267.342 328.002 269.323C328.002 271.303 326.635 272.288 325.245 272.288C323.867 272.288 322.501 271.303 322.501 269.323ZM321.076 269.323C321.076 272.021 323.091 273.608 325.245 273.608C327.4 273.608 329.426 272.021 329.426 269.323C329.426 266.636 327.4 265.049 325.245 265.049C323.091 265.049 321.076 266.636 321.076 269.323ZM336.528 266.532V265.223H329.799V266.532H332.463V273.434H333.853V266.532H336.528Z" fill="#ABB2BC"/>
<path d="M89.0133 270.02C89.0133 268.833 89.216 267.921 89.6792 267.342C89.9977 266.922 90.4465 266.647 91.1269 266.647C91.8073 266.647 92.2416 266.922 92.5745 267.342C93.0233 267.921 93.226 268.833 93.226 270.02C93.226 271.207 93.0233 272.119 92.5745 272.698C92.2416 273.118 91.8073 273.393 91.1269 273.393C90.4465 273.393 89.9977 273.118 89.6792 272.698C89.2305 272.119 89.0133 271.207 89.0133 270.02ZM87.2906 270.02C87.2906 271.265 87.4933 272.438 88.1302 273.393C88.7383 274.305 89.7227 274.928 91.1269 274.928C92.5311 274.928 93.501 274.305 94.109 273.393C94.746 272.438 94.9487 271.265 94.9487 270.02C94.9487 268.775 94.746 267.603 94.109 266.647C93.501 265.735 92.5311 265.113 91.1269 265.113C89.7227 265.113 88.7383 265.735 88.1302 266.647C87.4933 267.603 87.2906 268.775 87.2906 270.02ZM95.9925 273.625C95.9925 274.276 96.5136 274.797 97.165 274.797C97.8165 274.797 98.3521 274.276 98.3521 273.625C98.3521 272.973 97.8165 272.438 97.165 272.438C96.5136 272.438 95.9925 272.973 95.9925 273.625ZM99.7693 272.119C99.8852 273.596 101.275 274.942 103.302 274.942C105.473 274.942 106.834 273.466 106.834 271.699C106.834 269.731 105.488 268.573 103.62 268.573C102.954 268.573 102.23 268.804 101.825 269.224L102.404 266.85H106.371V265.33H101.231L100.073 270.064L101.709 270.657C102.042 270.281 102.607 270.006 103.273 270.006C104.228 270.006 105.082 270.585 105.082 271.743C105.082 272.785 104.286 273.451 103.302 273.451C102.216 273.451 101.478 272.698 101.405 271.699L99.7693 272.119ZM107.757 272.655H112.274V274.711H113.982V272.655H115.56V271.12H113.982V265.33H111.753L107.757 270.773V272.655ZM112.274 271.12H109.321L112.274 267.081V271.12ZM123.477 265.576C123.072 265.315 122.348 265.113 121.48 265.113C118.57 265.113 116.442 267.168 116.442 270.57C116.442 272.973 117.803 274.928 120.191 274.928C122.16 274.928 123.752 273.625 123.752 271.671C123.752 269.745 122.435 268.5 120.568 268.5C119.569 268.5 118.671 268.862 118.179 269.615C118.338 267.791 119.612 266.618 121.378 266.618C122.146 266.618 122.638 266.806 122.985 266.995L123.477 265.576ZM118.367 271.699C118.367 270.599 119.207 269.948 120.191 269.948C121.176 269.948 122.015 270.599 122.015 271.699C122.015 272.785 121.176 273.451 120.191 273.451C119.236 273.451 118.367 272.771 118.367 271.699ZM131.889 265.576C131.484 265.315 130.76 265.113 129.891 265.113C126.982 265.113 124.853 267.168 124.853 270.57C124.853 272.973 126.214 274.928 128.603 274.928C130.572 274.928 132.164 273.625 132.164 271.671C132.164 269.745 130.847 268.5 128.979 268.5C127.98 268.5 127.083 268.862 126.591 269.615C126.75 267.791 128.024 266.618 129.79 266.618C130.557 266.618 131.049 266.806 131.397 266.995L131.889 265.576ZM126.779 271.699C126.779 270.599 127.618 269.948 128.603 269.948C129.587 269.948 130.427 270.599 130.427 271.699C130.427 272.785 129.587 273.451 128.603 273.451C127.647 273.451 126.779 272.771 126.779 271.699ZM139.777 265.33H132.771V266.85H137.808C137.808 266.85 134.537 269.47 134.131 274.711H135.926C136.346 269.875 138.995 267.501 139.777 266.85V265.33Z" fill="white"/>
<path d="M105.124 149.966C115.319 149.966 123.583 141.702 123.583 131.508C123.583 121.314 115.319 113.051 105.124 113.051C94.9323 113.051 86.668 121.314 86.668 131.508C86.668 141.702 94.9323 149.966 105.124 149.966Z" fill="#1C1C26"/>
<path fill-rule="evenodd" clip-rule="evenodd" d="M112.645 134.69H109.715C108.342 134.69 107.224 133.573 107.224 132.201C107.224 130.827 108.341 129.709 109.715 129.708H112.645C112.945 129.708 113.188 129.952 113.188 130.251C113.188 130.551 112.945 130.794 112.645 130.794H109.715C108.94 130.795 108.309 131.425 108.309 132.2C108.309 132.974 108.941 133.604 109.715 133.604H112.645C112.945 133.604 113.188 133.847 113.188 134.147C113.188 134.447 112.945 134.69 112.645 134.69Z" fill="white"/>
<path fill-rule="evenodd" clip-rule="evenodd" d="M110.047 132.698H109.821C109.522 132.698 109.278 132.455 109.278 132.155C109.278 131.855 109.522 131.612 109.821 131.612H110.047C110.347 131.612 110.59 131.855 110.59 132.155C110.59 132.455 110.347 132.698 110.047 132.698Z" fill="white"/>
<mask id="mask0_669_9136" style="mask-type:alpha" maskUnits="userSpaceOnUse" x="98" y="125" width="16" height="15">
<path fill-rule="evenodd" clip-rule="evenodd" d="M98.25 125.356H113.189V139.233H98.25V125.356Z" fill="white"/>
</mask>
<g mask="url(#mask0_669_9136)">
<path fill-rule="evenodd" clip-rule="evenodd" d="M102.591 126.441C100.796 126.441 99.3357 127.902 99.3357 129.697V134.892C99.3357 136.687 100.796 138.148 102.591 138.148H108.848C110.643 138.148 112.103 136.687 112.103 134.892V129.697C112.103 127.902 110.643 126.441 108.848 126.441H102.591ZM108.848 139.233H102.591C100.198 139.233 98.25 137.286 98.25 134.892V129.697C98.25 127.303 100.198 125.356 102.591 125.356H108.848C111.242 125.356 113.189 127.303 113.189 129.697V134.892C113.189 137.286 111.242 139.233 108.848 139.233Z" fill="white"/>
</g>
<path fill-rule="evenodd" clip-rule="evenodd" d="M105.983 129.726H102.075C101.775 129.726 101.532 129.483 101.532 129.183C101.532 128.884 101.775 128.64 102.075 128.64H105.983C106.283 128.64 106.526 128.884 106.526 129.183C106.526 129.483 106.283 129.726 105.983 129.726Z" fill="white"/>
<path d="M138.998 126.498L138.106 124.205H134.47L133.601 126.498H132.385L135.651 118.287H136.96L140.226 126.498H138.998ZM136.277 119.468L134.875 123.151H137.701L136.277 119.468ZM145.692 120.927L143.468 126.498H142.368L140.11 120.927H141.338L142.924 125.224L144.522 120.927H145.692ZM146.33 125.004C146.33 124.525 146.484 124.143 146.793 123.858C147.102 123.564 147.511 123.383 148.021 123.313L149.526 123.093C149.812 123.055 149.955 122.916 149.955 122.676C149.955 122.383 149.854 122.144 149.654 121.958C149.453 121.773 149.152 121.68 148.75 121.68C148.38 121.68 148.086 121.785 147.87 121.993C147.654 122.194 147.527 122.464 147.488 122.804L146.446 122.56C146.5 122.028 146.743 121.595 147.175 121.263C147.608 120.924 148.125 120.754 148.727 120.754C149.515 120.754 150.098 120.947 150.476 121.333C150.854 121.711 151.043 122.198 151.043 122.792V125.583C151.043 125.915 151.067 126.22 151.113 126.498H150.047C150.009 126.266 149.989 126.015 149.989 125.745C149.835 125.992 149.607 126.209 149.306 126.394C149.013 126.579 148.642 126.672 148.194 126.672C147.646 126.672 147.198 126.51 146.851 126.185C146.504 125.853 146.33 125.46 146.33 125.004ZM148.345 125.757C148.831 125.757 149.221 125.626 149.515 125.363C149.808 125.101 149.955 124.684 149.955 124.112V123.858L148.252 124.112C148.005 124.151 147.808 124.24 147.662 124.379C147.515 124.518 147.442 124.707 147.442 124.946C147.442 125.162 147.523 125.352 147.685 125.514C147.855 125.676 148.075 125.757 148.345 125.757ZM153.816 126.498H152.739V120.927H153.816V126.498ZM152.716 119.376C152.569 119.221 152.496 119.036 152.496 118.82C152.496 118.604 152.569 118.418 152.716 118.264C152.871 118.109 153.056 118.032 153.272 118.032C153.488 118.032 153.673 118.109 153.828 118.264C153.982 118.411 154.06 118.596 154.06 118.82C154.06 119.036 153.982 119.221 153.828 119.376C153.673 119.522 153.488 119.596 153.272 119.596C153.056 119.596 152.871 119.522 152.716 119.376ZM156.757 126.498H155.669V118.113H156.757V126.498ZM158.262 125.004C158.262 124.525 158.416 124.143 158.725 123.858C159.034 123.564 159.443 123.383 159.952 123.313L161.458 123.093C161.744 123.055 161.887 122.916 161.887 122.676C161.887 122.383 161.786 122.144 161.585 121.958C161.385 121.773 161.084 121.68 160.682 121.68C160.311 121.68 160.018 121.785 159.802 121.993C159.586 122.194 159.458 122.464 159.42 122.804L158.377 122.56C158.431 122.028 158.675 121.595 159.107 121.263C159.539 120.924 160.057 120.754 160.659 120.754C161.446 120.754 162.029 120.947 162.408 121.333C162.786 121.711 162.975 122.198 162.975 122.792V125.583C162.975 125.915 162.998 126.22 163.045 126.498H161.979C161.941 126.266 161.921 126.015 161.921 125.745C161.767 125.992 161.539 126.209 161.238 126.394C160.945 126.579 160.574 126.672 160.126 126.672C159.578 126.672 159.13 126.51 158.783 126.185C158.435 125.853 158.262 125.46 158.262 125.004ZM160.277 125.757C160.763 125.757 161.153 125.626 161.446 125.363C161.74 125.101 161.887 124.684 161.887 124.112V123.858L160.184 124.112C159.937 124.151 159.74 124.24 159.593 124.379C159.447 124.518 159.373 124.707 159.373 124.946C159.373 125.162 159.454 125.352 159.617 125.514C159.786 125.676 160.007 125.757 160.277 125.757ZM165.748 126.498H164.671V118.113H165.748V121.715C165.895 121.445 166.126 121.221 166.443 121.043C166.767 120.858 167.149 120.765 167.59 120.765C168.4 120.765 169.029 121.039 169.477 121.588C169.925 122.136 170.149 122.835 170.149 123.684C170.149 124.541 169.917 125.251 169.454 125.815C168.991 126.371 168.358 126.649 167.555 126.649C166.721 126.649 166.119 126.328 165.748 125.687V126.498ZM168.586 125.131C168.887 124.769 169.037 124.286 169.037 123.684C169.037 123.082 168.887 122.607 168.586 122.259C168.292 121.904 167.895 121.727 167.393 121.727C166.906 121.727 166.509 121.904 166.2 122.259C165.891 122.614 165.737 123.089 165.737 123.684C165.737 124.278 165.891 124.761 166.2 125.131C166.509 125.494 166.906 125.676 167.393 125.676C167.887 125.676 168.284 125.494 168.586 125.131ZM172.625 126.498H171.536V118.113H172.625V126.498ZM175.183 123.14H178.229C178.213 122.723 178.075 122.383 177.812 122.12C177.55 121.85 177.179 121.715 176.7 121.715C176.268 121.715 175.913 121.858 175.635 122.144C175.357 122.421 175.206 122.753 175.183 123.14ZM178.391 124.587L179.329 124.911C179.167 125.429 178.866 125.853 178.426 126.185C177.986 126.51 177.453 126.672 176.828 126.672C176.048 126.672 175.384 126.405 174.836 125.873C174.295 125.332 174.025 124.606 174.025 123.695C174.025 122.846 174.287 122.144 174.812 121.588C175.337 121.032 175.963 120.754 176.689 120.754C177.53 120.754 178.186 121.02 178.657 121.553C179.128 122.078 179.364 122.784 179.364 123.672C179.364 123.811 179.356 123.927 179.341 124.02H175.148C175.156 124.514 175.318 124.919 175.635 125.236C175.959 125.552 176.357 125.711 176.828 125.711C177.623 125.711 178.144 125.336 178.391 124.587Z" fill="#ABB2BC"/>
<path d="M132.59 143.698V134.317H131.084C130.882 135.302 129.955 136.055 128.609 136.084V137.271H130.882V143.698H132.59ZM134.474 142.641C134.474 143.307 134.938 143.742 135.574 143.742C135.763 143.742 135.864 143.698 135.922 143.669C135.907 144.422 135.299 145.088 134.634 145.233V146.087C135.618 145.957 136.993 145.102 136.993 143.076C136.993 142.149 136.443 141.541 135.676 141.541C134.995 141.541 134.474 142.033 134.474 142.641ZM141.913 138.226C140.987 138.212 140.379 137.633 140.379 136.851C140.379 136.142 140.958 135.519 141.913 135.519C142.869 135.519 143.462 136.142 143.462 136.851C143.462 137.633 142.854 138.212 141.913 138.226ZM141.913 142.453C140.784 142.453 140.162 141.787 140.162 141.02C140.162 140.253 140.784 139.572 141.913 139.572C143.057 139.572 143.68 140.253 143.68 141.02C143.68 141.787 143.057 142.453 141.913 142.453ZM141.913 143.915C144.07 143.915 145.402 142.757 145.402 141.194C145.402 140.123 144.649 139.239 143.665 138.892C144.563 138.559 145.185 137.662 145.185 136.75C145.185 135.186 143.795 134.1 141.913 134.1C140.031 134.1 138.656 135.186 138.656 136.75C138.656 137.676 139.279 138.559 140.176 138.892C139.177 139.239 138.439 140.123 138.439 141.194C138.439 142.757 139.771 143.915 141.913 143.915ZM148.32 139.008C148.32 137.821 148.523 136.909 148.986 136.33C149.304 135.91 149.753 135.635 150.433 135.635C151.114 135.635 151.548 135.91 151.881 136.33C152.33 136.909 152.533 137.821 152.533 139.008C152.533 140.195 152.33 141.107 151.881 141.686C151.548 142.106 151.114 142.381 150.433 142.381C149.753 142.381 149.304 142.106 148.986 141.686C148.537 141.107 148.32 140.195 148.32 139.008ZM146.597 139.008C146.597 140.253 146.8 141.425 147.437 142.381C148.045 143.293 149.029 143.915 150.433 143.915C151.838 143.915 152.808 143.293 153.416 142.381C154.053 141.425 154.255 140.253 154.255 139.008C154.255 137.763 154.053 136.59 153.416 135.635C152.808 134.723 151.838 134.1 150.433 134.1C149.029 134.1 148.045 134.723 147.437 135.635C146.8 136.59 146.597 137.763 146.597 139.008ZM159.182 143.698V134.317H157.676C157.474 135.302 156.547 136.055 155.201 136.084V137.271H157.474V143.698H159.182ZM161.063 143.38C161.541 143.698 162.467 143.915 163.234 143.915C166.419 143.915 168.041 141.889 168.041 138.487C168.041 135.49 166.289 134.1 164.335 134.1C162.366 134.1 160.802 135.432 160.802 137.372C160.802 139.37 162.351 140.528 164.045 140.528C165.16 140.528 165.985 140.05 166.332 139.442C166.246 141.208 165.189 142.395 163.22 142.395C162.597 142.395 161.903 142.193 161.541 141.961L161.063 143.38ZM166.101 137.314C166.101 138.385 165.247 139.066 164.306 139.066C163.336 139.066 162.511 138.414 162.511 137.314C162.511 136.257 163.35 135.577 164.306 135.577C165.247 135.577 166.101 136.272 166.101 137.314ZM171.82 139.442C171.965 139.37 172.255 139.283 172.704 139.283C173.5 139.283 174.368 139.746 174.368 140.832C174.368 141.686 173.731 142.424 172.588 142.424C171.545 142.424 170.764 141.686 170.72 140.6L169.026 140.948C169.142 142.511 170.431 143.915 172.602 143.915C174.832 143.915 176.12 142.453 176.12 140.846C176.12 139.037 174.716 138.023 173.312 137.995L175.859 135.765V134.317H169.345V135.838H173.616L171.024 138.154L171.82 139.442ZM179.794 139.442C179.939 139.37 180.228 139.283 180.677 139.283C181.473 139.283 182.342 139.746 182.342 140.832C182.342 141.686 181.705 142.424 180.561 142.424C179.519 142.424 178.737 141.686 178.694 140.6L177 140.948C177.116 142.511 178.404 143.915 180.576 143.915C182.805 143.915 184.093 142.453 184.093 140.846C184.093 139.037 182.689 138.023 181.285 137.995L183.833 135.765V134.317H177.318V135.838H181.589L178.998 138.154L179.794 139.442ZM188.87 143.698V134.317H187.365C187.162 135.302 186.235 136.055 184.889 136.084V137.271H187.162V143.698H188.87ZM196.485 142.106V135.027H198.324C200.104 135.027 201.566 136.185 201.566 138.588C201.566 140.962 200.09 142.106 198.309 142.106H196.485ZM198.367 143.698C201.147 143.698 203.376 141.874 203.376 138.588C203.376 135.287 201.175 133.434 198.382 133.434H194.748V143.698H198.367ZM206.353 138.559C206.353 136.084 208.062 134.853 209.784 134.853C211.522 134.853 213.23 136.084 213.23 138.559C213.23 141.035 211.522 142.265 209.784 142.265C208.062 142.265 206.353 141.035 206.353 138.559ZM204.573 138.559C204.573 141.932 207.092 143.915 209.784 143.915C212.477 143.915 215.01 141.932 215.01 138.559C215.01 135.201 212.477 133.217 209.784 133.217C207.092 133.217 204.573 135.201 204.573 138.559ZM223.888 135.07V133.434H215.477V135.07H218.806V143.698H220.544V135.07H223.888Z" fill="white"/>
<rect width="251.167" height="0.723824" transform="matrix(1 0 0 -1 90.2891 369.284)" fill="#8BA1BE" fill-opacity="0.1"/>
<rect x="0.180956" y="-0.180956" width="250.805" height="0.361912" transform="matrix(1 0 0 -1 90.2891 368.922)" stroke="#8BA1BE" stroke-opacity="0.2" stroke-width="0.361912"/>
<path d="M100.002 347.6V346.292H93.2736V347.6H95.9373V354.503H97.327V347.6H100.002ZM102.408 353.472C101.585 353.472 100.833 352.846 100.833 351.677C100.833 350.507 101.585 349.905 102.408 349.905C103.241 349.905 103.983 350.507 103.983 351.677C103.983 352.858 103.241 353.472 102.408 353.472ZM102.408 348.689C100.728 348.689 99.4892 349.951 99.4892 351.677C99.4892 353.414 100.728 354.676 102.408 354.676C104.098 354.676 105.338 353.414 105.338 351.677C105.338 349.951 104.098 348.689 102.408 348.689ZM108.304 347.137H107.088V347.982C107.088 348.48 106.822 348.863 106.22 348.863H105.93V350.055H106.973V352.893C106.973 353.947 107.621 354.572 108.663 354.572C109.15 354.572 109.405 354.479 109.486 354.445V353.333C109.428 353.344 109.208 353.379 109.022 353.379C108.524 353.379 108.304 353.171 108.304 352.673V350.055H109.474V348.863H108.304V347.137ZM110.518 352.974C110.518 353.866 111.248 354.676 112.429 354.676C113.344 354.676 113.9 354.213 114.166 353.785C114.166 354.236 114.213 354.468 114.224 354.503H115.475C115.464 354.445 115.406 354.109 115.406 353.599V350.797C115.406 349.673 114.745 348.689 113.008 348.689C111.619 348.689 110.738 349.557 110.634 350.53L111.862 350.808C111.92 350.241 112.313 349.789 113.02 349.789C113.761 349.789 114.085 350.171 114.085 350.646C114.085 350.843 113.993 351.005 113.668 351.051L112.221 351.271C111.26 351.41 110.518 351.966 110.518 352.974ZM112.684 353.622C112.151 353.622 111.862 353.275 111.862 352.893C111.862 352.43 112.198 352.198 112.615 352.128L114.085 351.908V352.163C114.085 353.263 113.437 353.622 112.684 353.622ZM118.373 354.503V346.118H117.03V354.503H118.373Z" fill="#ABB2BC"/>
<path d="M308.309 350.067V347.519H309.757C310.637 347.519 311.17 348.017 311.17 348.805C311.17 349.581 310.637 350.067 309.757 350.067H308.309ZM309.965 351.295C311.54 351.295 312.583 350.241 312.583 348.793C312.583 347.357 311.54 346.292 309.965 346.292H306.919V354.503H308.309V351.295H309.965ZM315.253 353.229V347.565H316.724C318.149 347.565 319.318 348.492 319.318 350.414C319.318 352.314 318.137 353.229 316.712 353.229H315.253ZM316.759 354.503C318.982 354.503 320.766 353.043 320.766 350.414C320.766 347.774 319.006 346.292 316.77 346.292H313.864V354.503H316.759ZM327.294 354.503V353.205H323.611V351.028H326.947V349.766H323.611V347.589H327.294V346.292H322.221V354.503H327.294ZM335.308 346.292H333.675L331.753 349.303L329.842 346.292H328.174L330.896 350.391L328.151 354.503H329.784L331.718 351.503L333.629 354.503H335.296L332.575 350.403L335.308 346.292Z" fill="#ABB2BC"/>
<path d="M247.201 354.331V344.95H245.696C245.493 345.935 244.567 346.688 243.22 346.717V347.904H245.493V354.331H247.201ZM250.745 349.641C250.745 348.454 250.948 347.542 251.411 346.963C251.729 346.543 252.178 346.268 252.859 346.268C253.539 346.268 253.973 346.543 254.306 346.963C254.755 347.542 254.958 348.454 254.958 349.641C254.958 350.828 254.755 351.74 254.306 352.319C253.973 352.739 253.539 353.014 252.859 353.014C252.178 353.014 251.729 352.739 251.411 352.319C250.962 351.74 250.745 350.828 250.745 349.641ZM249.022 349.641C249.022 350.886 249.225 352.058 249.862 353.014C250.47 353.926 251.454 354.548 252.859 354.548C254.263 354.548 255.233 353.926 255.841 353.014C256.478 352.058 256.68 350.886 256.68 349.641C256.68 348.396 256.478 347.223 255.841 346.268C255.233 345.356 254.263 344.733 252.859 344.733C251.454 344.733 250.47 345.356 249.862 346.268C249.225 347.223 249.022 348.396 249.022 349.641ZM257.724 353.245C257.724 353.897 258.245 354.418 258.897 354.418C259.548 354.418 260.084 353.897 260.084 353.245C260.084 352.594 259.548 352.058 258.897 352.058C258.245 352.058 257.724 352.594 257.724 353.245ZM264.307 354.331V344.95H262.802C262.599 345.935 261.673 346.688 260.326 346.717V347.904H262.599V354.331H264.307ZM269.75 354.331V344.95H268.245C268.042 345.935 267.116 346.688 265.769 346.717V347.904H268.042V354.331H269.75ZM273.235 348.468C273.221 348.309 273.192 348.135 273.192 347.99C273.192 347.021 273.728 346.253 274.828 346.253C275.885 346.253 276.406 346.948 276.406 347.715C276.406 348.396 276.044 348.96 275.204 349.482L273.655 350.451C272.019 351.465 271.455 352.724 271.426 354.331H278.215V352.797H273.568C273.699 352.333 274.075 352 274.524 351.725L276.348 350.596C277.477 349.901 278.157 348.902 278.157 347.686C278.157 346.08 276.927 344.733 274.857 344.733C272.729 344.733 271.513 346.195 271.513 347.817C271.513 348.005 271.542 348.222 271.556 348.352L273.235 348.468ZM279.187 351.74C279.303 353.216 280.692 354.563 282.719 354.563C284.89 354.563 286.251 353.086 286.251 351.32C286.251 349.351 284.905 348.193 283.037 348.193C282.372 348.193 281.648 348.425 281.242 348.845L281.821 346.47H285.788V344.95H280.649L279.491 349.684L281.127 350.278C281.46 349.901 282.024 349.626 282.69 349.626C283.646 349.626 284.5 350.205 284.5 351.363C284.5 352.406 283.703 353.072 282.719 353.072C281.633 353.072 280.895 352.319 280.823 351.32L279.187 351.74ZM293.818 344.95H286.812V346.47H291.849C291.849 346.47 288.578 349.091 288.172 354.331H289.968C290.387 349.496 293.037 347.122 293.818 346.47V344.95ZM301.41 344.95H294.403V346.47H299.441C299.441 346.47 296.169 349.091 295.764 354.331H297.559C297.979 349.496 300.628 347.122 301.41 346.47V344.95Z" fill="white"/>
<rect x="91.7373" y="385.932" width="249.719" height="41.9818" rx="8.68589" fill="#8BA1BE" fill-opacity="0.2"/>
<path d="M142.565 412.156C144.923 412.156 146.33 410.658 146.747 409.094L145.314 408.625C145.001 409.668 144.115 410.658 142.565 410.658C140.988 410.658 139.503 409.511 139.503 407.349C139.503 405.108 141.027 404 142.552 404C144.102 404 144.962 404.899 145.236 406.02L146.708 405.525C146.291 403.909 144.897 402.528 142.552 402.528C140.154 402.528 137.9 404.339 137.9 407.349C137.9 410.358 140.076 412.156 142.565 412.156ZM150.763 410.801C149.838 410.801 148.991 410.098 148.991 408.782C148.991 407.466 149.838 406.788 150.763 406.788C151.701 406.788 152.535 407.466 152.535 408.782C152.535 410.111 151.701 410.801 150.763 410.801ZM150.763 405.42C148.874 405.42 147.48 406.84 147.48 408.782C147.48 410.736 148.874 412.156 150.763 412.156C152.665 412.156 154.059 410.736 154.059 408.782C154.059 406.84 152.665 405.42 150.763 405.42ZM157.031 408.3C157.031 407.466 157.487 406.801 158.347 406.801C159.298 406.801 159.65 407.427 159.65 408.209V411.961H161.161V407.948C161.161 406.554 160.419 405.433 158.868 405.433C158.165 405.433 157.409 405.733 156.992 406.463V405.616H155.52V411.961H157.031V408.3ZM164.512 408.3C164.512 407.466 164.968 406.801 165.828 406.801C166.779 406.801 167.131 407.427 167.131 408.209V411.961H168.643V407.948C168.643 406.554 167.9 405.433 166.35 405.433C165.646 405.433 164.89 405.733 164.473 406.463V405.616H163.001V411.961H164.512V408.3ZM171.538 408.091C171.59 407.414 172.137 406.684 173.088 406.684C174.131 406.684 174.626 407.349 174.652 408.091H171.538ZM174.821 409.746C174.613 410.371 174.144 410.853 173.232 410.853C172.294 410.853 171.538 410.163 171.499 409.199H176.137C176.15 409.173 176.176 408.964 176.176 408.717C176.176 406.71 175.03 405.42 173.075 405.42C171.473 405.42 169.987 406.749 169.987 408.756C169.987 410.905 171.512 412.156 173.232 412.156C174.756 412.156 175.759 411.257 176.098 410.15L174.821 409.746ZM180.382 406.814C181.347 406.814 181.777 407.44 181.92 408L183.275 407.505C183.014 406.489 182.076 405.42 180.369 405.42C178.545 405.42 177.125 406.827 177.125 408.782C177.125 410.71 178.545 412.156 180.409 412.156C182.076 412.156 183.027 411.075 183.327 410.085L181.998 409.603C181.855 410.085 181.399 410.775 180.409 410.775C179.457 410.775 178.637 410.059 178.637 408.782C178.637 407.505 179.457 406.814 180.382 406.814ZM186.584 403.674H185.216V404.626C185.216 405.186 184.917 405.616 184.239 405.616H183.914V406.958H185.086V410.15C185.086 411.335 185.816 412.039 186.988 412.039C187.536 412.039 187.822 411.935 187.913 411.896V410.645C187.848 410.658 187.601 410.697 187.392 410.697C186.832 410.697 186.584 410.462 186.584 409.902V406.958H187.9V405.616H186.584V403.674ZM202.653 404.196V402.723H195.083V404.196H198.08V411.961H199.644V404.196H202.653ZM206.641 405.577C206.575 405.564 206.419 405.538 206.237 405.538C205.403 405.538 204.699 405.941 204.4 406.632V405.616H202.927V411.961H204.439V408.938C204.439 407.753 204.973 407.075 206.145 407.075C206.302 407.075 206.471 407.088 206.641 407.114V405.577ZM207.524 410.241C207.524 411.244 208.345 412.156 209.674 412.156C210.703 412.156 211.329 411.635 211.628 411.153C211.628 411.661 211.68 411.922 211.693 411.961H213.1C213.087 411.896 213.022 411.518 213.022 410.945V407.792C213.022 406.528 212.28 405.42 210.325 405.42C208.762 405.42 207.772 406.398 207.654 407.492L209.035 407.805C209.101 407.166 209.544 406.658 210.338 406.658C211.172 406.658 211.537 407.088 211.537 407.622C211.537 407.844 211.433 408.026 211.068 408.078L209.439 408.326C208.358 408.482 207.524 409.108 207.524 410.241ZM209.96 410.971C209.361 410.971 209.035 410.58 209.035 410.15C209.035 409.629 209.413 409.368 209.882 409.29L211.537 409.042V409.329C211.537 410.567 210.807 410.971 209.96 410.971ZM215.853 408.769C215.853 407.557 216.582 406.788 217.573 406.788C218.563 406.788 219.24 407.544 219.24 408.756C219.24 409.967 218.55 410.788 217.56 410.788C216.53 410.788 215.853 409.98 215.853 408.769ZM220.7 402.528H219.227V406.358C219.032 405.955 218.472 405.446 217.364 405.446C215.579 405.446 214.341 406.945 214.341 408.769C214.341 410.684 215.566 412.117 217.39 412.117C218.289 412.117 218.954 411.674 219.253 411.14C219.253 411.401 219.292 411.817 219.318 411.961H220.765C220.752 411.857 220.7 411.375 220.7 410.801V402.528ZM224.173 411.961V405.616H222.674V411.961H224.173ZM222.44 403.388C222.44 403.935 222.883 404.365 223.417 404.365C223.964 404.365 224.407 403.935 224.407 403.388C224.407 402.841 223.964 402.398 223.417 402.398C222.883 402.398 222.44 402.841 222.44 403.388ZM227.634 408.3C227.634 407.466 228.09 406.801 228.95 406.801C229.901 406.801 230.252 407.427 230.252 408.209V411.961H231.764V407.948C231.764 406.554 231.021 405.433 229.471 405.433C228.767 405.433 228.011 405.733 227.595 406.463V405.616H226.122V411.961H227.634V408.3ZM233.148 412.313C233.317 413.589 234.49 414.632 236.17 414.632C238.555 414.632 239.428 413.055 239.428 411.361V405.616H237.968V406.424C237.695 405.902 237.082 405.499 236.092 405.499C234.346 405.499 233.161 406.893 233.161 408.586C233.161 410.371 234.398 411.674 236.092 411.674C237.017 411.674 237.656 411.244 237.929 410.749V411.414C237.929 412.703 237.33 413.316 236.131 413.316C235.258 413.316 234.646 412.73 234.542 411.948L233.148 412.313ZM236.34 410.384C235.35 410.384 234.685 409.694 234.685 408.586C234.685 407.505 235.376 406.801 236.34 406.801C237.278 406.801 237.968 407.505 237.968 408.586C237.968 409.681 237.304 410.384 236.34 410.384ZM250.957 411.961H252.664L249.068 402.723H247.257L243.661 411.961H245.315L246.175 409.642H250.084L250.957 411.961ZM248.13 404.417L249.537 408.195H246.723L248.13 404.417ZM256.405 406.814C257.369 406.814 257.799 407.44 257.943 408L259.298 407.505C259.037 406.489 258.099 405.42 256.392 405.42C254.568 405.42 253.148 406.827 253.148 408.782C253.148 410.71 254.568 412.156 256.431 412.156C258.099 412.156 259.05 411.075 259.35 410.085L258.021 409.603C257.877 410.085 257.421 410.775 256.431 410.775C255.48 410.775 254.659 410.059 254.659 408.782C254.659 407.505 255.48 406.814 256.405 406.814ZM263.39 406.814C264.355 406.814 264.785 407.44 264.928 408L266.283 407.505C266.022 406.489 265.084 405.42 263.377 405.42C261.553 405.42 260.133 406.827 260.133 408.782C260.133 410.71 261.553 412.156 263.416 412.156C265.084 412.156 266.035 411.075 266.335 410.085L265.006 409.603C264.863 410.085 264.407 410.775 263.416 410.775C262.465 410.775 261.645 410.059 261.645 408.782C261.645 407.505 262.465 406.814 263.39 406.814ZM270.402 410.801C269.477 410.801 268.63 410.098 268.63 408.782C268.63 407.466 269.477 406.788 270.402 406.788C271.34 406.788 272.174 407.466 272.174 408.782C272.174 410.111 271.34 410.801 270.402 410.801ZM270.402 405.42C268.512 405.42 267.118 406.84 267.118 408.782C267.118 410.736 268.512 412.156 270.402 412.156C272.304 412.156 273.698 410.736 273.698 408.782C273.698 406.84 272.304 405.42 270.402 405.42ZM279.25 411.257C279.25 411.518 279.277 411.817 279.303 411.961H280.749C280.723 411.726 280.684 411.322 280.684 410.801V405.616H279.172V409.368C279.172 410.202 278.716 410.788 277.843 410.788C276.931 410.788 276.567 410.124 276.567 409.342V405.616H275.055V409.616C275.055 411.023 275.941 412.143 277.453 412.143C278.195 412.143 278.938 411.831 279.25 411.257ZM284.151 408.3C284.151 407.466 284.607 406.801 285.467 406.801C286.418 406.801 286.77 407.427 286.77 408.209V411.961H288.281V407.948C288.281 406.554 287.539 405.433 285.988 405.433C285.285 405.433 284.529 405.733 284.112 406.463V405.616H282.64V411.961H284.151V408.3ZM292.037 403.674H290.669V404.626C290.669 405.186 290.369 405.616 289.691 405.616H289.366V406.958H290.538V410.15C290.538 411.335 291.268 412.039 292.44 412.039C292.988 412.039 293.274 411.935 293.365 411.896V410.645C293.3 410.658 293.053 410.697 292.844 410.697C292.284 410.697 292.037 410.462 292.037 409.902V406.958H293.352V405.616H292.037V403.674Z" fill="white"/>
<rect x="190.177" y="0.133911" width="170.822" height="41.9818" rx="8.68589" fill="white"/>
<rect x="195.968" y="4.47681" width="31.8483" height="31.8483" rx="8.68589" fill="#1C1C26"/>
<path fill-rule="evenodd" clip-rule="evenodd" d="M219.048 23.2207H216.118C214.745 23.2207 213.628 22.1039 213.627 20.7315C213.627 19.3577 214.745 18.2401 216.118 18.2394H219.048C219.348 18.2394 219.591 18.4826 219.591 18.7822C219.591 19.0819 219.348 19.3251 219.048 19.3251H216.118C215.343 19.3258 214.713 19.9563 214.713 20.7308C214.713 21.5046 215.344 22.135 216.118 22.135H219.048C219.348 22.135 219.591 22.3782 219.591 22.6779C219.591 22.9775 219.348 23.2207 219.048 23.2207Z" fill="white"/>
<path fill-rule="evenodd" clip-rule="evenodd" d="M216.45 21.2288H216.225C215.925 21.2288 215.682 20.9856 215.682 20.6859C215.682 20.3863 215.925 20.1431 216.225 20.1431H216.45C216.75 20.1431 216.993 20.3863 216.993 20.6859C216.993 20.9856 216.75 21.2288 216.45 21.2288Z" fill="white"/>
<mask id="mask1_669_9136" style="mask-type:alpha" maskUnits="userSpaceOnUse" x="204" y="13" width="16" height="15">
<path fill-rule="evenodd" clip-rule="evenodd" d="M204.653 13.8866H219.592V27.7644H204.653V13.8866Z" fill="white"/>
</mask>
<g mask="url(#mask1_669_9136)">
<path fill-rule="evenodd" clip-rule="evenodd" d="M208.995 14.9723C207.2 14.9723 205.739 16.433 205.739 18.2281V23.423C205.739 25.2181 207.2 26.6787 208.995 26.6787H215.252C217.047 26.6787 218.507 25.2181 218.507 23.423V18.2281C218.507 16.433 217.047 14.9723 215.252 14.9723H208.995ZM215.252 27.7645H208.995C206.601 27.7645 204.653 25.8167 204.653 23.423V18.2281C204.653 15.8337 206.601 13.8866 208.995 13.8866H215.252C217.645 13.8866 219.592 15.8337 219.592 18.2281V23.423C219.592 25.8167 217.645 27.7645 215.252 27.7645Z" fill="white"/>
</g>
<path fill-rule="evenodd" clip-rule="evenodd" d="M212.386 18.2571H208.478C208.179 18.2571 207.936 18.0139 207.936 17.7143C207.936 17.4146 208.179 17.1714 208.478 17.1714H212.386C212.686 17.1714 212.929 17.4146 212.929 17.7143C212.929 18.0139 212.686 18.2571 212.386 18.2571Z" fill="white"/>
<path d="M250.311 24.7151V23.2298H246.077V15.4776H244.513V24.7151H250.311ZM254.373 23.5555C253.448 23.5555 252.601 22.852 252.601 21.5361C252.601 20.2201 253.448 19.5426 254.373 19.5426C255.311 19.5426 256.145 20.2201 256.145 21.5361C256.145 22.865 255.311 23.5555 254.373 23.5555ZM254.373 18.1746C252.484 18.1746 251.09 19.5948 251.09 21.5361C251.09 23.4904 252.484 24.9105 254.373 24.9105C256.275 24.9105 257.669 23.4904 257.669 21.5361C257.669 19.5948 256.275 18.1746 254.373 18.1746ZM258.674 25.0669C258.843 26.3437 260.016 27.386 261.696 27.386C264.081 27.386 264.954 25.8095 264.954 24.1158V18.37H263.494V19.1778C263.221 18.6567 262.608 18.2528 261.618 18.2528C259.872 18.2528 258.687 19.6469 258.687 21.3406C258.687 23.1256 259.924 24.4285 261.618 24.4285C262.543 24.4285 263.182 23.9985 263.455 23.5034V24.1679C263.455 25.4577 262.856 26.0701 261.657 26.0701C260.784 26.0701 260.172 25.4838 260.068 24.7021L258.674 25.0669ZM261.866 23.1386C260.875 23.1386 260.211 22.4481 260.211 21.3406C260.211 20.2592 260.902 19.5557 261.866 19.5557C262.804 19.5557 263.494 20.2592 263.494 21.3406C263.494 22.435 262.83 23.1386 261.866 23.1386ZM268.3 24.7151V18.37H266.802V24.7151H268.3ZM266.567 16.1421C266.567 16.6893 267.01 17.1193 267.545 17.1193C268.092 17.1193 268.535 16.6893 268.535 16.1421C268.535 15.5949 268.092 15.1519 267.545 15.1519C267.01 15.1519 266.567 15.5949 266.567 16.1421ZM271.761 21.054C271.761 20.2201 272.217 19.5557 273.077 19.5557C274.028 19.5557 274.38 20.1811 274.38 20.9628V24.7151H275.891V20.7022C275.891 19.3081 275.149 18.1876 273.598 18.1876C272.895 18.1876 272.139 18.4873 271.722 19.2169V18.37H270.25V24.7151H271.761V21.054ZM285.927 15.4125H284.533L279.986 24.7802H281.38L285.927 15.4125ZM296.338 17.6404C296.13 16.6112 295.283 15.2822 293.107 15.2822C291.387 15.2822 289.967 16.559 289.967 18.1095C289.967 19.4905 290.905 20.4156 292.313 20.7022L293.615 20.9758C294.41 21.1452 294.853 21.6273 294.853 22.2266C294.853 22.9432 294.28 23.5034 293.172 23.5034C291.844 23.5034 291.153 22.6174 291.062 21.6533L289.603 22.0702C289.746 23.3992 290.827 24.9105 293.172 24.9105C295.283 24.9105 296.443 23.5425 296.443 22.1093C296.443 20.8064 295.57 19.7772 293.941 19.4514L292.612 19.1778C291.896 19.0215 291.531 18.5785 291.531 17.9922C291.531 17.2887 292.182 16.6633 293.12 16.6633C294.358 16.6633 294.84 17.5101 294.931 18.0834L296.338 17.6404ZM299.396 24.7151V18.37H297.898V24.7151H299.396ZM297.664 16.1421C297.664 16.6893 298.107 17.1193 298.641 17.1193C299.188 17.1193 299.631 16.6893 299.631 16.1421C299.631 15.5949 299.188 15.1519 298.641 15.1519C298.107 15.1519 297.664 15.5949 297.664 16.1421ZM300.89 25.0669C301.059 26.3437 302.232 27.386 303.913 27.386C306.297 27.386 307.17 25.8095 307.17 24.1158V18.37H305.711V19.1778C305.437 18.6567 304.825 18.2528 303.835 18.2528C302.089 18.2528 300.903 19.6469 300.903 21.3406C300.903 23.1256 302.141 24.4285 303.835 24.4285C304.76 24.4285 305.398 23.9985 305.672 23.5034V24.1679C305.672 25.4577 305.072 26.0701 303.874 26.0701C303.001 26.0701 302.388 25.4838 302.284 24.7021L300.89 25.0669ZM304.082 23.1386C303.092 23.1386 302.427 22.4481 302.427 21.3406C302.427 20.2592 303.118 19.5557 304.082 19.5557C305.02 19.5557 305.711 20.2592 305.711 21.3406C305.711 22.435 305.046 23.1386 304.082 23.1386ZM310.53 21.054C310.53 20.2201 310.986 19.5557 311.846 19.5557C312.797 19.5557 313.149 20.1811 313.149 20.9628V24.7151H314.66V20.7022C314.66 19.3081 313.917 18.1876 312.367 18.1876C311.663 18.1876 310.908 18.4873 310.491 19.2169V18.37H309.018V24.7151H310.53V21.054ZM323.197 24.9105C325.138 24.9105 326.65 23.7249 326.65 21.497V15.4776H325.086V21.4058C325.086 22.7086 324.383 23.4252 323.197 23.4252C322.025 23.4252 321.308 22.7086 321.308 21.4058V15.4776H319.758V21.497C319.758 23.7249 321.269 24.9105 323.197 24.9105ZM330.06 27.1906V23.9985C330.386 24.4806 331.076 24.8714 331.988 24.8714C333.812 24.8714 334.972 23.4383 334.972 21.5361C334.972 19.6599 333.916 18.2267 332.04 18.2267C331.063 18.2267 330.334 18.6827 330.021 19.2299V18.37H328.562V27.1906H330.06ZM333.46 21.5361C333.46 22.7477 332.757 23.5295 331.754 23.5295C330.763 23.5295 330.047 22.7477 330.047 21.5361C330.047 20.3504 330.763 19.5687 331.754 19.5687C332.77 19.5687 333.46 20.3504 333.46 21.5361Z" fill="#1C1C26"/>
<defs>
<filter id="filter0_d_669_9136" x="0.535736" y="8.81963" width="432.123" height="494.372" filterUnits="userSpaceOnUse" color-interpolation-filters="sRGB">
<feFlood flood-opacity="0" result="BackgroundImageFix"/>
<feColorMatrix in="SourceAlpha" type="matrix" values="0 0 0 0 0 0 0 0 0 0 0 0 0 0 0 0 0 0 127 0" result="hardAlpha"/>
<feOffset dy="-14.4765"/>
<feGaussianBlur stdDeviation="35.8293"/>
<feColorMatrix type="matrix" values="0 0 0 0 0 0 0 0 0 0 0 0 0 0 0 0 0 0 0.17 0"/>
<feBlend mode="normal" in2="BackgroundImageFix" result="effect1_dropShadow_669_9136"/>
<feBlend mode="normal" in="SourceGraphic" in2="effect1_dropShadow_669_9136" result="shape"/>
</filter>
</defs>
</svg>
