<svg width="55" height="37" viewBox="0 0 55 37" fill="none" xmlns="http://www.w3.org/2000/svg">
<path d="M52.7468 0.278396C51.3948 -0.284947 49.8335 0.0208667 48.8034 1.06707L35.251 14.6356V22.0073L49.7691 7.48919V31.6807H25.6258L22.8413 27.1579L13.1196 36.8957H51.3787C53.3745 36.8957 55.0002 35.27 55.0002 33.2742V3.61017C54.9841 2.14547 54.1149 0.841739 52.7468 0.278396Z" fill="#0B213E"/>
<path d="M16.8056 31.6649H12.9587L28.9738 15.6498V30.6026H34.1887V11.803C34.1887 10.3383 33.3035 9.0185 31.9514 8.45515C30.5994 7.89181 29.0382 8.19762 28.008 9.24383L0.355957 36.8959H11.5906L16.8056 31.6649Z" fill="#0B213E"/>
<path d="M28.7484 31.6807H18.3185L13.1035 36.8956H30.5832C32.5791 36.8956 34.2047 35.27 34.2047 33.2741V31.6807H28.7484Z" fill="#0B213E"/>
</svg>
