<svg width="62" height="62" viewBox="0 0 62 62" fill="none" xmlns="http://www.w3.org/2000/svg">
<path d="M31 0C13.8796 0 0 13.8796 0 31C0 48.1204 13.8796 62 31 62C48.1204 62 62 48.1204 62 31C62 13.8796 48.1204 0 31 0ZM52.8324 39.2365C49.5054 48.0489 40.9972 54.3204 31.021 54.3288C18.3221 54.3393 7.85561 44.041 7.67276 31.3426C7.48624 18.3016 18.0031 7.67119 31 7.67119C41.0062 7.67119 49.5406 13.9721 52.8534 22.8223C53.0363 23.3099 53.1203 23.8038 53.1203 24.2851C53.1203 26.5066 51.3071 28.4774 48.9049 28.4774C47.1499 28.4774 45.5842 27.3867 44.9663 25.7452C42.8346 20.077 37.3518 16.048 30.9306 16.0774C22.9027 16.1132 16.2718 22.6116 16.0822 30.638C15.883 39.0453 22.6395 45.922 31 45.922C37.3976 45.922 42.8515 41.8952 44.9721 36.2395C45.5858 34.6023 47.1557 33.522 48.9043 33.522C51.8546 33.522 53.8722 36.4749 52.8324 39.2365Z" fill="black"/>
<path d="M23.8136 30.922C23.7757 27.0381 27.242 23.7406 31.1049 23.8041C34.8984 23.8661 38.2695 27.128 38.1876 31.1333C38.1109 34.9505 34.8753 38.31 30.7791 38.1934C26.9178 38.0836 23.698 34.7692 23.8136 30.922Z" fill="#E40B7B"/>
</svg>
