<svg width="118" height="114" viewBox="0 0 118 114" fill="none" xmlns="http://www.w3.org/2000/svg">
<path d="M97.8593 34.6807L78.479 45.8879L97.8593 57.1417L117.193 45.8879L97.8593 34.6807Z" fill="white"/>
<path d="M20.4335 34.6807L1.1001 45.8879L20.4335 57.1417L39.8138 45.8879L20.4335 34.6807Z" fill="white"/>
<path d="M39.814 90.6229V112.896L59.1474 101.689V79.416L39.814 90.6229Z" fill="#1792FF"/>
<path d="M39.8128 46.0213V68.2951L20.4326 57.0879V34.8145L39.8128 46.0213Z" fill="#A4D8FF"/>
<path d="M39.8128 68.3039V90.5304L20.4326 79.3704V57.0967L39.8128 68.3039Z" fill="#A4D8FF"/>
<path d="M20.4335 57.0961V79.3698L1.1001 68.1626V45.8892L20.4335 57.0961Z" fill="#A4D8FF"/>
<path d="M59.1474 79.4172V101.691L39.814 90.5303V68.2568L59.1474 79.4172Z" fill="#A4D8FF"/>
<path d="M78.4799 45.9367V68.2101L59.1465 57.0029V34.7295L78.4799 45.9367Z" fill="#A4D8FF"/>
<path d="M39.8128 23.5206V45.7942L20.4326 34.587V12.3135L39.8128 23.5206Z" fill="#A4D8FF"/>
<path d="M78.4799 90.5275V112.801L59.1465 101.641V79.3672L78.4799 90.5275Z" fill="#A4D8FF"/>
<path d="M39.8128 90.5275V112.801L20.4326 101.641V79.3672L39.8128 90.5275Z" fill="#A4D8FF"/>
<path d="M78.479 45.9367V68.2101L97.8593 57.0029V34.7295L78.479 45.9367Z" fill="#1792FF"/>
<path d="M78.479 23.5206V45.7942L97.8593 34.587V12.3135L78.479 23.5206Z" fill="#1792FF"/>
<path d="M39.814 45.9367V68.2101L59.1474 57.0029V34.7295L39.814 45.9367Z" fill="#1792FF"/>
<path d="M78.479 68.2072V90.4806L97.8593 79.2734V57L78.479 68.2072Z" fill="#1792FF"/>
<path d="M97.8599 57.0961V79.3698L117.193 68.1626V45.8892L97.8599 57.0961Z" fill="#1792FF"/>
<path d="M59.1465 79.368V101.642L78.4799 90.4814V68.208L59.1465 79.368Z" fill="#1792FF"/>
<path d="M78.479 90.4774V112.751L97.8593 101.544V79.2705L78.479 90.4774Z" fill="#1792FF"/>
<path d="M39.8128 23.5698L20.4326 34.7768L39.8128 46.0309L59.1463 34.7768L39.8128 23.5698Z" fill="white"/>
<path d="M59.1474 12.3135L39.814 23.5674L59.1474 34.7745L78.4806 23.5674L59.1474 12.3135Z" fill="white"/>
<path d="M59.1474 57L39.814 68.2072L59.1474 79.4141L78.4806 68.2072L59.1474 57Z" fill="white"/>
<path d="M78.4799 1.10547L59.1465 12.3125L78.4799 23.5666L97.8602 12.3125L78.4799 1.10547Z" fill="white"/>
<path d="M39.8128 1.10547L20.4326 12.3125L39.8128 23.5666L59.1463 12.3125L39.8128 1.10547Z" fill="white"/>
<path d="M78.4799 23.4246L59.1465 34.6787L78.4799 45.8855L97.8602 34.6787L78.4799 23.4246Z" fill="white"/>
<path d="M20.4335 12.3125V34.6799L1.1001 45.8868V68.1605L20.4335 79.3674V101.641L39.8138 112.801L59.147 101.641L78.4804 112.801L97.8607 101.641V79.3674L117.194 68.1605V45.8868L97.8607 34.6799V12.3125L78.4804 1.10547L59.147 12.3125L39.8138 1.10547L20.4335 12.3125Z" stroke="#001423" stroke-width="1.5" stroke-miterlimit="10" stroke-linejoin="round"/>
<path d="M1.1001 45.8896L20.4335 57.2372" stroke="white" stroke-width="1.5" stroke-miterlimit="10" stroke-linecap="round" stroke-linejoin="round"/>
<path d="M39.814 90.6243V112.804" stroke="white" stroke-width="1.5" stroke-miterlimit="10" stroke-linecap="round" stroke-linejoin="round"/>
<path d="M39.814 68.3047V90.625" stroke="#001423" stroke-width="1.5" stroke-miterlimit="10" stroke-linejoin="round"/>
<path d="M20.4326 34.6807V79.3682" stroke="#001423" stroke-width="1.5" stroke-miterlimit="10" stroke-linejoin="round"/>
<path d="M78.479 90.5283V68.208" stroke="#001423" stroke-width="1.5" stroke-miterlimit="10" stroke-linejoin="round"/>
<path d="M78.479 112.801V90.5273" stroke="white" stroke-width="1.5" stroke-miterlimit="10" stroke-linecap="round" stroke-linejoin="round"/>
<path d="M117.193 45.792L97.8599 57.1399" stroke="white" stroke-width="1.5" stroke-miterlimit="10" stroke-linecap="round" stroke-linejoin="round"/>
<path d="M97.8593 12.3135L78.479 23.6612" stroke="white" stroke-width="1.5" stroke-miterlimit="10" stroke-linecap="round" stroke-linejoin="round"/>
<path d="M20.4326 12.3135L39.8128 23.6612" stroke="white" stroke-width="1.5" stroke-miterlimit="10" stroke-linecap="round" stroke-linejoin="round"/>
<path d="M97.8599 79.8799V35.2393" stroke="#001423" stroke-width="1.5" stroke-miterlimit="10" stroke-linejoin="round"/>
<path d="M20.481 57.0967L39.8143 68.257" stroke="#001423" stroke-width="1.5" stroke-miterlimit="10" stroke-linejoin="round"/>
<path d="M20.4326 79.3672L59.1463 101.828" stroke="#001423" stroke-width="1.5" stroke-miterlimit="10" stroke-linejoin="round"/>
<path d="M97.4863 79.3672L58.8193 101.828" stroke="#001423" stroke-width="1.5" stroke-miterlimit="10" stroke-linejoin="round"/>
<path d="M97.8593 57.1455L78.479 68.2117" stroke="#001423" stroke-width="1.5" stroke-miterlimit="10" stroke-linejoin="round"/>
<path d="M79.1353 23.7036L59.1465 34.7231" stroke="#001423" stroke-width="1.5" stroke-miterlimit="10" stroke-linejoin="round"/>
<path d="M59.1465 12.3135L99.1241 35.431" stroke="#001423" stroke-width="1.5" stroke-miterlimit="10" stroke-linejoin="round"/>
<path d="M78.1529 67.9747L59.1474 56.8144V34.7285L39.814 23.5215" stroke="#001423" stroke-width="1.5" stroke-miterlimit="10" stroke-linejoin="round"/>
<path d="M59.1463 12.2646L20.4326 34.6789" stroke="#001423" stroke-width="1.5" stroke-miterlimit="10" stroke-linejoin="round"/>
<path d="M59.1479 56.7212L39.6743 68.0219" stroke="#001423" stroke-width="1.5" stroke-miterlimit="10" stroke-linejoin="round"/>
<path d="M20.4326 34.6807L39.8128 46.0285V68.2551L59.1463 79.4151V101.642" stroke="white" stroke-width="1.5" stroke-miterlimit="10" stroke-linecap="round" stroke-linejoin="round"/>
<path d="M97.8602 34.6807L78.4799 46.0285V68.2551L59.1465 79.4151" stroke="white" stroke-width="1.5" stroke-miterlimit="10" stroke-linecap="round" stroke-linejoin="round"/>
<path d="M39.814 46.0321L59.1474 34.7783L78.4806 46.0321" stroke="white" stroke-width="1.5" stroke-miterlimit="10" stroke-linecap="round" stroke-linejoin="round"/>
</svg>
