<svg width="179" height="83" viewBox="0 0 179 83" fill="none" xmlns="http://www.w3.org/2000/svg">
<path d="M69.4633 46.6868V43.227H63.1048V41.3943H68.0045V38.2151H63.1048V37.0557H69.351V33.5959H59.084V46.6868H69.4633Z" fill="white"/>
<path d="M81.1827 37.037H77.2367V38.1217C76.657 37.2428 75.7781 36.7939 74.5999 36.7939C73.3843 36.7939 72.3558 37.2802 71.5515 38.234C70.7474 39.1877 70.3359 40.4033 70.3359 41.8619C70.3359 43.3207 70.7474 44.5363 71.5515 45.49C72.3558 46.4438 73.3843 46.93 74.5999 46.93C75.7781 46.93 76.657 46.4812 77.2367 45.6022V50.4271H81.1827V37.037ZM77.2929 42.9466C77.0123 43.4141 76.526 43.6573 75.8155 43.6573C74.8617 43.6573 74.2259 42.8531 74.2259 41.8619C74.2259 40.8708 74.8617 40.0666 75.8155 40.0666C76.5074 40.0666 77.0123 40.2911 77.2929 40.7586V42.9466Z" fill="white"/>
<path d="M88.9144 42.9653C88.6152 43.3205 88.2412 43.4888 87.8111 43.4888C87.2688 43.4888 86.8386 43.1149 86.8386 42.3106V37.0369H82.8926V43.1523C82.8926 45.5273 84.0147 46.9299 86.0906 46.9299C86.6889 46.9299 87.25 46.7803 87.7737 46.4624C88.316 46.1444 88.69 45.8079 88.9144 45.4525V46.6868H92.8418V37.0369H88.9144V42.9653Z" fill="white"/>
<path d="M98.7153 46.6869V37.037H94.7694V46.6869H98.7153ZM96.7518 36.5882C98.0048 36.5882 98.9585 35.6157 98.9585 34.3627C98.9585 33.7456 98.7341 33.2406 98.3039 32.8105C97.8738 32.3804 97.3689 32.156 96.7518 32.156C96.1345 32.156 95.6109 32.3804 95.1808 32.8105C94.7507 33.2406 94.5449 33.7456 94.5449 34.3627C94.5449 34.9798 94.7507 35.5221 95.1808 35.9524C95.6109 36.3824 96.1345 36.5882 96.7518 36.5882Z" fill="white"/>
<path d="M103.565 46.9299C104.406 46.9299 105.061 46.7991 105.566 46.5559V43.545C105.435 43.601 105.285 43.6385 105.098 43.6385C104.855 43.6385 104.593 43.4888 104.593 43.1148V33.5959H100.666V43.9939C100.666 45.9574 101.638 46.9299 103.565 46.9299Z" fill="white"/>
<path d="M111.041 46.6869V37.037H107.096V46.6869H111.041ZM109.078 36.5882C110.331 36.5882 111.285 35.6157 111.285 34.3627C111.285 33.7456 111.06 33.2406 110.63 32.8105C110.2 32.3804 109.695 32.156 109.078 32.156C108.461 32.156 107.937 32.3804 107.507 32.8105C107.077 33.2406 106.871 33.7456 106.871 34.3627C106.871 34.9798 107.077 35.5221 107.507 35.9524C107.937 36.3824 108.461 36.5882 109.078 36.5882Z" fill="white"/>
<path d="M112.992 46.6868H116.938V45.6021C117.518 46.4811 118.397 46.9299 119.575 46.9299C120.791 46.9299 121.819 46.4437 122.623 45.4899C123.428 44.5362 123.839 43.3206 123.839 41.8618C123.839 40.4032 123.428 39.1876 122.623 38.2338C121.819 37.2801 120.791 36.7938 119.575 36.7938C118.397 36.7938 117.518 37.2427 116.938 38.1216V33.5959H112.992V46.6868ZM116.882 40.7772C117.163 40.3097 117.649 40.0665 118.359 40.0665C119.313 40.0665 119.949 40.8707 119.949 41.8618C119.949 42.8531 119.313 43.6572 118.359 43.6572C117.667 43.6572 117.163 43.4328 116.882 42.9653V40.7772Z" fill="white"/>
<path d="M129.048 46.6868V41.2448C129.572 40.6837 130.357 40.4033 131.405 40.4033C131.797 40.4033 132.191 40.4593 132.583 40.5529V36.85C132.451 36.8126 132.265 36.7939 132.059 36.7939C131.386 36.7939 130.769 36.9996 130.189 37.3924C129.609 37.7851 129.235 38.1778 129.048 38.5706V37.037H125.121V46.6868H129.048Z" fill="white"/>
<path d="M137.961 46.6869V37.037H134.015V46.6869H137.961ZM135.998 36.5882C137.25 36.5882 138.204 35.6157 138.204 34.3627C138.204 33.7456 137.98 33.2406 137.549 32.8105C137.12 32.3804 136.615 32.156 135.998 32.156C135.381 32.156 134.857 32.3804 134.427 32.8105C133.997 33.2406 133.791 33.7456 133.791 34.3627C133.791 34.9798 133.997 35.5221 134.427 35.9524C134.857 36.3824 135.381 36.5882 135.998 36.5882Z" fill="white"/>
<path d="M145.768 42.9653C145.469 43.3205 145.095 43.4888 144.664 43.4888C144.122 43.4888 143.692 43.1149 143.692 42.3106V37.0369H139.746V43.1523C139.746 45.5273 140.868 46.9299 142.944 46.9299C143.542 46.9299 144.104 46.7803 144.627 46.4624C145.169 46.1444 145.543 45.8079 145.768 45.4525V46.6868H149.695V37.0369H145.768V42.9653Z" fill="white"/>
<path d="M155.491 46.6868V40.8147C155.771 40.4219 156.128 40.2163 156.594 40.2163C157.174 40.2163 157.455 40.6089 157.455 41.3944V46.6868H161.401V40.7773C161.644 40.4033 161.999 40.2163 162.467 40.2163C163.047 40.2163 163.327 40.6089 163.327 41.3944V46.6868H167.273V40.6651C167.273 39.3934 166.956 38.4396 166.3 37.7851C165.646 37.1306 164.86 36.7939 163.907 36.7939C162.616 36.7939 161.382 37.4672 160.859 38.3462C160.354 37.3176 159.494 36.7939 158.278 36.7939C157.081 36.7939 155.94 37.5233 155.491 38.29V37.037H151.564V46.6868H155.491Z" fill="white"/>
<path d="M43.5203 34.0459L37.2461 37.668L43.5203 41.3052L49.7793 37.668L43.5203 34.0459Z" fill="#C9EEFF"/>
<path d="M18.4543 34.0459L12.1953 37.668L18.4543 41.3052L24.7286 37.668L18.4543 34.0459Z" fill="#C9EEFF"/>
<path d="M24.7285 52.1257V59.3245L30.9875 55.7024V48.5037L24.7285 52.1257Z" fill="#5178E5"/>
<path d="M24.7294 37.7136V44.9122L18.4551 41.2902V34.0916L24.7294 37.7136Z" fill="#59A8FE"/>
<path d="M24.7294 44.9119V52.0954L18.4551 48.4885V41.2898L24.7294 44.9119Z" fill="#59A8FE"/>
<path d="M18.4543 41.29V48.4886L12.1953 44.8666V37.668L18.4543 41.29Z" fill="#59A8FE"/>
<path d="M30.9875 48.5036V55.7024L24.7285 52.0955V44.8967L30.9875 48.5036Z" fill="#59A8FE"/>
<path d="M37.2473 37.6831V44.8817L30.9883 41.2597V34.061L37.2473 37.6831Z" fill="#59A8FE"/>
<path d="M24.7294 30.439V37.6376L18.4551 34.0155V26.8169L24.7294 30.439Z" fill="#59A8FE"/>
<path d="M37.2473 52.0957V59.2943L30.9883 55.6874V48.4888L37.2473 52.0957Z" fill="#59A8FE"/>
<path d="M24.7294 52.0957V59.2943L18.4551 55.6874V48.4888L24.7294 52.0957Z" fill="#59A8FE"/>
<path d="M37.2461 37.6831V44.8817L43.5203 41.2597V34.061L37.2461 37.6831Z" fill="#5176E5"/>
<path d="M37.2461 30.439V37.6376L43.5203 34.0155V26.8169L37.2461 30.439Z" fill="#5176E5"/>
<path d="M24.7285 37.6831V44.8817L30.9875 41.2597V34.061L24.7285 37.6831Z" fill="#5178E5"/>
<path d="M37.2461 44.8818V52.0806L43.5203 48.4585V41.2598L37.2461 44.8818Z" fill="#5176E5"/>
<path d="M43.5215 41.29V48.4886L49.7805 44.8666V37.668L43.5215 41.29Z" fill="#5176E5"/>
<path d="M30.9883 48.4887V55.6873L37.2473 52.0804V44.8818L30.9883 48.4887Z" fill="#5176E5"/>
<path d="M37.2461 52.0803V59.2789L43.5203 55.6569V48.4583L37.2461 52.0803Z" fill="#5176E5"/>
<path d="M24.7294 30.4541L18.4551 34.0762L24.7294 37.7134L30.9884 34.0762L24.7294 30.4541Z" fill="#C9EEFF"/>
<path d="M30.9875 26.8169L24.7285 30.4541L30.9875 34.0762L37.2465 30.4541L30.9875 26.8169Z" fill="#C9EEFF"/>
<path d="M30.9875 41.2598L24.7285 44.8818L30.9875 48.5039L37.2465 44.8818L30.9875 41.2598Z" fill="#C9EEFF"/>
<path d="M37.2473 23.1948L30.9883 26.8169L37.2473 30.4541L43.5215 26.8169L37.2473 23.1948Z" fill="#C9EEFF"/>
<path d="M24.7294 23.1948L18.4551 26.8169L24.7294 30.4541L30.9884 26.8169L24.7294 23.1948Z" fill="#C9EEFF"/>
<path d="M37.2473 30.4087L30.9883 34.0459L37.2473 37.668L43.5215 34.0459L37.2473 30.4087Z" fill="#C9EEFF"/>
<path fill-rule="evenodd" clip-rule="evenodd" d="M24.6306 23.0261C24.691 22.9913 24.7653 22.9913 24.8256 23.0262L30.987 26.5917L37.1485 23.0262C37.2088 22.9913 37.2832 22.9913 37.3435 23.0261L43.6177 26.6482C43.6779 26.683 43.7151 26.7473 43.7151 26.8168V33.9334L49.8769 37.4993C49.9371 37.5341 49.9741 37.5984 49.9741 37.6678V44.8666C49.9741 44.9361 49.9371 45.0002 49.8769 45.0351L43.7151 48.601V55.6872C43.7151 55.7569 43.6778 55.8213 43.6174 55.8561L37.3432 59.463C37.2831 59.4976 37.209 59.4976 37.1489 59.4629L30.987 55.912L24.8253 59.4629C24.7652 59.4976 24.6911 59.4976 24.631 59.463L18.3567 55.8561C18.2963 55.8213 18.259 55.7569 18.259 55.6872V48.601L12.0972 45.0351C12.0371 45.0002 12 44.9361 12 44.8666V37.6678C12 37.5984 12.0371 37.5341 12.0972 37.4993L18.259 33.9334V26.8168C18.259 26.7473 18.2962 26.683 18.3564 26.6482L24.6306 23.0261ZM18.6486 26.9293V34.0458C18.6486 34.1153 18.6116 34.1796 18.5514 34.2144L12.3896 37.7802V44.7542L18.5514 48.32C18.6116 48.3548 18.6486 48.4191 18.6486 48.4886V55.5745L24.7279 59.0693L30.8897 55.5185C30.95 55.4838 31.0242 55.4838 31.0843 55.5185L37.2462 59.0693L43.3255 55.5745V48.4886C43.3255 48.4191 43.3625 48.3548 43.4227 48.32L49.5845 44.7542V37.7802L43.4227 34.2144C43.3625 34.1796 43.3255 34.1153 43.3255 34.0458V26.9293L37.2462 23.4198L31.0846 26.9854C31.0243 27.0204 30.9499 27.0204 30.8895 26.9854L24.7279 23.4198L18.6486 26.9293Z" fill="#001423"/>
<path fill-rule="evenodd" clip-rule="evenodd" d="M12.0268 37.5694C12.0812 37.4766 12.2005 37.4455 12.2933 37.4999L18.5524 41.1675C18.6452 41.2218 18.6763 41.3411 18.6219 41.4339C18.5676 41.5269 18.4483 41.558 18.3553 41.5036L12.0963 37.836C12.0035 37.7817 11.9724 37.6622 12.0268 37.5694Z" fill="white"/>
<path fill-rule="evenodd" clip-rule="evenodd" d="M24.7279 51.9312C24.8355 51.9312 24.9228 52.0184 24.9228 52.126V59.2943C24.9228 59.4019 24.8355 59.4892 24.7279 59.4892C24.6204 59.4892 24.5332 59.4019 24.5332 59.2943V52.126C24.5332 52.0184 24.6204 51.9312 24.7279 51.9312Z" fill="white"/>
<path fill-rule="evenodd" clip-rule="evenodd" d="M24.5332 52.1261V44.9124H24.9228V52.1261H24.5332Z" fill="#001423"/>
<path fill-rule="evenodd" clip-rule="evenodd" d="M18.2598 48.4886V34.0459H18.6494V48.4886H18.2598Z" fill="#001423"/>
<path fill-rule="evenodd" clip-rule="evenodd" d="M37.4423 44.8818V52.0956H37.0527V44.8818H37.4423Z" fill="#001423"/>
<path fill-rule="evenodd" clip-rule="evenodd" d="M37.2476 51.9006C37.3552 51.9006 37.4423 51.9878 37.4423 52.0954V59.2941C37.4423 59.4017 37.3552 59.4888 37.2476 59.4888C37.14 59.4888 37.0527 59.4017 37.0527 59.2941V52.0954C37.0527 51.9878 37.14 51.9006 37.2476 51.9006Z" fill="white"/>
<path fill-rule="evenodd" clip-rule="evenodd" d="M49.9482 37.5393C50.0025 37.6321 49.9713 37.7514 49.8785 37.8059L43.6195 41.4733C43.5267 41.5277 43.4073 41.4965 43.3529 41.4037C43.2985 41.3109 43.3298 41.1915 43.4226 41.1372L49.6816 37.4696C49.7744 37.4152 49.8938 37.4465 49.9482 37.5393Z" fill="white"/>
<path fill-rule="evenodd" clip-rule="evenodd" d="M43.6899 26.7186C43.7442 26.8115 43.7129 26.9308 43.62 26.985L37.3458 30.6526C37.253 30.7069 37.1336 30.6756 37.0794 30.5828C37.0251 30.4898 37.0564 30.3706 37.1493 30.3162L43.4235 26.6488C43.5163 26.5944 43.6357 26.6258 43.6899 26.7186Z" fill="white"/>
<path fill-rule="evenodd" clip-rule="evenodd" d="M18.2864 26.7186C18.3408 26.6258 18.4601 26.5944 18.5529 26.6488L24.8272 30.3162C24.92 30.3706 24.9513 30.4898 24.897 30.5828C24.8427 30.6756 24.7234 30.7069 24.6305 30.6526L18.3563 26.985C18.2634 26.9308 18.2322 26.8115 18.2864 26.7186Z" fill="white"/>
<path fill-rule="evenodd" clip-rule="evenodd" d="M43.7158 34.2278V48.6553H43.3262V34.2278H43.7158Z" fill="#001423"/>
<path fill-rule="evenodd" clip-rule="evenodd" d="M24.6321 45.0659L18.373 41.459L18.5675 41.1213L24.8265 44.7282L24.6321 45.0659Z" fill="#001423"/>
<path fill-rule="evenodd" clip-rule="evenodd" d="M30.8906 55.9165L18.3574 48.6572L18.5527 48.3201L31.0858 55.5794L30.8906 55.9165Z" fill="#001423"/>
<path fill-rule="evenodd" clip-rule="evenodd" d="M30.7852 55.5796L43.3032 48.3203L43.4987 48.6573L30.9805 55.9166L30.7852 55.5796Z" fill="#001423"/>
<path fill-rule="evenodd" clip-rule="evenodd" d="M37.1504 44.7125L43.4246 41.136L43.6175 41.4744L37.3433 45.051L37.1504 44.7125Z" fill="#001423"/>
<path fill-rule="evenodd" clip-rule="evenodd" d="M30.8926 33.8904L37.3638 30.3289L37.5516 30.6703L31.0804 34.2316L30.8926 33.8904Z" fill="#001423"/>
<path fill-rule="evenodd" clip-rule="evenodd" d="M43.8331 34.457L30.8906 26.9856L31.0854 26.6482L44.0278 34.1196L43.8331 34.457Z" fill="#001423"/>
<path fill-rule="evenodd" clip-rule="evenodd" d="M24.826 30.2705L31.085 33.8926C31.1451 33.9274 31.1823 33.9917 31.1823 34.0612V41.0876L37.2388 44.638L37.0419 44.9742L30.889 41.3673C30.8293 41.3323 30.7926 41.2683 30.7926 41.1991V34.1735L24.6309 30.6078L24.826 30.2705Z" fill="#001423"/>
<path fill-rule="evenodd" clip-rule="evenodd" d="M18.3574 33.8772L30.8907 26.6331L31.0856 26.9705L18.5524 34.2145L18.3574 33.8772Z" fill="#001423"/>
<path fill-rule="evenodd" clip-rule="evenodd" d="M24.584 44.6525L30.8885 41.0002L31.0837 41.3373L24.7792 44.9897L24.584 44.6525Z" fill="#001423"/>
<path fill-rule="evenodd" clip-rule="evenodd" d="M18.2864 33.9476C18.3408 33.8548 18.4601 33.8234 18.5529 33.8778L24.8272 37.5452C24.8869 37.5802 24.9236 37.6442 24.9236 37.7135V44.7843L31.0851 48.335C31.1454 48.3699 31.1827 48.4341 31.1827 48.5038V55.6874C31.1827 55.7949 31.0954 55.8821 30.9878 55.8821C30.8802 55.8821 30.7931 55.7949 30.7931 55.6874V48.6164L24.6315 45.0657C24.5712 45.031 24.534 44.9666 24.534 44.8969V37.8252L18.3563 34.214C18.2634 34.1598 18.2322 34.0405 18.2864 33.9476Z" fill="white"/>
<path fill-rule="evenodd" clip-rule="evenodd" d="M43.6892 33.9476C43.7435 34.0405 43.7122 34.1598 43.6193 34.214L37.4417 37.8252V44.8969C37.4417 44.9666 37.4044 45.031 37.3441 45.0657L31.0851 48.6726C30.9919 48.7263 30.8728 48.6943 30.819 48.6011C30.7653 48.5079 30.7973 48.3887 30.8905 48.335L37.0521 44.7843V37.7135C37.0521 37.6442 37.0887 37.5802 37.1485 37.5452L43.4228 33.8778C43.5156 33.8234 43.6349 33.8548 43.6892 33.9476Z" fill="white"/>
<path fill-rule="evenodd" clip-rule="evenodd" d="M30.8891 33.9077C30.9497 33.8726 31.0245 33.8726 31.0849 33.9077L37.344 37.5449C37.4369 37.599 37.4686 37.7182 37.4146 37.8112C37.3605 37.9043 37.2412 37.9358 37.1483 37.8818L30.9871 34.3015L24.8259 37.8818C24.7328 37.9358 24.6137 37.9043 24.5596 37.8112C24.5056 37.7182 24.5372 37.599 24.6301 37.5449L30.8891 33.9077Z" fill="white"/>
</svg>
