<svg width="62" height="63" viewBox="0 0 62 63" fill="none" xmlns="http://www.w3.org/2000/svg">
<path d="M24.291 30.514L23.7541 29.9735C23.3475 29.5675 22.6492 29.8551 22.6492 30.4308V38.15C22.6492 38.5065 22.9417 38.7966 23.299 38.7966H31.0202C31.5959 38.7966 31.8857 38.0993 31.4763 37.6939C31.2239 37.4415 31.2239 37.0327 31.4763 36.7809L39.6886 28.5433C39.9416 28.2923 39.9416 27.8837 39.6886 27.6302L38.9404 26.8847C38.5339 26.4786 38.8236 25.7812 39.3977 25.7812H47.1142C47.471 25.7812 47.763 26.071 47.763 26.4278V34.1464C47.763 34.7221 47.0633 35.0103 46.6558 34.6037L46.1357 34.0838C45.8816 33.8242 45.473 33.8242 45.2243 34.0838L31.3785 47.9229C31.1272 48.1748 30.7191 48.1748 30.4644 47.9229L13.525 30.9835C13.2704 30.7288 13.2704 30.3195 13.525 30.0665L36.9749 6.61762C37.2268 6.3652 37.2268 5.95334 36.9749 5.70202L31.4608 0.18849C31.2084 -0.0628299 30.7997 -0.0628299 30.5461 0.18849L0.18849 30.5472C-0.0628299 30.7997 -0.0628299 31.2115 0.18849 31.4628L30.543 61.8172C30.7955 62.068 31.2075 62.068 31.4589 61.8172L61.8118 31.4628C62.0627 31.2104 62.0627 30.8008 61.8118 30.5492L43.954 12.6911C43.7042 12.4398 43.2934 12.4398 43.0404 12.6911L25.21 30.5142C24.9553 30.7689 24.5457 30.7689 24.291 30.5142V30.514Z" fill="#DE5959"/>
</svg>
