<svg width="43" height="66" viewBox="0 0 43 66" fill="none" xmlns="http://www.w3.org/2000/svg">
<path d="M28.9475 20.3001C28.9475 10.8308 24.3233 2.6756 20.8015 0.028655C20.8015 0.028655 20.5305 -0.120469 20.5586 0.261661C20.269 18.5573 10.8992 23.5156 5.75188 30.1889C-6.13085 45.6046 4.91112 62.5021 16.1773 65.6244C22.455 67.3766 14.72 62.5301 13.7204 52.3058C12.4966 39.9658 28.9475 30.5338 28.9475 20.3001V20.3001Z" fill="#1B2143"/>
<path d="M34.3469 26.5355C34.2722 26.4889 34.1694 26.4516 34.104 26.5728C33.9078 28.8749 31.5537 33.7959 28.5643 38.3256C18.4285 53.6666 24.2017 61.0669 27.4527 65.0466C29.3397 67.3487 27.4527 65.0466 32.1609 62.6886C37.9808 59.1656 41.7549 53.0702 42.3154 46.3037C43.2403 35.399 36.6823 28.53 34.3469 26.5355V26.5355Z" fill="#2CA6E0"/>
</svg>
