<svg width="52" height="41" viewBox="0 0 52 41" fill="none" xmlns="http://www.w3.org/2000/svg">
<path d="M23.9618 0.0563291C28.4118 -0.243193 32.9474 0.655362 36.9268 2.66644C42.8316 5.57608 47.5384 10.7963 49.7206 16.9579C50.7048 19.6964 51.2182 22.5633 51.2182 25.4729V36.2129C51.2182 36.6408 51.2182 37.1115 51.1327 37.5393C50.8759 38.6091 50.1057 39.5932 49.0788 40.0639C48.3514 40.4062 47.5384 40.449 46.811 40.3206C45.185 40.0211 43.9014 38.4807 43.9014 36.8119C43.9014 33.4744 43.9014 30.1369 43.9014 26.7994C43.9441 25.858 43.9441 24.8311 43.4307 24.0181C42.6177 22.4777 40.5638 21.7503 38.9806 22.3921C37.6114 22.8628 36.6272 24.2748 36.5845 25.7296C36.5845 29.11 36.5845 32.4903 36.5845 35.8706C36.5845 36.5124 36.6272 37.1542 36.4133 37.7533C36.071 38.9514 35.0868 39.8927 33.8888 40.235C32.3056 40.6629 30.5084 39.9783 29.7382 38.5235C29.182 37.6677 29.2248 36.598 29.2676 35.6138C29.2676 32.2335 29.2676 28.896 29.2676 25.5157C29.2248 23.8041 27.8127 22.2637 26.144 22.0498C25.0315 21.8786 23.8762 22.2637 23.0632 23.0339C22.3358 23.7186 21.9507 24.7027 21.9507 25.6868V35.4855C21.9507 36.2985 22.0363 37.1543 21.7367 37.9245C21.2661 39.3365 19.854 40.3634 18.3564 40.3206C16.816 40.4062 15.3184 39.3365 14.8477 37.9245C14.591 37.197 14.6338 36.4696 14.6338 35.6994C14.6338 32.3191 14.6338 28.9388 14.6338 25.5585C14.6338 23.8897 13.3073 22.3493 11.6814 22.0498C10.1837 21.7503 8.55777 22.4777 7.78757 23.8469C7.48805 24.4032 7.31689 25.045 7.31689 25.6868V36.6836C7.31689 37.7533 6.84621 38.823 6.03323 39.5076C4.79235 40.5774 2.78127 40.6629 1.49761 39.6788C0.556255 39.037 0 37.9244 0 36.7692V25.6441C0 21.4507 1.06972 17.2574 3.0808 13.5348C4.70677 10.4968 6.97458 7.8011 9.67028 5.66166C13.6496 2.32413 18.7415 0.355851 23.9618 0.0563291Z" fill="#5741D9"/>
</svg>
