<svg width="48" height="53" viewBox="0 0 48 53" fill="none" xmlns="http://www.w3.org/2000/svg">
<path fill-rule="evenodd" clip-rule="evenodd" d="M15.1743 26.5054L30.7445 42.2052L40.5725 32.297C42.3299 30.7017 45.0185 30.7726 46.6907 32.4585C48.3628 34.1443 48.4332 36.8548 46.8509 38.6266L33.8813 51.7045C32.1392 53.4318 29.3451 53.4318 27.6029 51.7045L8.89109 32.835V44.0506C8.89109 46.5258 6.90075 48.5324 4.44554 48.5324C1.99034 48.5324 0 46.5258 0 44.0506V8.94555C0 6.47029 1.99034 4.4637 4.44554 4.4637C6.90075 4.4637 8.89109 6.47029 8.89109 8.94555V20.1611L27.6005 1.29646C29.3421 -0.432152 32.1373 -0.432152 33.8789 1.29646L46.8581 14.372C48.4405 16.1437 48.3701 18.8543 46.6979 20.5401C45.0258 22.2259 42.3372 22.2969 40.5798 20.7016L30.7518 10.7933L15.1743 26.5054ZM30.7518 22.0186C28.9515 22.0177 27.328 23.1102 26.6384 24.7867C25.9488 26.4632 26.329 28.3934 27.6016 29.6771C28.8742 30.9608 30.7886 31.3451 32.4519 30.6508C34.1152 29.9565 35.1997 28.3203 35.1997 26.5054C35.2004 25.3154 34.7321 24.1739 33.8979 23.3321C33.0638 22.4902 31.9321 22.0168 30.7518 22.0162V22.0186Z" fill="#23AF91"/>
</svg>
