<svg width="110" height="51" viewBox="0 0 110 51" fill="none" xmlns="http://www.w3.org/2000/svg">
<path d="M81.847 20.761C79.57 18.484 79.57 14.7922 81.847 12.5151C84.124 10.2381 87.8159 10.2381 90.0929 12.5151C92.3699 14.7922 92.3699 18.484 90.0929 20.761C87.8159 23.038 84.124 23.038 81.847 20.761ZM62.263 40.345C60.5553 38.6372 60.5553 35.8683 62.263 34.1606C63.9708 32.4528 66.7397 32.4528 68.4475 34.1606C70.1552 35.8683 70.1552 38.6372 68.4475 40.345C66.7397 42.0527 63.9708 42.0527 62.263 40.345ZM93.1851 30.0376C91.4773 28.3298 91.4773 25.561 93.1851 23.8532C94.8929 22.1454 97.6617 22.1454 99.3695 23.8532C101.077 25.561 101.077 28.3298 99.3695 30.0376C97.6617 31.7454 94.8929 31.7454 93.1851 30.0376ZM82.8777 40.345C81.17 38.6372 81.17 35.8683 82.8777 34.1606C84.5855 32.4528 87.3544 32.4528 89.0621 34.1606C90.7699 35.8683 90.7699 38.6372 89.0621 40.345C87.3544 42.0527 84.5855 42.0527 82.8777 40.345ZM104.523 39.3142C103.385 38.1757 103.385 36.3298 104.523 35.1913C105.662 34.0528 107.508 34.0528 108.646 35.1913C109.785 36.3298 109.785 38.1757 108.646 39.3142C107.508 40.4527 105.662 40.4527 104.523 39.3142ZM94.2158 49.6216C93.0773 48.4831 93.0773 46.6372 94.2158 45.4986C95.3543 44.3601 97.2002 44.3601 98.3388 45.4986C99.4773 46.6372 99.4773 48.4831 98.3388 49.6216C97.2002 50.7601 95.3543 50.7601 94.2158 49.6216ZM71.5397 31.0683C69.2626 28.7913 69.2626 25.0995 71.5397 22.8225C73.8167 20.5454 77.5085 20.5454 79.7855 22.8225C82.0626 25.0995 82.0626 28.7913 79.7855 31.0683C77.5085 33.3454 73.8167 33.3454 71.5397 31.0683ZM71.5397 10.4537C69.2626 8.17662 69.2626 4.48481 71.5397 2.20778C73.8167 -0.069259 77.5085 -0.069259 79.7855 2.20778C82.0626 4.48481 82.0626 8.17662 79.7855 10.4537C77.5085 12.7307 73.8167 12.7307 71.5397 10.4537ZM61.2323 20.761C58.9553 18.484 58.9553 14.7922 61.2323 12.5151C63.5094 10.2381 67.2012 10.2381 69.4782 12.5151C71.7552 14.7922 71.7552 18.484 69.4782 20.761C67.2012 23.038 63.5094 23.038 61.2323 20.761ZM40.5218 20.761C38.2448 18.484 38.2448 14.7922 40.5218 12.5151C42.7988 10.2381 46.4906 10.2381 48.7677 12.5151C51.0447 14.7922 51.0447 18.484 48.7677 20.761C46.4906 23.038 42.7988 23.038 40.5218 20.761ZM20.9378 40.345C19.2301 38.6372 19.2301 35.8683 20.9378 34.1606C22.6456 32.4528 25.4145 32.4528 27.1223 34.1606C28.83 35.8683 28.83 38.6372 27.1223 40.345C25.4145 42.0527 22.6456 42.0527 20.9378 40.345ZM51.8599 30.0376C50.1521 28.3298 50.1521 25.561 51.8599 23.8532C53.5677 22.1454 56.3365 22.1454 58.0443 23.8532C59.7521 25.561 59.7521 28.3298 58.0443 30.0376C56.3365 31.7454 53.5677 31.7454 51.8599 30.0376ZM41.5525 40.345C39.8448 38.6372 39.8448 35.8683 41.5525 34.1606C43.2603 32.4528 46.0292 32.4528 47.737 34.1606C49.4447 35.8683 49.4447 38.6372 47.737 40.345C46.0292 42.0527 43.2603 42.0527 41.5525 40.345ZM1.35389 39.3142C0.21537 38.1757 0.21537 36.3298 1.35389 35.1913C2.49241 34.0528 4.33831 34.0528 5.47682 35.1913C6.61534 36.3298 6.61534 38.1757 5.47682 39.3142C4.33831 40.4527 2.49241 40.4527 1.35389 39.3142ZM11.6612 49.6216C10.5227 48.4831 10.5227 46.6372 11.6612 45.4986C12.7998 44.3601 14.6457 44.3601 15.7842 45.4986C16.9227 46.6372 16.9227 48.4831 15.7842 49.6216C14.6457 50.7601 12.7998 50.7601 11.6612 49.6216ZM52.8906 49.6216C51.7521 48.4831 51.7521 46.6372 52.8906 45.4986C54.0291 44.3601 55.875 44.3601 57.0136 45.4986C58.1521 46.6372 58.1521 48.4831 57.0136 49.6216C55.875 50.7601 54.0291 50.7601 52.8906 49.6216ZM10.6305 30.0376C8.92272 28.3298 8.92272 25.561 10.6305 23.8532C12.3383 22.1454 15.1071 22.1454 16.8149 23.8532C18.5227 25.561 18.5227 28.3298 16.8149 30.0376C15.1071 31.7454 12.3383 31.7454 10.6305 30.0376ZM30.2145 31.0683C27.9374 28.7913 27.9374 25.0995 30.2145 22.8225C32.4915 20.5454 36.1833 20.5454 38.4603 22.8225C40.7374 25.0995 40.7374 28.7913 38.4603 31.0683C36.1833 33.3454 32.4915 33.3454 30.2145 31.0683ZM30.2145 10.4537C27.9374 8.17662 27.9374 4.48481 30.2145 2.20778C32.4915 -0.069259 36.1833 -0.069259 38.4603 2.20778C40.7374 4.48481 40.7374 8.17662 38.4603 10.4537C36.1833 12.7307 32.4915 12.7307 30.2145 10.4537ZM19.9071 20.761C17.6301 18.484 17.6301 14.7922 19.9071 12.5151C22.1841 10.2381 25.876 10.2381 28.153 12.5151C30.43 14.7922 30.43 18.484 28.153 20.761C25.876 23.038 22.1841 23.038 19.9071 20.761Z" fill="#1C1C26"/>
</svg>
