<svg width="54" height="63" viewBox="0 0 54 63" fill="none" xmlns="http://www.w3.org/2000/svg">
<path d="M26.9112 63.0001C41.7738 63.0001 53.8223 50.6033 53.8223 35.3111C53.8223 20.0189 41.7738 7.62207 26.9112 7.62207C12.0485 7.62207 0 20.0189 0 35.3111C0 50.6033 12.0485 63.0001 26.9112 63.0001Z" fill="#09006E"/>
<path d="M43.273 3.88932L25.392 35.7556C24.1866 37.9036 24.9017 40.6502 26.9891 41.8903C29.0765 43.1303 31.7458 42.3941 32.9512 40.246L50.8323 8.37979C52.0376 6.2317 51.3226 3.48511 49.2351 2.24509C47.1477 1.00508 44.4784 1.74123 43.273 3.88932Z" fill="url(#paint0_linear_81_1828)"/>
<path d="M35.5404 50.255L35.4543 36.2347L28.9619 47.4861H24.5189L18.0266 36.7179V50.255H8.8418V19.4897H17.1291L26.8683 35.883L36.3518 19.4897H44.6391L44.7238 50.255H35.5404Z" fill="#00FFD9"/>
<path d="M26.4001 33.9585L39.0592 11.4002C39.3455 10.8894 39.7268 10.4415 40.1813 10.0824C40.6359 9.72321 41.1548 9.45973 41.7084 9.30699C42.2619 9.15425 42.8393 9.11524 43.4076 9.19219C43.9758 9.26915 44.5237 9.46055 45.02 9.75548V9.75548C45.5164 10.0502 45.9515 10.4426 46.3005 10.9103C46.6494 11.378 46.9054 11.9119 47.0539 12.4814C47.2023 13.0509 47.2403 13.6449 47.1656 14.2295C47.0909 14.8142 46.905 15.3779 46.6185 15.8886L33.9595 38.4482C33.3808 39.4798 32.4276 40.2326 31.3095 40.541C30.1913 40.8495 28.9999 40.6883 27.9973 40.093C26.9953 39.4971 26.2641 38.5162 25.9646 37.3659C25.6651 36.2156 25.8218 34.99 26.4001 33.9585V33.9585Z" fill="url(#paint1_linear_81_1828)"/>
<defs>
<linearGradient id="paint0_linear_81_1828" x1="41.1334" y1="17.2936" x2="49.4682" y2="3.26297" gradientUnits="userSpaceOnUse">
<stop stop-color="#00FFD9"/>
<stop offset="0.85" stop-color="#09006E"/>
</linearGradient>
<linearGradient id="paint1_linear_81_1828" x1="28.2492" y1="40.3907" x2="45.8714" y2="10.7241" gradientUnits="userSpaceOnUse">
<stop offset="0.08" stop-color="#00FFD9"/>
<stop offset="0.68" stop-color="#064E8F"/>
<stop offset="1" stop-color="#09006E"/>
</linearGradient>
</defs>
</svg>
