<svg width="55" height="56" viewBox="0 0 55 56" fill="none" xmlns="http://www.w3.org/2000/svg">
<path d="M24.5398 24.5961C26.4853 25.0735 28.517 25.0735 30.4624 24.5961C31.0056 22.38 32.144 20.3554 33.7539 18.7418C35.3638 17.1282 37.3838 15.9873 39.5948 15.4429C40.0429 13.606 40.0686 11.6911 39.6701 9.84286C39.2715 7.99458 38.4591 6.26126 37.2942 4.77382C36.1293 3.28639 34.6423 2.08374 32.9457 1.25674C31.2491 0.429734 29.3871 0 27.5004 0C25.6138 0 23.7518 0.429734 22.0552 1.25674C20.3585 2.08374 18.8716 3.28639 17.7067 4.77382C16.5417 6.26126 15.7293 7.99458 15.3308 9.84286C14.9322 11.6911 14.958 13.606 15.4061 15.4429C17.6173 15.9871 19.6376 17.1279 21.2478 18.7415C22.858 20.3551 23.9965 22.3799 24.5398 24.5961V24.5961Z" fill="#7ABDF7"/>
<path d="M30.463 30.5295C28.5175 30.052 26.4859 30.052 24.5404 30.5295C23.9967 32.7453 22.8583 34.7697 21.2485 36.3832C19.6386 37.9968 17.6188 39.1378 15.408 39.6827C14.9599 41.5195 14.9342 43.4344 15.3327 45.2827C15.7313 47.131 16.5437 48.8643 17.7086 50.3517C18.8735 51.8392 20.3605 53.0418 22.0571 53.8688C23.7538 54.6958 25.6157 55.1256 27.5024 55.1256C29.389 55.1256 31.251 54.6958 32.9476 53.8688C34.6443 53.0418 36.1312 51.8392 37.2961 50.3517C38.4611 48.8643 39.2735 47.131 39.672 45.2827C40.0706 43.4344 40.0448 41.5195 39.5967 39.6827C37.3855 39.1384 35.3652 37.9976 33.755 36.384C32.1449 34.7704 31.0063 32.7457 30.463 30.5295V30.5295Z" fill="#0D74F5"/>
<path d="M42.5547 15.0838C41.5573 15.0837 40.5635 15.2038 39.5947 15.4416C39.0517 17.6573 37.9136 19.6817 36.3039 21.295C34.6942 22.9084 32.6744 24.0491 30.4637 24.5934C29.9873 26.5433 29.9873 28.5796 30.4637 30.5295C32.6745 31.0742 34.6942 32.2152 36.3039 33.8288C37.9135 35.4423 39.0516 37.4668 39.5947 39.6827C41.3049 40.1014 43.0841 40.1518 44.8151 39.8306C46.5461 39.5095 48.1894 38.8241 49.6367 37.8197C51.084 36.8153 52.3024 35.5147 53.2114 34.0037C54.1204 32.4928 54.6993 30.8058 54.9101 29.0541C55.1209 27.3024 54.9586 25.5258 54.434 23.8415C53.9095 22.1573 53.0345 20.6037 51.8669 19.2832C50.6993 17.9628 49.2656 16.9055 47.6604 16.1811C46.0553 15.4568 44.315 15.0819 42.5547 15.0811V15.0838Z" fill="#4494F7"/>
<path d="M24.5401 30.53C25.0165 28.5801 25.0165 26.5438 24.5401 24.5939C22.3293 24.0495 20.3094 22.9088 18.6995 21.2955C17.0896 19.6822 15.9512 17.6578 15.4077 15.442C13.5751 14.9929 11.6645 14.9671 9.82047 15.3666C7.9764 15.766 6.24701 16.5803 4.76296 17.7479C3.27891 18.9154 2.079 20.4058 1.25388 22.1063C0.428756 23.8068 0 25.673 0 27.564C0 29.4549 0.428756 31.3211 1.25388 33.0217C2.079 34.7222 3.27891 36.2125 4.76296 37.3801C6.24701 38.5476 7.9764 39.3619 9.82047 39.7614C11.6645 40.1608 13.5751 40.135 15.4077 39.6859C15.9507 37.4694 17.0888 35.4443 18.6987 33.8302C20.3087 32.2162 22.3288 31.0748 24.5401 30.53V30.53Z" fill="#005CF4"/>
<path d="M30.4629 24.5961C32.6737 24.0512 34.6935 22.9101 36.3033 21.2966C37.9132 19.6831 39.0516 17.6587 39.5953 15.4429C37.3843 15.9873 35.3643 17.1283 33.7543 18.7418C32.1444 20.3554 31.0061 22.38 30.4629 24.5961V24.5961Z" fill="#186EF9"/>
<path d="M30.4629 30.5298C31.0061 32.7458 32.1444 34.7705 33.7543 36.384C35.3643 37.9976 37.3843 39.1385 39.5953 39.683C39.0516 37.4672 37.9132 35.4428 36.3033 33.8292C34.6935 32.2157 32.6737 31.0747 30.4629 30.5298V30.5298Z" fill="#0246F2"/>
<path d="M24.5401 24.5961C23.9964 22.3802 22.858 20.3558 21.2482 18.7423C19.6383 17.1288 17.6185 15.9878 15.4077 15.4429C15.9514 17.6587 17.0898 19.6831 18.6997 21.2966C20.3095 22.9101 22.3293 24.0512 24.5401 24.5961V24.5961Z" fill="#0046F8"/>
<path d="M24.5401 30.5298C22.3293 31.0747 20.3095 32.2157 18.6997 33.8292C17.0898 35.4428 15.9514 37.4672 15.4077 39.683C17.6185 39.1381 19.6383 37.9971 21.2482 36.3835C22.858 34.77 23.9964 32.7456 24.5401 30.5298V30.5298Z" fill="#0729F1"/>
<path d="M24.5398 24.5961C26.4853 25.0735 28.517 25.0735 30.4624 24.5961C31.0056 22.38 32.144 20.3554 33.7539 18.7418C35.3638 17.1282 37.3838 15.9873 39.5948 15.4429C40.0429 13.606 40.0686 11.6911 39.6701 9.84286C39.2715 7.99458 38.4591 6.26126 37.2942 4.77382C36.1293 3.28639 34.6423 2.08374 32.9457 1.25674C31.2491 0.429734 29.3871 0 27.5004 0C25.6138 0 23.7518 0.429734 22.0552 1.25674C20.3585 2.08374 18.8716 3.28639 17.7067 4.77382C16.5417 6.26126 15.7293 7.99458 15.3308 9.84286C14.9322 11.6911 14.958 13.606 15.4061 15.4429C17.6173 15.9871 19.6376 17.1279 21.2478 18.7415C22.858 20.3551 23.9965 22.3799 24.5398 24.5961V24.5961Z" fill="#7ABDF7"/>
<path d="M30.463 30.5295C28.5175 30.052 26.4859 30.052 24.5404 30.5295C23.9967 32.7453 22.8583 34.7697 21.2485 36.3832C19.6386 37.9968 17.6188 39.1378 15.408 39.6827C14.9599 41.5195 14.9342 43.4344 15.3327 45.2827C15.7313 47.131 16.5437 48.8643 17.7086 50.3517C18.8735 51.8392 20.3605 53.0418 22.0571 53.8688C23.7538 54.6958 25.6157 55.1256 27.5024 55.1256C29.389 55.1256 31.251 54.6958 32.9476 53.8688C34.6443 53.0418 36.1312 51.8392 37.2961 50.3517C38.4611 48.8643 39.2735 47.131 39.672 45.2827C40.0706 43.4344 40.0448 41.5195 39.5967 39.6827C37.3855 39.1384 35.3652 37.9976 33.755 36.384C32.1449 34.7704 31.0063 32.7457 30.463 30.5295V30.5295Z" fill="#0D74F5"/>
<path d="M42.5547 15.0833C41.5573 15.0832 40.5635 15.2033 39.5947 15.4411C39.0517 17.6568 37.9136 19.6812 36.3039 21.2945C34.6942 22.9079 32.6744 24.0486 30.4637 24.5929C29.9873 26.5428 29.9873 28.5791 30.4637 30.529C32.6745 31.0737 34.6942 32.2147 36.3039 33.8283C37.9135 35.4418 39.0516 37.4663 39.5947 39.6822C41.3049 40.1009 43.0841 40.1513 44.8151 39.8302C46.5461 39.509 48.1894 38.8237 49.6367 37.8192C51.084 36.8148 52.3024 35.5142 53.2114 34.0033C54.1204 32.4923 54.6993 30.8053 54.9101 29.0536C55.1209 27.3019 54.9586 25.5253 54.434 23.841C53.9095 22.1568 53.0345 20.6032 51.8669 19.2827C50.6993 17.9623 49.2656 16.905 47.6604 16.1807C46.0553 15.4563 44.315 15.0814 42.5547 15.0806V15.0833Z" fill="#4494F7"/>
<path d="M24.5401 30.5295C25.0165 28.5796 25.0165 26.5433 24.5401 24.5934C22.3293 24.049 20.3094 22.9083 18.6995 21.295C17.0896 19.6817 15.9512 17.6573 15.4077 15.4415C13.5751 14.9924 11.6645 14.9666 9.82047 15.3661C7.9764 15.7655 6.24701 16.5798 4.76296 17.7474C3.27891 18.915 2.079 20.4053 1.25388 22.1058C0.428756 23.8063 0 25.6725 0 27.5635C0 29.4544 0.428756 31.3207 1.25388 33.0212C2.079 34.7217 3.27891 36.212 4.76296 37.3796C6.24701 38.5472 7.9764 39.3614 9.82047 39.7609C11.6645 40.1603 13.5751 40.1345 15.4077 39.6854C15.9507 37.469 17.0888 35.4438 18.6987 33.8298C20.3087 32.2157 22.3288 31.0743 24.5401 30.5295V30.5295Z" fill="#005CF4"/>
<path d="M30.4629 24.5961C32.6737 24.0512 34.6935 22.9101 36.3033 21.2966C37.9132 19.6831 39.0516 17.6587 39.5953 15.4429C37.3843 15.9873 35.3643 17.1283 33.7543 18.7418C32.1444 20.3554 31.0061 22.38 30.4629 24.5961V24.5961Z" fill="#186EF9"/>
<path d="M30.4629 30.5298C31.0061 32.7458 32.1444 34.7705 33.7543 36.384C35.3643 37.9976 37.3843 39.1385 39.5953 39.683C39.0516 37.4672 37.9132 35.4428 36.3033 33.8292C34.6935 32.2157 32.6737 31.0747 30.4629 30.5298V30.5298Z" fill="#0246F2"/>
<path d="M24.5401 24.5961C23.9964 22.3802 22.858 20.3558 21.2482 18.7423C19.6383 17.1288 17.6185 15.9878 15.4077 15.4429C15.9514 17.6587 17.0898 19.6831 18.6997 21.2966C20.3095 22.9101 22.3293 24.0512 24.5401 24.5961V24.5961Z" fill="#0046F8"/>
<path d="M24.5401 30.5298C22.3293 31.0747 20.3095 32.2157 18.6997 33.8292C17.0898 35.4428 15.9514 37.4672 15.4077 39.683C17.6185 39.1381 19.6383 37.9971 21.2482 36.3835C22.858 34.77 23.9964 32.7456 24.5401 30.5298V30.5298Z" fill="#0729F1"/>
</svg>
