<svg width="130" height="130" viewBox="0 0 130 130" fill="none" xmlns="http://www.w3.org/2000/svg">
<path d="M65 130C100.899 130 130 100.899 130 65C130 29.1015 100.899 0 65 0C29.1015 0 0 29.1015 0 65C0 100.899 29.1015 130 65 130Z" fill="#FFA41B"/>
<path d="M64.9999 18.293C45.6856 18.293 29.8999 33.9858 29.8999 53.393C29.8999 57.293 30.5499 61.1001 31.757 64.8144C32.5928 67.3215 35.3785 68.7144 37.9785 67.8787C40.4856 67.043 41.8785 64.2573 41.0428 61.6573C40.0213 58.7787 39.557 55.7144 39.6499 52.6501C40.0213 39.5573 50.607 28.7858 63.6999 28.1358C78.2785 27.393 90.3499 39.0001 90.3499 53.393C90.3499 66.8573 79.7642 77.9073 66.4856 78.6501C66.4856 78.6501 61.5642 78.9287 59.1499 79.3001C57.9428 79.4858 57.0142 79.6715 56.3642 79.7644C56.0856 79.8573 55.807 79.5787 55.8999 79.3001L56.7356 75.2144L61.2856 54.2287C61.8428 51.6287 60.1713 49.0287 57.5713 48.4715C54.9713 47.9144 52.3713 49.5858 51.8142 52.1858C51.8142 52.1858 40.857 103.257 40.7642 103.814C40.207 106.414 41.8785 109.014 44.4785 109.572C47.0785 110.129 49.6785 108.457 50.2356 105.857C50.3285 105.3 51.8142 98.5215 51.8142 98.5215C52.9285 93.3215 57.1999 89.5144 62.2142 88.8644C63.3285 88.6787 67.6928 88.4001 67.6928 88.4001C85.7999 87.0073 100.1 71.8715 100.1 53.393C100.1 33.9858 84.3142 18.293 64.9999 18.293ZM67.507 99.0787C64.3499 98.4287 61.1928 100.379 60.5428 103.629C59.8928 106.786 61.8428 109.943 65.0928 110.593C68.2499 111.243 71.407 109.293 72.057 106.043C72.707 102.793 70.757 99.7287 67.507 99.0787Z" fill="white"/>
</svg>
