<svg width="57" height="66" viewBox="0 0 57 66" fill="none" xmlns="http://www.w3.org/2000/svg">
<path opacity="0.4" d="M28.3778 11.4838C31.3537 11.4838 33.7661 8.98582 33.7661 5.90442C33.7661 2.82304 31.3537 0.325073 28.3778 0.325073C25.4021 0.325073 22.9897 2.82304 22.9897 5.90442C22.9897 8.98582 25.4021 11.4838 28.3778 11.4838Z" fill="#E6007A"/>
<path opacity="0.4" d="M28.3778 24.8741C31.3537 24.8741 33.7661 22.376 33.7661 19.2947C33.7661 16.2133 31.3537 13.7153 28.3778 13.7153C25.4021 13.7153 22.9897 16.2133 22.9897 19.2947C22.9897 22.376 25.4021 24.8741 28.3778 24.8741Z" fill="white"/>
<path opacity="0.4" d="M17.1777 18.1791C20.1534 18.1791 22.5658 15.6811 22.5658 12.5998C22.5658 9.51835 20.1534 7.02039 17.1777 7.02039C14.2019 7.02039 11.7896 9.51835 11.7896 12.5998C11.7896 15.6811 14.2019 18.1791 17.1777 18.1791Z" fill="white"/>
<path opacity="0.9" d="M5.97894 24.8741C8.95473 24.8741 11.3671 22.376 11.3671 19.2947C11.3671 16.2133 8.95473 13.7153 5.97894 13.7153C3.00317 13.7153 0.59082 16.2133 0.59082 19.2947C0.59082 22.376 3.00317 24.8741 5.97894 24.8741Z" fill="#E6007A"/>
<path opacity="0.9" d="M17.1777 31.5693C20.1534 31.5693 22.5658 29.0713 22.5658 25.99C22.5658 22.9085 20.1534 20.4105 17.1777 20.4105C14.2019 20.4105 11.7896 22.9085 11.7896 25.99C11.7896 29.0713 14.2019 31.5693 17.1777 31.5693Z" fill="white"/>
<path opacity="0.4" d="M5.97894 38.2647C8.95473 38.2647 11.3671 35.7668 11.3671 32.6854C11.3671 29.6039 8.95473 27.1061 5.97894 27.1061C3.00317 27.1061 0.59082 29.6039 0.59082 32.6854C0.59082 35.7668 3.00317 38.2647 5.97894 38.2647Z" fill="white"/>
<path opacity="0.9" d="M5.97894 51.6554C8.95473 51.6554 11.3671 49.1573 11.3671 46.0761C11.3671 42.9946 8.95473 40.4966 5.97894 40.4966C3.00317 40.4966 0.59082 42.9946 0.59082 46.0761C0.59082 49.1573 3.00317 51.6554 5.97894 51.6554Z" fill="#E6007A"/>
<path opacity="0.9" d="M17.1777 44.9598C20.1534 44.9598 22.5658 42.4618 22.5658 39.3803C22.5658 36.299 20.1534 33.801 17.1777 33.801C14.2019 33.801 11.7896 36.299 11.7896 39.3803C11.7896 42.4618 14.2019 44.9598 17.1777 44.9598Z" fill="white"/>
<path opacity="0.4" d="M17.1777 58.3505C20.1534 58.3505 22.5658 55.8525 22.5658 52.7713C22.5658 49.6898 20.1534 47.1918 17.1777 47.1918C14.2019 47.1918 11.7896 49.6898 11.7896 52.7713C11.7896 55.8525 14.2019 58.3505 17.1777 58.3505Z" fill="white"/>
<path opacity="0.4" d="M28.3778 65.0455C31.3537 65.0455 33.7661 62.5475 33.7661 59.4662C33.7661 56.3847 31.3537 53.8867 28.3778 53.8867C25.4021 53.8867 22.9897 56.3847 22.9897 59.4662C22.9897 62.5475 25.4021 65.0455 28.3778 65.0455Z" fill="#E6007A"/>
<path opacity="0.4" d="M28.3778 51.6554C31.3537 51.6554 33.7661 49.1573 33.7661 46.0761C33.7661 42.9946 31.3537 40.4966 28.3778 40.4966C25.4021 40.4966 22.9897 42.9946 22.9897 46.0761C22.9897 49.1573 25.4021 51.6554 28.3778 51.6554Z" fill="white"/>
<path opacity="0.4" d="M39.5767 58.3505C42.5524 58.3505 44.9648 55.8525 44.9648 52.7713C44.9648 49.6898 42.5524 47.1918 39.5767 47.1918C36.6009 47.1918 34.1885 49.6898 34.1885 52.7713C34.1885 55.8525 36.6009 58.3505 39.5767 58.3505Z" fill="white"/>
<path opacity="0.9" d="M50.7755 51.6554C53.7511 51.6554 56.1635 49.1573 56.1635 46.0761C56.1635 42.9946 53.7511 40.4966 50.7755 40.4966C47.7996 40.4966 45.3872 42.9946 45.3872 46.0761C45.3872 49.1573 47.7996 51.6554 50.7755 51.6554Z" fill="#E6007A"/>
<path opacity="0.9" d="M39.5767 44.9598C42.5524 44.9598 44.9648 42.4618 44.9648 39.3803C44.9648 36.299 42.5524 33.801 39.5767 33.801C36.6009 33.801 34.1885 36.299 34.1885 39.3803C34.1885 42.4618 36.6009 44.9598 39.5767 44.9598Z" fill="white"/>
<path opacity="0.4" d="M50.7755 38.2647C53.7511 38.2647 56.1635 35.7668 56.1635 32.6854C56.1635 29.6039 53.7511 27.1061 50.7755 27.1061C47.7996 27.1061 45.3872 29.6039 45.3872 32.6854C45.3872 35.7668 47.7996 38.2647 50.7755 38.2647Z" fill="white"/>
<path opacity="0.9" d="M50.7755 24.8741C53.7511 24.8741 56.1635 22.376 56.1635 19.2947C56.1635 16.2133 53.7511 13.7153 50.7755 13.7153C47.7996 13.7153 45.3872 16.2133 45.3872 19.2947C45.3872 22.376 47.7996 24.8741 50.7755 24.8741Z" fill="#E6007A"/>
<path opacity="0.9" d="M39.5767 31.5693C42.5524 31.5693 44.9648 29.0713 44.9648 25.99C44.9648 22.9085 42.5524 20.4105 39.5767 20.4105C36.6009 20.4105 34.1885 22.9085 34.1885 25.99C34.1885 29.0713 36.6009 31.5693 39.5767 31.5693Z" fill="white"/>
<path opacity="0.4" d="M39.5767 18.1791C42.5524 18.1791 44.9648 15.6811 44.9648 12.5998C44.9648 9.51835 42.5524 7.02039 39.5767 7.02039C36.6009 7.02039 34.1885 9.51835 34.1885 12.5998C34.1885 15.6811 36.6009 18.1791 39.5767 18.1791Z" fill="white"/>
<path d="M28.3778 38.2647C31.3537 38.2647 33.7661 35.7668 33.7661 32.6854C33.7661 29.6039 31.3537 27.1061 28.3778 27.1061C25.4021 27.1061 22.9897 29.6039 22.9897 32.6854C22.9897 35.7668 25.4021 38.2647 28.3778 38.2647Z" fill="#E6007A"/>
</svg>
