<svg width="1232" height="457" viewBox="0 0 1232 457" fill="none" xmlns="http://www.w3.org/2000/svg">
<mask id="mask0_1567_18920" style="mask-type:alpha" maskUnits="userSpaceOnUse" x="0" y="0" width="1232" height="457">
<rect width="1232" height="457" rx="5" fill="url(#paint0_radial_1567_18920)"/>
<rect x="1" y="1" width="1230" height="455" rx="4" stroke="#8BA1BE" stroke-opacity="0.2" stroke-width="2"/>
</mask>
<g mask="url(#mask0_1567_18920)">
<circle opacity="0.45" cx="520" cy="489" r="520" fill="url(#paint1_radial_1567_18920)"/>
<path opacity="0.5" d="M444.595 99.7217C444.595 99.7217 393.586 231.452 465.27 364.097C536.953 496.743 684.601 566.816 802.774 626.735C920.947 686.654 1043.66 657.472 1101.97 559.333C1160.28 461.194 1080.3 391.139 1080.19 251.193C1080.09 111.248 1101.14 74.1989 1025.31 -44.0292C949.471 -162.257 763.566 -188.439 622.98 -100.747C482.395 -13.0543 444.595 99.7217 444.595 99.7217Z" fill="url(#paint2_linear_1567_18920)"/>
<path d="M861.597 -255.73C785.163 -243.162 712.169 -215.462 650.078 -167.593C559.751 -97.8931 509.665 6.14008 504.427 119.347C500.987 194.083 518.814 266.954 540.396 337.913C568.092 429.108 585.986 533.186 643.873 611.228C734.02 732.641 908.221 783.86 1053.92 762.14C1148.04 748.088 1247.5 694.688 1276.47 598.007C1287.2 562.235 1292.41 523.81 1310.73 490.737C1332.7 451.12 1372.51 427.984 1402.75 395.719C1440.11 355.878 1455.15 306.233 1464.46 253.733C1484.82 138.795 1457.01 17.0448 1389.87 -78.3096C1319.79 -177.779 1215.84 -231.2 1097.82 -252.155C1084.87 -254.404 1071.86 -256.405 1058.8 -258.046C993.962 -266.208 926.565 -266.478 861.597 -255.73Z" fill="url(#paint3_linear_1567_18920)"/>
<path d="M1154.45 127.513L1147.98 121.043L1141.51 127.513L1135.04 121.043L1128.57 127.513L1122.1 121.043L1116.25 126.887L1115 125.635L1122.1 118.535L1128.57 125.005L1135.04 118.535L1141.51 125.005L1147.98 118.535L1154.45 125.005L1160.92 118.535L1168.02 125.635L1166.77 126.887L1160.92 121.043L1154.45 127.513Z" fill="white"/>
<path d="M1154.48 119.978L1148.01 113.508L1141.54 119.978L1135.07 113.508L1129.23 119.352L1127.97 118.1L1135.07 111L1141.54 117.47L1148.01 111L1154.48 117.47L1160.95 111L1167.42 117.47L1173.89 111L1180.99 118.1L1179.74 119.352L1173.9 113.508L1167.43 119.978L1160.96 113.508L1154.48 119.978Z" fill="white"/>
<path d="M1177.97 432.95C1175.01 432.95 1172.12 432.071 1169.65 430.425C1167.19 428.78 1165.27 426.441 1164.14 423.704C1163.01 420.968 1162.71 417.957 1163.29 415.052C1163.87 412.148 1165.29 409.479 1167.39 407.385C1169.48 405.291 1172.15 403.865 1175.05 403.288C1177.96 402.71 1180.97 403.007 1183.71 404.14C1186.44 405.274 1188.78 407.193 1190.43 409.656C1192.07 412.118 1192.95 415.013 1192.95 417.975C1192.95 421.946 1191.37 425.752 1188.56 428.56C1185.75 431.367 1181.94 432.946 1177.97 432.95V432.95ZM1177.97 406.941C1175.79 406.941 1173.66 407.588 1171.84 408.801C1170.03 410.013 1168.61 411.736 1167.78 413.752C1166.94 415.769 1166.73 417.987 1167.15 420.128C1167.58 422.268 1168.63 424.234 1170.17 425.777C1171.71 427.32 1173.68 428.371 1175.82 428.797C1177.96 429.223 1180.18 429.004 1182.2 428.169C1184.21 427.334 1185.94 425.92 1187.15 424.105C1188.36 422.291 1189.01 420.157 1189.01 417.975C1189 415.05 1187.84 412.245 1185.77 410.177C1183.7 408.108 1180.9 406.944 1177.97 406.941V406.941Z" fill="white"/>
</g>
<defs>
<radialGradient id="paint0_radial_1567_18920" cx="0" cy="0" r="1" gradientUnits="userSpaceOnUse" gradientTransform="translate(616 228.5) rotate(90) scale(228.5 616)">
<stop stop-color="#1C1C26"/>
<stop offset="1" stop-color="#1C1C26"/>
</radialGradient>
<radialGradient id="paint1_radial_1567_18920" cx="0" cy="0" r="1" gradientUnits="userSpaceOnUse" gradientTransform="translate(520 489) rotate(90) scale(520)">
<stop stop-color="#F0F0F0"/>
<stop offset="1" stop-color="#F4F4F4" stop-opacity="0"/>
</radialGradient>
<linearGradient id="paint2_linear_1567_18920" x1="252.937" y1="-328.59" x2="933.014" y2="370.922" gradientUnits="userSpaceOnUse">
<stop stop-color="#2E303C"/>
<stop offset="1" stop-color="#73747C"/>
</linearGradient>
<linearGradient id="paint3_linear_1567_18920" x1="262.25" y1="-487.727" x2="1121.91" y2="477.684" gradientUnits="userSpaceOnUse">
<stop stop-color="#2E303C"/>
<stop offset="1" stop-color="#73747C"/>
</linearGradient>
</defs>
</svg>
