<svg width="761" height="758" viewBox="0 0 761 758" fill="none" xmlns="http://www.w3.org/2000/svg">
<mask id="mask0_203_4694" style="mask-type:alpha" maskUnits="userSpaceOnUse" x="0" y="0" width="761" height="758">
<rect width="761" height="758" rx="30" fill="url(#paint0_linear_203_4694)"/>
</mask>
<g mask="url(#mask0_203_4694)">
<rect x="23" y="76" width="369.721" height="263.634" fill="#1C1C26"/>
<rect x="48.3345" y="198.713" width="65.3038" height="68.9318" fill="#8BA1BE" fill-opacity="0.05"/>
<rect x="325.02" y="214.016" width="59.2571" height="42.3265" fill="#8BA1BE" fill-opacity="0.05"/>
<rect x="329.856" y="247.877" width="48.3732" height="2.41866" fill="#CED8E4"/>
<rect x="329.856" y="241.83" width="48.3732" height="2.41866" fill="#CED8E4"/>
<path d="M329.856 235.783H378.23V238.202H329.856V235.783Z" fill="#CED8E4"/>
<rect x="329.856" y="229.736" width="48.3732" height="2.41866" fill="#CED8E4"/>
<rect x="329.856" y="223.69" width="48.3732" height="2.41866" fill="#CED8E4"/>
<circle cx="335.299" cy="214.62" r="3.02332" fill="#1C1C26"/>
<rect x="247.841" y="199.504" width="65.3038" height="68.9318" fill="#8BA1BE" fill-opacity="0.05"/>
<rect x="125.731" y="210.806" width="59.2571" height="42.3265" fill="#8BA1BE" fill-opacity="0.05"/>
<rect x="130.568" y="244.667" width="48.3732" height="2.41866" fill="#CED8E4"/>
<rect x="130.568" y="238.62" width="48.3732" height="2.41866" fill="#CED8E4"/>
<path d="M130.568 232.573H178.941V234.992H130.568V232.573Z" fill="#CED8E4"/>
<rect x="130.568" y="226.526" width="48.3732" height="2.41866" fill="#CED8E4"/>
<rect x="130.568" y="220.479" width="48.3732" height="2.41866" fill="#CED8E4"/>
<circle cx="136.011" cy="211.41" r="3.02332" fill="#1C1C26"/>
<rect x="50.7097" y="109.295" width="59.2571" height="42.3265" fill="#8BA1BE" fill-opacity="0.05"/>
<rect x="55.5465" y="143.156" width="48.3732" height="2.41866" fill="#CED8E4"/>
<rect x="55.5465" y="137.109" width="48.3732" height="2.41866" fill="#CED8E4"/>
<path d="M55.5465 131.062H103.92V133.481H55.5465V131.062Z" fill="#CED8E4"/>
<rect x="55.5465" y="125.016" width="48.3732" height="2.41866" fill="#CED8E4"/>
<rect x="55.5465" y="118.969" width="48.3732" height="2.41866" fill="#CED8E4"/>
<circle cx="60.9882" cy="109.899" r="3.02332" fill="#1C1C26"/>
<rect x="325.426" y="111.071" width="59.2571" height="42.3265" fill="#8BA1BE" fill-opacity="0.05"/>
<rect x="330.263" y="144.933" width="48.3732" height="2.41866" fill="#CED8E4"/>
<rect x="330.263" y="138.886" width="48.3732" height="2.41866" fill="#CED8E4"/>
<path d="M330.263 132.839H378.636V135.258H330.263V132.839Z" fill="#CED8E4"/>
<rect x="330.263" y="126.792" width="48.3732" height="2.41866" fill="#CED8E4"/>
<rect x="330.263" y="120.746" width="48.3732" height="2.41866" fill="#CED8E4"/>
<circle cx="335.706" cy="111.676" r="3.02332" fill="#1C1C26"/>
<rect x="247.841" y="278.11" width="136.654" height="1.20933" fill="#CED8E4"/>
<rect x="247.841" y="288.994" width="136.654" height="1.20933" fill="#CED8E4"/>
<rect x="247.841" y="301.088" width="136.654" height="1.20933" fill="#CED8E4"/>
<rect x="247.841" y="313.181" width="136.654" height="1.20933" fill="#CED8E4"/>
<rect x="48.3331" y="274.9" width="136.654" height="1.20933" fill="#CED8E4"/>
<rect x="48.3331" y="285.784" width="136.654" height="1.20933" fill="#CED8E4"/>
<rect x="48.3331" y="297.878" width="136.654" height="1.20933" fill="#CED8E4"/>
<rect x="48.3331" y="309.971" width="136.654" height="1.20933" fill="#CED8E4"/>
<rect x="146.504" y="103.479" width="145.672" height="77.4849" fill="#8BA1BE" fill-opacity="0.05"/>
<circle cx="160.451" cy="105.028" r="4.64909" fill="#1C1C26"/>
<circle cx="276.678" cy="105.028" r="4.64909" fill="#1C1C26"/>
<path d="M167.161 150.152C166.998 150.165 166.847 150.127 166.708 150.039C166.583 149.964 166.495 149.863 166.444 149.738C166.394 149.675 166.319 149.568 166.218 149.417C166.118 149.266 166.055 149.115 166.03 148.964C165.992 148.562 165.967 148.172 165.954 147.795C165.954 147.418 165.973 146.89 166.011 146.211C166.048 145.657 166.118 145.123 166.218 144.608C166.331 144.079 166.438 143.608 166.539 143.193C166.652 142.778 166.74 142.451 166.803 142.212C166.866 141.961 166.878 141.835 166.841 141.835C166.79 141.835 166.715 141.929 166.614 142.118C166.514 142.294 166.4 142.514 166.275 142.778C166.149 143.042 166.023 143.306 165.897 143.57C165.772 143.822 165.665 144.029 165.577 144.193C165.401 144.582 165.193 144.997 164.954 145.437C164.728 145.865 164.496 146.28 164.257 146.682C164.018 147.085 163.81 147.437 163.634 147.738C163.521 147.864 163.389 148.046 163.238 148.285C163.087 148.512 162.924 148.751 162.748 149.002C162.572 149.253 162.39 149.461 162.201 149.624C161.924 149.888 161.648 150.033 161.371 150.058C161.107 150.083 160.881 150.014 160.692 149.851C160.654 149.8 160.61 149.738 160.56 149.662C160.522 149.599 160.491 149.511 160.466 149.398C160.441 149.285 160.447 149.153 160.485 149.002C160.472 148.826 160.472 148.556 160.485 148.191C160.51 147.814 160.547 147.405 160.598 146.965C160.648 146.512 160.698 146.079 160.749 145.664C160.812 145.249 160.868 144.903 160.918 144.626C161.032 143.822 161.182 142.998 161.371 142.156C161.572 141.313 161.755 140.465 161.918 139.61C162.019 139.358 162.107 139.075 162.182 138.761C162.27 138.434 162.358 138.132 162.446 137.856C162.459 137.579 162.522 137.397 162.635 137.309C162.748 137.208 162.874 137.177 163.012 137.214C163.163 137.24 163.282 137.315 163.37 137.441C163.496 137.566 163.59 137.761 163.653 138.025C163.729 138.289 163.678 138.623 163.502 139.025C163.251 139.641 163.006 140.395 162.767 141.288C162.54 142.168 162.333 143.237 162.144 144.494C162.094 144.796 162.037 145.155 161.975 145.569C161.912 145.984 161.855 146.387 161.805 146.776C161.755 147.166 161.717 147.493 161.692 147.757C161.679 148.021 161.685 148.16 161.711 148.172C161.811 148.197 161.949 148.122 162.125 147.946C162.301 147.757 162.459 147.512 162.597 147.21C163.112 146.355 163.622 145.463 164.125 144.532C164.64 143.589 165.131 142.659 165.596 141.741C165.809 141.376 166.023 140.98 166.237 140.553C166.463 140.113 166.677 139.71 166.878 139.346C167.092 138.968 167.287 138.629 167.463 138.327C167.639 138.013 167.79 137.755 167.916 137.554C168.041 137.353 168.142 137.24 168.217 137.214C168.418 137.227 168.588 137.277 168.727 137.365C168.877 137.441 169.003 137.604 169.104 137.856C169.129 137.919 169.123 138.025 169.085 138.176C169.047 138.327 169.003 138.459 168.953 138.572C168.94 138.66 168.884 138.843 168.783 139.119C168.695 139.396 168.613 139.704 168.538 140.043C168.412 140.383 168.299 140.722 168.198 141.062C168.11 141.389 168.048 141.659 168.01 141.873C167.909 142.414 167.784 143.011 167.633 143.665C167.482 144.306 167.35 144.947 167.237 145.588C167.136 146.217 167.079 146.783 167.067 147.286C167.054 147.638 167.054 147.914 167.067 148.116C167.092 148.317 167.13 148.474 167.18 148.587C167.205 148.688 167.281 148.751 167.406 148.776C167.545 148.801 167.658 148.757 167.746 148.644C167.997 148.329 168.211 148.046 168.387 147.795C168.576 147.531 168.752 147.267 168.915 147.003C169.079 146.726 169.248 146.418 169.424 146.079C169.739 145.5 170.059 144.859 170.386 144.155C170.726 143.438 171.046 142.728 171.348 142.024C171.662 141.32 171.933 140.704 172.159 140.175C172.398 139.496 172.587 138.956 172.725 138.553C172.876 138.151 173.008 137.849 173.121 137.648C173.234 137.447 173.354 137.309 173.479 137.233C173.542 137.183 173.63 137.158 173.743 137.158C173.856 137.158 173.97 137.208 174.083 137.309C174.133 137.359 174.177 137.441 174.215 137.554C174.265 137.654 174.284 137.78 174.271 137.931C174.209 138.132 174.095 138.453 173.932 138.893C173.781 139.333 173.605 139.817 173.404 140.345C173.203 140.873 173.008 141.376 172.819 141.854C172.631 142.332 172.467 142.715 172.329 143.004C172.19 143.268 172.058 143.495 171.933 143.683C171.807 143.872 171.744 144.017 171.744 144.117C171.744 144.167 171.681 144.325 171.556 144.589C171.43 144.84 171.266 145.148 171.065 145.513C170.877 145.877 170.669 146.255 170.443 146.644C170.216 147.034 170.003 147.393 169.802 147.719C169.6 148.046 169.431 148.298 169.292 148.474C168.978 148.864 168.67 149.184 168.368 149.436C168.079 149.687 167.828 149.87 167.614 149.983C167.4 150.096 167.249 150.152 167.161 150.152Z" fill="white"/>
<path d="M175.7 149.606C175.31 149.58 174.964 149.461 174.662 149.247C174.373 149.033 174.065 148.813 173.738 148.587C173.524 148.373 173.355 148.147 173.229 147.908C173.103 147.657 173.003 147.33 172.927 146.927C172.877 146.688 172.877 146.387 172.927 146.022C172.977 145.657 173.059 145.293 173.172 144.928C173.286 144.551 173.392 144.249 173.493 144.023C173.644 143.671 173.832 143.294 174.059 142.891C174.298 142.476 174.53 142.087 174.757 141.722C174.996 141.345 175.184 141.043 175.322 140.817C175.41 140.729 175.448 140.685 175.436 140.685C175.436 140.672 175.436 140.666 175.436 140.666C175.436 140.603 175.498 140.446 175.624 140.194C175.762 139.93 175.882 139.698 175.983 139.496C176.171 139.295 176.278 139.132 176.303 139.006C176.328 138.88 176.309 138.78 176.247 138.704C176.221 138.654 176.265 138.566 176.379 138.44C176.492 138.315 176.661 138.17 176.888 138.007C177.114 137.843 177.372 137.68 177.661 137.516C177.963 137.277 178.252 137.152 178.529 137.139C178.818 137.114 178.988 137.17 179.038 137.309C179.038 137.346 179.107 137.359 179.245 137.346C179.396 137.321 179.566 137.29 179.755 137.252C179.956 137.202 180.132 137.164 180.283 137.139C180.345 137.064 180.49 137.007 180.716 136.969C180.955 136.919 181.232 136.875 181.546 136.837C181.71 136.85 181.867 136.856 182.018 136.856C182.181 136.843 182.313 136.831 182.414 136.818C182.527 136.806 182.584 136.799 182.584 136.799C182.672 136.774 182.772 136.787 182.885 136.837C183.011 136.887 183.124 137.026 183.225 137.252C183.313 137.478 183.281 137.648 183.131 137.761C182.992 137.874 182.665 137.963 182.15 138.025C181.773 138.076 181.446 138.12 181.169 138.157C180.892 138.183 180.603 138.22 180.301 138.271C180 138.308 179.629 138.377 179.189 138.478C178.874 138.541 178.617 138.616 178.415 138.704C178.214 138.78 178.038 138.899 177.887 139.063C177.737 139.214 177.567 139.434 177.378 139.723C177.29 139.786 177.177 139.949 177.039 140.213C176.9 140.477 176.762 140.741 176.624 141.005C176.272 141.496 175.964 141.923 175.7 142.288C175.448 142.64 175.348 142.847 175.398 142.91C175.398 142.91 175.467 142.929 175.605 142.967C175.744 143.004 175.838 143.023 175.888 143.023C176.014 142.96 176.165 142.916 176.341 142.891C176.529 142.866 176.68 142.841 176.794 142.816C177.573 142.615 178.183 142.458 178.623 142.344C179.076 142.231 179.415 142.149 179.641 142.099C179.88 142.036 180.063 141.999 180.188 141.986C180.364 141.848 180.534 141.823 180.698 141.911C180.874 141.999 181.012 142.137 181.112 142.325C181.175 142.464 181.175 142.583 181.112 142.684C181.062 142.784 180.905 142.885 180.641 142.986C180.39 143.086 180.012 143.206 179.509 143.344C179.006 143.482 178.346 143.665 177.529 143.891C176.838 144.092 176.247 144.212 175.756 144.249C175.266 144.287 175.033 144.18 175.058 143.929C174.97 143.878 174.87 143.941 174.757 144.117C174.656 144.281 174.555 144.507 174.455 144.796C174.354 145.085 174.266 145.393 174.191 145.72C174.128 146.047 174.084 146.355 174.059 146.644C174.046 146.921 174.065 147.129 174.115 147.267C174.216 147.556 174.348 147.789 174.511 147.965C174.675 148.128 174.97 148.273 175.398 148.398C175.649 148.411 175.895 148.43 176.133 148.455C176.372 148.48 176.643 148.43 176.944 148.304C177.686 148.178 178.271 148.046 178.698 147.908C179.126 147.77 179.371 147.675 179.434 147.625C179.535 147.575 179.597 147.55 179.623 147.55C179.66 147.537 179.711 147.531 179.773 147.531C179.736 147.594 179.748 147.6 179.811 147.55C179.887 147.487 179.987 147.393 180.113 147.267C180.251 147.141 180.434 147.022 180.66 146.909C180.886 146.795 181.087 146.707 181.263 146.644C181.452 146.582 181.553 146.582 181.565 146.644C181.641 146.77 181.628 146.946 181.527 147.173C181.427 147.386 181.244 147.625 180.98 147.889C180.716 148.141 180.377 148.386 179.962 148.625C179.296 148.977 178.573 149.222 177.793 149.36C177.014 149.511 176.316 149.593 175.7 149.606Z" fill="white"/>
<path d="M194.852 150.643C194.802 150.643 194.745 150.618 194.682 150.567C194.619 150.53 194.556 150.473 194.493 150.398C194.405 150.31 194.343 150.203 194.305 150.077C194.28 149.951 194.267 149.832 194.267 149.719C194.267 149.58 194.267 149.404 194.267 149.191C194.267 148.989 194.255 148.769 194.229 148.53C194.229 148.166 194.223 147.789 194.211 147.399C194.198 147.009 194.217 146.758 194.267 146.644C194.229 146.468 194.223 146.28 194.248 146.079C194.286 145.865 194.305 145.701 194.305 145.588L194.229 145.079H193.192C192.953 145.117 192.595 145.129 192.117 145.117C191.652 145.092 191.092 145.06 190.439 145.022L190.193 145.419C190.156 145.469 190.068 145.601 189.929 145.815C189.804 146.028 189.69 146.267 189.59 146.531C189.527 146.695 189.452 146.877 189.363 147.078C189.275 147.267 189.181 147.462 189.081 147.663C188.993 147.852 188.892 148.028 188.779 148.191C188.578 148.581 188.42 148.851 188.307 149.002C188.207 149.14 188.125 149.209 188.062 149.209C187.949 149.209 187.848 149.203 187.76 149.191C187.685 149.178 187.584 149.128 187.459 149.04C187.207 148.927 187.094 148.751 187.119 148.512C187.157 148.273 187.301 147.971 187.553 147.606C187.616 147.518 187.672 147.43 187.723 147.342C187.773 147.254 187.798 147.21 187.798 147.21C187.798 147.185 187.842 147.072 187.93 146.871C188.031 146.657 188.144 146.424 188.27 146.173C188.408 145.921 188.54 145.695 188.666 145.494C188.791 145.28 188.886 145.161 188.949 145.136C189.175 144.884 189.156 144.645 188.892 144.419C188.804 144.381 188.766 144.331 188.779 144.268C188.791 144.193 188.835 144.123 188.911 144.061C188.999 143.998 189.099 143.966 189.213 143.966C189.338 143.903 189.426 143.859 189.477 143.834C189.54 143.809 189.571 143.771 189.571 143.721C189.571 143.696 189.609 143.595 189.684 143.419C189.772 143.231 189.879 143.017 190.005 142.778C190.13 142.527 190.256 142.294 190.382 142.08C190.52 141.854 190.633 141.684 190.721 141.571C190.86 141.219 190.967 140.986 191.042 140.873C191.117 140.748 191.18 140.628 191.231 140.515C191.294 140.452 191.382 140.314 191.495 140.1C191.608 139.886 191.727 139.679 191.853 139.478C192.029 139.302 192.186 139.113 192.325 138.912C192.475 138.698 192.607 138.522 192.721 138.384C192.783 138.245 192.871 138.095 192.985 137.931C193.11 137.768 193.236 137.598 193.362 137.422C193.601 137.158 193.789 136.994 193.928 136.931C194.079 136.856 194.28 136.875 194.531 136.988C194.82 137.114 195.034 137.315 195.172 137.592C195.311 137.868 195.399 138.271 195.436 138.799C195.474 139.088 195.512 139.415 195.55 139.779C195.6 140.131 195.594 140.395 195.531 140.571C195.531 140.798 195.524 141.074 195.512 141.401C195.512 141.728 195.531 142.036 195.568 142.325C195.518 142.564 195.499 142.835 195.512 143.136C195.524 143.426 195.531 143.627 195.531 143.74C195.531 143.853 195.524 144.035 195.512 144.287C195.499 144.526 195.493 144.733 195.493 144.909C195.48 145.387 195.468 145.783 195.455 146.098C195.455 146.412 195.455 146.714 195.455 147.003C195.468 147.279 195.474 147.606 195.474 147.984C195.499 148.977 195.474 149.656 195.399 150.02C195.323 150.398 195.141 150.605 194.852 150.643ZM191.023 144.042C191.023 144.042 191.168 144.029 191.457 144.004C191.759 143.966 192.086 143.954 192.438 143.966C192.853 143.929 193.198 143.922 193.475 143.947C193.752 143.96 193.915 143.954 193.965 143.929C194.104 143.941 194.198 143.885 194.248 143.759C194.299 143.633 194.324 143.47 194.324 143.268C194.299 142.992 194.28 142.621 194.267 142.156C194.255 141.678 194.242 141.2 194.229 140.722C194.229 140.232 194.236 139.83 194.248 139.515C194.248 139.276 194.236 139.063 194.211 138.874C194.185 138.673 194.173 138.572 194.173 138.572C194.148 138.535 194.066 138.585 193.928 138.723C193.789 138.862 193.632 139.038 193.456 139.251C193.293 139.465 193.136 139.672 192.985 139.874C192.846 140.075 192.746 140.226 192.683 140.326C192.633 140.389 192.538 140.553 192.4 140.817C192.262 141.081 192.105 141.364 191.928 141.665C191.463 142.407 191.168 142.973 191.042 143.363C190.916 143.753 190.91 143.979 191.023 144.042Z" fill="white"/>
<path d="M197.571 149.587C197.571 149.675 197.546 149.687 197.496 149.624C197.445 149.561 197.351 149.473 197.213 149.36C197.1 149.247 197.031 149.134 197.005 149.021C196.98 148.908 196.974 148.732 196.987 148.493C197.049 148.204 197.163 147.782 197.326 147.229C197.489 146.663 197.684 146.072 197.911 145.456C197.936 145.217 197.98 144.997 198.043 144.796C198.106 144.595 198.137 144.494 198.137 144.494C198.137 144.469 198.168 144.438 198.231 144.4C198.294 144.362 198.344 144.3 198.382 144.212C198.432 144.186 198.451 144.123 198.439 144.023C198.426 143.91 198.414 143.834 198.401 143.797C198.401 143.709 198.445 143.507 198.533 143.193C198.634 142.879 198.778 142.445 198.967 141.892C199.168 141.338 199.413 140.66 199.702 139.855C199.841 139.679 199.948 139.49 200.023 139.289C200.111 139.088 200.155 138.987 200.155 138.987C200.256 138.862 200.3 138.78 200.287 138.742C200.274 138.704 200.18 138.629 200.004 138.516C199.904 138.34 199.828 138.164 199.778 137.988C199.728 137.812 199.765 137.648 199.891 137.497C199.929 137.434 199.998 137.353 200.098 137.252C200.212 137.152 200.331 137.057 200.457 136.969C200.746 136.818 200.96 136.718 201.098 136.667C201.249 136.605 201.438 136.605 201.664 136.667C202.066 136.68 202.374 136.699 202.588 136.724C202.802 136.749 202.94 136.812 203.003 136.913C203.041 136.963 203.104 137.013 203.192 137.064C203.292 137.101 203.386 137.12 203.474 137.12C203.701 137.145 203.946 137.214 204.21 137.328C204.474 137.441 204.707 137.554 204.908 137.667C205.122 137.78 205.247 137.862 205.285 137.912C205.499 138.088 205.681 138.359 205.832 138.723C205.995 139.088 206.096 139.509 206.134 139.987C206.134 140.276 206.121 140.521 206.096 140.722C206.083 140.911 206.033 141.1 205.945 141.288C205.857 141.477 205.712 141.709 205.511 141.986C205.134 142.615 204.625 143.224 203.984 143.815C203.355 144.394 202.626 144.922 201.796 145.4C201.771 145.45 201.739 145.507 201.702 145.569C201.676 145.62 201.664 145.645 201.664 145.645C201.664 145.733 201.739 145.871 201.89 146.06C202.041 146.248 202.23 146.456 202.456 146.682C202.695 146.909 202.934 147.135 203.173 147.361C203.424 147.575 203.65 147.757 203.852 147.908C204.053 148.059 204.191 148.153 204.267 148.191C204.342 148.216 204.436 148.21 204.549 148.172C204.675 148.134 204.788 148.128 204.889 148.153C204.99 148.166 205.04 148.279 205.04 148.493C205.065 148.669 205.008 148.826 204.87 148.964C204.732 149.09 204.644 149.165 204.606 149.191C204.531 149.316 204.468 149.404 204.417 149.455C204.38 149.505 204.317 149.505 204.229 149.455C204.153 149.417 204.021 149.335 203.833 149.209C203.38 149.059 202.946 148.795 202.531 148.417C202.116 148.04 201.695 147.587 201.268 147.059C201.004 146.783 200.796 146.588 200.645 146.475C200.507 146.349 200.388 146.274 200.287 146.248C200.186 146.223 200.061 146.223 199.91 146.248C199.822 146.248 199.715 146.242 199.589 146.23C199.476 146.204 199.369 146.142 199.269 146.041C199.256 145.953 199.187 145.89 199.061 145.852C198.948 145.802 198.891 145.821 198.891 145.909C198.879 145.934 198.835 146.066 198.759 146.305C198.684 146.544 198.602 146.795 198.514 147.059C198.426 147.311 198.351 147.487 198.288 147.587C198.313 147.701 198.294 147.889 198.231 148.153C198.168 148.417 198.068 148.788 197.93 149.266C197.917 149.404 197.886 149.511 197.835 149.587C197.798 149.675 197.779 149.675 197.779 149.587C197.703 149.536 197.653 149.511 197.628 149.511C197.615 149.511 197.596 149.536 197.571 149.587ZM201.117 144.626C201.519 144.388 201.922 144.105 202.324 143.778C202.726 143.451 203.091 143.124 203.418 142.797C203.745 142.47 203.99 142.181 204.153 141.929C204.254 141.854 204.348 141.728 204.436 141.552C204.537 141.376 204.619 141.269 204.681 141.232C204.782 141.093 204.851 140.993 204.889 140.93C204.939 140.854 204.933 140.76 204.87 140.647C204.87 140.546 204.876 140.446 204.889 140.345C204.902 140.245 204.939 140.15 205.002 140.062C205.128 139.685 205.134 139.421 205.021 139.27C204.92 139.119 204.713 138.975 204.399 138.836C204.336 138.773 204.223 138.711 204.059 138.648C203.908 138.585 203.745 138.528 203.569 138.478C203.393 138.415 203.254 138.365 203.154 138.327C202.94 138.289 202.726 138.258 202.513 138.233C202.299 138.195 202.135 138.183 202.022 138.195C201.884 138.233 201.79 138.283 201.739 138.346C201.689 138.396 201.582 138.585 201.419 138.912C201.394 139.075 201.343 139.239 201.268 139.402C201.192 139.566 201.129 139.66 201.079 139.685C201.067 139.735 201.004 139.918 200.891 140.232C200.777 140.546 200.639 140.924 200.476 141.364C200.325 141.804 200.168 142.244 200.004 142.684C199.853 143.111 199.728 143.476 199.627 143.778C199.526 144.079 199.476 144.256 199.476 144.306C199.476 144.331 199.539 144.394 199.665 144.494C199.79 144.582 199.866 144.582 199.891 144.494C199.891 144.494 199.941 144.513 200.042 144.551C200.142 144.589 200.218 144.62 200.268 144.645L200.551 144.815L201.117 144.626Z" fill="white"/>
<path d="M209.274 149.662C209.023 149.599 208.759 149.505 208.482 149.379C208.218 149.266 207.992 149.14 207.803 149.002C207.615 148.851 207.501 148.719 207.464 148.606C207.464 148.543 207.438 148.493 207.388 148.455C207.338 148.405 207.281 148.38 207.218 148.38C207.218 148.38 207.218 148.373 207.218 148.361C207.218 148.348 207.218 148.304 207.218 148.229C207.218 148.178 207.218 148.128 207.218 148.078C207.231 148.015 207.206 147.965 207.143 147.927C207.055 147.738 207.024 147.443 207.049 147.041C207.074 146.638 207.137 146.204 207.237 145.739C207.338 145.274 207.451 144.859 207.577 144.494C207.577 144.381 207.596 144.268 207.633 144.155C207.684 144.042 207.709 143.954 207.709 143.891C207.747 143.778 207.816 143.608 207.916 143.382C208.017 143.143 208.136 142.885 208.275 142.608C208.413 142.319 208.551 142.049 208.69 141.797C208.828 141.533 208.954 141.332 209.067 141.194C209.067 141.131 209.111 141.049 209.199 140.949C209.287 140.848 209.356 140.71 209.406 140.534C209.507 140.433 209.633 140.263 209.783 140.025C209.947 139.786 210.091 139.566 210.217 139.364C210.481 139.151 210.645 138.962 210.708 138.799C210.77 138.623 210.789 138.484 210.764 138.384C210.777 138.195 210.802 138.051 210.84 137.95C210.89 137.849 210.99 137.768 211.141 137.705C211.305 137.629 211.55 137.554 211.877 137.478C212.279 137.328 212.688 137.221 213.103 137.158C213.53 137.095 214.071 137.057 214.725 137.045C214.926 136.994 215.083 136.969 215.196 136.969C215.309 136.957 215.366 136.95 215.366 136.95C215.391 136.925 215.467 136.931 215.592 136.969C215.731 137.007 215.882 137.064 216.045 137.139C216.208 137.202 216.347 137.265 216.46 137.328C216.586 137.39 216.642 137.441 216.63 137.478C216.63 137.554 216.542 137.629 216.366 137.705C216.202 137.78 215.995 137.849 215.743 137.912C215.492 137.975 215.228 138.025 214.951 138.063C214.385 138.126 213.908 138.201 213.518 138.289C213.141 138.377 212.814 138.503 212.537 138.667C212.273 138.83 212.022 139.044 211.783 139.308C211.556 139.572 211.311 139.918 211.047 140.345C210.708 140.873 210.481 141.257 210.368 141.496C210.268 141.735 210.242 141.885 210.293 141.948C210.356 141.999 210.456 142.024 210.594 142.024C210.745 142.024 210.884 142.011 211.009 141.986C211.148 141.948 211.255 141.929 211.33 141.929C211.33 141.929 211.493 141.892 211.82 141.816C212.147 141.728 212.487 141.659 212.839 141.609C213.241 141.533 213.511 141.477 213.65 141.439C213.801 141.389 213.945 141.357 214.084 141.345C214.511 141.307 214.775 141.351 214.876 141.477C214.989 141.59 214.976 141.728 214.838 141.892C214.712 142.055 214.492 142.2 214.178 142.325C214.052 142.376 213.895 142.432 213.706 142.495C213.518 142.558 213.342 142.615 213.178 142.665C213.015 142.703 212.908 142.722 212.858 142.722C212.858 142.722 212.807 142.734 212.707 142.759C212.619 142.772 212.493 142.778 212.33 142.778C212.292 142.778 212.11 142.803 211.783 142.854C211.456 142.891 211.148 142.929 210.858 142.967C210.418 143.08 210.079 143.174 209.84 143.25C209.614 143.313 209.444 143.401 209.331 143.514C209.218 143.627 209.111 143.809 209.01 144.061C208.897 144.337 208.784 144.696 208.671 145.136C208.57 145.563 208.488 145.997 208.426 146.437C208.363 146.877 208.331 147.267 208.331 147.606C208.331 147.933 208.375 148.141 208.463 148.229C208.589 148.392 208.84 148.493 209.218 148.53C209.607 148.568 210.029 148.543 210.481 148.455C210.934 148.367 211.311 148.229 211.613 148.04C211.713 147.965 211.833 147.889 211.971 147.814C212.122 147.726 212.267 147.657 212.405 147.606C212.568 147.506 212.682 147.462 212.744 147.474C212.82 147.474 212.977 147.562 213.216 147.738C213.43 148.04 213.449 148.273 213.273 148.436C213.097 148.587 212.656 148.813 211.952 149.115C211.299 149.354 210.777 149.511 210.387 149.587C210.01 149.662 209.639 149.687 209.274 149.662Z" fill="white"/>
<path d="M227.946 150.586C227.783 150.523 227.651 150.429 227.55 150.303C227.462 150.19 227.387 150.046 227.324 149.87C227.349 149.794 227.4 149.593 227.475 149.266C227.55 148.939 227.645 148.549 227.758 148.097C227.871 147.644 227.997 147.185 228.135 146.72C228.273 146.242 228.405 145.815 228.531 145.437C228.581 145.123 228.613 144.903 228.625 144.777C228.651 144.639 228.657 144.551 228.644 144.513C228.632 144.476 228.6 144.444 228.55 144.419C228.475 144.369 228.292 144.312 228.003 144.249C227.726 144.186 227.406 144.123 227.041 144.061C226.677 143.998 226.325 143.941 225.985 143.891C225.646 143.828 225.388 143.784 225.212 143.759C225.061 143.771 224.897 143.753 224.721 143.702C224.545 143.652 224.376 143.633 224.212 143.646C224.011 143.646 223.885 143.639 223.835 143.627C223.785 143.614 223.741 143.577 223.703 143.514C223.69 143.438 223.665 143.419 223.628 143.457C223.602 143.495 223.54 143.658 223.439 143.947C223.338 144.237 223.187 144.714 222.986 145.381C222.773 146.035 222.615 146.563 222.515 146.965C222.427 147.367 222.364 147.694 222.326 147.946C222.288 148.197 222.251 148.417 222.213 148.606C222.125 148.895 222.043 149.184 221.968 149.473C221.905 149.763 221.842 149.995 221.779 150.171C221.729 150.36 221.666 150.46 221.591 150.473C221.565 150.523 221.509 150.523 221.421 150.473C221.345 150.435 221.251 150.391 221.138 150.341C220.949 150.203 220.836 150.046 220.799 149.87C220.761 149.694 220.786 149.417 220.874 149.04C220.975 148.65 221.113 148.072 221.289 147.305C221.389 146.802 221.484 146.33 221.572 145.89C221.672 145.45 221.767 145.192 221.855 145.117C221.918 144.903 221.999 144.582 222.1 144.155C222.213 143.715 222.351 143.313 222.515 142.948C222.615 142.571 222.766 142.112 222.967 141.571C223.181 141.03 223.407 140.477 223.646 139.911C223.885 139.333 224.112 138.799 224.325 138.308C224.539 137.818 224.709 137.428 224.835 137.139C224.935 137.051 225.036 136.925 225.136 136.762C225.249 136.598 225.312 136.473 225.325 136.385C225.426 136.196 225.501 136.089 225.551 136.064C225.614 136.026 225.69 136.014 225.778 136.026C225.941 136.051 226.086 136.121 226.211 136.234C226.35 136.347 226.45 136.479 226.513 136.63C226.589 136.768 226.595 136.9 226.532 137.026C226.444 137.114 226.312 137.302 226.136 137.592C225.96 137.868 225.746 138.321 225.495 138.95C225.432 139.075 225.325 139.239 225.174 139.44C225.036 139.641 224.935 139.83 224.872 140.006C224.784 140.144 224.728 140.282 224.703 140.421C224.69 140.559 224.652 140.66 224.589 140.722C224.552 140.81 224.489 140.942 224.401 141.118C224.313 141.294 224.225 141.483 224.137 141.684C224.049 141.885 223.973 142.061 223.91 142.212C223.86 142.363 223.841 142.451 223.854 142.476C223.879 142.502 224.017 142.533 224.269 142.571C224.533 142.608 224.822 142.646 225.136 142.684C225.463 142.709 225.721 142.734 225.91 142.759C225.972 142.747 226.104 142.759 226.306 142.797C226.519 142.822 226.758 142.854 227.022 142.891C227.299 142.929 227.569 142.967 227.833 143.004C228.211 143.13 228.525 143.212 228.776 143.25C229.04 143.287 229.179 143.281 229.191 143.231C229.191 143.231 229.216 143.162 229.267 143.023C229.33 142.885 229.418 142.684 229.531 142.42C229.581 142.231 229.663 141.917 229.776 141.477C229.902 141.037 230.027 140.622 230.153 140.232C230.304 139.968 230.436 139.679 230.549 139.364C230.662 139.038 230.75 138.723 230.813 138.421C230.889 138.107 230.945 137.849 230.983 137.648C231.071 137.271 231.172 136.969 231.285 136.743C231.41 136.517 231.505 136.353 231.568 136.253C231.568 136.253 231.605 136.271 231.681 136.309C231.769 136.334 231.857 136.359 231.945 136.385C232.171 136.422 232.316 136.529 232.379 136.705C232.454 136.869 232.454 137.139 232.379 137.516C232.303 137.893 232.146 138.415 231.907 139.082C231.857 139.245 231.763 139.484 231.624 139.798C231.498 140.1 231.379 140.408 231.266 140.722C231.153 141.024 231.077 141.25 231.04 141.401C230.939 141.716 230.832 142.011 230.719 142.288C230.606 142.564 230.442 142.942 230.229 143.419C230.216 143.457 230.229 143.551 230.266 143.702C230.304 143.841 230.354 143.979 230.417 144.117C230.518 144.268 230.574 144.394 230.587 144.494C230.599 144.595 230.568 144.67 230.493 144.721C230.417 144.771 230.298 144.796 230.134 144.796C229.971 144.784 229.851 144.815 229.776 144.89C229.713 144.966 229.663 145.148 229.625 145.437C229.487 145.752 229.348 146.142 229.21 146.607C229.072 147.059 228.946 147.525 228.833 148.002C228.72 148.48 228.625 148.914 228.55 149.304C228.487 149.694 228.456 149.97 228.456 150.134C228.368 150.398 228.305 150.549 228.267 150.586C228.229 150.624 228.123 150.624 227.946 150.586Z" fill="white"/>
<path d="M233.368 149.738C233.28 149.599 233.079 149.511 232.764 149.473C232.463 149.436 232.092 149.429 231.652 149.455C231.476 149.48 231.306 149.467 231.142 149.417C230.979 149.379 230.847 149.31 230.746 149.209C230.658 149.121 230.627 149.027 230.652 148.927C230.665 148.776 230.79 148.656 231.029 148.568C231.281 148.48 231.677 148.43 232.217 148.417L233.217 148.398L233.406 148.021C233.456 147.883 233.519 147.688 233.594 147.437C233.67 147.185 233.751 146.915 233.839 146.626C233.89 146.45 233.965 146.211 234.066 145.909C234.166 145.607 234.273 145.287 234.386 144.947C234.5 144.608 234.6 144.306 234.688 144.042C234.776 143.765 234.833 143.57 234.858 143.457C234.908 143.344 234.977 143.155 235.065 142.891C235.153 142.615 235.235 142.338 235.31 142.061C235.399 141.772 235.455 141.565 235.48 141.439C235.807 140.446 236.021 139.742 236.121 139.327C236.222 138.899 236.247 138.679 236.197 138.667C236.147 138.667 236.021 138.673 235.82 138.685C235.631 138.698 235.417 138.717 235.178 138.742C234.952 138.755 234.745 138.773 234.556 138.799C234.38 138.824 234.273 138.849 234.235 138.874C234.173 138.962 234.066 138.981 233.915 138.931C233.764 138.88 233.67 138.792 233.632 138.667C233.619 138.553 233.613 138.465 233.613 138.403C233.626 138.34 233.663 138.289 233.726 138.252C233.814 138.176 233.984 138.095 234.235 138.007C234.487 137.906 234.77 137.818 235.084 137.742C235.411 137.667 235.719 137.61 236.008 137.573C236.222 137.548 236.436 137.504 236.65 137.441C236.863 137.365 237.033 137.277 237.159 137.177C237.272 137.139 237.379 137.108 237.479 137.082C237.593 137.057 237.706 137.051 237.819 137.064C237.919 137.126 238.089 137.158 238.328 137.158C238.58 137.158 238.844 137.152 239.12 137.139C239.824 137.076 240.296 137.057 240.535 137.082C240.786 137.108 240.956 137.208 241.044 137.384C241.107 137.623 241.119 137.812 241.082 137.95C241.044 138.076 240.918 138.132 240.704 138.12C240.591 138.145 240.384 138.17 240.082 138.195C239.793 138.208 239.485 138.22 239.158 138.233C238.265 138.308 237.787 138.396 237.725 138.497C237.674 138.547 237.63 138.597 237.593 138.648C237.567 138.698 237.53 138.755 237.479 138.818C237.492 138.868 237.461 139.031 237.385 139.308C237.322 139.572 237.241 139.842 237.14 140.119C237.09 140.282 237.014 140.515 236.914 140.817C236.813 141.118 236.706 141.433 236.593 141.76C236.492 142.074 236.398 142.363 236.31 142.627C236.222 142.879 236.159 143.048 236.121 143.136C236.071 143.25 236.027 143.375 235.989 143.514C235.964 143.639 235.945 143.734 235.933 143.797C235.757 144.413 235.6 144.934 235.461 145.362C235.336 145.789 235.216 146.167 235.103 146.494C235.002 146.808 234.908 147.116 234.82 147.418C234.732 147.707 234.638 148.028 234.537 148.38C234.537 148.38 234.632 148.373 234.82 148.361C235.021 148.336 235.285 148.31 235.612 148.285C236.203 148.222 236.624 148.185 236.876 148.172C237.14 148.16 237.316 148.178 237.404 148.229C237.492 148.266 237.555 148.342 237.593 148.455C237.844 148.795 237.875 149.027 237.687 149.153C237.498 149.279 237.052 149.335 236.348 149.323C235.694 149.348 235.191 149.367 234.839 149.379C234.5 149.404 234.261 149.436 234.122 149.473C233.997 149.511 233.921 149.574 233.896 149.662C233.896 149.763 233.846 149.813 233.745 149.813C233.645 149.813 233.519 149.788 233.368 149.738Z" fill="white"/>
<path d="M240.123 150.284C240.072 150.41 239.978 150.479 239.84 150.492C239.714 150.505 239.544 150.429 239.331 150.266C239.18 150.115 239.079 149.995 239.029 149.907C238.991 149.832 239.016 149.694 239.104 149.492C239.192 149.304 239.343 148.964 239.557 148.474C239.607 148.172 239.695 147.87 239.821 147.569C239.947 147.254 240.041 147.034 240.104 146.909C240.154 146.732 240.255 146.443 240.406 146.041C240.569 145.626 240.751 145.167 240.953 144.664C241.166 144.161 241.368 143.69 241.556 143.25C241.745 142.797 241.883 142.458 241.971 142.231C242.185 141.728 242.405 141.2 242.631 140.647C242.858 140.094 243.166 139.396 243.555 138.553C243.606 138.428 243.631 138.296 243.631 138.157C243.643 138.019 243.543 137.95 243.329 137.95C243.203 137.812 243.134 137.673 243.122 137.535C243.109 137.384 243.172 137.277 243.31 137.214L244.291 136.818C244.882 136.68 245.485 136.642 246.101 136.705C246.73 136.755 247.321 136.925 247.874 137.214C248.478 137.566 248.905 137.925 249.157 138.289C249.408 138.641 249.534 139 249.534 139.364C249.547 139.729 249.484 140.087 249.345 140.439C249.245 140.704 249.05 140.993 248.761 141.307C248.484 141.621 248.157 141.936 247.78 142.25C247.415 142.564 247.032 142.854 246.63 143.118C246.24 143.369 245.875 143.564 245.536 143.702C245.221 143.853 244.894 143.985 244.555 144.098C244.215 144.212 243.863 144.325 243.499 144.438C243.298 144.488 243.059 144.513 242.782 144.513C242.505 144.513 242.298 144.488 242.16 144.438L241.839 145.324C241.713 145.777 241.493 146.45 241.179 147.342C240.877 148.235 240.525 149.216 240.123 150.284ZM247.61 150.492C247.51 150.53 247.39 150.542 247.252 150.53C247.126 150.517 246.919 150.416 246.63 150.228C246.076 149.901 245.523 149.505 244.97 149.04C244.417 148.574 243.794 147.946 243.103 147.154C242.839 146.839 242.612 146.55 242.424 146.286C242.248 146.022 242.059 145.651 241.858 145.173L241.594 144.155L242.103 143.872L242.782 144.551C242.983 144.991 243.241 145.412 243.555 145.815C243.882 146.217 244.184 146.575 244.461 146.89C244.687 147.154 244.995 147.474 245.385 147.852C245.775 148.216 246.189 148.568 246.63 148.908C247.07 149.247 247.466 149.505 247.818 149.681C247.893 149.744 247.918 149.838 247.893 149.964C247.868 150.09 247.824 150.203 247.761 150.303C247.711 150.416 247.661 150.479 247.61 150.492ZM242.744 143.476C243.034 143.451 243.373 143.382 243.763 143.268C244.153 143.143 244.542 142.998 244.932 142.835C245.297 142.659 245.68 142.451 246.083 142.212C246.498 141.961 246.881 141.684 247.233 141.382C247.585 141.081 247.868 140.766 248.082 140.439C248.308 140.113 248.409 139.786 248.384 139.459C248.384 139.295 248.321 139.126 248.195 138.95C248.069 138.773 247.918 138.616 247.742 138.478C247.566 138.34 247.397 138.245 247.233 138.195C246.73 138.069 246.315 137.988 245.988 137.95C245.661 137.912 245.41 137.937 245.234 138.025C245.058 138.101 244.938 138.264 244.876 138.516C244.876 138.553 244.825 138.679 244.725 138.893C244.624 139.107 244.498 139.371 244.347 139.685C244.209 139.999 244.071 140.333 243.933 140.685C243.568 141.426 243.291 141.992 243.103 142.382C242.914 142.759 242.795 143.023 242.744 143.174C242.694 143.325 242.694 143.426 242.744 143.476Z" fill="white"/>
<path d="M251.101 150.19C251.001 150.064 250.793 149.989 250.479 149.964C250.177 149.939 249.806 149.945 249.366 149.983C249.19 150.008 249.021 150.002 248.857 149.964C248.694 149.926 248.562 149.863 248.461 149.775C248.36 149.687 248.323 149.587 248.348 149.473C248.36 149.323 248.486 149.203 248.725 149.115C248.964 149.015 249.354 148.952 249.894 148.927L250.894 148.87L251.083 148.474C251.12 148.336 251.171 148.141 251.233 147.889C251.309 147.638 251.384 147.367 251.46 147.078C251.51 146.902 251.586 146.644 251.686 146.305C251.799 145.953 251.919 145.582 252.044 145.192C252.17 144.802 252.283 144.45 252.384 144.136C252.485 143.822 252.541 143.608 252.554 143.495C252.604 143.382 252.673 143.174 252.761 142.872C252.849 142.571 252.937 142.263 253.025 141.948C253.113 141.621 253.17 141.395 253.195 141.269C253.484 140.263 253.673 139.547 253.761 139.119C253.849 138.692 253.868 138.478 253.817 138.478C253.767 138.478 253.641 138.484 253.44 138.497C253.252 138.509 253.038 138.535 252.799 138.572C252.573 138.597 252.365 138.629 252.176 138.667C252 138.692 251.9 138.717 251.875 138.742C251.812 138.83 251.705 138.855 251.554 138.818C251.403 138.767 251.303 138.679 251.252 138.553C251.24 138.44 251.233 138.352 251.233 138.289C251.246 138.227 251.277 138.176 251.328 138.139C251.416 138.063 251.579 137.975 251.818 137.874C252.07 137.774 252.353 137.68 252.667 137.592C252.994 137.504 253.302 137.434 253.591 137.384C253.805 137.359 254.018 137.309 254.232 137.233C254.446 137.145 254.609 137.051 254.723 136.95C254.836 136.9 254.943 136.862 255.043 136.837C255.156 136.812 255.27 136.806 255.383 136.818C255.483 136.869 255.653 136.894 255.892 136.894C256.143 136.881 256.407 136.862 256.684 136.837C257.388 136.749 257.866 136.718 258.117 136.743C258.369 136.755 258.539 136.85 258.627 137.026C258.69 137.252 258.702 137.434 258.664 137.573C258.639 137.711 258.52 137.774 258.306 137.761C258.193 137.799 257.985 137.83 257.684 137.856C257.394 137.881 257.086 137.906 256.759 137.931C256.332 137.981 255.993 138.038 255.741 138.101C255.502 138.151 255.37 138.201 255.345 138.252C255.295 138.302 255.251 138.352 255.213 138.403C255.188 138.453 255.15 138.509 255.1 138.572C255.125 138.623 255.106 138.786 255.043 139.063C254.98 139.327 254.905 139.603 254.817 139.893C254.767 140.056 254.691 140.301 254.591 140.628C254.49 140.942 254.383 141.276 254.27 141.628C254.169 141.98 254.075 142.3 253.987 142.59C253.899 142.866 253.836 143.048 253.798 143.136C253.761 143.25 253.723 143.375 253.685 143.514C253.66 143.639 253.648 143.734 253.648 143.797C253.446 144.614 253.258 145.312 253.082 145.89C252.906 146.456 252.742 146.965 252.591 147.418C252.453 147.87 252.327 148.329 252.214 148.795C252.214 148.795 252.309 148.788 252.497 148.776C252.698 148.751 252.962 148.713 253.289 148.662C253.729 148.6 254.075 148.556 254.327 148.53C254.578 148.505 254.767 148.499 254.892 148.512C255.018 148.512 255.1 148.537 255.138 148.587C255.188 148.625 255.232 148.688 255.27 148.776C255.534 149.103 255.571 149.329 255.383 149.455C255.207 149.58 254.767 149.656 254.062 149.681C253.409 149.731 252.906 149.769 252.554 149.794C252.214 149.832 251.975 149.87 251.837 149.907C251.711 149.945 251.642 150.008 251.63 150.096C251.63 150.159 251.604 150.203 251.554 150.228C251.516 150.266 251.454 150.278 251.365 150.266C251.29 150.253 251.202 150.228 251.101 150.19Z" fill="white"/>
<path d="M257.861 149.888C257.66 150.027 257.54 150.108 257.502 150.134C257.477 150.171 257.389 150.071 257.238 149.832C257.138 149.769 257.069 149.7 257.031 149.624C256.993 149.561 256.968 149.492 256.955 149.417C256.943 149.341 256.93 149.266 256.918 149.191C256.918 149.065 256.968 148.813 257.069 148.436C257.169 148.059 257.295 147.625 257.446 147.135C257.597 146.644 257.754 146.16 257.917 145.683C258.093 145.192 258.244 144.784 258.37 144.457C258.458 144.23 258.533 144.035 258.596 143.872C258.659 143.696 258.709 143.558 258.747 143.457C258.797 143.319 258.885 143.118 259.011 142.854C259.15 142.577 259.294 142.294 259.445 142.005C259.596 141.703 259.722 141.452 259.822 141.25C259.935 141.037 259.992 140.93 259.992 140.93C259.979 140.892 260.023 140.76 260.124 140.534C260.225 140.295 260.357 140.012 260.52 139.685C260.683 139.358 260.853 139.031 261.029 138.704C261.205 138.365 261.362 138.082 261.501 137.856C261.715 137.504 261.872 137.284 261.972 137.196C262.085 137.095 262.205 137.076 262.331 137.139C262.431 137.114 262.557 137.114 262.708 137.139C262.859 137.164 262.997 137.202 263.123 137.252C263.261 137.302 263.336 137.372 263.349 137.46C263.374 137.497 263.38 137.598 263.368 137.761C263.355 137.912 263.33 138.095 263.292 138.308C263.179 138.987 263.104 139.628 263.066 140.232C263.041 140.823 263.041 141.445 263.066 142.099C263.104 142.753 263.16 143.514 263.236 144.381L263.632 146.494L263.971 145.871C264.122 145.595 264.261 145.299 264.386 144.985C264.525 144.67 264.676 144.331 264.839 143.966C264.94 143.677 265.053 143.401 265.178 143.136C265.304 142.86 265.367 142.722 265.367 142.722C265.48 142.583 265.587 142.382 265.688 142.118C265.801 141.854 265.901 141.59 265.989 141.326C266.077 141.049 266.147 140.842 266.197 140.704C266.222 140.616 266.26 140.471 266.31 140.27C266.373 140.069 266.436 139.874 266.499 139.685C266.574 139.496 266.643 139.377 266.706 139.327C266.706 139.251 266.731 139.088 266.782 138.836C266.832 138.572 266.888 138.315 266.951 138.063C267.027 137.799 267.071 137.642 267.083 137.592C267.083 137.592 267.109 137.566 267.159 137.516C267.209 137.453 267.266 137.346 267.329 137.196L267.857 137.045C268.083 137.208 268.202 137.378 268.215 137.554C268.24 137.73 268.165 138.013 267.989 138.403C267.976 138.591 267.945 138.742 267.894 138.855C267.844 138.956 267.819 139.006 267.819 139.006C267.894 139.006 267.92 139.05 267.894 139.138C267.869 139.226 267.844 139.333 267.819 139.459C267.794 139.547 267.75 139.71 267.687 139.949C267.624 140.175 267.561 140.414 267.498 140.666C267.435 140.905 267.385 141.087 267.347 141.213C267.31 141.351 267.234 141.571 267.121 141.873C267.008 142.162 266.87 142.489 266.706 142.854C266.543 143.206 266.379 143.564 266.216 143.929C266.065 144.281 265.92 144.589 265.782 144.853C265.656 145.104 265.568 145.274 265.518 145.362C265.48 145.437 265.436 145.532 265.386 145.645C265.348 145.758 265.298 145.846 265.235 145.909C265.172 146.11 265.046 146.362 264.858 146.663C264.682 146.953 264.5 147.223 264.311 147.474C264.122 147.713 263.971 147.864 263.858 147.927C263.695 148.09 263.506 148.153 263.292 148.116C263.079 148.078 262.884 147.952 262.708 147.738C262.532 147.512 262.406 147.223 262.331 146.871C262.318 146.72 262.287 146.468 262.236 146.116C262.186 145.764 262.129 145.381 262.067 144.966C262.016 144.551 261.972 144.167 261.935 143.815C261.897 143.451 261.878 143.18 261.878 143.004C261.828 142.753 261.815 142.527 261.84 142.325C261.878 142.124 261.884 141.948 261.859 141.797C261.859 141.596 261.865 141.42 261.878 141.269C261.891 141.118 261.903 140.974 261.916 140.836C261.941 140.685 261.953 140.521 261.953 140.345C261.979 140.056 261.928 139.943 261.803 140.006C261.677 140.069 261.432 140.439 261.067 141.118C260.941 141.445 260.803 141.722 260.652 141.948C260.514 142.162 260.451 142.294 260.463 142.344C260.413 142.483 260.325 142.703 260.199 143.004C260.074 143.294 259.935 143.614 259.784 143.966C259.634 144.306 259.489 144.633 259.351 144.947C259.225 145.249 259.124 145.488 259.049 145.664C258.961 145.852 258.86 146.123 258.747 146.475C258.647 146.814 258.546 147.173 258.445 147.55C258.357 147.927 258.282 148.26 258.219 148.549C258.156 148.826 258.112 149.002 258.087 149.077C258.1 149.14 258.087 149.216 258.049 149.304C258.012 149.404 257.949 149.599 257.861 149.888Z" fill="white"/>
<path d="M273.975 149.851C273.95 149.888 273.893 149.888 273.805 149.851C273.717 149.813 273.629 149.744 273.541 149.643C273.466 149.555 273.415 149.455 273.39 149.341C273.34 149.341 273.309 149.304 273.296 149.228C273.296 149.153 273.296 148.996 273.296 148.757C273.397 148.581 273.503 148.493 273.617 148.493C273.617 148.493 273.623 148.43 273.635 148.304C273.661 148.166 273.711 148.021 273.786 147.87C273.849 147.719 273.893 147.594 273.918 147.493C273.944 147.393 273.956 147.342 273.956 147.342C273.893 147.33 273.774 147.367 273.598 147.455C273.422 147.531 273.246 147.657 273.07 147.833C272.881 147.958 272.686 148.109 272.485 148.285C272.296 148.449 272.164 148.543 272.089 148.568C271.963 148.593 271.856 148.637 271.768 148.7C271.68 148.751 271.567 148.826 271.429 148.927C271.027 149.165 270.599 149.367 270.146 149.53C269.706 149.694 269.329 149.769 269.015 149.756C268.839 149.731 268.682 149.681 268.543 149.606C268.405 149.53 268.248 149.429 268.072 149.304C268.009 149.203 267.933 149.109 267.845 149.021C267.77 148.933 267.732 148.832 267.732 148.719C267.632 148.631 267.569 148.411 267.544 148.059C267.519 147.694 267.525 147.292 267.563 146.852C267.6 146.412 267.651 146.028 267.713 145.701C267.789 145.337 267.877 145.01 267.977 144.721C268.078 144.419 268.21 144.105 268.374 143.778C268.537 143.438 268.757 143.042 269.034 142.59C269.31 142.137 269.656 141.584 270.071 140.93C270.146 140.716 270.272 140.49 270.448 140.251C270.637 140.012 270.825 139.798 271.014 139.61C271.203 139.408 271.335 139.276 271.41 139.214C271.46 139.214 271.542 139.163 271.655 139.063C271.768 138.95 271.875 138.843 271.976 138.742C272.089 138.629 272.146 138.572 272.146 138.572C272.636 138.057 273.139 137.686 273.654 137.46C274.17 137.221 274.673 136.975 275.163 136.724C275.377 136.724 275.61 136.737 275.861 136.762C276.112 136.774 276.345 136.793 276.559 136.818C276.785 136.843 276.942 136.875 277.03 136.913C277.131 137.001 277.219 137.108 277.294 137.233C277.382 137.346 277.445 137.466 277.483 137.592C277.533 137.755 277.558 137.874 277.558 137.95C277.558 138.025 277.533 138.095 277.483 138.157C277.408 138.208 277.332 138.239 277.257 138.252C277.194 138.252 277.093 138.227 276.955 138.176C276.54 137.963 276.056 137.919 275.503 138.044C274.949 138.157 274.365 138.421 273.749 138.836C273.56 138.987 273.334 139.188 273.07 139.44C272.806 139.691 272.529 139.968 272.24 140.27C271.951 140.571 271.68 140.861 271.429 141.137C271.177 141.414 270.976 141.647 270.825 141.835C270.335 142.577 269.939 143.275 269.637 143.929C269.335 144.582 269.109 145.155 268.958 145.645C268.883 145.808 268.826 146.028 268.788 146.305C268.763 146.582 268.751 146.858 268.751 147.135C268.763 147.411 268.776 147.65 268.788 147.852C268.814 148.053 268.832 148.166 268.845 148.191C268.983 148.405 269.172 148.518 269.411 148.53C269.662 148.53 269.933 148.474 270.222 148.361C270.524 148.235 270.825 148.078 271.127 147.889C271.441 147.688 271.718 147.493 271.957 147.305C272.083 147.204 272.278 147.059 272.542 146.871C272.818 146.67 273.089 146.462 273.353 146.248C273.617 146.035 273.793 145.865 273.881 145.739C274.157 145.488 274.365 145.287 274.503 145.136C274.641 144.972 274.736 144.846 274.786 144.758C274.836 144.658 274.874 144.57 274.899 144.494C274.937 144.406 274.993 144.312 275.069 144.212C275.119 143.998 275.144 143.841 275.144 143.74C275.157 143.627 275.163 143.57 275.163 143.57C275.176 143.495 275.151 143.445 275.088 143.419C275.025 143.394 274.931 143.369 274.805 143.344C274.717 143.344 274.579 143.338 274.39 143.325C274.201 143.3 274.006 143.275 273.805 143.25C273.617 143.212 273.453 143.18 273.315 143.155C273.177 143.118 273.107 143.08 273.107 143.042C273.107 143.004 273.114 142.954 273.126 142.891C273.139 142.828 273.183 142.709 273.258 142.533C273.258 142.395 273.434 142.281 273.786 142.193C274.138 142.093 274.61 142.055 275.201 142.08C275.679 142.08 276.012 142.131 276.2 142.231C276.402 142.319 276.502 142.546 276.502 142.91C276.578 143.074 276.615 143.218 276.615 143.344C276.628 143.457 276.584 143.639 276.483 143.891C276.395 144.142 276.232 144.564 275.993 145.155C275.452 146.676 275.025 147.833 274.711 148.625C274.396 149.404 274.151 149.813 273.975 149.851Z" fill="white"/>
<path d="M419 639V-1H684.652C702.362 -1 714 12.5 714 31.5C714 50.5 712.988 639 712.988 639H419Z" fill="#1C1C26"/>
<path d="M197 758L425.5 639H764V758H197Z" fill="url(#paint1_linear_203_4694)"/>
<rect x="428" y="3" width="106" height="631" fill="url(#paint2_linear_203_4694)"/>
<rect x="544" y="3" width="106" height="631" fill="url(#paint3_linear_203_4694)"/>
<rect x="660" y="3" width="101" height="631" fill="url(#paint4_linear_203_4694)"/>
<path d="M539.848 724.277C536.285 723.268 517.913 712.04 517.913 712.04C518.173 709.835 518.173 707.606 517.913 705.401C517.392 703.871 512.871 700.358 512.871 700.358C512.871 700.358 508.786 663.11 508.786 645.243C508.479 630.362 507.114 615.521 504.701 600.834C504.197 598.8 490.414 456.397 490.414 456.397L485.825 420.157L440.442 422.393L395.058 420.157L390.453 456.397C390.453 456.397 376.67 598.8 376.165 600.834C373.761 615.522 372.397 630.362 372.081 645.243C372.081 663.11 367.996 700.358 367.996 700.358C367.996 700.358 363.408 703.938 362.954 705.401C362.685 707.606 362.685 709.835 362.954 712.04C362.954 712.04 344.565 723.268 341.002 724.277C337.438 725.286 338.951 728.362 343.035 730.412C347.12 732.463 356.314 733.471 360.399 733.471C364.483 733.471 370.602 726.328 372.165 725.302C373.728 724.277 373.19 730.345 373.19 730.345C375.109 730.349 377.011 730.002 378.804 729.32C380.838 728.294 384.418 730.345 384.923 724.277C385.427 718.209 385.444 712.04 385.444 712.04C387.362 710.123 388.917 707.873 390.033 705.401C391.058 702.342 393.092 693.635 393.092 693.635L425.247 564.006L440.274 493.124L455.603 564.023L487.758 693.652C487.758 693.652 489.809 702.342 490.818 705.418C491.937 707.892 493.497 710.142 495.423 712.057C495.423 712.057 495.423 718.175 495.927 724.294C496.432 730.412 500.012 728.378 502.046 729.336C503.839 730.019 505.741 730.366 507.66 730.362C507.66 730.362 507.156 724.227 508.685 725.319C510.215 726.412 516.35 733.488 520.451 733.488C524.553 733.488 533.73 732.463 537.815 730.429C541.899 728.395 543.429 725.302 539.848 724.277Z" fill="#1C1C26"/>
<path d="M372.803 305.304C372.803 305.304 344.783 402.794 343.573 405.181C342.363 407.568 349.658 406.391 356.566 407.618C363.474 408.845 373.207 403.551 374.434 401.534C375.661 399.516 385.796 367.916 385.796 367.916L372.803 305.304Z" fill="white" stroke="#263238" stroke-linecap="round" stroke-linejoin="round"/>
<path d="M374.081 336.886L372.904 334.062" stroke="#263238" stroke-linecap="round" stroke-linejoin="round"/>
<path d="M383.258 359.108L375.426 340.131" stroke="#263238" stroke-linecap="round" stroke-linejoin="round"/>
<path d="M373.425 388.708L375.643 390.389L373.425 388.708Z" fill="white"/>
<path d="M373.425 388.708L375.643 390.389" stroke="#263238" stroke-linecap="round" stroke-linejoin="round"/>
<path d="M352.699 384.304C355.727 383.165 358.834 382.25 361.995 381.564C362.936 381.564 367.289 384.456 370.836 386.91" fill="white"/>
<path d="M352.699 384.304C355.727 383.165 358.834 382.25 361.995 381.564C362.936 381.564 367.289 384.456 370.836 386.91" stroke="#263238" stroke-linecap="round" stroke-linejoin="round"/>
<path d="M502.735 299.622C502.735 299.622 534.806 385.346 535.613 388.54C536.42 391.734 537.294 393.818 536.84 397.466C536.386 401.113 530.738 403.55 529.528 403.55C528.318 403.55 519.443 397.869 515.728 396.255C512.014 394.642 501.105 389.347 501.105 389.347L495.423 371.025L502.735 299.622Z" fill="white" stroke="#263238" stroke-linecap="round" stroke-linejoin="round"/>
<path d="M504.517 327.423L505.055 325.322" stroke="#263238" stroke-linecap="round" stroke-linejoin="round"/>
<path d="M496.869 357.545L503.659 330.819" stroke="#263238" stroke-linecap="round" stroke-linejoin="round"/>
<path d="M516.519 372.841L503.425 381.027" stroke="#263238" stroke-linecap="round" stroke-linejoin="round"/>
<path d="M418.691 280.947L372.803 305.303L392.705 410.862C392.705 410.862 391.024 420.611 392.301 422.628C393.136 423.931 394.243 425.037 395.545 425.872H485.27C485.27 425.872 491.355 420.191 491.355 418.963V413.686L502.734 299.605L457.351 281.485L418.691 280.947Z" fill="white" stroke="#263238" stroke-linecap="round" stroke-linejoin="round"/>
<path d="M428.962 285.755L434.996 302.748L426.844 406.139L439.585 426.326L450.561 404.374L439.232 302.748L446.325 287.52L436.055 276.19L428.962 285.755Z" fill="#E6007A" stroke="#263238" stroke-linecap="round" stroke-linejoin="round"/>
<path d="M417.984 271.955L416.925 283.284L426.49 298.849L433.566 281.855L417.984 271.955Z" fill="white" stroke="#263238" stroke-linecap="round" stroke-linejoin="round"/>
<path d="M439.938 282.208L445.602 300.278L457.301 281.502L451.99 270.526L439.938 282.208Z" fill="white" stroke="#263238" stroke-linecap="round" stroke-linejoin="round"/>
<path d="M406.656 233.715C406.656 233.715 400.991 228.757 400.285 236.892C399.579 245.027 408.791 249.28 408.791 249.28L406.656 233.715Z" fill="white" stroke="#263238" stroke-linecap="round" stroke-linejoin="round"/>
<path d="M458.763 228.757C458.763 228.757 462.293 223.445 464.781 227.681C467.269 231.917 465.134 238.304 463.369 242.204C461.604 246.103 459.116 246.456 459.116 246.456L458.763 228.757Z" fill="white" stroke="#263238" stroke-linecap="round" stroke-linejoin="round"/>
<path d="M405.245 221.311C405.245 221.311 408.791 248.204 410.203 256.727C411.471 263.259 414.978 269.144 420.121 273.367C423.297 276.191 429.315 281.503 434.979 281.503C440.644 281.503 446.325 278.326 447.737 276.46C449.149 274.594 458.36 260.525 459.066 256.642C459.772 252.76 459.066 240.002 459.066 237.161C459.066 234.321 458.36 220.874 458.36 220.874C458.36 220.874 458.36 210.956 454.814 204.586C451.267 198.215 439.585 197.862 422.877 201.056C406.169 204.25 404.472 207.427 404.472 210.603C404.472 213.78 405.245 221.311 405.245 221.311Z" fill="white" stroke="#263238" stroke-linecap="round" stroke-linejoin="round"/>
<path d="M437.115 240.086C437.115 240.086 443.485 241.145 447.738 238.657L437.115 240.086Z" fill="white"/>
<path d="M437.115 240.086C437.115 240.086 443.485 241.145 447.738 238.657" stroke="#263238" stroke-linecap="round" stroke-linejoin="round"/>
<path d="M413.38 242.203C413.38 242.203 418.675 243.615 422.222 241.497L413.38 242.203Z" fill="white"/>
<path d="M413.38 242.203C413.38 242.203 418.675 243.615 422.222 241.497" stroke="#263238" stroke-linecap="round" stroke-linejoin="round"/>
<path d="M434.273 232.639C436.205 231.426 438.361 230.613 440.613 230.249C442.866 229.885 445.168 229.978 447.384 230.521" fill="white"/>
<path d="M434.273 232.639C436.205 231.426 438.361 230.613 440.613 230.249C442.866 229.885 445.168 229.978 447.384 230.521" stroke="#263238" stroke-width="2" stroke-linecap="round" stroke-linejoin="round"/>
<path d="M422.945 234.775C422.945 234.775 416.574 232.287 411.969 234.069L422.945 234.775Z" fill="white"/>
<path d="M422.945 234.775C422.945 234.775 416.574 232.287 411.969 234.069" stroke="#263238" stroke-width="2" stroke-linecap="round" stroke-linejoin="round"/>
<path d="M449.855 208.922C449.855 208.922 443.484 220.957 432.508 226.975C421.532 232.992 405.244 232.286 398.168 227.681C391.091 223.075 387.898 216.352 390.016 215.999C392.133 215.646 396.739 215.293 396.739 215.293C396.739 215.293 395.327 208.569 397.109 205.376C398.891 202.182 401.345 202.905 401.345 202.905C401.345 202.905 410.556 189.088 424.373 187.323C433.593 186.254 442.927 187.852 451.266 191.929C454.813 193.341 457.301 198.652 457.301 198.652C459.521 200.724 461.008 203.461 461.537 206.451C461.89 210.687 458.713 224.151 458.713 224.151C458.713 224.151 459.066 251.415 459.066 256.726C459.066 262.038 449.854 276.544 442.778 280.09C440.509 281.372 437.946 282.045 435.34 282.045C432.734 282.045 430.172 281.372 427.902 280.09C425.078 278.678 413.749 267.349 410.909 263.097C408.068 258.844 408.085 242.203 408.085 242.203C408.085 242.203 412.321 257.785 413.396 259.55C414.472 261.315 415.514 257.079 417.279 255.667C419.044 254.255 425.431 254.944 428.255 255.297C431.079 255.65 433.214 256.02 434.626 255.297C436.038 254.575 443.131 250.709 446.392 250.709C449.169 250.938 451.905 251.531 454.527 252.474C454.527 252.474 454.527 239.733 455.233 233.715C455.939 227.698 455.586 221.949 454.527 220.604C452.952 218.993 451.743 217.061 450.981 214.94C450.317 212.999 449.937 210.972 449.855 208.922Z" fill="#E6007A" stroke="#263238" stroke-linecap="round" stroke-linejoin="round"/>
<path d="M425.785 239.38C425.785 239.38 427.197 253.18 428.256 255.298C428.549 255.906 429 256.425 429.562 256.801C430.123 257.176 430.775 257.394 431.45 257.432L436.055 252.827" fill="white"/>
<path d="M425.785 239.38C425.785 239.38 427.197 253.18 428.256 255.298C428.549 255.906 429 256.425 429.562 256.801C430.123 257.176 430.775 257.394 431.45 257.432L436.055 252.827" stroke="#263238" stroke-linecap="round" stroke-linejoin="round"/>
<path d="M428.961 264.156C432.507 265.173 436.309 264.794 439.584 263.097" stroke="white" stroke-linecap="round" stroke-linejoin="round"/>
<path d="M469.033 401.936L467.403 389.347L478.362 391.381L469.033 401.936Z" fill="white" stroke="#263238" stroke-linecap="round" stroke-linejoin="round"/>
<path d="M438.98 363.764C435.572 363.34 432.201 362.66 428.895 361.73C425.247 360.519 422.81 362.15 425.651 365.797C428.492 369.445 438.594 371.025 439.804 371.025C439.804 371.025 441.821 381.581 447.519 383.615C450.371 384.751 453.382 385.437 456.444 385.648C456.444 385.648 459.285 389.699 462.933 390.103C466.58 390.506 475.119 396.608 475.119 396.608L479.187 387.262L470.244 379.95L461.319 364.52L452.797 361.679L445.485 359.259L438.98 363.764Z" fill="white" stroke="#263238" stroke-linecap="round" stroke-linejoin="round"/>
<path d="M461.722 374.723L458.074 378.387C458.324 379.451 458.459 380.539 458.478 381.631C458.478 383.312 455.637 383.312 453.603 383.312C451.451 383.384 449.328 382.797 447.518 381.631C445.837 380.421 439.4 374.723 439.4 374.723L446.291 362.553L440.274 366.604C438.803 369.362 437.033 371.949 434.996 374.32C432.559 376.757 431.752 373.916 431.752 373.916C431.752 373.916 434.172 366.201 435.803 364.167C438.114 361.74 440.554 359.439 443.114 357.276C444.73 357.027 446.374 357.027 447.989 357.276C450.83 357.679 456.511 360.923 458.948 362.553C461.193 364.172 462.893 366.435 463.823 369.042C464.061 369.971 464.196 370.924 464.226 371.882" fill="white"/>
<path d="M461.722 374.723L458.074 378.387C458.324 379.451 458.459 380.539 458.478 381.631C458.478 383.312 455.637 383.312 453.603 383.312C451.451 383.384 449.328 382.797 447.518 381.631C445.837 380.421 439.4 374.723 439.4 374.723L446.291 362.553L440.274 366.604C438.803 369.362 437.033 371.949 434.996 374.32C432.559 376.757 431.752 373.916 431.752 373.916C431.752 373.916 434.172 366.201 435.803 364.167C438.114 361.74 440.554 359.439 443.114 357.276C444.73 357.027 446.374 357.027 447.989 357.276C450.83 357.679 456.511 360.923 458.948 362.553C461.193 364.172 462.893 366.435 463.823 369.042C464.061 369.971 464.196 370.924 464.226 371.882" stroke="#263238" stroke-linecap="round" stroke-linejoin="round"/>
<path d="M451.165 382.791C450.505 381.259 450.363 379.553 450.762 377.934C452.619 374.58 454.65 371.326 456.847 368.185" stroke="#263238" stroke-linecap="round" stroke-linejoin="round"/>
<path d="M447.519 381.631C447.519 381.631 446.863 380.892 446.14 379.867C445.418 378.841 446.006 377.009 446.006 375.664C446.006 373.227 451.973 363.36 451.973 363.36" stroke="#263238" stroke-linecap="round" stroke-linejoin="round"/>
<path d="M527.494 379.598C527.494 379.598 537.579 395.028 537.243 399.096C536.907 403.164 534.402 412.089 530.738 412.089C520.255 411.258 509.82 409.901 499.474 408.021C488.111 405.988 480.396 405.181 480.396 405.181L469.033 401.937L476.748 383.262L484.127 384.792C487.653 383.933 491.238 383.338 494.851 383.01C500.129 382.607 517.745 378.388 517.745 378.388" fill="white"/>
<path d="M527.494 379.598C527.494 379.598 537.579 395.028 537.243 399.096C536.907 403.164 534.402 412.089 530.738 412.089C520.255 411.258 509.82 409.901 499.474 408.021C488.111 405.988 480.396 405.181 480.396 405.181L469.033 401.937L476.748 383.262L484.127 384.792C487.653 383.933 491.238 383.338 494.851 383.01C500.129 382.607 517.745 378.388 517.745 378.388" stroke="#263238" stroke-linecap="round" stroke-linejoin="round"/>
<path d="M484.194 386.641C484.389 391.196 483.256 395.71 480.933 399.634" stroke="#263238" stroke-linecap="round" stroke-linejoin="round"/>
<path d="M348.851 392.187C348.851 392.187 341.943 408.828 341.54 410.055C341.136 411.282 342.767 418.98 349.255 417.367C355.743 415.753 390.268 412.089 394.638 411.265L406.018 409.248H415.061C419.129 409.248 430.491 409.248 432.929 408.424L442.678 405.18C445.115 404.374 450.393 401.113 450.796 399.902C451.2 398.692 449.569 397.465 445.518 397.869C441.467 398.272 428.861 398.675 428.861 398.675C428.861 398.675 440.24 394.221 443.888 392.591C447.535 390.96 446.325 389.347 446.325 389.347C443.976 389.362 441.647 389.771 439.434 390.557C436.576 391.784 408.573 395.431 408.573 395.431L405.312 392.591C406.254 390.257 406.822 387.79 406.993 385.279C406.993 382.035 405.312 379.597 403.345 380.421C401.379 381.245 400.505 386.102 400.084 387.716C399.664 389.33 397.664 395.835 397.664 395.835L396.84 399.499C396.84 399.499 380.2 396.255 375.325 394.221C370.451 392.187 360.298 389.347 358.685 389.75C357.071 390.153 353.81 394.624 353.003 396.658" fill="white"/>
<path d="M348.851 392.187C348.851 392.187 341.943 408.828 341.54 410.055C341.136 411.282 342.767 418.98 349.255 417.367C355.743 415.753 390.268 412.089 394.638 411.265L406.018 409.248H415.061C419.129 409.248 430.491 409.248 432.929 408.424L442.678 405.18C445.115 404.374 450.393 401.113 450.796 399.902C451.2 398.692 449.569 397.465 445.518 397.869C441.467 398.272 428.861 398.675 428.861 398.675C428.861 398.675 440.24 394.221 443.888 392.591C447.535 390.96 446.325 389.347 446.325 389.347C443.976 389.362 441.647 389.771 439.434 390.557C436.576 391.784 408.573 395.431 408.573 395.431L405.312 392.591C406.254 390.257 406.822 387.79 406.993 385.279C406.993 382.035 405.312 379.597 403.345 380.421C401.379 381.245 400.505 386.102 400.084 387.716C399.664 389.33 397.664 395.835 397.664 395.835L396.84 399.499C396.84 399.499 380.2 396.255 375.325 394.221C370.451 392.187 360.298 389.347 358.685 389.75C357.071 390.153 353.81 394.624 353.003 396.658" stroke="#263238" stroke-linecap="round" stroke-linejoin="round"/>
<path d="M385.125 398.003C385.125 398.003 382.419 403.97 385.663 407.752" stroke="#263238" stroke-linecap="round" stroke-linejoin="round"/>
<path d="M390.923 376.623L403.294 401.735C403.519 402.187 403.864 402.569 404.29 402.839C404.717 403.108 405.21 403.256 405.715 403.264L450.779 403.718C451.223 403.723 451.662 403.619 452.056 403.416C452.451 403.212 452.79 402.915 453.044 402.55C453.297 402.186 453.458 401.764 453.511 401.323C453.565 400.882 453.51 400.435 453.351 400.02L443.518 374.387C443.312 373.885 442.96 373.456 442.507 373.156C442.055 372.856 441.522 372.7 440.979 372.706H393.36C392.899 372.708 392.446 372.827 392.044 373.051C391.641 373.276 391.302 373.599 391.059 373.991C390.815 374.382 390.675 374.829 390.651 375.289C390.628 375.749 390.721 376.208 390.923 376.623Z" fill="#1C1C26" stroke="#263238" stroke-linecap="round" stroke-linejoin="round"/>
<path d="M445.484 397.919C441.416 398.323 428.827 398.726 428.827 398.726C428.827 398.726 440.206 394.272 443.854 392.641C447.501 391.011 446.291 389.397 446.291 389.397C443.942 389.413 441.613 389.822 439.399 390.608C436.542 391.835 408.539 395.482 408.539 395.482L405.278 392.641C406.22 390.308 406.787 387.84 406.959 385.33C406.959 382.086 405.278 379.648 403.311 380.472C401.344 381.296 400.47 386.153 400.05 387.767C399.63 389.381 397.63 395.885 397.63 395.885L396.806 399.55L392.52 398.676C391.721 401.496 391.803 404.493 392.755 407.265C393.212 408.669 393.739 410.049 394.335 411.4L394.772 411.316L406.152 409.299H415.06C419.128 409.299 430.491 409.299 432.928 408.475L442.677 405.231C445.114 404.424 450.392 401.163 450.796 399.953C451.199 398.743 449.535 397.466 445.484 397.919Z" fill="white" stroke="#263238" stroke-linecap="round" stroke-linejoin="round"/>
<path d="M449.217 400.541C449.217 400.541 440.812 404.541 439.585 404.541C438.358 404.541 423.953 406.222 423.953 406.222" stroke="#263238" stroke-linecap="round" stroke-linejoin="round"/>
</g>
<defs>
<linearGradient id="paint0_linear_203_4694" x1="206.082" y1="858.224" x2="976.307" y2="452.228" gradientUnits="userSpaceOnUse">
<stop stop-color="#1C1C26"/>
<stop offset="1" stop-color="#2F313B"/>
</linearGradient>
<linearGradient id="paint1_linear_203_4694" x1="576" y1="758" x2="576" y2="430.5" gradientUnits="userSpaceOnUse">
<stop stop-color="white" stop-opacity="0"/>
<stop offset="1" stop-color="white" stop-opacity="0.35"/>
</linearGradient>
<linearGradient id="paint2_linear_203_4694" x1="481" y1="3" x2="481" y2="634" gradientUnits="userSpaceOnUse">
<stop stop-color="#254269"/>
<stop offset="1" stop-color="#111822"/>
</linearGradient>
<linearGradient id="paint3_linear_203_4694" x1="597" y1="3" x2="597" y2="634" gradientUnits="userSpaceOnUse">
<stop stop-color="#254269"/>
<stop offset="1" stop-color="#111822"/>
</linearGradient>
<linearGradient id="paint4_linear_203_4694" x1="710.5" y1="3" x2="710.5" y2="634" gradientUnits="userSpaceOnUse">
<stop stop-color="#254269"/>
<stop offset="1" stop-color="#111822"/>
</linearGradient>
</defs>
</svg>
