<svg width="805" height="549" viewBox="0 0 805 549" fill="none" xmlns="http://www.w3.org/2000/svg">
<g clip-path="url(#clip0_25_2016)">
<path d="M793.29 299.886C750.418 197.734 590.901 121.554 401.069 121.207C211.236 120.861 52.5217 196.477 10.7342 298.477H-0.108398V317.533C1.93002 445.114 182.048 548.61 403.432 549.022C625.62 549.412 805.195 445.786 804.61 317.533V299.929L793.29 299.886Z" fill="url(#paint0_linear_25_2016)"/>
<path d="M804.984 304.044C805.678 175.803 626.116 70.8686 403.92 69.6667C181.725 68.4649 1.03718 171.45 0.343125 299.691C-0.350931 427.932 179.212 532.866 401.407 534.068C623.603 535.27 804.29 432.285 804.984 304.044Z" fill="url(#paint1_linear_25_2016)"/>
<path style="mix-blend-mode:color-dodge" d="M688.03 464.408C531.419 554.81 276.682 554.333 119.074 463.368C40.6167 418.08 1.01945 358.897 0.477318 299.756C0.173725 359.634 39.771 419.706 119.182 465.536C276.791 556.588 531.528 556.978 688.138 466.576C766.813 421.159 805.759 361.476 805.065 301.816C804.697 360.739 765.75 419.598 688.03 464.408Z" fill="url(#paint2_radial_25_2016)"/>
<path d="M767.658 284.386C727.974 189.865 580.363 119.365 404.69 119.04C229.018 118.715 82.1657 188.694 43.5226 283.02H33.5474V300.645C35.499 418.752 202.15 514.552 407.033 514.986C612.652 515.354 778.805 419.446 778.154 300.753V284.472L767.658 284.386Z" fill="url(#paint3_linear_25_2016)"/>
<path d="M778.461 288.231C779.104 169.557 612.936 72.4502 407.316 71.338C201.695 70.2258 34.4864 165.529 33.8441 284.204C33.2018 402.878 199.369 499.985 404.99 501.097C610.61 502.209 777.819 406.906 778.461 288.231Z" fill="url(#paint4_linear_25_2016)"/>
<path style="mix-blend-mode:color-dodge" d="M670.248 436.464C525.326 520.124 289.585 519.69 143.73 435.51C71.1714 393.626 34.545 338.887 33.8944 284.169C33.5909 339.624 70.2172 395.231 143.73 437.678C289.585 521.858 525.391 522.226 670.248 438.632C743.067 396.596 779.108 341.337 778.458 286.077C778.154 340.621 742.113 394.992 670.248 436.464Z" fill="url(#paint5_radial_25_2016)"/>
<path d="M691.066 243.998C659.405 168.555 541.611 112.298 401.438 112.059C261.264 111.821 144.077 167.622 113.241 242.957H105.304V284.147C106.822 378.364 239.752 454.783 403.303 455.086C567.373 455.39 699.979 378.841 699.458 284.147V243.998H691.066Z" fill="url(#paint6_linear_25_2016)"/>
<path d="M704.13 250.798C705.077 156.103 572.834 78.0085 408.757 76.3682C244.68 74.7278 110.901 150.163 109.954 244.858C109.007 339.552 241.25 417.647 405.327 419.287C569.404 420.927 703.183 345.492 704.13 250.798Z" fill="url(#paint7_linear_25_2016)"/>
<path style="mix-blend-mode:color-dodge" d="M613.346 364.902C497.699 431.651 309.579 431.326 193.194 364.143C135.36 330.757 106.15 287.161 105.543 243.542C105.174 287.876 134.406 332.427 193.194 366.311C309.579 433.516 497.699 433.819 613.346 367.07C671.528 333.489 700.282 289.329 699.675 245.19C699.328 288.613 670.552 331.885 613.346 364.902Z" fill="url(#paint8_radial_25_2016)"/>
<path d="M679.906 246.957C680.385 158.573 556.628 86.253 403.487 85.4247C250.347 84.5964 125.814 155.574 125.336 243.957C124.857 332.341 248.615 404.661 401.755 405.489C554.895 406.318 679.428 335.34 679.906 246.957Z" fill="url(#paint9_linear_25_2016)"/>
<path style="mix-blend-mode:screen" opacity="0.5" d="M640.821 242.242H164.288V326.378C177.209 338.715 191.609 349.405 207.159 358.203C315.781 420.899 491.345 421.202 599.294 358.897C614.327 350.39 628.272 340.089 640.821 328.221V242.242Z" fill="url(#paint10_radial_25_2016)"/>
<path style="mix-blend-mode:screen" opacity="0.5" d="M640.821 242.242H164.288V326.378C177.209 338.715 191.609 349.405 207.159 358.203C315.781 420.899 491.345 421.202 599.294 358.897C614.327 350.39 628.272 340.089 640.821 328.221V242.242Z" fill="url(#paint11_radial_25_2016)"/>
<path style="mix-blend-mode:multiply" d="M640.288 249.99C640.698 174.226 534.623 112.232 403.363 111.522C272.103 110.812 165.364 171.655 164.954 247.419C164.544 323.183 270.618 385.178 401.878 385.888C533.138 386.598 639.878 325.754 640.288 249.99Z" fill="url(#paint12_linear_25_2016)"/>
<path d="M640.288 246.743C640.698 170.979 534.623 108.984 403.363 108.274C272.103 107.564 165.364 168.407 164.954 244.172C164.544 319.936 270.619 381.93 401.878 382.64C533.138 383.35 639.878 322.507 640.288 246.743Z" fill="url(#paint13_linear_25_2016)"/>
<path d="M614.17 224.183C590.945 168.858 504.573 127.603 401.654 127.43C298.736 127.256 212.993 168.186 190.31 223.424H184.477V241.656C185.583 310.747 283.144 366.809 402.999 367.026C523.33 367.243 620.567 311.116 620.198 241.656V224.313L614.17 224.183Z" fill="url(#paint14_linear_25_2016)"/>
<path d="M620.49 228.217C620.866 158.775 523.627 101.953 403.302 101.302C282.976 100.651 185.129 156.418 184.753 225.86C184.377 295.302 281.615 352.124 401.941 352.775C522.266 353.426 620.114 297.659 620.49 228.217Z" fill="url(#paint15_linear_25_2016)"/>
<path style="mix-blend-mode:color-dodge" d="M557.159 314.043C472.348 362.994 334.386 362.755 249.055 313.479C206.725 289.068 185.3 257.114 184.78 225.245C184.346 257.894 205.771 290.673 249.055 315.647C334.386 364.923 472.413 365.162 557.159 316.211C599.922 291.54 621 259.173 620.458 226.654C620.046 258.328 598.99 289.914 557.159 314.043Z" fill="url(#paint16_radial_25_2016)"/>
<path d="M600.67 228.11C601.011 164.977 512.619 113.318 403.24 112.727C293.861 112.135 204.914 162.835 204.573 225.967C204.231 289.1 292.623 340.759 402.003 341.351C511.382 341.942 600.328 291.243 600.67 228.11Z" fill="url(#paint17_linear_25_2016)"/>
<path style="mix-blend-mode:screen" opacity="0.5" d="M561.301 224.898H243.981V294.878C250.026 299.543 256.38 303.795 262.999 307.604C340.589 352.371 465.995 352.61 543.107 308.103C549.428 304.46 555.505 300.412 561.301 295.984V224.898Z" fill="url(#paint18_radial_25_2016)"/>
<path style="mix-blend-mode:screen" opacity="0.5" d="M561.301 224.898H243.981V294.878C250.026 299.543 256.38 303.795 262.999 307.604C340.589 352.371 465.995 352.61 543.107 308.103C549.428 304.46 555.505 300.412 561.301 295.984V224.898Z" fill="url(#paint19_radial_25_2016)"/>
<path d="M561.073 227.896C561.346 177.394 490.626 136.071 403.116 135.598C315.605 135.124 244.443 175.68 244.169 226.181C243.896 276.683 314.616 318.006 402.126 318.479C489.637 318.953 560.8 278.397 561.073 227.896Z" fill="url(#paint20_linear_25_2016)"/>
<path style="mix-blend-mode:multiply" d="M561.073 230.054C561.346 179.552 490.626 138.229 403.116 137.756C315.605 137.282 244.443 177.838 244.169 228.339C243.896 278.841 314.616 320.164 402.126 320.637C489.637 321.111 560.8 280.555 561.073 230.054Z" fill="url(#paint21_linear_25_2016)"/>
<path d="M561.073 227.896C561.346 177.394 490.626 136.071 403.116 135.598C315.605 135.124 244.443 175.68 244.169 226.181C243.896 276.683 314.616 318.006 402.126 318.479C489.637 318.953 560.8 278.397 561.073 227.896Z" fill="url(#paint22_linear_25_2016)"/>
<path d="M537.122 206.016C522.355 170.831 467.426 144.599 402.066 144.491C336.707 144.382 282.039 170.506 267.618 205.539H263.953V223.641C264.669 267.563 326.689 303.203 402.912 303.355C479.136 303.507 541.242 267.801 541.004 223.641V206.038L537.122 206.016Z" fill="url(#paint23_linear_25_2016)"/>
<path d="M541.122 209.871C541.362 165.68 479.488 129.52 402.924 129.106C326.359 128.691 264.098 164.18 263.859 208.372C263.62 252.563 325.493 288.724 402.058 289.138C478.622 289.552 540.883 254.063 541.122 209.871Z" fill="url(#paint24_linear_25_2016)"/>
<path style="mix-blend-mode:color-dodge" d="M500.843 263.726C446.868 294.878 359.086 294.727 304.765 263.379C278.027 247.943 264.408 227.825 263.888 207.664C263.454 228.54 277.073 249.547 304.765 265.547C359.086 296.894 446.868 297.046 500.843 265.893C528.231 250.068 541.633 229.234 541.091 208.444C540.678 228.519 527.277 248.464 500.843 263.726Z" fill="url(#paint25_radial_25_2016)"/>
<path d="M521.324 209.764C521.529 171.882 468.492 140.885 402.862 140.53C337.232 140.175 283.862 170.597 283.657 208.479C283.452 246.361 336.49 277.358 402.12 277.713C467.749 278.068 521.119 247.646 521.324 209.764Z" fill="url(#paint26_linear_25_2016)"/>
<path d="M521.324 209.764C521.529 171.882 468.492 140.885 402.862 140.53C337.232 140.175 283.862 170.597 283.657 208.479C283.452 246.361 336.49 277.358 402.12 277.713C467.749 278.068 521.119 247.646 521.324 209.764Z" fill="url(#paint27_linear_25_2016)"/>
<path style="mix-blend-mode:screen" opacity="0.5" d="M323.132 259.888C368.216 283.454 436.763 283.735 481.803 260.495V207.924H323.132V259.888Z" fill="url(#paint28_radial_25_2016)"/>
<path style="mix-blend-mode:screen" opacity="0.5" d="M323.132 259.888C368.216 283.454 436.763 283.735 481.803 260.495V207.924H323.132V259.888Z" fill="url(#paint29_radial_25_2016)"/>
<path style="mix-blend-mode:multiply" d="M481.706 211.73C481.843 186.479 446.488 165.817 402.738 165.581C358.989 165.344 323.412 185.622 323.276 210.873C323.139 236.123 358.494 256.785 402.243 257.022C445.993 257.258 481.569 236.98 481.706 211.73Z" fill="url(#paint30_linear_25_2016)"/>
<path d="M481.706 209.55C481.843 184.299 446.488 163.638 402.738 163.401C358.989 163.165 323.412 183.442 323.276 208.693C323.139 233.944 358.494 254.605 402.243 254.842C445.993 255.079 481.569 234.801 481.706 209.55Z" fill="url(#paint31_linear_25_2016)"/>
<path d="M460.205 193.247C453.873 178.072 430.323 166.907 402.284 166.842C374.245 166.777 350.803 177.963 344.644 193.03H343.104V207.75C343.408 226.589 370.016 241.873 402.696 241.938C435.375 242.003 462.026 226.763 461.94 207.75V193.247H460.205Z" fill="url(#paint32_linear_25_2016)"/>
<path d="M461.908 194.817C462.01 175.876 435.492 160.378 402.677 160.2C369.862 160.023 343.177 175.233 343.074 194.174C342.972 213.115 369.49 228.614 402.305 228.792C435.12 228.969 461.805 213.758 461.908 194.817Z" fill="url(#paint33_linear_25_2016)"/>
<path style="mix-blend-mode:color-dodge" d="M444.634 216.66C421.518 230.015 383.916 229.949 360.604 216.508C349.393 210.005 343.559 201.637 343.126 193.16C342.605 202.352 348.439 211.652 360.604 218.676C383.894 232.117 421.518 232.182 444.634 218.828C456.626 211.913 462.351 202.764 461.874 193.659C461.397 202.027 455.672 210.287 444.634 216.66Z" fill="url(#paint34_radial_25_2016)"/>
<path d="M437.187 194.684C437.247 183.621 421.761 174.568 402.599 174.465C383.437 174.361 367.855 183.245 367.795 194.308C367.735 205.371 383.22 214.423 402.382 214.527C421.544 214.631 437.127 205.746 437.187 194.684Z" fill="url(#paint35_linear_25_2016)"/>
<g style="mix-blend-mode:multiply">
<path d="M377.801 182.191C391.31 174.386 413.278 174.429 426.874 182.191C433.271 185.898 436.633 190.667 437.023 195.48C437.478 190.038 434.117 184.467 426.874 180.304C413.278 172.457 391.31 172.413 377.801 180.304C370.644 184.423 367.348 189.908 367.782 195.328C368.259 190.537 371.577 185.833 377.801 182.191Z" fill="#E5E9FF"/>
</g>
<path style="mix-blend-mode:multiply" opacity="0.3" d="M400.874 174.625V214.579C401.958 214.579 403.043 214.579 404.127 214.579V174.625H400.874Z" fill="url(#paint36_linear_25_2016)"/>
<path d="M169.275 338.562C169.061 338.538 168.854 338.471 168.666 338.366C168.477 338.261 168.312 338.12 168.179 337.95C168.045 337.781 167.947 337.587 167.89 337.379C167.832 337.171 167.817 336.954 167.844 336.741L190.527 138.486C190.551 138.272 190.617 138.064 190.722 137.876C190.827 137.688 190.969 137.523 191.138 137.389C191.308 137.256 191.502 137.158 191.71 137.101C191.918 137.043 192.135 137.028 192.348 137.055C192.56 137.079 192.764 137.145 192.95 137.249C193.136 137.353 193.299 137.492 193.43 137.66C193.561 137.827 193.658 138.019 193.714 138.224C193.77 138.429 193.785 138.643 193.758 138.854L171.075 337.218C171.001 337.628 170.774 337.994 170.44 338.244C170.106 338.493 169.69 338.607 169.275 338.562Z" fill="url(#paint37_linear_25_2016)"/>
<path d="M137.68 242.805C138.79 242.268 140.003 241.98 141.236 241.96C143.166 241.96 147.742 241.613 148.739 241.743C149.737 241.873 153.857 243.369 154.442 244.756C155.028 246.144 153.575 245.645 153.575 245.645C153.575 245.645 154.399 246.209 153.965 246.686C153.532 247.163 152.989 246.512 152.989 246.512C152.989 246.512 153.575 247.141 152.989 247.336C152.404 247.531 151.58 246.621 150.561 245.862C149.969 245.411 149.245 245.167 148.501 245.168C148.501 245.168 148.392 245.472 148.913 245.797C149.433 246.122 151.276 246.296 151.385 247.206C151.493 248.117 149.585 247.705 147.937 247.445C146.157 247.422 144.39 247.145 142.689 246.621C142.249 246.315 141.748 246.107 141.221 246.01C140.694 245.912 140.152 245.929 139.631 246.057C139.003 246.317 137.68 242.805 137.68 242.805Z" fill="#FFD4C0"/>
<path d="M153.966 246.686C154.399 246.209 153.575 245.645 153.575 245.645C153.575 245.645 154.161 245.84 154.421 245.645C153.855 245.483 153.303 245.273 152.773 245.016C151.754 244.388 151.298 243.737 150.409 243.629C149.52 243.521 146.072 244.193 146.072 244.865C146.072 245.537 148.002 245.71 149.13 245.884H149.021C148.501 245.558 148.609 245.255 148.609 245.255C149.354 245.253 150.078 245.497 150.67 245.949C151.689 246.707 152.6 247.64 153.098 247.423C153.597 247.206 153.098 246.599 153.098 246.599C153.098 246.599 153.684 246.989 153.966 246.686Z" fill="url(#paint38_radial_25_2016)"/>
<path d="M113.652 256.745C112.792 256.867 111.915 256.76 111.108 256.437C110.302 256.113 109.594 255.584 109.056 254.901C108.518 254.219 108.169 253.407 108.044 252.548C107.918 251.688 108.02 250.811 108.34 250.003C110.009 243.694 131.976 242.003 139.696 241.136C140.889 241.006 141.865 246.166 140.607 247.206C139.718 247.922 124.712 252.778 124.712 252.778L113.652 256.745Z" fill="url(#paint39_linear_25_2016)"/>
<g style="mix-blend-mode:multiply">
<path d="M113.652 256.745L124.712 252.778C124.712 252.778 139.718 247.922 140.607 247.206C141.496 246.491 141.323 245.038 141.062 243.716L108.643 254.165C109.09 255.076 109.819 255.818 110.721 256.283C111.623 256.747 112.651 256.909 113.652 256.745Z" fill="#CED3F4"/>
</g>
<g opacity="0.2">
<path opacity="0.047619" d="M154.594 348.881C155.531 349.068 156.405 349.487 157.137 350.101C157.869 350.715 158.433 351.503 158.78 352.393C158.906 352.699 158.994 353.019 159.04 353.347C159.161 354.693 158.952 356.048 158.43 357.295C157.909 358.541 157.091 359.642 156.047 360.501L132.757 370.95L111.072 380.576C109.381 382.267 98.5162 387.079 96.0441 387.751C88.4998 388.717 80.8584 386.964 74.489 382.809C73.3844 382.578 72.3696 382.034 71.5659 381.242C70.7622 380.45 70.2036 379.444 69.9568 378.343C69.7257 377.128 69.846 375.872 70.3037 374.722C70.8505 373.36 71.6865 372.132 72.7541 371.124C72.8625 370.994 111.961 356.165 112.113 356.187L128.442 349.987C128.789 349.64 129.179 349.315 129.569 348.989C131.198 347.72 133.052 346.771 135.034 346.193C136.993 345.578 139.077 345.481 141.084 345.911L154.594 348.881Z" fill="#ABB2E2"/>
<path opacity="0.095238" d="M152.794 349.683C153.709 349.875 154.555 350.311 155.242 350.945C155.929 351.578 156.432 352.386 156.698 353.282C156.788 353.578 156.846 353.883 156.871 354.192C156.912 355.52 156.639 356.838 156.073 358.04C155.508 359.241 154.667 360.293 153.618 361.108L131.196 371.21L110.4 380.402C108.773 382.007 98.2343 386.624 95.8706 387.296C88.6268 388.18 81.2981 386.567 75.0961 382.722C74.0329 382.492 73.0584 381.961 72.2892 381.192C71.52 380.423 70.9888 379.449 70.7591 378.386C70.5674 377.195 70.7023 375.973 71.1494 374.852C71.7245 373.53 72.5576 372.337 73.5998 371.34C73.8601 371.102 111.484 356.946 111.766 357.011L127.618 351.027C127.959 350.694 128.321 350.382 128.702 350.095C130.276 348.856 132.072 347.929 133.993 347.363C135.876 346.748 137.887 346.635 139.827 347.038L152.794 349.683Z" fill="#A7ADDF"/>
<path opacity="0.142857" d="M150.995 350.507C151.896 350.675 152.727 351.107 153.383 351.748C154.039 352.388 154.491 353.209 154.681 354.106C154.768 354.386 154.812 354.679 154.811 354.973C154.749 356.28 154.4 357.558 153.789 358.715C153.178 359.873 152.321 360.882 151.276 361.671L129.721 371.47L109.684 380.294C108.144 381.833 97.9307 386.277 95.6971 386.906C88.7443 387.74 81.7103 386.262 75.6816 382.7C74.6029 382.506 73.6094 381.986 72.8343 381.211C72.0591 380.436 71.5393 379.443 71.3446 378.364C71.1766 377.188 71.3342 375.989 71.8 374.896C72.398 373.619 73.229 372.464 74.2504 371.492C74.6191 371.124 110.79 357.683 111.115 357.769L126.469 352.024C126.802 351.698 127.157 351.394 127.531 351.114C129.062 349.929 130.796 349.032 132.649 348.469C134.456 347.856 136.391 347.721 138.265 348.079L150.995 350.507Z" fill="#A3A9DC"/>
<path opacity="0.190476" d="M149.194 351.309C150.08 351.48 150.89 351.923 151.511 352.576C152.133 353.228 152.536 354.059 152.664 354.951C152.709 355.224 152.709 355.502 152.664 355.775C152.516 357.065 152.1 358.31 151.443 359.43C150.786 360.55 149.902 361.52 148.847 362.279L128.181 371.774L108.903 380.207C104.649 382.783 100.135 384.905 95.4367 386.537C88.8427 387.289 82.1787 385.962 76.3753 382.744C75.314 382.544 74.3409 382.02 73.591 381.243C72.8411 380.466 72.3515 379.475 72.1901 378.408C72.069 377.247 72.2482 376.075 72.7105 375.004C73.3395 373.759 74.1755 372.631 75.1827 371.666C75.6814 371.21 110.378 358.441 110.942 358.55L125.796 353.043C126.121 352.745 126.462 352.462 126.815 352.198C128.294 351.041 129.969 350.16 131.76 349.596C133.505 349.013 135.365 348.865 137.181 349.163L149.194 351.309Z" fill="#9FA4D8"/>
<path opacity="0.238095" d="M147.373 352.111C149.65 352.675 150.734 353.889 150.669 355.775C150.757 356.028 150.757 356.303 150.669 356.555C150.669 358.485 149.238 360.674 146.571 362.799L126.772 371.904L108.253 380.012C104.14 382.485 99.7791 384.519 95.2416 386.082C88.8822 386.783 82.4579 385.576 76.7874 382.613C75.7388 382.414 74.7808 381.887 74.0518 381.107C73.3228 380.328 72.8607 379.337 72.7323 378.278C72.6327 377.14 72.8346 375.996 73.3177 374.961C73.957 373.748 74.7923 372.649 75.7899 371.709C76.3971 371.124 109.641 359.07 110.334 359.2L124.69 353.91C125.016 353.626 125.356 353.358 125.709 353.108C127.132 351.997 128.74 351.146 130.458 350.594C132.128 350.014 133.913 349.843 135.663 350.095L147.373 352.111Z" fill="#9BA0D5"/>
<path opacity="0.285714" d="M145.573 352.913C147.894 353.477 148.869 354.691 148.653 356.62C148.705 356.736 148.733 356.862 148.733 356.989C148.733 357.116 148.705 357.242 148.653 357.358C148.653 359.157 147.048 361.26 144.316 363.341L125.384 372.251L107.624 380.012C103.696 382.356 99.5398 384.295 95.2202 385.8C89.1303 386.474 82.9739 385.414 77.46 382.744C76.4403 382.566 75.506 382.062 74.7979 381.308C74.0899 380.553 73.6466 379.588 73.5349 378.56C73.4662 377.44 73.6825 376.321 74.1638 375.308C74.8347 374.142 75.6752 373.083 76.6576 372.164C77.3949 371.471 109.185 360.089 109.988 360.263L123.866 355.211C124.173 354.929 124.499 354.668 124.842 354.431C126.217 353.365 127.765 352.544 129.418 352.003C131.013 351.428 132.722 351.234 134.405 351.439L145.573 352.913Z" fill="#979BD2"/>
<path opacity="0.333333" d="M143.773 353.715C146.137 354.279 147.026 355.493 146.636 357.466C146.696 357.571 146.729 357.691 146.729 357.813C146.729 357.934 146.696 358.054 146.636 358.16C146.484 359.85 144.814 361.845 141.973 363.904L123.931 372.576L106.735 379.904C102.974 382.135 99.0003 383.986 94.8729 385.432C89.0976 386.019 83.2697 385.069 77.9801 382.678C76.9764 382.514 76.0564 382.019 75.3653 381.273C74.6741 380.527 74.2513 379.572 74.1635 378.559C74.1287 377.456 74.367 376.362 74.8574 375.373C75.538 374.24 76.3779 373.21 77.3512 372.316C78.197 371.492 108.513 360.826 109.467 361.021L122.847 356.187C123.152 355.931 123.47 355.692 123.801 355.471C125.101 354.436 126.568 353.63 128.138 353.087C129.671 352.534 131.309 352.334 132.93 352.501L143.773 353.715Z" fill="#9397CF"/>
<path opacity="0.380952" d="M141.973 354.561C144.359 355.124 145.161 356.317 144.641 358.311C144.641 358.506 144.641 358.723 144.446 358.962C144.207 360.566 142.429 362.452 139.523 364.49L122.348 372.793L106.128 379.839C102.514 381.942 98.7094 383.698 94.7647 385.085C89.2781 385.607 83.7469 384.781 78.6525 382.678C77.6612 382.535 76.7502 382.052 76.0743 381.313C75.3983 380.575 74.9991 379.624 74.9443 378.625C74.9583 377.547 75.2179 376.487 75.7033 375.524C76.415 374.434 77.26 373.436 78.2188 372.554C88.3324 368.447 98.6543 364.872 109.142 361.845L122.001 357.271C122.24 357.032 122.695 356.772 122.934 356.577C124.212 355.591 125.64 354.815 127.162 354.279C128.625 353.742 130.184 353.52 131.738 353.629L141.973 354.561Z" fill="#8F92CC"/>
<path opacity="0.428571" d="M140.174 355.341C142.602 355.905 143.318 357.097 142.624 359.135C142.624 359.309 142.624 359.504 142.385 359.742C142.038 361.216 140.217 363.016 137.181 365.032L120.874 373.031L105.412 379.708C101.963 381.709 98.333 383.379 94.5694 384.695C89.3637 385.171 84.1173 384.474 79.2162 382.657C78.2437 382.515 77.3522 382.035 76.698 381.302C76.0437 380.568 75.6686 379.628 75.6382 378.646C75.6818 377.588 75.9556 376.552 76.4405 375.611C77.1739 374.57 78.0173 373.61 78.956 372.75C80.062 371.709 107.429 362.409 108.686 362.647L121.069 358.311C121.264 358.116 121.741 357.856 121.958 357.661C123.198 356.747 124.564 356.017 126.013 355.493C127.399 354.979 128.873 354.744 130.35 354.799L140.174 355.341Z" fill="#8B8EC9"/>
<path opacity="0.47619" d="M138.373 356.143C140.846 356.707 141.453 357.899 140.542 359.959C140.542 360.132 140.542 360.306 140.217 360.523C139.783 361.91 137.81 363.623 134.73 365.595L119.312 373.292L104.61 379.622C101.328 381.489 97.8886 383.063 94.3307 384.326C89.4103 384.761 84.4528 384.193 79.7582 382.657C78.8 382.522 77.9224 382.047 77.2855 381.318C76.6485 380.59 76.2947 379.657 76.2886 378.69C76.3558 377.655 76.652 376.648 77.156 375.741C77.898 374.733 78.7409 373.803 79.6715 372.966C80.8858 371.796 106.8 363.189 108.188 363.471L120.071 359.33C120.266 359.157 120.743 358.918 120.938 358.745C122.119 357.836 123.427 357.105 124.82 356.577C126.15 356.072 127.561 355.815 128.984 355.818L138.373 356.143Z" fill="#8789C6"/>
<path opacity="0.52381" d="M136.574 356.946C139.089 357.509 139.61 358.68 138.612 360.804C138.612 360.935 138.612 361.108 138.244 361.325C136.75 363.388 134.768 365.049 132.475 366.159L117.903 373.552L103.981 379.513C100.862 381.272 97.597 382.759 94.2226 383.958C89.5832 384.343 84.9123 383.895 80.4307 382.635C79.49 382.518 78.6261 382.056 78.0055 381.34C77.3849 380.623 77.0515 379.702 77.0695 378.755C77.1728 377.738 77.4906 376.756 78.002 375.871C78.7663 374.902 79.6154 374.002 80.5392 373.183C81.8837 371.904 106.323 363.991 107.863 364.295L119.247 360.393C119.421 360.219 119.898 359.981 120.093 359.829C121.212 358.934 122.453 358.204 123.78 357.661C125.035 357.156 126.373 356.884 127.726 356.859L136.574 356.946Z" fill="#8385C2"/>
<path opacity="0.571429" d="M134.752 357.769C137.311 358.333 137.745 359.482 136.595 361.628C136.595 361.758 136.595 361.91 136.162 362.127C134.486 364.047 132.434 365.604 130.133 366.701L116.428 373.812L103.265 379.427C100.309 381.057 97.2269 382.449 94.0489 383.589C89.6886 383.942 85.2999 383.62 81.0377 382.635C80.1121 382.526 79.2627 382.069 78.6624 381.356C78.0622 380.643 77.7561 379.728 77.8067 378.798C77.9401 377.799 78.2798 376.84 78.8042 375.98C79.5825 375.056 80.4308 374.194 81.3414 373.4C82.7943 371.991 105.781 364.728 107.364 365.097L118.206 361.433C118.358 361.281 118.857 361.064 119.03 360.913C120.112 360.095 121.292 359.418 122.543 358.897C123.731 358.41 124.992 358.125 126.273 358.051L134.752 357.769Z" fill="#7F80BF"/>
<path opacity="0.619048" d="M132.952 358.572C135.554 359.135 135.901 360.284 134.6 362.474C134.6 362.582 134.47 362.712 134.08 362.907C132.237 364.7 130.103 366.166 127.769 367.243L114.953 374.072L102.549 379.318C99.7624 380.839 96.8625 382.144 93.8754 383.221C89.7904 383.554 85.6793 383.357 81.6449 382.635C80.7309 382.542 79.8911 382.09 79.3098 381.379C78.7284 380.668 78.453 379.755 78.5439 378.841C78.7191 377.874 79.0721 376.948 79.5848 376.11C80.3783 375.22 81.2333 374.387 82.1436 373.617C83.7267 372.099 105.238 365.574 107.038 365.921L117.447 362.495C117.577 362.344 118.076 362.149 118.228 362.018C119.25 361.224 120.373 360.567 121.567 360.067C122.684 359.583 123.869 359.276 125.08 359.157L132.952 358.572Z" fill="#7B7CBC"/>
<path opacity="0.666667" d="M131.153 359.374C133.798 359.937 134.058 361.086 132.584 363.297C132.584 363.406 132.432 363.536 132.02 363.709C130.027 365.341 127.842 366.725 125.514 367.828L113.566 374.332L101.942 379.253C99.3021 380.643 96.5707 381.852 93.7671 382.874C89.945 383.182 86.1016 383.102 82.2956 382.635C81.8502 382.595 81.4173 382.465 81.0228 382.255C80.6282 382.044 80.2801 381.756 79.999 381.409C79.7178 381.061 79.5095 380.66 79.3862 380.23C79.2629 379.8 79.2273 379.35 79.2814 378.906C79.5051 377.961 79.8863 377.059 80.409 376.24C81.2154 375.396 82.0698 374.6 82.9679 373.855C84.6593 372.207 104.653 366.376 106.648 366.766L116.558 363.558C116.688 363.449 117.187 363.232 117.317 363.124C118.297 362.383 119.36 361.757 120.483 361.26C121.54 360.786 122.656 360.458 123.801 360.284L131.153 359.374Z" fill="#7777B9"/>
<path opacity="0.714286" d="M129.353 360.176C132.042 360.739 132.194 361.888 130.567 364.143C130.567 364.143 130.394 364.338 129.938 364.49C127.769 365.983 125.477 367.288 123.086 368.392L112.005 374.571L101.162 379.123C98.6922 380.415 96.1342 381.531 93.5071 382.462C89.9526 382.786 86.3785 382.837 82.8163 382.614C82.3803 382.577 81.9566 382.451 81.5714 382.244C81.1862 382.037 80.8477 381.752 80.5772 381.409C80.3066 381.065 80.1098 380.669 79.9988 380.246C79.8878 379.823 79.8652 379.382 79.9321 378.95C80.1813 378.026 80.5765 377.148 81.1031 376.348C81.2983 376.001 83.2716 374.376 83.662 374.05C85.5052 372.294 104.068 367.156 106.171 367.547L115.583 364.598C115.814 364.455 116.053 364.325 116.298 364.208C117.232 363.503 118.235 362.892 119.291 362.387C119.941 362.214 121.871 361.238 122.392 361.39L129.353 360.176Z" fill="#7373B6"/>
<path opacity="0.761905" d="M127.553 361.065C130.263 361.628 130.35 362.756 128.572 365.032C128.572 365.032 128.312 365.032 127.878 365.357L120.722 369.021L110.53 374.896L100.424 379.102C98.112 380.252 95.7374 381.272 93.3115 382.158C90.019 382.496 86.7111 382.662 83.4014 382.657C81.2328 382.202 80.3004 380.814 80.6256 379.058C80.8986 378.159 81.3161 377.309 81.8617 376.544C82.0135 376.262 84.1603 374.592 84.4206 374.376C86.3722 372.49 103.482 368.045 105.715 368.479L114.628 365.747C114.628 365.747 115.235 365.466 115.322 365.4C116.206 364.737 117.15 364.156 118.141 363.666C118.683 363.514 120.592 362.474 121.025 362.604L127.553 361.065Z" fill="#6F6EB3"/>
<path opacity="0.809524" d="M125.753 361.802C128.507 362.365 128.485 363.493 126.555 365.812C126.555 365.812 126.295 365.812 125.796 366.094C124.625 366.571 122.023 367.742 118.38 369.519L109.055 375.091L99.7088 378.928C97.5919 379.976 95.4202 380.91 93.2033 381.725C90.7962 382.093 84.0737 382.592 84.0737 382.592C81.9052 382.137 81.0378 380.771 81.4065 379.037C81.6438 378.13 82.0893 377.291 82.7076 376.587C82.7076 376.348 85.0712 374.701 85.2881 374.419C87.4566 372.424 103.005 368.674 105.369 369.129L113.783 366.615C113.783 366.615 114.39 366.376 114.476 366.311C115.313 365.697 116.19 365.139 117.1 364.642C117.967 364.205 118.866 363.836 119.789 363.536L125.753 361.802Z" fill="#6B6AB0"/>
<path opacity="0.857143" d="M123.953 362.604C126.75 363.167 126.642 364.295 124.538 366.636C124.277 366.734 124.009 366.814 123.736 366.875C122.478 367.308 119.767 368.327 116.038 370.061L107.58 375.351L98.9063 378.841C98.6678 379.08 93.2247 381.248 92.8561 381.356L84.4855 382.592C82.317 382.158 81.5147 380.792 81.9484 379.08C82.2065 378.194 82.6752 377.383 83.3146 376.717C83.3146 376.522 85.7217 374.852 85.8951 374.679C88.0637 372.511 102.267 369.519 104.783 370.018L112.698 367.742C112.91 367.642 113.127 367.555 113.349 367.482C114.127 366.89 114.945 366.354 115.799 365.877C116.599 365.438 117.424 365.047 118.271 364.707L123.953 362.604Z" fill="#6765AC"/>
<path opacity="0.904762" d="M122.153 363.406C124.994 363.991 124.777 365.097 122.544 367.481C122.544 367.481 122.24 367.481 121.655 367.677C118.922 368.449 116.253 369.435 113.674 370.625L106.106 375.611L98.2778 378.733C98.126 378.906 93.0083 380.901 92.7481 380.901C91.5554 381.096 85.1799 382.483 85.1799 382.483C83.0114 382.071 82.2524 380.706 82.7512 379.058C83.0336 378.192 83.5165 377.404 84.1607 376.76C84.1607 376.63 86.6545 374.917 86.763 374.809C89.0833 372.641 101.791 370.235 104.436 370.733L111.853 368.695L112.482 368.479C113.213 367.933 113.974 367.427 114.759 366.961C114.975 366.961 116.927 365.682 116.927 365.725L122.153 363.406Z" fill="#6361A9"/>
<path opacity="0.952381" d="M120.332 364.23C123.216 364.793 122.934 365.877 120.527 368.305C120.527 368.305 120.202 368.305 119.594 368.457C116.755 369.085 113.987 370.001 111.332 371.189L104.566 375.871L97.5188 378.646C97.5188 378.646 92.6396 380.576 92.5095 380.619C91.9023 380.619 85.7003 382.57 85.7003 382.57C83.6402 382.158 82.8379 380.814 83.38 379.188C83.7089 378.368 84.212 377.628 84.8546 377.02C84.8546 377.02 87.4134 375.243 87.4785 375.178C89.9072 372.836 101.162 371.167 103.938 371.709L110.877 369.91L111.462 369.715C111.462 369.715 113.457 368.305 113.631 368.262C113.804 368.219 115.604 366.983 115.691 367.005L120.332 364.23Z" fill="#5F5CA6"/>
<path opacity="0.2" d="M108.904 371.752L103.049 376.088L86.2642 382.592C83.3367 382.028 83.0548 379.578 85.6137 377.129L88.2376 375.373C90.7964 372.923 100.576 371.947 103.417 372.511L110.422 370.798L118.38 365.075C121.308 365.639 120.939 366.723 118.38 369.194C115.106 369.544 111.908 370.407 108.904 371.752Z" fill="#5B58A3"/>
</g>
<path d="M82.1437 365.877C82.1437 365.877 79.4764 367.568 79.4113 368.414C79.4113 369.845 79.2595 368.869 80.0185 372.056C80.0185 372.056 80.539 383.546 84.5074 383.481C88.0204 383.481 86.1121 377.887 86.6759 374.809C86.8193 373.312 87.3498 371.877 88.2155 370.647C88.2155 370.647 87.2614 366.614 84.876 366.007C82.4907 365.4 82.1437 365.877 82.1437 365.877Z" fill="#4E0070"/>
<path d="M82.8813 369.216C82.5801 368.645 82.0847 368.2 81.4843 367.961C80.884 367.723 80.2182 367.706 79.6069 367.915C79.4879 368.059 79.4061 368.231 79.3683 368.414C79.3683 369.845 79.2165 368.869 79.9755 372.056C79.9755 372.056 80.496 383.546 84.4644 383.481C84.9663 383.492 85.4541 383.314 85.8305 382.982C86.351 380.034 83.8788 375.113 83.662 374.137C83.6834 372.464 83.4194 370.8 82.8813 369.216Z" fill="#35004D"/>
<path d="M127.206 308.601C127.206 308.601 124.821 339.19 121.915 343.721C119.009 348.252 87.4786 372.793 87.4786 372.793C87.5762 372.292 87.5762 371.776 87.4786 371.275C87.2156 369.962 86.6597 368.724 85.8522 367.655C83.5318 365.14 81.9922 366.029 81.9922 366.029C81.9922 366.029 108.014 339.776 108.014 339.212C108.014 338.648 108.47 304.981 108.47 304.981L127.206 308.601Z" fill="url(#paint40_linear_25_2016)"/>
<g style="mix-blend-mode:multiply">
<path d="M117.274 341.358C116.341 344.328 92.2491 364.858 86.9146 369.433C87.1097 370.083 87.2615 370.712 87.4133 371.189C87.511 371.69 87.511 372.205 87.4133 372.706C87.4133 372.706 118.879 348.057 121.915 343.721C124.951 339.385 127.271 308.688 127.271 308.688L121.047 307.474C119.985 318.378 118.055 338.908 117.274 341.358Z" fill="#CED3F4"/>
</g>
<path d="M161.902 299.734C163.469 298.609 164.741 297.121 165.61 295.399C167.041 292.472 170.533 292.017 170.641 295.572C170.738 296.926 170.507 298.283 169.967 299.529C169.428 300.774 168.595 301.871 167.54 302.726C166.678 304.11 166.048 305.626 165.675 307.214C165.111 308.666 163.507 311.376 162.401 311.116C160.675 310.169 159.035 309.074 157.5 307.842L161.902 299.734Z" fill="#4E0070"/>
<path d="M169.926 293.859C170.26 295.602 170.14 297.401 169.579 299.084C169.015 301.252 165.611 303.051 164.787 305.371C163.891 307.295 162.739 309.089 161.36 310.704C161.688 310.913 162.037 311.087 162.401 311.224C163.42 311.484 165.112 308.775 165.676 307.322C166.049 305.735 166.679 304.219 167.541 302.835C168.595 301.98 169.428 300.883 169.968 299.637C170.508 298.392 170.739 297.034 170.642 295.68C170.673 295.342 170.625 295.001 170.501 294.685C170.377 294.368 170.18 294.086 169.926 293.859Z" fill="#35004D"/>
<path d="M118.076 283.128C118.076 283.128 138.222 276.625 142.255 278.402C146.852 280.288 161.772 299.756 161.772 299.756C162.376 301.04 162.544 302.487 162.249 303.875C161.382 308.579 159.256 309.317 158.281 308.623C156.632 307.452 138.655 294.271 138.655 294.271C138.655 294.271 124.69 299.734 121.567 300.493C118.445 301.252 118.076 283.128 118.076 283.128Z" fill="url(#paint41_linear_25_2016)"/>
<g style="mix-blend-mode:multiply">
<path d="M139.566 287.573L120.635 295.702V300.038C120.732 300.173 120.865 300.278 121.018 300.343C121.17 300.408 121.338 300.43 121.503 300.406C124.625 299.669 138.591 294.185 138.591 294.185C138.591 294.185 156.568 307.365 158.216 308.536C159.061 309.121 160.753 308.645 161.75 305.479L139.566 287.573Z" fill="#CED3F4"/>
</g>
<path d="M176.865 257.005H176.692C176.527 257.003 176.366 257.05 176.227 257.138C176.088 257.227 175.979 257.354 175.911 257.504C176.776 257.837 177.695 258.006 178.622 258.002C179.858 258.002 181.658 258.002 181.636 259.043C181.614 260.084 180.79 259.975 180.79 259.975C180.79 259.975 182.048 259.975 181.983 260.994C181.918 262.013 180.769 261.818 180.769 261.818C180.769 261.818 181.961 261.818 181.593 262.815C181.354 263.552 179.923 263.335 179.923 263.335C180.128 263.374 180.315 263.48 180.452 263.638C180.59 263.795 180.671 263.994 180.682 264.203C180.682 264.94 179.554 264.723 178.296 264.658C177.039 264.593 175.022 264.658 174.393 264.658C173.764 264.658 170.642 265.33 170.642 265.33V260.17C171.42 259.397 172.058 258.495 172.528 257.504C173.115 256.681 173.99 256.108 174.979 255.9C175.681 255.687 176.415 255.599 177.147 255.639L176.865 257.005Z" fill="#FFD4C0"/>
<path d="M171.162 259C169.926 258.739 153.033 265.763 150.474 265.352C149.759 265.352 148.045 265.677 142.234 262.273C137.897 259.802 130.762 254.23 129.765 253.602C121.372 248.442 116.905 245.45 114.585 245.45C112.265 245.45 107.494 247.618 106.084 255.531C105.716 257.59 99.5788 305.74 99.7957 307.105C100.186 309.75 106.019 312.135 109.641 313.111C117.187 315.148 127.184 316.232 130.155 314.433C132.063 313.262 135.056 275.866 135.425 274.413C139.959 275.9 144.63 276.931 149.368 277.492C152.252 277.492 173.222 266.24 173.851 265.438C174.892 264.072 172.246 259.173 171.162 259Z" fill="url(#paint42_linear_25_2016)"/>
<path d="M128.984 253.97C128.984 255.834 125.883 257.265 122.175 257.157C118.467 257.048 115.496 255.444 115.539 253.58C115.582 251.715 118.662 250.285 122.37 250.393C126.078 250.501 129.049 252.106 128.984 253.97Z" fill="white"/>
<path d="M116.494 252.669C116.439 252.883 116.436 253.106 116.485 253.321C116.534 253.536 116.634 253.736 116.775 253.905C117.506 254.616 118.372 255.175 119.321 255.547C120.271 255.919 121.285 256.098 122.305 256.073C124.101 256.186 125.889 255.763 127.445 254.859C127.634 254.741 127.794 254.583 127.914 254.395C128.034 254.208 128.111 253.996 128.139 253.775L128.724 249.829C128.724 249.829 131.782 250.003 132.692 248.854C133.603 247.705 136.639 233.071 132.259 229.343C127.878 225.614 118.358 226.763 116.862 233.397C115.366 240.03 118.358 243.629 118.619 245.168C118.293 247.762 117.577 250.291 116.494 252.669Z" fill="#FFD4C0"/>
<path d="M118.337 247.531C119.781 248.045 121.322 248.23 122.847 248.073C125.363 247.206 126.751 241.721 128.377 240.29C129.353 239.423 130.285 240.29 130.242 241.374C130.199 242.458 130.437 242.827 130.784 242.914C131.51 241.257 132.084 239.537 132.497 237.776C132.497 237.776 139.22 234.567 137.81 231.272C135.36 225.484 116.884 224.92 116.298 234.242C115.713 243.564 116.754 247.163 118.337 247.531Z" fill="url(#paint43_linear_25_2016)"/>
<g style="mix-blend-mode:multiply">
<path d="M151.428 274.652C151.295 275.593 150.962 276.494 150.453 277.297C158.59 273.98 166.45 270.022 173.959 265.46C174.371 264.896 174.155 263.726 173.678 262.511L151.147 272.354C151.348 273.103 151.443 273.876 151.428 274.652Z" fill="#CED3F4"/>
</g>
<g style="mix-blend-mode:multiply">
<path d="M125.948 303.853C124.306 308.247 121.354 312.031 117.491 314.693C122.977 315.517 128.203 315.625 130.198 314.411C132.193 313.197 135.099 275.844 135.468 274.392L132.15 271.617C132.15 271.617 128.42 295.529 125.948 303.853Z" fill="#CED3F4"/>
</g>
<path d="M193.194 142.691L179.641 192.835L189.399 240.529C189.399 240.529 210.867 210.048 213.253 194.179C217.72 164.37 193.194 142.691 193.194 142.691Z" fill="url(#paint44_linear_25_2016)"/>
<path style="mix-blend-mode:screen" opacity="0.5" d="M193.194 142.691L189.399 240.529C189.399 240.529 210.867 210.048 213.253 194.179C217.72 164.37 193.194 142.691 193.194 142.691Z" fill="url(#paint45_radial_25_2016)"/>
<g opacity="0.2">
<path opacity="0.047619" d="M376.196 162.289C378.49 161.016 381.075 160.359 383.699 160.382C385.05 160.39 386.393 160.587 387.689 160.967C388.446 161.193 389.173 161.506 389.858 161.899L392.026 163.872C393.055 164.404 393.923 165.201 394.54 166.18C395.158 167.16 395.503 168.286 395.539 169.444C395.46 170.782 395.027 172.075 394.284 173.191C393.541 174.308 392.515 175.206 391.311 175.795L366.654 189.518C364.832 190.535 362.778 191.065 360.691 191.058C358.974 191.099 357.276 190.688 355.768 189.865L354.381 189.258L348.829 186.787C348.004 186.357 347.31 185.714 346.818 184.925C346.326 184.136 346.054 183.229 346.032 182.299C346.094 181.229 346.44 180.195 347.034 179.304C347.629 178.412 348.451 177.695 349.415 177.226L376.196 162.289Z" fill="#ABB2E2"/>
<path opacity="0.095238" d="M376.131 162.636C378.349 161.398 380.854 160.762 383.395 160.794C384.71 160.784 386.019 160.974 387.277 161.357C388.032 161.577 388.76 161.882 389.445 162.268L391.614 164.176C392.607 164.682 393.446 165.446 394.041 166.389C394.636 167.331 394.966 168.416 394.997 169.53C394.92 170.819 394.502 172.064 393.786 173.139C393.07 174.213 392.081 175.077 390.92 175.644L366.893 188.998C365.12 189.978 363.128 190.493 361.103 190.494C359.436 190.53 357.787 190.142 356.31 189.367L354.966 188.76L349.61 186.353C348.808 185.942 348.133 185.322 347.656 184.559C347.179 183.796 346.917 182.917 346.899 182.017C346.959 180.978 347.296 179.973 347.876 179.107C348.455 178.242 349.256 177.548 350.195 177.096L376.131 162.636Z" fill="#A7ADDF"/>
<path opacity="0.142857" d="M376.044 162.961C378.21 161.776 380.644 161.164 383.113 161.184C384.391 161.197 385.661 161.387 386.887 161.747C387.584 161.982 388.26 162.279 388.903 162.636L390.963 164.479C391.917 164.97 392.722 165.708 393.294 166.615C393.866 167.523 394.184 168.567 394.216 169.639C394.142 170.875 393.74 172.07 393.05 173.099C392.36 174.128 391.407 174.954 390.291 175.492L366.893 188.499C365.174 189.452 363.241 189.952 361.276 189.952C359.662 189.99 358.066 189.617 356.636 188.868L355.335 188.283L350.152 185.941C349.382 185.546 348.732 184.951 348.27 184.219C347.809 183.487 347.552 182.644 347.528 181.779C347.593 180.78 347.923 179.816 348.483 178.985C349.043 178.155 349.813 177.488 350.716 177.053L376.044 162.961Z" fill="#A3A9DC"/>
<path opacity="0.190476" d="M375.957 163.308C378.052 162.148 380.415 161.557 382.81 161.596C384.053 161.597 385.289 161.787 386.475 162.159C387.152 162.375 387.806 162.658 388.426 163.005L390.443 164.783C391.36 165.247 392.134 165.953 392.68 166.824C393.226 167.694 393.525 168.698 393.544 169.725C393.472 170.912 393.085 172.059 392.421 173.046C391.758 174.033 390.843 174.825 389.771 175.34L366.958 187.957C365.291 188.876 363.419 189.361 361.515 189.367C359.954 189.408 358.409 189.05 357.026 188.326L355.768 187.762L350.824 185.464C350.086 185.085 349.464 184.515 349.022 183.813C348.579 183.112 348.333 182.304 348.309 181.475C348.366 180.51 348.679 179.578 349.217 178.774C349.754 177.97 350.496 177.323 351.366 176.901L375.957 163.308Z" fill="#9FA4D8"/>
<path opacity="0.238095" d="M375.871 163.655C377.904 162.522 380.201 161.946 382.528 161.986C383.728 161.997 384.919 162.187 386.063 162.549C386.72 162.771 387.359 163.047 387.971 163.373L389.923 165.108C390.801 165.544 391.543 166.214 392.067 167.044C392.591 167.873 392.877 168.831 392.894 169.812C392.817 170.95 392.441 172.048 391.806 172.996C391.17 173.943 390.296 174.707 389.272 175.21L367.153 187.437C365.541 188.333 363.728 188.803 361.884 188.803C360.378 188.829 358.889 188.486 357.547 187.806L356.332 187.264L351.518 185.096C350.798 184.743 350.19 184.198 349.761 183.52C349.332 182.843 349.1 182.06 349.089 181.258C349.153 180.339 349.46 179.454 349.978 178.692C350.496 177.93 351.207 177.32 352.039 176.923L375.871 163.655Z" fill="#9BA0D5"/>
<path opacity="0.285714" d="M375.805 163.98C377.799 162.895 380.042 162.349 382.311 162.398C383.466 162.414 384.613 162.597 385.716 162.94C386.354 163.157 386.971 163.433 387.559 163.764L389.467 165.411C390.302 165.833 391.006 166.473 391.506 167.263C392.007 168.053 392.284 168.964 392.308 169.899C392.242 170.99 391.885 172.043 391.275 172.95C390.665 173.858 389.824 174.585 388.838 175.058L367.348 186.917C365.789 187.781 364.035 188.236 362.252 188.239C360.793 188.27 359.348 187.943 358.045 187.285L356.874 186.765L352.212 184.597C351.538 184.244 350.968 183.719 350.561 183.076C350.153 182.433 349.923 181.694 349.892 180.933C349.952 180.041 350.249 179.181 350.752 178.442C351.255 177.703 351.946 177.111 352.754 176.728L375.805 163.98Z" fill="#979BD2"/>
<path opacity="0.333333" d="M375.632 164.327C377.537 163.282 379.683 162.751 381.856 162.788C382.981 162.815 384.098 162.997 385.174 163.33C385.78 163.549 386.368 163.817 386.93 164.132L388.795 165.715C389.598 166.124 390.274 166.743 390.752 167.507C391.229 168.271 391.49 169.15 391.506 170.05C391.436 171.088 391.092 172.087 390.509 172.948C389.926 173.809 389.125 174.5 388.188 174.95L367.305 186.44C365.804 187.27 364.119 187.71 362.404 187.719C360.998 187.754 359.605 187.441 358.349 186.808L357.221 186.31L352.732 184.142C352.088 183.801 351.547 183.293 351.165 182.671C350.784 182.05 350.576 181.337 350.564 180.608C350.63 179.754 350.919 178.932 351.403 178.225C351.886 177.517 352.546 176.949 353.318 176.576L375.632 164.327Z" fill="#9397CF"/>
<path opacity="0.380952" d="M375.632 164.674C377.473 163.651 379.555 163.141 381.661 163.2C382.745 163.215 383.82 163.398 384.848 163.742C385.434 163.942 386.001 164.196 386.54 164.501L388.361 166.018C389.116 166.405 389.754 166.987 390.208 167.704C390.662 168.421 390.915 169.246 390.942 170.094C390.875 171.084 390.547 172.04 389.991 172.862C389.435 173.685 388.671 174.346 387.776 174.776L367.522 185.876C366.075 186.68 364.449 187.105 362.794 187.112C361.442 187.148 360.101 186.851 358.891 186.245C358.891 186.245 357.85 185.811 357.807 185.768L353.47 183.773C352.839 183.461 352.304 182.984 351.922 182.392C351.541 181.8 351.326 181.117 351.301 180.413C351.356 179.595 351.629 178.806 352.09 178.128C352.551 177.45 353.184 176.906 353.925 176.554L375.632 164.674Z" fill="#8F92CC"/>
<path opacity="0.428571" d="M375.632 164.999C377.418 164.042 379.418 163.557 381.444 163.59C382.492 163.615 383.53 163.797 384.523 164.132C385.084 164.334 385.628 164.581 386.15 164.869L387.928 166.322C388.646 166.685 389.253 167.235 389.684 167.914C390.116 168.593 390.355 169.376 390.378 170.181C390.314 171.125 389.999 172.034 389.465 172.816C388.931 173.597 388.198 174.222 387.342 174.625L367.825 185.356C366.429 186.122 364.865 186.532 363.272 186.548C361.967 186.59 360.673 186.315 359.498 185.746L358.457 185.269L354.337 183.34C353.739 183.039 353.234 182.581 352.875 182.017C352.517 181.452 352.317 180.8 352.299 180.131C352.345 179.347 352.603 178.589 353.046 177.94C353.489 177.291 354.1 176.775 354.814 176.446L375.632 164.999Z" fill="#8B8EC9"/>
<path opacity="0.47619" d="M375.48 165.346C377.193 164.409 379.124 163.945 381.075 164.002C382.078 164.032 383.072 164.207 384.024 164.522C384.57 164.729 385.099 164.975 385.607 165.259L387.321 166.625C387.992 166.977 388.559 167.498 388.966 168.137C389.374 168.776 389.606 169.51 389.641 170.267C389.574 171.16 389.272 172.02 388.766 172.759C388.259 173.497 387.566 174.089 386.757 174.473L367.782 184.836C366.452 185.567 364.963 185.962 363.445 185.985C362.194 186.031 360.951 185.77 359.824 185.226L358.826 184.771L354.858 182.906C354.294 182.619 353.817 182.186 353.478 181.653C353.138 181.119 352.948 180.503 352.928 179.871C352.995 179.126 353.254 178.411 353.68 177.796C354.105 177.18 354.683 176.685 355.356 176.359L375.48 165.346Z" fill="#8789C6"/>
<path opacity="0.52381" d="M375.393 165.693C377.045 164.785 378.909 164.335 380.793 164.392C381.761 164.432 382.719 164.615 383.634 164.934C384.148 165.13 384.648 165.362 385.13 165.628L386.8 166.929C387.435 167.259 387.97 167.753 388.351 168.358C388.732 168.964 388.945 169.66 388.968 170.376C388.897 171.217 388.608 172.026 388.129 172.722C387.65 173.418 386.997 173.976 386.236 174.343L367.89 184.315C366.598 185.017 365.154 185.397 363.683 185.421C362.486 185.471 361.294 185.225 360.214 184.705L359.26 184.272L355.465 182.473C354.927 182.209 354.473 181.803 354.151 181.298C353.83 180.793 353.654 180.209 353.643 179.611C353.693 178.9 353.932 178.215 354.337 177.628C354.741 177.041 355.295 176.573 355.942 176.272L375.393 165.693Z" fill="#8385C2"/>
<path opacity="0.571429" d="M375.307 165.953C376.886 165.069 378.681 164.641 380.49 164.718C381.422 164.748 382.344 164.924 383.222 165.238C383.717 165.422 384.195 165.647 384.653 165.91L386.28 167.167C386.88 167.465 387.388 167.921 387.747 168.487C388.107 169.052 388.304 169.706 388.318 170.376C388.26 171.168 387.992 171.931 387.543 172.586C387.093 173.241 386.478 173.765 385.759 174.105L368.042 183.708C366.801 184.376 365.418 184.74 364.009 184.771C362.858 184.809 361.715 184.579 360.669 184.099L359.758 183.687L356.159 181.952C355.651 181.701 355.221 181.315 354.915 180.838C354.61 180.361 354.44 179.809 354.424 179.242C354.476 178.571 354.703 177.925 355.084 177.37C355.465 176.814 355.985 176.368 356.592 176.077L375.307 165.953Z" fill="#7F80BF"/>
<path opacity="0.619048" d="M375.22 166.365C376.751 165.545 378.471 165.141 380.207 165.194C381.095 165.246 381.971 165.421 382.81 165.715C383.279 165.901 383.735 166.118 384.176 166.365L385.759 167.557C386.32 167.834 386.794 168.26 387.131 168.787C387.467 169.314 387.653 169.924 387.667 170.549C387.611 171.292 387.359 172.006 386.936 172.62C386.513 173.233 385.935 173.723 385.26 174.039L368.172 183.296C366.99 183.954 365.665 184.311 364.312 184.337C363.215 184.379 362.123 184.163 361.124 183.708L360.257 183.318L356.831 181.67C356.351 181.432 355.944 181.069 355.654 180.618C355.364 180.168 355.201 179.648 355.183 179.112C355.249 178.467 355.484 177.851 355.865 177.325C356.246 176.8 356.758 176.384 357.351 176.121L375.22 166.365Z" fill="#7B7CBC"/>
<path opacity="0.666667" d="M375.155 166.712C376.606 165.913 378.249 165.531 379.904 165.606C380.755 165.649 381.596 165.817 382.398 166.105C382.68 166.213 383.482 166.604 383.721 166.734L385.239 167.861C385.761 168.116 386.204 168.509 386.517 168.999C386.831 169.488 387.004 170.055 387.017 170.636C386.961 171.331 386.72 171.999 386.32 172.571C385.92 173.142 385.374 173.597 384.74 173.888L368.281 182.733C367.158 183.356 365.9 183.698 364.616 183.73C363.572 183.773 362.533 183.573 361.58 183.145L360.756 182.776L357.503 181.193C357.05 180.971 356.665 180.629 356.39 180.206C356.116 179.782 355.961 179.292 355.942 178.787C355.999 178.184 356.214 177.607 356.564 177.112C356.914 176.618 357.387 176.224 357.937 175.969L375.155 166.712Z" fill="#7777B9"/>
<path opacity="0.714286" d="M375.068 167.059C376.46 166.295 378.036 165.927 379.622 165.997C380.439 166.05 381.243 166.225 382.008 166.517L383.244 167.124L384.718 168.164C385.203 168.402 385.613 168.769 385.903 169.224C386.194 169.679 386.354 170.205 386.366 170.744C386.306 171.394 386.073 172.016 385.692 172.546C385.311 173.076 384.795 173.494 384.198 173.758L368.368 182.212C367.298 182.808 366.1 183.135 364.876 183.166C363.888 183.207 362.903 183.029 361.992 182.646L361.19 182.278L358.11 180.76C357.701 180.557 357.353 180.25 357.102 179.869C356.851 179.488 356.705 179.048 356.679 178.592C356.73 178.026 356.929 177.484 357.256 177.019C357.584 176.555 358.028 176.185 358.544 175.947L375.068 167.059Z" fill="#7373B6"/>
<path opacity="0.761905" d="M374.982 167.384C376.314 166.676 377.812 166.339 379.319 166.409C380.099 166.452 380.868 166.62 381.596 166.907C381.791 166.907 382.615 167.406 382.767 167.493L384.198 168.468C384.64 168.69 385.014 169.026 385.281 169.442C385.548 169.857 385.698 170.337 385.716 170.831C385.655 171.425 385.442 171.993 385.096 172.479C384.75 172.966 384.283 173.354 383.742 173.606L368.563 181.692C367.547 182.261 366.408 182.574 365.245 182.603C364.303 182.645 363.363 182.482 362.491 182.126C362.361 182.126 361.884 181.866 361.753 181.779L358.848 180.327C358.44 180.132 358.096 179.824 357.858 179.439C357.619 179.055 357.496 178.611 357.503 178.159C357.562 177.631 357.754 177.128 358.061 176.695C358.368 176.263 358.781 175.916 359.26 175.687L374.982 167.384Z" fill="#6F6EB3"/>
<path opacity="0.809524" d="M374.895 167.731C376.165 167.05 377.597 166.728 379.037 166.799C379.781 166.85 380.513 167.018 381.205 167.297L382.311 167.861L383.699 168.772C384.103 168.976 384.445 169.285 384.689 169.666C384.933 170.048 385.07 170.487 385.087 170.939C385.029 171.484 384.83 172.003 384.511 172.448C384.192 172.892 383.762 173.247 383.265 173.476L368.671 181.129C367.707 181.663 366.629 181.96 365.527 181.996C364.638 182.039 363.751 181.892 362.925 181.562C362.687 181.467 362.456 181.358 362.231 181.237L359.498 179.849C359.132 179.68 358.82 179.412 358.598 179.075C358.376 178.738 358.252 178.345 358.241 177.942C358.297 177.447 358.48 176.976 358.773 176.573C359.066 176.17 359.457 175.85 359.91 175.644L374.895 167.731Z" fill="#6B6AB0"/>
<path opacity="0.857143" d="M374.83 168.121C376.027 167.46 377.39 167.158 378.755 167.254C379.449 167.311 380.13 167.479 380.771 167.752L381.834 168.273L383.157 169.118C383.518 169.301 383.824 169.575 384.045 169.914C384.266 170.253 384.393 170.644 384.414 171.048C384.356 171.544 384.172 172.018 383.879 172.423C383.587 172.829 383.197 173.154 382.745 173.367L368.801 180.695C367.891 181.203 366.872 181.486 365.83 181.519C364.994 181.575 364.157 181.442 363.38 181.128L362.708 180.825L360.17 179.503C359.831 179.35 359.543 179.103 359.339 178.792C359.136 178.481 359.025 178.118 359.021 177.747C359.059 177.28 359.222 176.833 359.493 176.451C359.764 176.07 360.133 175.768 360.561 175.579L374.83 168.121Z" fill="#6765AC"/>
<path opacity="0.904762" d="M374.743 168.425C375.876 167.804 377.162 167.518 378.451 167.601C379.116 167.667 379.767 167.835 380.381 168.1L381.357 168.62L382.637 169.4C382.963 169.555 383.241 169.797 383.44 170.099C383.639 170.401 383.751 170.752 383.764 171.113C383.724 171.579 383.56 172.025 383.289 172.406C383.019 172.787 382.651 173.089 382.225 173.281L368.931 180.24C368.072 180.713 367.114 180.98 366.134 181.02C365.352 181.067 364.569 180.949 363.835 180.673L363.207 180.392L360.843 179.156C360.534 179.014 360.27 178.789 360.082 178.505C359.895 178.222 359.79 177.891 359.78 177.552C359.834 177.132 359.993 176.732 360.243 176.391C360.494 176.049 360.827 175.777 361.212 175.6L374.743 168.425Z" fill="#6361A9"/>
<path opacity="0.952381" d="M374.656 168.75C375.735 168.18 376.952 167.924 378.169 168.013C378.792 168.071 379.4 168.232 379.969 168.49L380.88 168.988L382.116 169.704C382.402 169.837 382.645 170.048 382.818 170.312C382.99 170.577 383.085 170.884 383.092 171.2C383.055 171.6 382.908 171.982 382.667 172.304C382.426 172.625 382.1 172.874 381.726 173.021L369.04 179.524C368.239 179.963 367.35 180.215 366.438 180.261C365.702 180.31 364.963 180.207 364.269 179.958C364.072 179.893 363.882 179.806 363.705 179.698L361.537 178.527C361.258 178.398 361.021 178.193 360.852 177.937C360.684 177.68 360.59 177.382 360.583 177.075C360.639 176.695 360.789 176.335 361.02 176.028C361.251 175.721 361.556 175.478 361.905 175.319L374.656 168.75Z" fill="#5F5CA6"/>
<path opacity="0.2" d="M379.557 168.88L381.595 170.007C382.853 170.744 382.701 172.023 381.227 172.891L369.126 179.091C368.371 179.508 367.529 179.744 366.667 179.777C365.804 179.811 364.946 179.643 364.161 179.286L362.122 178.18C360.843 177.443 361.016 176.164 362.491 175.297L374.526 169.097C375.29 168.673 376.143 168.433 377.016 168.396C377.889 168.358 378.759 168.524 379.557 168.88Z" fill="#5B58A3"/>
</g>
<path d="M371.924 42.6428C368.866 43.4016 365.072 43.0114 368.107 50.9676C370.558 57.3196 369.387 89.2311 371.49 101.241C372.011 104.233 378.972 104.862 378.972 104.862C378.972 104.862 386.583 76.4622 386.258 68.0073C385.933 59.5525 381.314 44.9625 381.314 44.9625L371.924 42.6428Z" fill="#E5E9FF"/>
<path d="M377.085 53.0271L378.147 51.7046L375.979 49.7969H375.502L373.94 52.5068L375.328 53.2872L377.8 80.1042L379.492 93.4585C380.727 89.0516 381.289 84.4838 381.162 79.9091C381.01 71.7577 377.085 53.0271 377.085 53.0271Z" fill="url(#paint46_linear_25_2016)"/>
<path d="M374.938 164.912L374.548 167.08C374.466 167.581 374.546 168.095 374.776 168.547C375.006 168.999 375.374 169.366 375.827 169.595C376.211 169.799 376.61 169.973 377.02 170.115C377.888 170.397 383.634 173.974 386.041 174.451C388.448 174.928 390.378 174.148 390.508 173.389C390.638 172.63 389.858 171.416 387.494 169.877C385.705 168.435 384.229 166.642 383.157 164.609L374.938 164.912Z" fill="#2B003D"/>
<path d="M374.743 167.34C376.599 167.994 378.404 168.784 380.143 169.703C382.177 171.431 384.526 172.749 387.06 173.584C388.925 173.909 390.357 172.977 390.183 172.262C390.01 171.546 388.21 170.289 386.713 169.161C385.504 168.051 384.46 166.774 383.612 165.368L375.09 164.826L374.743 167.34Z" fill="#4E0070"/>
<path d="M384.523 95.7563C384.523 95.7563 386.692 129.988 386.692 133.261C386.692 135.429 383.699 162.701 383.439 165.151C383.179 167.601 374.765 167.319 374.765 164.761C374.765 162.918 375.524 136.209 375.524 136.209L368.194 100.526L369.495 96.9053L384.523 95.7563Z" fill="url(#paint47_linear_25_2016)"/>
<g style="mix-blend-mode:multiply">
<path d="M375.632 136.209C375.632 136.209 374.916 162.918 374.873 164.761C374.873 165.671 376.001 166.3 377.453 166.603L381.335 134.67L374.179 99.3767L368.302 100.526L375.632 136.209Z" fill="#CED3F4"/>
</g>
<path d="M356.484 174.061V176.381C356.46 176.782 356.523 177.183 356.669 177.558C356.815 177.932 357.04 178.27 357.33 178.549L358.067 179.307C359.344 181.025 360.924 182.494 362.729 183.643C363.704 184.3 364.826 184.705 365.995 184.822C367.165 184.939 368.345 184.765 369.43 184.315C370.211 183.687 370.211 183.101 368.238 180.456L363.445 173.953L356.484 174.061Z" fill="#2B003D"/>
<path d="M356.679 176.121C358.083 177.41 359.374 178.817 360.539 180.326C361.426 181.584 362.656 182.562 364.082 183.142C365.508 183.722 367.071 183.881 368.584 183.6C371.187 182.754 367.674 180.023 366.958 178.852C366.242 177.681 364.247 174.711 364.247 174.711H356.571L356.679 176.121Z" fill="#4E0070"/>
<path d="M372.227 97.2523C372.227 97.2523 365.028 172.999 364.507 174.907C363.987 176.814 356.571 176.554 356.462 173.714C356.354 170.874 354.597 111.149 354.294 108.113C353.781 104.13 353.723 100.1 354.12 96.1033L372.227 97.2523Z" fill="url(#paint48_linear_25_2016)"/>
<g style="mix-blend-mode:multiply">
<path d="M362.448 97.9459L354.055 96.2766C353.688 100.217 353.753 104.187 354.251 108.113C354.597 111.148 356.419 170.679 356.419 173.714C356.419 174.668 357.33 175.297 358.479 175.644L362.448 97.9459Z" fill="#CED3F4"/>
</g>
<path d="M366.502 46.2198C366.502 48.6045 369.842 52.5718 372.769 53.9159C372.921 53.9159 375.805 49.9703 375.805 49.9703C375.805 49.9703 379.557 52.9187 379.579 52.8536C380.246 50.8648 380.548 48.7714 380.468 46.6751C380.468 44.5072 377.475 42.5561 373.615 42.3393C369.755 42.1225 366.567 44.0086 366.502 46.2198Z" fill="white"/>
<path d="M378.126 41.6672C381.071 42.3188 383.829 43.6309 386.193 45.5044C388.188 47.4339 388.773 54.5229 388.882 56.8859C388.99 59.2489 387.928 85.1988 387.754 91.0738C387.602 95.7348 387.472 100.244 387.386 102.78C387.386 105.816 381.747 107.311 381.119 105.772C380.49 104.233 381.119 91.2472 381.769 86.1526C382.224 81.9903 381.769 58.5552 381.01 47.9975C381.048 46.7917 380.808 45.5933 380.308 44.4955C379.808 43.3976 379.061 42.4298 378.126 41.6672Z" fill="url(#paint49_linear_25_2016)"/>
<path d="M370.818 42.6211C370.818 42.6211 366.286 43.7484 367.457 47.1737C370.05 52.7917 372.359 58.5366 374.374 64.3868C377.194 73.6871 377.562 102.043 376.131 106.899C375.177 110.173 352.819 111.235 353.014 104.732C353.014 102.694 353.014 58.295 353.947 54.8697C355.27 50.3388 362.101 47.0653 366.524 44.5939C367.868 43.7606 369.31 43.0979 370.818 42.6211Z" fill="url(#paint50_linear_25_2016)"/>
<path d="M357.46 91.4856C357.46 91.4856 359.932 92.1143 362.491 92.5262C365.05 92.9381 368.086 93.3283 368.086 93.3283C368.086 93.3283 368.259 96.2984 366.806 96.5585C365.353 96.8187 357.698 95.8214 357.135 94.9976C356.571 94.1738 357.46 91.4856 357.46 91.4856Z" fill="url(#paint51_linear_25_2016)"/>
<g style="mix-blend-mode:multiply">
<path d="M366.763 75.3346L358.089 52.8751L354.923 52.7234C354.448 53.3802 354.088 54.1134 353.86 54.8913C352.884 58.2949 352.993 102.585 352.928 104.753C352.928 107.398 356.853 108.85 361.602 109.436L360.04 81.253C360.04 81.253 364.378 89.9246 365.852 90.4449C366.568 90.7267 385.369 97.2304 387.364 97.9242C387.364 95.8863 387.516 93.5884 387.581 91.1603C387.581 90.5316 387.581 89.6428 387.581 88.5588L366.763 75.3346Z" fill="#CED3F4"/>
</g>
<path d="M379.232 36.3123C379.427 34.8815 377.584 33.429 375.112 33.0605C372.639 32.6919 370.471 33.5808 370.232 35.0116L367.869 45.4392C367.63 47.1952 369.842 48.9295 372.813 49.3631C375.784 49.7967 378.429 48.7344 378.668 47.0001L379.232 36.3123Z" fill="#FFD4C0"/>
<g style="mix-blend-mode:multiply">
<path d="M371.295 40.2146C370.745 38.1894 370.576 36.0797 370.796 33.9927C371.413 33.5416 372.119 33.2271 372.867 33.0701C373.615 32.9131 374.387 32.9172 375.133 33.0822C377.605 33.4507 379.47 34.9032 379.254 36.3341L378.69 47.0218C378.632 47.411 378.458 47.7737 378.191 48.0624C374.944 46.4614 372.465 43.6395 371.295 40.2146Z" fill="#F1D5BE"/>
</g>
<path d="M382.767 28.9849C384.935 32.9305 382.983 45.8729 378.907 45.8946C374.83 45.9163 370.948 40.9301 369.929 37.6132C368.91 34.2963 368.888 27.3373 372.444 25.6464C374.261 24.751 376.356 24.5988 378.283 25.2221C380.21 25.8455 381.819 27.1953 382.767 28.9849Z" fill="#FFD4C0"/>
<path d="M386.28 28.2044C387.104 30.9143 385.044 33.5374 380.208 33.299C377.814 33.3056 375.44 32.872 373.203 32.0199C373.203 32.0199 373.203 35.9221 372.596 36.0305C371.989 36.1389 371.577 33.1906 370.428 33.6892C369.278 34.1878 370.319 38.3935 369.322 39.174C368.324 39.9544 367.847 37.483 367.76 34.513C367.674 31.5429 366.785 23.977 373.377 23.3266C379.969 22.6762 385.607 25.9715 386.28 28.2044Z" fill="url(#paint52_linear_25_2016)"/>
<path d="M402.5 196.889C402.286 196.892 402.073 196.852 401.874 196.771C401.676 196.691 401.495 196.571 401.343 196.419C401.192 196.268 401.072 196.087 400.991 195.889C400.911 195.69 400.871 195.477 400.874 195.263V4.31416C400.874 3.88294 401.045 3.46937 401.35 3.16445C401.655 2.85953 402.069 2.68823 402.5 2.68823C402.931 2.68823 403.345 2.85953 403.65 3.16445C403.955 3.46937 404.126 3.88294 404.126 4.31416V195.263C404.126 195.694 403.955 196.108 403.65 196.413C403.345 196.718 402.931 196.889 402.5 196.889Z" fill="url(#paint53_linear_25_2016)"/>
<path d="M403.194 56.9943C410.35 47.759 430.04 36.0957 444.786 61.5035C457.797 83.898 485.988 69.8716 483.646 71.5409V25.4079C486.032 23.7386 457.776 37.7649 444.786 15.3705C430.04 -10.0374 410.35 1.626 403.194 10.8613V56.9943Z" fill="url(#paint54_linear_25_2016)"/>
<path style="mix-blend-mode:screen" opacity="0.5" d="M444.786 55.2599C451.509 80.2342 485.988 69.8716 483.646 71.5409V25.4079C486.032 23.7386 457.776 37.7649 444.786 15.3705C430.04 -10.0374 410.35 1.626 403.194 10.8613C403.194 10.8613 429.39 -1.95105 444.786 55.2599Z" fill="url(#paint55_radial_25_2016)"/>
<path d="M400.852 88.3856C400.852 88.3856 400.852 88.6023 400.852 88.5807C400.245 88.4289 400.137 88.7541 400.137 88.7541C400.137 88.7541 400.787 89.3611 402.305 89.6429C403.823 89.9248 405.515 89.4045 405.688 90.4451C405.862 91.4857 405.038 91.2038 405.038 91.2038C405.038 91.2038 406.274 91.2038 406.057 92.3962C405.84 93.5885 404.734 93.0249 404.734 93.0249C404.734 93.0249 405.905 93.0249 405.385 94.1522C405.038 94.8242 403.65 94.3907 403.65 94.3907C403.65 94.3907 404.691 94.5424 404.582 95.2578C404.474 95.9732 403.498 95.8865 401.72 95.8432C399.612 95.6084 397.547 95.0831 395.583 94.2823C395.019 94.0221 392.178 92.9165 392.178 92.9165L393.653 87.9736C394.689 87.973 395.719 87.8196 396.71 87.5184C398.043 86.9792 399.494 86.7998 400.917 86.9981L400.852 88.3856Z" fill="#FFD4C0"/>
<path d="M356.116 52.3332C351.778 54.5012 353.427 61.33 355.617 65.8826C357.048 68.8527 359.065 73.4053 360.279 76.2886C361.494 79.1719 364.269 85.784 367.479 87.3882C370.688 88.9925 392.308 93.892 392.308 93.892L394.845 87.5183L373.03 77.8278C373.03 77.8278 369.105 65.991 367.826 62.8693C365.527 57.5579 363.12 48.6912 356.116 52.3332Z" fill="url(#paint56_linear_25_2016)"/>
</g>
<defs>
<linearGradient id="paint0_linear_25_2016" x1="2.78383e-05" y1="335.093" x2="791.815" y2="335.093" gradientUnits="userSpaceOnUse">
<stop stop-color="#CDD2F3"/>
<stop offset="0.15" stop-color="#F5F7FF"/>
<stop offset="0.22" stop-color="#DFE3F9"/>
<stop offset="0.29" stop-color="#D2D7F6"/>
<stop offset="0.34" stop-color="#C8CDF1"/>
<stop offset="0.45" stop-color="#B6BCE8"/>
<stop offset="0.53" stop-color="#AFB6E5"/>
<stop offset="0.66" stop-color="#B2B9E6"/>
<stop offset="0.77" stop-color="#BCC2EB"/>
<stop offset="0.8" stop-color="#C1C6ED"/>
<stop offset="0.94" stop-color="#AFB6E5"/>
</linearGradient>
<linearGradient id="paint1_linear_25_2016" x1="541.885" y1="73.9053" x2="243.252" y2="563.169" gradientUnits="userSpaceOnUse">
<stop offset="0.02" stop-color="#E5E9FF"/>
<stop offset="0.66" stop-color="#F5F6FF"/>
<stop offset="1" stop-color="white"/>
</linearGradient>
<radialGradient id="paint2_radial_25_2016" cx="0" cy="0" r="1" gradientUnits="userSpaceOnUse" gradientTransform="translate(212.537 456.864) scale(234.114 234.047)">
<stop stop-color="white"/>
<stop offset="1"/>
</radialGradient>
<linearGradient id="paint3_linear_25_2016" x1="203498" y1="108078" x2="455094" y2="108078" gradientUnits="userSpaceOnUse">
<stop stop-color="#CDD2F3"/>
<stop offset="0.15" stop-color="#F5F7FF"/>
<stop offset="0.22" stop-color="#DFE3F9"/>
<stop offset="0.29" stop-color="#D2D7F6"/>
<stop offset="0.34" stop-color="#C8CDF1"/>
<stop offset="0.45" stop-color="#B6BCE8"/>
<stop offset="0.53" stop-color="#AFB6E5"/>
<stop offset="0.66" stop-color="#B2B9E6"/>
<stop offset="0.77" stop-color="#BCC2EB"/>
<stop offset="0.8" stop-color="#C1C6ED"/>
<stop offset="0.94" stop-color="#AFB6E5"/>
</linearGradient>
<linearGradient id="paint4_linear_25_2016" x1="230293" y1="79588.7" x2="97211" y2="208653" gradientUnits="userSpaceOnUse">
<stop offset="0.02" stop-color="#E5E9FF"/>
<stop offset="0.66" stop-color="#F5F6FF"/>
<stop offset="1" stop-color="white"/>
</linearGradient>
<radialGradient id="paint5_radial_25_2016" cx="0" cy="0" r="1" gradientUnits="userSpaceOnUse" gradientTransform="translate(264425 72634.2) scale(94143.9 27425.1)">
<stop stop-color="white"/>
<stop offset="1"/>
</radialGradient>
<linearGradient id="paint6_linear_25_2016" x1="182113" y1="88349.4" x2="342315" y2="88349.4" gradientUnits="userSpaceOnUse">
<stop stop-color="#CDD2F3"/>
<stop offset="0.15" stop-color="#F5F7FF"/>
<stop offset="0.22" stop-color="#DFE3F9"/>
<stop offset="0.29" stop-color="#D2D7F6"/>
<stop offset="0.34" stop-color="#C8CDF1"/>
<stop offset="0.45" stop-color="#B6BCE8"/>
<stop offset="0.53" stop-color="#AFB6E5"/>
<stop offset="0.66" stop-color="#B2B9E6"/>
<stop offset="0.77" stop-color="#BCC2EB"/>
<stop offset="0.8" stop-color="#C1C6ED"/>
<stop offset="0.94" stop-color="#AFB6E5"/>
</linearGradient>
<linearGradient id="paint7_linear_25_2016" x1="168450" y1="96190.2" x2="97531.4" y2="162652" gradientUnits="userSpaceOnUse">
<stop offset="0.02" stop-color="#E5E9FF"/>
<stop offset="0.66" stop-color="#F5F6FF"/>
<stop offset="1" stop-color="white"/>
</linearGradient>
<radialGradient id="paint8_radial_25_2016" cx="0" cy="0" r="1" gradientUnits="userSpaceOnUse" gradientTransform="translate(263579 48578.9) scale(59955.2 17495.9)">
<stop stop-color="white"/>
<stop offset="1"/>
</radialGradient>
<linearGradient id="paint9_linear_25_2016" x1="220.249" y1="381.075" x2="626.395" y2="78.8878" gradientUnits="userSpaceOnUse">
<stop stop-color="#F36DD4"/>
<stop offset="0.06" stop-color="#DA6DE2"/>
<stop offset="0.13" stop-color="#BB6DF3"/>
<stop offset="0.26" stop-color="#A26DF3"/>
<stop offset="0.39" stop-color="#836DF3"/>
<stop offset="0.57" stop-color="#9C6DF3"/>
<stop offset="0.76" stop-color="#BB6DF3"/>
<stop offset="0.99" stop-color="#F36DD4"/>
</linearGradient>
<radialGradient id="paint10_radial_25_2016" cx="0" cy="0" r="1" gradientUnits="userSpaceOnUse" gradientTransform="translate(173.504 282.348) scale(230.124 230.058)">
<stop stop-color="#BB6DF3"/>
<stop offset="0.11" stop-color="#9155BD"/>
<stop offset="0.23" stop-color="#6B3E8B"/>
<stop offset="0.36" stop-color="#4A2B60"/>
<stop offset="0.48" stop-color="#2F1C3E"/>
<stop offset="0.61" stop-color="#1B0F23"/>
<stop offset="0.73" stop-color="#0C070F"/>
<stop offset="0.86" stop-color="#030204"/>
<stop offset="1"/>
</radialGradient>
<radialGradient id="paint11_radial_25_2016" cx="0" cy="0" r="1" gradientUnits="userSpaceOnUse" gradientTransform="translate(263825 42211.6) scale(35692.3 12222.5)">
<stop stop-color="#BB6DF3"/>
<stop offset="0.11" stop-color="#9155BD"/>
<stop offset="0.23" stop-color="#6B3E8B"/>
<stop offset="0.36" stop-color="#4A2B60"/>
<stop offset="0.48" stop-color="#2F1C3E"/>
<stop offset="0.61" stop-color="#1B0F23"/>
<stop offset="0.73" stop-color="#0C070F"/>
<stop offset="0.86" stop-color="#030204"/>
<stop offset="1"/>
</radialGradient>
<linearGradient id="paint12_linear_25_2016" x1="129083" y1="85367.4" x2="95250.9" y2="131751" gradientUnits="userSpaceOnUse">
<stop offset="0.02" stop-color="#E5E9FF"/>
<stop offset="0.66" stop-color="#F5F6FF"/>
<stop offset="1" stop-color="white"/>
</linearGradient>
<linearGradient id="paint13_linear_25_2016" x1="129083" y1="84651.3" x2="95251" y2="131035" gradientUnits="userSpaceOnUse">
<stop offset="0.02" stop-color="#E5E9FF"/>
<stop offset="0.66" stop-color="#F5F6FF"/>
<stop offset="1" stop-color="white"/>
</linearGradient>
<linearGradient id="paint14_linear_25_2016" x1="149576" y1="57745.9" x2="235732" y2="57745.9" gradientUnits="userSpaceOnUse">
<stop stop-color="#CDD2F3"/>
<stop offset="0.15" stop-color="#F5F7FF"/>
<stop offset="0.22" stop-color="#DFE3F9"/>
<stop offset="0.29" stop-color="#D2D7F6"/>
<stop offset="0.34" stop-color="#C8CDF1"/>
<stop offset="0.45" stop-color="#B6BCE8"/>
<stop offset="0.53" stop-color="#AFB6E5"/>
<stop offset="0.66" stop-color="#B2B9E6"/>
<stop offset="0.77" stop-color="#BCC2EB"/>
<stop offset="0.8" stop-color="#C1C6ED"/>
<stop offset="0.94" stop-color="#AFB6E5"/>
</linearGradient>
<linearGradient id="paint15_linear_25_2016" x1="122228" y1="75201.4" x2="80733.4" y2="109132" gradientUnits="userSpaceOnUse">
<stop offset="0.02" stop-color="#E5E9FF"/>
<stop offset="0.66" stop-color="#F5F6FF"/>
<stop offset="1" stop-color="white"/>
</linearGradient>
<radialGradient id="paint16_radial_25_2016" cx="0" cy="0" r="1" gradientUnits="userSpaceOnUse" gradientTransform="translate(173570 35534.1) scale(32250.2 9438.99)">
<stop stop-color="white"/>
<stop offset="1"/>
</radialGradient>
<linearGradient id="paint17_linear_25_2016" x1="80813.2" y1="91569.9" x2="122589" y2="91569.9" gradientUnits="userSpaceOnUse">
<stop stop-color="#F36DD4"/>
<stop offset="0.06" stop-color="#DA6DE2"/>
<stop offset="0.13" stop-color="#BB6DF3"/>
<stop offset="0.26" stop-color="#A26DF3"/>
<stop offset="0.39" stop-color="#836DF3"/>
<stop offset="0.57" stop-color="#9C6DF3"/>
<stop offset="0.76" stop-color="#BB6DF3"/>
<stop offset="0.99" stop-color="#F36DD4"/>
</linearGradient>
<radialGradient id="paint18_radial_25_2016" cx="0" cy="0" r="1" gradientUnits="userSpaceOnUse" gradientTransform="translate(162963 28269) scale(15066.4 5528.25)">
<stop stop-color="#BB6DF3"/>
<stop offset="0.11" stop-color="#9155BD"/>
<stop offset="0.23" stop-color="#6B3E8B"/>
<stop offset="0.36" stop-color="#4A2B60"/>
<stop offset="0.48" stop-color="#2F1C3E"/>
<stop offset="0.61" stop-color="#1B0F23"/>
<stop offset="0.73" stop-color="#0C070F"/>
<stop offset="0.86" stop-color="#030204"/>
<stop offset="1"/>
</radialGradient>
<radialGradient id="paint19_radial_25_2016" cx="0" cy="0" r="1" gradientUnits="userSpaceOnUse" gradientTransform="translate(120337 28210.8) scale(6578.05 2413.66)">
<stop stop-color="#BB6DF3"/>
<stop offset="0.11" stop-color="#9155BD"/>
<stop offset="0.23" stop-color="#6B3E8B"/>
<stop offset="0.36" stop-color="#4A2B60"/>
<stop offset="0.48" stop-color="#2F1C3E"/>
<stop offset="0.61" stop-color="#1B0F23"/>
<stop offset="0.73" stop-color="#0C070F"/>
<stop offset="0.86" stop-color="#030204"/>
<stop offset="1"/>
</radialGradient>
<linearGradient id="paint20_linear_25_2016" x1="86875" y1="59757" x2="62411.3" y2="80066.4" gradientUnits="userSpaceOnUse">
<stop offset="0.02" stop-color="#E5E9FF"/>
<stop offset="0.66" stop-color="#F5F6FF"/>
<stop offset="1" stop-color="white"/>
</linearGradient>
<linearGradient id="paint21_linear_25_2016" x1="86875" y1="60076" x2="62411.3" y2="80385.3" gradientUnits="userSpaceOnUse">
<stop offset="0.02" stop-color="#E5E9FF"/>
<stop offset="0.66" stop-color="#F5F6FF"/>
<stop offset="1" stop-color="white"/>
</linearGradient>
<linearGradient id="paint22_linear_25_2016" x1="86875" y1="59757" x2="62411.3" y2="80066.4" gradientUnits="userSpaceOnUse">
<stop offset="0.02" stop-color="#E5E9FF"/>
<stop offset="0.66" stop-color="#F5F6FF"/>
<stop offset="1" stop-color="white"/>
</linearGradient>
<linearGradient id="paint23_linear_25_2016" x1="105405" y1="36640.5" x2="140239" y2="36640.5" gradientUnits="userSpaceOnUse">
<stop stop-color="#CDD2F3"/>
<stop offset="0.15" stop-color="#F5F7FF"/>
<stop offset="0.22" stop-color="#DFE3F9"/>
<stop offset="0.29" stop-color="#D2D7F6"/>
<stop offset="0.34" stop-color="#C8CDF1"/>
<stop offset="0.45" stop-color="#B6BCE8"/>
<stop offset="0.53" stop-color="#AFB6E5"/>
<stop offset="0.66" stop-color="#B2B9E6"/>
<stop offset="0.77" stop-color="#BCC2EB"/>
<stop offset="0.8" stop-color="#C1C6ED"/>
<stop offset="0.94" stop-color="#AFB6E5"/>
</linearGradient>
<linearGradient id="paint24_linear_25_2016" x1="75914.1" y1="50211.1" x2="57615.3" y2="65618.1" gradientUnits="userSpaceOnUse">
<stop offset="0.02" stop-color="#E5E9FF"/>
<stop offset="0.66" stop-color="#F5F6FF"/>
<stop offset="1" stop-color="white"/>
</linearGradient>
<radialGradient id="paint25_radial_25_2016" cx="0" cy="0" r="1" gradientUnits="userSpaceOnUse" gradientTransform="translate(116808 20746.7) scale(13060.2 3839.21)">
<stop stop-color="white"/>
<stop offset="1"/>
</radialGradient>
<linearGradient id="paint26_linear_25_2016" x1="53657.9" y1="53056.6" x2="68697.6" y2="53056.6" gradientUnits="userSpaceOnUse">
<stop stop-color="#F36DD4"/>
<stop offset="0.06" stop-color="#DA6DE2"/>
<stop offset="0.13" stop-color="#BB6DF3"/>
<stop offset="0.26" stop-color="#A26DF3"/>
<stop offset="0.39" stop-color="#836DF3"/>
<stop offset="0.57" stop-color="#9C6DF3"/>
<stop offset="0.76" stop-color="#BB6DF3"/>
<stop offset="0.99" stop-color="#F36DD4"/>
</linearGradient>
<linearGradient id="paint27_linear_25_2016" x1="53657.9" y1="53056.6" x2="68697.6" y2="53056.6" gradientUnits="userSpaceOnUse">
<stop stop-color="#F36DD4"/>
<stop offset="0.06" stop-color="#DA6DE2"/>
<stop offset="0.13" stop-color="#BB6DF3"/>
<stop offset="0.26" stop-color="#A26DF3"/>
<stop offset="0.39" stop-color="#836DF3"/>
<stop offset="0.57" stop-color="#9C6DF3"/>
<stop offset="0.76" stop-color="#BB6DF3"/>
<stop offset="0.99" stop-color="#F36DD4"/>
</linearGradient>
<radialGradient id="paint28_radial_25_2016" cx="0" cy="0" r="1" gradientUnits="userSpaceOnUse" gradientTransform="translate(76082.2 16152.4) scale(3612.94 1589.84)">
<stop stop-color="#BB6DF3"/>
<stop offset="0.11" stop-color="#9155BD"/>
<stop offset="0.23" stop-color="#6B3E8B"/>
<stop offset="0.36" stop-color="#4A2B60"/>
<stop offset="0.48" stop-color="#2F1C3E"/>
<stop offset="0.61" stop-color="#1B0F23"/>
<stop offset="0.73" stop-color="#0C070F"/>
<stop offset="0.86" stop-color="#030204"/>
<stop offset="1"/>
</radialGradient>
<radialGradient id="paint29_radial_25_2016" cx="0" cy="0" r="1" gradientUnits="userSpaceOnUse" gradientTransform="translate(64630.9 16233.4) scale(4555.44 2004.58)">
<stop stop-color="#BB6DF3"/>
<stop offset="0.11" stop-color="#9155BD"/>
<stop offset="0.23" stop-color="#6B3E8B"/>
<stop offset="0.36" stop-color="#4A2B60"/>
<stop offset="0.48" stop-color="#2F1C3E"/>
<stop offset="0.61" stop-color="#1B0F23"/>
<stop offset="0.73" stop-color="#0C070F"/>
<stop offset="0.86" stop-color="#030204"/>
<stop offset="1"/>
</radialGradient>
<linearGradient id="paint30_linear_25_2016" x1="42967.3" y1="32577.7" x2="34352.3" y2="36799" gradientUnits="userSpaceOnUse">
<stop offset="0.02" stop-color="#E5E9FF"/>
<stop offset="0.66" stop-color="#F5F6FF"/>
<stop offset="1" stop-color="white"/>
</linearGradient>
<linearGradient id="paint31_linear_25_2016" x1="42967.3" y1="32417.2" x2="34352.3" y2="36638.5" gradientUnits="userSpaceOnUse">
<stop offset="0.02" stop-color="#E5E9FF"/>
<stop offset="0.66" stop-color="#F5F6FF"/>
<stop offset="1" stop-color="white"/>
</linearGradient>
<linearGradient id="paint32_linear_25_2016" x1="343.083" y1="204.39" x2="460.01" y2="204.39" gradientUnits="userSpaceOnUse">
<stop stop-color="#CDD2F3"/>
<stop offset="0.05" stop-color="#E5E9FF"/>
<stop offset="0.08" stop-color="#EFF2FF"/>
<stop offset="0.13" stop-color="white"/>
<stop offset="0.19" stop-color="#E3E5F6"/>
<stop offset="0.26" stop-color="#CCD1EE"/>
<stop offset="0.34" stop-color="#BCC2E9"/>
<stop offset="0.42" stop-color="#B2B9E6"/>
<stop offset="0.53" stop-color="#AFB6E5"/>
<stop offset="0.65" stop-color="#B2B9E7"/>
<stop offset="0.75" stop-color="#BCC2EB"/>
<stop offset="0.83" stop-color="#CDD2F3"/>
<stop offset="0.94" stop-color="#AFB6E5"/>
</linearGradient>
<linearGradient id="paint33_linear_25_2016" x1="32412.8" y1="22910.5" x2="28331.2" y2="25348.1" gradientUnits="userSpaceOnUse">
<stop offset="0.02" stop-color="#E5E9FF"/>
<stop offset="0.66" stop-color="#F5F6FF"/>
<stop offset="1" stop-color="white"/>
</linearGradient>
<radialGradient id="paint34_radial_25_2016" cx="0" cy="0" r="1" gradientUnits="userSpaceOnUse" gradientTransform="translate(53021.3 8168.44) scale(2402.29 720.651)">
<stop stop-color="white"/>
<stop offset="1"/>
</radialGradient>
<linearGradient id="paint35_linear_25_2016" x1="356.179" y1="148.257" x2="380.718" y2="191.11" gradientUnits="userSpaceOnUse">
<stop offset="0.02" stop-color="#836DF3"/>
<stop offset="0.54" stop-color="#BB6DF3"/>
<stop offset="0.69" stop-color="#CA6DEA"/>
<stop offset="1" stop-color="#F36DD4"/>
</linearGradient>
<linearGradient id="paint36_linear_25_2016" x1="402.5" y1="213.712" x2="402.5" y2="174.408" gradientUnits="userSpaceOnUse">
<stop offset="0.01" stop-color="white"/>
<stop offset="0.05" stop-color="#F1EFF9"/>
<stop offset="0.13" stop-color="#CCC6EA"/>
<stop offset="0.24" stop-color="#9183D2"/>
<stop offset="0.38" stop-color="#4128B0"/>
<stop offset="0.4" stop-color="#361CAC"/>
<stop offset="0.77" stop-color="#440B89"/>
<stop offset="1" stop-color="#4E0070"/>
</linearGradient>
<linearGradient id="paint37_linear_25_2016" x1="169.649" y1="334.61" x2="192.485" y2="136.583" gradientUnits="userSpaceOnUse">
<stop offset="0.01" stop-color="#273B98"/>
<stop offset="0.23" stop-color="#2F2BA2"/>
<stop offset="0.4" stop-color="#361CAC"/>
<stop offset="0.77" stop-color="#440B89"/>
<stop offset="1" stop-color="#4E0070"/>
</linearGradient>
<radialGradient id="paint38_radial_25_2016" cx="0" cy="0" r="1" gradientUnits="userSpaceOnUse" gradientTransform="translate(147.287 240.009) scale(4.74904 4.7477)">
<stop offset="0.03" stop-color="#FEDFCB"/>
<stop offset="1" stop-color="#F9B69E"/>
</radialGradient>
<linearGradient id="paint39_linear_25_2016" x1="118.965" y1="304.092" x2="125.727" y2="237.992" gradientUnits="userSpaceOnUse">
<stop offset="0.01" stop-color="#66CCFF"/>
<stop offset="0.2" stop-color="#42CAEB"/>
<stop offset="0.53" stop-color="#00C7C5"/>
<stop offset="0.67" stop-color="#09CEBE"/>
<stop offset="0.91" stop-color="#21E1AB"/>
<stop offset="1" stop-color="#2BE9A3"/>
</linearGradient>
<linearGradient id="paint40_linear_25_2016" x1="13633" y1="20489.2" x2="14809.7" y2="18969" gradientUnits="userSpaceOnUse">
<stop offset="0.01" stop-color="#273B98"/>
<stop offset="0.23" stop-color="#2F2BA2"/>
<stop offset="0.4" stop-color="#361CAC"/>
<stop offset="0.77" stop-color="#440B89"/>
<stop offset="1" stop-color="#4E0070"/>
</linearGradient>
<linearGradient id="paint41_linear_25_2016" x1="14879.3" y1="8432.49" x2="14137.7" y2="8051.05" gradientUnits="userSpaceOnUse">
<stop offset="0.01" stop-color="#273B98"/>
<stop offset="0.23" stop-color="#2F2BA2"/>
<stop offset="0.4" stop-color="#361CAC"/>
<stop offset="0.77" stop-color="#440B89"/>
<stop offset="1" stop-color="#4E0070"/>
</linearGradient>
<linearGradient id="paint42_linear_25_2016" x1="23437.8" y1="19273" x2="24059.2" y2="17210.7" gradientUnits="userSpaceOnUse">
<stop offset="0.01" stop-color="#66CCFF"/>
<stop offset="0.2" stop-color="#42CAEB"/>
<stop offset="0.53" stop-color="#00C7C5"/>
<stop offset="0.67" stop-color="#09CEBE"/>
<stop offset="0.91" stop-color="#21E1AB"/>
<stop offset="1" stop-color="#2BE9A3"/>
</linearGradient>
<linearGradient id="paint43_linear_25_2016" x1="130.192" y1="243.454" x2="121.685" y2="227.72" gradientUnits="userSpaceOnUse">
<stop offset="0.1" stop-color="#45108A"/>
<stop offset="1" stop-color="#7C1DC9"/>
</linearGradient>
<linearGradient id="paint44_linear_25_2016" x1="177.385" y1="176.879" x2="207.454" y2="208.583" gradientUnits="userSpaceOnUse">
<stop stop-color="#5277F7"/>
<stop offset="0.07" stop-color="#5890F9"/>
<stop offset="0.21" stop-color="#66CCFF"/>
<stop offset="0.27" stop-color="#63BFFE"/>
<stop offset="0.39" stop-color="#5B9BFA"/>
<stop offset="0.49" stop-color="#5277F7"/>
<stop offset="0.66" stop-color="#6B72F5"/>
<stop offset="0.8" stop-color="#836DF3"/>
<stop offset="0.99" stop-color="#BB6DF3"/>
</linearGradient>
<radialGradient id="paint45_radial_25_2016" cx="0" cy="0" r="1" gradientUnits="userSpaceOnUse" gradientTransform="translate(8685.59 19644.6) scale(401.095 1608.45)">
<stop stop-color="#BB6DF3"/>
<stop offset="0.11" stop-color="#9155BD"/>
<stop offset="0.23" stop-color="#6B3E8B"/>
<stop offset="0.36" stop-color="#4A2B60"/>
<stop offset="0.48" stop-color="#2F1C3E"/>
<stop offset="0.61" stop-color="#1B0F23"/>
<stop offset="0.73" stop-color="#0C070F"/>
<stop offset="0.86" stop-color="#030204"/>
<stop offset="1"/>
</radialGradient>
<linearGradient id="paint46_linear_25_2016" x1="1261.14" y1="2634.88" x2="1316.76" y2="2627.49" gradientUnits="userSpaceOnUse">
<stop offset="0.01" stop-color="#273B98"/>
<stop offset="0.23" stop-color="#2F2BA2"/>
<stop offset="0.4" stop-color="#361CAC"/>
<stop offset="0.77" stop-color="#440B89"/>
<stop offset="1" stop-color="#4E0070"/>
</linearGradient>
<linearGradient id="paint47_linear_25_2016" x1="-717.557" y1="14531.2" x2="-872.605" y2="12247.7" gradientUnits="userSpaceOnUse">
<stop offset="0.01" stop-color="#273B98"/>
<stop offset="0.23" stop-color="#2F2BA2"/>
<stop offset="0.4" stop-color="#361CAC"/>
<stop offset="0.77" stop-color="#440B89"/>
<stop offset="1" stop-color="#4E0070"/>
</linearGradient>
<linearGradient id="paint48_linear_25_2016" x1="-876.425" y1="16671.8" x2="-313.048" y2="13928.1" gradientUnits="userSpaceOnUse">
<stop offset="0.01" stop-color="#273B98"/>
<stop offset="0.23" stop-color="#2F2BA2"/>
<stop offset="0.4" stop-color="#361CAC"/>
<stop offset="0.77" stop-color="#440B89"/>
<stop offset="1" stop-color="#4E0070"/>
</linearGradient>
<linearGradient id="paint49_linear_25_2016" x1="1303.29" y1="4613.33" x2="509.155" y2="3163.37" gradientUnits="userSpaceOnUse">
<stop offset="0.01" stop-color="#66CCFF"/>
<stop offset="0.2" stop-color="#42CAEB"/>
<stop offset="0.53" stop-color="#00C7C5"/>
<stop offset="0.67" stop-color="#09CEBE"/>
<stop offset="0.91" stop-color="#21E1AB"/>
<stop offset="1" stop-color="#2BE9A3"/>
</linearGradient>
<linearGradient id="paint50_linear_25_2016" x1="805.206" y1="4998.95" x2="646.186" y2="2994.63" gradientUnits="userSpaceOnUse">
<stop offset="0.01" stop-color="#66CCFF"/>
<stop offset="0.2" stop-color="#42CAEB"/>
<stop offset="0.53" stop-color="#00C7C5"/>
<stop offset="0.67" stop-color="#09CEBE"/>
<stop offset="0.91" stop-color="#21E1AB"/>
<stop offset="1" stop-color="#2BE9A3"/>
</linearGradient>
<linearGradient id="paint51_linear_25_2016" x1="1018" y1="669.813" x2="1020.4" y2="590.965" gradientUnits="userSpaceOnUse">
<stop offset="0.01" stop-color="#66CCFF"/>
<stop offset="0.2" stop-color="#42CAEB"/>
<stop offset="0.53" stop-color="#00C7C5"/>
<stop offset="0.67" stop-color="#09CEBE"/>
<stop offset="0.91" stop-color="#21E1AB"/>
<stop offset="1" stop-color="#2BE9A3"/>
</linearGradient>
<linearGradient id="paint52_linear_25_2016" x1="-48355.8" y1="2364.36" x2="-48331" y2="2230.81" gradientUnits="userSpaceOnUse">
<stop offset="0.1" stop-color="#45108A"/>
<stop offset="1" stop-color="#7C1DC9"/>
</linearGradient>
<linearGradient id="paint53_linear_25_2016" x1="1843.19" y1="41854.9" x2="1843.19" y2="24757.5" gradientUnits="userSpaceOnUse">
<stop offset="0.01" stop-color="#273B98"/>
<stop offset="0.23" stop-color="#2F2BA2"/>
<stop offset="0.4" stop-color="#361CAC"/>
<stop offset="0.77" stop-color="#440B89"/>
<stop offset="1" stop-color="#4E0070"/>
</linearGradient>
<linearGradient id="paint54_linear_25_2016" x1="36163.8" y1="10679.5" x2="39374.6" y2="10679.5" gradientUnits="userSpaceOnUse">
<stop stop-color="#5277F7"/>
<stop offset="0.07" stop-color="#5890F9"/>
<stop offset="0.21" stop-color="#66CCFF"/>
<stop offset="0.27" stop-color="#63BFFE"/>
<stop offset="0.39" stop-color="#5B9BFA"/>
<stop offset="0.49" stop-color="#5277F7"/>
<stop offset="0.66" stop-color="#6B72F5"/>
<stop offset="0.8" stop-color="#836DF3"/>
<stop offset="0.99" stop-color="#BB6DF3"/>
</linearGradient>
<radialGradient id="paint55_radial_25_2016" cx="0" cy="0" r="1" gradientUnits="userSpaceOnUse" gradientTransform="translate(36915.7 9785.73) scale(1423.3 1276.9)">
<stop stop-color="#BB6DF3"/>
<stop offset="0.11" stop-color="#9155BD"/>
<stop offset="0.23" stop-color="#6B3E8B"/>
<stop offset="0.36" stop-color="#4A2B60"/>
<stop offset="0.48" stop-color="#2F1C3E"/>
<stop offset="0.61" stop-color="#1B0F23"/>
<stop offset="0.73" stop-color="#0C070F"/>
<stop offset="0.86" stop-color="#030204"/>
<stop offset="1"/>
</radialGradient>
<linearGradient id="paint56_linear_25_2016" x1="541.142" y1="2869.76" x2="158.214" y2="2124.35" gradientUnits="userSpaceOnUse">
<stop offset="0.01" stop-color="#66CCFF"/>
<stop offset="0.2" stop-color="#42CAEB"/>
<stop offset="0.53" stop-color="#00C7C5"/>
<stop offset="0.67" stop-color="#09CEBE"/>
<stop offset="0.91" stop-color="#21E1AB"/>
<stop offset="1" stop-color="#2BE9A3"/>
</linearGradient>
<clipPath id="clip0_25_2016">
<rect width="805" height="549" fill="white"/>
</clipPath>
</defs>
</svg>
