<svg width="574" height="448" viewBox="0 0 574 448" fill="none" xmlns="http://www.w3.org/2000/svg">
<mask id="mask0_134_2248" style="mask-type:alpha" maskUnits="userSpaceOnUse" x="0" y="0" width="574" height="448">
<rect width="574" height="448" rx="21" fill="url(#paint0_linear_134_2248)"/>
</mask>
<g mask="url(#mask0_134_2248)">
<path d="M323.996 -72.3087C323.258 -73.6293 323.73 -75.2993 325.057 -76.0263C362.62 -96.612 403.807 -109.768 446.366 -114.764C489.832 -119.866 533.877 -116.357 575.987 -104.437C618.097 -92.5173 657.447 -72.4201 691.79 -45.2929C725.416 -18.7318 753.598 14.0596 774.798 51.2791C775.547 52.5937 775.074 54.2633 773.753 55.0012C772.433 55.7392 770.765 55.266 770.016 53.9515C749.166 17.36 721.456 -14.8787 688.394 -40.9938C654.616 -67.6751 615.913 -87.442 574.495 -99.1658C533.078 -110.89 489.756 -114.341 447.005 -109.322C405.16 -104.41 364.664 -91.4786 327.729 -71.2437C326.402 -70.5168 324.734 -70.988 323.996 -72.3087Z" fill="#E6007A"/>
<path d="M227.525 187.554C226.215 186.797 225.765 185.121 226.532 183.817C248.253 146.899 276.893 114.507 310.889 88.421C345.609 61.7789 385.238 42.2365 427.511 30.9094C469.784 19.5823 513.874 16.6925 557.264 22.4049C600.654 28.1173 642.494 42.3201 680.396 64.2023C718.297 86.0845 751.517 115.218 778.159 149.938C804.801 184.659 824.343 224.287 835.67 266.56C846.998 308.834 849.887 352.924 844.175 396.314C838.582 438.799 824.849 479.797 803.738 517.067C802.992 518.383 801.315 518.832 800.005 518.076C798.695 517.319 798.247 515.644 798.993 514.328C819.745 477.681 833.244 437.37 838.743 395.599C844.362 352.922 841.52 309.557 830.379 267.978C819.238 226.4 800.017 187.423 773.812 153.273C747.608 119.123 714.934 90.4693 677.656 68.9467C640.378 47.4242 599.226 33.4549 556.549 27.8364C513.873 22.2179 470.507 25.0603 428.929 36.2011C387.35 47.342 348.374 66.5632 314.224 92.7674C280.798 118.416 252.638 150.262 231.277 186.557C230.509 187.861 228.835 188.31 227.525 187.554Z" fill="#1C1C26"/>
<line y1="-1.95657" x2="30.0295" y2="-1.95657" transform="matrix(-0.931311 0.249545 -0.252585 -0.942665 382.347 439.457)" stroke="#8BA1BE" stroke-opacity="0.2" stroke-width="3.91314"/>
<g filter="url(#filter0_d_134_2248)">
<path fill-rule="evenodd" clip-rule="evenodd" d="M545.839 249.369L570.484 51.1039L569.859 51.0761L545.213 249.342L545.839 249.369ZM380.298 377.488L-356.923 260.429L-357.03 261.081L380.191 378.139L380.298 377.488Z" fill="#8BA1BE" fill-opacity="0.2"/>
</g>
<circle cx="532.56" cy="397.52" r="132.196" stroke="#E6007A" stroke-width="3.91314" stroke-linecap="round" stroke-linejoin="round" stroke-dasharray="0.44 10.89"/>
<circle cx="532.287" cy="397.538" r="144.381" stroke="#E6007A" stroke-width="4.56534" stroke-linecap="round" stroke-linejoin="round" stroke-dasharray="0.44 10.89"/>
<circle cx="532.56" cy="397.52" r="121.431" stroke="#E6007A" stroke-width="3.26095" stroke-linecap="round" stroke-linejoin="round" stroke-dasharray="0.44 10.89"/>
<circle cx="532.56" cy="397.52" r="110.665" stroke="#E6007A" stroke-width="2.60876" stroke-linecap="round" stroke-linejoin="round" stroke-dasharray="0.44 10.89"/>
<circle cx="532.56" cy="397.52" r="99.9004" stroke="#E6007A" stroke-width="1.95657" stroke-linecap="round" stroke-linejoin="round" stroke-dasharray="0.44 10.89"/>
<circle cx="532.56" cy="397.52" r="89.1352" stroke="#E6007A" stroke-width="1.30438" stroke-linecap="round" stroke-linejoin="round" stroke-dasharray="0.44 10.89"/>
<circle cx="532.56" cy="397.52" r="78.3701" stroke="#E6007A" stroke-width="0.652191" stroke-linecap="round" stroke-linejoin="round" stroke-dasharray="0.44 10.89"/>
<circle cx="532.287" cy="397.539" r="69.7729" stroke="#E6007A" stroke-width="1.30438" stroke-linecap="round" stroke-linejoin="round" stroke-dasharray="0.44 10.89"/>
<ellipse cx="532.156" cy="396.408" rx="147.069" ry="146.743" fill="url(#paint1_radial_134_2248)"/>
<path d="M529.073 407.352C534.182 407.352 538.324 409.776 538.324 412.767C538.324 415.757 534.182 418.182 529.073 418.182C523.965 418.182 519.823 415.757 519.823 412.767C519.823 409.776 523.965 407.352 529.073 407.352Z" fill="#E6007A"/>
<path d="M529.073 366.552C534.182 366.552 538.324 368.976 538.324 371.966C538.324 374.957 534.182 377.381 529.073 377.381C523.965 377.381 519.823 374.957 519.823 371.966C519.823 368.976 523.965 366.552 529.073 366.552Z" fill="#E6007A"/>
<path d="M516.185 399.857C518.739 404.31 518.722 409.133 516.148 410.63C513.573 412.126 509.415 409.729 506.86 405.276C504.306 400.823 504.323 396 506.897 394.504C509.472 393.008 513.63 395.404 516.185 399.857Z" fill="#E6007A"/>
<path d="M551.282 379.459C553.836 383.912 553.821 388.734 551.248 390.229C548.675 391.724 544.518 389.327 541.964 384.874C539.41 380.421 539.425 375.599 541.998 374.103C544.571 372.608 548.728 375.006 551.282 379.459Z" fill="#E6007A"/>
<path d="M516.15 374.102C518.724 375.598 518.741 380.421 516.187 384.874C513.632 389.327 509.474 391.724 506.899 390.227C504.325 388.731 504.308 383.908 506.862 379.455C509.417 375.002 513.575 372.605 516.15 374.102Z" fill="#E6007A"/>
<path d="M551.251 394.501C553.824 395.996 553.839 400.818 551.285 405.271C548.73 409.724 544.574 412.122 542.001 410.626C539.428 409.131 539.413 404.309 541.967 399.856C544.521 395.403 548.678 393.005 551.251 394.501Z" fill="#E6007A"/>
<path d="M151.78 86.6875L211.808 240.007L50.1816 262.661" stroke="#B7B8BB" stroke-width="1.30438" stroke-miterlimit="10"/>
<path d="M92.842 102.196L190.438 226.969L34.1436 203.865" stroke="#B7B8BB" stroke-width="1.30438" stroke-miterlimit="10"/>
<path d="M152.451 205.413L49.5693 146.014" stroke="#B7B8BB" stroke-width="1.30438" stroke-miterlimit="10"/>
<path d="M50.1815 262.661L34.1438 203.865L49.7456 145.094L92.8422 102.197L151.78 86.6876" stroke="#B7B8BB" stroke-width="1.30438" stroke-miterlimit="10"/>
<path d="M59.8164 152.195C63.1751 146.377 61.1394 138.914 55.2695 135.525C49.3997 132.136 41.9185 134.105 38.5599 139.922C35.2012 145.74 37.237 153.203 43.1068 156.592C48.9766 159.981 56.4578 158.012 59.8164 152.195Z" fill="#E6007A"/>
<path d="M60.8106 268.797C64.1692 262.98 62.1335 255.517 56.2637 252.128C50.3938 248.739 42.9127 250.708 39.554 256.525C36.1954 262.342 38.2311 269.805 44.1009 273.194C49.9708 276.583 57.4519 274.615 60.8106 268.797Z" fill="#E6007A"/>
<path d="M162.409 92.8232C165.768 87.0059 163.732 79.5427 157.862 76.1537C151.992 72.7648 144.511 74.7334 141.153 80.5507C137.794 86.3681 139.83 93.8313 145.7 97.2202C151.569 100.609 159.051 98.6406 162.409 92.8232Z" fill="#E6007A"/>
<path d="M44.7705 210.001C48.1292 204.184 46.0935 196.72 40.2236 193.331C34.3538 189.943 26.8726 191.911 23.514 197.728C20.1553 203.546 22.1911 211.009 28.0609 214.398C33.9307 217.787 41.4119 215.818 44.7705 210.001Z" fill="#E6007A"/>
<path d="M103.402 96.1241C99.9981 90.2806 92.5016 88.2538 86.6581 91.5972C80.8145 94.9405 78.8369 102.388 82.2409 108.231C85.6448 114.075 93.1414 116.102 98.9849 112.758C104.828 109.415 106.806 101.968 103.402 96.1241Z" fill="#E6007A"/>
<g filter="url(#filter1_d_134_2248)">
<path d="M231.613 277.412L254.604 237.884C263.08 223.312 258.156 204.597 243.607 196.082L204.139 172.986C189.589 164.472 170.923 169.382 162.447 183.954L139.456 223.482C130.98 238.054 135.904 256.769 150.454 265.284L189.921 288.38C204.471 296.894 223.137 291.983 231.613 277.412Z" fill="#1C1C26"/>
</g>
<path d="M216.502 257.038L218.441 249.801L209.391 234.125L202.154 232.186L216.502 257.038Z" fill="white"/>
<path d="M170.42 250.504L177.57 252.42L192.95 243.616L201.781 258.907L209.095 260.867L194.889 236.379L170.42 250.504Z" fill="white"/>
<path d="M176.347 204.259L174.408 211.496L183.458 227.172L190.695 229.111L176.347 204.259Z" fill="white"/>
<path d="M222.43 210.793L215.28 208.877L199.9 217.681L191.07 202.39L183.755 200.43L197.961 224.918L222.43 210.793Z" fill="white"/>
<path d="M195.593 233.976C197.456 234.475 199.372 233.369 199.871 231.506C200.371 229.642 199.265 227.726 197.401 227.227C195.537 226.727 193.622 227.833 193.122 229.697C192.623 231.561 193.729 233.477 195.593 233.976Z" fill="#E6007A"/>
<line x1="353.249" y1="261.848" x2="303.031" y2="351.85" stroke="#B7B8BB" stroke-width="1.30438"/>
<path d="M349.092 254.682L158 89.0256" stroke="#B7B8BB" stroke-width="1.30438"/>
<path d="M294.308 351.859L50.7143 264.935" stroke="#B7B8BB" stroke-width="1.30438"/>
<rect x="273.112" y="347.841" width="16.6053" height="53.4796" rx="8.30265" transform="rotate(-60 273.112 347.841)" fill="#E6007A"/>
<rect x="300.654" y="300.136" width="16.6053" height="53.4796" rx="8.30265" transform="rotate(-60 300.654 300.136)" fill="#E6007A"/>
<rect x="328.197" y="252.432" width="16.6053" height="53.4796" rx="8.30265" transform="rotate(-60 328.197 252.432)" fill="#E6007A"/>
<path opacity="0.5" d="M553.997 -118.176L465.304 20.5458L351.923 -96.8459" stroke="#363645" stroke-width="1.30438" stroke-miterlimit="10"/>
<path opacity="0.5" d="M506.789 -156.722L463.28 -4.40625L390.041 -144.398" stroke="#363645" stroke-width="1.30438" stroke-miterlimit="10"/>
<g filter="url(#filter2_d_134_2248)">
<path d="M446.702 58.5623L492.193 53.9088C508.963 52.1932 521.203 37.2038 519.531 20.4289L514.998 -25.0746C513.326 -41.8494 498.377 -54.0574 481.606 -52.3418L436.116 -47.6883C419.346 -45.9727 407.106 -30.9833 408.777 -14.2084L413.311 31.2951C414.982 48.0699 429.932 60.2779 446.702 58.5623Z" fill="#1C1C26"/>
</g>
<line opacity="0.5" x1="530.829" y1="147.783" x2="428.503" y2="160.103" stroke="#B7B8BB" stroke-width="1.30438"/>
<path opacity="0.5" d="M534.181 140.206L555.766 -111.771" stroke="#B7B8BB" stroke-width="1.30438"/>
<path opacity="0.5" d="M423.368 153.054L350.399 -95.077" stroke="#B7B8BB" stroke-width="1.30438"/>
<rect x="414.149" y="133.548" width="16.6053" height="53.4796" rx="8.30265" transform="rotate(-6.02567 414.149 133.548)" fill="#1C1C26"/>
<rect x="468.93" y="127.766" width="16.6053" height="53.4796" rx="8.30265" transform="rotate(-6.02567 468.93 127.766)" fill="#1C1C26"/>
<rect x="523.71" y="121.983" width="16.6053" height="53.4796" rx="8.30265" transform="rotate(-6.02567 523.71 121.983)" fill="#1C1C26"/>
</g>
<defs>
<filter id="filter0_d_134_2248" x="-421.597" y="51.0762" width="1056.65" height="456.849" filterUnits="userSpaceOnUse" color-interpolation-filters="sRGB">
<feFlood flood-opacity="0" result="BackgroundImageFix"/>
<feColorMatrix in="SourceAlpha" type="matrix" values="0 0 0 0 0 0 0 0 0 0 0 0 0 0 0 0 0 0 127 0" result="hardAlpha"/>
<feOffset dy="65.2191"/>
<feGaussianBlur stdDeviation="32.2834"/>
<feColorMatrix type="matrix" values="0 0 0 0 0.670588 0 0 0 0 0.752941 0 0 0 0 0.890196 0 0 0 0.173 0"/>
<feBlend mode="normal" in2="BackgroundImageFix" result="effect1_dropShadow_134_2248"/>
<feBlend mode="normal" in="SourceGraphic" in2="effect1_dropShadow_134_2248" result="shape"/>
</filter>
<filter id="filter1_d_134_2248" x="70.7398" y="168.807" width="252.581" height="253.537" filterUnits="userSpaceOnUse" color-interpolation-filters="sRGB">
<feFlood flood-opacity="0" result="BackgroundImageFix"/>
<feColorMatrix in="SourceAlpha" type="matrix" values="0 0 0 0 0 0 0 0 0 0 0 0 0 0 0 0 0 0 127 0" result="hardAlpha"/>
<feOffset dy="65.2191"/>
<feGaussianBlur stdDeviation="32.2834"/>
<feColorMatrix type="matrix" values="0 0 0 0 0.670588 0 0 0 0 0.752941 0 0 0 0 0.890196 0 0 0 0.173 0"/>
<feBlend mode="normal" in2="BackgroundImageFix" result="effect1_dropShadow_134_2248"/>
<feBlend mode="normal" in="SourceGraphic" in2="effect1_dropShadow_134_2248" result="shape"/>
</filter>
<filter id="filter2_d_134_2248" x="344.057" y="-52.5027" width="240.193" height="241.012" filterUnits="userSpaceOnUse" color-interpolation-filters="sRGB">
<feFlood flood-opacity="0" result="BackgroundImageFix"/>
<feColorMatrix in="SourceAlpha" type="matrix" values="0 0 0 0 0 0 0 0 0 0 0 0 0 0 0 0 0 0 127 0" result="hardAlpha"/>
<feOffset dy="65.2191"/>
<feGaussianBlur stdDeviation="32.2834"/>
<feColorMatrix type="matrix" values="0 0 0 0 0.670588 0 0 0 0 0.752941 0 0 0 0 0.890196 0 0 0 0.173 0"/>
<feBlend mode="normal" in2="BackgroundImageFix" result="effect1_dropShadow_134_2248"/>
<feBlend mode="normal" in="SourceGraphic" in2="effect1_dropShadow_134_2248" result="shape"/>
</filter>
<linearGradient id="paint0_linear_134_2248" x1="155.441" y1="672" x2="656.524" y2="324.281" gradientUnits="userSpaceOnUse">
<stop stop-color="#1C1C26"/>
<stop offset="1" stop-color="#2F313B"/>
</linearGradient>
<radialGradient id="paint1_radial_134_2248" cx="0" cy="0" r="1" gradientUnits="userSpaceOnUse" gradientTransform="translate(527.893 402.257) rotate(29.1224) scale(264.412 317.508)">
<stop stop-color="#0E0E10"/>
<stop offset="0.499836" stop-color="#1B1C1F" stop-opacity="0"/>
</radialGradient>
</defs>
</svg>
