<svg width="66" height="71" viewBox="0 0 66 71" fill="none" xmlns="http://www.w3.org/2000/svg">
<circle cx="31.5" cy="31.5" r="31.5" fill="#5865F2"/>
<path d="M47.6294 17.6269C44.8563 16.3295 41.8911 15.3865 38.7912 14.8496C38.4105 15.5379 37.9657 16.4637 37.659 17.2002C34.3637 16.7046 31.0986 16.7046 27.8639 17.2002C27.5573 16.4637 27.1024 15.5379 26.7183 14.8496C23.6149 15.3865 20.6464 16.3329 17.8733 17.6338C12.2799 26.0862 10.7636 34.3286 11.5218 42.4539C15.2316 45.2243 18.8269 46.9073 22.3615 48.0085C23.2342 46.8074 24.0125 45.5306 24.683 44.185C23.406 43.6998 22.1829 43.101 21.0272 42.4058C21.3338 42.1786 21.6337 41.9411 21.9234 41.6968C28.9724 44.9938 36.6313 44.9938 43.5961 41.6968C43.8893 41.9411 44.1891 42.1786 44.4924 42.4058C43.3333 43.1044 42.1068 43.7032 40.8298 44.1885C41.5003 45.5306 42.2753 46.8109 43.1513 48.0119C46.6893 46.9107 50.2879 45.2278 53.9978 42.4539C54.8873 33.0346 52.4781 24.8679 47.6294 17.6269ZM25.6434 37.4569C23.5273 37.4569 21.792 35.4814 21.792 33.0758C21.792 30.6702 23.4903 28.6914 25.6434 28.6914C27.7965 28.6914 29.5318 30.6668 29.4947 33.0758C29.4981 35.4814 27.7965 37.4569 25.6434 37.4569ZM39.8762 37.4569C37.7601 37.4569 36.0248 35.4814 36.0248 33.0758C36.0248 30.6702 37.723 28.6914 39.8762 28.6914C42.0293 28.6914 43.7646 30.6668 43.7275 33.0758C43.7275 35.4814 42.0293 37.4569 39.8762 37.4569Z" fill="white"/>
<circle cx="48.5" cy="53.5" r="17.5" fill="#DA3131"/>
<path fill-rule="evenodd" clip-rule="evenodd" d="M50.1731 46.3348L56.7384 57.7291C56.8829 58.0692 56.9461 58.3457 56.9642 58.633C57.0003 59.3043 56.7655 59.9567 56.305 60.4588C55.8444 60.9591 55.2213 61.2545 54.544 61.2903H41.323C41.043 61.2733 40.7631 61.2097 40.5012 61.1113C39.1917 60.5832 38.5596 59.0975 39.0924 57.8096L45.7029 46.3267C45.9287 45.9231 46.2718 45.5749 46.6963 45.3512C47.9244 44.6701 49.4868 45.1176 50.1731 46.3348ZM48.7187 53.8447C48.7187 54.2743 48.3665 54.6332 47.933 54.6332C47.4996 54.6332 47.1383 54.2743 47.1383 53.8447V51.3127C47.1383 50.8822 47.4996 50.5341 47.933 50.5341C48.3665 50.5341 48.7187 50.8822 48.7187 51.3127V53.8447ZM47.933 57.6936C47.4996 57.6936 47.1383 57.3347 47.1383 56.906C47.1383 56.4755 47.4996 56.1175 47.933 56.1175C48.3665 56.1175 48.7187 56.4674 48.7187 56.8962C48.7187 57.3347 48.3665 57.6936 47.933 57.6936Z" fill="white"/>
</svg>
