<svg width="72" height="63" viewBox="0 0 72 63" fill="none" xmlns="http://www.w3.org/2000/svg">
<path fill-rule="evenodd" clip-rule="evenodd" d="M6.51045 21.4689C6.51045 27.2927 11.3057 31.9597 17.2895 31.9597C23.271 31.9597 28.0685 27.2927 28.0685 21.4689C28.0685 15.6452 23.271 10.9781 17.2895 10.9781C11.3057 10.9781 6.51045 15.6452 6.51045 21.4689ZM33.5801 43.8379C33.5801 38.4469 26.076 37.0981 17.2901 37.0981C8.45652 37.0981 1.00013 38.4933 1.00013 43.8886C1.00013 49.2796 8.50423 50.6284 17.2901 50.6284C26.1237 50.6284 33.5801 49.2332 33.5801 43.8379Z" fill="#E6007A"/>
<path fill-rule="evenodd" clip-rule="evenodd" d="M44.2521 21.4689C44.2521 27.2927 49.0474 31.9597 55.0312 31.9597C61.0127 31.9597 65.8102 27.2927 65.8102 21.4689C65.8102 15.6452 61.0127 10.9781 55.0312 10.9781C49.0474 10.9781 44.2521 15.6452 44.2521 21.4689ZM71.3218 43.8379C71.3218 38.4469 63.8177 37.0981 55.0318 37.0981C46.1982 37.0981 38.7418 38.4933 38.7418 43.8886C38.7418 49.2796 46.2459 50.6284 55.0318 50.6284C63.8654 50.6284 71.3218 49.2332 71.3218 43.8379Z" fill="#E6007A"/>
<g filter="url(#filter0_f_341_2177)">
<path d="M23.3441 40.5557C28.7084 40.5557 33.29 41.4515 33.29 45.0318C33.29 48.615 28.7375 49.5416 23.3441 49.5416C17.9798 49.5416 13.3981 48.6458 13.3981 45.0654C13.3981 41.4823 17.9507 40.5557 23.3441 40.5557Z" fill="#EF5641" fill-opacity="0.5"/>
</g>
<g filter="url(#filter1_f_341_2177)">
<path d="M22.4402 26.7772C19.4285 26.7772 17.0151 24.3787 17.0151 21.3857C17.0151 18.3927 19.4285 15.9941 22.4402 15.9941C25.4507 15.9941 27.8652 18.3927 27.8652 21.3857C27.8652 24.3787 25.4507 26.7772 22.4402 26.7772Z" fill="#EF5641" fill-opacity="0.5"/>
</g>
<g filter="url(#filter2_b_341_2177)">
<mask id="path-5-outside-1_341_2177" maskUnits="userSpaceOnUse" x="13.1934" y="6" width="45" height="54" fill="black">
<rect fill="white" x="13.1934" y="6" width="45" height="54"/>
<path fill-rule="evenodd" clip-rule="evenodd" d="M21.6942 20.7581C21.6942 28.3956 27.9828 34.5161 35.8302 34.5161C43.6747 34.5161 49.9663 28.3956 49.9663 20.7581C49.9663 13.1205 43.6747 7 35.8302 7C27.9828 7 21.6942 13.1205 21.6942 20.7581ZM57.1934 50.0946C57.1934 43.0245 47.3522 41.2556 35.83 41.2556C24.2453 41.2556 14.4666 43.0854 14.4666 50.161C14.4666 57.2311 24.3078 59 35.83 59C47.4147 59 57.1934 57.1702 57.1934 50.0946Z"/>
</mask>
<path fill-rule="evenodd" clip-rule="evenodd" d="M21.6942 20.7581C21.6942 28.3956 27.9828 34.5161 35.8302 34.5161C43.6747 34.5161 49.9663 28.3956 49.9663 20.7581C49.9663 13.1205 43.6747 7 35.8302 7C27.9828 7 21.6942 13.1205 21.6942 20.7581ZM57.1934 50.0946C57.1934 43.0245 47.3522 41.2556 35.83 41.2556C24.2453 41.2556 14.4666 43.0854 14.4666 50.161C14.4666 57.2311 24.3078 59 35.83 59C47.4147 59 57.1934 57.1702 57.1934 50.0946Z" fill="#E6007A" fill-opacity="0.4"/>
<path d="M35.8302 35.5161C27.4563 35.5161 20.6942 28.9733 20.6942 20.7581H22.6942C22.6942 27.8179 28.5094 33.5161 35.8302 33.5161V35.5161ZM50.9663 20.7581C50.9663 28.9734 44.2012 35.5161 35.8302 35.5161V33.5161C43.1483 33.5161 48.9663 27.8178 48.9663 20.7581H50.9663ZM35.8302 6C44.2012 6 50.9663 12.5428 50.9663 20.7581H48.9663C48.9663 13.6983 43.1483 8 35.8302 8V6ZM20.6942 20.7581C20.6942 12.5429 27.4563 6 35.8302 6V8C28.5094 8 22.6942 13.6982 22.6942 20.7581H20.6942ZM35.83 40.2556C41.6128 40.2556 47.091 40.6957 51.1543 42.0771C53.1916 42.7696 54.9464 43.7226 56.2005 45.0419C57.4774 46.3853 58.1934 48.0672 58.1934 50.0946H56.1934C56.1934 48.5869 55.6792 47.3965 54.7508 46.4198C53.7995 45.419 52.374 44.6041 50.5106 43.9706C46.7729 42.7 41.5694 42.2556 35.83 42.2556V40.2556ZM13.4666 50.161C13.4666 48.1346 14.1769 46.4492 15.4473 45.0992C16.6954 43.7729 18.444 42.8108 20.4781 42.1096C24.535 40.7111 30.0144 40.2556 35.83 40.2556V42.2556C30.0609 42.2556 24.8586 42.7151 21.1299 44.0004C19.2714 44.6411 17.8512 45.4631 16.9038 46.4699C15.9787 47.453 15.4666 48.6497 15.4666 50.161H13.4666ZM35.83 60C30.0472 60 24.569 59.5599 20.5056 58.1785C18.4684 57.486 16.7135 56.533 15.4595 55.2137C14.1826 53.8703 13.4666 52.1884 13.4666 50.161H15.4666C15.4666 51.6687 15.9808 52.8591 16.9092 53.8358C17.8604 54.8366 19.286 55.6515 21.1494 56.285C24.8871 57.5556 30.0906 58 35.83 58V60ZM58.1934 50.0946C58.1934 52.121 57.4831 53.8064 56.2127 55.1564C54.9646 56.4827 53.216 57.4448 51.1819 58.146C47.125 59.5445 41.6456 60 35.83 60V58C41.5991 58 46.8014 57.5405 50.5301 56.2552C52.3886 55.6145 53.8088 54.7925 54.7562 53.7858C55.6813 52.8026 56.1934 51.606 56.1934 50.0946H58.1934Z" fill="url(#paint0_linear_341_2177)" mask="url(#path-5-outside-1_341_2177)"/>
</g>
<defs>
<filter id="filter0_f_341_2177" x="0.397949" y="27.5557" width="45.8921" height="34.9859" filterUnits="userSpaceOnUse" color-interpolation-filters="sRGB">
<feFlood flood-opacity="0" result="BackgroundImageFix"/>
<feBlend mode="normal" in="SourceGraphic" in2="BackgroundImageFix" result="shape"/>
<feGaussianBlur stdDeviation="6.5" result="effect1_foregroundBlur_341_2177"/>
</filter>
<filter id="filter1_f_341_2177" x="2.01514" y="0.994141" width="40.8501" height="40.7831" filterUnits="userSpaceOnUse" color-interpolation-filters="sRGB">
<feFlood flood-opacity="0" result="BackgroundImageFix"/>
<feBlend mode="normal" in="SourceGraphic" in2="BackgroundImageFix" result="shape"/>
<feGaussianBlur stdDeviation="7.5" result="effect1_foregroundBlur_341_2177"/>
</filter>
<filter id="filter2_b_341_2177" x="3.4668" y="-4" width="64.7266" height="73.9999" filterUnits="userSpaceOnUse" color-interpolation-filters="sRGB">
<feFlood flood-opacity="0" result="BackgroundImageFix"/>
<feGaussianBlur in="BackgroundImage" stdDeviation="5"/>
<feComposite in2="SourceAlpha" operator="in" result="effect1_backgroundBlur_341_2177"/>
<feBlend mode="normal" in="SourceGraphic" in2="effect1_backgroundBlur_341_2177" result="shape"/>
</filter>
<linearGradient id="paint0_linear_341_2177" x1="50.392" y1="13.0581" x2="16.4648" y2="47.5842" gradientUnits="userSpaceOnUse">
<stop stop-color="white" stop-opacity="0.25"/>
<stop offset="1" stop-color="white" stop-opacity="0"/>
</linearGradient>
</defs>
</svg>
