<svg width="85" height="76" viewBox="0 0 85 76" fill="none" xmlns="http://www.w3.org/2000/svg">
<path d="M41.2512 43.6539C40.9096 44.3548 40.9367 45.1794 41.3217 45.8582L46.7919 55.1843C47.2548 55.9751 47.2095 56.9616 46.6769 57.7087C46.1653 58.469 45.2597 58.8664 44.3503 58.7364L33.6007 57.3247C33.2257 57.2722 32.8442 57.3094 32.4836 57.4287L31.9309 57.6291C31.7496 57.727 31.5843 57.8559 31.4472 58.0114L24.1379 65.9977C23.773 66.3829 23.2962 66.6454 22.7717 66.746C21.4811 66.9566 20.2563 66.1043 20.0118 64.8252L18.1697 54.1832C18.0232 53.4111 17.5092 52.7584 16.7914 52.4326L6.82549 48.0011C5.99179 47.6299 5.45059 46.8147 5.43692 45.907C5.41585 45.0044 5.8985 44.165 6.69246 43.7276L16.2924 38.5887C17.0343 38.23 17.5404 37.5177 17.6343 36.702L18.7631 25.9712C18.7948 25.7298 18.8631 25.4935 18.9703 25.2753L19.1018 25.0667C19.159 24.9265 19.2371 24.7993 19.3335 24.6839L19.5261 24.5221L19.8207 24.2543L20.6793 23.9429C21.4751 23.744 22.3174 23.9557 22.92 24.5096L30.7681 31.9389C31.3375 32.4841 32.1405 32.7148 32.9135 32.5608L43.5853 30.348C44.4864 30.1591 45.4178 30.488 45.9986 31.1969C46.5639 31.9137 46.6605 32.8901 46.2472 33.7044L41.2512 43.6539Z" fill="#E6007A"/>
<g opacity="0.5" filter="url(#filter0_f_341_2140)">
<path d="M31.8519 38.2572C27.1845 38.2572 23.3965 42.0271 23.3965 46.6703C23.3965 51.3152 27.1845 55.0835 31.8519 55.0835C36.5278 55.0835 40.3073 51.3152 40.3073 46.6703C40.3073 42.0271 36.5278 38.2572 31.8519 38.2572V38.2572Z" fill="#FF3D22"/>
</g>
<g filter="url(#filter1_b_341_2140)">
<path d="M66.1404 42.0863C65.2793 42.5809 64.7173 43.467 64.6359 44.4535L63.7073 58.1365C63.6277 59.296 62.8736 60.301 61.7786 60.7089C60.6962 61.1453 59.4595 60.921 58.5966 60.1396L48.3068 51.0336C47.9502 50.7125 47.5225 50.4811 47.058 50.3508L46.3334 50.1697C46.0727 50.1441 45.8066 50.1624 45.5511 50.2286L32.1473 53.4418C31.4879 53.5881 30.7986 53.5261 30.1751 53.2599C28.6675 52.5662 27.9903 50.8017 28.6494 49.2837L34.3345 36.7899C34.7334 35.8743 34.6604 34.8237 34.1393 33.9722L26.836 22.2472C26.2254 21.2659 26.2403 20.0251 26.876 19.0613C27.5003 18.0973 28.6089 17.5571 29.7568 17.6603L43.5294 19.0645C44.5662 19.2135 45.6084 18.8235 46.2914 18.0327L55.1633 7.55183C55.3695 7.32056 55.6104 7.1206 55.8794 6.96725L56.1671 6.84119C56.3277 6.73427 56.5009 6.65597 56.6849 6.60297L57.0032 6.56942L57.5047 6.49684L58.6303 6.77827C59.6094 7.13337 60.3433 7.95321 60.5801 8.96272L63.5099 22.3377C63.718 23.3145 64.397 24.1263 65.3199 24.5126L78.1237 29.753C79.2063 30.1934 79.95 31.1995 80.0529 32.3566C80.1337 33.5109 79.536 34.6059 78.5183 35.1689L66.1404 42.0863Z" fill="#E6007A" fill-opacity="0.4"/>
<path d="M64.2064 58.1697L64.2065 58.1693L65.1344 44.4936C65.1345 44.4924 65.1346 44.4912 65.1347 44.49C65.2036 43.6695 65.6712 42.9328 66.3867 42.5207C66.3875 42.5203 66.3883 42.5198 66.3891 42.5194L78.76 35.6059C78.7604 35.6057 78.7608 35.6055 78.7612 35.6053C79.9479 34.9482 80.6464 33.6696 80.5519 32.3207L80.552 32.3207L80.5512 32.3113C80.4317 30.968 79.5688 29.8012 78.3139 29.2905C78.3137 29.2904 78.3134 29.2903 78.3132 29.2902L65.514 24.0517C65.5135 24.0514 65.5129 24.0512 65.5123 24.0509C64.7395 23.7268 64.1727 23.0473 63.9992 22.2327L63.9986 22.2299L61.0688 8.85493L61.0689 8.85492L61.0672 8.84775C60.7915 7.67265 59.9379 6.72049 58.8019 6.30851C58.7858 6.30267 58.7694 6.29765 58.7528 6.29349L57.6271 6.01206C57.564 5.99628 57.4984 5.99296 57.434 6.00229L56.9421 6.07348L56.6334 6.10601C56.6042 6.10909 56.5753 6.11472 56.5471 6.12285C56.3312 6.18507 56.1239 6.27613 55.9292 6.40015L55.6792 6.5097C55.6631 6.51676 55.6474 6.52466 55.6321 6.53338C55.3122 6.71573 55.0295 6.95129 54.79 7.2199L54.7899 7.21979L54.7815 7.22965L45.9128 17.7067C45.9123 17.7073 45.9118 17.708 45.9112 17.7086C45.3402 18.3686 44.4689 18.6945 43.6016 18.5699C43.5986 18.5695 43.5957 18.5691 43.5927 18.5687C43.5889 18.5682 43.585 18.5678 43.5812 18.5674L29.8086 17.1632L29.8086 17.1631L29.8026 17.1626C28.4705 17.0429 27.1831 17.6694 26.4572 18.7887C25.7146 19.9163 25.6984 21.3664 26.411 22.5116L26.4111 22.5119L33.7123 34.2335C33.7126 34.234 33.7129 34.2345 33.7132 34.235C34.1481 34.9466 34.2091 35.8232 33.8773 36.5877L28.1941 49.0777L28.194 49.0776L28.1905 49.0856C27.4226 50.8544 28.2125 52.9074 29.965 53.7138L29.9649 53.714L29.9777 53.7194C30.6979 54.0269 31.4939 54.0984 32.2548 53.9297L32.2548 53.9297L32.2631 53.9278L45.6669 50.7145L45.6669 50.7146L45.6758 50.7123C45.8605 50.6644 46.0551 50.6486 46.249 50.6639L46.9284 50.8338C47.319 50.9444 47.6755 51.1386 47.9715 51.4051L47.9746 51.4079L58.2602 60.5101C58.2609 60.5107 58.2616 60.5114 58.2622 60.512C59.2641 61.4178 60.6994 61.6798 61.9589 61.1747C63.2338 60.697 64.1134 59.5243 64.2064 58.1697Z" stroke="url(#paint0_linear_341_2140)" stroke-linecap="round" stroke-linejoin="round"/>
</g>
<defs>
<filter id="filter0_f_341_2140" x="3.39648" y="18.2572" width="56.9106" height="56.8263" filterUnits="userSpaceOnUse" color-interpolation-filters="sRGB">
<feFlood flood-opacity="0" result="BackgroundImageFix"/>
<feBlend mode="normal" in="SourceGraphic" in2="BackgroundImageFix" result="shape"/>
<feGaussianBlur stdDeviation="10" result="effect1_foregroundBlur_341_2140"/>
</filter>
<filter id="filter1_b_341_2140" x="1.3877" y="-18.5026" width="103.673" height="104.431" filterUnits="userSpaceOnUse" color-interpolation-filters="sRGB">
<feFlood flood-opacity="0" result="BackgroundImageFix"/>
<feGaussianBlur in="BackgroundImage" stdDeviation="12"/>
<feComposite in2="SourceAlpha" operator="in" result="effect1_backgroundBlur_341_2140"/>
<feBlend mode="normal" in="SourceGraphic" in2="effect1_backgroundBlur_341_2140" result="shape"/>
</filter>
<linearGradient id="paint0_linear_341_2140" x1="38.5456" y1="8.01755" x2="59.8929" y2="57.6372" gradientUnits="userSpaceOnUse">
<stop stop-color="white" stop-opacity="0.25"/>
<stop offset="1" stop-color="white" stop-opacity="0"/>
</linearGradient>
</defs>
</svg>
