<svg width="24" height="24" viewBox="0 0 24 24" fill="none" xmlns="http://www.w3.org/2000/svg">
<path d="M3.53223 3.84673L5.4877 4.18517L6.39305 14.9713C6.46544 15.8522 7.20156 16.5282 8.08528 16.5253H18.3412C19.1845 16.5272 19.8999 15.9067 20.0193 15.0719L20.9115 8.90651C21.0112 8.2174 20.5326 7.57811 19.8444 7.47845C19.7843 7.46999 5.8017 7.46529 5.8017 7.46529" stroke="#A1A2A3" stroke-width="1.4102" stroke-linecap="round" stroke-linejoin="round"/>
<path d="M14.2266 10.94H16.8335" stroke="#A1A2A3" stroke-width="1.4102" stroke-linecap="round" stroke-linejoin="round"/>
<path fill-rule="evenodd" clip-rule="evenodd" d="M7.67256 19.7844C7.95554 19.7844 8.184 20.0138 8.184 20.2958C8.184 20.5788 7.95554 20.8082 7.67256 20.8082C7.38958 20.8082 7.16113 20.5788 7.16113 20.2958C7.16113 20.0138 7.38958 19.7844 7.67256 19.7844Z" fill="#A1A2A3" stroke="#A1A2A3" stroke-width="1.4102" stroke-linecap="round" stroke-linejoin="round"/>
<path fill-rule="evenodd" clip-rule="evenodd" d="M18.278 19.7844C18.561 19.7844 18.7904 20.0138 18.7904 20.2958C18.7904 20.5788 18.561 20.8082 18.278 20.8082C17.9951 20.8082 17.7666 20.5788 17.7666 20.2958C17.7666 20.0138 17.9951 19.7844 18.278 19.7844Z" fill="#A1A2A3" stroke="#A1A2A3" stroke-width="1.4102" stroke-linecap="round" stroke-linejoin="round"/>
</svg>
