<svg width="1920" height="1481" viewBox="0 0 1920 1481" fill="none" xmlns="http://www.w3.org/2000/svg">
<mask id="mask0" mask-type="alpha" maskUnits="userSpaceOnUse" x="0" y="0" width="1920" height="1481">
<path d="M1920 0H0V1481H1920V0Z" fill="url(#paint0_linear)"/>
</mask>
<g mask="url(#mask0)">
<circle opacity="0.45" cx="1327.21" cy="419.207" r="662.207" fill="url(#paint1_radial)"/>
<circle opacity="0.45" cx="1945.83" cy="867.793" r="662.207" fill="url(#paint2_radial)"/>
<circle opacity="0.6" cx="1111.7" cy="357.13" r="168.099" fill="url(#paint3_radial)"/>
<circle opacity="0.6" cx="1670.76" cy="932.74" r="168.099" fill="url(#paint4_radial)"/>
<circle opacity="0.6" cx="1959.84" cy="92.2467" r="168.099" fill="url(#paint5_radial)"/>
<path d="M995.439 577.185C995.439 577.944 995.215 578.685 994.793 579.316C994.372 579.947 993.773 580.438 993.072 580.728C992.371 581.019 991.6 581.095 990.856 580.947C990.112 580.799 989.429 580.433 988.893 579.897C988.356 579.361 987.991 578.677 987.843 577.934C987.695 577.19 987.771 576.419 988.061 575.718C988.352 575.017 988.843 574.418 989.474 573.997C990.105 573.575 990.846 573.35 991.604 573.35C992.109 573.347 992.609 573.444 993.076 573.636C993.543 573.827 993.967 574.11 994.323 574.466C994.68 574.823 994.963 575.247 995.154 575.714C995.346 576.181 995.443 576.681 995.439 577.185V577.185Z" fill="white"/>
<path d="M741.619 520.569C743.737 520.569 745.454 518.852 745.454 516.734C745.454 514.616 743.737 512.899 741.619 512.899C739.501 512.899 737.784 514.616 737.784 516.734C737.784 518.852 739.501 520.569 741.619 520.569Z" fill="white"/>
<path d="M1061.27 225.279C1061.27 226.037 1061.05 226.779 1060.63 227.41C1060.21 228.04 1059.61 228.532 1058.91 228.822C1058.21 229.112 1057.43 229.188 1056.69 229.04C1055.95 228.892 1055.26 228.527 1054.73 227.991C1054.19 227.454 1053.83 226.771 1053.68 226.027C1053.53 225.283 1053.61 224.512 1053.9 223.811C1054.19 223.111 1054.68 222.512 1055.31 222.09C1055.94 221.669 1056.68 221.444 1057.44 221.444C1058.46 221.444 1059.43 221.848 1060.15 222.567C1060.87 223.286 1061.27 224.262 1061.27 225.279Z" fill="white"/>
<path d="M701.673 338.163C701.678 338.924 701.457 339.669 701.037 340.303C700.618 340.937 700.019 341.433 699.317 341.726C698.616 342.019 697.842 342.097 697.096 341.95C696.35 341.803 695.664 341.437 695.127 340.9C694.589 340.362 694.223 339.676 694.076 338.93C693.929 338.184 694.007 337.411 694.3 336.709C694.593 336.007 695.089 335.408 695.723 334.989C696.358 334.569 697.102 334.348 697.863 334.353C698.873 334.353 699.843 334.754 700.557 335.469C701.272 336.184 701.673 337.153 701.673 338.163V338.163Z" fill="white"/>
<path d="M1353.22 603.636C1353.22 604.453 1352.98 605.251 1352.52 605.93C1352.07 606.609 1351.43 607.139 1350.67 607.451C1349.92 607.764 1349.09 607.846 1348.28 607.686C1347.48 607.527 1346.75 607.134 1346.17 606.556C1345.59 605.978 1345.2 605.243 1345.04 604.442C1344.88 603.64 1344.96 602.81 1345.27 602.055C1345.59 601.301 1346.12 600.656 1346.8 600.202C1347.48 599.748 1348.27 599.506 1349.09 599.506C1349.63 599.506 1350.17 599.613 1350.67 599.82C1351.17 600.028 1351.63 600.332 1352.01 600.716C1352.39 601.099 1352.7 601.554 1352.91 602.055C1353.11 602.556 1353.22 603.093 1353.22 603.636Z" fill="white"/>
<path d="M1364.75 610.864C1364.75 611.272 1364.63 611.671 1364.4 612.011C1364.17 612.351 1363.85 612.615 1363.47 612.772C1363.1 612.928 1362.68 612.969 1362.28 612.889C1361.88 612.809 1361.51 612.613 1361.22 612.324C1360.94 612.035 1360.74 611.667 1360.66 611.267C1360.58 610.866 1360.62 610.451 1360.78 610.074C1360.93 609.696 1361.2 609.374 1361.54 609.147C1361.88 608.92 1362.28 608.799 1362.68 608.799C1363.23 608.799 1363.76 609.016 1364.14 609.404C1364.53 609.791 1364.75 610.316 1364.75 610.864Z" fill="white"/>
<path d="M1478.03 732.499C1478.03 732.908 1477.91 733.307 1477.68 733.646C1477.45 733.986 1477.13 734.251 1476.75 734.407C1476.38 734.563 1475.96 734.604 1475.56 734.524C1475.16 734.445 1474.79 734.248 1474.5 733.959C1474.21 733.671 1474.02 733.303 1473.94 732.902C1473.86 732.501 1473.9 732.086 1474.06 731.709C1474.21 731.332 1474.48 731.009 1474.82 730.782C1475.16 730.555 1475.55 730.434 1475.96 730.434C1476.51 730.441 1477.03 730.66 1477.42 731.046C1477.8 731.432 1478.02 731.953 1478.03 732.499V732.499Z" fill="white"/>
<path d="M253.516 816.387C253.516 816.795 253.637 817.195 253.864 817.534C254.091 817.874 254.414 818.138 254.791 818.295C255.168 818.451 255.583 818.492 255.984 818.412C256.384 818.333 256.752 818.136 257.041 817.847C257.33 817.558 257.527 817.19 257.606 816.79C257.686 816.389 257.645 815.974 257.489 815.597C257.333 815.219 257.068 814.897 256.728 814.67C256.389 814.443 255.989 814.322 255.581 814.322C255.035 814.328 254.514 814.548 254.128 814.934C253.742 815.32 253.522 815.841 253.516 816.387V816.387Z" fill="white"/>
<path d="M1471.32 749.34C1471.32 750.158 1471.08 750.959 1470.63 751.641C1470.18 752.323 1469.54 752.857 1468.79 753.173C1468.03 753.489 1467.2 753.575 1466.4 753.418C1465.59 753.261 1464.86 752.87 1464.28 752.293C1463.7 751.717 1463.3 750.981 1463.14 750.179C1462.98 749.377 1463.06 748.546 1463.37 747.79C1463.68 747.034 1464.21 746.387 1464.89 745.932C1465.57 745.477 1466.37 745.235 1467.19 745.234C1468.28 745.234 1469.33 745.666 1470.1 746.435C1470.87 747.205 1471.31 748.249 1471.32 749.34V749.34Z" fill="white"/>
<path d="M260.228 833.228C260.223 834.046 260.461 834.846 260.912 835.529C261.363 836.211 262.006 836.744 262.76 837.061C263.515 837.377 264.346 837.462 265.148 837.306C265.951 837.149 266.689 836.758 267.269 836.181C267.849 835.605 268.245 834.869 268.407 834.067C268.568 833.265 268.488 832.434 268.176 831.678C267.864 830.922 267.335 830.275 266.655 829.82C265.975 829.365 265.176 829.122 264.358 829.122C263.267 829.122 262.22 829.554 261.446 830.323C260.672 831.093 260.235 832.137 260.228 833.228V833.228Z" fill="white"/>
<path d="M1639.24 428.335C1639.73 428.551 1640.12 428.948 1640.32 429.442C1640.52 429.936 1640.52 430.489 1640.32 430.985C1640.13 431.48 1639.75 431.881 1639.26 432.102C1638.77 432.322 1638.22 432.347 1637.72 432.169C1637.23 431.953 1636.85 431.556 1636.65 431.062C1636.44 430.568 1636.44 430.015 1636.64 429.519C1636.84 429.024 1637.22 428.623 1637.7 428.402C1638.19 428.182 1638.74 428.157 1639.24 428.335V428.335Z" fill="white"/>
<path d="M92.3015 512.222C91.8138 512.438 91.4289 512.835 91.2273 513.329C91.0258 513.823 91.0233 514.376 91.2204 514.872C91.4174 515.367 91.7987 515.768 92.2844 515.989C92.7701 516.21 93.3224 516.234 93.8256 516.057C94.3133 515.84 94.6982 515.443 94.8997 514.949C95.1013 514.455 95.1038 513.902 94.9068 513.407C94.7097 512.911 94.3283 512.51 93.8427 512.29C93.357 512.069 92.8047 512.044 92.3015 512.222V512.222Z" fill="white"/>
<path d="M1652.57 440.824C1653.33 441.125 1653.98 441.645 1654.45 442.317C1654.91 442.99 1655.16 443.785 1655.18 444.602C1655.19 445.419 1654.96 446.221 1654.51 446.907C1654.07 447.593 1653.43 448.132 1652.68 448.455C1651.93 448.779 1651.1 448.872 1650.3 448.724C1649.49 448.576 1648.75 448.193 1648.17 447.624C1647.58 447.054 1647.18 446.323 1647.01 445.524C1646.84 444.725 1646.91 443.893 1647.21 443.134C1647.41 442.629 1647.7 442.168 1648.08 441.778C1648.46 441.387 1648.91 441.076 1649.41 440.861C1649.9 440.646 1650.44 440.532 1650.98 440.526C1651.53 440.519 1652.06 440.621 1652.57 440.824V440.824Z" fill="white"/>
<path d="M78.9761 524.712C78.2166 525.013 77.5634 525.533 77.0993 526.205C76.6352 526.878 76.3811 527.673 76.369 528.49C76.3569 529.307 76.5874 530.109 77.0314 530.795C77.4754 531.481 78.1129 532.02 78.8632 532.343C79.6135 532.667 80.443 532.761 81.2466 532.613C82.0502 532.465 82.7917 532.082 83.3776 531.512C83.9634 530.942 84.3671 530.212 84.5375 529.413C84.708 528.613 84.6376 527.782 84.3352 527.023C84.1374 526.517 83.8413 526.056 83.4641 525.666C83.087 525.276 82.6362 524.964 82.1378 524.749C81.6395 524.534 81.1034 524.42 80.5607 524.414C80.018 524.407 79.4794 524.509 78.9761 524.712V524.712Z" fill="white"/>
<path d="M1348.6 290.843C1348.86 290.935 1349.1 291.079 1349.31 291.267C1349.51 291.455 1349.68 291.682 1349.79 291.935C1349.91 292.188 1349.97 292.462 1349.98 292.74C1349.99 293.018 1349.94 293.295 1349.83 293.553C1349.73 293.811 1349.58 294.046 1349.38 294.244C1349.19 294.441 1348.95 294.597 1348.69 294.702C1348.44 294.807 1348.16 294.859 1347.88 294.855C1347.6 294.851 1347.33 294.79 1347.08 294.678C1346.59 294.461 1346.2 294.064 1346 293.57C1345.8 293.076 1345.8 292.523 1346 292.028C1346.19 291.532 1346.57 291.131 1347.06 290.911C1347.54 290.69 1348.1 290.665 1348.6 290.843Z" fill="white"/>
<path d="M382.945 374.73C382.683 374.822 382.442 374.967 382.237 375.154C382.032 375.342 381.867 375.569 381.752 375.822C381.637 376.076 381.574 376.349 381.567 376.627C381.56 376.905 381.61 377.182 381.712 377.44C381.815 377.698 381.969 377.933 382.165 378.131C382.36 378.328 382.594 378.484 382.851 378.589C383.109 378.694 383.385 378.746 383.663 378.742C383.941 378.738 384.215 378.678 384.469 378.565C384.957 378.348 385.342 377.951 385.543 377.457C385.745 376.963 385.747 376.411 385.55 375.915C385.353 375.419 384.972 375.019 384.486 374.798C384.001 374.577 383.448 374.552 382.945 374.73Z" fill="white"/>
<path d="M1361.8 303.33C1362.56 303.625 1363.22 304.14 1363.69 304.81C1364.16 305.48 1364.42 306.274 1364.44 307.092C1364.45 307.909 1364.23 308.714 1363.79 309.403C1363.35 310.093 1362.71 310.636 1361.96 310.964C1361.21 311.292 1360.38 311.39 1359.58 311.246C1358.77 311.101 1358.03 310.722 1357.44 310.154C1356.85 309.587 1356.44 308.857 1356.27 308.058C1356.1 307.259 1356.16 306.426 1356.46 305.665C1356.86 304.65 1357.65 303.835 1358.65 303.397C1359.65 302.959 1360.78 302.935 1361.8 303.33V303.33Z" fill="white"/>
<path d="M369.745 387.217C368.982 387.513 368.325 388.028 367.856 388.698C367.386 389.368 367.126 390.162 367.109 390.98C367.091 391.797 367.317 392.602 367.757 393.291C368.197 393.98 368.832 394.523 369.581 394.851C370.331 395.179 371.16 395.277 371.965 395.133C372.771 394.989 373.515 394.609 374.104 394.042C374.692 393.474 375.1 392.745 375.273 391.945C375.447 391.146 375.38 390.314 375.08 389.553C374.679 388.538 373.894 387.722 372.894 387.285C371.895 386.847 370.762 386.823 369.745 387.217V387.217Z" fill="white"/>
<path d="M1561.96 269.799C1562.72 270.095 1563.38 270.61 1563.85 271.28C1564.32 271.95 1564.57 272.744 1564.59 273.561C1564.61 274.379 1564.38 275.184 1563.94 275.873C1563.5 276.562 1562.87 277.105 1562.12 277.433C1561.37 277.761 1560.54 277.859 1559.74 277.715C1558.93 277.571 1558.19 277.191 1557.6 276.624C1557.01 276.056 1556.6 275.327 1556.43 274.527C1556.25 273.728 1556.32 272.895 1556.62 272.135C1557.02 271.12 1557.81 270.304 1558.81 269.867C1559.81 269.429 1560.94 269.405 1561.96 269.799Z" fill="white"/>
<path d="M169.588 353.687C168.826 353.982 168.168 354.498 167.699 355.167C167.229 355.837 166.97 356.631 166.952 357.449C166.934 358.267 167.16 359.071 167.6 359.76C168.041 360.45 168.675 360.993 169.425 361.321C170.174 361.649 171.004 361.747 171.809 361.603C172.614 361.459 173.358 361.079 173.947 360.511C174.536 359.944 174.943 359.214 175.117 358.415C175.29 357.616 175.223 356.783 174.923 356.022C174.523 355.007 173.737 354.192 172.737 353.754C171.738 353.317 170.606 353.292 169.588 353.687Z" fill="white"/>
<path d="M773.725 186.758C774.081 186.893 774.39 187.13 774.61 187.441C774.831 187.751 774.954 188.12 774.964 188.501C774.974 188.881 774.871 189.256 774.667 189.578C774.463 189.9 774.168 190.153 773.82 190.307C773.471 190.46 773.085 190.506 772.71 190.439C772.335 190.372 771.989 190.195 771.715 189.93C771.441 189.666 771.252 189.325 771.172 188.953C771.093 188.581 771.126 188.193 771.267 187.84C771.453 187.373 771.815 186.999 772.275 186.796C772.735 186.594 773.255 186.58 773.725 186.758V186.758Z" fill="white"/>
<path d="M957.818 270.646C957.462 270.781 957.154 271.018 956.933 271.329C956.713 271.639 956.589 272.008 956.579 272.389C956.569 272.769 956.673 273.144 956.876 273.466C957.08 273.788 957.375 274.041 957.724 274.195C958.072 274.348 958.459 274.394 958.834 274.327C959.208 274.26 959.555 274.083 959.829 273.818C960.102 273.554 960.291 273.213 960.371 272.841C960.451 272.469 960.418 272.081 960.276 271.728C960.09 271.261 959.728 270.887 959.268 270.684C958.809 270.482 958.288 270.468 957.818 270.646V270.646Z" fill="white"/>
<path d="M785.993 198.359C786.705 198.629 787.322 199.104 787.763 199.725C788.204 200.345 788.451 201.083 788.471 201.845C788.491 202.606 788.284 203.356 787.876 204C787.469 204.643 786.879 205.15 786.182 205.457C785.485 205.764 784.712 205.856 783.962 205.722C783.213 205.588 782.52 205.234 781.972 204.704C781.424 204.175 781.047 203.495 780.887 202.75C780.728 202.005 780.794 201.23 781.076 200.523C781.449 199.59 782.173 198.841 783.093 198.437C784.012 198.032 785.053 198.004 785.993 198.359V198.359Z" fill="white"/>
<path d="M945.551 282.247C944.839 282.516 944.223 282.992 943.782 283.612C943.34 284.233 943.094 284.971 943.074 285.733C943.053 286.494 943.26 287.244 943.668 287.887C944.076 288.531 944.666 289.038 945.363 289.345C946.06 289.651 946.833 289.744 947.582 289.61C948.332 289.476 949.025 289.121 949.572 288.592C950.12 288.063 950.498 287.382 950.657 286.638C950.817 285.893 950.751 285.118 950.468 284.41C950.095 283.478 949.371 282.729 948.452 282.324C947.532 281.92 946.491 281.892 945.551 282.247V282.247Z" fill="white"/>
<path d="M867.091 523.668C867.091 524.047 866.979 524.418 866.768 524.733C866.557 525.048 866.258 525.294 865.908 525.439C865.557 525.584 865.172 525.622 864.8 525.548C864.428 525.474 864.086 525.292 863.818 525.023C863.55 524.755 863.367 524.414 863.293 524.042C863.219 523.67 863.257 523.284 863.402 522.934C863.547 522.583 863.793 522.284 864.109 522.073C864.424 521.863 864.795 521.75 865.174 521.75C865.682 521.75 866.17 521.952 866.53 522.312C866.889 522.671 867.091 523.159 867.091 523.668V523.668Z" fill="white"/>
<path d="M864.453 607.555C864.453 607.934 864.566 608.305 864.776 608.62C864.987 608.936 865.286 609.181 865.637 609.326C865.987 609.472 866.373 609.51 866.745 609.436C867.117 609.362 867.458 609.179 867.726 608.911C867.995 608.643 868.177 608.301 868.251 607.929C868.325 607.557 868.287 607.172 868.142 606.821C867.997 606.471 867.751 606.171 867.436 605.961C867.121 605.75 866.75 605.637 866.371 605.637C865.862 605.637 865.374 605.839 865.015 606.199C864.655 606.559 864.453 607.046 864.453 607.555V607.555Z" fill="white"/>
<path d="M875.793 519.339C877.911 519.339 879.628 517.623 879.628 515.505C879.628 513.387 877.911 511.67 875.793 511.67C873.675 511.67 871.958 513.387 871.958 515.505C871.958 517.623 873.675 519.339 875.793 519.339Z" fill="white"/>
<path d="M855.751 603.228C853.633 603.228 851.916 601.511 851.916 599.393C851.916 597.275 853.633 595.558 855.751 595.558C857.868 595.558 859.585 597.275 859.585 599.393C859.585 601.511 857.868 603.228 855.751 603.228Z" fill="white"/>
<g opacity="0.5">
<path opacity="0.5" d="M1370.4 448.346C1370.41 449.208 1370.16 450.053 1369.68 450.772C1369.2 451.492 1368.52 452.053 1367.73 452.385C1366.93 452.718 1366.05 452.806 1365.21 452.639C1364.36 452.472 1363.58 452.057 1362.97 451.447C1362.36 450.837 1361.95 450.059 1361.78 449.213C1361.62 448.367 1361.7 447.49 1362.04 446.694C1362.37 445.898 1362.93 445.218 1363.65 444.742C1364.37 444.266 1365.21 444.014 1366.08 444.019C1367.22 444.019 1368.32 444.475 1369.14 445.286C1369.95 446.098 1370.4 447.198 1370.4 448.346V448.346Z" fill="white"/>
<path opacity="0.5" d="M1357.57 460.196C1357.57 460.707 1357.42 461.206 1357.13 461.63C1356.85 462.055 1356.45 462.385 1355.98 462.581C1355.5 462.776 1354.99 462.827 1354.48 462.728C1353.98 462.628 1353.52 462.382 1353.16 462.021C1352.8 461.66 1352.56 461.2 1352.46 460.7C1352.36 460.199 1352.41 459.68 1352.6 459.208C1352.8 458.737 1353.13 458.334 1353.55 458.05C1353.98 457.766 1354.48 457.615 1354.99 457.615C1355.33 457.597 1355.68 457.652 1356 457.775C1356.32 457.899 1356.61 458.088 1356.85 458.332C1357.1 458.575 1357.29 458.867 1357.41 459.188C1357.53 459.509 1357.59 459.852 1357.57 460.196V460.196Z" fill="white"/>
<path opacity="0.5" d="M1350.2 444.019C1350.2 444.433 1350.07 444.837 1349.84 445.18C1349.61 445.524 1349.29 445.792 1348.91 445.95C1348.52 446.108 1348.1 446.149 1347.7 446.069C1347.29 445.988 1346.92 445.789 1346.63 445.497C1346.34 445.205 1346.14 444.832 1346.06 444.427C1345.98 444.022 1346.02 443.602 1346.18 443.22C1346.33 442.838 1346.6 442.512 1346.95 442.282C1347.29 442.052 1347.69 441.93 1348.11 441.93C1348.66 441.93 1349.19 442.15 1349.58 442.542C1349.98 442.934 1350.2 443.465 1350.2 444.019V444.019Z" fill="white"/>
</g>
<g opacity="0.5">
<path opacity="0.5" d="M361.142 532.234C361.138 533.096 361.389 533.941 361.865 534.66C362.342 535.38 363.021 535.941 363.817 536.273C364.613 536.606 365.49 536.694 366.336 536.527C367.183 536.36 367.96 535.945 368.57 535.335C369.18 534.725 369.595 533.947 369.762 533.101C369.929 532.255 369.841 531.378 369.509 530.582C369.176 529.786 368.615 529.106 367.896 528.63C367.176 528.154 366.332 527.902 365.469 527.907C364.322 527.907 363.221 528.363 362.41 529.174C361.598 529.986 361.142 531.086 361.142 532.234V532.234Z" fill="white"/>
<path opacity="0.5" d="M373.975 544.084C373.975 544.595 374.127 545.094 374.41 545.518C374.694 545.943 375.097 546.273 375.569 546.469C376.04 546.664 376.559 546.715 377.06 546.616C377.561 546.516 378.021 546.27 378.382 545.909C378.743 545.548 378.989 545.088 379.088 544.588C379.188 544.087 379.137 543.568 378.941 543.096C378.746 542.625 378.415 542.221 377.991 541.938C377.566 541.654 377.067 541.503 376.556 541.503C376.213 541.485 375.869 541.54 375.548 541.663C375.227 541.787 374.935 541.976 374.692 542.22C374.449 542.463 374.259 542.755 374.136 543.076C374.012 543.397 373.958 543.74 373.975 544.084V544.084Z" fill="white"/>
<path opacity="0.5" d="M381.349 527.907C381.349 528.321 381.472 528.725 381.701 529.068C381.931 529.412 382.257 529.68 382.639 529.838C383.021 529.996 383.441 530.037 383.846 529.957C384.252 529.876 384.624 529.677 384.916 529.385C385.209 529.093 385.408 528.72 385.488 528.315C385.569 527.91 385.527 527.489 385.369 527.108C385.211 526.726 384.943 526.4 384.6 526.17C384.256 525.94 383.852 525.818 383.439 525.818C382.885 525.818 382.353 526.038 381.961 526.43C381.569 526.822 381.349 527.353 381.349 527.907V527.907Z" fill="white"/>
</g>
<g opacity="0.5">
<path opacity="0.5" d="M1273.1 182.872C1273.1 183.728 1272.85 184.564 1272.38 185.276C1271.9 185.987 1271.22 186.542 1270.43 186.869C1269.64 187.197 1268.77 187.283 1267.93 187.116C1267.09 186.949 1266.32 186.537 1265.72 185.932C1265.11 185.327 1264.7 184.556 1264.53 183.716C1264.37 182.877 1264.45 182.007 1264.78 181.216C1265.11 180.426 1265.66 179.75 1266.37 179.275C1267.09 178.799 1267.92 178.546 1268.78 178.546C1269.93 178.546 1271.03 179.001 1271.84 179.813C1272.65 180.624 1273.1 181.725 1273.1 182.872Z" fill="white"/>
<path opacity="0.5" d="M1260.15 194.722C1260.17 195.237 1260.04 195.748 1259.78 196.188C1259.51 196.628 1259.11 196.978 1258.64 197.193C1258.18 197.407 1257.65 197.476 1257.14 197.391C1256.64 197.305 1256.16 197.07 1255.79 196.714C1255.42 196.359 1255.16 195.899 1255.05 195.395C1254.94 194.892 1254.98 194.367 1255.17 193.888C1255.37 193.409 1255.7 192.998 1256.12 192.709C1256.55 192.419 1257.05 192.264 1257.57 192.264C1257.9 192.247 1258.23 192.298 1258.55 192.414C1258.86 192.53 1259.15 192.709 1259.39 192.939C1259.63 193.169 1259.82 193.445 1259.95 193.752C1260.08 194.059 1260.15 194.389 1260.15 194.722Z" fill="white"/>
<path opacity="0.5" d="M1252.82 178.547C1252.82 178.96 1252.7 179.364 1252.47 179.708C1252.24 180.052 1251.92 180.319 1251.53 180.478C1251.15 180.636 1250.73 180.677 1250.33 180.597C1249.92 180.516 1249.55 180.317 1249.26 180.025C1248.96 179.732 1248.77 179.36 1248.69 178.955C1248.6 178.549 1248.65 178.129 1248.8 177.747C1248.96 177.366 1249.23 177.039 1249.57 176.81C1249.92 176.58 1250.32 176.458 1250.73 176.458C1251.29 176.458 1251.82 176.678 1252.21 177.07C1252.6 177.461 1252.82 177.993 1252.82 178.547V178.547Z" fill="white"/>
</g>
<g opacity="0.5">
<path opacity="0.5" d="M458.439 266.76C458.439 267.616 458.693 268.452 459.168 269.164C459.644 269.875 460.319 270.43 461.11 270.757C461.901 271.085 462.77 271.17 463.61 271.004C464.449 270.837 465.22 270.425 465.825 269.819C466.43 269.214 466.842 268.443 467.009 267.604C467.176 266.765 467.09 265.895 466.763 265.104C466.435 264.314 465.881 263.638 465.169 263.163C464.458 262.687 463.621 262.433 462.766 262.433C461.618 262.433 460.518 262.889 459.706 263.701C458.895 264.512 458.439 265.613 458.439 266.76Z" fill="white"/>
<path opacity="0.5" d="M471.394 278.61C471.369 279.125 471.499 279.636 471.768 280.076C472.036 280.516 472.43 280.866 472.899 281.08C473.368 281.295 473.89 281.364 474.399 281.279C474.907 281.193 475.379 280.958 475.752 280.602C476.126 280.246 476.384 279.787 476.494 279.283C476.604 278.78 476.56 278.254 476.369 277.776C476.178 277.297 475.848 276.886 475.421 276.597C474.994 276.307 474.491 276.152 473.975 276.152C473.642 276.135 473.309 276.186 472.996 276.302C472.684 276.418 472.398 276.597 472.157 276.827C471.915 277.057 471.723 277.333 471.592 277.64C471.461 277.946 471.393 278.276 471.394 278.61Z" fill="white"/>
<path opacity="0.5" d="M478.72 262.435C478.72 262.848 478.842 263.252 479.072 263.596C479.302 263.94 479.628 264.207 480.01 264.366C480.392 264.524 480.812 264.565 481.217 264.484C481.622 264.404 481.995 264.205 482.287 263.913C482.579 263.62 482.778 263.248 482.859 262.843C482.939 262.437 482.898 262.017 482.74 261.635C482.582 261.254 482.314 260.927 481.97 260.698C481.627 260.468 481.223 260.345 480.809 260.345C480.255 260.345 479.724 260.566 479.332 260.957C478.94 261.349 478.72 261.881 478.72 262.435V262.435Z" fill="white"/>
</g>
<g opacity="0.5">
<path opacity="0.5" d="M727.042 281.45C727.564 282.127 727.874 282.943 727.932 283.795C727.991 284.647 727.797 285.497 727.373 286.239C726.949 286.981 726.315 287.58 725.551 287.962C724.787 288.344 723.927 288.492 723.08 288.386C722.232 288.28 721.435 287.925 720.788 287.367C720.142 286.809 719.675 286.071 719.447 285.248C719.219 284.425 719.239 283.553 719.506 282.741C719.773 281.93 720.274 281.216 720.946 280.688C721.395 280.336 721.91 280.076 722.46 279.923C723.011 279.771 723.586 279.728 724.153 279.799C724.72 279.87 725.267 280.053 725.763 280.336C726.259 280.619 726.694 280.998 727.042 281.45V281.45Z" fill="white"/>
<path opacity="0.5" d="M724.068 298.659C724.488 299.2 724.677 299.886 724.591 300.566C724.506 301.246 724.154 301.865 723.613 302.285C723.072 302.706 722.386 302.894 721.706 302.809C721.026 302.723 720.408 302.371 719.987 301.83C719.779 301.562 719.625 301.256 719.536 300.929C719.446 300.602 719.421 300.26 719.463 299.923C719.506 299.586 719.614 299.261 719.782 298.966C719.95 298.671 720.174 298.413 720.442 298.204C720.71 297.996 721.016 297.843 721.343 297.753C721.671 297.663 722.012 297.638 722.349 297.681C722.686 297.723 723.011 297.831 723.306 297.999C723.601 298.167 723.86 298.391 724.068 298.659V298.659Z" fill="white"/>
<path opacity="0.5" d="M708.359 290.348C708.61 290.675 708.758 291.069 708.786 291.48C708.814 291.892 708.719 292.302 708.515 292.66C708.31 293.017 708.004 293.306 707.635 293.491C707.266 293.675 706.851 293.746 706.442 293.695C706.033 293.643 705.648 293.473 705.336 293.203C705.024 292.934 704.799 292.578 704.688 292.181C704.578 291.784 704.587 291.363 704.715 290.971C704.844 290.58 705.085 290.235 705.409 289.98C705.85 289.64 706.407 289.489 706.959 289.558C707.512 289.627 708.014 289.911 708.359 290.348Z" fill="white"/>
</g>
<g opacity="0.5">
<path opacity="0.5" d="M1004.5 365.338C1003.98 366.015 1003.67 366.83 1003.61 367.682C1003.55 368.535 1003.75 369.385 1004.17 370.127C1004.6 370.868 1005.23 371.468 1005.99 371.85C1006.76 372.232 1007.62 372.379 1008.46 372.273C1009.31 372.167 1010.11 371.813 1010.76 371.255C1011.4 370.696 1011.87 369.959 1012.1 369.136C1012.33 368.313 1012.31 367.441 1012.04 366.629C1011.77 365.818 1011.27 365.103 1010.6 364.576C1010.15 364.224 1009.63 363.963 1009.08 363.811C1008.53 363.658 1007.96 363.616 1007.39 363.687C1006.82 363.758 1006.28 363.94 1005.78 364.224C1005.29 364.507 1004.85 364.886 1004.5 365.338V365.338Z" fill="white"/>
<path opacity="0.5" d="M1007.48 382.547C1007.06 383.088 1006.87 383.774 1006.95 384.454C1007.04 385.134 1007.39 385.752 1007.93 386.173C1008.47 386.593 1009.16 386.782 1009.84 386.696C1010.52 386.611 1011.14 386.259 1011.56 385.718C1011.77 385.45 1011.92 385.144 1012.01 384.816C1012.1 384.489 1012.12 384.147 1012.08 383.811C1012.04 383.474 1011.93 383.149 1011.76 382.854C1011.6 382.559 1011.37 382.3 1011.1 382.092C1010.84 381.884 1010.53 381.73 1010.2 381.64C1009.87 381.551 1009.53 381.526 1009.2 381.568C1008.86 381.611 1008.53 381.719 1008.24 381.887C1007.94 382.054 1007.69 382.279 1007.48 382.547V382.547Z" fill="white"/>
<path opacity="0.5" d="M1023.19 374.236C1022.93 374.563 1022.79 374.957 1022.76 375.368C1022.73 375.779 1022.82 376.19 1023.03 376.547C1023.23 376.905 1023.54 377.194 1023.91 377.378C1024.28 377.562 1024.69 377.633 1025.1 377.582C1025.51 377.531 1025.9 377.36 1026.21 377.091C1026.52 376.822 1026.75 376.466 1026.86 376.069C1026.97 375.672 1026.96 375.251 1026.83 374.859C1026.7 374.467 1026.46 374.122 1026.14 373.867C1025.69 373.528 1025.14 373.376 1024.59 373.446C1024.03 373.515 1023.53 373.799 1023.19 374.236Z" fill="white"/>
</g>
<g opacity="0.5">
<path opacity="0.5" d="M1007.49 789.26C1007.98 789.549 1008.4 789.932 1008.74 790.387C1009.08 790.842 1009.33 791.359 1009.47 791.91C1009.61 792.461 1009.64 793.034 1009.56 793.596C1009.47 794.158 1009.28 794.698 1008.99 795.185C1008.55 795.921 1007.9 796.511 1007.13 796.879C1006.36 797.248 1005.49 797.379 1004.64 797.256C1003.8 797.133 1003.01 796.761 1002.37 796.188C1001.73 795.615 1001.28 794.866 1001.07 794.036C1000.86 793.206 1000.9 792.332 1001.19 791.526C1001.48 790.719 1002 790.015 1002.68 789.504C1003.37 788.993 1004.19 788.697 1005.05 788.653C1005.9 788.61 1006.75 788.821 1007.49 789.26V789.26Z" fill="white"/>
<path opacity="0.5" d="M1010.95 806.445C1011.54 806.797 1011.97 807.369 1012.14 808.035C1012.3 808.702 1012.2 809.407 1011.85 809.997C1011.5 810.587 1010.92 811.013 1010.26 811.182C1009.59 811.35 1008.89 811.247 1008.3 810.895C1008 810.72 1007.75 810.49 1007.55 810.217C1007.34 809.944 1007.2 809.634 1007.11 809.304C1007.03 808.974 1007.01 808.631 1007.06 808.295C1007.11 807.958 1007.22 807.634 1007.4 807.342C1007.57 807.05 1007.8 806.795 1008.08 806.592C1008.35 806.389 1008.66 806.241 1008.99 806.158C1009.32 806.075 1009.66 806.057 1010 806.106C1010.34 806.156 1010.66 806.271 1010.95 806.445V806.445Z" fill="white"/>
<path opacity="0.5" d="M993.375 804.453C993.847 804.743 994.186 805.207 994.319 805.745C994.453 806.283 994.369 806.852 994.088 807.329C993.874 807.682 993.56 807.964 993.186 808.139C992.812 808.313 992.394 808.373 991.986 808.311C991.578 808.249 991.198 808.068 990.893 807.789C990.588 807.511 990.372 807.149 990.273 806.748C990.173 806.348 990.195 805.927 990.335 805.538C990.475 805.15 990.726 804.811 991.058 804.566C991.39 804.32 991.787 804.179 992.199 804.159C992.612 804.138 993.021 804.241 993.375 804.453V804.453Z" fill="white"/>
</g>
<g opacity="0.5">
<path opacity="0.5" d="M724.057 873.148C723.568 873.437 723.141 873.819 722.8 874.274C722.459 874.729 722.212 875.247 722.073 875.797C721.933 876.348 721.904 876.921 721.988 877.483C722.071 878.046 722.265 878.586 722.558 879.072C722.995 879.808 723.641 880.398 724.414 880.767C725.187 881.135 726.051 881.266 726.899 881.143C727.746 881.02 728.538 880.649 729.174 880.075C729.81 879.502 730.261 878.753 730.471 877.923C730.681 877.093 730.64 876.22 730.354 875.413C730.067 874.606 729.547 873.903 728.861 873.391C728.174 872.88 727.351 872.584 726.496 872.541C725.641 872.497 724.792 872.709 724.057 873.148V873.148Z" fill="white"/>
<path opacity="0.5" d="M720.593 890.332C720.003 890.684 719.576 891.256 719.408 891.923C719.24 892.589 719.343 893.295 719.695 893.885C720.047 894.475 720.619 894.901 721.286 895.069C721.952 895.237 722.657 895.134 723.248 894.782C723.54 894.607 723.795 894.377 723.998 894.104C724.201 893.832 724.349 893.521 724.432 893.192C724.515 892.862 724.533 892.519 724.483 892.182C724.434 891.845 724.319 891.522 724.145 891.23C723.97 890.937 723.74 890.682 723.467 890.479C723.195 890.276 722.884 890.129 722.555 890.045C722.225 889.962 721.882 889.944 721.545 889.994C721.208 890.043 720.885 890.158 720.593 890.332V890.332Z" fill="white"/>
<path opacity="0.5" d="M738.169 888.34C737.697 888.631 737.357 889.095 737.224 889.633C737.091 890.171 737.174 890.739 737.456 891.217C737.67 891.57 737.984 891.851 738.358 892.026C738.732 892.201 739.149 892.261 739.557 892.199C739.965 892.137 740.346 891.955 740.651 891.677C740.956 891.399 741.171 891.036 741.271 890.636C741.37 890.235 741.348 889.814 741.209 889.425C741.069 889.037 740.817 888.699 740.485 888.453C740.154 888.208 739.756 888.066 739.344 888.046C738.932 888.026 738.523 888.128 738.169 888.34V888.34Z" fill="white"/>
</g>
<path d="M1478.84 359.503C1478.84 360.32 1478.6 361.118 1478.14 361.798C1477.69 362.477 1477.05 363.006 1476.29 363.319C1475.54 363.631 1474.71 363.713 1473.9 363.554C1473.1 363.394 1472.37 363.001 1471.79 362.423C1471.21 361.846 1470.82 361.11 1470.66 360.309C1470.5 359.508 1470.58 358.677 1470.89 357.923C1471.21 357.168 1471.74 356.523 1472.42 356.069C1473.1 355.615 1473.89 355.373 1474.71 355.373C1475.8 355.38 1476.85 355.817 1477.62 356.59C1478.4 357.363 1478.83 358.41 1478.84 359.503V359.503Z" fill="white"/>
<path d="M1537.86 404.612L1529.78 407.414L1527.49 415.674C1527.44 415.85 1527.34 416.008 1527.21 416.132C1527.08 416.255 1526.91 416.34 1526.73 416.375C1526.56 416.411 1526.37 416.397 1526.2 416.334C1526.03 416.271 1525.88 416.162 1525.77 416.019L1520.61 409.184L1512.05 409.553C1511.87 409.565 1511.69 409.525 1511.53 409.437C1511.37 409.349 1511.24 409.218 1511.15 409.058C1511.06 408.897 1511.02 408.716 1511.03 408.533C1511.04 408.351 1511.11 408.176 1511.22 408.029L1516.13 400.998L1513.13 392.984C1513.07 392.813 1513.06 392.628 1513.09 392.45C1513.13 392.271 1513.22 392.107 1513.34 391.974C1513.47 391.842 1513.63 391.746 1513.8 391.699C1513.98 391.652 1514.16 391.654 1514.34 391.706L1522.52 394.164L1529.21 388.805C1529.35 388.697 1529.53 388.63 1529.71 388.613C1529.89 388.595 1530.07 388.628 1530.23 388.707C1530.39 388.785 1530.53 388.907 1530.63 389.059C1530.72 389.211 1530.78 389.387 1530.78 389.567L1530.96 398.122L1538.11 402.842C1538.28 402.936 1538.41 403.079 1538.5 403.252C1538.59 403.425 1538.62 403.62 1538.59 403.811C1538.56 404.002 1538.48 404.181 1538.35 404.324C1538.22 404.467 1538.05 404.567 1537.86 404.612Z" fill="white"/>
<path opacity="0.2" d="M1402.56 175.229L1394.45 178.031L1392.16 186.291C1392.11 186.464 1392.01 186.62 1391.88 186.741C1391.74 186.862 1391.58 186.944 1391.4 186.977C1391.22 187.01 1391.04 186.993 1390.87 186.928C1390.7 186.864 1390.55 186.754 1390.44 186.611L1385.28 179.777L1376.72 180.17C1376.54 180.173 1376.37 180.126 1376.21 180.036C1376.06 179.947 1375.93 179.816 1375.85 179.659C1375.76 179.503 1375.72 179.326 1375.73 179.147C1375.73 178.968 1375.79 178.795 1375.89 178.646L1380.8 171.615L1377.8 163.601C1377.74 163.43 1377.73 163.245 1377.77 163.066C1377.8 162.888 1377.89 162.723 1378.01 162.591C1378.14 162.458 1378.3 162.363 1378.47 162.316C1378.65 162.268 1378.83 162.271 1379.01 162.323L1387.2 164.781L1393.88 159.446C1394.02 159.332 1394.2 159.26 1394.38 159.238C1394.56 159.215 1394.74 159.244 1394.91 159.321C1395.08 159.397 1395.22 159.519 1395.32 159.671C1395.42 159.824 1395.47 160.001 1395.48 160.184L1395.63 168.739L1402.78 173.459C1402.94 173.558 1403.07 173.701 1403.15 173.87C1403.23 174.039 1403.26 174.228 1403.24 174.414C1403.21 174.6 1403.14 174.776 1403.02 174.92C1402.9 175.064 1402.74 175.171 1402.56 175.229Z" fill="white"/>
<path d="M965.667 56.6112L961.247 58.1331L959.997 62.6187C959.969 62.7128 959.915 62.7974 959.841 62.8631C959.768 62.9288 959.677 62.9731 959.58 62.991C959.483 63.009 959.382 62.9999 959.29 62.9648C959.198 62.9297 959.117 62.87 959.056 62.7922L956.235 59.0809L951.559 59.2945C951.459 59.301 951.36 59.2792 951.272 59.2315C951.185 59.1838 951.113 59.1123 951.065 59.0254C951.017 58.9384 950.995 58.8397 951.001 58.7407C951.008 58.6418 951.043 58.5467 951.102 58.4668L953.789 54.6487L952.123 50.3634C952.089 50.2705 952.082 50.17 952.102 50.0731C952.122 49.9762 952.169 49.8868 952.237 49.8148C952.305 49.7429 952.392 49.6911 952.488 49.6654C952.584 49.6397 952.686 49.641 952.781 49.6692L957.256 51.0042L960.924 48.1073C961.002 48.049 961.095 48.0129 961.192 48.0028C961.289 47.9928 961.387 48.0093 961.475 48.0505C961.564 48.0917 961.639 48.156 961.694 48.2365C961.748 48.3171 961.779 48.4109 961.784 48.5078L961.878 53.1535L965.802 55.7034C965.874 55.7618 965.93 55.8378 965.963 55.924C965.997 56.0103 966.008 56.1037 965.994 56.1952C965.981 56.2867 965.943 56.3732 965.886 56.4461C965.829 56.519 965.754 56.5759 965.667 56.6112Z" fill="white"/>
<path d="M921.371 401.663C923.489 401.663 925.206 399.946 925.206 397.828C925.206 395.71 923.489 393.993 921.371 393.993C919.253 393.993 917.536 395.71 917.536 397.828C917.536 399.946 919.253 401.663 921.371 401.663Z" fill="white"/>
<path opacity="0.6" d="M795.137 328.621L793.342 332.885L795.906 336.752C795.964 336.833 795.996 336.928 796 337.027C796.003 337.126 795.978 337.223 795.927 337.308C795.876 337.393 795.801 337.462 795.711 337.507C795.621 337.551 795.521 337.57 795.421 337.56L790.737 337.215L787.782 340.804C787.718 340.881 787.634 340.939 787.539 340.971C787.443 341.003 787.34 341.009 787.242 340.987C787.144 340.965 787.054 340.916 786.982 340.846C786.91 340.776 786.86 340.688 786.837 340.592L785.73 336.103L781.344 334.461C781.251 334.425 781.17 334.365 781.11 334.287C781.049 334.209 781.012 334.117 781.003 334.019C780.993 333.922 781.011 333.824 781.054 333.736C781.098 333.648 781.165 333.573 781.25 333.521L785.298 331.111L785.541 326.502C785.544 326.404 785.575 326.308 785.632 326.227C785.688 326.145 785.767 326.081 785.859 326.042C785.951 326.003 786.053 325.991 786.152 326.007C786.251 326.023 786.344 326.066 786.419 326.132L789.995 329.111L794.543 327.919C794.637 327.9 794.734 327.907 794.824 327.938C794.914 327.969 794.994 328.023 795.055 328.095C795.116 328.167 795.156 328.254 795.171 328.347C795.185 328.44 795.173 328.534 795.137 328.621V328.621Z" fill="white"/>
</g>
<defs>
<linearGradient id="paint0_linear" x1="519.943" y1="1676.82" x2="2216.93" y2="521.739" gradientUnits="userSpaceOnUse">
<stop stop-color="#1C1C26"/>
<stop offset="1" stop-color="#2F313B"/>
</linearGradient>
<radialGradient id="paint1_radial" cx="0" cy="0" r="1" gradientUnits="userSpaceOnUse" gradientTransform="translate(1327.21 419.207) rotate(90) scale(662.207)">
<stop stop-color="#E6007A"/>
<stop offset="1" stop-color="#E6007A" stop-opacity="0"/>
</radialGradient>
<radialGradient id="paint2_radial" cx="0" cy="0" r="1" gradientUnits="userSpaceOnUse" gradientTransform="translate(1945.83 867.793) rotate(90) scale(662.207)">
<stop stop-color="#E6007A"/>
<stop offset="1" stop-color="#E6007A" stop-opacity="0"/>
</radialGradient>
<radialGradient id="paint3_radial" cx="0" cy="0" r="1" gradientUnits="userSpaceOnUse" gradientTransform="translate(1111.7 357.13) rotate(90) scale(168.099)">
<stop stop-color="#E6007A"/>
<stop offset="1" stop-color="#E6007A" stop-opacity="0"/>
</radialGradient>
<radialGradient id="paint4_radial" cx="0" cy="0" r="1" gradientUnits="userSpaceOnUse" gradientTransform="translate(1670.76 932.74) rotate(90) scale(168.099)">
<stop stop-color="#E6007A"/>
<stop offset="1" stop-color="#E6007A" stop-opacity="0"/>
</radialGradient>
<radialGradient id="paint5_radial" cx="0" cy="0" r="1" gradientUnits="userSpaceOnUse" gradientTransform="translate(1959.84 92.2467) rotate(90) scale(168.099)">
<stop stop-color="#E6007A"/>
<stop offset="1" stop-color="#E6007A" stop-opacity="0"/>
</radialGradient>
</defs>
</svg>
