<svg width="476" height="203" viewBox="0 0 476 203" fill="none" xmlns="http://www.w3.org/2000/svg">
<rect y="41" width="75" height="39" fill="#8BA1BE" fill-opacity="0.2"/>
<path d="M13.728 66V55.44H21.136V56.64H15.008V60.048H19.776V61.248H15.008V64.8H21.376V66H13.728ZM31.3551 55.44V56.64H27.6751V66H26.3951V56.64H22.7151V55.44H31.3551ZM41.8754 55.44V66H40.5954V55.44H41.8754ZM34.8674 55.44V66H33.5874V55.44H34.8674ZM41.1874 60.048V61.248H34.2594V60.048H41.1874Z" fill="white"/>
<rect width="52" height="39" fill="#8BA1BE" fill-opacity="0.2"/>
<path d="M13.728 25V14.44H17.488C18.736 14.44 19.648 14.7013 20.224 15.224C20.8 15.7467 21.088 16.456 21.088 17.352C21.088 17.8853 20.9333 18.3707 20.624 18.808C20.3147 19.2347 19.8773 19.5067 19.312 19.624V19.64C19.9413 19.7573 20.4373 20.0453 20.8 20.504C21.1733 20.952 21.36 21.464 21.36 22.04C21.36 22.936 21.024 23.656 20.352 24.2C19.68 24.7333 18.72 25 17.472 25H13.728ZM15.008 23.8H17.776C18.5333 23.8 19.0933 23.6453 19.456 23.336C19.8293 23.0267 20.016 22.5947 20.016 22.04C20.016 21.4747 19.8293 21.0427 19.456 20.744C19.0933 20.4347 18.5333 20.28 17.776 20.28H15.008V23.8ZM15.008 19.08H17.504C18.9973 19.08 19.744 18.504 19.744 17.352C19.744 16.2107 18.9973 15.64 17.504 15.64H15.008V19.08ZM31.4801 14.44V15.64H27.8001V25H26.5201V15.64H22.8401V14.44H31.4801ZM41.865 22.296C41.641 22.8933 41.321 23.4107 40.905 23.848C40.489 24.2747 39.9983 24.6 39.433 24.824C38.8783 25.048 38.2703 25.16 37.609 25.16C36.6063 25.16 35.737 24.9413 35.001 24.504C34.2757 24.056 33.7103 23.4267 33.305 22.616C32.9103 21.8053 32.713 20.84 32.713 19.72C32.713 18.6 32.9103 17.6347 33.305 16.824C33.7103 16.0133 34.2757 15.3893 35.001 14.952C35.737 14.504 36.5957 14.28 37.577 14.28C38.2597 14.28 38.8677 14.376 39.401 14.568C39.9343 14.7493 40.3877 15.0267 40.761 15.4C41.145 15.7627 41.449 16.2107 41.673 16.744L40.409 17.336C40.1743 16.728 39.833 16.2693 39.385 15.96C38.9477 15.64 38.377 15.48 37.673 15.48C36.9583 15.48 36.329 15.6507 35.785 15.992C35.241 16.3227 34.8143 16.8027 34.505 17.432C34.2063 18.0613 34.057 18.824 34.057 19.72C34.057 20.6053 34.201 21.368 34.489 22.008C34.777 22.6373 35.1877 23.1227 35.721 23.464C36.2543 23.7947 36.8837 23.96 37.609 23.96C38.313 23.96 38.9263 23.784 39.449 23.432C39.9717 23.0693 40.3503 22.5307 40.585 21.816L41.865 22.296Z" fill="white"/>
<rect y="82" width="98" height="39" fill="#8BA1BE" fill-opacity="0.2"/>
<path d="M17.456 96.44C18.1707 96.44 18.7893 96.5733 19.312 96.84C19.8453 97.096 20.2613 97.464 20.56 97.944C20.8587 98.424 21.008 98.9947 21.008 99.656C21.008 100.317 20.8587 100.888 20.56 101.368C20.2613 101.848 19.8453 102.221 19.312 102.488C18.7893 102.744 18.1707 102.872 17.456 102.872H15.008V107H13.728V96.44H17.456ZM17.264 101.672C18.096 101.672 18.704 101.501 19.088 101.16C19.472 100.808 19.664 100.307 19.664 99.656C19.664 98.9947 19.472 98.4933 19.088 98.152C18.704 97.8107 18.096 97.64 17.264 97.64H15.008V101.672H17.264ZM27.9256 101.832C27.9256 101.235 27.7656 100.776 27.4456 100.456C27.1256 100.125 26.6723 99.96 26.0856 99.96C25.531 99.96 25.0616 100.083 24.6776 100.328C24.2936 100.563 24.011 100.947 23.8296 101.48L22.7896 100.84C23.003 100.243 23.3976 99.7627 23.9736 99.4C24.5496 99.0267 25.2643 98.84 26.1176 98.84C26.6936 98.84 27.2163 98.9413 27.6856 99.144C28.155 99.336 28.523 99.6347 28.7896 100.04C29.067 100.435 29.2056 100.947 29.2056 101.576V105.448C29.2056 105.832 29.4083 106.024 29.8136 106.024C30.0163 106.024 30.2136 105.997 30.4056 105.944L30.3416 106.952C30.1283 107.059 29.851 107.112 29.5096 107.112C29.2003 107.112 28.923 107.053 28.6776 106.936C28.4323 106.819 28.2403 106.643 28.1016 106.408C27.963 106.163 27.8936 105.859 27.8936 105.496V105.336L28.2136 105.384C28.0856 105.8 27.867 106.141 27.5576 106.408C27.2483 106.664 26.9016 106.856 26.5176 106.984C26.1336 107.101 25.755 107.16 25.3816 107.16C24.9123 107.16 24.475 107.08 24.0696 106.92C23.6643 106.76 23.339 106.52 23.0936 106.2C22.859 105.869 22.7416 105.464 22.7416 104.984C22.7416 104.387 22.939 103.896 23.3336 103.512C23.739 103.117 24.299 102.851 25.0136 102.712L28.1816 102.088V103.144L25.6056 103.672C25.083 103.779 24.6936 103.928 24.4376 104.12C24.1816 104.312 24.0536 104.579 24.0536 104.92C24.0536 105.251 24.1816 105.523 24.4376 105.736C24.7043 105.939 25.0776 106.04 25.5576 106.04C25.867 106.04 26.1603 106.003 26.4376 105.928C26.7256 105.843 26.9816 105.72 27.2056 105.56C27.4296 105.389 27.6056 105.181 27.7336 104.936C27.8616 104.68 27.9256 104.381 27.9256 104.04V101.832ZM38.4234 99L34.6634 108.344C34.4607 108.867 34.2367 109.277 33.9914 109.576C33.7567 109.885 33.49 110.104 33.1914 110.232C32.9034 110.371 32.5674 110.44 32.1834 110.44C31.8207 110.44 31.4847 110.387 31.1754 110.28C30.8767 110.184 30.61 110.051 30.3754 109.88L30.7274 108.76C30.9407 108.952 31.1647 109.091 31.3994 109.176C31.6447 109.272 31.8847 109.32 32.1194 109.32C32.3967 109.32 32.658 109.235 32.9034 109.064C33.1487 108.893 33.3727 108.547 33.5754 108.024L33.9914 106.984L33.1914 105.08L30.6474 99H32.1034L34.1034 104.216L34.5994 105.64L35.1754 104.056L37.0474 99H38.4234ZM40.0974 110.36V99H41.2174L41.3294 100.952L41.1534 100.728C41.292 100.355 41.5 100.029 41.7774 99.752C42.0547 99.464 42.3907 99.24 42.7854 99.08C43.18 98.92 43.6067 98.84 44.0654 98.84C44.716 98.84 45.3134 99.0053 45.8574 99.336C46.412 99.6667 46.8547 100.141 47.1854 100.76C47.516 101.379 47.6814 102.125 47.6814 103C47.6814 103.864 47.5107 104.611 47.1694 105.24C46.8387 105.859 46.396 106.333 45.8414 106.664C45.2867 106.995 44.6787 107.16 44.0174 107.16C43.356 107.16 42.7747 107 42.2734 106.68C41.7827 106.349 41.4307 105.933 41.2174 105.432L41.3774 105.192V110.36H40.0974ZM43.8894 106.04C44.6787 106.04 45.292 105.763 45.7294 105.208C46.1774 104.653 46.4014 103.917 46.4014 103C46.4014 102.083 46.1827 101.347 45.7454 100.792C45.3187 100.237 44.716 99.96 43.9374 99.96C43.4254 99.96 42.9774 100.088 42.5934 100.344C42.2094 100.589 41.9107 100.941 41.6974 101.4C41.484 101.848 41.3774 102.381 41.3774 103C41.3774 103.608 41.4787 104.141 41.6814 104.6C41.8947 105.059 42.188 105.416 42.5614 105.672C42.9454 105.917 43.388 106.04 43.8894 106.04ZM54.8006 101.832C54.8006 101.235 54.6406 100.776 54.3206 100.456C54.0006 100.125 53.5473 99.96 52.9606 99.96C52.406 99.96 51.9366 100.083 51.5526 100.328C51.1686 100.563 50.886 100.947 50.7046 101.48L49.6646 100.84C49.878 100.243 50.2726 99.7627 50.8486 99.4C51.4246 99.0267 52.1393 98.84 52.9926 98.84C53.5686 98.84 54.0913 98.9413 54.5606 99.144C55.03 99.336 55.398 99.6347 55.6646 100.04C55.942 100.435 56.0806 100.947 56.0806 101.576V105.448C56.0806 105.832 56.2833 106.024 56.6886 106.024C56.8913 106.024 57.0886 105.997 57.2806 105.944L57.2166 106.952C57.0033 107.059 56.726 107.112 56.3846 107.112C56.0753 107.112 55.798 107.053 55.5526 106.936C55.3073 106.819 55.1153 106.643 54.9766 106.408C54.838 106.163 54.7686 105.859 54.7686 105.496V105.336L55.0886 105.384C54.9606 105.8 54.742 106.141 54.4326 106.408C54.1233 106.664 53.7766 106.856 53.3926 106.984C53.0086 107.101 52.63 107.16 52.2566 107.16C51.7873 107.16 51.35 107.08 50.9446 106.92C50.5393 106.76 50.214 106.52 49.9686 106.2C49.734 105.869 49.6166 105.464 49.6166 104.984C49.6166 104.387 49.814 103.896 50.2086 103.512C50.614 103.117 51.174 102.851 51.8886 102.712L55.0566 102.088V103.144L52.4806 103.672C51.958 103.779 51.5686 103.928 51.3126 104.12C51.0566 104.312 50.9286 104.579 50.9286 104.92C50.9286 105.251 51.0566 105.523 51.3126 105.736C51.5793 105.939 51.9526 106.04 52.4326 106.04C52.742 106.04 53.0353 106.003 53.3126 105.928C53.6006 105.843 53.8566 105.72 54.0806 105.56C54.3046 105.389 54.4806 105.181 54.6086 104.936C54.7366 104.68 54.8006 104.381 54.8006 104.04V101.832ZM60.4071 95.32V104.968C60.4071 105.373 60.4818 105.656 60.6311 105.816C60.7805 105.965 61.0205 106.04 61.3511 106.04C61.5645 106.04 61.7405 106.024 61.8791 105.992C62.0178 105.96 62.2045 105.901 62.4391 105.816L62.2311 106.936C62.0605 107.011 61.8738 107.064 61.6711 107.096C61.4685 107.139 61.2605 107.16 61.0471 107.16C60.3965 107.16 59.9111 106.984 59.5911 106.632C59.2818 106.28 59.1271 105.741 59.1271 105.016V95.32H60.4071Z" fill="white"/>
<rect y="164" width="350" height="39" fill="#E6007A"/>
<path d="M17.456 178.44C18.1707 178.44 18.7893 178.573 19.312 178.84C19.8453 179.096 20.2613 179.464 20.56 179.944C20.8587 180.424 21.008 180.995 21.008 181.656C21.008 182.317 20.8587 182.888 20.56 183.368C20.2613 183.848 19.8453 184.221 19.312 184.488C18.7893 184.744 18.1707 184.872 17.456 184.872H15.008V189H13.728V178.44H17.456ZM17.264 183.672C18.096 183.672 18.704 183.501 19.088 183.16C19.472 182.808 19.664 182.307 19.664 181.656C19.664 180.995 19.472 180.493 19.088 180.152C18.704 179.811 18.096 179.64 17.264 179.64H15.008V183.672H17.264ZM26.425 180.84C27.1823 180.84 27.849 181.005 28.425 181.336C29.0117 181.667 29.4703 182.147 29.801 182.776C30.1317 183.395 30.297 184.136 30.297 185C30.297 185.864 30.1317 186.611 29.801 187.24C29.4703 187.859 29.0117 188.333 28.425 188.664C27.849 188.995 27.1823 189.16 26.425 189.16C25.6783 189.16 25.0117 188.995 24.425 188.664C23.8383 188.333 23.3797 187.859 23.049 187.24C22.7183 186.611 22.553 185.864 22.553 185C22.553 184.136 22.7183 183.395 23.049 182.776C23.3797 182.147 23.8383 181.667 24.425 181.336C25.0117 181.005 25.6783 180.84 26.425 180.84ZM26.425 181.944C25.881 181.944 25.417 182.067 25.033 182.312C24.649 182.557 24.3503 182.909 24.137 183.368C23.9343 183.816 23.833 184.36 23.833 185C23.833 185.629 23.9343 186.173 24.137 186.632C24.3503 187.091 24.649 187.443 25.033 187.688C25.417 187.933 25.881 188.056 26.425 188.056C26.969 188.056 27.433 187.933 27.817 187.688C28.201 187.443 28.4943 187.091 28.697 186.632C28.9103 186.173 29.017 185.629 29.017 185C29.017 184.36 28.9103 183.816 28.697 183.368C28.4943 182.909 28.201 182.557 27.817 182.312C27.433 182.067 26.969 181.944 26.425 181.944ZM33.9228 177.32V186.968C33.9228 187.373 33.9974 187.656 34.1468 187.816C34.2961 187.965 34.5361 188.04 34.8668 188.04C35.0801 188.04 35.2561 188.024 35.3948 187.992C35.5334 187.96 35.7201 187.901 35.9548 187.816L35.7468 188.936C35.5761 189.011 35.3894 189.064 35.1868 189.096C34.9841 189.139 34.7761 189.16 34.5628 189.16C33.9121 189.16 33.4268 188.984 33.1068 188.632C32.7974 188.28 32.6428 187.741 32.6428 187.016V177.32H33.9228ZM44.6214 181L41.1654 184.456L40.8614 184.76L38.2374 187.384V185.784L43.0054 181H44.6214ZM38.8774 177.32V189H37.5974V177.32H38.8774ZM41.2774 183.8L44.8134 189H43.2614L40.2054 184.52L41.2774 183.8ZM51.1913 183.832C51.1913 183.235 51.0313 182.776 50.7113 182.456C50.3913 182.125 49.9379 181.96 49.3513 181.96C48.7966 181.96 48.3273 182.083 47.9433 182.328C47.5593 182.563 47.2766 182.947 47.0953 183.48L46.0553 182.84C46.2686 182.243 46.6633 181.763 47.2393 181.4C47.8153 181.027 48.5299 180.84 49.3833 180.84C49.9593 180.84 50.4819 180.941 50.9513 181.144C51.4206 181.336 51.7886 181.635 52.0553 182.04C52.3326 182.435 52.4713 182.947 52.4713 183.576V187.448C52.4713 187.832 52.6739 188.024 53.0793 188.024C53.2819 188.024 53.4793 187.997 53.6713 187.944L53.6073 188.952C53.3939 189.059 53.1166 189.112 52.7753 189.112C52.4659 189.112 52.1886 189.053 51.9433 188.936C51.6979 188.819 51.5059 188.643 51.3673 188.408C51.2286 188.163 51.1593 187.859 51.1593 187.496V187.336L51.4793 187.384C51.3513 187.8 51.1326 188.141 50.8233 188.408C50.5139 188.664 50.1673 188.856 49.7833 188.984C49.3993 189.101 49.0206 189.16 48.6473 189.16C48.1779 189.16 47.7406 189.08 47.3353 188.92C46.9299 188.76 46.6046 188.52 46.3593 188.2C46.1246 187.869 46.0073 187.464 46.0073 186.984C46.0073 186.387 46.2046 185.896 46.5993 185.512C47.0046 185.117 47.5646 184.851 48.2793 184.712L51.4473 184.088V185.144L48.8713 185.672C48.3486 185.779 47.9593 185.928 47.7033 186.12C47.4473 186.312 47.3193 186.579 47.3193 186.92C47.3193 187.251 47.4473 187.523 47.7033 187.736C47.9699 187.939 48.3433 188.04 48.8233 188.04C49.1326 188.04 49.4259 188.003 49.7033 187.928C49.9913 187.843 50.2473 187.72 50.4713 187.56C50.6953 187.389 50.8713 187.181 50.9993 186.936C51.1273 186.68 51.1913 186.381 51.1913 186.04V183.832ZM58.7018 189.16C58.0404 189.16 57.4324 188.995 56.8778 188.664C56.3231 188.333 55.8804 187.859 55.5498 187.24C55.2191 186.611 55.0538 185.864 55.0538 185C55.0538 184.115 55.2298 183.363 55.5818 182.744C55.9338 182.125 56.3978 181.656 56.9738 181.336C57.5498 181.005 58.1684 180.84 58.8298 180.84C59.4911 180.84 60.0618 181.011 60.5418 181.352C61.0324 181.693 61.3578 182.147 61.5178 182.712L61.3578 182.824V177.32H62.6378V189H61.5178L61.4058 187.064L61.5818 186.968C61.5071 187.437 61.3258 187.837 61.0378 188.168C60.7604 188.488 60.4138 188.733 59.9978 188.904C59.5924 189.075 59.1604 189.16 58.7018 189.16ZM58.8298 188.04C59.3418 188.04 59.7844 187.912 60.1578 187.656C60.5418 187.4 60.8351 187.037 61.0378 186.568C61.2511 186.088 61.3578 185.528 61.3578 184.888C61.3578 184.28 61.2511 183.757 61.0378 183.32C60.8351 182.883 60.5471 182.547 60.1738 182.312C59.8111 182.077 59.3844 181.96 58.8938 181.96C58.0831 181.96 57.4538 182.237 57.0058 182.792C56.5578 183.347 56.3338 184.083 56.3338 185C56.3338 185.917 56.5524 186.653 56.9898 187.208C57.4271 187.763 58.0404 188.04 58.8298 188.04ZM68.957 189.16C68.1997 189.16 67.5223 188.995 66.925 188.664C66.3383 188.333 65.8797 187.859 65.549 187.24C65.2183 186.611 65.053 185.864 65.053 185C65.053 184.136 65.2183 183.395 65.549 182.776C65.8797 182.147 66.333 181.667 66.909 181.336C67.485 181.005 68.141 180.84 68.877 180.84C69.6237 180.84 70.2583 181 70.781 181.32C71.3143 181.64 71.7197 182.077 71.997 182.632C72.2743 183.176 72.413 183.789 72.413 184.472C72.413 184.653 72.4077 184.819 72.397 184.968C72.3863 185.117 72.3703 185.251 72.349 185.368H65.885V184.232H71.789L71.133 184.36C71.133 183.592 70.9197 183 70.493 182.584C70.077 182.168 69.5277 181.96 68.845 181.96C68.3223 181.96 67.869 182.083 67.485 182.328C67.1117 182.563 66.8183 182.909 66.605 183.368C66.4023 183.816 66.301 184.36 66.301 185C66.301 185.629 66.4077 186.173 66.621 186.632C66.8343 187.091 67.133 187.443 67.517 187.688C67.9117 187.923 68.381 188.04 68.925 188.04C69.5117 188.04 69.9863 187.928 70.349 187.704C70.7223 187.48 71.021 187.176 71.245 186.792L72.253 187.384C72.0503 187.747 71.789 188.061 71.469 188.328C71.1597 188.595 70.7917 188.803 70.365 188.952C69.949 189.091 69.4797 189.16 68.957 189.16ZM75.3185 181L77.7025 184.344L77.7825 184.456L81.0625 189H79.4945L77.0145 185.528L76.8705 185.352L73.7185 181H75.3185ZM81.0145 181L77.8465 185.272H77.7665L75.0145 189H73.5265L77.0145 184.408H77.1105L79.5105 181H81.0145Z" fill="white"/>
<rect y="123" width="156" height="39" fill="#8BA1BE" fill-opacity="0.2"/>
<path d="M21.92 137.44L17.92 148H16.464L12.448 137.44H13.824L16.512 144.736L17.184 146.832L17.856 144.752L20.544 137.44H21.92ZM24.503 138.464C24.215 138.464 23.9803 138.379 23.799 138.208C23.6283 138.027 23.543 137.792 23.543 137.504C23.543 137.216 23.6283 136.987 23.799 136.816C23.9803 136.635 24.215 136.544 24.503 136.544C24.791 136.544 25.0203 136.635 25.191 136.816C25.3723 136.987 25.463 137.216 25.463 137.504C25.463 137.792 25.3723 138.027 25.191 138.208C25.0203 138.379 24.791 138.464 24.503 138.464ZM25.143 140V148H23.863V140H25.143ZM30.993 148.16C30.2143 148.16 29.4943 147.995 28.833 147.664C28.1823 147.333 27.681 146.864 27.329 146.256L28.417 145.472C28.6517 145.963 28.993 146.347 29.441 146.624C29.8997 146.901 30.449 147.04 31.089 147.04C31.6543 147.04 32.097 146.933 32.417 146.72C32.737 146.496 32.897 146.208 32.897 145.856C32.897 145.632 32.8223 145.429 32.673 145.248C32.5343 145.056 32.2623 144.917 31.857 144.832L29.937 144.432C29.1583 144.272 28.5983 144.005 28.257 143.632C27.9263 143.259 27.761 142.795 27.761 142.24C27.761 141.803 27.8837 141.403 28.129 141.04C28.385 140.677 28.7423 140.389 29.201 140.176C29.6703 139.952 30.2197 139.84 30.849 139.84C31.6383 139.84 32.305 139.995 32.849 140.304C33.393 140.613 33.7983 141.051 34.065 141.616L32.993 142.32C32.8117 141.851 32.5183 141.509 32.113 141.296C31.7077 141.072 31.2863 140.96 30.849 140.96C30.465 140.96 30.1343 141.013 29.857 141.12C29.5903 141.227 29.3823 141.376 29.233 141.568C29.0943 141.749 29.025 141.957 29.025 142.192C29.025 142.427 29.105 142.645 29.265 142.848C29.425 143.04 29.7237 143.179 30.161 143.264L32.161 143.68C32.9077 143.829 33.4303 144.075 33.729 144.416C34.0277 144.757 34.177 145.173 34.177 145.664C34.177 146.165 34.0437 146.608 33.777 146.992C33.5103 147.365 33.137 147.653 32.657 147.856C32.177 148.059 31.6223 148.16 30.993 148.16ZM41.2225 142.832C41.2225 142.235 41.0625 141.776 40.7425 141.456C40.4225 141.125 39.9692 140.96 39.3825 140.96C38.8278 140.96 38.3585 141.083 37.9745 141.328C37.5905 141.563 37.3078 141.947 37.1265 142.48L36.0865 141.84C36.2998 141.243 36.6945 140.763 37.2705 140.4C37.8465 140.027 38.5612 139.84 39.4145 139.84C39.9905 139.84 40.5132 139.941 40.9825 140.144C41.4518 140.336 41.8198 140.635 42.0865 141.04C42.3638 141.435 42.5025 141.947 42.5025 142.576V146.448C42.5025 146.832 42.7052 147.024 43.1105 147.024C43.3132 147.024 43.5105 146.997 43.7025 146.944L43.6385 147.952C43.4252 148.059 43.1478 148.112 42.8065 148.112C42.4972 148.112 42.2198 148.053 41.9745 147.936C41.7292 147.819 41.5372 147.643 41.3985 147.408C41.2598 147.163 41.1905 146.859 41.1905 146.496V146.336L41.5105 146.384C41.3825 146.8 41.1638 147.141 40.8545 147.408C40.5452 147.664 40.1985 147.856 39.8145 147.984C39.4305 148.101 39.0518 148.16 38.6785 148.16C38.2092 148.16 37.7718 148.08 37.3665 147.92C36.9612 147.76 36.6358 147.52 36.3905 147.2C36.1558 146.869 36.0385 146.464 36.0385 145.984C36.0385 145.387 36.2358 144.896 36.6305 144.512C37.0358 144.117 37.5958 143.851 38.3105 143.712L41.4785 143.088V144.144L38.9025 144.672C38.3798 144.779 37.9905 144.928 37.7345 145.12C37.4785 145.312 37.3505 145.579 37.3505 145.92C37.3505 146.251 37.4785 146.523 37.7345 146.736C38.0012 146.939 38.3745 147.04 38.8545 147.04C39.1638 147.04 39.4572 147.003 39.7345 146.928C40.0225 146.843 40.2785 146.72 40.5025 146.56C40.7265 146.389 40.9025 146.181 41.0305 145.936C41.1585 145.68 41.2225 145.381 41.2225 145.04V142.832Z" fill="white"/>
<path d="M95.9515 59.8558C95.8875 60.6345 95.6795 61.2265 95.3275 61.6318C94.9862 62.0371 94.5008 62.2398 93.8715 62.2398C93.5088 62.2398 93.1942 62.1811 92.9275 62.0638C92.6608 61.9465 92.4208 61.8078 92.2075 61.6478C92.0048 61.4878 91.7968 61.3491 91.5835 61.2318C91.3808 61.1145 91.1515 61.0558 90.8955 61.0558C90.6182 61.0558 90.3995 61.1625 90.2395 61.3758C90.0795 61.5891 89.9675 61.8771 89.9035 62.2398H88.6875C88.7515 61.4505 88.9542 60.8584 89.2955 60.4638C89.6368 60.0585 90.1328 59.8558 90.7835 59.8558C91.1355 59.8558 91.4448 59.9145 91.7115 60.0318C91.9782 60.1491 92.2182 60.2878 92.4315 60.4478C92.6448 60.6078 92.8528 60.7465 93.0555 60.8638C93.2688 60.9811 93.4982 61.0398 93.7435 61.0398C94.0208 61.0398 94.2395 60.9331 94.3995 60.7198C94.5595 60.5065 94.6715 60.2185 94.7355 59.8558H95.9515Z" fill="white"/>
<path d="M103.277 65.9998V64.9598C104.333 64.1811 105.213 63.4985 105.917 62.9118C106.632 62.3251 107.203 61.7918 107.629 61.3118C108.056 60.8318 108.36 60.3785 108.541 59.9518C108.723 59.5145 108.813 59.0611 108.813 58.5918C108.813 57.9625 108.611 57.4558 108.205 57.0718C107.811 56.6771 107.267 56.4798 106.573 56.4798C105.848 56.4798 105.267 56.7198 104.829 57.1998C104.392 57.6691 104.136 58.2985 104.061 59.0878L102.941 58.4158C103.037 57.7971 103.235 57.2531 103.533 56.7838C103.843 56.3144 104.253 55.9465 104.765 55.6798C105.288 55.4131 105.907 55.2798 106.621 55.2798C107.165 55.2798 107.651 55.3598 108.077 55.5198C108.515 55.6798 108.888 55.9091 109.197 56.2078C109.507 56.4958 109.741 56.8425 109.901 57.2478C110.072 57.6531 110.157 58.1011 110.157 58.5918C110.157 59.2531 109.997 59.9038 109.677 60.5438C109.357 61.1731 108.829 61.8345 108.093 62.5278C107.357 63.2211 106.36 63.9891 105.101 64.8318V64.8478C105.219 64.8371 105.379 64.8318 105.581 64.8318C105.795 64.8211 106.003 64.8158 106.205 64.8158C106.419 64.8051 106.579 64.7998 106.685 64.7998H110.381V65.9998H103.277Z" fill="white"/>
<path d="M116.397 66.1598C115.203 66.1598 114.248 65.6958 113.533 64.7678C112.819 63.8398 112.461 62.4905 112.461 60.7198C112.461 58.9491 112.819 57.5998 113.533 56.6718C114.248 55.7438 115.203 55.2798 116.397 55.2798C117.603 55.2798 118.557 55.7438 119.261 56.6718C119.976 57.5998 120.333 58.9491 120.333 60.7198C120.333 62.4905 119.976 63.8398 119.261 64.7678C118.557 65.6958 117.603 66.1598 116.397 66.1598ZM116.397 65.0078C116.963 65.0078 117.437 64.8478 117.821 64.5278C118.216 64.1971 118.509 63.7118 118.701 63.0718C118.904 62.4318 119.005 61.6478 119.005 60.7198C119.005 59.7918 118.904 59.0078 118.701 58.3678C118.509 57.7278 118.216 57.2478 117.821 56.9278C117.437 56.5971 116.963 56.4318 116.397 56.4318C115.832 56.4318 115.352 56.5971 114.957 56.9278C114.573 57.2478 114.28 57.7278 114.077 58.3678C113.885 59.0078 113.789 59.7918 113.789 60.7198C113.789 61.6478 113.885 62.4318 114.077 63.0718C114.28 63.7118 114.573 64.1971 114.957 64.5278C115.352 64.8478 115.832 65.0078 116.397 65.0078Z" fill="white"/>
<path d="M135.542 55.4398V56.6398H131.862V65.9998H130.582V56.6398H126.902V55.4398H135.542Z" fill="white"/>
<path d="M141.502 55.4398C142.217 55.4398 142.836 55.5731 143.358 55.8398C143.892 56.0958 144.308 56.4638 144.606 56.9438C144.905 57.4238 145.054 57.9945 145.054 58.6558C145.054 59.3171 144.905 59.8878 144.606 60.3678C144.308 60.8478 143.892 61.2211 143.358 61.4878C142.836 61.7438 142.217 61.8718 141.502 61.8718H139.054V65.9998H137.774V55.4398H141.502ZM141.31 60.6718C142.142 60.6718 142.75 60.5011 143.134 60.1598C143.518 59.8078 143.71 59.3065 143.71 58.6558C143.71 57.9945 143.518 57.4931 143.134 57.1518C142.75 56.8105 142.142 56.6398 141.31 56.6398H139.054V60.6718H141.31Z" fill="white"/>
<path d="M150.932 55.2798C151.86 55.2798 152.66 55.4718 153.332 55.8558C154.004 56.2291 154.564 56.7838 155.012 57.5198L153.94 58.3518C153.545 57.6691 153.097 57.1891 152.596 56.9118C152.105 56.6238 151.508 56.4798 150.804 56.4798C150.239 56.4798 149.769 56.5598 149.396 56.7198C149.033 56.8798 148.767 57.0931 148.596 57.3598C148.425 57.6158 148.34 57.9091 148.34 58.2398C148.34 58.6131 148.457 58.9438 148.692 59.2318C148.927 59.5091 149.396 59.7278 150.1 59.8878L152.388 60.3998C153.401 60.6238 154.105 60.9651 154.5 61.4238C154.905 61.8718 155.108 62.4318 155.108 63.1038C155.108 63.7011 154.937 64.2345 154.596 64.7038C154.265 65.1625 153.796 65.5198 153.188 65.7758C152.58 66.0318 151.865 66.1598 151.044 66.1598C150.276 66.1598 149.599 66.0585 149.012 65.8558C148.436 65.6425 147.94 65.3598 147.524 65.0078C147.108 64.6558 146.767 64.2611 146.5 63.8238L147.62 62.9118C147.823 63.3171 148.084 63.6745 148.404 63.9838C148.724 64.2931 149.108 64.5331 149.556 64.7038C150.015 64.8745 150.537 64.9598 151.124 64.9598C151.668 64.9598 152.137 64.8958 152.532 64.7678C152.937 64.6291 153.247 64.4318 153.46 64.1758C153.673 63.9091 153.78 63.5891 153.78 63.2158C153.78 62.8745 153.668 62.5705 153.444 62.3038C153.22 62.0265 152.799 61.8185 152.18 61.6798L149.7 61.1198C149.049 60.9705 148.521 60.7678 148.116 60.5118C147.721 60.2451 147.433 59.9358 147.252 59.5838C147.081 59.2211 146.996 58.8318 146.996 58.4158C146.996 57.8505 147.151 57.3331 147.46 56.8638C147.78 56.3838 148.233 55.9998 148.82 55.7118C149.417 55.4238 150.121 55.2798 150.932 55.2798Z" fill="white"/>
<path d="M70.9515 18.8558C70.8875 19.6345 70.6795 20.2265 70.3275 20.6318C69.9862 21.0371 69.5008 21.2398 68.8715 21.2398C68.5088 21.2398 68.1942 21.1811 67.9275 21.0638C67.6608 20.9465 67.4208 20.8078 67.2075 20.6478C67.0048 20.4878 66.7968 20.3491 66.5835 20.2318C66.3808 20.1145 66.1515 20.0558 65.8955 20.0558C65.6182 20.0558 65.3995 20.1625 65.2395 20.3758C65.0795 20.5891 64.9675 20.8771 64.9035 21.2398H63.6875C63.7515 20.4505 63.9542 19.8585 64.2955 19.4638C64.6368 19.0585 65.1328 18.8558 65.7835 18.8558C66.1355 18.8558 66.4448 18.9145 66.7115 19.0318C66.9782 19.1491 67.2182 19.2878 67.4315 19.4478C67.6448 19.6078 67.8528 19.7465 68.0555 19.8638C68.2688 19.9811 68.4982 20.0398 68.7435 20.0398C69.0208 20.0398 69.2395 19.9331 69.3995 19.7198C69.5595 19.5065 69.6715 19.2185 69.7355 18.8558H70.9515Z" fill="white"/>
<path d="M77.0926 14.4398H84.8686V15.6398C83.9833 16.5785 83.258 17.5438 82.6926 18.5358C82.138 19.5171 81.7326 20.5411 81.4766 21.6078C81.2206 22.6745 81.0926 23.8051 81.0926 24.9998H79.7806C79.7806 23.8158 79.9246 22.6585 80.2126 21.5278C80.5113 20.3865 80.9593 19.2931 81.5566 18.2478C82.154 17.2025 82.8953 16.2265 83.7806 15.3198L83.9886 15.6398H77.0926V14.4398Z" fill="white"/>
<path d="M99.1046 14.4398V15.6398H95.4246V24.9998H94.1446V15.6398H90.4646V14.4398H99.1046Z" fill="white"/>
<path d="M105.065 14.4398C105.78 14.4398 106.398 14.5731 106.921 14.8398C107.454 15.0958 107.87 15.4638 108.169 15.9438C108.468 16.4238 108.617 16.9945 108.617 17.6558C108.617 18.3171 108.468 18.8878 108.169 19.3678C107.87 19.8478 107.454 20.2211 106.921 20.4878C106.398 20.7438 105.78 20.8718 105.065 20.8718H102.617V24.9998H101.337V14.4398H105.065ZM104.873 19.6718C105.705 19.6718 106.313 19.5011 106.697 19.1598C107.081 18.8078 107.273 18.3065 107.273 17.6558C107.273 16.9945 107.081 16.4931 106.697 16.1518C106.313 15.8105 105.705 15.6398 104.873 15.6398H102.617V19.6718H104.873Z" fill="white"/>
<path d="M114.494 14.2798C115.422 14.2798 116.223 14.4718 116.895 14.8558C117.567 15.2291 118.127 15.7838 118.575 16.5198L117.502 17.3518C117.108 16.6691 116.66 16.1891 116.159 15.9118C115.668 15.6238 115.071 15.4798 114.367 15.4798C113.801 15.4798 113.332 15.5598 112.958 15.7198C112.596 15.8798 112.329 16.0931 112.159 16.3598C111.988 16.6158 111.903 16.9091 111.903 17.2398C111.903 17.6131 112.02 17.9438 112.255 18.2318C112.489 18.5091 112.958 18.7278 113.662 18.8878L115.951 19.3998C116.964 19.6238 117.668 19.9651 118.062 20.4238C118.468 20.8718 118.671 21.4318 118.671 22.1038C118.671 22.7011 118.5 23.2345 118.159 23.7038C117.828 24.1625 117.358 24.5198 116.75 24.7758C116.142 25.0318 115.428 25.1598 114.606 25.1598C113.838 25.1598 113.161 25.0585 112.575 24.8558C111.999 24.6425 111.502 24.3598 111.086 24.0078C110.67 23.6558 110.329 23.2611 110.062 22.8238L111.182 21.9118C111.385 22.3171 111.646 22.6745 111.966 22.9838C112.286 23.2931 112.67 23.5331 113.118 23.7038C113.577 23.8745 114.1 23.9598 114.687 23.9598C115.231 23.9598 115.7 23.8958 116.095 23.7678C116.5 23.6291 116.809 23.4318 117.022 23.1758C117.236 22.9091 117.342 22.5891 117.342 22.2158C117.342 21.8745 117.231 21.5705 117.007 21.3038C116.783 21.0265 116.361 20.8185 115.743 20.6798L113.263 20.1198C112.612 19.9705 112.084 19.7678 111.679 19.5118C111.284 19.2451 110.996 18.9358 110.814 18.5838C110.644 18.2211 110.558 17.8318 110.558 17.4158C110.558 16.8505 110.713 16.3331 111.022 15.8638C111.342 15.3838 111.796 14.9998 112.382 14.7118C112.98 14.4238 113.684 14.2798 114.494 14.2798Z" fill="white"/>
<path d="M122.951 100.856C122.888 101.634 122.679 102.226 122.327 102.632C121.986 103.037 121.501 103.24 120.872 103.24C120.509 103.24 120.194 103.181 119.928 103.064C119.661 102.946 119.421 102.808 119.208 102.648C119.005 102.488 118.797 102.349 118.583 102.232C118.381 102.114 118.152 102.056 117.896 102.056C117.618 102.056 117.399 102.162 117.239 102.376C117.079 102.589 116.967 102.877 116.903 103.24H115.688C115.752 102.45 115.954 101.858 116.296 101.464C116.637 101.058 117.133 100.856 117.784 100.856C118.136 100.856 118.445 100.914 118.711 101.032C118.978 101.149 119.218 101.288 119.431 101.448C119.645 101.608 119.853 101.746 120.056 101.864C120.269 101.981 120.498 102.04 120.743 102.04C121.021 102.04 121.24 101.933 121.4 101.72C121.56 101.506 121.672 101.218 121.736 100.856H122.951Z" fill="white"/>
<path d="M132.109 107V99.2558C132.109 99.0744 132.109 98.8825 132.109 98.6798C132.119 98.4665 132.13 98.2478 132.141 98.0238C131.778 98.3758 131.357 98.6851 130.877 98.9518C130.397 99.2078 129.906 99.3945 129.405 99.5118L129.069 98.3438C129.261 98.3225 129.501 98.2531 129.789 98.1358C130.087 98.0078 130.397 97.8531 130.717 97.6718C131.047 97.4798 131.351 97.2771 131.629 97.0638C131.906 96.8504 132.119 96.6425 132.269 96.4398H133.389V107H132.109Z" fill="white"/>
<path d="M139.767 96.2798C140.652 96.2798 141.399 96.5145 142.007 96.9838C142.615 97.4425 143.074 98.0825 143.383 98.9038C143.692 99.7145 143.847 100.653 143.847 101.72C143.847 102.904 143.692 103.901 143.383 104.712C143.074 105.512 142.615 106.12 142.007 106.536C141.41 106.952 140.668 107.16 139.783 107.16C138.908 107.16 138.156 106.957 137.527 106.552C136.898 106.146 136.428 105.554 136.119 104.776L137.383 104.104C137.554 104.658 137.831 105.106 138.215 105.448C138.61 105.789 139.148 105.96 139.831 105.96C140.386 105.96 140.844 105.853 141.207 105.64C141.58 105.416 141.874 105.101 142.087 104.696C142.3 104.28 142.45 103.784 142.535 103.208C142.631 102.632 142.679 101.992 142.679 101.288C142.679 101.266 142.679 101.245 142.679 101.224C142.679 101.192 142.679 101.165 142.679 101.144H142.615C142.487 101.624 142.263 102.013 141.943 102.312C141.623 102.6 141.26 102.808 140.855 102.936C140.46 103.064 140.066 103.128 139.671 103.128C138.978 103.128 138.364 102.994 137.831 102.728C137.298 102.45 136.882 102.066 136.583 101.576C136.284 101.085 136.135 100.504 136.135 99.8318C136.135 99.1065 136.279 98.4825 136.567 97.9598C136.855 97.4265 137.271 97.0158 137.815 96.7278C138.359 96.4291 139.01 96.2798 139.767 96.2798ZM139.783 97.5118C139.036 97.5118 138.466 97.7198 138.071 98.1358C137.676 98.5411 137.479 99.1118 137.479 99.8478C137.479 100.477 137.687 100.978 138.103 101.352C138.519 101.714 139.079 101.896 139.783 101.896C140.242 101.896 140.642 101.805 140.983 101.624C141.335 101.432 141.607 101.176 141.799 100.856C141.991 100.525 142.087 100.146 142.087 99.7198C142.087 99.2718 141.991 98.8825 141.799 98.5518C141.607 98.2211 141.335 97.9651 140.983 97.7838C140.642 97.6024 140.242 97.5118 139.783 97.5118Z" fill="white"/>
<path d="M149.218 107.16C148.279 107.16 147.447 106.941 146.722 106.504C146.007 106.056 145.522 105.442 145.266 104.664L146.546 104.008C146.674 104.402 146.85 104.749 147.074 105.048C147.298 105.336 147.591 105.56 147.954 105.72C148.327 105.88 148.791 105.96 149.346 105.96C149.815 105.96 150.21 105.874 150.53 105.704C150.85 105.533 151.095 105.304 151.266 105.016C151.436 104.717 151.522 104.376 151.522 103.992C151.522 103.608 151.447 103.288 151.298 103.032C151.159 102.776 150.935 102.589 150.626 102.472C150.316 102.344 149.911 102.28 149.41 102.28C149.292 102.28 149.164 102.285 149.026 102.296C148.887 102.296 148.743 102.306 148.594 102.328V101.048C148.69 101.058 148.78 101.064 148.866 101.064C148.962 101.064 149.047 101.064 149.122 101.064C149.9 101.064 150.455 100.914 150.786 100.616C151.116 100.306 151.282 99.8264 151.282 99.1758C151.282 98.6211 151.111 98.1998 150.77 97.9118C150.428 97.6238 149.943 97.4798 149.314 97.4798C148.642 97.4798 148.13 97.6291 147.778 97.9278C147.426 98.2158 147.148 98.6105 146.946 99.1118L145.73 98.5358C145.9 98.0878 146.156 97.6931 146.498 97.3518C146.839 97.0105 147.25 96.7438 147.73 96.5518C148.22 96.3598 148.759 96.2638 149.346 96.2638C150.082 96.2638 150.69 96.3918 151.17 96.6478C151.65 96.8931 152.007 97.2238 152.242 97.6398C152.487 98.0558 152.61 98.5145 152.61 99.0158C152.61 99.3998 152.556 99.7465 152.45 100.056C152.343 100.354 152.194 100.616 152.002 100.84C151.82 101.064 151.612 101.245 151.378 101.384C151.143 101.512 150.892 101.597 150.626 101.64V101.672C150.978 101.682 151.287 101.752 151.554 101.88C151.831 102.008 152.066 102.178 152.258 102.392C152.45 102.605 152.594 102.85 152.69 103.128C152.796 103.394 152.85 103.677 152.85 103.976C152.85 104.594 152.695 105.144 152.386 105.624C152.087 106.104 151.666 106.482 151.122 106.76C150.578 107.026 149.943 107.16 149.218 107.16Z" fill="white"/>
<path d="M168.073 96.4398V97.6398H164.393V107H163.113V97.6398H159.433V96.4398H168.073Z" fill="white"/>
<path d="M174.034 96.4398C174.748 96.4398 175.367 96.5731 175.89 96.8398C176.423 97.0958 176.839 97.4638 177.138 97.9438C177.436 98.4238 177.586 98.9945 177.586 99.6558C177.586 100.317 177.436 100.888 177.138 101.368C176.839 101.848 176.423 102.221 175.89 102.488C175.367 102.744 174.748 102.872 174.034 102.872H171.586V107H170.306V96.4398H174.034ZM173.842 101.672C174.674 101.672 175.282 101.501 175.666 101.16C176.05 100.808 176.242 100.306 176.242 99.6558C176.242 98.9945 176.05 98.4931 175.666 98.1518C175.282 97.8105 174.674 97.6398 173.842 97.6398H171.586V101.672H173.842Z" fill="white"/>
<path d="M183.463 96.2798C184.391 96.2798 185.191 96.4718 185.863 96.8558C186.535 97.2291 187.095 97.7838 187.543 98.5198L186.471 99.3518C186.077 98.6691 185.629 98.1891 185.127 97.9118C184.637 97.6238 184.039 97.4798 183.335 97.4798C182.77 97.4798 182.301 97.5598 181.927 97.7198C181.565 97.8798 181.298 98.0931 181.127 98.3598C180.957 98.6158 180.871 98.9091 180.871 99.2398C180.871 99.6131 180.989 99.9438 181.223 100.232C181.458 100.509 181.927 100.728 182.631 100.888L184.919 101.4C185.933 101.624 186.637 101.965 187.031 102.424C187.437 102.872 187.639 103.432 187.639 104.104C187.639 104.701 187.469 105.234 187.127 105.704C186.797 106.162 186.327 106.52 185.719 106.776C185.111 107.032 184.397 107.16 183.575 107.16C182.807 107.16 182.13 107.058 181.543 106.856C180.967 106.642 180.471 106.36 180.055 106.008C179.639 105.656 179.298 105.261 179.031 104.824L180.151 103.912C180.354 104.317 180.615 104.674 180.935 104.984C181.255 105.293 181.639 105.533 182.087 105.704C182.546 105.874 183.069 105.96 183.655 105.96C184.199 105.96 184.669 105.896 185.063 105.768C185.469 105.629 185.778 105.432 185.991 105.176C186.205 104.909 186.311 104.589 186.311 104.216C186.311 103.874 186.199 103.57 185.975 103.304C185.751 103.026 185.33 102.818 184.711 102.68L182.231 102.12C181.581 101.97 181.053 101.768 180.647 101.512C180.253 101.245 179.965 100.936 179.783 100.584C179.613 100.221 179.527 99.8318 179.527 99.4158C179.527 98.8505 179.682 98.3331 179.991 97.8638C180.311 97.3838 180.765 96.9998 181.351 96.7118C181.949 96.4238 182.653 96.2798 183.463 96.2798Z" fill="white"/>
<path d="M372.952 182.856C372.888 183.634 372.68 184.226 372.328 184.632C371.986 185.037 371.501 185.24 370.871 185.24C370.509 185.24 370.194 185.181 369.927 185.064C369.661 184.946 369.421 184.808 369.207 184.648C369.005 184.488 368.797 184.349 368.583 184.232C368.381 184.114 368.152 184.056 367.896 184.056C367.618 184.056 367.4 184.162 367.24 184.376C367.08 184.589 366.968 184.877 366.904 185.24H365.688C365.752 184.45 365.954 183.858 366.296 183.464C366.637 183.058 367.133 182.856 367.784 182.856C368.136 182.856 368.445 182.914 368.711 183.032C368.978 183.149 369.218 183.288 369.431 183.448C369.645 183.608 369.853 183.746 370.056 183.864C370.269 183.981 370.498 184.04 370.743 184.04C371.021 184.04 371.24 183.933 371.4 183.72C371.56 183.506 371.672 183.218 371.736 182.856H372.952Z" fill="white"/>
<path d="M383.685 189.16C382.747 189.16 381.989 188.946 381.413 188.52C380.848 188.093 380.411 187.501 380.101 186.744L381.349 186.088C381.52 186.642 381.781 187.096 382.133 187.448C382.496 187.789 383.024 187.96 383.717 187.96C384.208 187.96 384.624 187.869 384.965 187.688C385.317 187.506 385.589 187.25 385.781 186.92C385.973 186.578 386.069 186.173 386.069 185.704C386.069 185.202 385.979 184.786 385.797 184.456C385.627 184.114 385.376 183.858 385.045 183.688C384.715 183.517 384.309 183.432 383.829 183.432C383.488 183.432 383.168 183.469 382.869 183.544C382.581 183.608 382.32 183.714 382.085 183.864C381.851 184.013 381.648 184.21 381.477 184.456L380.357 184.248L380.981 178.44H386.917V179.64H382.069L381.653 182.968L381.621 183.112H381.653C381.909 182.845 382.235 182.632 382.629 182.472C383.035 182.312 383.515 182.232 384.069 182.232C384.741 182.232 385.323 182.376 385.813 182.664C386.315 182.941 386.704 183.336 386.981 183.848C387.259 184.36 387.397 184.957 387.397 185.64C387.397 186.184 387.307 186.674 387.125 187.112C386.944 187.549 386.688 187.922 386.357 188.232C386.027 188.53 385.632 188.76 385.173 188.92C384.725 189.08 384.229 189.16 383.685 189.16Z" fill="white"/>
<path d="M393.382 189.16C392.187 189.16 391.232 188.696 390.518 187.768C389.803 186.84 389.446 185.49 389.446 183.72C389.446 181.949 389.803 180.6 390.518 179.672C391.232 178.744 392.187 178.28 393.382 178.28C394.587 178.28 395.542 178.744 396.246 179.672C396.96 180.6 397.318 181.949 397.318 183.72C397.318 185.49 396.96 186.84 396.246 187.768C395.542 188.696 394.587 189.16 393.382 189.16ZM393.382 188.008C393.947 188.008 394.422 187.848 394.806 187.528C395.2 187.197 395.494 186.712 395.686 186.072C395.888 185.432 395.99 184.648 395.99 183.72C395.99 182.792 395.888 182.008 395.686 181.368C395.494 180.728 395.2 180.248 394.806 179.928C394.422 179.597 393.947 179.432 393.382 179.432C392.816 179.432 392.336 179.597 391.942 179.928C391.558 180.248 391.264 180.728 391.062 181.368C390.87 182.008 390.774 182.792 390.774 183.72C390.774 184.648 390.87 185.432 391.062 186.072C391.264 186.712 391.558 187.197 391.942 187.528C392.336 187.848 392.816 188.008 393.382 188.008Z" fill="white"/>
<path d="M403.335 189.16C402.14 189.16 401.186 188.696 400.471 187.768C399.756 186.84 399.399 185.49 399.399 183.72C399.399 181.949 399.756 180.6 400.471 179.672C401.186 178.744 402.14 178.28 403.335 178.28C404.54 178.28 405.495 178.744 406.199 179.672C406.914 180.6 407.271 181.949 407.271 183.72C407.271 185.49 406.914 186.84 406.199 187.768C405.495 188.696 404.54 189.16 403.335 189.16ZM403.335 188.008C403.9 188.008 404.375 187.848 404.759 187.528C405.154 187.197 405.447 186.712 405.639 186.072C405.842 185.432 405.943 184.648 405.943 183.72C405.943 182.792 405.842 182.008 405.639 181.368C405.447 180.728 405.154 180.248 404.759 179.928C404.375 179.597 403.9 179.432 403.335 179.432C402.77 179.432 402.29 179.597 401.895 179.928C401.511 180.248 401.218 180.728 401.015 181.368C400.823 182.008 400.727 182.792 400.727 183.72C400.727 184.648 400.823 185.432 401.015 186.072C401.218 186.712 401.511 187.197 401.895 187.528C402.29 187.848 402.77 188.008 403.335 188.008Z" fill="white"/>
<path d="M410.049 187.08C410.305 187.08 410.519 187.149 410.689 187.288C410.871 187.416 411.009 187.597 411.105 187.832C411.201 188.056 411.249 188.322 411.249 188.632C411.249 188.984 411.185 189.33 411.057 189.672C410.94 190.013 410.753 190.328 410.497 190.616C410.241 190.904 409.911 191.144 409.505 191.336L408.833 190.712C409.121 190.616 409.372 190.482 409.585 190.312C409.809 190.141 409.991 189.949 410.129 189.736C410.268 189.522 410.359 189.304 410.401 189.08L410.337 189.048C410.295 189.08 410.241 189.106 410.177 189.128C410.113 189.149 410.017 189.16 409.889 189.16C409.761 189.16 409.628 189.122 409.489 189.048C409.361 188.973 409.249 188.866 409.153 188.728C409.057 188.578 409.009 188.386 409.009 188.152C409.009 187.96 409.057 187.784 409.153 187.624C409.249 187.453 409.372 187.32 409.521 187.224C409.681 187.128 409.857 187.08 410.049 187.08Z" fill="white"/>
<path d="M416.757 189.16C415.562 189.16 414.607 188.696 413.893 187.768C413.178 186.84 412.821 185.49 412.821 183.72C412.821 181.949 413.178 180.6 413.893 179.672C414.607 178.744 415.562 178.28 416.757 178.28C417.962 178.28 418.917 178.744 419.621 179.672C420.335 180.6 420.693 181.949 420.693 183.72C420.693 185.49 420.335 186.84 419.621 187.768C418.917 188.696 417.962 189.16 416.757 189.16ZM416.757 188.008C417.322 188.008 417.797 187.848 418.181 187.528C418.575 187.197 418.869 186.712 419.061 186.072C419.263 185.432 419.365 184.648 419.365 183.72C419.365 182.792 419.263 182.008 419.061 181.368C418.869 180.728 418.575 180.248 418.181 179.928C417.797 179.597 417.322 179.432 416.757 179.432C416.191 179.432 415.711 179.597 415.317 179.928C414.933 180.248 414.639 180.728 414.437 181.368C414.245 182.008 414.149 182.792 414.149 183.72C414.149 184.648 414.245 185.432 414.437 186.072C414.639 186.712 414.933 187.197 415.317 187.528C415.711 187.848 416.191 188.008 416.757 188.008Z" fill="white"/>
<path d="M426.71 189.16C425.515 189.16 424.561 188.696 423.846 187.768C423.131 186.84 422.774 185.49 422.774 183.72C422.774 181.949 423.131 180.6 423.846 179.672C424.561 178.744 425.515 178.28 426.71 178.28C427.915 178.28 428.87 178.744 429.574 179.672C430.289 180.6 430.646 181.949 430.646 183.72C430.646 185.49 430.289 186.84 429.574 187.768C428.87 188.696 427.915 189.16 426.71 189.16ZM426.71 188.008C427.275 188.008 427.75 187.848 428.134 187.528C428.529 187.197 428.822 186.712 429.014 186.072C429.217 185.432 429.318 184.648 429.318 183.72C429.318 182.792 429.217 182.008 429.014 181.368C428.822 180.728 428.529 180.248 428.134 179.928C427.75 179.597 427.275 179.432 426.71 179.432C426.145 179.432 425.665 179.597 425.27 179.928C424.886 180.248 424.593 180.728 424.39 181.368C424.198 182.008 424.102 182.792 424.102 183.72C424.102 184.648 424.198 185.432 424.39 186.072C424.593 186.712 424.886 187.197 425.27 187.528C425.665 187.848 426.145 188.008 426.71 188.008Z" fill="white"/>
<path d="M436.663 189.16C435.468 189.16 434.514 188.696 433.799 187.768C433.084 186.84 432.727 185.49 432.727 183.72C432.727 181.949 433.084 180.6 433.799 179.672C434.514 178.744 435.468 178.28 436.663 178.28C437.868 178.28 438.823 178.744 439.527 179.672C440.242 180.6 440.599 181.949 440.599 183.72C440.599 185.49 440.242 186.84 439.527 187.768C438.823 188.696 437.868 189.16 436.663 189.16ZM436.663 188.008C437.228 188.008 437.703 187.848 438.087 187.528C438.482 187.197 438.775 186.712 438.967 186.072C439.17 185.432 439.271 184.648 439.271 183.72C439.271 182.792 439.17 182.008 438.967 181.368C438.775 180.728 438.482 180.248 438.087 179.928C437.703 179.597 437.228 179.432 436.663 179.432C436.098 179.432 435.618 179.597 435.223 179.928C434.839 180.248 434.546 180.728 434.343 181.368C434.151 182.008 434.055 182.792 434.055 183.72C434.055 184.648 434.151 185.432 434.343 186.072C434.546 186.712 434.839 187.197 435.223 187.528C435.618 187.848 436.098 188.008 436.663 188.008Z" fill="white"/>
<path d="M455.808 178.44V179.64H452.128V189H450.848V179.64H447.168V178.44H455.808Z" fill="white"/>
<path d="M461.768 178.44C462.483 178.44 463.101 178.573 463.624 178.84C464.157 179.096 464.573 179.464 464.872 179.944C465.171 180.424 465.32 180.994 465.32 181.656C465.32 182.317 465.171 182.888 464.872 183.368C464.573 183.848 464.157 184.221 463.624 184.488C463.101 184.744 462.483 184.872 461.768 184.872H459.32V189H458.04V178.44H461.768ZM461.576 183.672C462.408 183.672 463.016 183.501 463.4 183.16C463.784 182.808 463.976 182.306 463.976 181.656C463.976 180.994 463.784 180.493 463.4 180.152C463.016 179.81 462.408 179.64 461.576 179.64H459.32V183.672H461.576Z" fill="white"/>
<path d="M471.198 178.28C472.126 178.28 472.926 178.472 473.598 178.856C474.27 179.229 474.83 179.784 475.278 180.52L474.206 181.352C473.811 180.669 473.363 180.189 472.862 179.912C472.371 179.624 471.774 179.48 471.07 179.48C470.504 179.48 470.035 179.56 469.662 179.72C469.299 179.88 469.032 180.093 468.862 180.36C468.691 180.616 468.606 180.909 468.606 181.24C468.606 181.613 468.723 181.944 468.958 182.232C469.192 182.509 469.662 182.728 470.366 182.888L472.654 183.4C473.667 183.624 474.371 183.965 474.766 184.424C475.171 184.872 475.374 185.432 475.374 186.104C475.374 186.701 475.203 187.234 474.862 187.704C474.531 188.162 474.062 188.52 473.454 188.776C472.846 189.032 472.131 189.16 471.31 189.16C470.542 189.16 469.864 189.058 469.278 188.856C468.702 188.642 468.206 188.36 467.79 188.008C467.374 187.656 467.032 187.261 466.766 186.824L467.886 185.912C468.088 186.317 468.35 186.674 468.67 186.984C468.99 187.293 469.374 187.533 469.822 187.704C470.28 187.874 470.803 187.96 471.39 187.96C471.934 187.96 472.403 187.896 472.798 187.768C473.203 187.629 473.512 187.432 473.726 187.176C473.939 186.909 474.046 186.589 474.046 186.216C474.046 185.874 473.934 185.57 473.71 185.304C473.486 185.026 473.064 184.818 472.446 184.68L469.966 184.12C469.315 183.97 468.787 183.768 468.382 183.512C467.987 183.245 467.699 182.936 467.518 182.584C467.347 182.221 467.262 181.832 467.262 181.416C467.262 180.85 467.416 180.333 467.726 179.864C468.046 179.384 468.499 179 469.086 178.712C469.683 178.424 470.387 178.28 471.198 178.28Z" fill="white"/>
<path d="M174.951 141.856C174.888 142.634 174.679 143.226 174.327 143.632C173.986 144.037 173.501 144.24 172.871 144.24C172.509 144.24 172.194 144.181 171.927 144.064C171.661 143.946 171.421 143.808 171.207 143.648C171.005 143.488 170.797 143.349 170.584 143.232C170.381 143.114 170.152 143.056 169.896 143.056C169.618 143.056 169.4 143.162 169.24 143.376C169.08 143.589 168.968 143.877 168.904 144.24H167.688C167.752 143.45 167.954 142.858 168.296 142.464C168.637 142.058 169.133 141.856 169.784 141.856C170.136 141.856 170.445 141.914 170.712 142.032C170.978 142.149 171.218 142.288 171.432 142.448C171.645 142.608 171.853 142.746 172.056 142.864C172.269 142.981 172.498 143.04 172.743 143.04C173.021 143.04 173.239 142.933 173.399 142.72C173.559 142.506 173.672 142.218 173.736 141.856H174.951Z" fill="white"/>
<path d="M182.277 148V146.96C183.333 146.181 184.213 145.498 184.917 144.912C185.632 144.325 186.203 143.792 186.629 143.312C187.056 142.832 187.36 142.378 187.541 141.952C187.723 141.514 187.813 141.061 187.813 140.592C187.813 139.962 187.611 139.456 187.205 139.072C186.811 138.677 186.267 138.48 185.573 138.48C184.848 138.48 184.267 138.72 183.829 139.2C183.392 139.669 183.136 140.298 183.061 141.088L181.941 140.416C182.037 139.797 182.235 139.253 182.533 138.784C182.843 138.314 183.253 137.946 183.765 137.68C184.288 137.413 184.907 137.28 185.621 137.28C186.165 137.28 186.651 137.36 187.077 137.52C187.515 137.68 187.888 137.909 188.197 138.208C188.507 138.496 188.741 138.842 188.901 139.248C189.072 139.653 189.157 140.101 189.157 140.592C189.157 141.253 188.997 141.904 188.677 142.544C188.357 143.173 187.829 143.834 187.093 144.528C186.357 145.221 185.36 145.989 184.101 146.832V146.848C184.219 146.837 184.379 146.832 184.581 146.832C184.795 146.821 185.003 146.816 185.205 146.816C185.419 146.805 185.579 146.8 185.685 146.8H189.381V148H182.277Z" fill="white"/>
<path d="M195.793 148V145.232H190.641V144.288L195.457 137.44H197.073V144.128H198.945V145.232H197.073V148H195.793ZM192.001 144.128H195.793V140.176C195.793 139.898 195.798 139.616 195.809 139.328C195.83 139.04 195.846 138.757 195.857 138.48H195.825C195.697 138.746 195.532 139.045 195.329 139.376C195.126 139.706 194.94 139.994 194.769 140.24L192.001 144.128Z" fill="white"/>
<path d="M201.674 146.08C201.93 146.08 202.144 146.149 202.314 146.288C202.496 146.416 202.634 146.597 202.73 146.832C202.826 147.056 202.874 147.322 202.874 147.632C202.874 147.984 202.81 148.33 202.682 148.672C202.565 149.013 202.378 149.328 202.122 149.616C201.866 149.904 201.536 150.144 201.13 150.336L200.458 149.712C200.746 149.616 200.997 149.482 201.21 149.312C201.434 149.141 201.616 148.949 201.754 148.736C201.893 148.522 201.984 148.304 202.026 148.08L201.962 148.048C201.92 148.08 201.866 148.106 201.802 148.128C201.738 148.149 201.642 148.16 201.514 148.16C201.386 148.16 201.253 148.122 201.114 148.048C200.986 147.973 200.874 147.866 200.778 147.728C200.682 147.578 200.634 147.386 200.634 147.152C200.634 146.96 200.682 146.784 200.778 146.624C200.874 146.453 200.997 146.32 201.146 146.224C201.306 146.128 201.482 146.08 201.674 146.08Z" fill="white"/>
<path d="M208.382 148.16C207.187 148.16 206.232 147.696 205.518 146.768C204.803 145.84 204.446 144.49 204.446 142.72C204.446 140.949 204.803 139.6 205.518 138.672C206.232 137.744 207.187 137.28 208.382 137.28C209.587 137.28 210.542 137.744 211.246 138.672C211.96 139.6 212.318 140.949 212.318 142.72C212.318 144.49 211.96 145.84 211.246 146.768C210.542 147.696 209.587 148.16 208.382 148.16ZM208.382 147.008C208.947 147.008 209.422 146.848 209.806 146.528C210.2 146.197 210.494 145.712 210.686 145.072C210.888 144.432 210.99 143.648 210.99 142.72C210.99 141.792 210.888 141.008 210.686 140.368C210.494 139.728 210.2 139.248 209.806 138.928C209.422 138.597 208.947 138.432 208.382 138.432C207.816 138.432 207.336 138.597 206.942 138.928C206.558 139.248 206.264 139.728 206.062 140.368C205.87 141.008 205.774 141.792 205.774 142.72C205.774 143.648 205.87 144.432 206.062 145.072C206.264 145.712 206.558 146.197 206.942 146.528C207.336 146.848 207.816 147.008 208.382 147.008Z" fill="white"/>
<path d="M218.335 148.16C217.14 148.16 216.186 147.696 215.471 146.768C214.756 145.84 214.399 144.49 214.399 142.72C214.399 140.949 214.756 139.6 215.471 138.672C216.186 137.744 217.14 137.28 218.335 137.28C219.54 137.28 220.495 137.744 221.199 138.672C221.914 139.6 222.271 140.949 222.271 142.72C222.271 144.49 221.914 145.84 221.199 146.768C220.495 147.696 219.54 148.16 218.335 148.16ZM218.335 147.008C218.9 147.008 219.375 146.848 219.759 146.528C220.154 146.197 220.447 145.712 220.639 145.072C220.842 144.432 220.943 143.648 220.943 142.72C220.943 141.792 220.842 141.008 220.639 140.368C220.447 139.728 220.154 139.248 219.759 138.928C219.375 138.597 218.9 138.432 218.335 138.432C217.77 138.432 217.29 138.597 216.895 138.928C216.511 139.248 216.218 139.728 216.015 140.368C215.823 141.008 215.727 141.792 215.727 142.72C215.727 143.648 215.823 144.432 216.015 145.072C216.218 145.712 216.511 146.197 216.895 146.528C217.29 146.848 217.77 147.008 218.335 147.008Z" fill="white"/>
<path d="M228.288 148.16C227.093 148.16 226.139 147.696 225.424 146.768C224.709 145.84 224.352 144.49 224.352 142.72C224.352 140.949 224.709 139.6 225.424 138.672C226.139 137.744 227.093 137.28 228.288 137.28C229.493 137.28 230.448 137.744 231.152 138.672C231.867 139.6 232.224 140.949 232.224 142.72C232.224 144.49 231.867 145.84 231.152 146.768C230.448 147.696 229.493 148.16 228.288 148.16ZM228.288 147.008C228.853 147.008 229.328 146.848 229.712 146.528C230.107 146.197 230.4 145.712 230.592 145.072C230.795 144.432 230.896 143.648 230.896 142.72C230.896 141.792 230.795 141.008 230.592 140.368C230.4 139.728 230.107 139.248 229.712 138.928C229.328 138.597 228.853 138.432 228.288 138.432C227.723 138.432 227.243 138.597 226.848 138.928C226.464 139.248 226.171 139.728 225.968 140.368C225.776 141.008 225.68 141.792 225.68 142.72C225.68 143.648 225.776 144.432 225.968 145.072C226.171 145.712 226.464 146.197 226.848 146.528C227.243 146.848 227.723 147.008 228.288 147.008Z" fill="white"/>
<path d="M247.433 137.44V138.64H243.753V148H242.473V138.64H238.793V137.44H247.433Z" fill="white"/>
<path d="M253.393 137.44C254.108 137.44 254.726 137.573 255.249 137.84C255.782 138.096 256.198 138.464 256.497 138.944C256.796 139.424 256.945 139.994 256.945 140.656C256.945 141.317 256.796 141.888 256.497 142.368C256.198 142.848 255.782 143.221 255.249 143.488C254.726 143.744 254.108 143.872 253.393 143.872H250.945V148H249.665V137.44H253.393ZM253.201 142.672C254.033 142.672 254.641 142.501 255.025 142.16C255.409 141.808 255.601 141.306 255.601 140.656C255.601 139.994 255.409 139.493 255.025 139.152C254.641 138.81 254.033 138.64 253.201 138.64H250.945V142.672H253.201Z" fill="white"/>
<path d="M262.823 137.28C263.751 137.28 264.551 137.472 265.223 137.856C265.895 138.229 266.455 138.784 266.903 139.52L265.831 140.352C265.436 139.669 264.988 139.189 264.487 138.912C263.996 138.624 263.399 138.48 262.695 138.48C262.129 138.48 261.66 138.56 261.287 138.72C260.924 138.88 260.657 139.093 260.487 139.36C260.316 139.616 260.231 139.909 260.231 140.24C260.231 140.613 260.348 140.944 260.583 141.232C260.817 141.509 261.287 141.728 261.991 141.888L264.279 142.4C265.292 142.624 265.996 142.965 266.391 143.424C266.796 143.872 266.999 144.432 266.999 145.104C266.999 145.701 266.828 146.234 266.487 146.704C266.156 147.162 265.687 147.52 265.079 147.776C264.471 148.032 263.756 148.16 262.935 148.16C262.167 148.16 261.489 148.058 260.903 147.856C260.327 147.642 259.831 147.36 259.415 147.008C258.999 146.656 258.657 146.261 258.391 145.824L259.511 144.912C259.713 145.317 259.975 145.674 260.295 145.984C260.615 146.293 260.999 146.533 261.447 146.704C261.905 146.874 262.428 146.96 263.015 146.96C263.559 146.96 264.028 146.896 264.423 146.768C264.828 146.629 265.137 146.432 265.351 146.176C265.564 145.909 265.671 145.589 265.671 145.216C265.671 144.874 265.559 144.57 265.335 144.304C265.111 144.026 264.689 143.818 264.071 143.68L261.591 143.12C260.94 142.97 260.412 142.768 260.007 142.512C259.612 142.245 259.324 141.936 259.143 141.584C258.972 141.221 258.887 140.832 258.887 140.416C258.887 139.85 259.041 139.333 259.351 138.864C259.671 138.384 260.124 138 260.711 137.712C261.308 137.424 262.012 137.28 262.823 137.28Z" fill="white"/>
</svg>
