<svg width="436" height="244" viewBox="0 0 436 244" fill="none" xmlns="http://www.w3.org/2000/svg">
<rect y="41" width="111" height="39" fill="#8BA1BE" fill-opacity="0.2"/>
<path d="M13.728 66V55.44H21.136V56.64H15.008V60.048H19.776V61.248H15.008V64.8H21.376V66H13.728ZM31.3551 55.44V56.64H27.6751V66H26.3951V56.64H22.7151V55.44H31.3551ZM41.8754 55.44V66H40.5954V55.44H41.8754ZM34.8674 55.44V66H33.5874V55.44H34.8674ZM41.1874 60.048V61.248H34.2594V60.048H41.1874Z" fill="white"/>
<path d="M130.952 59.856C130.888 60.6347 130.68 61.2267 130.328 61.632C129.987 62.0373 129.501 62.24 128.872 62.24C128.509 62.24 128.195 62.1813 127.928 62.064C127.661 61.9467 127.421 61.808 127.208 61.648C127.005 61.488 126.797 61.3493 126.584 61.232C126.381 61.1147 126.152 61.056 125.896 61.056C125.619 61.056 125.4 61.1627 125.24 61.376C125.08 61.5893 124.968 61.8773 124.904 62.24H123.688C123.752 61.4507 123.955 60.8587 124.296 60.464C124.637 60.0587 125.133 59.856 125.784 59.856C126.136 59.856 126.445 59.9147 126.712 60.032C126.979 60.1493 127.219 60.288 127.432 60.448C127.645 60.608 127.853 60.7467 128.056 60.864C128.269 60.9813 128.499 61.04 128.744 61.04C129.021 61.04 129.24 60.9333 129.4 60.72C129.56 60.5067 129.672 60.2187 129.736 59.856H130.952ZM138.278 66V64.96C139.334 64.1813 140.214 63.4987 140.918 62.912C141.632 62.3253 142.203 61.792 142.63 61.312C143.056 60.832 143.36 60.3787 143.542 59.952C143.723 59.5147 143.814 59.0613 143.814 58.592C143.814 57.9627 143.611 57.456 143.206 57.072C142.811 56.6773 142.267 56.48 141.574 56.48C140.848 56.48 140.267 56.72 139.83 57.2C139.392 57.6693 139.136 58.2987 139.062 59.088L137.942 58.416C138.038 57.7973 138.235 57.2533 138.534 56.784C138.843 56.3147 139.254 55.9467 139.766 55.68C140.288 55.4133 140.907 55.28 141.622 55.28C142.166 55.28 142.651 55.36 143.078 55.52C143.515 55.68 143.888 55.9093 144.198 56.208C144.507 56.496 144.742 56.8427 144.902 57.248C145.072 57.6533 145.158 58.1013 145.158 58.592C145.158 59.2533 144.998 59.904 144.678 60.544C144.358 61.1733 143.83 61.8347 143.094 62.528C142.358 63.2213 141.36 63.9893 140.102 64.832V64.848C140.219 64.8373 140.379 64.832 140.582 64.832C140.795 64.8213 141.003 64.816 141.206 64.816C141.419 64.8053 141.579 64.8 141.686 64.8H145.382V66H138.278ZM151.398 66.16C150.203 66.16 149.249 65.696 148.534 64.768C147.819 63.84 147.462 62.4907 147.462 60.72C147.462 58.9493 147.819 57.6 148.534 56.672C149.249 55.744 150.203 55.28 151.398 55.28C152.603 55.28 153.558 55.744 154.262 56.672C154.977 57.6 155.334 58.9493 155.334 60.72C155.334 62.4907 154.977 63.84 154.262 64.768C153.558 65.696 152.603 66.16 151.398 66.16ZM151.398 65.008C151.963 65.008 152.438 64.848 152.822 64.528C153.217 64.1973 153.51 63.712 153.702 63.072C153.905 62.432 154.006 61.648 154.006 60.72C154.006 59.792 153.905 59.008 153.702 58.368C153.51 57.728 153.217 57.248 152.822 56.928C152.438 56.5973 151.963 56.432 151.398 56.432C150.833 56.432 150.353 56.5973 149.958 56.928C149.574 57.248 149.281 57.728 149.078 58.368C148.886 59.008 148.79 59.792 148.79 60.72C148.79 61.648 148.886 62.432 149.078 63.072C149.281 63.712 149.574 64.1973 149.958 64.528C150.353 64.848 150.833 65.008 151.398 65.008ZM170.543 55.44V56.64H166.863V66H165.583V56.64H161.903V55.44H170.543ZM176.503 55.44C177.218 55.44 177.836 55.5733 178.359 55.84C178.892 56.096 179.308 56.464 179.607 56.944C179.906 57.424 180.055 57.9947 180.055 58.656C180.055 59.3173 179.906 59.888 179.607 60.368C179.308 60.848 178.892 61.2213 178.359 61.488C177.836 61.744 177.218 61.872 176.503 61.872H174.055V66H172.775V55.44H176.503ZM176.311 60.672C177.143 60.672 177.751 60.5013 178.135 60.16C178.519 59.808 178.711 59.3067 178.711 58.656C178.711 57.9947 178.519 57.4933 178.135 57.152C177.751 56.8107 177.143 56.64 176.311 56.64H174.055V60.672H176.311ZM185.933 55.28C186.861 55.28 187.661 55.472 188.333 55.856C189.005 56.2293 189.565 56.784 190.013 57.52L188.941 58.352C188.546 57.6693 188.098 57.1893 187.597 56.912C187.106 56.624 186.509 56.48 185.805 56.48C185.239 56.48 184.77 56.56 184.397 56.72C184.034 56.88 183.767 57.0933 183.597 57.36C183.426 57.616 183.341 57.9093 183.341 58.24C183.341 58.6133 183.458 58.944 183.693 59.232C183.927 59.5093 184.397 59.728 185.101 59.888L187.389 60.4C188.402 60.624 189.106 60.9653 189.501 61.424C189.906 61.872 190.109 62.432 190.109 63.104C190.109 63.7013 189.938 64.2347 189.597 64.704C189.266 65.1627 188.797 65.52 188.189 65.776C187.581 66.032 186.866 66.16 186.045 66.16C185.277 66.16 184.599 66.0587 184.013 65.856C183.437 65.6427 182.941 65.36 182.525 65.008C182.109 64.656 181.767 64.2613 181.501 63.824L182.621 62.912C182.823 63.3173 183.084 63.6747 183.405 63.984C183.725 64.2933 184.109 64.5333 184.557 64.704C185.015 64.8747 185.538 64.96 186.125 64.96C186.669 64.96 187.138 64.896 187.533 64.768C187.938 64.6293 188.247 64.432 188.461 64.176C188.674 63.9093 188.781 63.5893 188.781 63.216C188.781 62.8747 188.669 62.5707 188.445 62.304C188.221 62.0267 187.799 61.8187 187.181 61.68L184.701 61.12C184.05 60.9707 183.522 60.768 183.117 60.512C182.722 60.2453 182.434 59.936 182.253 59.584C182.082 59.2213 181.997 58.832 181.997 58.416C181.997 57.8507 182.151 57.3333 182.461 56.864C182.781 56.384 183.234 56 183.821 55.712C184.418 55.424 185.122 55.28 185.933 55.28Z" fill="white"/>
<rect width="52" height="39" fill="#8BA1BE" fill-opacity="0.2"/>
<path d="M13.728 25V14.44H17.488C18.736 14.44 19.648 14.7013 20.224 15.224C20.8 15.7467 21.088 16.456 21.088 17.352C21.088 17.8853 20.9333 18.3707 20.624 18.808C20.3147 19.2347 19.8773 19.5067 19.312 19.624V19.64C19.9413 19.7573 20.4373 20.0453 20.8 20.504C21.1733 20.952 21.36 21.464 21.36 22.04C21.36 22.936 21.024 23.656 20.352 24.2C19.68 24.7333 18.72 25 17.472 25H13.728ZM15.008 23.8H17.776C18.5333 23.8 19.0933 23.6453 19.456 23.336C19.8293 23.0267 20.016 22.5947 20.016 22.04C20.016 21.4747 19.8293 21.0427 19.456 20.744C19.0933 20.4347 18.5333 20.28 17.776 20.28H15.008V23.8ZM15.008 19.08H17.504C18.9973 19.08 19.744 18.504 19.744 17.352C19.744 16.2107 18.9973 15.64 17.504 15.64H15.008V19.08ZM31.4801 14.44V15.64H27.8001V25H26.5201V15.64H22.8401V14.44H31.4801ZM41.865 22.296C41.641 22.8933 41.321 23.4107 40.905 23.848C40.489 24.2747 39.9983 24.6 39.433 24.824C38.8783 25.048 38.2703 25.16 37.609 25.16C36.6063 25.16 35.737 24.9413 35.001 24.504C34.2757 24.056 33.7103 23.4267 33.305 22.616C32.9103 21.8053 32.713 20.84 32.713 19.72C32.713 18.6 32.9103 17.6347 33.305 16.824C33.7103 16.0133 34.2757 15.3893 35.001 14.952C35.737 14.504 36.5957 14.28 37.577 14.28C38.2597 14.28 38.8677 14.376 39.401 14.568C39.9343 14.7493 40.3877 15.0267 40.761 15.4C41.145 15.7627 41.449 16.2107 41.673 16.744L40.409 17.336C40.1743 16.728 39.833 16.2693 39.385 15.96C38.9477 15.64 38.377 15.48 37.673 15.48C36.9583 15.48 36.329 15.6507 35.785 15.992C35.241 16.3227 34.8143 16.8027 34.505 17.432C34.2063 18.0613 34.057 18.824 34.057 19.72C34.057 20.6053 34.201 21.368 34.489 22.008C34.777 22.6373 35.1877 23.1227 35.721 23.464C36.2543 23.7947 36.8837 23.96 37.609 23.96C38.313 23.96 38.9263 23.784 39.449 23.432C39.9717 23.0693 40.3503 22.5307 40.585 21.816L41.865 22.296Z" fill="white"/>
<path d="M78.952 18.856C78.888 19.6347 78.68 20.2267 78.328 20.632C77.9867 21.0373 77.5013 21.24 76.872 21.24C76.5093 21.24 76.1947 21.1813 75.928 21.064C75.6613 20.9467 75.4213 20.808 75.208 20.648C75.0053 20.488 74.7973 20.3493 74.584 20.232C74.3813 20.1147 74.152 20.056 73.896 20.056C73.6187 20.056 73.4 20.1627 73.24 20.376C73.08 20.5893 72.968 20.8773 72.904 21.24H71.688C71.752 20.4507 71.9547 19.8587 72.296 19.464C72.6373 19.0587 73.1333 18.856 73.784 18.856C74.136 18.856 74.4453 18.9147 74.712 19.032C74.9787 19.1493 75.2187 19.288 75.432 19.448C75.6453 19.608 75.8533 19.7467 76.056 19.864C76.2693 19.9813 76.4987 20.04 76.744 20.04C77.0213 20.04 77.24 19.9333 77.4 19.72C77.56 19.5067 77.672 19.2187 77.736 18.856H78.952ZM85.0931 14.44H92.8691V15.64C91.9838 16.5787 91.2585 17.544 90.6931 18.536C90.1385 19.5173 89.7331 20.5413 89.4771 21.608C89.2211 22.6747 89.0931 23.8053 89.0931 25H87.7811C87.7811 23.816 87.9251 22.6587 88.2131 21.528C88.5118 20.3867 88.9598 19.2933 89.5571 18.248C90.1545 17.2027 90.8958 16.2267 91.7811 15.32L91.9891 15.64H85.0931V14.44ZM107.105 14.44V15.64H103.425V25H102.145V15.64H98.4651V14.44H107.105ZM113.065 14.44C113.78 14.44 114.399 14.5733 114.921 14.84C115.455 15.096 115.871 15.464 116.169 15.944C116.468 16.424 116.617 16.9947 116.617 17.656C116.617 18.3173 116.468 18.888 116.169 19.368C115.871 19.848 115.455 20.2213 114.921 20.488C114.399 20.744 113.78 20.872 113.065 20.872H110.617V25H109.337V14.44H113.065ZM112.873 19.672C113.705 19.672 114.313 19.5013 114.697 19.16C115.081 18.808 115.273 18.3067 115.273 17.656C115.273 16.9947 115.081 16.4933 114.697 16.152C114.313 15.8107 113.705 15.64 112.873 15.64H110.617V19.672H112.873ZM122.495 14.28C123.423 14.28 124.223 14.472 124.895 14.856C125.567 15.2293 126.127 15.784 126.575 16.52L125.503 17.352C125.108 16.6693 124.66 16.1893 124.159 15.912C123.668 15.624 123.071 15.48 122.367 15.48C121.802 15.48 121.332 15.56 120.959 15.72C120.596 15.88 120.33 16.0933 120.159 16.36C119.988 16.616 119.903 16.9093 119.903 17.24C119.903 17.6133 120.02 17.944 120.255 18.232C120.49 18.5093 120.959 18.728 121.663 18.888L123.951 19.4C124.964 19.624 125.668 19.9653 126.063 20.424C126.468 20.872 126.671 21.432 126.671 22.104C126.671 22.7013 126.5 23.2347 126.159 23.704C125.828 24.1627 125.359 24.52 124.751 24.776C124.143 25.032 123.428 25.16 122.607 25.16C121.839 25.16 121.162 25.0587 120.575 24.856C119.999 24.6427 119.503 24.36 119.087 24.008C118.671 23.656 118.33 23.2613 118.063 22.824L119.183 21.912C119.386 22.3173 119.647 22.6747 119.967 22.984C120.287 23.2933 120.671 23.5333 121.119 23.704C121.578 23.8747 122.1 23.96 122.687 23.96C123.231 23.96 123.7 23.896 124.095 23.768C124.5 23.6293 124.81 23.432 125.023 23.176C125.236 22.9093 125.343 22.5893 125.343 22.216C125.343 21.8747 125.231 21.5707 125.007 21.304C124.783 21.0267 124.362 20.8187 123.743 20.68L121.263 20.12C120.612 19.9707 120.084 19.768 119.679 19.512C119.284 19.2453 118.996 18.936 118.815 18.584C118.644 18.2213 118.559 17.832 118.559 17.416C118.559 16.8507 118.714 16.3333 119.023 15.864C119.343 15.384 119.796 15 120.383 14.712C120.98 14.424 121.684 14.28 122.495 14.28Z" fill="white"/>
<rect y="82" width="177" height="39" fill="#8BA1BE" fill-opacity="0.2"/>
<path d="M17.456 96.44C18.1707 96.44 18.7893 96.5733 19.312 96.84C19.8453 97.096 20.2613 97.464 20.56 97.944C20.8587 98.424 21.008 98.9947 21.008 99.656C21.008 100.317 20.8587 100.888 20.56 101.368C20.2613 101.848 19.8453 102.221 19.312 102.488C18.7893 102.744 18.1707 102.872 17.456 102.872H15.008V107H13.728V96.44H17.456ZM17.264 101.672C18.096 101.672 18.704 101.501 19.088 101.16C19.472 100.808 19.664 100.307 19.664 99.656C19.664 98.9947 19.472 98.4933 19.088 98.152C18.704 97.8107 18.096 97.64 17.264 97.64H15.008V101.672H17.264ZM27.9256 101.832C27.9256 101.235 27.7656 100.776 27.4456 100.456C27.1256 100.125 26.6723 99.96 26.0856 99.96C25.531 99.96 25.0616 100.083 24.6776 100.328C24.2936 100.563 24.011 100.947 23.8296 101.48L22.7896 100.84C23.003 100.243 23.3976 99.7627 23.9736 99.4C24.5496 99.0267 25.2643 98.84 26.1176 98.84C26.6936 98.84 27.2163 98.9413 27.6856 99.144C28.155 99.336 28.523 99.6347 28.7896 100.04C29.067 100.435 29.2056 100.947 29.2056 101.576V105.448C29.2056 105.832 29.4083 106.024 29.8136 106.024C30.0163 106.024 30.2136 105.997 30.4056 105.944L30.3416 106.952C30.1283 107.059 29.851 107.112 29.5096 107.112C29.2003 107.112 28.923 107.053 28.6776 106.936C28.4323 106.819 28.2403 106.643 28.1016 106.408C27.963 106.163 27.8936 105.859 27.8936 105.496V105.336L28.2136 105.384C28.0856 105.8 27.867 106.141 27.5576 106.408C27.2483 106.664 26.9016 106.856 26.5176 106.984C26.1336 107.101 25.755 107.16 25.3816 107.16C24.9123 107.16 24.475 107.08 24.0696 106.92C23.6643 106.76 23.339 106.52 23.0936 106.2C22.859 105.869 22.7416 105.464 22.7416 104.984C22.7416 104.387 22.939 103.896 23.3336 103.512C23.739 103.117 24.299 102.851 25.0136 102.712L28.1816 102.088V103.144L25.6056 103.672C25.083 103.779 24.6936 103.928 24.4376 104.12C24.1816 104.312 24.0536 104.579 24.0536 104.92C24.0536 105.251 24.1816 105.523 24.4376 105.736C24.7043 105.939 25.0776 106.04 25.5576 106.04C25.867 106.04 26.1603 106.003 26.4376 105.928C26.7256 105.843 26.9816 105.72 27.2056 105.56C27.4296 105.389 27.6056 105.181 27.7336 104.936C27.8616 104.68 27.9256 104.381 27.9256 104.04V101.832ZM38.4234 99L34.6634 108.344C34.4607 108.867 34.2367 109.277 33.9914 109.576C33.7567 109.885 33.49 110.104 33.1914 110.232C32.9034 110.371 32.5674 110.44 32.1834 110.44C31.8207 110.44 31.4847 110.387 31.1754 110.28C30.8767 110.184 30.61 110.051 30.3754 109.88L30.7274 108.76C30.9407 108.952 31.1647 109.091 31.3994 109.176C31.6447 109.272 31.8847 109.32 32.1194 109.32C32.3967 109.32 32.658 109.235 32.9034 109.064C33.1487 108.893 33.3727 108.547 33.5754 108.024L33.9914 106.984L33.1914 105.08L30.6474 99H32.1034L34.1034 104.216L34.5994 105.64L35.1754 104.056L37.0474 99H38.4234ZM40.0974 110.36V99H41.2174L41.3294 100.952L41.1534 100.728C41.292 100.355 41.5 100.029 41.7774 99.752C42.0547 99.464 42.3907 99.24 42.7854 99.08C43.18 98.92 43.6067 98.84 44.0654 98.84C44.716 98.84 45.3134 99.0053 45.8574 99.336C46.412 99.6667 46.8547 100.141 47.1854 100.76C47.516 101.379 47.6814 102.125 47.6814 103C47.6814 103.864 47.5107 104.611 47.1694 105.24C46.8387 105.859 46.396 106.333 45.8414 106.664C45.2867 106.995 44.6787 107.16 44.0174 107.16C43.356 107.16 42.7747 107 42.2734 106.68C41.7827 106.349 41.4307 105.933 41.2174 105.432L41.3774 105.192V110.36H40.0974ZM43.8894 106.04C44.6787 106.04 45.292 105.763 45.7294 105.208C46.1774 104.653 46.4014 103.917 46.4014 103C46.4014 102.083 46.1827 101.347 45.7454 100.792C45.3187 100.237 44.716 99.96 43.9374 99.96C43.4254 99.96 42.9774 100.088 42.5934 100.344C42.2094 100.589 41.9107 100.941 41.6974 101.4C41.484 101.848 41.3774 102.381 41.3774 103C41.3774 103.608 41.4787 104.141 41.6814 104.6C41.8947 105.059 42.188 105.416 42.5614 105.672C42.9454 105.917 43.388 106.04 43.8894 106.04ZM54.8006 101.832C54.8006 101.235 54.6406 100.776 54.3206 100.456C54.0006 100.125 53.5473 99.96 52.9606 99.96C52.406 99.96 51.9366 100.083 51.5526 100.328C51.1686 100.563 50.886 100.947 50.7046 101.48L49.6646 100.84C49.878 100.243 50.2726 99.7627 50.8486 99.4C51.4246 99.0267 52.1393 98.84 52.9926 98.84C53.5686 98.84 54.0913 98.9413 54.5606 99.144C55.03 99.336 55.398 99.6347 55.6646 100.04C55.942 100.435 56.0806 100.947 56.0806 101.576V105.448C56.0806 105.832 56.2833 106.024 56.6886 106.024C56.8913 106.024 57.0886 105.997 57.2806 105.944L57.2166 106.952C57.0033 107.059 56.726 107.112 56.3846 107.112C56.0753 107.112 55.798 107.053 55.5526 106.936C55.3073 106.819 55.1153 106.643 54.9766 106.408C54.838 106.163 54.7686 105.859 54.7686 105.496V105.336L55.0886 105.384C54.9606 105.8 54.742 106.141 54.4326 106.408C54.1233 106.664 53.7766 106.856 53.3926 106.984C53.0086 107.101 52.63 107.16 52.2566 107.16C51.7873 107.16 51.35 107.08 50.9446 106.92C50.5393 106.76 50.214 106.52 49.9686 106.2C49.734 105.869 49.6166 105.464 49.6166 104.984C49.6166 104.387 49.814 103.896 50.2086 103.512C50.614 103.117 51.174 102.851 51.8886 102.712L55.0566 102.088V103.144L52.4806 103.672C51.958 103.779 51.5686 103.928 51.3126 104.12C51.0566 104.312 50.9286 104.579 50.9286 104.92C50.9286 105.251 51.0566 105.523 51.3126 105.736C51.5793 105.939 51.9526 106.04 52.4326 106.04C52.742 106.04 53.0353 106.003 53.3126 105.928C53.6006 105.843 53.8566 105.72 54.0806 105.56C54.3046 105.389 54.4806 105.181 54.6086 104.936C54.7366 104.68 54.8006 104.381 54.8006 104.04V101.832ZM60.4071 95.32V104.968C60.4071 105.373 60.4818 105.656 60.6311 105.816C60.7805 105.965 61.0205 106.04 61.3511 106.04C61.5645 106.04 61.7405 106.024 61.8791 105.992C62.0178 105.96 62.2045 105.901 62.4391 105.816L62.2311 106.936C62.0605 107.011 61.8738 107.064 61.6711 107.096C61.4685 107.139 61.2605 107.16 61.0471 107.16C60.3965 107.16 59.9111 106.984 59.5911 106.632C59.2818 106.28 59.1271 105.741 59.1271 105.016V95.32H60.4071Z" fill="white"/>
<path d="M198.952 100.856C198.888 101.635 198.68 102.227 198.328 102.632C197.987 103.037 197.501 103.24 196.872 103.24C196.509 103.24 196.195 103.181 195.928 103.064C195.661 102.947 195.421 102.808 195.208 102.648C195.005 102.488 194.797 102.349 194.584 102.232C194.381 102.115 194.152 102.056 193.896 102.056C193.619 102.056 193.4 102.163 193.24 102.376C193.08 102.589 192.968 102.877 192.904 103.24H191.688C191.752 102.451 191.955 101.859 192.296 101.464C192.637 101.059 193.133 100.856 193.784 100.856C194.136 100.856 194.445 100.915 194.712 101.032C194.979 101.149 195.219 101.288 195.432 101.448C195.645 101.608 195.853 101.747 196.056 101.864C196.269 101.981 196.499 102.04 196.744 102.04C197.021 102.04 197.24 101.933 197.4 101.72C197.56 101.507 197.672 101.219 197.736 100.856H198.952ZM208.109 107V99.256C208.109 99.0747 208.109 98.8827 208.109 98.68C208.12 98.4667 208.131 98.248 208.141 98.024C207.779 98.376 207.357 98.6853 206.877 98.952C206.397 99.208 205.907 99.3947 205.405 99.512L205.069 98.344C205.261 98.3227 205.501 98.2533 205.789 98.136C206.088 98.008 206.397 97.8533 206.717 97.672C207.048 97.48 207.352 97.2773 207.629 97.064C207.907 96.8507 208.12 96.6427 208.269 96.44H209.389V107H208.109ZM215.768 96.28C216.653 96.28 217.4 96.5147 218.008 96.984C218.616 97.4427 219.074 98.0827 219.384 98.904C219.693 99.7147 219.848 100.653 219.848 101.72C219.848 102.904 219.693 103.901 219.384 104.712C219.074 105.512 218.616 106.12 218.008 106.536C217.41 106.952 216.669 107.16 215.784 107.16C214.909 107.16 214.157 106.957 213.528 106.552C212.898 106.147 212.429 105.555 212.12 104.776L213.384 104.104C213.554 104.659 213.832 105.107 214.216 105.448C214.61 105.789 215.149 105.96 215.832 105.96C216.386 105.96 216.845 105.853 217.208 105.64C217.581 105.416 217.874 105.101 218.088 104.696C218.301 104.28 218.45 103.784 218.536 103.208C218.632 102.632 218.68 101.992 218.68 101.288C218.68 101.267 218.68 101.245 218.68 101.224C218.68 101.192 218.68 101.165 218.68 101.144H218.616C218.488 101.624 218.264 102.013 217.944 102.312C217.624 102.6 217.261 102.808 216.856 102.936C216.461 103.064 216.066 103.128 215.672 103.128C214.978 103.128 214.365 102.995 213.832 102.728C213.298 102.451 212.882 102.067 212.584 101.576C212.285 101.085 212.136 100.504 212.136 99.832C212.136 99.1067 212.28 98.4827 212.568 97.96C212.856 97.4267 213.272 97.016 213.816 96.728C214.36 96.4293 215.01 96.28 215.768 96.28ZM215.784 97.512C215.037 97.512 214.466 97.72 214.072 98.136C213.677 98.5413 213.48 99.112 213.48 99.848C213.48 100.477 213.688 100.979 214.104 101.352C214.52 101.715 215.08 101.896 215.784 101.896C216.242 101.896 216.642 101.805 216.984 101.624C217.336 101.432 217.608 101.176 217.8 100.856C217.992 100.525 218.088 100.147 218.088 99.72C218.088 99.272 217.992 98.8827 217.8 98.552C217.608 98.2213 217.336 97.9653 216.984 97.784C216.642 97.6027 216.242 97.512 215.784 97.512ZM225.218 107.16C224.279 107.16 223.447 106.941 222.722 106.504C222.007 106.056 221.522 105.443 221.266 104.664L222.546 104.008C222.674 104.403 222.85 104.749 223.074 105.048C223.298 105.336 223.591 105.56 223.954 105.72C224.327 105.88 224.791 105.96 225.346 105.96C225.815 105.96 226.21 105.875 226.53 105.704C226.85 105.533 227.095 105.304 227.266 105.016C227.437 104.717 227.522 104.376 227.522 103.992C227.522 103.608 227.447 103.288 227.298 103.032C227.159 102.776 226.935 102.589 226.626 102.472C226.317 102.344 225.911 102.28 225.41 102.28C225.293 102.28 225.165 102.285 225.026 102.296C224.887 102.296 224.743 102.307 224.594 102.328V101.048C224.69 101.059 224.781 101.064 224.866 101.064C224.962 101.064 225.047 101.064 225.122 101.064C225.901 101.064 226.455 100.915 226.786 100.616C227.117 100.307 227.282 99.8267 227.282 99.176C227.282 98.6213 227.111 98.2 226.77 97.912C226.429 97.624 225.943 97.48 225.314 97.48C224.642 97.48 224.13 97.6293 223.778 97.928C223.426 98.216 223.149 98.6107 222.946 99.112L221.73 98.536C221.901 98.088 222.157 97.6933 222.498 97.352C222.839 97.0107 223.25 96.744 223.73 96.552C224.221 96.36 224.759 96.264 225.346 96.264C226.082 96.264 226.69 96.392 227.17 96.648C227.65 96.8933 228.007 97.224 228.242 97.64C228.487 98.056 228.61 98.5147 228.61 99.016C228.61 99.4 228.557 99.7467 228.45 100.056C228.343 100.355 228.194 100.616 228.002 100.84C227.821 101.064 227.613 101.245 227.378 101.384C227.143 101.512 226.893 101.597 226.626 101.64V101.672C226.978 101.683 227.287 101.752 227.554 101.88C227.831 102.008 228.066 102.179 228.258 102.392C228.45 102.605 228.594 102.851 228.69 103.128C228.797 103.395 228.85 103.677 228.85 103.976C228.85 104.595 228.695 105.144 228.386 105.624C228.087 106.104 227.666 106.483 227.122 106.76C226.578 107.027 225.943 107.16 225.218 107.16ZM244.074 96.44V97.64H240.394V107H239.114V97.64H235.434V96.44H244.074ZM250.034 96.44C250.749 96.44 251.367 96.5733 251.89 96.84C252.423 97.096 252.839 97.464 253.138 97.944C253.437 98.424 253.586 98.9947 253.586 99.656C253.586 100.317 253.437 100.888 253.138 101.368C252.839 101.848 252.423 102.221 251.89 102.488C251.367 102.744 250.749 102.872 250.034 102.872H247.586V107H246.306V96.44H250.034ZM249.842 101.672C250.674 101.672 251.282 101.501 251.666 101.16C252.05 100.808 252.242 100.307 252.242 99.656C252.242 98.9947 252.05 98.4933 251.666 98.152C251.282 97.8107 250.674 97.64 249.842 97.64H247.586V101.672H249.842ZM259.464 96.28C260.392 96.28 261.192 96.472 261.864 96.856C262.536 97.2293 263.096 97.784 263.544 98.52L262.472 99.352C262.077 98.6693 261.629 98.1893 261.128 97.912C260.637 97.624 260.04 97.48 259.336 97.48C258.77 97.48 258.301 97.56 257.928 97.72C257.565 97.88 257.298 98.0933 257.128 98.36C256.957 98.616 256.872 98.9093 256.872 99.24C256.872 99.6133 256.989 99.944 257.224 100.232C257.458 100.509 257.928 100.728 258.632 100.888L260.92 101.4C261.933 101.624 262.637 101.965 263.032 102.424C263.437 102.872 263.64 103.432 263.64 104.104C263.64 104.701 263.469 105.235 263.128 105.704C262.797 106.163 262.328 106.52 261.72 106.776C261.112 107.032 260.397 107.16 259.576 107.16C258.808 107.16 258.13 107.059 257.544 106.856C256.968 106.643 256.472 106.36 256.056 106.008C255.64 105.656 255.298 105.261 255.032 104.824L256.152 103.912C256.354 104.317 256.616 104.675 256.936 104.984C257.256 105.293 257.64 105.533 258.088 105.704C258.546 105.875 259.069 105.96 259.656 105.96C260.2 105.96 260.669 105.896 261.064 105.768C261.469 105.629 261.778 105.432 261.992 105.176C262.205 104.909 262.312 104.589 262.312 104.216C262.312 103.875 262.2 103.571 261.976 103.304C261.752 103.027 261.33 102.819 260.712 102.68L258.232 102.12C257.581 101.971 257.053 101.768 256.648 101.512C256.253 101.245 255.965 100.936 255.784 100.584C255.613 100.221 255.528 99.832 255.528 99.416C255.528 98.8507 255.682 98.3333 255.992 97.864C256.312 97.384 256.765 97 257.352 96.712C257.949 96.424 258.653 96.28 259.464 96.28Z" fill="white"/>
<rect y="123" width="196" height="39" fill="#E6007A"/>
<path d="M17.456 137.44C18.1707 137.44 18.7893 137.573 19.312 137.84C19.8453 138.096 20.2613 138.464 20.56 138.944C20.8587 139.424 21.008 139.995 21.008 140.656C21.008 141.317 20.8587 141.888 20.56 142.368C20.2613 142.848 19.8453 143.221 19.312 143.488C18.7893 143.744 18.1707 143.872 17.456 143.872H15.008V148H13.728V137.44H17.456ZM17.264 142.672C18.096 142.672 18.704 142.501 19.088 142.16C19.472 141.808 19.664 141.307 19.664 140.656C19.664 139.995 19.472 139.493 19.088 139.152C18.704 138.811 18.096 138.64 17.264 138.64H15.008V142.672H17.264ZM26.425 139.84C27.1823 139.84 27.849 140.005 28.425 140.336C29.0117 140.667 29.4703 141.147 29.801 141.776C30.1317 142.395 30.297 143.136 30.297 144C30.297 144.864 30.1317 145.611 29.801 146.24C29.4703 146.859 29.0117 147.333 28.425 147.664C27.849 147.995 27.1823 148.16 26.425 148.16C25.6783 148.16 25.0117 147.995 24.425 147.664C23.8383 147.333 23.3797 146.859 23.049 146.24C22.7183 145.611 22.553 144.864 22.553 144C22.553 143.136 22.7183 142.395 23.049 141.776C23.3797 141.147 23.8383 140.667 24.425 140.336C25.0117 140.005 25.6783 139.84 26.425 139.84ZM26.425 140.944C25.881 140.944 25.417 141.067 25.033 141.312C24.649 141.557 24.3503 141.909 24.137 142.368C23.9343 142.816 23.833 143.36 23.833 144C23.833 144.629 23.9343 145.173 24.137 145.632C24.3503 146.091 24.649 146.443 25.033 146.688C25.417 146.933 25.881 147.056 26.425 147.056C26.969 147.056 27.433 146.933 27.817 146.688C28.201 146.443 28.4943 146.091 28.697 145.632C28.9103 145.173 29.017 144.629 29.017 144C29.017 143.36 28.9103 142.816 28.697 142.368C28.4943 141.909 28.201 141.557 27.817 141.312C27.433 141.067 26.969 140.944 26.425 140.944ZM33.9228 136.32V145.968C33.9228 146.373 33.9974 146.656 34.1468 146.816C34.2961 146.965 34.5361 147.04 34.8668 147.04C35.0801 147.04 35.2561 147.024 35.3948 146.992C35.5334 146.96 35.7201 146.901 35.9548 146.816L35.7468 147.936C35.5761 148.011 35.3894 148.064 35.1868 148.096C34.9841 148.139 34.7761 148.16 34.5628 148.16C33.9121 148.16 33.4268 147.984 33.1068 147.632C32.7974 147.28 32.6428 146.741 32.6428 146.016V136.32H33.9228ZM44.6214 140L41.1654 143.456L40.8614 143.76L38.2374 146.384V144.784L43.0054 140H44.6214ZM38.8774 136.32V148H37.5974V136.32H38.8774ZM41.2774 142.8L44.8134 148H43.2614L40.2054 143.52L41.2774 142.8ZM51.1913 142.832C51.1913 142.235 51.0313 141.776 50.7113 141.456C50.3913 141.125 49.9379 140.96 49.3513 140.96C48.7966 140.96 48.3273 141.083 47.9433 141.328C47.5593 141.563 47.2766 141.947 47.0953 142.48L46.0553 141.84C46.2686 141.243 46.6633 140.763 47.2393 140.4C47.8153 140.027 48.5299 139.84 49.3833 139.84C49.9593 139.84 50.4819 139.941 50.9513 140.144C51.4206 140.336 51.7886 140.635 52.0553 141.04C52.3326 141.435 52.4713 141.947 52.4713 142.576V146.448C52.4713 146.832 52.6739 147.024 53.0793 147.024C53.2819 147.024 53.4793 146.997 53.6713 146.944L53.6073 147.952C53.3939 148.059 53.1166 148.112 52.7753 148.112C52.4659 148.112 52.1886 148.053 51.9433 147.936C51.6979 147.819 51.5059 147.643 51.3673 147.408C51.2286 147.163 51.1593 146.859 51.1593 146.496V146.336L51.4793 146.384C51.3513 146.8 51.1326 147.141 50.8233 147.408C50.5139 147.664 50.1673 147.856 49.7833 147.984C49.3993 148.101 49.0206 148.16 48.6473 148.16C48.1779 148.16 47.7406 148.08 47.3353 147.92C46.9299 147.76 46.6046 147.52 46.3593 147.2C46.1246 146.869 46.0073 146.464 46.0073 145.984C46.0073 145.387 46.2046 144.896 46.5993 144.512C47.0046 144.117 47.5646 143.851 48.2793 143.712L51.4473 143.088V144.144L48.8713 144.672C48.3486 144.779 47.9593 144.928 47.7033 145.12C47.4473 145.312 47.3193 145.579 47.3193 145.92C47.3193 146.251 47.4473 146.523 47.7033 146.736C47.9699 146.939 48.3433 147.04 48.8233 147.04C49.1326 147.04 49.4259 147.003 49.7033 146.928C49.9913 146.843 50.2473 146.72 50.4713 146.56C50.6953 146.389 50.8713 146.181 50.9993 145.936C51.1273 145.68 51.1913 145.381 51.1913 145.04V142.832ZM58.7018 148.16C58.0404 148.16 57.4324 147.995 56.8778 147.664C56.3231 147.333 55.8804 146.859 55.5498 146.24C55.2191 145.611 55.0538 144.864 55.0538 144C55.0538 143.115 55.2298 142.363 55.5818 141.744C55.9338 141.125 56.3978 140.656 56.9738 140.336C57.5498 140.005 58.1684 139.84 58.8298 139.84C59.4911 139.84 60.0618 140.011 60.5418 140.352C61.0324 140.693 61.3578 141.147 61.5178 141.712L61.3578 141.824V136.32H62.6378V148H61.5178L61.4058 146.064L61.5818 145.968C61.5071 146.437 61.3258 146.837 61.0378 147.168C60.7604 147.488 60.4138 147.733 59.9978 147.904C59.5924 148.075 59.1604 148.16 58.7018 148.16ZM58.8298 147.04C59.3418 147.04 59.7844 146.912 60.1578 146.656C60.5418 146.4 60.8351 146.037 61.0378 145.568C61.2511 145.088 61.3578 144.528 61.3578 143.888C61.3578 143.28 61.2511 142.757 61.0378 142.32C60.8351 141.883 60.5471 141.547 60.1738 141.312C59.8111 141.077 59.3844 140.96 58.8938 140.96C58.0831 140.96 57.4538 141.237 57.0058 141.792C56.5578 142.347 56.3338 143.083 56.3338 144C56.3338 144.917 56.5524 145.653 56.9898 146.208C57.4271 146.763 58.0404 147.04 58.8298 147.04ZM68.957 148.16C68.1997 148.16 67.5223 147.995 66.925 147.664C66.3383 147.333 65.8797 146.859 65.549 146.24C65.2183 145.611 65.053 144.864 65.053 144C65.053 143.136 65.2183 142.395 65.549 141.776C65.8797 141.147 66.333 140.667 66.909 140.336C67.485 140.005 68.141 139.84 68.877 139.84C69.6237 139.84 70.2583 140 70.781 140.32C71.3143 140.64 71.7197 141.077 71.997 141.632C72.2743 142.176 72.413 142.789 72.413 143.472C72.413 143.653 72.4077 143.819 72.397 143.968C72.3863 144.117 72.3703 144.251 72.349 144.368H65.885V143.232H71.789L71.133 143.36C71.133 142.592 70.9197 142 70.493 141.584C70.077 141.168 69.5277 140.96 68.845 140.96C68.3223 140.96 67.869 141.083 67.485 141.328C67.1117 141.563 66.8183 141.909 66.605 142.368C66.4023 142.816 66.301 143.36 66.301 144C66.301 144.629 66.4077 145.173 66.621 145.632C66.8343 146.091 67.133 146.443 67.517 146.688C67.9117 146.923 68.381 147.04 68.925 147.04C69.5117 147.04 69.9863 146.928 70.349 146.704C70.7223 146.48 71.021 146.176 71.245 145.792L72.253 146.384C72.0503 146.747 71.789 147.061 71.469 147.328C71.1597 147.595 70.7917 147.803 70.365 147.952C69.949 148.091 69.4797 148.16 68.957 148.16ZM75.3185 140L77.7025 143.344L77.7825 143.456L81.0625 148H79.4945L77.0145 144.528L76.8705 144.352L73.7185 140H75.3185ZM81.0145 140L77.8465 144.272H77.7665L75.0145 148H73.5265L77.0145 143.408H77.1105L79.5105 140H81.0145Z" fill="white"/>
<path d="M217.952 141.856C217.888 142.635 217.68 143.227 217.328 143.632C216.987 144.037 216.501 144.24 215.872 144.24C215.509 144.24 215.195 144.181 214.928 144.064C214.661 143.947 214.421 143.808 214.208 143.648C214.005 143.488 213.797 143.349 213.584 143.232C213.381 143.115 213.152 143.056 212.896 143.056C212.619 143.056 212.4 143.163 212.24 143.376C212.08 143.589 211.968 143.877 211.904 144.24H210.688C210.752 143.451 210.955 142.859 211.296 142.464C211.637 142.059 212.133 141.856 212.784 141.856C213.136 141.856 213.445 141.915 213.712 142.032C213.979 142.149 214.219 142.288 214.432 142.448C214.645 142.608 214.853 142.747 215.056 142.864C215.269 142.981 215.499 143.04 215.744 143.04C216.021 143.04 216.24 142.933 216.4 142.72C216.56 142.507 216.672 142.219 216.736 141.856H217.952ZM228.734 148.16C227.795 148.16 226.963 147.941 226.238 147.504C225.523 147.056 225.038 146.443 224.782 145.664L226.062 145.008C226.19 145.403 226.366 145.749 226.59 146.048C226.814 146.336 227.107 146.56 227.47 146.72C227.843 146.88 228.307 146.96 228.862 146.96C229.331 146.96 229.726 146.875 230.046 146.704C230.366 146.533 230.611 146.304 230.782 146.016C230.952 145.717 231.038 145.376 231.038 144.992C231.038 144.608 230.963 144.288 230.814 144.032C230.675 143.776 230.451 143.589 230.142 143.472C229.832 143.344 229.427 143.28 228.926 143.28C228.808 143.28 228.68 143.285 228.542 143.296C228.403 143.296 228.259 143.307 228.11 143.328V142.048C228.206 142.059 228.296 142.064 228.382 142.064C228.478 142.064 228.563 142.064 228.638 142.064C229.416 142.064 229.971 141.915 230.302 141.616C230.632 141.307 230.798 140.827 230.798 140.176C230.798 139.621 230.627 139.2 230.286 138.912C229.944 138.624 229.459 138.48 228.83 138.48C228.158 138.48 227.646 138.629 227.294 138.928C226.942 139.216 226.664 139.611 226.462 140.112L225.246 139.536C225.416 139.088 225.672 138.693 226.014 138.352C226.355 138.011 226.766 137.744 227.246 137.552C227.736 137.36 228.275 137.264 228.862 137.264C229.598 137.264 230.206 137.392 230.686 137.648C231.166 137.893 231.523 138.224 231.758 138.64C232.003 139.056 232.126 139.515 232.126 140.016C232.126 140.4 232.072 140.747 231.966 141.056C231.859 141.355 231.71 141.616 231.518 141.84C231.336 142.064 231.128 142.245 230.894 142.384C230.659 142.512 230.408 142.597 230.142 142.64V142.672C230.494 142.683 230.803 142.752 231.07 142.88C231.347 143.008 231.582 143.179 231.774 143.392C231.966 143.605 232.11 143.851 232.206 144.128C232.312 144.395 232.366 144.677 232.366 144.976C232.366 145.595 232.211 146.144 231.902 146.624C231.603 147.104 231.182 147.483 230.638 147.76C230.094 148.027 229.459 148.16 228.734 148.16ZM238.398 148.16C237.203 148.16 236.249 147.696 235.534 146.768C234.819 145.84 234.462 144.491 234.462 142.72C234.462 140.949 234.819 139.6 235.534 138.672C236.249 137.744 237.203 137.28 238.398 137.28C239.603 137.28 240.558 137.744 241.262 138.672C241.977 139.6 242.334 140.949 242.334 142.72C242.334 144.491 241.977 145.84 241.262 146.768C240.558 147.696 239.603 148.16 238.398 148.16ZM238.398 147.008C238.963 147.008 239.438 146.848 239.822 146.528C240.217 146.197 240.51 145.712 240.702 145.072C240.905 144.432 241.006 143.648 241.006 142.72C241.006 141.792 240.905 141.008 240.702 140.368C240.51 139.728 240.217 139.248 239.822 138.928C239.438 138.597 238.963 138.432 238.398 138.432C237.833 138.432 237.353 138.597 236.958 138.928C236.574 139.248 236.281 139.728 236.078 140.368C235.886 141.008 235.79 141.792 235.79 142.72C235.79 143.648 235.886 144.432 236.078 145.072C236.281 145.712 236.574 146.197 236.958 146.528C237.353 146.848 237.833 147.008 238.398 147.008ZM248.351 148.16C247.156 148.16 246.202 147.696 245.487 146.768C244.772 145.84 244.415 144.491 244.415 142.72C244.415 140.949 244.772 139.6 245.487 138.672C246.202 137.744 247.156 137.28 248.351 137.28C249.556 137.28 250.511 137.744 251.215 138.672C251.93 139.6 252.287 140.949 252.287 142.72C252.287 144.491 251.93 145.84 251.215 146.768C250.511 147.696 249.556 148.16 248.351 148.16ZM248.351 147.008C248.916 147.008 249.391 146.848 249.775 146.528C250.17 146.197 250.463 145.712 250.655 145.072C250.858 144.432 250.959 143.648 250.959 142.72C250.959 141.792 250.858 141.008 250.655 140.368C250.463 139.728 250.17 139.248 249.775 138.928C249.391 138.597 248.916 138.432 248.351 138.432C247.786 138.432 247.306 138.597 246.911 138.928C246.527 139.248 246.234 139.728 246.031 140.368C245.839 141.008 245.743 141.792 245.743 142.72C245.743 143.648 245.839 144.432 246.031 145.072C246.234 145.712 246.527 146.197 246.911 146.528C247.306 146.848 247.786 147.008 248.351 147.008ZM267.496 137.44V138.64H263.816V148H262.536V138.64H258.856V137.44H267.496ZM273.456 137.44C274.171 137.44 274.789 137.573 275.312 137.84C275.845 138.096 276.261 138.464 276.56 138.944C276.859 139.424 277.008 139.995 277.008 140.656C277.008 141.317 276.859 141.888 276.56 142.368C276.261 142.848 275.845 143.221 275.312 143.488C274.789 143.744 274.171 143.872 273.456 143.872H271.008V148H269.728V137.44H273.456ZM273.264 142.672C274.096 142.672 274.704 142.501 275.088 142.16C275.472 141.808 275.664 141.307 275.664 140.656C275.664 139.995 275.472 139.493 275.088 139.152C274.704 138.811 274.096 138.64 273.264 138.64H271.008V142.672H273.264ZM282.886 137.28C283.814 137.28 284.614 137.472 285.286 137.856C285.958 138.229 286.518 138.784 286.966 139.52L285.894 140.352C285.499 139.669 285.051 139.189 284.55 138.912C284.059 138.624 283.462 138.48 282.758 138.48C282.192 138.48 281.723 138.56 281.35 138.72C280.987 138.88 280.72 139.093 280.55 139.36C280.379 139.616 280.294 139.909 280.294 140.24C280.294 140.613 280.411 140.944 280.646 141.232C280.88 141.509 281.35 141.728 282.054 141.888L284.342 142.4C285.355 142.624 286.059 142.965 286.454 143.424C286.859 143.872 287.062 144.432 287.062 145.104C287.062 145.701 286.891 146.235 286.55 146.704C286.219 147.163 285.75 147.52 285.142 147.776C284.534 148.032 283.819 148.16 282.998 148.16C282.23 148.16 281.552 148.059 280.966 147.856C280.39 147.643 279.894 147.36 279.478 147.008C279.062 146.656 278.72 146.261 278.454 145.824L279.574 144.912C279.776 145.317 280.038 145.675 280.358 145.984C280.678 146.293 281.062 146.533 281.51 146.704C281.968 146.875 282.491 146.96 283.078 146.96C283.622 146.96 284.091 146.896 284.486 146.768C284.891 146.629 285.2 146.432 285.414 146.176C285.627 145.909 285.734 145.589 285.734 145.216C285.734 144.875 285.622 144.571 285.398 144.304C285.174 144.027 284.752 143.819 284.134 143.68L281.654 143.12C281.003 142.971 280.475 142.768 280.07 142.512C279.675 142.245 279.387 141.936 279.206 141.584C279.035 141.221 278.95 140.832 278.95 140.416C278.95 139.851 279.104 139.333 279.414 138.864C279.734 138.384 280.187 138 280.774 137.712C281.371 137.424 282.075 137.28 282.886 137.28Z" fill="white"/>
<rect y="205" width="320" height="39" fill="#8BA1BE" fill-opacity="0.2"/>
<path d="M21.92 219.44L17.92 230H16.464L12.448 219.44H13.824L16.512 226.736L17.184 228.832L17.856 226.752L20.544 219.44H21.92ZM24.503 220.464C24.215 220.464 23.9803 220.379 23.799 220.208C23.6283 220.027 23.543 219.792 23.543 219.504C23.543 219.216 23.6283 218.987 23.799 218.816C23.9803 218.635 24.215 218.544 24.503 218.544C24.791 218.544 25.0203 218.635 25.191 218.816C25.3723 218.987 25.463 219.216 25.463 219.504C25.463 219.792 25.3723 220.027 25.191 220.208C25.0203 220.379 24.791 220.464 24.503 220.464ZM25.143 222V230H23.863V222H25.143ZM30.993 230.16C30.2143 230.16 29.4943 229.995 28.833 229.664C28.1823 229.333 27.681 228.864 27.329 228.256L28.417 227.472C28.6517 227.963 28.993 228.347 29.441 228.624C29.8997 228.901 30.449 229.04 31.089 229.04C31.6543 229.04 32.097 228.933 32.417 228.72C32.737 228.496 32.897 228.208 32.897 227.856C32.897 227.632 32.8223 227.429 32.673 227.248C32.5343 227.056 32.2623 226.917 31.857 226.832L29.937 226.432C29.1583 226.272 28.5983 226.005 28.257 225.632C27.9263 225.259 27.761 224.795 27.761 224.24C27.761 223.803 27.8837 223.403 28.129 223.04C28.385 222.677 28.7423 222.389 29.201 222.176C29.6703 221.952 30.2197 221.84 30.849 221.84C31.6383 221.84 32.305 221.995 32.849 222.304C33.393 222.613 33.7983 223.051 34.065 223.616L32.993 224.32C32.8117 223.851 32.5183 223.509 32.113 223.296C31.7077 223.072 31.2863 222.96 30.849 222.96C30.465 222.96 30.1343 223.013 29.857 223.12C29.5903 223.227 29.3823 223.376 29.233 223.568C29.0943 223.749 29.025 223.957 29.025 224.192C29.025 224.427 29.105 224.645 29.265 224.848C29.425 225.04 29.7237 225.179 30.161 225.264L32.161 225.68C32.9077 225.829 33.4303 226.075 33.729 226.416C34.0277 226.757 34.177 227.173 34.177 227.664C34.177 228.165 34.0437 228.608 33.777 228.992C33.5103 229.365 33.137 229.653 32.657 229.856C32.177 230.059 31.6223 230.16 30.993 230.16ZM41.2225 224.832C41.2225 224.235 41.0625 223.776 40.7425 223.456C40.4225 223.125 39.9692 222.96 39.3825 222.96C38.8278 222.96 38.3585 223.083 37.9745 223.328C37.5905 223.563 37.3078 223.947 37.1265 224.48L36.0865 223.84C36.2998 223.243 36.6945 222.763 37.2705 222.4C37.8465 222.027 38.5612 221.84 39.4145 221.84C39.9905 221.84 40.5132 221.941 40.9825 222.144C41.4518 222.336 41.8198 222.635 42.0865 223.04C42.3638 223.435 42.5025 223.947 42.5025 224.576V228.448C42.5025 228.832 42.7052 229.024 43.1105 229.024C43.3132 229.024 43.5105 228.997 43.7025 228.944L43.6385 229.952C43.4252 230.059 43.1478 230.112 42.8065 230.112C42.4972 230.112 42.2198 230.053 41.9745 229.936C41.7292 229.819 41.5372 229.643 41.3985 229.408C41.2598 229.163 41.1905 228.859 41.1905 228.496V228.336L41.5105 228.384C41.3825 228.8 41.1638 229.141 40.8545 229.408C40.5452 229.664 40.1985 229.856 39.8145 229.984C39.4305 230.101 39.0518 230.16 38.6785 230.16C38.2092 230.16 37.7718 230.08 37.3665 229.92C36.9612 229.76 36.6358 229.52 36.3905 229.2C36.1558 228.869 36.0385 228.464 36.0385 227.984C36.0385 227.387 36.2358 226.896 36.6305 226.512C37.0358 226.117 37.5958 225.851 38.3105 225.712L41.4785 225.088V226.144L38.9025 226.672C38.3798 226.779 37.9905 226.928 37.7345 227.12C37.4785 227.312 37.3505 227.579 37.3505 227.92C37.3505 228.251 37.4785 228.523 37.7345 228.736C38.0012 228.939 38.3745 229.04 38.8545 229.04C39.1638 229.04 39.4572 229.003 39.7345 228.928C40.0225 228.843 40.2785 228.72 40.5025 228.56C40.7265 228.389 40.9025 228.181 41.0305 227.936C41.1585 227.68 41.2225 227.381 41.2225 227.04V224.832Z" fill="white"/>
<path d="M341.952 223.856C341.888 224.635 341.68 225.227 341.328 225.632C340.987 226.037 340.501 226.24 339.872 226.24C339.509 226.24 339.195 226.181 338.928 226.064C338.661 225.947 338.421 225.808 338.208 225.648C338.005 225.488 337.797 225.349 337.584 225.232C337.381 225.115 337.152 225.056 336.896 225.056C336.619 225.056 336.4 225.163 336.24 225.376C336.08 225.589 335.968 225.877 335.904 226.24H334.688C334.752 225.451 334.955 224.859 335.296 224.464C335.637 224.059 336.133 223.856 336.784 223.856C337.136 223.856 337.445 223.915 337.712 224.032C337.979 224.149 338.219 224.288 338.432 224.448C338.645 224.608 338.853 224.747 339.056 224.864C339.269 224.981 339.499 225.04 339.744 225.04C340.021 225.04 340.24 224.933 340.4 224.72C340.56 224.507 340.672 224.219 340.736 223.856H341.952ZM349.278 230V228.96C350.334 228.181 351.214 227.499 351.918 226.912C352.632 226.325 353.203 225.792 353.63 225.312C354.056 224.832 354.36 224.379 354.542 223.952C354.723 223.515 354.814 223.061 354.814 222.592C354.814 221.963 354.611 221.456 354.206 221.072C353.811 220.677 353.267 220.48 352.574 220.48C351.848 220.48 351.267 220.72 350.83 221.2C350.392 221.669 350.136 222.299 350.062 223.088L348.942 222.416C349.038 221.797 349.235 221.253 349.534 220.784C349.843 220.315 350.254 219.947 350.766 219.68C351.288 219.413 351.907 219.28 352.622 219.28C353.166 219.28 353.651 219.36 354.078 219.52C354.515 219.68 354.888 219.909 355.198 220.208C355.507 220.496 355.742 220.843 355.902 221.248C356.072 221.653 356.158 222.101 356.158 222.592C356.158 223.253 355.998 223.904 355.678 224.544C355.358 225.173 354.83 225.835 354.094 226.528C353.358 227.221 352.36 227.989 351.102 228.832V228.848C351.219 228.837 351.379 228.832 351.582 228.832C351.795 228.821 352.003 228.816 352.206 228.816C352.419 228.805 352.579 228.8 352.686 228.8H356.382V230H349.278ZM362.794 230V227.232H357.642V226.288L362.458 219.44H364.074V226.128H365.946V227.232H364.074V230H362.794ZM359.002 226.128H362.794V222.176C362.794 221.899 362.799 221.616 362.81 221.328C362.831 221.04 362.847 220.757 362.858 220.48H362.826C362.698 220.747 362.532 221.045 362.33 221.376C362.127 221.707 361.94 221.995 361.77 222.24L359.002 226.128ZM368.675 228.08C368.931 228.08 369.144 228.149 369.315 228.288C369.496 228.416 369.635 228.597 369.731 228.832C369.827 229.056 369.875 229.323 369.875 229.632C369.875 229.984 369.811 230.331 369.683 230.672C369.566 231.013 369.379 231.328 369.123 231.616C368.867 231.904 368.536 232.144 368.131 232.336L367.459 231.712C367.747 231.616 367.998 231.483 368.211 231.312C368.435 231.141 368.616 230.949 368.755 230.736C368.894 230.523 368.984 230.304 369.027 230.08L368.963 230.048C368.92 230.08 368.867 230.107 368.803 230.128C368.739 230.149 368.643 230.16 368.515 230.16C368.387 230.16 368.254 230.123 368.115 230.048C367.987 229.973 367.875 229.867 367.779 229.728C367.683 229.579 367.635 229.387 367.635 229.152C367.635 228.96 367.683 228.784 367.779 228.624C367.875 228.453 367.998 228.32 368.147 228.224C368.307 228.128 368.483 228.08 368.675 228.08ZM375.382 230.16C374.188 230.16 373.233 229.696 372.518 228.768C371.804 227.84 371.446 226.491 371.446 224.72C371.446 222.949 371.804 221.6 372.518 220.672C373.233 219.744 374.188 219.28 375.382 219.28C376.588 219.28 377.542 219.744 378.246 220.672C378.961 221.6 379.318 222.949 379.318 224.72C379.318 226.491 378.961 227.84 378.246 228.768C377.542 229.696 376.588 230.16 375.382 230.16ZM375.382 229.008C375.948 229.008 376.422 228.848 376.806 228.528C377.201 228.197 377.494 227.712 377.686 227.072C377.889 226.432 377.99 225.648 377.99 224.72C377.99 223.792 377.889 223.008 377.686 222.368C377.494 221.728 377.201 221.248 376.806 220.928C376.422 220.597 375.948 220.432 375.382 220.432C374.817 220.432 374.337 220.597 373.942 220.928C373.558 221.248 373.265 221.728 373.062 222.368C372.87 223.008 372.774 223.792 372.774 224.72C372.774 225.648 372.87 226.432 373.062 227.072C373.265 227.712 373.558 228.197 373.942 228.528C374.337 228.848 374.817 229.008 375.382 229.008ZM385.335 230.16C384.141 230.16 383.186 229.696 382.471 228.768C381.757 227.84 381.399 226.491 381.399 224.72C381.399 222.949 381.757 221.6 382.471 220.672C383.186 219.744 384.141 219.28 385.335 219.28C386.541 219.28 387.495 219.744 388.199 220.672C388.914 221.6 389.271 222.949 389.271 224.72C389.271 226.491 388.914 227.84 388.199 228.768C387.495 229.696 386.541 230.16 385.335 230.16ZM385.335 229.008C385.901 229.008 386.375 228.848 386.759 228.528C387.154 228.197 387.447 227.712 387.639 227.072C387.842 226.432 387.943 225.648 387.943 224.72C387.943 223.792 387.842 223.008 387.639 222.368C387.447 221.728 387.154 221.248 386.759 220.928C386.375 220.597 385.901 220.432 385.335 220.432C384.77 220.432 384.29 220.597 383.895 220.928C383.511 221.248 383.218 221.728 383.015 222.368C382.823 223.008 382.727 223.792 382.727 224.72C382.727 225.648 382.823 226.432 383.015 227.072C383.218 227.712 383.511 228.197 383.895 228.528C384.29 228.848 384.77 229.008 385.335 229.008ZM395.289 230.16C394.094 230.16 393.139 229.696 392.424 228.768C391.71 227.84 391.353 226.491 391.353 224.72C391.353 222.949 391.71 221.6 392.424 220.672C393.139 219.744 394.094 219.28 395.289 219.28C396.494 219.28 397.449 219.744 398.153 220.672C398.867 221.6 399.225 222.949 399.225 224.72C399.225 226.491 398.867 227.84 398.153 228.768C397.449 229.696 396.494 230.16 395.289 230.16ZM395.289 229.008C395.854 229.008 396.329 228.848 396.713 228.528C397.107 228.197 397.401 227.712 397.593 227.072C397.795 226.432 397.897 225.648 397.897 224.72C397.897 223.792 397.795 223.008 397.593 222.368C397.401 221.728 397.107 221.248 396.713 220.928C396.329 220.597 395.854 220.432 395.289 220.432C394.723 220.432 394.243 220.597 393.849 220.928C393.465 221.248 393.171 221.728 392.969 222.368C392.777 223.008 392.681 223.792 392.681 224.72C392.681 225.648 392.777 226.432 392.969 227.072C393.171 227.712 393.465 228.197 393.849 228.528C394.243 228.848 394.723 229.008 395.289 229.008ZM414.433 219.44V220.64H410.753V230H409.473V220.64H405.793V219.44H414.433ZM420.394 219.44C421.108 219.44 421.727 219.573 422.25 219.84C422.783 220.096 423.199 220.464 423.498 220.944C423.796 221.424 423.946 221.995 423.946 222.656C423.946 223.317 423.796 223.888 423.498 224.368C423.199 224.848 422.783 225.221 422.25 225.488C421.727 225.744 421.108 225.872 420.394 225.872H417.946V230H416.666V219.44H420.394ZM420.202 224.672C421.034 224.672 421.642 224.501 422.026 224.16C422.41 223.808 422.602 223.307 422.602 222.656C422.602 221.995 422.41 221.493 422.026 221.152C421.642 220.811 421.034 220.64 420.202 220.64H417.946V224.672H420.202ZM429.823 219.28C430.751 219.28 431.551 219.472 432.223 219.856C432.895 220.229 433.455 220.784 433.903 221.52L432.831 222.352C432.436 221.669 431.988 221.189 431.487 220.912C430.996 220.624 430.399 220.48 429.695 220.48C429.13 220.48 428.66 220.56 428.287 220.72C427.924 220.88 427.658 221.093 427.487 221.36C427.316 221.616 427.231 221.909 427.231 222.24C427.231 222.613 427.348 222.944 427.583 223.232C427.818 223.509 428.287 223.728 428.991 223.888L431.279 224.4C432.292 224.624 432.996 224.965 433.391 225.424C433.796 225.872 433.999 226.432 433.999 227.104C433.999 227.701 433.828 228.235 433.487 228.704C433.156 229.163 432.687 229.52 432.079 229.776C431.471 230.032 430.756 230.16 429.935 230.16C429.167 230.16 428.49 230.059 427.903 229.856C427.327 229.643 426.831 229.36 426.415 229.008C425.999 228.656 425.658 228.261 425.391 227.824L426.511 226.912C426.714 227.317 426.975 227.675 427.295 227.984C427.615 228.293 427.999 228.533 428.447 228.704C428.906 228.875 429.428 228.96 430.015 228.96C430.559 228.96 431.028 228.896 431.423 228.768C431.828 228.629 432.138 228.432 432.351 228.176C432.564 227.909 432.671 227.589 432.671 227.216C432.671 226.875 432.559 226.571 432.335 226.304C432.111 226.027 431.69 225.819 431.071 225.68L428.591 225.12C427.94 224.971 427.412 224.768 427.007 224.512C426.612 224.245 426.324 223.936 426.143 223.584C425.972 223.221 425.887 222.832 425.887 222.416C425.887 221.851 426.042 221.333 426.351 220.864C426.671 220.384 427.124 220 427.711 219.712C428.308 219.424 429.012 219.28 429.823 219.28Z" fill="white"/>
<rect y="164" width="287" height="39" fill="#6745D2"/>
<path d="M17.456 178.44C18.1707 178.44 18.7893 178.573 19.312 178.84C19.8453 179.096 20.2613 179.464 20.56 179.944C20.8587 180.424 21.008 180.995 21.008 181.656C21.008 182.317 20.8587 182.888 20.56 183.368C20.2613 183.848 19.8453 184.221 19.312 184.488C18.7893 184.744 18.1707 184.872 17.456 184.872H15.008V189H13.728V178.44H17.456ZM17.264 183.672C18.096 183.672 18.704 183.501 19.088 183.16C19.472 182.808 19.664 182.307 19.664 181.656C19.664 180.995 19.472 180.493 19.088 180.152C18.704 179.811 18.096 179.64 17.264 179.64H15.008V183.672H17.264ZM26.425 180.84C27.1823 180.84 27.849 181.005 28.425 181.336C29.0117 181.667 29.4703 182.147 29.801 182.776C30.1317 183.395 30.297 184.136 30.297 185C30.297 185.864 30.1317 186.611 29.801 187.24C29.4703 187.859 29.0117 188.333 28.425 188.664C27.849 188.995 27.1823 189.16 26.425 189.16C25.6783 189.16 25.0117 188.995 24.425 188.664C23.8383 188.333 23.3797 187.859 23.049 187.24C22.7183 186.611 22.553 185.864 22.553 185C22.553 184.136 22.7183 183.395 23.049 182.776C23.3797 182.147 23.8383 181.667 24.425 181.336C25.0117 181.005 25.6783 180.84 26.425 180.84ZM26.425 181.944C25.881 181.944 25.417 182.067 25.033 182.312C24.649 182.557 24.3503 182.909 24.137 183.368C23.9343 183.816 23.833 184.36 23.833 185C23.833 185.629 23.9343 186.173 24.137 186.632C24.3503 187.091 24.649 187.443 25.033 187.688C25.417 187.933 25.881 188.056 26.425 188.056C26.969 188.056 27.433 187.933 27.817 187.688C28.201 187.443 28.4943 187.091 28.697 186.632C28.9103 186.173 29.017 185.629 29.017 185C29.017 184.36 28.9103 183.816 28.697 183.368C28.4943 182.909 28.201 182.557 27.817 182.312C27.433 182.067 26.969 181.944 26.425 181.944ZM33.9228 177.32V186.968C33.9228 187.373 33.9974 187.656 34.1468 187.816C34.2961 187.965 34.5361 188.04 34.8668 188.04C35.0801 188.04 35.2561 188.024 35.3948 187.992C35.5334 187.96 35.7201 187.901 35.9548 187.816L35.7468 188.936C35.5761 189.011 35.3894 189.064 35.1868 189.096C34.9841 189.139 34.7761 189.16 34.5628 189.16C33.9121 189.16 33.4268 188.984 33.1068 188.632C32.7974 188.28 32.6428 187.741 32.6428 187.016V177.32H33.9228ZM44.6214 181L41.1654 184.456L40.8614 184.76L38.2374 187.384V185.784L43.0054 181H44.6214ZM38.8774 177.32V189H37.5974V177.32H38.8774ZM41.2774 183.8L44.8134 189H43.2614L40.2054 184.52L41.2774 183.8ZM51.1913 183.832C51.1913 183.235 51.0313 182.776 50.7113 182.456C50.3913 182.125 49.9379 181.96 49.3513 181.96C48.7966 181.96 48.3273 182.083 47.9433 182.328C47.5593 182.563 47.2766 182.947 47.0953 183.48L46.0553 182.84C46.2686 182.243 46.6633 181.763 47.2393 181.4C47.8153 181.027 48.5299 180.84 49.3833 180.84C49.9593 180.84 50.4819 180.941 50.9513 181.144C51.4206 181.336 51.7886 181.635 52.0553 182.04C52.3326 182.435 52.4713 182.947 52.4713 183.576V187.448C52.4713 187.832 52.6739 188.024 53.0793 188.024C53.2819 188.024 53.4793 187.997 53.6713 187.944L53.6073 188.952C53.3939 189.059 53.1166 189.112 52.7753 189.112C52.4659 189.112 52.1886 189.053 51.9433 188.936C51.6979 188.819 51.5059 188.643 51.3673 188.408C51.2286 188.163 51.1593 187.859 51.1593 187.496V187.336L51.4793 187.384C51.3513 187.8 51.1326 188.141 50.8233 188.408C50.5139 188.664 50.1673 188.856 49.7833 188.984C49.3993 189.101 49.0206 189.16 48.6473 189.16C48.1779 189.16 47.7406 189.08 47.3353 188.92C46.9299 188.76 46.6046 188.52 46.3593 188.2C46.1246 187.869 46.0073 187.464 46.0073 186.984C46.0073 186.387 46.2046 185.896 46.5993 185.512C47.0046 185.117 47.5646 184.851 48.2793 184.712L51.4473 184.088V185.144L48.8713 185.672C48.3486 185.779 47.9593 185.928 47.7033 186.12C47.4473 186.312 47.3193 186.579 47.3193 186.92C47.3193 187.251 47.4473 187.523 47.7033 187.736C47.9699 187.939 48.3433 188.04 48.8233 188.04C49.1326 188.04 49.4259 188.003 49.7033 187.928C49.9913 187.843 50.2473 187.72 50.4713 187.56C50.6953 187.389 50.8713 187.181 50.9993 186.936C51.1273 186.68 51.1913 186.381 51.1913 186.04V183.832ZM58.7018 189.16C58.0404 189.16 57.4324 188.995 56.8778 188.664C56.3231 188.333 55.8804 187.859 55.5498 187.24C55.2191 186.611 55.0538 185.864 55.0538 185C55.0538 184.115 55.2298 183.363 55.5818 182.744C55.9338 182.125 56.3978 181.656 56.9738 181.336C57.5498 181.005 58.1684 180.84 58.8298 180.84C59.4911 180.84 60.0618 181.011 60.5418 181.352C61.0324 181.693 61.3578 182.147 61.5178 182.712L61.3578 182.824V177.32H62.6378V189H61.5178L61.4058 187.064L61.5818 186.968C61.5071 187.437 61.3258 187.837 61.0378 188.168C60.7604 188.488 60.4138 188.733 59.9978 188.904C59.5924 189.075 59.1604 189.16 58.7018 189.16ZM58.8298 188.04C59.3418 188.04 59.7844 187.912 60.1578 187.656C60.5418 187.4 60.8351 187.037 61.0378 186.568C61.2511 186.088 61.3578 185.528 61.3578 184.888C61.3578 184.28 61.2511 183.757 61.0378 183.32C60.8351 182.883 60.5471 182.547 60.1738 182.312C59.8111 182.077 59.3844 181.96 58.8938 181.96C58.0831 181.96 57.4538 182.237 57.0058 182.792C56.5578 183.347 56.3338 184.083 56.3338 185C56.3338 185.917 56.5524 186.653 56.9898 187.208C57.4271 187.763 58.0404 188.04 58.8298 188.04ZM68.957 189.16C68.1997 189.16 67.5223 188.995 66.925 188.664C66.3383 188.333 65.8797 187.859 65.549 187.24C65.2183 186.611 65.053 185.864 65.053 185C65.053 184.136 65.2183 183.395 65.549 182.776C65.8797 182.147 66.333 181.667 66.909 181.336C67.485 181.005 68.141 180.84 68.877 180.84C69.6237 180.84 70.2583 181 70.781 181.32C71.3143 181.64 71.7197 182.077 71.997 182.632C72.2743 183.176 72.413 183.789 72.413 184.472C72.413 184.653 72.4077 184.819 72.397 184.968C72.3863 185.117 72.3703 185.251 72.349 185.368H65.885V184.232H71.789L71.133 184.36C71.133 183.592 70.9197 183 70.493 182.584C70.077 182.168 69.5277 181.96 68.845 181.96C68.3223 181.96 67.869 182.083 67.485 182.328C67.1117 182.563 66.8183 182.909 66.605 183.368C66.4023 183.816 66.301 184.36 66.301 185C66.301 185.629 66.4077 186.173 66.621 186.632C66.8343 187.091 67.133 187.443 67.517 187.688C67.9117 187.923 68.381 188.04 68.925 188.04C69.5117 188.04 69.9863 187.928 70.349 187.704C70.7223 187.48 71.021 187.176 71.245 186.792L72.253 187.384C72.0503 187.747 71.789 188.061 71.469 188.328C71.1597 188.595 70.7917 188.803 70.365 188.952C69.949 189.091 69.4797 189.16 68.957 189.16ZM77.7274 189.16C76.9487 189.16 76.2287 188.995 75.5674 188.664C74.9167 188.333 74.4154 187.864 74.0634 187.256L75.1514 186.472C75.386 186.963 75.7274 187.347 76.1754 187.624C76.634 187.901 77.1834 188.04 77.8234 188.04C78.3887 188.04 78.8314 187.933 79.1514 187.72C79.4714 187.496 79.6314 187.208 79.6314 186.856C79.6314 186.632 79.5567 186.429 79.4074 186.248C79.2687 186.056 78.9967 185.917 78.5914 185.832L76.6714 185.432C75.8927 185.272 75.3327 185.005 74.9914 184.632C74.6607 184.259 74.4954 183.795 74.4954 183.24C74.4954 182.803 74.618 182.403 74.8634 182.04C75.1194 181.677 75.4767 181.389 75.9354 181.176C76.4047 180.952 76.954 180.84 77.5834 180.84C78.3727 180.84 79.0394 180.995 79.5834 181.304C80.1274 181.613 80.5327 182.051 80.7994 182.616L79.7274 183.32C79.546 182.851 79.2527 182.509 78.8474 182.296C78.442 182.072 78.0207 181.96 77.5834 181.96C77.1994 181.96 76.8687 182.013 76.5914 182.12C76.3247 182.227 76.1167 182.376 75.9674 182.568C75.8287 182.749 75.7594 182.957 75.7594 183.192C75.7594 183.427 75.8394 183.645 75.9994 183.848C76.1594 184.04 76.458 184.179 76.8954 184.264L78.8954 184.68C79.642 184.829 80.1647 185.075 80.4634 185.416C80.762 185.757 80.9114 186.173 80.9114 186.664C80.9114 187.165 80.778 187.608 80.5114 187.992C80.2447 188.365 79.8714 188.653 79.3914 188.856C78.9114 189.059 78.3567 189.16 77.7274 189.16ZM93.234 189.16C92.2313 189.16 91.362 188.941 90.626 188.504C89.9007 188.056 89.3353 187.427 88.93 186.616C88.5353 185.805 88.338 184.84 88.338 183.72C88.338 182.6 88.546 181.635 88.962 180.824C89.3887 180.013 89.9807 179.389 90.738 178.952C91.4953 178.504 92.3647 178.28 93.346 178.28C94.3913 178.28 95.2393 178.477 95.89 178.872C96.5513 179.267 97.0847 179.875 97.49 180.696L96.322 181.336C96.0873 180.728 95.714 180.269 95.202 179.96C94.7007 179.64 94.082 179.48 93.346 179.48C92.6313 179.48 91.9967 179.651 91.442 179.992C90.898 180.323 90.466 180.808 90.146 181.448C89.8367 182.077 89.682 182.835 89.682 183.72C89.682 184.605 89.8153 185.368 90.082 186.008C90.3593 186.637 90.7647 187.123 91.298 187.464C91.842 187.795 92.5033 187.96 93.282 187.96C93.7193 187.96 94.1247 187.907 94.498 187.8C94.882 187.683 95.2127 187.512 95.49 187.288C95.778 187.064 96.002 186.781 96.162 186.44C96.322 186.099 96.402 185.699 96.402 185.24V184.872H93.042V183.672H97.57V189H96.562L96.498 187.032L96.77 187.08C96.4927 187.741 96.0553 188.253 95.458 188.616C94.8607 188.979 94.1193 189.16 93.234 189.16ZM103.628 180.84C104.385 180.84 105.052 181.005 105.628 181.336C106.215 181.667 106.673 182.147 107.004 182.776C107.335 183.395 107.5 184.136 107.5 185C107.5 185.864 107.335 186.611 107.004 187.24C106.673 187.859 106.215 188.333 105.628 188.664C105.052 188.995 104.385 189.16 103.628 189.16C102.881 189.16 102.215 188.995 101.628 188.664C101.041 188.333 100.583 187.859 100.252 187.24C99.9215 186.611 99.7561 185.864 99.7561 185C99.7561 184.136 99.9215 183.395 100.252 182.776C100.583 182.147 101.041 181.667 101.628 181.336C102.215 181.005 102.881 180.84 103.628 180.84ZM103.628 181.944C103.084 181.944 102.62 182.067 102.236 182.312C101.852 182.557 101.553 182.909 101.34 183.368C101.137 183.816 101.036 184.36 101.036 185C101.036 185.629 101.137 186.173 101.34 186.632C101.553 187.091 101.852 187.443 102.236 187.688C102.62 187.933 103.084 188.056 103.628 188.056C104.172 188.056 104.636 187.933 105.02 187.688C105.404 187.443 105.697 187.091 105.9 186.632C106.113 186.173 106.22 185.629 106.22 185C106.22 184.36 106.113 183.816 105.9 183.368C105.697 182.909 105.404 182.557 105.02 182.312C104.636 182.067 104.172 181.944 103.628 181.944ZM114.582 183.832C114.582 183.235 114.422 182.776 114.102 182.456C113.782 182.125 113.329 181.96 112.742 181.96C112.187 181.96 111.718 182.083 111.334 182.328C110.95 182.563 110.667 182.947 110.486 183.48L109.446 182.84C109.659 182.243 110.054 181.763 110.63 181.4C111.206 181.027 111.921 180.84 112.774 180.84C113.35 180.84 113.873 180.941 114.342 181.144C114.811 181.336 115.179 181.635 115.446 182.04C115.723 182.435 115.862 182.947 115.862 183.576V187.448C115.862 187.832 116.065 188.024 116.47 188.024C116.673 188.024 116.87 187.997 117.062 187.944L116.998 188.952C116.785 189.059 116.507 189.112 116.166 189.112C115.857 189.112 115.579 189.053 115.334 188.936C115.089 188.819 114.897 188.643 114.758 188.408C114.619 188.163 114.55 187.859 114.55 187.496V187.336L114.87 187.384C114.742 187.8 114.523 188.141 114.214 188.408C113.905 188.664 113.558 188.856 113.174 188.984C112.79 189.101 112.411 189.16 112.038 189.16C111.569 189.16 111.131 189.08 110.726 188.92C110.321 188.76 109.995 188.52 109.75 188.2C109.515 187.869 109.398 187.464 109.398 186.984C109.398 186.387 109.595 185.896 109.99 185.512C110.395 185.117 110.955 184.851 111.67 184.712L114.838 184.088V185.144L112.262 185.672C111.739 185.779 111.35 185.928 111.094 186.12C110.838 186.312 110.71 186.579 110.71 186.92C110.71 187.251 110.838 187.523 111.094 187.736C111.361 187.939 111.734 188.04 112.214 188.04C112.523 188.04 112.817 188.003 113.094 187.928C113.382 187.843 113.638 187.72 113.862 187.56C114.086 187.389 114.262 187.181 114.39 186.936C114.518 186.68 114.582 186.381 114.582 186.04V183.832ZM120.188 177.32V186.968C120.188 187.373 120.263 187.656 120.412 187.816C120.562 187.965 120.802 188.04 121.132 188.04C121.346 188.04 121.522 188.024 121.66 187.992C121.799 187.96 121.986 187.901 122.22 187.816L122.012 188.936C121.842 189.011 121.655 189.064 121.452 189.096C121.25 189.139 121.042 189.16 120.828 189.16C120.178 189.16 119.692 188.984 119.372 188.632C119.063 188.28 118.908 187.741 118.908 187.016V177.32H120.188ZM131.666 176.984L132.402 177.72C131.698 178.36 131.138 179.037 130.722 179.752C130.306 180.456 130.007 181.203 129.826 181.992C129.644 182.771 129.554 183.608 129.554 184.504C129.554 185.389 129.644 186.227 129.826 187.016C130.007 187.805 130.306 188.552 130.722 189.256C131.138 189.96 131.698 190.637 132.402 191.288L131.666 192.024C130.535 191.043 129.682 189.923 129.106 188.664C128.53 187.395 128.242 186.008 128.242 184.504C128.242 183 128.53 181.613 129.106 180.344C129.682 179.075 130.535 177.955 131.666 176.984ZM133.793 189V187.96C134.849 187.181 135.729 186.499 136.433 185.912C137.148 185.325 137.719 184.792 138.145 184.312C138.572 183.832 138.876 183.379 139.057 182.952C139.239 182.515 139.329 182.061 139.329 181.592C139.329 180.963 139.127 180.456 138.721 180.072C138.327 179.677 137.783 179.48 137.089 179.48C136.364 179.48 135.783 179.72 135.345 180.2C134.908 180.669 134.652 181.299 134.577 182.088L133.457 181.416C133.553 180.797 133.751 180.253 134.049 179.784C134.359 179.315 134.769 178.947 135.281 178.68C135.804 178.413 136.423 178.28 137.137 178.28C137.681 178.28 138.167 178.36 138.593 178.52C139.031 178.68 139.404 178.909 139.713 179.208C140.023 179.496 140.257 179.843 140.417 180.248C140.588 180.653 140.673 181.101 140.673 181.592C140.673 182.253 140.513 182.904 140.193 183.544C139.873 184.173 139.345 184.835 138.609 185.528C137.873 186.221 136.876 186.989 135.617 187.832V187.848C135.735 187.837 135.895 187.832 136.097 187.832C136.311 187.821 136.519 187.816 136.721 187.816C136.935 187.805 137.095 187.8 137.201 187.8H140.897V189H133.793ZM146.914 189.16C145.719 189.16 144.764 188.696 144.049 187.768C143.335 186.84 142.978 185.491 142.978 183.72C142.978 181.949 143.335 180.6 144.049 179.672C144.764 178.744 145.719 178.28 146.914 178.28C148.119 178.28 149.074 178.744 149.778 179.672C150.492 180.6 150.85 181.949 150.85 183.72C150.85 185.491 150.492 186.84 149.778 187.768C149.074 188.696 148.119 189.16 146.914 189.16ZM146.914 188.008C147.479 188.008 147.954 187.848 148.338 187.528C148.732 187.197 149.026 186.712 149.218 186.072C149.42 185.432 149.522 184.648 149.522 183.72C149.522 182.792 149.42 182.008 149.218 181.368C149.026 180.728 148.732 180.248 148.338 179.928C147.954 179.597 147.479 179.432 146.914 179.432C146.348 179.432 145.868 179.597 145.474 179.928C145.09 180.248 144.796 180.728 144.594 181.368C144.402 182.008 144.306 182.792 144.306 183.72C144.306 184.648 144.402 185.432 144.594 186.072C144.796 186.712 145.09 187.197 145.474 187.528C145.868 187.848 146.348 188.008 146.914 188.008ZM153.075 189V187.96C154.131 187.181 155.011 186.499 155.715 185.912C156.429 185.325 157 184.792 157.427 184.312C157.853 183.832 158.157 183.379 158.339 182.952C158.52 182.515 158.611 182.061 158.611 181.592C158.611 180.963 158.408 180.456 158.003 180.072C157.608 179.677 157.064 179.48 156.371 179.48C155.645 179.48 155.064 179.72 154.627 180.2C154.189 180.669 153.933 181.299 153.859 182.088L152.739 181.416C152.835 180.797 153.032 180.253 153.331 179.784C153.64 179.315 154.051 178.947 154.563 178.68C155.085 178.413 155.704 178.28 156.419 178.28C156.963 178.28 157.448 178.36 157.875 178.52C158.312 178.68 158.685 178.909 158.995 179.208C159.304 179.496 159.539 179.843 159.699 180.248C159.869 180.653 159.955 181.101 159.955 181.592C159.955 182.253 159.795 182.904 159.475 183.544C159.155 184.173 158.627 184.835 157.891 185.528C157.155 186.221 156.157 186.989 154.899 187.832V187.848C155.016 187.837 155.176 187.832 155.379 187.832C155.592 187.821 155.8 187.816 156.003 187.816C156.216 187.805 156.376 187.8 156.483 187.8H160.179V189H153.075ZM164.547 189V181.256C164.547 181.075 164.547 180.883 164.547 180.68C164.557 180.467 164.568 180.248 164.579 180.024C164.216 180.376 163.795 180.685 163.315 180.952C162.835 181.208 162.344 181.395 161.843 181.512L161.507 180.344C161.699 180.323 161.939 180.253 162.227 180.136C162.525 180.008 162.835 179.853 163.155 179.672C163.485 179.48 163.789 179.277 164.067 179.064C164.344 178.851 164.557 178.643 164.707 178.44H165.827V189H164.547ZM174.173 184.152V185.48H168.893V184.152H174.173ZM176.153 189V187.96C177.209 187.181 178.089 186.499 178.793 185.912C179.507 185.325 180.078 184.792 180.505 184.312C180.931 183.832 181.235 183.379 181.417 182.952C181.598 182.515 181.689 182.061 181.689 181.592C181.689 180.963 181.486 180.456 181.081 180.072C180.686 179.677 180.142 179.48 179.449 179.48C178.723 179.48 178.142 179.72 177.705 180.2C177.267 180.669 177.011 181.299 176.937 182.088L175.817 181.416C175.913 180.797 176.11 180.253 176.409 179.784C176.718 179.315 177.129 178.947 177.641 178.68C178.163 178.413 178.782 178.28 179.497 178.28C180.041 178.28 180.526 178.36 180.953 178.52C181.39 178.68 181.763 178.909 182.073 179.208C182.382 179.496 182.617 179.843 182.777 180.248C182.947 180.653 183.033 181.101 183.033 181.592C183.033 182.253 182.873 182.904 182.553 183.544C182.233 184.173 181.705 184.835 180.969 185.528C180.233 186.221 179.235 186.989 177.977 187.832V187.848C178.094 187.837 178.254 187.832 178.457 187.832C178.67 187.821 178.878 187.816 179.081 187.816C179.294 187.805 179.454 187.8 179.561 187.8H183.257V189H176.153ZM189.273 189.16C188.078 189.16 187.124 188.696 186.409 187.768C185.694 186.84 185.337 185.491 185.337 183.72C185.337 181.949 185.694 180.6 186.409 179.672C187.124 178.744 188.078 178.28 189.273 178.28C190.478 178.28 191.433 178.744 192.137 179.672C192.852 180.6 193.209 181.949 193.209 183.72C193.209 185.491 192.852 186.84 192.137 187.768C191.433 188.696 190.478 189.16 189.273 189.16ZM189.273 188.008C189.838 188.008 190.313 187.848 190.697 187.528C191.092 187.197 191.385 186.712 191.577 186.072C191.78 185.432 191.881 184.648 191.881 183.72C191.881 182.792 191.78 182.008 191.577 181.368C191.385 180.728 191.092 180.248 190.697 179.928C190.313 179.597 189.838 179.432 189.273 179.432C188.708 179.432 188.228 179.597 187.833 179.928C187.449 180.248 187.156 180.728 186.953 181.368C186.761 182.008 186.665 182.792 186.665 183.72C186.665 184.648 186.761 185.432 186.953 186.072C187.156 186.712 187.449 187.197 187.833 187.528C188.228 187.848 188.708 188.008 189.273 188.008ZM195.434 189V187.96C196.49 187.181 197.37 186.499 198.074 185.912C198.789 185.325 199.359 184.792 199.786 184.312C200.213 183.832 200.517 183.379 200.698 182.952C200.879 182.515 200.97 182.061 200.97 181.592C200.97 180.963 200.767 180.456 200.362 180.072C199.967 179.677 199.423 179.48 198.73 179.48C198.005 179.48 197.423 179.72 196.986 180.2C196.549 180.669 196.293 181.299 196.218 182.088L195.098 181.416C195.194 180.797 195.391 180.253 195.69 179.784C195.999 179.315 196.41 178.947 196.922 178.68C197.445 178.413 198.063 178.28 198.778 178.28C199.322 178.28 199.807 178.36 200.234 178.52C200.671 178.68 201.045 178.909 201.354 179.208C201.663 179.496 201.898 179.843 202.058 180.248C202.229 180.653 202.314 181.101 202.314 181.592C202.314 182.253 202.154 182.904 201.834 183.544C201.514 184.173 200.986 184.835 200.25 185.528C199.514 186.221 198.517 186.989 197.258 187.832V187.848C197.375 187.837 197.535 187.832 197.738 187.832C197.951 187.821 198.159 187.816 198.362 187.816C198.575 187.805 198.735 187.8 198.842 187.8H202.538V189H195.434ZM204.762 189V187.96C205.818 187.181 206.698 186.499 207.402 185.912C208.117 185.325 208.687 184.792 209.114 184.312C209.541 183.832 209.845 183.379 210.026 182.952C210.207 182.515 210.298 182.061 210.298 181.592C210.298 180.963 210.095 180.456 209.69 180.072C209.295 179.677 208.751 179.48 208.058 179.48C207.333 179.48 206.751 179.72 206.314 180.2C205.877 180.669 205.621 181.299 205.546 182.088L204.426 181.416C204.522 180.797 204.719 180.253 205.018 179.784C205.327 179.315 205.738 178.947 206.25 178.68C206.773 178.413 207.391 178.28 208.106 178.28C208.65 178.28 209.135 178.36 209.562 178.52C209.999 178.68 210.373 178.909 210.682 179.208C210.991 179.496 211.226 179.843 211.386 180.248C211.557 180.653 211.642 181.101 211.642 181.592C211.642 182.253 211.482 182.904 211.162 183.544C210.842 184.173 210.314 184.835 209.578 185.528C208.842 186.221 207.845 186.989 206.586 187.832V187.848C206.703 187.837 206.863 187.832 207.066 187.832C207.279 187.821 207.487 187.816 207.69 187.816C207.903 187.805 208.063 187.8 208.17 187.8H211.866V189H204.762ZM213.856 192.024L213.12 191.288C213.824 190.648 214.384 189.971 214.8 189.256C215.216 188.552 215.515 187.811 215.696 187.032C215.878 186.243 215.968 185.4 215.968 184.504C215.968 183.619 215.878 182.781 215.696 181.992C215.515 181.203 215.216 180.456 214.8 179.752C214.384 179.048 213.824 178.371 213.12 177.72L213.856 176.984C214.987 177.965 215.84 179.091 216.416 180.36C216.992 181.619 217.28 183 217.28 184.504C217.28 186.008 216.992 187.395 216.416 188.664C215.84 189.933 214.987 191.053 213.856 192.024Z" fill="white"/>
<path d="M303.952 182.856C303.888 183.635 303.68 184.227 303.328 184.632C302.987 185.037 302.501 185.24 301.872 185.24C301.509 185.24 301.195 185.181 300.928 185.064C300.661 184.947 300.421 184.808 300.208 184.648C300.005 184.488 299.797 184.349 299.584 184.232C299.381 184.115 299.152 184.056 298.896 184.056C298.619 184.056 298.4 184.163 298.24 184.376C298.08 184.589 297.968 184.877 297.904 185.24H296.688C296.752 184.451 296.955 183.859 297.296 183.464C297.637 183.059 298.133 182.856 298.784 182.856C299.136 182.856 299.445 182.915 299.712 183.032C299.979 183.149 300.219 183.288 300.432 183.448C300.645 183.608 300.853 183.747 301.056 183.864C301.269 183.981 301.499 184.04 301.744 184.04C302.021 184.04 302.24 183.933 302.4 183.72C302.56 183.507 302.672 183.219 302.736 182.856H303.952ZM311.278 189V187.96C312.334 187.181 313.214 186.499 313.918 185.912C314.632 185.325 315.203 184.792 315.63 184.312C316.056 183.832 316.36 183.379 316.542 182.952C316.723 182.515 316.814 182.061 316.814 181.592C316.814 180.963 316.611 180.456 316.206 180.072C315.811 179.677 315.267 179.48 314.574 179.48C313.848 179.48 313.267 179.72 312.83 180.2C312.392 180.669 312.136 181.299 312.062 182.088L310.942 181.416C311.038 180.797 311.235 180.253 311.534 179.784C311.843 179.315 312.254 178.947 312.766 178.68C313.288 178.413 313.907 178.28 314.622 178.28C315.166 178.28 315.651 178.36 316.078 178.52C316.515 178.68 316.888 178.909 317.198 179.208C317.507 179.496 317.742 179.843 317.902 180.248C318.072 180.653 318.158 181.101 318.158 181.592C318.158 182.253 317.998 182.904 317.678 183.544C317.358 184.173 316.83 184.835 316.094 185.528C315.358 186.221 314.36 186.989 313.102 187.832V187.848C313.219 187.837 313.379 187.832 313.582 187.832C313.795 187.821 314.003 187.816 314.206 187.816C314.419 187.805 314.579 187.8 314.686 187.8H318.382V189H311.278ZM324.398 189.16C323.203 189.16 322.249 188.696 321.534 187.768C320.819 186.84 320.462 185.491 320.462 183.72C320.462 181.949 320.819 180.6 321.534 179.672C322.249 178.744 323.203 178.28 324.398 178.28C325.603 178.28 326.558 178.744 327.262 179.672C327.977 180.6 328.334 181.949 328.334 183.72C328.334 185.491 327.977 186.84 327.262 187.768C326.558 188.696 325.603 189.16 324.398 189.16ZM324.398 188.008C324.963 188.008 325.438 187.848 325.822 187.528C326.217 187.197 326.51 186.712 326.702 186.072C326.905 185.432 327.006 184.648 327.006 183.72C327.006 182.792 326.905 182.008 326.702 181.368C326.51 180.728 326.217 180.248 325.822 179.928C325.438 179.597 324.963 179.432 324.398 179.432C323.833 179.432 323.353 179.597 322.958 179.928C322.574 180.248 322.281 180.728 322.078 181.368C321.886 182.008 321.79 182.792 321.79 183.72C321.79 184.648 321.886 185.432 322.078 186.072C322.281 186.712 322.574 187.197 322.958 187.528C323.353 187.848 323.833 188.008 324.398 188.008ZM331.112 187.08C331.368 187.08 331.582 187.149 331.752 187.288C331.934 187.416 332.072 187.597 332.168 187.832C332.264 188.056 332.312 188.323 332.312 188.632C332.312 188.984 332.248 189.331 332.12 189.672C332.003 190.013 331.816 190.328 331.56 190.616C331.304 190.904 330.974 191.144 330.568 191.336L329.896 190.712C330.184 190.616 330.435 190.483 330.648 190.312C330.872 190.141 331.054 189.949 331.192 189.736C331.331 189.523 331.422 189.304 331.464 189.08L331.4 189.048C331.358 189.08 331.304 189.107 331.24 189.128C331.176 189.149 331.08 189.16 330.952 189.16C330.824 189.16 330.691 189.123 330.552 189.048C330.424 188.973 330.312 188.867 330.216 188.728C330.12 188.579 330.072 188.387 330.072 188.152C330.072 187.96 330.12 187.784 330.216 187.624C330.312 187.453 330.435 187.32 330.584 187.224C330.744 187.128 330.92 187.08 331.112 187.08ZM337.82 189.16C336.625 189.16 335.67 188.696 334.956 187.768C334.241 186.84 333.884 185.491 333.884 183.72C333.884 181.949 334.241 180.6 334.956 179.672C335.67 178.744 336.625 178.28 337.82 178.28C339.025 178.28 339.98 178.744 340.684 179.672C341.398 180.6 341.756 181.949 341.756 183.72C341.756 185.491 341.398 186.84 340.684 187.768C339.98 188.696 339.025 189.16 337.82 189.16ZM337.82 188.008C338.385 188.008 338.86 187.848 339.244 187.528C339.638 187.197 339.932 186.712 340.124 186.072C340.326 185.432 340.428 184.648 340.428 183.72C340.428 182.792 340.326 182.008 340.124 181.368C339.932 180.728 339.638 180.248 339.244 179.928C338.86 179.597 338.385 179.432 337.82 179.432C337.254 179.432 336.774 179.597 336.38 179.928C335.996 180.248 335.702 180.728 335.5 181.368C335.308 182.008 335.212 182.792 335.212 183.72C335.212 184.648 335.308 185.432 335.5 186.072C335.702 186.712 335.996 187.197 336.38 187.528C336.774 187.848 337.254 188.008 337.82 188.008ZM347.773 189.16C346.578 189.16 345.624 188.696 344.909 187.768C344.194 186.84 343.837 185.491 343.837 183.72C343.837 181.949 344.194 180.6 344.909 179.672C345.624 178.744 346.578 178.28 347.773 178.28C348.978 178.28 349.933 178.744 350.637 179.672C351.352 180.6 351.709 181.949 351.709 183.72C351.709 185.491 351.352 186.84 350.637 187.768C349.933 188.696 348.978 189.16 347.773 189.16ZM347.773 188.008C348.338 188.008 348.813 187.848 349.197 187.528C349.592 187.197 349.885 186.712 350.077 186.072C350.28 185.432 350.381 184.648 350.381 183.72C350.381 182.792 350.28 182.008 350.077 181.368C349.885 180.728 349.592 180.248 349.197 179.928C348.813 179.597 348.338 179.432 347.773 179.432C347.208 179.432 346.728 179.597 346.333 179.928C345.949 180.248 345.656 180.728 345.453 181.368C345.261 182.008 345.165 182.792 345.165 183.72C345.165 184.648 345.261 185.432 345.453 186.072C345.656 186.712 345.949 187.197 346.333 187.528C346.728 187.848 347.208 188.008 347.773 188.008ZM357.726 189.16C356.531 189.16 355.577 188.696 354.862 187.768C354.147 186.84 353.79 185.491 353.79 183.72C353.79 181.949 354.147 180.6 354.862 179.672C355.577 178.744 356.531 178.28 357.726 178.28C358.931 178.28 359.886 178.744 360.59 179.672C361.305 180.6 361.662 181.949 361.662 183.72C361.662 185.491 361.305 186.84 360.59 187.768C359.886 188.696 358.931 189.16 357.726 189.16ZM357.726 188.008C358.291 188.008 358.766 187.848 359.15 187.528C359.545 187.197 359.838 186.712 360.03 186.072C360.233 185.432 360.334 184.648 360.334 183.72C360.334 182.792 360.233 182.008 360.03 181.368C359.838 180.728 359.545 180.248 359.15 179.928C358.766 179.597 358.291 179.432 357.726 179.432C357.161 179.432 356.681 179.597 356.286 179.928C355.902 180.248 355.609 180.728 355.406 181.368C355.214 182.008 355.118 182.792 355.118 183.72C355.118 184.648 355.214 185.432 355.406 186.072C355.609 186.712 355.902 187.197 356.286 187.528C356.681 187.848 357.161 188.008 357.726 188.008ZM376.871 178.44V179.64H373.191V189H371.911V179.64H368.231V178.44H376.871ZM382.831 178.44C383.546 178.44 384.164 178.573 384.687 178.84C385.22 179.096 385.636 179.464 385.935 179.944C386.234 180.424 386.383 180.995 386.383 181.656C386.383 182.317 386.234 182.888 385.935 183.368C385.636 183.848 385.22 184.221 384.687 184.488C384.164 184.744 383.546 184.872 382.831 184.872H380.383V189H379.103V178.44H382.831ZM382.639 183.672C383.471 183.672 384.079 183.501 384.463 183.16C384.847 182.808 385.039 182.307 385.039 181.656C385.039 180.995 384.847 180.493 384.463 180.152C384.079 179.811 383.471 179.64 382.639 179.64H380.383V183.672H382.639ZM392.261 178.28C393.189 178.28 393.989 178.472 394.661 178.856C395.333 179.229 395.893 179.784 396.341 180.52L395.269 181.352C394.874 180.669 394.426 180.189 393.925 179.912C393.434 179.624 392.837 179.48 392.133 179.48C391.567 179.48 391.098 179.56 390.725 179.72C390.362 179.88 390.095 180.093 389.925 180.36C389.754 180.616 389.669 180.909 389.669 181.24C389.669 181.613 389.786 181.944 390.021 182.232C390.255 182.509 390.725 182.728 391.429 182.888L393.717 183.4C394.73 183.624 395.434 183.965 395.829 184.424C396.234 184.872 396.437 185.432 396.437 186.104C396.437 186.701 396.266 187.235 395.925 187.704C395.594 188.163 395.125 188.52 394.517 188.776C393.909 189.032 393.194 189.16 392.373 189.16C391.605 189.16 390.927 189.059 390.341 188.856C389.765 188.643 389.269 188.36 388.853 188.008C388.437 187.656 388.095 187.261 387.829 186.824L388.949 185.912C389.151 186.317 389.413 186.675 389.733 186.984C390.053 187.293 390.437 187.533 390.885 187.704C391.343 187.875 391.866 187.96 392.453 187.96C392.997 187.96 393.466 187.896 393.861 187.768C394.266 187.629 394.575 187.432 394.789 187.176C395.002 186.909 395.109 186.589 395.109 186.216C395.109 185.875 394.997 185.571 394.773 185.304C394.549 185.027 394.127 184.819 393.509 184.68L391.029 184.12C390.378 183.971 389.85 183.768 389.445 183.512C389.05 183.245 388.762 182.936 388.581 182.584C388.41 182.221 388.325 181.832 388.325 181.416C388.325 180.851 388.479 180.333 388.789 179.864C389.109 179.384 389.562 179 390.149 178.712C390.746 178.424 391.45 178.28 392.261 178.28Z" fill="white"/>
</svg>
