<svg width="1232" height="229" viewBox="0 0 1232 229" fill="none" xmlns="http://www.w3.org/2000/svg">
<mask id="mask0_1567_12822" style="mask-type:alpha" maskUnits="userSpaceOnUse" x="0" y="0" width="1232" height="229">
<rect width="1232" height="229" rx="5" fill="url(#paint0_radial_1567_12822)"/>
<rect x="1" y="1" width="1230" height="227" rx="4" stroke="#8BA1BE" stroke-opacity="0.2" stroke-width="2"/>
</mask>
<g mask="url(#mask0_1567_12822)">
<circle opacity="0.45" cx="520" cy="478" r="520" fill="url(#paint1_radial_1567_12822)"/>
<g opacity="0.7">
<path d="M541.237 155.37L541.46 155.326L541.272 155.279L541.043 155.326L541.237 155.37Z" fill="white"/>
<path d="M561.938 155.37L562.16 155.326L561.963 155.279L561.74 155.326L561.938 155.37Z" fill="white"/>
<path d="M582.628 155.395L582.898 155.339L582.644 155.279L582.371 155.339L582.628 155.395Z" fill="white"/>
<path d="M602.944 155.414L603.264 155.348L602.951 155.279L602.631 155.348L602.944 155.414Z" fill="white"/>
<path d="M623.542 155.414L623.852 155.348L623.529 155.279L623.219 155.348L623.542 155.414Z" fill="white"/>
<path d="M644.29 155.414L644.591 155.348L644.262 155.279L643.961 155.348L644.29 155.414Z" fill="white"/>
<path d="M664.875 155.395L665.116 155.339L664.834 155.279L664.59 155.339L664.875 155.395Z" fill="white"/>
<path d="M685.408 155.37L685.596 155.326L685.367 155.279L685.176 155.326L685.408 155.37Z" fill="white"/>
<path d="M706.096 155.348L706.234 155.314L706.058 155.279L705.92 155.314L706.096 155.348Z" fill="white"/>
<path d="M465.335 159.693L465.527 159.656L465.395 159.621L465.203 159.656L465.335 159.693Z" fill="white"/>
<path d="M486.539 159.737L486.849 159.678L486.62 159.621L486.307 159.678L486.539 159.737Z" fill="white"/>
<path d="M507.667 159.762L508.034 159.69L507.751 159.621L507.385 159.69L507.667 159.762Z" fill="white"/>
<path d="M528.997 159.809L529.476 159.715L529.085 159.621L528.611 159.715L528.997 159.809Z" fill="white"/>
<path d="M550.173 159.853L550.738 159.737L550.248 159.621L549.68 159.737L550.173 159.853Z" fill="white"/>
<path d="M570.983 159.88C571.306 159.88 571.582 159.822 571.599 159.75C571.612 159.682 571.364 159.621 571.041 159.621C570.717 159.621 570.442 159.682 570.425 159.75C570.408 159.822 570.659 159.88 570.983 159.88Z" fill="white"/>
<path d="M592.168 159.907C592.522 159.907 592.822 159.842 592.825 159.764C592.835 159.689 592.549 159.621 592.195 159.621C591.838 159.621 591.545 159.689 591.535 159.764C591.528 159.842 591.811 159.907 592.168 159.907Z" fill="white"/>
<path d="M613.259 159.907C613.613 159.907 613.902 159.842 613.899 159.764C613.895 159.689 613.606 159.621 613.249 159.621C612.895 159.621 612.605 159.689 612.605 159.764C612.612 159.842 612.902 159.907 613.259 159.907Z" fill="white"/>
<path d="M634.499 159.907C634.857 159.907 635.136 159.842 635.122 159.764C635.112 159.689 634.812 159.621 634.455 159.621C634.101 159.621 633.822 159.689 633.832 159.764C633.843 159.842 634.142 159.907 634.499 159.907Z" fill="white"/>
<path d="M656.045 159.88C656.371 159.88 656.616 159.822 656.599 159.75C656.576 159.682 656.3 159.621 655.977 159.621C655.653 159.621 655.402 159.682 655.425 159.75C655.442 159.822 655.721 159.88 656.045 159.88Z" fill="white"/>
<path d="M677.179 159.853L677.658 159.737L677.087 159.621L676.604 159.737L677.179 159.853Z" fill="white"/>
<path d="M698.198 159.809L698.584 159.715L698.101 159.621L697.719 159.715L698.198 159.809Z" fill="white"/>
<path d="M719.203 159.762L719.482 159.69L719.112 159.621L718.83 159.69L719.203 159.762Z" fill="white"/>
<path d="M740.278 159.715L740.457 159.665L740.203 159.621L740.021 159.665L740.278 159.715Z" fill="white"/>
<path d="M761.802 159.693L761.931 159.656L761.739 159.621L761.607 159.656L761.802 159.693Z" fill="white"/>
<path d="M450.429 164.546L450.695 164.499L450.516 164.445L450.25 164.499L450.429 164.546Z" fill="white"/>
<path d="M472.169 164.624L472.623 164.536L472.303 164.445L471.846 164.536L472.169 164.624Z" fill="white"/>
<path d="M493.976 164.69L494.599 164.568L494.132 164.445L493.51 164.568L493.976 164.69Z" fill="white"/>
<path d="M515.745 164.772C516.147 164.772 516.507 164.697 516.558 164.609C516.603 164.517 516.317 164.445 515.919 164.445C515.517 164.445 515.156 164.517 515.109 164.609C515.061 164.697 515.347 164.772 515.745 164.772Z" fill="white"/>
<path d="M537.585 164.823C538.048 164.823 538.466 164.738 538.504 164.636C538.548 164.53 538.204 164.445 537.735 164.445C537.272 164.445 536.857 164.53 536.816 164.636C536.775 164.738 537.119 164.823 537.585 164.823Z" fill="white"/>
<path d="M559.213 164.85C559.713 164.85 560.142 164.758 560.176 164.649C560.206 164.537 559.825 164.445 559.325 164.445C558.828 164.445 558.396 164.537 558.365 164.649C558.331 164.758 558.713 164.85 559.213 164.85Z" fill="white"/>
<path d="M580.948 164.905C581.516 164.905 581.989 164.803 582.01 164.677C582.027 164.551 581.584 164.445 581.02 164.445C580.455 164.445 579.978 164.551 579.958 164.677C579.934 164.803 580.38 164.905 580.948 164.905Z" fill="white"/>
<path d="M602.684 164.905C603.252 164.905 603.711 164.803 603.718 164.677C603.718 164.551 603.265 164.445 602.697 164.445C602.132 164.445 601.669 164.551 601.666 164.677C601.659 164.803 602.115 164.905 602.684 164.905Z" fill="white"/>
<path d="M624.325 164.932C624.927 164.932 625.404 164.826 625.387 164.69C625.373 164.554 624.88 164.445 624.284 164.445C623.685 164.445 623.205 164.554 623.219 164.69C623.229 164.826 623.726 164.932 624.325 164.932Z" fill="white"/>
<path d="M646.369 164.905C646.938 164.905 647.373 164.803 647.346 164.677C647.315 164.551 646.836 164.445 646.267 164.445C645.703 164.445 645.267 164.551 645.294 164.677C645.321 164.803 645.801 164.905 646.369 164.905Z" fill="white"/>
<path d="M668.046 164.877C668.576 164.877 668.978 164.782 668.934 164.663C668.896 164.544 668.43 164.445 667.896 164.445C667.365 164.445 666.967 164.544 667.004 164.663C667.045 164.782 667.511 164.877 668.046 164.877Z" fill="white"/>
<path d="M690.038 164.85C690.538 164.85 690.902 164.758 690.847 164.649C690.796 164.537 690.347 164.445 689.85 164.445C689.35 164.445 688.986 164.537 689.041 164.649C689.092 164.758 689.537 164.85 690.038 164.85Z" fill="white"/>
<path d="M711.636 164.799C712.071 164.799 712.378 164.717 712.316 164.622C712.259 164.524 711.864 164.445 711.432 164.445C711 164.445 710.693 164.524 710.751 164.622C710.809 164.717 711.204 164.799 711.636 164.799Z" fill="white"/>
<path d="M733.564 164.745C733.929 164.745 734.18 164.677 734.123 164.595C734.061 164.51 733.718 164.445 733.354 164.445C732.986 164.445 732.738 164.51 732.795 164.595C732.853 164.677 733.197 164.745 733.564 164.745Z" fill="white"/>
<path d="M755.016 164.69L755.459 164.568L754.815 164.445L754.373 164.568L755.016 164.69Z" fill="white"/>
<path d="M776.967 164.593L777.23 164.52L776.826 164.445L776.562 164.52L776.967 164.593Z" fill="white"/>
<path d="M798.399 164.546L798.565 164.499L798.289 164.445L798.123 164.499L798.399 164.546Z" fill="white"/>
<path d="M390.343 169.833L390.559 169.79L390.44 169.752L390.221 169.79L390.343 169.833Z" fill="white"/>
<path d="M412.546 169.426L412.972 169.345L412.712 169.27L412.289 169.345L412.546 169.426Z" fill="white"/>
<path d="M434.715 169.501L435.32 169.382L434.936 169.27L434.33 169.382L434.715 169.501Z" fill="white"/>
<path d="M457.138 169.613C457.55 169.613 457.941 169.538 458.023 169.44C458.101 169.348 457.836 169.27 457.424 169.27C457.012 169.27 456.614 169.348 456.536 169.44C456.454 169.538 456.727 169.613 457.138 169.613Z" fill="white"/>
<path d="M479.389 169.698C479.903 169.698 480.39 169.603 480.475 169.48C480.556 169.365 480.209 169.27 479.695 169.27C479.182 169.27 478.695 169.365 478.613 169.48C478.525 169.603 478.875 169.698 479.389 169.698Z" fill="white"/>
<path d="M501.726 169.787C502.342 169.787 502.907 169.671 502.992 169.525C503.073 169.385 502.641 169.27 502.029 169.27C501.409 169.27 500.841 169.385 500.756 169.525C500.674 169.671 501.106 169.787 501.726 169.787Z" fill="white"/>
<path d="M524.418 169.841C525.105 169.841 525.718 169.715 525.793 169.555C525.864 169.399 525.367 169.27 524.683 169.27C524.003 169.27 523.387 169.399 523.312 169.555C523.237 169.715 523.734 169.841 524.418 169.841Z" fill="white"/>
<path d="M546.598 169.896C547.357 169.896 548.01 169.756 548.072 169.579C548.129 169.409 547.568 169.27 546.809 169.27C546.06 169.27 545.4 169.409 545.342 169.579C545.281 169.756 545.843 169.896 546.598 169.896Z" fill="white"/>
<path d="M568.947 169.954C569.77 169.954 570.468 169.797 570.509 169.606C570.549 169.419 569.917 169.27 569.093 169.27C568.273 169.27 567.575 169.419 567.531 169.606C567.49 169.797 568.123 169.954 568.947 169.954Z" fill="white"/>
<path d="M591.603 169.984C592.464 169.984 593.171 169.824 593.188 169.623C593.205 169.429 592.525 169.27 591.667 169.27C590.817 169.27 590.106 169.429 590.088 169.623C590.065 169.824 590.745 169.984 591.603 169.984Z" fill="white"/>
<path d="M613.685 169.984C614.542 169.984 615.233 169.824 615.223 169.623C615.216 169.429 614.519 169.27 613.661 169.27C612.807 169.27 612.12 169.429 612.123 169.623C612.126 169.824 612.827 169.984 613.685 169.984Z" fill="white"/>
<path d="M636.404 169.984C637.265 169.984 637.932 169.824 637.901 169.623C637.87 169.429 637.149 169.27 636.295 169.27C635.441 169.27 634.77 169.429 634.798 169.623C634.828 169.824 635.546 169.984 636.404 169.984Z" fill="white"/>
<path d="M658.46 169.954C659.284 169.954 659.906 169.797 659.852 169.606C659.797 169.419 659.086 169.27 658.266 169.27C657.446 169.27 656.82 169.419 656.874 169.606C656.925 169.797 657.633 169.954 658.46 169.954Z" fill="white"/>
<path d="M680.882 169.896C681.641 169.896 682.192 169.756 682.121 169.579C682.053 169.409 681.386 169.27 680.634 169.27C679.882 169.27 679.327 169.409 679.392 169.579C679.463 169.756 680.13 169.896 680.882 169.896Z" fill="white"/>
<path d="M703.461 169.841C704.145 169.841 704.632 169.715 704.55 169.555C704.465 169.399 703.842 169.27 703.162 169.27C702.478 169.27 701.988 169.399 702.069 169.555C702.151 169.715 702.774 169.841 703.461 169.841Z" fill="white"/>
<path d="M725.846 169.756C726.428 169.756 726.826 169.644 726.741 169.508C726.653 169.375 726.108 169.27 725.53 169.27C724.948 169.27 724.543 169.375 724.631 169.508C724.716 169.644 725.261 169.756 725.846 169.756Z" fill="white"/>
<path d="M748.282 169.671C748.761 169.671 749.081 169.583 748.996 169.467C748.911 169.358 748.452 169.27 747.975 169.27C747.495 169.27 747.172 169.358 747.261 169.467C747.346 169.583 747.802 169.671 748.282 169.671Z" fill="white"/>
<path d="M770.649 169.586C771.023 169.586 771.268 169.515 771.19 169.426C771.111 169.341 770.744 169.27 770.366 169.27C769.992 169.27 769.747 169.341 769.825 169.426C769.903 169.515 770.271 169.586 770.649 169.586Z" fill="white"/>
<path d="M792.946 169.501L793.328 169.382L792.715 169.27L792.334 169.382L792.946 169.501Z" fill="white"/>
<path d="M815.355 169.401L815.565 169.332L815.204 169.27L814.994 169.332L815.355 169.401Z" fill="white"/>
<path d="M372.014 175.146L372.243 175.102L372.121 175.059L371.889 175.102L372.014 175.146Z" fill="white"/>
<path d="M395.305 174.742L395.753 174.658L395.493 174.576L395.045 174.658L395.305 174.742Z" fill="white"/>
<path d="M418.099 174.879C418.449 174.879 418.806 174.811 418.891 174.726C418.973 174.644 418.759 174.576 418.405 174.576C418.054 174.576 417.7 174.644 417.615 174.726C417.527 174.811 417.745 174.879 418.099 174.879Z" fill="white"/>
<path d="M441.274 174.974C441.733 174.974 442.183 174.886 442.281 174.774C442.38 174.668 442.084 174.576 441.625 174.576C441.169 174.576 440.719 174.668 440.621 174.774C440.522 174.886 440.815 174.974 441.274 174.974Z" fill="white"/>
<path d="M464.177 175.09C464.779 175.09 465.351 174.974 465.46 174.831C465.569 174.692 465.171 174.576 464.575 174.576C463.976 174.576 463.401 174.692 463.292 174.831C463.18 174.974 463.578 175.09 464.177 175.09Z" fill="white"/>
<path d="M486.976 175.216C487.718 175.216 488.409 175.073 488.525 174.896C488.637 174.723 488.126 174.576 487.388 174.576C486.65 174.576 485.955 174.723 485.84 174.896C485.727 175.073 486.235 175.216 486.976 175.216Z" fill="white"/>
<path d="M510.24 175.332C511.125 175.332 511.928 175.158 512.037 174.95C512.142 174.74 511.52 174.576 510.638 174.576C509.76 174.576 508.957 174.74 508.845 174.95C508.733 175.158 509.359 175.332 510.24 175.332Z" fill="white"/>
<path d="M533.131 175.427C534.121 175.427 534.995 175.233 535.087 174.998C535.179 174.767 534.458 174.576 533.471 174.576C532.487 174.576 531.61 174.767 531.514 174.998C531.419 175.233 532.144 175.427 533.131 175.427Z" fill="white"/>
<path d="M556.36 175.519C557.452 175.519 558.395 175.308 558.466 175.046C558.534 174.787 557.707 174.576 556.618 174.576C555.526 174.576 554.583 174.787 554.509 175.046C554.434 175.308 555.261 175.519 556.36 175.519Z" fill="white"/>
<path d="M579.516 175.546C580.645 175.546 581.595 175.332 581.632 175.059C581.673 174.794 580.788 174.576 579.665 174.576C578.539 174.576 577.59 174.794 577.549 175.059C577.501 175.332 578.386 175.546 579.516 175.546Z" fill="white"/>
<path d="M602.373 175.604C603.577 175.604 604.557 175.372 604.561 175.087C604.568 174.804 603.601 174.576 602.407 174.576C601.212 174.576 600.232 174.804 600.219 175.087C600.209 175.372 601.172 175.604 602.373 175.604Z" fill="white"/>
<path d="M625.438 175.604C626.642 175.604 627.595 175.372 627.561 175.087C627.534 174.804 626.54 174.576 625.346 174.576C624.148 174.576 623.199 174.804 623.219 175.087C623.246 175.372 624.236 175.604 625.438 175.604Z" fill="white"/>
<path d="M648.476 175.58C649.639 175.58 650.538 175.355 650.473 175.076C650.409 174.801 649.418 174.576 648.258 174.576C647.098 174.576 646.203 174.801 646.26 175.076C646.318 175.355 647.309 175.58 648.476 175.58Z" fill="white"/>
<path d="M671.632 175.546C672.762 175.546 673.602 175.332 673.51 175.059C673.415 174.794 672.428 174.576 671.302 174.576C670.179 174.576 669.335 174.794 669.42 175.059C669.508 175.332 670.502 175.546 671.632 175.546Z" fill="white"/>
<path d="M694.553 175.485C695.611 175.485 696.377 175.281 696.254 175.029C696.138 174.78 695.186 174.576 694.131 174.576C693.076 174.576 692.314 174.78 692.422 175.029C692.538 175.281 693.491 175.485 694.553 175.485Z" fill="white"/>
<path d="M717.92 175.393C718.873 175.393 719.537 175.206 719.401 174.981C719.268 174.76 718.39 174.576 717.441 174.576C716.491 174.576 715.824 174.76 715.954 174.981C716.086 175.206 716.964 175.393 717.92 175.393Z" fill="white"/>
<path d="M740.868 175.304C741.718 175.304 742.287 175.144 742.144 174.94C741.997 174.74 741.198 174.576 740.354 174.576C739.506 174.576 738.938 174.74 739.078 174.94C739.221 175.144 740.02 175.304 740.868 175.304Z" fill="white"/>
<path d="M763.645 175.185C764.349 175.185 764.808 175.049 764.669 174.879C764.529 174.712 763.842 174.576 763.138 174.576C762.437 174.576 761.977 174.712 762.117 174.879C762.256 175.049 762.94 175.185 763.645 175.185Z" fill="white"/>
<path d="M786.862 175.059C787.427 175.059 787.778 174.951 787.648 174.814C787.519 174.682 786.958 174.576 786.396 174.576C785.831 174.576 785.477 174.682 785.607 174.814C785.733 174.951 786.298 175.059 786.862 175.059Z" fill="white"/>
<path d="M809.805 174.974C810.264 174.974 810.54 174.886 810.421 174.774C810.302 174.668 809.839 174.576 809.38 174.576C808.924 174.576 808.645 174.668 808.764 174.774C808.88 174.886 809.346 174.974 809.805 174.974Z" fill="white"/>
<path d="M833.014 174.848C833.334 174.848 833.514 174.784 833.426 174.709C833.334 174.634 833.004 174.576 832.684 174.576C832.367 174.576 832.184 174.634 832.276 174.709C832.364 174.784 832.698 174.848 833.014 174.848Z" fill="white"/>
<path d="M855.646 174.717L855.847 174.648L855.458 174.576L855.258 174.648L855.646 174.717Z" fill="white"/>
<path d="M878.649 175.146L878.768 175.102L878.53 175.059L878.414 175.102L878.649 175.146Z" fill="white"/>
<path d="M329.231 180.456L329.479 180.406L329.363 180.365L329.115 180.406L329.231 180.456Z" fill="white"/>
<path d="M352.985 180.544L353.467 180.45L353.22 180.365L352.74 180.45L352.985 180.544Z" fill="white"/>
<path d="M376.722 180.692C377.086 180.692 377.467 180.617 377.576 180.525C377.682 180.44 377.471 180.365 377.11 180.365C376.746 180.365 376.368 180.44 376.259 180.525C376.15 180.617 376.361 180.692 376.722 180.692Z" fill="white"/>
<path d="M400.466 180.814C400.977 180.814 401.497 180.712 401.63 180.586C401.766 180.467 401.46 180.365 400.956 180.365C400.446 180.365 399.925 180.467 399.789 180.586C399.656 180.712 399.959 180.814 400.466 180.814Z" fill="white"/>
<path d="M424.372 180.978C425.063 180.978 425.754 180.842 425.917 180.668C426.077 180.501 425.645 180.365 424.958 180.365C424.27 180.365 423.58 180.501 423.42 180.668C423.256 180.842 423.682 180.978 424.372 180.978Z" fill="white"/>
<path d="M447.628 181.104C448.461 181.104 449.278 180.937 449.448 180.729C449.618 180.532 449.077 180.365 448.244 180.365C447.41 180.365 446.593 180.532 446.423 180.729C446.25 180.937 446.787 181.104 447.628 181.104Z" fill="white"/>
<path d="M471.464 180.788C472.484 180.788 473.451 180.584 473.628 180.332C473.798 180.087 473.117 179.883 472.103 179.883C471.089 179.883 470.119 180.087 469.946 180.332C469.762 180.584 470.446 180.788 471.464 180.788Z" fill="white"/>
<path d="M495.336 180.914C496.503 180.914 497.578 180.679 497.742 180.393C497.908 180.111 497.098 179.883 495.938 179.883C494.781 179.883 493.706 180.111 493.532 180.393C493.362 180.679 494.172 180.914 495.336 180.914Z" fill="white"/>
<path d="M519.149 181.04C520.459 181.04 521.637 180.781 521.783 180.458C521.929 180.141 520.987 179.883 519.687 179.883C518.38 179.883 517.203 180.141 517.05 180.458C516.896 180.781 517.836 181.04 519.149 181.04Z" fill="white"/>
<path d="M542.922 181.138C544.344 181.138 545.586 180.856 545.702 180.506C545.814 180.165 544.763 179.883 543.347 179.883C541.935 179.883 540.693 180.165 540.571 180.506C540.445 180.856 541.503 181.138 542.922 181.138Z" fill="white"/>
<path d="M566.77 181.234C568.302 181.234 569.605 180.931 569.683 180.553C569.758 180.186 568.584 179.883 567.063 179.883C565.545 179.883 564.242 180.186 564.157 180.553C564.069 180.931 565.239 181.234 566.77 181.234Z" fill="white"/>
<path d="M590.44 181.268C592.009 181.268 593.305 180.958 593.332 180.57C593.363 180.192 592.128 179.883 590.569 179.883C589.014 179.883 587.718 180.192 587.677 180.57C587.636 180.958 588.875 181.268 590.44 181.268Z" fill="white"/>
<path d="M614.074 181.298C615.677 181.298 616.963 180.975 616.943 180.584C616.926 180.199 615.623 179.883 614.03 179.883C612.438 179.883 611.151 180.199 611.158 180.584C611.165 180.975 612.472 181.298 614.074 181.298Z" fill="white"/>
<path d="M638.218 181.268C639.783 181.268 640.998 180.958 640.933 180.57C640.868 180.192 639.558 179.883 638.003 179.883C636.448 179.883 635.227 180.192 635.281 180.57C635.332 180.958 636.649 181.268 638.218 181.268Z" fill="white"/>
<path d="M661.685 181.203C663.179 181.203 664.305 180.904 664.2 180.536C664.094 180.179 662.801 179.883 661.318 179.883C659.834 179.883 658.711 180.179 658.806 180.536C658.902 180.904 660.191 181.203 661.685 181.203Z" fill="white"/>
<path d="M685.593 181.138C687.015 181.138 688.049 180.856 687.907 180.506C687.764 180.165 686.505 179.883 685.092 179.883C683.68 179.883 682.642 180.165 682.775 180.506C682.911 180.856 684.174 181.138 685.593 181.138Z" fill="white"/>
<path d="M709.575 181.04C710.888 181.04 711.81 180.781 711.64 180.458C711.467 180.141 710.272 179.883 708.969 179.883C707.666 179.883 706.74 180.141 706.903 180.458C707.067 180.781 708.265 181.04 709.575 181.04Z" fill="white"/>
<path d="M733.244 180.88C734.371 180.88 735.14 180.655 734.959 180.376C734.776 180.104 733.721 179.883 732.598 179.883C731.475 179.883 730.706 180.104 730.883 180.376C731.06 180.655 732.115 180.88 733.244 180.88Z" fill="white"/>
<path d="M756.515 180.75C757.495 180.75 758.142 180.557 757.954 180.312C757.767 180.077 756.825 179.883 755.845 179.883C754.865 179.883 754.218 180.077 754.405 180.312C754.586 180.557 755.532 180.75 756.515 180.75Z" fill="white"/>
<path d="M780.29 181.073C781.09 181.073 781.593 180.913 781.42 180.716C781.243 180.525 780.453 180.365 779.657 180.365C778.857 180.365 778.35 180.525 778.527 180.716C778.698 180.913 779.49 181.073 780.29 181.073Z" fill="white"/>
<path d="M803.98 180.944C804.634 180.944 805.032 180.814 804.869 180.651C804.705 180.491 804.042 180.365 803.392 180.365C802.738 180.365 802.34 180.491 802.5 180.651C802.663 180.814 803.327 180.944 803.98 180.944Z" fill="white"/>
<path d="M827.589 180.784C828.061 180.784 828.337 180.688 828.204 180.569C828.072 180.457 827.585 180.365 827.112 180.365C826.639 180.365 826.363 180.457 826.496 180.569C826.629 180.688 827.116 180.784 827.589 180.784Z" fill="white"/>
<path d="M851.388 180.654C851.715 180.654 851.898 180.593 851.796 180.508C851.694 180.433 851.347 180.365 851.021 180.365C850.694 180.365 850.51 180.433 850.612 180.508C850.714 180.593 851.061 180.654 851.388 180.654Z" fill="white"/>
<path d="M874.959 180.513L875.16 180.434L874.752 180.365L874.555 180.434L874.959 180.513Z" fill="white"/>
<path d="M333.178 186.675L333.598 186.599L333.395 186.521L332.975 186.599L333.178 186.675Z" fill="white"/>
<path d="M357.525 186.831C357.862 186.831 358.223 186.759 358.328 186.678C358.437 186.592 358.25 186.521 357.917 186.521C357.58 186.521 357.219 186.592 357.11 186.678C357.005 186.759 357.185 186.831 357.525 186.831Z" fill="white"/>
<path d="M381.768 186.515C382.292 186.515 382.843 186.41 382.993 186.277C383.143 186.144 382.84 186.039 382.316 186.039C381.792 186.039 381.248 186.144 381.094 186.277C380.941 186.41 381.244 186.515 381.768 186.515Z" fill="white"/>
<path d="M406.061 186.692C406.772 186.692 407.501 186.546 407.684 186.365C407.861 186.185 407.433 186.039 406.725 186.039C406.014 186.039 405.292 186.185 405.105 186.365C404.921 186.546 405.35 186.692 406.061 186.692Z" fill="white"/>
<path d="M430.526 186.896C431.461 186.896 432.394 186.702 432.601 186.467C432.812 186.233 432.224 186.039 431.291 186.039C430.355 186.039 429.426 186.233 429.212 186.467C428.998 186.702 429.586 186.896 430.526 186.896Z" fill="white"/>
<path d="M454.821 187.063C455.947 187.063 457.036 186.831 457.25 186.549C457.468 186.267 456.733 186.039 455.617 186.039C454.491 186.039 453.405 186.267 453.184 186.549C452.963 186.831 453.694 187.063 454.821 187.063Z" fill="white"/>
<path d="M479.228 187.274C480.579 187.274 481.851 186.998 482.069 186.654C482.287 186.311 481.368 186.039 480.024 186.039C478.683 186.039 477.411 186.311 477.186 186.654C476.962 186.998 477.877 187.274 479.228 187.274Z" fill="white"/>
<path d="M504.146 186.958C505.688 186.958 507.1 186.645 507.297 186.257C507.498 185.873 506.413 185.556 504.885 185.556C503.354 185.556 501.948 185.873 501.737 186.257C501.526 186.645 502.608 186.958 504.146 186.958Z" fill="white"/>
<path d="M528.476 187.101C530.168 187.101 531.672 186.751 531.835 186.325C531.998 185.903 530.77 185.556 529.092 185.556C527.415 185.556 525.911 185.903 525.734 186.325C525.557 186.751 526.785 187.101 528.476 187.101Z" fill="white"/>
<path d="M552.775 187.23C554.62 187.23 556.212 186.853 556.335 186.39C556.454 185.927 555.069 185.556 553.245 185.556C551.414 185.556 549.825 185.927 549.689 186.39C549.553 186.853 550.934 187.23 552.775 187.23Z" fill="white"/>
<path d="M577.561 187.336C579.517 187.336 581.154 186.934 581.222 186.441C581.29 185.947 579.772 185.556 577.833 185.556C575.893 185.556 574.256 185.947 574.171 186.441C574.086 186.934 575.604 187.336 577.561 187.336Z" fill="white"/>
<path d="M601.923 187.401C603.955 187.401 605.609 186.985 605.616 186.475C605.622 185.968 603.996 185.556 601.981 185.556C599.97 185.556 598.316 185.968 598.289 186.475C598.269 186.985 599.892 187.401 601.923 187.401Z" fill="white"/>
<path d="M626.487 187.401C628.515 187.401 630.121 186.985 630.06 186.475C630.005 185.968 628.328 185.556 626.317 185.556C624.302 185.556 622.703 185.968 622.737 186.475C622.778 186.985 624.455 187.401 626.487 187.401Z" fill="white"/>
<path d="M651.089 187.401C653.121 187.401 654.672 186.985 654.55 186.475C654.431 185.968 652.702 185.556 650.691 185.556C648.677 185.556 647.128 185.968 647.227 186.475C647.329 186.985 649.058 187.401 651.089 187.401Z" fill="white"/>
<path d="M675.666 187.336C677.623 187.336 679.065 186.934 678.888 186.441C678.715 185.947 677 185.556 675.06 185.556C673.124 185.556 671.681 185.947 671.838 186.441C671.994 186.934 673.709 187.336 675.666 187.336Z" fill="white"/>
<path d="M700.487 187.23C702.332 187.23 703.642 186.853 703.421 186.39C703.199 185.927 701.539 185.556 699.711 185.556C697.884 185.556 696.571 185.927 696.775 186.39C696.982 186.853 698.646 187.23 700.487 187.23Z" fill="white"/>
<path d="M724.7 187.064C726.354 187.064 727.491 186.723 727.239 186.308C726.99 185.893 725.459 185.556 723.816 185.556C722.175 185.556 721.035 185.893 721.274 186.308C721.512 186.723 723.046 187.064 724.7 187.064Z" fill="white"/>
<path d="M749.521 186.921C751.025 186.921 752.022 186.614 751.746 186.237C751.474 185.859 750.045 185.556 748.551 185.556C747.06 185.556 746.063 185.859 746.322 186.237C746.587 186.614 748.02 186.921 749.521 186.921Z" fill="white"/>
<path d="M773.616 187.202C774.892 187.202 775.708 186.944 775.436 186.62C775.164 186.297 773.915 186.039 772.646 186.039C771.377 186.039 770.56 186.297 770.825 186.62C771.087 186.944 772.336 187.202 773.616 187.202Z" fill="white"/>
<path d="M798.21 187.029C799.295 187.029 799.966 186.804 799.7 186.532C799.435 186.26 798.343 186.039 797.26 186.039C796.175 186.039 795.508 186.26 795.767 186.532C796.029 186.804 797.121 187.029 798.21 187.029Z" fill="white"/>
<path d="M822.718 186.825C823.579 186.825 824.089 186.648 823.851 186.433C823.613 186.216 822.725 186.039 821.867 186.039C821.01 186.039 820.496 186.216 820.731 186.433C820.962 186.648 821.854 186.825 822.718 186.825Z" fill="white"/>
<path d="M846.922 186.658C847.599 186.658 847.977 186.518 847.773 186.348C847.565 186.178 846.854 186.039 846.183 186.039C845.506 186.039 845.129 186.178 845.333 186.348C845.533 186.518 846.248 186.658 846.922 186.658Z" fill="white"/>
<path d="M871.439 186.481C871.925 186.481 872.187 186.382 872.024 186.26C871.857 186.137 871.333 186.039 870.847 186.039C870.36 186.039 870.098 186.137 870.261 186.26C870.425 186.382 870.952 186.481 871.439 186.481Z" fill="white"/>
<path d="M895.918 186.793L896.261 186.657L895.519 186.521L895.176 186.657L895.918 186.793Z" fill="white"/>
<path d="M920.092 186.649L920.242 186.584L919.895 186.521L919.744 186.584L920.092 186.649Z" fill="white"/>
<path d="M286.107 192.927L286.471 192.855L286.321 192.792L285.957 192.855L286.107 192.927Z" fill="white"/>
<path d="M311.282 193.082C311.591 193.082 311.938 193.02 312.057 192.935C312.17 192.857 312.013 192.792 311.704 192.792C311.394 192.792 311.05 192.857 310.934 192.935C310.815 193.02 310.972 193.082 311.282 193.082Z" fill="white"/>
<path d="M336.517 193.262C337.018 193.262 337.566 193.157 337.739 193.024C337.916 192.895 337.647 192.792 337.144 192.792C336.643 192.792 336.099 192.895 335.922 193.024C335.745 193.157 336.01 193.262 336.517 193.262Z" fill="white"/>
<path d="M361.868 192.97C362.562 192.97 363.307 192.82 363.522 192.637C363.739 192.456 363.348 192.31 362.657 192.31C361.96 192.31 361.221 192.456 361 192.637C360.782 192.82 361.17 192.97 361.868 192.97Z" fill="white"/>
<path d="M387.153 193.181C388.082 193.181 389.049 192.987 389.307 192.742C389.566 192.504 389.025 192.31 388.099 192.31C387.174 192.31 386.211 192.504 385.945 192.742C385.683 192.987 386.221 193.181 387.153 193.181Z" fill="white"/>
<path d="M412.066 193.44C413.267 193.44 414.479 193.188 414.775 192.871C415.071 192.562 414.343 192.31 413.148 192.31C411.954 192.31 410.743 192.562 410.44 192.871C410.137 193.188 410.865 193.44 412.066 193.44Z" fill="white"/>
<path d="M437.386 193.654C438.818 193.654 440.231 193.351 440.537 192.977C440.843 192.61 439.931 192.31 438.509 192.31C437.083 192.31 435.674 192.61 435.358 192.977C435.041 193.351 435.95 193.654 437.386 193.654Z" fill="white"/>
<path d="M462.401 193.396C464.072 193.396 465.668 193.039 465.97 192.603C466.27 192.175 465.171 191.828 463.517 191.828C461.86 191.828 460.264 192.175 459.951 192.603C459.634 193.039 460.733 193.396 462.401 193.396Z" fill="white"/>
<path d="M487.864 193.648C489.803 193.648 491.614 193.236 491.9 192.729C492.189 192.233 490.858 191.828 488.936 191.828C487.01 191.828 485.206 192.233 484.903 192.729C484.597 193.236 485.921 193.648 487.864 193.648Z" fill="white"/>
<path d="M513.21 193.835C515.347 193.835 517.28 193.383 517.525 192.825C517.77 192.277 516.256 191.828 514.139 191.828C512.026 191.828 510.093 192.277 509.828 192.825C509.559 193.383 511.073 193.835 513.21 193.835Z" fill="white"/>
<path d="M538.727 194.012C541.058 194.012 543.106 193.519 543.297 192.91C543.487 192.311 541.772 191.828 539.469 191.828C537.161 191.828 535.12 192.311 534.902 192.91C534.681 193.519 536.396 194.012 538.727 194.012Z" fill="white"/>
<path d="M563.978 194.125C566.424 194.125 568.51 193.607 568.636 192.968C568.759 192.338 566.897 191.828 564.474 191.828C562.055 191.828 559.969 192.338 559.819 192.968C559.666 193.607 561.531 194.125 563.978 194.125Z" fill="white"/>
<path d="M589.224 194.203C591.749 194.203 593.835 193.662 593.882 193.005C593.927 192.355 591.943 191.828 589.442 191.828C586.944 191.828 584.862 192.355 584.783 193.005C584.708 193.662 586.696 194.203 589.224 194.203Z" fill="white"/>
<path d="M614.369 194.233C616.935 194.233 618.987 193.686 618.95 193.019C618.916 192.358 616.833 191.828 614.295 191.828C611.759 191.828 609.704 192.358 609.711 193.019C609.718 193.686 611.804 194.233 614.369 194.233Z" fill="white"/>
<path d="M640.016 194.203C642.537 194.203 644.494 193.662 644.378 193.005C644.266 192.355 642.149 191.828 639.648 191.828C637.15 191.828 635.194 192.355 635.282 193.005C635.367 193.662 637.487 194.203 640.016 194.203Z" fill="white"/>
<path d="M665.473 194.125C667.92 194.125 669.751 193.607 669.56 192.968C669.37 192.338 667.257 191.828 664.837 191.828C662.414 191.828 660.58 192.338 660.74 192.968C660.904 193.607 663.023 194.125 665.473 194.125Z" fill="white"/>
<path d="M690.724 193.975C693.018 193.975 694.675 193.492 694.42 192.893C694.175 192.301 692.13 191.828 689.863 191.828C687.594 191.828 685.936 192.301 686.161 192.893C686.389 193.492 688.434 193.975 690.724 193.975Z" fill="white"/>
<path d="M716.037 193.794C718.136 193.794 719.596 193.349 719.297 192.804C719.004 192.263 717.081 191.828 715.006 191.828C712.93 191.828 711.467 192.263 711.742 192.804C712.015 193.349 713.941 193.794 716.037 193.794Z" fill="white"/>
<path d="M741.102 193.58C742.964 193.58 744.216 193.185 743.893 192.699C743.573 192.222 741.817 191.828 739.969 191.828C738.121 191.828 736.869 192.222 737.172 192.699C737.478 193.185 739.238 193.58 741.102 193.58Z" fill="white"/>
<path d="M766.647 193.359C768.273 193.359 769.325 193.012 768.991 192.586C768.661 192.164 767.082 191.828 765.466 191.828C763.85 191.828 762.791 192.164 763.115 192.586C763.435 193.012 765.017 193.359 766.647 193.359Z" fill="white"/>
<path d="M791.648 193.617C793.043 193.617 793.907 193.327 793.581 192.96C793.25 192.603 791.862 192.31 790.474 192.31C789.089 192.31 788.221 192.603 788.541 192.96C788.861 193.327 790.253 193.617 791.648 193.617Z" fill="white"/>
<path d="M817.149 193.365C818.272 193.365 818.943 193.127 818.64 192.834C818.34 192.545 817.19 192.31 816.074 192.31C814.958 192.31 814.288 192.545 814.58 192.834C814.876 193.127 816.027 193.365 817.149 193.365Z" fill="white"/>
<path d="M842.132 193.147C843.02 193.147 843.527 192.96 843.262 192.725C842.993 192.497 842.061 192.31 841.173 192.31C840.288 192.31 839.777 192.497 840.039 192.725C840.301 192.96 841.241 193.147 842.132 193.147Z" fill="white"/>
<path d="M867.035 192.929C867.692 192.929 868.049 192.79 867.831 192.616C867.613 192.446 866.909 192.31 866.252 192.31C865.592 192.31 865.235 192.446 865.453 192.616C865.667 192.79 866.375 192.929 867.035 192.929Z" fill="white"/>
<path d="M892.524 193.231C892.991 193.231 893.225 193.126 893.059 193.007C892.888 192.888 892.378 192.792 891.915 192.792C891.452 192.792 891.214 192.888 891.378 193.007C891.548 193.126 892.058 193.231 892.524 193.231Z" fill="white"/>
<path d="M917.48 193.028L917.752 192.908L917.122 192.792L916.85 192.908L917.48 193.028Z" fill="white"/>
<path d="M942.579 192.896L942.688 192.839L942.416 192.792L942.303 192.839L942.579 192.896Z" fill="white"/>
<path d="M288.6 199.726L289.161 199.619L288.923 199.513L288.365 199.619L288.6 199.726Z" fill="white"/>
<path d="M314.343 199.941C314.782 199.941 315.272 199.846 315.432 199.727C315.592 199.611 315.374 199.513 314.935 199.513C314.5 199.513 314.006 199.611 313.843 199.727C313.679 199.846 313.901 199.941 314.343 199.941Z" fill="white"/>
<path d="M340.548 200.139C341.188 200.139 341.882 199.999 342.1 199.826C342.318 199.652 341.974 199.513 341.334 199.513C340.698 199.513 340.004 199.652 339.783 199.826C339.565 199.999 339.905 200.139 340.548 200.139Z" fill="white"/>
<path d="M366.364 199.929C367.283 199.929 368.259 199.724 368.542 199.479C368.821 199.231 368.304 199.03 367.388 199.03C366.473 199.03 365.496 199.231 365.214 199.479C364.928 199.724 365.442 199.929 366.364 199.929Z" fill="white"/>
<path d="M392.3 200.16C393.46 200.16 394.662 199.908 394.975 199.595C395.288 199.282 394.607 199.03 393.454 199.03C392.297 199.03 391.102 199.282 390.782 199.595C390.462 199.908 391.14 200.16 392.3 200.16Z" fill="white"/>
<path d="M418.739 200.47C420.223 200.47 421.71 200.143 422.064 199.748C422.411 199.354 421.499 199.03 420.029 199.03C418.555 199.03 417.072 199.354 416.711 199.748C416.347 200.143 417.256 200.47 418.739 200.47Z" fill="white"/>
<path d="M444.639 200.259C446.405 200.259 448.126 199.875 448.484 199.402C448.841 198.932 447.708 198.548 445.959 198.548C444.21 198.548 442.491 198.932 442.12 199.402C441.746 199.875 442.876 200.259 444.639 200.259Z" fill="white"/>
<path d="M470.716 200.535C472.765 200.535 474.701 200.086 475.051 199.538C475.392 198.994 474.031 198.548 472.006 198.548C469.974 198.548 468.035 198.994 467.674 199.538C467.31 200.086 468.671 200.535 470.716 200.535Z" fill="white"/>
<path d="M496.67 200.804C498.998 200.804 501.142 200.297 501.458 199.671C501.771 199.048 500.158 198.548 497.855 198.548C495.551 198.548 493.41 199.048 493.074 199.671C492.73 200.297 494.339 200.804 496.67 200.804Z" fill="white"/>
<path d="M523.183 201.08C525.793 201.08 528.127 200.504 528.393 199.807C528.658 199.109 526.777 198.548 524.197 198.548C521.618 198.548 519.29 199.109 518.994 199.807C518.695 200.504 520.57 201.08 523.183 201.08Z" fill="white"/>
<path d="M549.138 200.859C551.989 200.859 554.463 200.236 554.657 199.47C554.848 198.712 552.721 198.099 549.907 198.099C547.082 198.099 544.615 198.712 544.391 199.47C544.156 200.236 546.283 200.859 549.138 200.859Z" fill="white"/>
<path d="M575.63 201.019C578.644 201.019 581.176 200.359 581.278 199.549C581.38 198.746 579.053 198.099 576.079 198.099C573.105 198.099 570.576 198.746 570.43 199.549C570.287 200.359 572.611 201.019 575.63 201.019Z" fill="white"/>
<path d="M601.469 201.134C604.609 201.134 607.155 200.447 607.158 199.607C607.161 198.769 604.657 198.099 601.564 198.099C598.471 198.099 595.922 198.769 595.878 199.607C595.827 200.447 598.331 201.134 601.469 201.134Z" fill="white"/>
<path d="M628.036 201.134C631.174 201.134 633.634 200.447 633.535 199.607C633.433 198.769 630.85 198.099 627.757 198.099C624.664 198.099 622.2 198.769 622.255 199.607C622.306 200.447 624.899 201.134 628.036 201.134Z" fill="white"/>
<path d="M654.088 201.097C657.185 201.097 659.529 200.416 659.332 199.586C659.131 198.763 656.494 198.099 653.442 198.099C650.386 198.099 648.041 198.763 648.195 199.586C648.351 200.416 650.992 201.097 654.088 201.097Z" fill="white"/>
<path d="M680.582 200.978C683.556 200.978 685.734 200.328 685.441 199.528C685.156 198.739 682.542 198.099 679.606 198.099C676.672 198.099 674.495 198.739 674.74 199.528C674.991 200.328 677.608 200.978 680.582 200.978Z" fill="white"/>
<path d="M706.824 200.825C709.639 200.825 711.619 200.209 711.251 199.453C710.887 198.705 708.342 198.099 705.565 198.099C702.789 198.099 700.801 198.705 701.132 199.453C701.458 200.209 704.01 200.825 706.824 200.825Z" fill="white"/>
<path d="M732.893 201.039C735.462 201.039 737.204 200.474 736.785 199.786C736.37 199.103 733.971 198.548 731.433 198.548C728.891 198.548 727.142 199.103 727.533 199.786C727.921 200.474 730.32 201.039 732.893 201.039Z" fill="white"/>
<path d="M758.87 200.763C761.16 200.763 762.651 200.263 762.205 199.65C761.759 199.041 759.564 198.548 757.298 198.548C755.032 198.548 753.538 199.041 753.96 199.65C754.382 200.263 756.587 200.763 758.87 200.763Z" fill="white"/>
<path d="M784.936 200.494C786.944 200.494 788.196 200.055 787.74 199.518C787.284 198.983 785.304 198.548 783.316 198.548C781.333 198.548 780.07 198.983 780.509 199.518C780.948 200.055 782.932 200.494 784.936 200.494Z" fill="white"/>
<path d="M811.298 200.219C813.023 200.219 814.054 199.844 813.605 199.382C813.156 198.919 811.411 198.548 809.699 198.548C807.991 198.548 806.953 198.919 807.388 199.382C807.821 199.844 809.576 200.219 811.298 200.219Z" fill="white"/>
<path d="M837.069 200.388C838.471 200.388 839.274 200.085 838.862 199.707C838.454 199.333 836.994 199.03 835.599 199.03C834.207 199.03 833.401 199.333 833.802 199.707C834.204 200.085 835.667 200.388 837.069 200.388Z" fill="white"/>
<path d="M862.867 200.119C863.986 200.119 864.595 199.874 864.234 199.575C863.867 199.275 862.669 199.03 861.553 199.03C860.44 199.03 859.824 199.275 860.185 199.575C860.542 199.874 861.747 200.119 862.867 200.119Z" fill="white"/>
<path d="M889.242 199.844C890.083 199.844 890.518 199.667 890.219 199.439C889.916 199.214 888.994 199.03 888.157 199.03C887.32 199.03 886.881 199.214 887.18 199.439C887.476 199.667 888.398 199.844 889.242 199.844Z" fill="white"/>
<path d="M915.059 200.098C915.661 200.098 915.957 199.965 915.722 199.805C915.488 199.645 914.814 199.513 914.215 199.513C913.616 199.513 913.32 199.645 913.551 199.805C913.783 199.965 914.46 200.098 915.059 200.098Z" fill="white"/>
<path d="M940.981 199.901C941.383 199.901 941.566 199.812 941.396 199.707C941.23 199.601 940.767 199.513 940.369 199.513C939.971 199.513 939.783 199.601 939.954 199.707C940.12 199.812 940.583 199.901 940.981 199.901Z" fill="white"/>
<path d="M966.75 199.694L966.935 199.604L966.446 199.513L966.268 199.604L966.75 199.694Z" fill="white"/>
<path d="M237.052 206.899L237.457 206.824L237.313 206.749L236.908 206.824L237.052 206.899Z" fill="white"/>
<path d="M264.168 207.086C264.498 207.086 264.883 207.008 265.029 206.916C265.172 206.827 265.023 206.749 264.692 206.749C264.362 206.749 263.978 206.827 263.835 206.916C263.685 207.008 263.838 207.086 264.168 207.086Z" fill="white"/>
<path d="M291.002 207.334C291.581 207.334 292.238 207.205 292.472 207.042C292.707 206.882 292.425 206.749 291.846 206.749C291.268 206.749 290.614 206.882 290.38 207.042C290.141 207.205 290.424 207.334 291.002 207.334Z" fill="white"/>
<path d="M317.726 207.097C318.553 207.097 319.472 206.913 319.778 206.682C320.077 206.454 319.655 206.267 318.832 206.267C318.005 206.267 317.09 206.454 316.783 206.682C316.477 206.913 316.899 207.097 317.726 207.097Z" fill="white"/>
<path d="M344.547 207.39C345.663 207.39 346.871 207.138 347.246 206.825C347.617 206.515 347.011 206.267 345.898 206.267C344.785 206.267 343.581 206.515 343.207 206.825C342.829 207.138 343.431 207.39 344.547 207.39Z" fill="white"/>
<path d="M371.424 207.723C372.874 207.723 374.398 207.393 374.83 206.991C375.259 206.59 374.436 206.267 372.996 206.267C371.553 206.267 370.032 206.59 369.597 206.991C369.154 207.393 369.971 207.723 371.424 207.723Z" fill="white"/>
<path d="M398.481 207.577C400.268 207.577 402.092 207.173 402.558 206.676C403.024 206.182 401.966 205.784 400.197 205.784C398.427 205.784 396.607 206.182 396.127 206.676C395.644 207.173 396.702 207.577 398.481 207.577Z" fill="white"/>
<path d="M425.45 207.908C427.566 207.908 429.676 207.428 430.156 206.839C430.629 206.254 429.319 205.784 427.222 205.784C425.126 205.784 423.023 206.254 422.527 206.839C422.026 207.428 423.333 207.908 425.45 207.908Z" fill="white"/>
<path d="M452.01 208.278C454.501 208.278 456.91 207.717 457.39 207.023C457.86 206.335 456.244 205.784 453.78 205.784C451.316 205.784 448.914 206.335 448.414 207.023C447.907 207.717 449.516 208.278 452.01 208.278Z" fill="white"/>
<path d="M479.064 208.133C481.892 208.133 484.546 207.493 484.989 206.707C485.424 205.928 483.519 205.302 480.728 205.302C477.935 205.302 475.287 205.928 474.814 206.707C474.335 207.493 476.233 208.133 479.064 208.133Z" fill="white"/>
<path d="M506.164 208.422C509.284 208.422 512.125 207.714 512.503 206.85C512.877 205.993 510.686 205.302 507.613 205.302C504.534 205.302 501.703 205.993 501.281 206.85C500.859 207.714 503.043 208.422 506.164 208.422Z" fill="white"/>
<path d="M533.709 208.718C537.122 208.718 540.126 207.942 540.426 206.996C540.718 206.061 538.231 205.302 534.869 205.302C531.507 205.302 528.506 206.061 528.162 206.996C527.811 207.942 530.292 208.718 533.709 208.718Z" fill="white"/>
<path d="M560.631 208.919C564.255 208.919 567.345 208.099 567.535 207.095C567.719 206.101 564.98 205.302 561.414 205.302C557.851 205.302 554.765 206.101 554.52 207.095C554.271 208.099 557.007 208.919 560.631 208.919Z" fill="white"/>
<path d="M587.551 208.61C591.342 208.61 594.473 207.753 594.537 206.698C594.599 205.656 591.631 204.819 587.902 204.819C584.179 204.819 581.052 205.656 580.926 206.698C580.793 207.753 583.761 208.61 587.551 208.61Z" fill="white"/>
<path d="M614.879 208.647C618.711 208.647 621.763 207.783 621.698 206.718C621.634 205.663 618.527 204.819 614.757 204.819C610.993 204.819 607.938 205.663 607.938 206.718C607.934 207.783 611.044 208.647 614.879 208.647Z" fill="white"/>
<path d="M642.307 208.569C646.057 208.569 648.935 207.719 648.745 206.677C648.558 205.646 645.417 204.819 641.732 204.819C638.046 204.819 635.157 205.646 635.283 206.677C635.413 207.719 638.56 208.569 642.307 208.569Z" fill="white"/>
<path d="M669.611 208.878C673.194 208.878 675.848 208.068 675.542 207.075C675.239 206.091 672.142 205.302 668.617 205.302C665.092 205.302 662.431 206.091 662.676 207.075C662.924 208.068 666.028 208.878 669.611 208.878Z" fill="white"/>
<path d="M696.291 208.671C699.663 208.671 702.069 207.905 701.671 206.973C701.269 206.047 698.261 205.302 694.94 205.302C691.619 205.302 689.206 206.047 689.55 206.973C689.904 207.905 692.919 208.671 696.291 208.671Z" fill="white"/>
<path d="M723.783 208.381C726.863 208.381 728.973 207.684 728.503 206.83C728.037 205.982 725.202 205.302 722.167 205.302C719.132 205.302 717.012 205.982 717.437 206.83C717.862 207.684 720.704 208.381 723.783 208.381Z" fill="white"/>
<path d="M750.741 208.048C753.487 208.048 755.294 207.429 754.783 206.666C754.276 205.911 751.67 205.302 748.961 205.302C746.253 205.302 744.435 205.911 744.912 206.666C745.385 207.429 748.002 208.048 750.741 208.048Z" fill="white"/>
<path d="M777.59 208.197C779.996 208.197 781.52 207.649 780.989 206.982C780.465 206.318 778.107 205.784 775.729 205.784C773.343 205.784 771.815 206.318 772.316 206.982C772.819 207.649 775.181 208.197 777.59 208.197Z" fill="white"/>
<path d="M804.742 207.822C806.776 207.822 808.005 207.367 807.491 206.798C806.981 206.237 804.932 205.784 802.918 205.784C800.903 205.784 799.668 206.237 800.161 206.798C800.658 207.367 802.71 207.822 804.742 207.822Z" fill="white"/>
<path d="M831.487 207.971C833.185 207.971 834.168 207.587 833.681 207.114C833.195 206.644 831.432 206.267 829.748 206.267C828.06 206.267 827.073 206.644 827.546 207.114C828.019 207.587 829.785 207.971 831.487 207.971Z" fill="white"/>
<path d="M858.633 207.638C860.001 207.638 860.753 207.332 860.314 206.951C859.878 206.573 858.425 206.267 857.064 206.267C855.706 206.267 854.951 206.573 855.376 206.951C855.809 207.332 857.265 207.638 858.633 207.638Z" fill="white"/>
<path d="M885.396 207.304C886.434 207.304 886.971 207.073 886.607 206.784C886.24 206.498 885.11 206.267 884.079 206.267C883.048 206.267 882.507 206.498 882.868 206.784C883.228 207.073 884.361 207.304 885.396 207.304Z" fill="white"/>
<path d="M912.094 207.498C912.835 207.498 913.206 207.331 912.917 207.123C912.631 206.919 911.794 206.749 911.052 206.749C910.31 206.749 909.94 206.919 910.225 207.123C910.511 207.331 911.348 207.498 912.094 207.498Z" fill="white"/>
<path d="M938.829 207.246C939.326 207.246 939.557 207.134 939.349 206.997C939.138 206.861 938.57 206.749 938.073 206.749C937.58 206.749 937.349 206.861 937.553 206.997C937.76 207.134 938.332 207.246 938.829 207.246Z" fill="white"/>
<path d="M965.581 207.042L965.866 206.895L965.101 206.749L964.818 206.895L965.581 207.042Z" fill="white"/>
<path d="M992.62 206.865L992.727 206.805L992.417 206.749L992.316 206.805L992.62 206.865Z" fill="white"/>
<path d="M238.064 214.662L238.588 214.559L238.4 214.456L237.873 214.559L238.064 214.662Z" fill="white"/>
<path d="M265.731 214.905C266.16 214.905 266.66 214.799 266.844 214.677C267.031 214.554 266.833 214.456 266.405 214.456C265.979 214.456 265.483 214.554 265.295 214.677C265.108 214.799 265.306 214.905 265.731 214.905Z" fill="white"/>
<path d="M293.438 215.17C294.125 215.17 294.901 215.007 295.173 214.809C295.445 214.616 295.115 214.456 294.431 214.456C293.747 214.456 292.968 214.616 292.693 214.809C292.42 215.007 292.754 215.17 293.438 215.17Z" fill="white"/>
<path d="M321.31 215.001C322.293 215.001 323.386 214.769 323.743 214.484C324.097 214.201 323.59 213.973 322.61 213.973C321.63 213.973 320.537 214.201 320.177 214.484C319.816 214.769 320.323 215.001 321.31 215.001Z" fill="white"/>
<path d="M349.175 215.358C350.506 215.358 351.932 215.052 352.367 214.664C352.799 214.283 352.078 213.973 350.758 213.973C349.434 213.973 348.008 214.283 347.566 214.664C347.123 215.052 347.845 215.358 349.175 215.358Z" fill="white"/>
<path d="M377.045 215.715C378.723 215.715 380.475 215.324 380.958 214.841C381.441 214.361 380.485 213.973 378.821 213.973C377.161 213.973 375.412 214.361 374.915 214.841C374.418 215.324 375.371 215.715 377.045 215.715Z" fill="white"/>
<path d="M404.568 215.635C406.633 215.635 408.733 215.148 409.253 214.556C409.771 213.967 408.532 213.491 406.49 213.491C404.445 213.491 402.353 213.967 401.815 214.556C401.274 215.148 402.506 215.635 404.568 215.635Z" fill="white"/>
<path d="M432.713 216.033C435.163 216.033 437.585 215.458 438.116 214.753C438.64 214.052 437.102 213.491 434.676 213.491C432.253 213.491 429.837 214.052 429.283 214.753C428.724 215.458 430.259 216.033 432.713 216.033Z" fill="white"/>
<path d="M460.831 215.999C463.717 215.999 466.48 215.319 466.997 214.492C467.511 213.668 465.619 213.008 462.771 213.008C459.926 213.008 457.17 213.668 456.618 214.492C456.064 215.319 457.949 215.999 460.831 215.999Z" fill="white"/>
<path d="M488.559 216.449C491.877 216.449 494.953 215.673 495.429 214.717C495.902 213.774 493.629 213.008 490.359 213.008C487.093 213.008 484.023 213.774 483.499 214.717C482.975 215.673 485.238 216.449 488.559 216.449Z" fill="white"/>
<path d="M516.697 216.847C520.409 216.847 523.744 215.976 524.135 214.907C524.53 213.852 521.889 213.008 518.238 213.008C514.59 213.008 511.269 213.852 510.813 214.907C510.357 215.976 512.987 216.847 516.697 216.847Z" fill="white"/>
<path d="M544.979 216.722C549.039 216.722 552.564 215.769 552.85 214.605C553.136 213.451 550.131 212.526 546.143 212.526C542.162 212.526 538.65 213.451 538.289 214.605C537.929 215.769 540.923 216.722 544.979 216.722Z" fill="white"/>
<path d="M573.006 216.987C577.327 216.987 580.951 215.973 581.101 214.734C581.251 213.509 577.933 212.526 573.696 212.526C569.46 212.526 565.843 213.509 565.611 214.734C565.377 215.973 568.688 216.987 573.006 216.987Z" fill="white"/>
<path d="M600.967 217.171C605.462 217.171 609.103 216.112 609.096 214.823C609.089 213.547 605.513 212.526 601.11 212.526C596.707 212.526 593.069 213.547 592.984 214.823C592.899 216.112 596.472 217.171 600.967 217.171Z" fill="white"/>
<path d="M629.162 217.215C633.698 217.215 637.236 216.146 637.073 214.843C636.906 213.557 633.17 212.526 628.726 212.526C624.279 212.526 620.736 213.557 620.808 214.843C620.879 216.146 624.622 217.215 629.162 217.215Z" fill="white"/>
<path d="M657.64 217.126C662.094 217.126 665.439 216.078 665.119 214.802C664.803 213.54 661.012 212.526 656.65 212.526C652.287 212.526 648.932 213.54 649.164 214.802C649.392 216.078 653.189 217.126 657.64 217.126Z" fill="white"/>
<path d="M686.023 216.943C690.301 216.943 693.394 215.939 692.934 214.71C692.482 213.499 688.715 212.526 684.526 212.526C680.33 212.526 677.23 213.499 677.598 214.71C677.976 215.939 681.749 216.943 686.023 216.943Z" fill="white"/>
<path d="M714.06 216.633C718.032 216.633 720.791 215.694 720.226 214.557C719.668 213.431 716.061 212.526 712.158 212.526C708.259 212.526 705.489 213.431 705.975 214.557C706.469 215.694 710.089 216.633 714.06 216.633Z" fill="white"/>
<path d="M741.836 216.714C745.416 216.714 747.805 215.877 747.172 214.846C746.546 213.828 743.19 213.008 739.665 213.008C736.143 213.008 733.748 213.828 734.316 214.846C734.891 215.877 738.256 216.714 741.836 216.714Z" fill="white"/>
<path d="M770.078 216.309C773.27 216.309 775.305 215.564 774.631 214.645C773.964 213.74 770.878 213.008 767.737 213.008C764.593 213.008 762.548 213.74 763.167 214.645C763.793 215.564 766.89 216.309 770.078 216.309Z" fill="white"/>
<path d="M797.756 215.911C800.553 215.911 802.262 215.258 801.574 214.451C800.894 213.655 798.103 213.008 795.34 213.008C792.577 213.008 790.859 213.655 791.505 214.451C792.159 215.258 794.959 215.911 797.756 215.911Z" fill="white"/>
<path d="M825.796 215.948C828.164 215.948 829.539 215.393 828.875 214.712C828.215 214.035 825.785 213.491 823.448 213.491C821.106 213.491 819.721 214.035 820.358 214.712C820.994 215.393 823.434 215.948 825.796 215.948Z" fill="white"/>
<path d="M853.977 215.549C855.954 215.549 857.05 215.083 856.427 214.515C855.804 213.95 853.718 213.491 851.758 213.491C849.798 213.491 848.699 213.95 849.302 214.515C849.907 215.083 852 215.549 853.977 215.549Z" fill="white"/>
<path d="M881.479 215.624C883.065 215.624 883.902 215.253 883.347 214.797C882.789 214.341 881.064 213.973 879.488 213.973C877.913 213.973 877.072 214.341 877.613 214.797C878.158 215.253 879.89 215.624 881.479 215.624Z" fill="white"/>
<path d="M909.533 215.27C910.775 215.27 911.398 214.977 910.918 214.616C910.441 214.262 909.05 213.973 907.814 213.973C906.579 213.973 905.956 214.262 906.426 214.616C906.896 214.977 908.287 215.27 909.533 215.27Z" fill="white"/>
<path d="M937.144 214.953C938.086 214.953 938.529 214.732 938.134 214.46C937.739 214.188 936.657 213.973 935.718 213.973C934.779 213.973 934.337 214.188 934.724 214.46C935.116 214.732 936.198 214.953 937.144 214.953Z" fill="white"/>
<path d="M964.74 215.126C965.38 215.126 965.666 214.976 965.373 214.789C965.084 214.605 964.325 214.456 963.685 214.456C963.042 214.456 962.76 214.605 963.049 214.789C963.338 214.976 964.097 215.126 964.74 215.126Z" fill="white"/>
<path d="M992.469 214.854C992.857 214.854 993.01 214.765 992.826 214.653C992.639 214.544 992.173 214.456 991.788 214.456C991.404 214.456 991.244 214.544 991.428 214.653C991.618 214.765 992.085 214.854 992.469 214.854Z" fill="white"/>
<path d="M1020.13 214.622L1020.27 214.537L1019.83 214.456L1019.7 214.537L1020.13 214.622Z" fill="white"/>
<path d="M209.872 223.362C210.181 223.362 210.559 223.287 210.719 223.195C210.879 223.103 210.753 223.028 210.443 223.028C210.13 223.028 209.753 223.103 209.593 223.195C209.436 223.287 209.562 223.362 209.872 223.362Z" fill="white"/>
<path d="M238.487 223.121C239.017 223.121 239.654 222.992 239.906 222.835C240.151 222.675 239.926 222.546 239.392 222.546C238.861 222.546 238.228 222.675 237.976 222.835C237.724 222.992 237.949 223.121 238.487 223.121Z" fill="white"/>
<path d="M267.14 223.41C267.94 223.41 268.869 223.216 269.216 222.978C269.556 222.74 269.189 222.546 268.393 222.546C267.596 222.546 266.667 222.74 266.32 222.978C265.973 223.216 266.341 223.41 267.14 223.41Z" fill="white"/>
<path d="M295.945 223.795C297.102 223.795 298.409 223.512 298.865 223.169C299.314 222.825 298.749 222.546 297.599 222.546C296.449 222.546 295.145 222.825 294.689 223.169C294.227 223.512 294.788 223.795 295.945 223.795Z" fill="white"/>
<path d="M324.876 223.697C326.39 223.697 328.054 223.326 328.592 222.877C329.133 222.428 328.343 222.063 326.843 222.063C325.339 222.063 323.682 222.428 323.13 222.877C322.582 223.326 323.362 223.697 324.876 223.697Z" fill="white"/>
<path d="M353.809 224.126C355.728 224.126 357.773 223.663 358.382 223.091C358.988 222.523 357.94 222.063 356.041 222.063C354.143 222.063 352.097 222.523 351.478 223.091C350.849 223.663 351.893 224.126 353.809 224.126Z" fill="white"/>
<path d="M382.336 224.123C384.701 224.123 387.154 223.551 387.818 222.847C388.474 222.146 387.106 221.581 384.769 221.581C382.431 221.581 379.984 222.146 379.304 222.847C378.616 223.551 379.971 224.123 382.336 224.123Z" fill="white"/>
<path d="M411.429 224.603C414.243 224.603 417.081 223.915 417.761 223.082C418.435 222.248 416.73 221.581 413.954 221.581C411.18 221.581 408.353 222.248 407.641 223.082C406.923 223.915 408.618 224.603 411.429 224.603Z" fill="white"/>
<path d="M440.11 224.651C443.417 224.651 446.65 223.845 447.324 222.861C447.994 221.885 445.888 221.099 442.634 221.099C439.371 221.099 436.156 221.885 435.438 222.861C434.716 223.845 436.802 224.651 440.11 224.651Z" fill="white"/>
<path d="M469.491 225.175C473.295 225.175 476.892 224.25 477.529 223.12C478.151 221.997 475.623 221.099 471.883 221.099C468.15 221.099 464.564 221.997 463.873 223.12C463.172 224.25 465.687 225.175 469.491 225.175Z" fill="white"/>
<path d="M498.707 225.176C502.964 225.176 506.864 224.138 507.408 222.876C507.946 221.62 504.999 220.616 500.824 220.616C496.652 220.616 492.766 221.62 492.147 222.876C491.521 224.138 494.454 225.176 498.707 225.176Z" fill="white"/>
<path d="M527.55 225.656C532.256 225.656 536.421 224.509 536.85 223.11C537.269 221.726 533.866 220.616 529.259 220.616C524.651 220.616 520.5 221.726 519.982 223.11C519.452 224.509 522.841 225.656 527.55 225.656Z" fill="white"/>
<path d="M556.739 225.669C561.809 225.669 566.141 224.433 566.41 222.926C566.675 221.439 562.868 220.245 557.913 220.245C552.959 220.245 548.637 221.439 548.259 222.926C547.875 224.433 551.669 225.669 556.739 225.669Z" fill="white"/>
<path d="M586.282 225.907C591.58 225.907 595.942 224.614 596.027 223.042C596.109 221.487 591.981 220.245 586.809 220.245C581.637 220.245 577.278 221.487 577.07 223.042C576.859 224.614 580.983 225.907 586.282 225.907Z" fill="white"/>
<path d="M615.736 226.009C621.123 226.009 625.4 224.696 625.285 223.093C625.172 221.514 620.817 220.245 615.56 220.245C610.302 220.245 606.025 221.514 606.008 223.093C605.991 224.696 610.346 226.009 615.736 226.009Z" fill="white"/>
<path d="M644.64 225.856C649.89 225.856 653.899 224.576 653.596 223.018C653.3 221.476 648.9 220.245 643.772 220.245C638.644 220.245 634.629 221.476 634.802 223.018C634.979 224.576 639.386 225.856 644.64 225.856Z" fill="white"/>
<path d="M674.277 225.57C679.255 225.57 682.913 224.359 682.444 222.878C681.981 221.415 677.666 220.245 672.797 220.245C667.931 220.245 664.263 221.415 664.613 222.878C664.97 224.359 669.295 225.57 674.277 225.57Z" fill="white"/>
<path d="M703.182 225.561C707.8 225.561 711.053 224.434 710.454 223.059C709.858 221.702 705.72 220.616 701.201 220.616C696.679 220.616 693.412 221.702 693.909 223.059C694.41 224.434 698.561 225.561 703.182 225.561Z" fill="white"/>
<path d="M732.389 225.081C736.551 225.081 739.365 224.07 738.678 222.828C737.994 221.6 734.132 220.616 730.045 220.616C725.958 220.616 723.13 221.6 723.736 222.828C724.345 224.07 728.224 225.081 732.389 225.081Z" fill="white"/>
<path d="M761.393 225.036C765.061 225.036 767.426 224.144 766.691 223.052C765.959 221.97 762.448 221.099 758.841 221.099C755.23 221.099 752.848 221.97 753.522 223.052C754.196 224.144 757.721 225.036 761.393 225.036Z" fill="white"/>
<path d="M790.582 224.556C793.798 224.556 795.785 223.777 795.023 222.817C794.267 221.864 791.086 221.099 787.918 221.099C784.75 221.099 782.749 221.864 783.46 222.817C784.175 223.777 787.366 224.556 790.582 224.556Z" fill="white"/>
<path d="M819.458 224.511C822.184 224.511 823.783 223.851 823.041 223.037C822.303 222.231 819.53 221.581 816.842 221.581C814.15 221.581 812.537 222.231 813.245 223.037C813.953 223.851 816.736 224.511 819.458 224.511Z" fill="white"/>
<path d="M848.392 224.028C850.668 224.028 851.938 223.48 851.237 222.799C850.536 222.122 848.154 221.581 845.905 221.581C843.652 221.581 842.369 222.122 843.046 222.799C843.723 223.48 846.119 224.028 848.392 224.028Z" fill="white"/>
<path d="M877.228 224.03C879.052 224.03 880.022 223.591 879.396 223.043C878.766 222.499 876.793 222.063 874.979 222.063C873.172 222.063 872.195 222.499 872.808 223.043C873.42 223.591 875.401 224.03 877.228 224.03Z" fill="white"/>
<path d="M906.127 223.598C907.553 223.598 908.268 223.254 907.727 222.829C907.182 222.404 905.6 222.063 904.184 222.063C902.772 222.063 902.054 222.404 902.585 222.829C903.116 223.254 904.705 223.598 906.127 223.598Z" fill="white"/>
<path d="M934.573 223.696C935.642 223.696 936.149 223.441 935.703 223.121C935.261 222.805 934.042 222.546 932.977 222.546C931.916 222.546 931.409 222.805 931.847 223.121C932.286 223.441 933.505 223.696 934.573 223.696Z" fill="white"/>
<path d="M963.603 223.363C964.359 223.363 964.696 223.179 964.352 222.954C964.008 222.73 963.124 222.546 962.371 222.546C961.616 222.546 961.283 222.73 961.62 222.954C961.96 223.179 962.844 223.363 963.603 223.363Z" fill="white"/>
<path d="M992.287 223.077C992.77 223.077 992.974 222.954 992.739 222.811C992.498 222.665 991.906 222.546 991.423 222.546C990.936 222.546 990.732 222.665 990.967 222.811C991.208 222.954 991.797 223.077 992.287 223.077Z" fill="white"/>
<path d="M1021.34 223.295L1021.55 223.163L1020.87 223.028L1020.66 223.163L1021.34 223.295Z" fill="white"/>
<path d="M539.822 234.769C545.185 234.769 549.854 233.408 550.252 231.754C550.643 230.124 546.71 228.817 541.48 228.817C536.25 228.817 531.591 230.124 531.07 231.754C530.546 233.408 534.463 234.769 539.822 234.769Z" fill="white"/>
<path d="M570.31 235.341C576.19 235.341 581.128 233.847 581.329 232.033C581.526 230.25 577.048 228.817 571.318 228.817C565.594 228.817 560.667 230.25 560.313 232.033C559.956 233.847 564.427 235.341 570.31 235.341Z" fill="white"/>
<path d="M600.589 235.219C606.803 235.219 611.819 233.643 611.792 231.728C611.764 229.842 606.844 228.335 600.807 228.335C594.764 228.335 589.752 229.842 589.609 231.728C589.462 233.643 594.379 235.219 600.589 235.219Z" fill="white"/>
<path d="M630.947 235.324C637.256 235.324 642.146 233.722 641.877 231.779C641.611 229.866 636.432 228.335 630.304 228.335C624.169 228.335 619.275 229.866 619.36 231.779C619.452 233.722 624.642 235.324 630.947 235.324Z" fill="white"/>
<path d="M661.404 235.647C667.57 235.647 672.157 234.085 671.667 232.183C671.177 230.311 665.923 228.817 659.93 228.817C653.935 228.817 649.331 230.311 649.65 232.183C649.97 234.085 655.241 235.647 661.404 235.647Z" fill="white"/>
<path d="M691.744 235.181C697.481 235.181 701.582 233.731 700.908 231.958C700.245 230.213 695.178 228.817 689.587 228.817C683.996 228.817 679.875 230.213 680.396 231.958C680.92 233.731 686.004 235.181 691.744 235.181Z" fill="white"/>
</g>
</g>
<defs>
<radialGradient id="paint0_radial_1567_12822" cx="0" cy="0" r="1" gradientUnits="userSpaceOnUse" gradientTransform="translate(616 114.5) rotate(90) scale(114.5 616)">
<stop stop-color="#161426"/>
<stop offset="1" stop-color="#161426"/>
</radialGradient>
<radialGradient id="paint1_radial_1567_12822" cx="0" cy="0" r="1" gradientUnits="userSpaceOnUse" gradientTransform="translate(520 478) rotate(90) scale(520)">
<stop stop-color="#F0F0F0"/>
<stop offset="1" stop-color="#F4F4F4" stop-opacity="0"/>
</radialGradient>
</defs>
</svg>
