<svg width="1141" height="420" viewBox="0 0 1141 420" fill="none" xmlns="http://www.w3.org/2000/svg">
<rect x="0.345703" width="1139.66" height="399.071" rx="21" fill="url(#paint0_linear)"/>
<mask id="mask0" mask-type="alpha" maskUnits="userSpaceOnUse" x="0" y="0" width="1140" height="400">
<rect width="1139.66" height="399.071" rx="21" fill="white"/>
</mask>
<g mask="url(#mask0)">
<path d="M-0.998047 321.597H919.715L1189.23 399.415H-0.998047V321.597Z" fill="url(#paint1_linear)"/>
</g>
<path d="M914.371 313.614V85.1465" stroke="black" stroke-opacity="0.2" stroke-linecap="round" stroke-linejoin="round"/>
<path d="M766.216 315.61H910.762L1130.37 386.445" stroke="black" stroke-opacity="0.2" stroke-linecap="round" stroke-linejoin="round"/>
<path d="M212.754 309.725H202.677V145.092H223.479L214.502 113.082H187.561L178.584 145.092H199.386V309.725H189.278C183.902 309.73 179.518 313.984 179.417 319.295C179.417 319.295 179.417 319.345 179.417 319.366C179.417 319.366 179.417 319.427 179.417 319.447C179.715 321.743 189.258 323.592 201.011 323.592C212.765 323.592 222.307 321.743 222.605 319.447C222.588 314.081 218.186 309.736 212.754 309.725Z" fill="black" fill-opacity="0.399634"/>
<path fill-rule="evenodd" clip-rule="evenodd" d="M964.753 73.2019V266.697L1111.41 290.668V49.2305L964.753 73.2019ZM1107.6 128.607L1033.08 132.805V65.5756L1107.6 53.7927V128.607ZM1107.6 136.476L1033.08 139.873V200.613L1107.6 204.071V136.476ZM1027.04 200.329L967.213 197.561V142.875L1026.99 140.157L1027.04 200.329ZM1027.04 133.171V66.5296L967.213 75.9803V136.507L1027.04 133.171ZM967.213 203.928L1026.99 207.346V273.368L967.213 263.918V203.928ZM1033.03 207.691V274.322L1107.55 286.105V211.95L1033.03 207.691Z" fill="black" fill-opacity="0.399634"/>
<path d="M964.753 266.697H964.253C964.253 266.942 964.43 267.151 964.672 267.19L964.753 266.697ZM964.753 73.2019L964.672 72.7084C964.43 72.7479 964.253 72.9569 964.253 73.2019H964.753ZM1111.41 290.668L1111.33 291.162C1111.48 291.185 1111.62 291.144 1111.74 291.049C1111.85 290.954 1111.91 290.815 1111.91 290.668H1111.41ZM1111.41 49.2305H1111.91C1111.91 49.0838 1111.85 48.9445 1111.74 48.8495C1111.62 48.7545 1111.48 48.7134 1111.33 48.737L1111.41 49.2305ZM1033.08 132.805H1032.58C1032.58 132.943 1032.64 133.074 1032.74 133.168C1032.84 133.263 1032.98 133.312 1033.11 133.304L1033.08 132.805ZM1107.6 128.607L1107.63 129.106C1107.9 129.091 1108.1 128.872 1108.1 128.607H1107.6ZM1033.08 65.5756L1033.01 65.0817C1032.76 65.1202 1032.58 65.3296 1032.58 65.5756H1033.08ZM1107.6 53.7927H1108.1C1108.1 53.6465 1108.04 53.5075 1107.93 53.4125C1107.82 53.3175 1107.67 53.276 1107.52 53.2988L1107.6 53.7927ZM1033.08 139.873L1033.06 139.374C1032.79 139.386 1032.58 139.606 1032.58 139.873H1033.08ZM1107.6 136.476H1108.1C1108.1 136.34 1108.05 136.209 1107.95 136.115C1107.85 136.02 1107.72 135.97 1107.58 135.977L1107.6 136.476ZM1033.08 200.613H1032.58C1032.58 200.88 1032.79 201.1 1033.06 201.112L1033.08 200.613ZM1107.6 204.071L1107.58 204.57C1107.72 204.576 1107.85 204.527 1107.95 204.432C1108.05 204.338 1108.1 204.207 1108.1 204.071H1107.6ZM967.213 197.561H966.713C966.713 197.828 966.923 198.048 967.189 198.06L967.213 197.561ZM1027.04 200.329L1027.02 200.828C1027.16 200.835 1027.29 200.785 1027.39 200.69C1027.49 200.596 1027.54 200.465 1027.54 200.328L1027.04 200.329ZM967.213 142.875L967.19 142.375C966.923 142.387 966.713 142.607 966.713 142.875H967.213ZM1026.99 140.157L1027.49 140.157C1027.49 140.02 1027.43 139.89 1027.34 139.795C1027.24 139.701 1027.1 139.651 1026.97 139.658L1026.99 140.157ZM1027.04 66.5296H1027.54C1027.54 66.3834 1027.48 66.2445 1027.37 66.1495C1027.26 66.0545 1027.11 66.013 1026.96 66.0358L1027.04 66.5296ZM1027.04 133.171L1027.07 133.67C1027.33 133.655 1027.54 133.436 1027.54 133.171H1027.04ZM967.213 75.9803L967.135 75.4864C966.892 75.5248 966.713 75.7343 966.713 75.9803H967.213ZM967.213 136.507H966.713C966.713 136.644 966.769 136.776 966.869 136.87C966.969 136.965 967.103 137.014 967.24 137.006L967.213 136.507ZM1026.99 207.346H1027.49C1027.49 207.081 1027.28 206.862 1027.02 206.846L1026.99 207.346ZM967.213 203.928L967.241 203.429C967.104 203.421 966.969 203.47 966.869 203.565C966.769 203.659 966.713 203.791 966.713 203.928H967.213ZM1026.99 273.368L1026.91 273.862C1027.06 273.885 1027.2 273.844 1027.32 273.749C1027.43 273.654 1027.49 273.515 1027.49 273.368H1026.99ZM967.213 263.918H966.713C966.713 264.164 966.891 264.373 967.134 264.412L967.213 263.918ZM1033.03 274.322H1032.53C1032.53 274.568 1032.71 274.778 1032.96 274.816L1033.03 274.322ZM1033.03 207.691L1033.06 207.192C1032.93 207.184 1032.79 207.233 1032.69 207.328C1032.59 207.422 1032.53 207.554 1032.53 207.691H1033.03ZM1107.55 286.105L1107.47 286.599C1107.62 286.622 1107.77 286.58 1107.88 286.485C1107.99 286.39 1108.05 286.251 1108.05 286.105H1107.55ZM1107.55 211.95H1108.05C1108.05 211.685 1107.85 211.466 1107.58 211.451L1107.55 211.95ZM965.253 266.697V73.2019H964.253V266.697H965.253ZM1111.49 290.175L964.834 266.203L964.672 267.19L1111.33 291.162L1111.49 290.175ZM1110.91 49.2305V290.668H1111.91V49.2305H1110.91ZM964.834 73.6953L1111.49 49.7239L1111.33 48.737L964.672 72.7084L964.834 73.6953ZM1033.11 133.304L1107.63 129.106L1107.57 128.108L1033.06 132.306L1033.11 133.304ZM1032.58 65.5756V132.805H1033.58V65.5756H1032.58ZM1107.52 53.2988L1033.01 65.0817L1033.16 66.0695L1107.68 54.2866L1107.52 53.2988ZM1108.1 128.607V53.7927H1107.1V128.607H1108.1ZM1033.11 140.373L1107.63 136.976L1107.58 135.977L1033.06 139.374L1033.11 140.373ZM1033.58 200.613V139.873H1032.58V200.613H1033.58ZM1107.63 203.571L1033.11 200.113L1033.06 201.112L1107.58 204.57L1107.63 203.571ZM1107.1 136.476V204.071H1108.1V136.476H1107.1ZM967.189 198.06L1027.02 200.828L1027.06 199.829L967.236 197.061L967.189 198.06ZM966.713 142.875V197.561H967.713V142.875H966.713ZM1026.97 139.658L967.19 142.375L967.235 143.374L1027.01 140.657L1026.97 139.658ZM1027.54 200.328L1027.49 140.157L1026.49 140.157L1026.54 200.329L1027.54 200.328ZM1026.54 66.5296V133.171H1027.54V66.5296H1026.54ZM967.291 76.4742L1027.12 67.0235L1026.96 66.0358L967.135 75.4864L967.291 76.4742ZM967.713 136.507V75.9803H966.713V136.507H967.713ZM1027.01 132.672L967.185 136.008L967.24 137.006L1027.07 133.67L1027.01 132.672ZM1027.02 206.846L967.241 203.429L967.184 204.428L1026.96 207.845L1027.02 206.846ZM1027.49 273.368V207.346H1026.49V273.368H1027.49ZM967.134 264.412L1026.91 273.862L1027.07 272.875L967.291 263.424L967.134 264.412ZM966.713 203.928V263.918H967.713V203.928H966.713ZM1033.53 274.322V207.691H1032.53V274.322H1033.53ZM1107.63 285.611L1033.11 273.828L1032.96 274.816L1107.47 286.599L1107.63 285.611ZM1107.05 211.95V286.105H1108.05V211.95H1107.05ZM1033.01 208.19L1107.52 212.449L1107.58 211.451L1033.06 207.192L1033.01 208.19Z" fill="black" fill-opacity="0.2"/>
<ellipse cx="964.97" cy="372.453" rx="100.729" ry="26.9373" fill="black" fill-opacity="0.477633"/>
<path d="M956.461 238.978C956.461 238.978 933.633 236.282 918.614 247.949C903.594 259.616 890.678 308.368 890.976 331.719C891.274 355.071 899.993 366.72 921.917 376.284C943.842 385.848 984.686 382.27 1007.51 375.088C1030.34 367.907 1037.85 342.802 1037.55 329.329C1037.25 315.855 1022.23 300.314 1017.13 297.042C1012.02 293.77 997.602 286.876 990.399 276.099C983.196 265.323 972.672 241.971 956.461 238.978Z" fill="#E6007A"/>
<path opacity="0.13" d="M1011.7 373.474C1003.07 372.313 992.835 369.983 985.089 365.297C968.729 355.411 964.645 336.789 958.8 329.808C952.955 322.828 942.44 323.412 937.769 315.847C933.099 308.281 940.687 252.443 927.254 248.952C924.528 248.168 921.705 247.766 918.868 247.757C918.789 247.827 918.693 247.879 918.614 247.949C903.594 259.616 890.678 308.368 890.976 331.719C891.274 355.07 899.993 366.72 921.917 376.284C943.842 385.847 984.686 382.27 1007.51 375.088C1008.94 374.637 1010.34 374.098 1011.7 373.474Z" fill="black"/>
<path fill-rule="evenodd" clip-rule="evenodd" d="M956.461 238.978C956.461 238.978 933.633 236.282 918.614 247.949C903.594 259.616 890.678 308.368 890.976 331.719C891.274 355.071 899.993 366.72 921.917 376.284C943.842 385.848 984.686 382.27 1007.51 375.088C1030.34 367.907 1037.85 342.802 1037.55 329.329C1037.25 315.855 1022.23 300.314 1017.13 297.042C1012.02 293.77 997.602 286.876 990.399 276.099C983.196 265.323 972.672 241.971 956.461 238.978Z" stroke="#263238" stroke-linecap="round" stroke-linejoin="round"/>
<path d="M947.47 249.52C947.47 249.52 932.574 252.356 929.945 254.973C927.316 257.591 916.362 298.604 916.362 298.604C919.408 297.865 922.602 298.017 925.563 299.04C929.945 300.786 930.383 305.367 930.821 307.548C931.173 310.153 931.392 312.775 931.478 315.402C931.478 315.402 975.757 311.466 985.177 309.293C994.597 307.121 1008.93 306.108 1008.93 306.108C1008.93 306.108 984.713 251.71 980.988 249.747C977.264 247.783 961.71 247.565 959.519 248.001C957.329 248.438 947.47 249.52 947.47 249.52Z" fill="#2E303C" stroke="#263238" stroke-linecap="round" stroke-linejoin="round"/>
<path d="M932.793 299.913L936.517 269.59" stroke="white" stroke-linecap="round" stroke-linejoin="round"/>
<path d="M935.641 277.662L940.679 271.117" stroke="white" stroke-linecap="round" stroke-linejoin="round"/>
<path d="M950.757 281.588C950.757 281.588 964.996 277.007 974.417 277.007" stroke="white" stroke-linecap="round" stroke-linejoin="round"/>
<path d="M964.199 269.084L963.244 276.353C963.244 276.353 965.654 276.353 965.873 277.444C965.903 278.261 965.585 279.054 964.997 279.625C964.997 279.625 971.788 283.334 972.664 287.697" stroke="white" stroke-linecap="round" stroke-linejoin="round"/>
<path d="M955.647 241.387C955.647 241.387 947.471 244.005 946.297 246.038C945.122 248.071 946.007 262.329 946.007 264.075C946.007 265.82 947.033 263.054 947.909 261.02C948.785 258.987 951.852 255.924 952.869 256.221C953.885 256.518 954.481 257.67 954.481 259.563C954.481 261.457 956.812 264.075 958.863 265.523C960.913 266.972 962.806 268.438 962.806 268.438C962.806 268.438 967.038 262.329 968.064 260.724C969.089 259.118 968.94 255.785 969.08 254.616C969.22 253.446 971.858 257.818 972.445 256.657C973.032 255.497 971.131 254.476 969.08 251.273C967.029 248.071 967.625 244.729 964.558 242.399C961.491 240.069 957.986 240.793 955.647 241.387Z" fill="white"/>
<path d="M946.297 246.03C945.526 247.391 945.648 254.18 945.824 259.119C947.69 256.728 951.537 252.208 953.763 253.063C956.602 254.154 957.689 262.191 957.689 262.191L955.769 241.388H955.647C955.647 241.388 947.471 244.006 946.297 246.03Z" fill="#A4A4A4"/>
<path opacity="0.5" d="M946.297 246.03C945.526 247.391 945.648 254.18 945.824 259.119C947.69 256.728 951.537 252.208 953.763 253.063C956.602 254.154 957.689 262.191 957.689 262.191L955.769 241.388H955.647C955.647 241.388 947.471 244.006 946.297 246.03Z" fill="white"/>
<path fill-rule="evenodd" clip-rule="evenodd" d="M955.647 241.387C955.647 241.387 947.471 244.005 946.297 246.038C945.122 248.071 946.007 262.329 946.007 264.075C946.007 265.82 947.033 263.054 947.909 261.02C948.785 258.987 951.852 255.924 952.869 256.221C953.885 256.518 954.481 257.67 954.481 259.563C954.481 261.457 956.812 264.075 958.863 265.523C960.913 266.972 962.806 268.438 962.806 268.438C962.806 268.438 967.038 262.329 968.064 260.724C969.089 259.118 968.94 255.785 969.08 254.616C969.22 253.446 971.858 257.818 972.445 256.657C973.032 255.497 971.131 254.476 969.08 251.273C967.029 248.071 967.625 244.729 964.558 242.399C961.491 240.069 957.986 240.793 955.647 241.387Z" stroke="#263238" stroke-linecap="round" stroke-linejoin="round"/>
<path d="M936.297 300.349C936.297 300.349 931.259 293.15 925.125 292.496C918.991 291.842 911.542 296.859 911.323 298.604C911.104 300.349 909.571 309.73 910.666 311.039C911.761 312.348 915.924 313.439 924.029 310.821C932.135 308.203 935.421 304.931 936.297 300.349Z" fill="white"/>
<path d="M915.803 310.812C915.803 310.812 914.05 305.821 914.927 304.085C915.803 302.348 919.308 299.722 921.473 297.104C923.637 294.486 916.364 298.578 916.013 297.104C915.742 295.917 919.86 293.543 921.481 292.662C916.381 293.639 911.5 297.174 911.325 298.578C911.106 300.324 909.573 309.704 910.668 311.013C911.229 311.685 912.622 312.305 914.944 312.383C915.47 311.484 915.803 310.812 915.803 310.812Z" fill="#A4A4A4"/>
<path opacity="0.5" d="M915.803 310.812C915.803 310.812 914.05 305.821 914.927 304.085C915.803 302.348 919.308 299.722 921.473 297.104C923.637 294.486 916.364 298.578 916.013 297.104C915.742 295.917 919.86 293.543 921.481 292.662C916.381 293.639 911.5 297.174 911.325 298.578C911.106 300.324 909.573 309.704 910.668 311.013C911.229 311.685 912.622 312.305 914.944 312.383C915.47 311.484 915.803 310.812 915.803 310.812Z" fill="white"/>
<path fill-rule="evenodd" clip-rule="evenodd" d="M936.297 300.349C936.297 300.349 931.259 293.15 925.125 292.496C918.991 291.842 911.542 296.859 911.323 298.604C911.104 300.349 909.571 309.73 910.666 311.039C911.761 312.348 915.924 313.439 924.029 310.821C932.135 308.203 935.421 304.931 936.297 300.349Z" stroke="#263238" stroke-linecap="round" stroke-linejoin="round"/>
<path d="M919.21 302.313C919.21 302.313 910.991 305.559 910.666 311.912C910.482 315.402 916.362 316.929 922.496 316.929C928.63 316.929 937.393 309.294 943.089 306.022C948.785 302.749 961.929 295.114 963.463 294.46C964.996 293.805 970.254 295.55 972.445 296.205C974.532 296.65 976.662 296.87 978.798 296.859C978.798 296.859 981.865 301.659 983.398 301.659C984.932 301.659 980.112 294.46 979.455 292.933C978.798 291.405 968.063 287.915 966.749 287.915C965.434 287.915 934.764 295.55 930.164 297.296C925.563 299.041 919.21 302.313 919.21 302.313Z" fill="white"/>
<path d="M936.396 301.406C948.918 295.166 966.751 287.915 966.751 287.915C965.436 287.915 934.766 295.55 930.166 297.296C925.565 299.041 919.212 302.313 919.212 302.313C919.212 302.313 910.992 305.559 910.668 311.912C910.484 315.402 916.364 316.929 922.498 316.929C928.632 316.929 937.395 309.294 943.091 306.022L946.543 304.032C938.175 305.088 926.985 306.083 936.396 301.406Z" fill="#A4A4A4"/>
<path opacity="0.5" d="M936.396 301.406C948.918 295.166 966.751 287.915 966.751 287.915C965.436 287.915 934.766 295.55 930.166 297.296C925.565 299.041 919.212 302.313 919.212 302.313C919.212 302.313 910.992 305.559 910.668 311.912C910.484 315.402 916.364 316.929 922.498 316.929C928.632 316.929 937.395 309.294 943.091 306.022L946.543 304.032C938.175 305.088 926.985 306.083 936.396 301.406Z" fill="white"/>
<path fill-rule="evenodd" clip-rule="evenodd" d="M919.21 302.313C919.21 302.313 910.991 305.559 910.666 311.912C910.482 315.402 916.362 316.929 922.496 316.929C928.63 316.929 937.393 309.294 943.089 306.022C948.785 302.749 961.929 295.114 963.463 294.46C964.996 293.805 970.254 295.55 972.445 296.205C974.532 296.65 976.662 296.87 978.798 296.859C978.798 296.859 981.865 301.659 983.398 301.659C984.932 301.659 980.112 294.46 979.455 292.933C978.798 291.405 968.063 287.915 966.749 287.915C965.434 287.915 934.764 295.55 930.164 297.296C925.563 299.041 919.21 302.313 919.21 302.313Z" stroke="#263238" stroke-linecap="round" stroke-linejoin="round"/>
<path d="M983.284 253.795L976.606 291.186L1024.8 291.404L1031.97 255.941C1032.09 255.308 1031.93 254.654 1031.52 254.151C1031.12 253.648 1030.51 253.345 1029.87 253.324L985.527 251.997C984.436 251.962 983.482 252.726 983.284 253.795Z" fill="white" stroke="#263238" stroke-linecap="round" stroke-linejoin="round"/>
<path d="M976.607 291.188L953.14 307.715L1006.81 306.188L1024.8 291.406L976.607 291.188Z" fill="white"/>
<path d="M976.608 291.188L953.141 307.716L1006.81 306.189L1024.8 291.407L976.608 291.188Z" fill="#A4A4A4"/>
<path opacity="0.5" d="M976.608 291.188L953.141 307.716L1006.81 306.189L1024.8 291.407L976.608 291.188Z" fill="white"/>
<path fill-rule="evenodd" clip-rule="evenodd" d="M976.607 291.188L953.14 307.715L1006.81 306.188L1024.8 291.406L976.607 291.188V291.188Z" stroke="#263238" stroke-linecap="round" stroke-linejoin="round"/>
<path d="M994.352 307.549C994.352 307.549 1013.63 290.751 1032.69 285.079C1051.75 279.407 1055.69 280.28 1055.25 288.788C1054.82 297.296 1045.61 341.799 1039.48 353.143C1033.35 364.487 1025.68 385.211 1025.9 389.138C1026.12 393.065 1033.57 404.627 1040.14 408.772C1046.71 412.917 1046.05 417.934 1041.89 418.807C1037.73 419.679 1032.91 421.206 1018.67 412.044C1004.43 402.882 998.514 389.792 999.39 386.52C1000.27 383.248 1009.47 378.885 1013.19 372.34C1016.92 365.796 1023.05 341.362 1023.49 330.237C1023.84 323.213 1025.32 316.29 1027.87 309.73C1027.87 309.73 1003.77 314.093 996.761 318.456L994.352 307.549Z" fill="white"/>
<path d="M994.352 307.549C994.352 307.549 1013.63 290.751 1032.69 285.079C1051.75 279.407 1055.69 280.28 1055.25 288.788C1054.82 297.296 1045.61 341.799 1039.48 353.143C1033.35 364.487 1025.68 385.211 1025.9 389.138C1026.12 393.065 1033.57 404.627 1040.14 408.772C1046.71 412.917 1046.05 417.934 1041.89 418.807C1037.73 419.679 1032.91 421.206 1018.67 412.044C1004.43 402.882 998.514 389.792 999.39 386.52C1000.27 383.248 1009.47 378.885 1013.19 372.34C1016.92 365.796 1023.05 341.362 1023.49 330.237C1023.84 323.213 1025.32 316.29 1027.87 309.73C1027.87 309.73 1003.77 314.093 996.761 318.456L994.352 307.549Z" fill="#A4A4A4"/>
<path opacity="0.5" d="M994.352 307.549C994.352 307.549 1013.63 290.751 1032.69 285.079C1051.75 279.407 1055.69 280.28 1055.25 288.788C1054.82 297.296 1045.61 341.799 1039.48 353.143C1033.35 364.487 1025.68 385.211 1025.9 389.138C1026.12 393.065 1033.57 404.627 1040.14 408.772C1046.71 412.917 1046.05 417.934 1041.89 418.807C1037.73 419.679 1032.91 421.206 1018.67 412.044C1004.43 402.882 998.514 389.792 999.39 386.52C1000.27 383.248 1009.47 378.885 1013.19 372.34C1016.92 365.796 1023.05 341.362 1023.49 330.237C1023.84 323.213 1025.32 316.29 1027.87 309.73C1027.87 309.73 1003.77 314.093 996.761 318.456L994.352 307.549Z" fill="white"/>
<path fill-rule="evenodd" clip-rule="evenodd" d="M994.352 307.549C994.352 307.549 1013.63 290.751 1032.69 285.079C1051.75 279.407 1055.69 280.28 1055.25 288.788C1054.82 297.296 1045.61 341.799 1039.48 353.143C1033.35 364.487 1025.68 385.211 1025.9 389.138C1026.12 393.065 1033.57 404.627 1040.14 408.772C1046.71 412.917 1046.05 417.934 1041.89 418.807C1037.73 419.679 1032.91 421.206 1018.67 412.044C1004.43 402.882 998.514 389.792 999.39 386.52C1000.27 383.248 1009.47 378.885 1013.19 372.34C1016.92 365.796 1023.05 341.362 1023.49 330.237C1023.84 323.213 1025.32 316.29 1027.87 309.73C1027.87 309.73 1003.77 314.093 996.761 318.456L994.352 307.549Z" stroke="#263238" stroke-linecap="round" stroke-linejoin="round"/>
<path d="M1013.19 372.34C1012.91 372.829 1012.6 373.3 1012.26 373.771C1016.79 374.196 1021.09 375.979 1024.58 378.885C1025.63 379.793 1026.63 380.757 1027.58 381.773C1030.76 371.924 1034.74 362.349 1039.48 353.143C1045.61 341.799 1054.82 297.296 1055.25 288.788C1055.69 280.28 1051.75 279.407 1032.69 285.079C1013.63 290.751 994.352 307.549 994.352 307.549L996.761 318.456C1003.77 314.093 1027.87 309.73 1027.87 309.73C1025.32 316.29 1023.84 323.213 1023.49 330.237C1023.05 341.362 1016.92 365.796 1013.19 372.34Z" fill="white" stroke="#263238" stroke-linecap="round" stroke-linejoin="round"/>
<path d="M1013.19 372.34C1012.91 372.829 1012.6 373.3 1012.26 373.771C1016.79 374.196 1021.09 375.979 1024.58 378.885C1025.63 379.793 1026.63 380.757 1027.58 381.773C1031.78 376.153 1036.5 358.431 1041.83 351.136C1055.6 332.296 1054.82 297.296 1055.25 288.788C1055.69 280.28 1051.75 279.407 1032.69 285.079C1013.63 290.751 994.352 307.549 994.352 307.549L996.761 318.456C1003.77 314.093 1027.87 309.73 1027.87 309.73C1025.32 316.29 1023.84 323.213 1023.49 330.237C1023.05 341.362 1016.92 365.796 1013.19 372.34Z" fill="#263238"/>
<path opacity="0.53" d="M1013.19 372.34C1012.91 372.829 1012.6 373.3 1012.26 373.771C1016.79 374.196 1021.09 375.979 1024.58 378.885C1025.63 379.793 1026.63 380.757 1027.58 381.773C1031.78 376.153 1036.5 358.431 1041.83 351.136C1055.6 332.296 1054.82 297.296 1055.25 288.788C1055.69 280.28 1051.75 279.407 1032.69 285.079C1013.63 290.751 994.352 307.549 994.352 307.549L996.761 318.456C1003.77 314.093 1027.87 309.73 1027.87 309.73C1025.32 316.29 1023.84 323.213 1023.49 330.237C1023.05 341.362 1016.92 365.796 1013.19 372.34Z" fill="white"/>
<path opacity="0.14" d="M1045.99 287.635C1045.65 284.538 1011.76 298.822 997.471 304.983C995.491 306.554 994.352 307.548 994.352 307.548L996.761 318.456C1003.77 314.093 1027.87 309.73 1027.87 309.73C1025.32 316.29 1023.84 323.212 1023.49 330.236C1023.05 341.362 1016.92 365.795 1013.19 372.34C1012.91 372.828 1012.6 373.299 1012.26 373.771C1014.68 374.028 1017.04 374.637 1019.27 375.577C1024.52 364.425 1030.17 351.449 1032.85 341.301C1037.67 322.976 1046.43 291.562 1045.99 287.635Z" fill="black"/>
<path d="M1027.87 309.73C1027.87 309.73 1034.44 296.423 1040.14 290.969" stroke="#263238" stroke-linecap="round" stroke-linejoin="round"/>
<path fill-rule="evenodd" clip-rule="evenodd" d="M1013.19 372.34C1012.91 372.829 1012.6 373.3 1012.26 373.771C1016.79 374.196 1021.09 375.979 1024.58 378.885C1025.63 379.793 1026.63 380.757 1027.58 381.773C1031.78 376.153 1036.5 358.431 1041.83 351.136C1055.6 332.296 1054.82 297.296 1055.25 288.788C1055.69 280.28 1051.75 279.407 1032.69 285.079C1013.63 290.751 994.352 307.549 994.352 307.549L996.761 318.456C1003.77 314.093 1027.87 309.73 1027.87 309.73C1025.32 316.29 1023.84 323.213 1023.49 330.237C1023.05 341.362 1016.92 365.796 1013.19 372.34Z" stroke="#263238" stroke-linecap="round" stroke-linejoin="round"/>
<path d="M965.469 325.158C972.526 324.837 979.502 323.53 986.194 321.274C996.104 317.679 978.079 311.1 971.174 314.695C967.218 316.605 964.924 320.813 965.469 325.158Z" fill="#263238" stroke="#263238" stroke-linecap="round" stroke-linejoin="round"/>
<path d="M936.956 311.039C936.956 311.039 929.945 314.965 927.535 319.329C925.126 323.692 935.492 330.96 946.446 330.524C957.399 330.088 977.484 318.238 977.484 318.238C977.484 318.238 977.703 337.435 981.427 344.416C985.151 351.397 1002.24 368.413 1009.03 372.776C1015.82 377.139 1038.6 393.5 1042.11 396.118C1045.62 398.736 1052.19 403.535 1053.72 403.754C1055.25 403.972 1071.25 384.556 1074.97 378.012C1078.69 371.467 1081.98 357.723 1080.67 354.669C1079.35 351.615 1076.72 354.233 1074.09 356.414C1071.47 358.596 1047.37 374.521 1045.18 375.612C1043.98 376.224 1042.73 376.735 1041.45 377.139C1041.45 377.139 1021.74 358.378 1011.22 343.98C1000.71 329.582 999.829 311.039 995.886 304.058C991.943 297.077 986.247 294.023 977.703 294.895C969.159 295.768 951.414 300.349 936.956 311.039Z" fill="white"/>
<path d="M1029.65 387.115C1035.5 391.286 1040.6 394.968 1042.11 396.103C1045.62 398.721 1052.19 403.52 1053.72 403.738C1054.27 403.817 1056.63 401.417 1059.62 398.005L1034.53 381.932L1029.65 387.115Z" fill="#A4A4A4"/>
<path opacity="0.5" d="M1029.65 387.115C1035.5 391.286 1040.6 394.968 1042.11 396.103C1045.62 398.721 1052.19 403.52 1053.72 403.738C1054.27 403.817 1056.63 401.417 1059.62 398.005L1034.53 381.932L1029.65 387.115Z" fill="white"/>
<path fill-rule="evenodd" clip-rule="evenodd" d="M936.956 311.039C936.956 311.039 929.945 314.965 927.535 319.329C925.126 323.692 935.492 330.96 946.446 330.524C957.399 330.088 977.484 318.238 977.484 318.238C977.484 318.238 977.703 337.435 981.427 344.416C985.151 351.397 1002.24 368.413 1009.03 372.776C1015.82 377.139 1038.6 393.5 1042.11 396.118C1045.62 398.736 1052.19 403.535 1053.72 403.754C1055.25 403.972 1071.25 384.556 1074.97 378.012C1078.69 371.467 1081.98 357.723 1080.67 354.669C1079.35 351.615 1076.72 354.233 1074.09 356.414C1071.47 358.596 1047.37 374.521 1045.18 375.612C1043.98 376.224 1042.73 376.735 1041.45 377.139C1041.45 377.139 1021.74 358.378 1011.22 343.98C1000.71 329.582 999.829 311.039 995.886 304.058C991.943 297.077 986.247 294.023 977.703 294.895C969.159 295.768 951.414 300.349 936.956 311.039Z" stroke="#263238" stroke-linecap="round" stroke-linejoin="round"/>
<path d="M1040.09 375.83C1035.46 371.327 1018.08 348.107 1011.22 334.756C1001.17 315.192 1000.08 308.525 996.14 301.545C992.197 294.564 986.247 294.023 977.738 294.895C969.229 295.768 953.903 297.347 935.15 307.941C935.15 307.941 927.264 312.199 924.863 316.562C922.462 320.925 931.233 331.911 946.481 330.524C957.399 329.529 977.519 318.238 977.519 318.238C977.519 318.238 977.738 337.435 981.462 344.416C985.186 351.397 1002.27 368.413 1009.07 372.776C1013.37 375.542 1024.1 383.134 1032.28 388.98C1034.29 381.676 1037.91 377.68 1040.09 375.83Z" fill="#263238"/>
<path opacity="0.53" d="M1040.09 375.83C1035.46 371.327 1018.08 348.107 1011.22 334.756C1001.17 315.192 1000.08 308.525 996.14 301.545C992.197 294.564 986.247 294.023 977.738 294.895C969.229 295.768 953.903 297.347 935.15 307.941C935.15 307.941 927.264 312.199 924.863 316.562C922.462 320.925 931.233 331.911 946.481 330.524C957.399 329.529 977.519 318.238 977.519 318.238C977.519 318.238 977.738 337.435 981.462 344.416C985.186 351.397 1002.27 368.413 1009.07 372.776C1013.37 375.542 1024.1 383.134 1032.28 388.98C1034.29 381.676 1037.91 377.68 1040.09 375.83Z" fill="white"/>
<path opacity="0.14" d="M996.043 344.791C989.471 328.211 993.415 295.052 975.013 299.415C961.605 302.592 937.026 313.883 924.679 319.773C926.142 324.782 934.204 331.641 946.446 330.524C957.364 329.529 977.484 318.238 977.484 318.238C977.484 318.238 977.703 337.435 981.427 344.416C985.151 351.397 1002.24 368.413 1009.03 372.776C1013.33 375.542 1024.07 383.134 1032.24 388.98C1032.95 386.426 1033.97 383.972 1035.3 381.676C1018.98 369.66 999.715 354.049 996.043 344.791Z" fill="black"/>
<path d="M977.484 318.237L976.826 306.893" stroke="#263238" stroke-linecap="round" stroke-linejoin="round"/>
<path fill-rule="evenodd" clip-rule="evenodd" d="M1040.09 375.83C1035.46 371.327 1018.08 348.107 1011.22 334.756C1001.17 315.192 1000.08 308.525 996.14 301.545C992.197 294.564 986.247 294.023 977.738 294.895C969.229 295.768 953.903 297.347 935.15 307.941C935.15 307.941 927.264 312.199 924.863 316.562C922.462 320.925 931.233 331.911 946.481 330.524C957.399 329.529 977.519 318.238 977.519 318.238C977.519 318.238 977.738 337.435 981.462 344.416C985.186 351.397 1002.27 368.413 1009.07 372.776C1013.37 375.542 1024.1 383.134 1032.28 388.98C1034.29 381.676 1037.91 377.68 1040.09 375.83Z" stroke="#263238" stroke-linecap="round" stroke-linejoin="round"/>
<path d="M1042.11 396.118C1045.61 398.736 1052.19 403.536 1053.72 403.754C1055.25 403.972 1071.25 384.556 1074.97 378.012C1078.69 371.467 1081.98 357.724 1080.67 354.669C1079.35 351.615 1076.72 354.233 1074.09 356.415C1071.46 358.596 1047.37 374.521 1045.18 375.612C1044.6 375.9 1044.07 376.136 1043.61 376.336C1042.98 377.532 1042.21 379.382 1042.73 380.63C1043.61 382.593 1047.33 385.211 1047.33 385.211L1040.7 395.106L1042.11 396.118Z" fill="white" stroke="#263238" stroke-linecap="round" stroke-linejoin="round"/>
<path d="M1074.97 378.012C1078.69 371.467 1081.98 357.724 1080.67 354.67C1079.9 352.924 1078.7 353.038 1077.31 353.893C1078.23 357.968 1077.31 365.83 1072.78 374.303C1068.74 381.86 1056.26 395.246 1050 401.721C1051.14 402.576 1052.4 403.261 1053.74 403.754C1055.25 403.972 1071.25 384.557 1074.97 378.012Z" fill="white"/>
<path d="M1053.94 403.693L1054.13 403.597L1054.19 403.554C1054.29 403.494 1054.39 403.424 1054.48 403.344L1054.59 403.257L1054.84 403.048L1054.98 402.917L1055.33 402.603L1055.54 402.402L1055.83 402.123L1056.07 401.878L1056.32 401.634L1056.94 400.98L1057.04 400.875L1057.43 400.456L1057.59 400.29C1058.04 399.793 1058.53 399.252 1059.04 398.676V398.632L1059.58 398.021L1055.76 395.569C1053.58 397.925 1051.56 400.055 1049.95 401.721L1050.53 402.105L1050.62 402.158L1051.16 402.498L1052.04 402.995L1052.28 403.135L1052.53 403.266L1052.81 403.405L1052.99 403.493C1053.08 403.536 1053.17 403.574 1053.27 403.606L1053.4 403.658C1053.5 403.7 1053.6 403.73 1053.71 403.746C1053.77 403.76 1053.83 403.76 1053.88 403.746L1053.94 403.693Z" fill="#A4A4A4"/>
<path opacity="0.5" d="M1053.94 403.693L1054.13 403.597L1054.19 403.554C1054.29 403.494 1054.39 403.424 1054.48 403.344L1054.59 403.257L1054.84 403.048L1054.98 402.917L1055.33 402.603L1055.54 402.402L1055.83 402.123L1056.07 401.878L1056.32 401.634L1056.94 400.98L1057.04 400.875L1057.43 400.456L1057.59 400.29C1058.04 399.793 1058.53 399.252 1059.04 398.676V398.632L1059.58 398.021L1055.76 395.569C1053.58 397.925 1051.56 400.055 1049.95 401.721L1050.53 402.105L1050.62 402.158L1051.16 402.498L1052.04 402.995L1052.28 403.135L1052.53 403.266L1052.81 403.405L1052.99 403.493C1053.08 403.536 1053.17 403.574 1053.27 403.606L1053.4 403.658C1053.5 403.7 1053.6 403.73 1053.71 403.746C1053.77 403.76 1053.83 403.76 1053.88 403.746L1053.94 403.693Z" fill="white"/>
<path fill-rule="evenodd" clip-rule="evenodd" d="M1074.97 378.012C1078.69 371.467 1081.98 357.724 1080.67 354.67C1079.9 352.924 1078.7 353.038 1077.31 353.893C1078.23 357.968 1077.31 365.83 1072.78 374.303C1068.74 381.86 1056.26 395.246 1050 401.721C1051.14 402.576 1052.4 403.261 1053.74 403.754C1055.25 403.972 1071.25 384.557 1074.97 378.012Z" stroke="#263238" stroke-linecap="round" stroke-linejoin="round"/>
<path d="M1040.14 408.771C1033.57 404.626 1026.12 393.064 1025.9 389.137C1025.89 388.707 1025.92 388.277 1026 387.855C1024.69 387.896 1023.43 388.345 1022.39 389.137C1019.7 386.701 1016.84 384.442 1013.85 382.375C1011.44 380.993 1008.74 380.189 1005.96 380.027C1002.78 382.645 999.828 384.739 999.364 386.52C998.487 389.792 1004.4 402.881 1018.64 412.043C1032.88 421.206 1037.7 419.679 1041.86 418.806C1046.03 417.934 1046.71 412.916 1040.14 408.771Z" fill="white" stroke="#263238" stroke-linecap="round" stroke-linejoin="round"/>
<path d="M1040.14 408.771C1037.96 407.301 1036 405.539 1034.3 403.536C1029.78 401.616 1023.74 399.172 1018.45 395.891C1012.75 392.401 1014.07 390.219 1010.78 386.947C1008.26 384.434 1003.3 384.111 1001.14 384.094C1000.36 384.741 999.762 385.572 999.39 386.511C998.514 389.783 1004.43 402.872 1018.67 412.035C1032.91 421.197 1037.73 419.67 1041.89 418.797C1046.05 417.925 1046.71 412.916 1040.14 408.771Z" fill="white"/>
<path d="M1040.14 408.772C1037.96 407.302 1036 405.54 1034.3 403.536C1029.78 401.617 1023.74 399.173 1018.45 395.892C1012.75 392.402 1014.07 390.22 1010.78 386.948C1008.26 384.435 1003.3 384.112 1001.14 384.095C1000.37 384.742 999.763 385.573 999.391 386.512C998.515 389.784 1004.43 402.873 1018.67 412.036C1032.91 421.198 1037.73 419.671 1041.89 418.798C1046.05 417.926 1046.71 412.917 1040.14 408.772Z" fill="#A4A4A4"/>
<path opacity="0.5" d="M1040.14 408.772C1037.96 407.302 1036 405.54 1034.3 403.536C1029.78 401.617 1023.74 399.173 1018.45 395.892C1012.75 392.402 1014.07 390.22 1010.78 386.948C1008.26 384.435 1003.3 384.112 1001.14 384.095C1000.37 384.742 999.763 385.573 999.391 386.512C998.515 389.784 1004.43 402.873 1018.67 412.036C1032.91 421.198 1037.73 419.671 1041.89 418.798C1046.05 417.926 1046.71 412.917 1040.14 408.772Z" fill="white"/>
<path fill-rule="evenodd" clip-rule="evenodd" d="M1040.14 408.771C1037.96 407.301 1036 405.539 1034.3 403.536C1029.78 401.616 1023.74 399.172 1018.45 395.891C1012.75 392.401 1014.07 390.219 1010.78 386.947C1008.26 384.434 1003.3 384.111 1001.14 384.094C1000.36 384.741 999.762 385.572 999.39 386.511C998.514 389.783 1004.43 402.872 1018.67 412.035C1032.91 421.197 1037.73 419.67 1041.89 418.797C1046.05 417.925 1046.71 412.916 1040.14 408.771Z" stroke="#263238" stroke-linecap="round" stroke-linejoin="round"/>
<path d="M1041.23 410.298C1035.54 407.026 1023.93 404.844 1016.48 399.827C1009.03 394.809 1011 390.446 1005.53 386.956C1003.74 385.624 1001.32 385.486 999.391 386.607C998.629 390.01 1004.56 402.951 1018.67 412.043C1032.78 421.136 1037.73 419.678 1041.89 418.806C1044.66 418.221 1045.86 415.813 1044.43 413.047C1043.54 411.949 1042.46 411.018 1041.23 410.298Z" fill="#263238"/>
<path opacity="0.53" d="M1041.23 410.298C1035.54 407.026 1023.93 404.844 1016.48 399.827C1009.03 394.809 1011 390.446 1005.53 386.956C1003.74 385.624 1001.32 385.486 999.391 386.607C998.629 390.01 1004.56 402.951 1018.67 412.043C1032.78 421.136 1037.73 419.678 1041.89 418.806C1044.66 418.221 1045.86 415.813 1044.43 413.047C1043.54 411.949 1042.46 411.018 1041.23 410.298Z" fill="white"/>
<path fill-rule="evenodd" clip-rule="evenodd" d="M1041.23 410.298C1035.54 407.026 1023.93 404.844 1016.48 399.827C1009.03 394.809 1011 390.446 1005.53 386.956C1003.74 385.624 1001.32 385.486 999.391 386.607C998.629 390.01 1004.56 402.951 1018.67 412.043C1032.78 421.136 1037.73 419.678 1041.89 418.806C1044.66 418.221 1045.86 415.813 1044.43 413.047C1043.54 411.949 1042.46 411.018 1041.23 410.298V410.298Z" stroke="#263238" stroke-linecap="round" stroke-linejoin="round"/>
<path d="M932.066 368.57C932.066 368.57 936.272 363.483 936.868 367.374C937.464 371.266 936.57 378.439 933.565 381.127C930.559 383.814 929.061 379.635 929.061 379.635L930.866 377.244C930.866 377.244 932.364 380.237 933.565 375.446C934.765 370.655 931.164 371.258 931.164 371.258L932.066 368.57Z" fill="white" stroke="#263238" stroke-linecap="round" stroke-linejoin="round"/>
<path d="M928.849 387.716C926.361 389.548 918.246 389.548 915.766 387.716C910.509 383.832 911.385 365.071 911.385 365.071H933.169C933.169 365.071 934.116 383.832 928.849 387.716Z" fill="white" stroke="#263238" stroke-linecap="round" stroke-linejoin="round"/>
<path d="M930.794 383.158V380.83L926.86 376.806H924.493L930.794 383.158Z" fill="black"/>
<path d="M913.872 370.973V373.3L917.805 377.325H920.173L913.872 370.973Z" fill="black"/>
<path d="M915.938 368.487H918.233L922.203 372.474L926.136 368.487H928.535L922.203 374.876L915.938 368.487Z" fill="black"/>
<path d="M916.324 385.448H918.62L922.589 381.461L926.523 385.448H928.922L922.589 379.06L916.324 385.448Z" fill="black"/>
<circle cx="922.851" cy="377.466" r="0.997677" fill="#E6007A"/>
<path d="M1019.57 282.043V278.347L1013.32 271.955H1009.56L1019.57 282.043Z" fill="black"/>
<path d="M992.688 262.691V266.387L998.934 272.78H1002.7L992.688 262.691Z" fill="black"/>
<path d="M995.969 258.743H999.615L1005.92 265.075L1012.17 258.743H1015.98L1005.92 268.89L995.969 258.743Z" fill="black"/>
<path d="M996.583 285.681H1000.23L1006.53 279.349L1012.78 285.681H1016.59L1006.53 275.534L996.583 285.681Z" fill="black"/>
<circle cx="1007.15" cy="273.209" r="1.49652" fill="#E6007A"/>
<path d="M913.769 361.389C913.769 359.033 915.968 359.033 915.968 356.668C915.968 354.303 913.769 354.303 913.769 351.947C913.769 349.591 915.968 349.583 915.968 347.218C915.968 344.853 913.769 344.853 913.769 342.488C913.769 340.124 915.968 340.124 915.968 337.759" stroke="#263238" stroke-linecap="round" stroke-linejoin="round"/>
<path d="M921.296 361.388C921.296 359.643 923.495 359.643 923.495 357.802C923.495 355.961 921.296 356.013 921.296 354.215C921.296 352.418 923.495 352.426 923.495 350.629C923.495 348.831 921.296 348.831 921.296 347.034C921.296 345.236 923.495 345.245 923.495 343.447" stroke="#263238" stroke-linecap="round" stroke-linejoin="round"/>
<path d="M929.576 361.389C929.576 359.033 931.767 359.033 931.767 356.668C931.767 354.303 929.576 354.303 929.576 351.947C929.576 349.591 931.767 349.583 931.767 347.218C931.767 344.853 929.576 344.853 929.576 342.488C929.576 340.124 931.767 340.124 931.767 337.759" stroke="#263238" stroke-linecap="round" stroke-linejoin="round"/>
<path d="M933.188 365.071C933.188 365.621 928.316 366.057 922.296 366.057C916.275 366.057 911.403 365.621 911.403 365.071C911.403 364.521 916.275 364.085 922.296 364.085C928.316 364.085 933.188 364.521 933.188 365.071Z" fill="white" stroke="#263238" stroke-linecap="round" stroke-linejoin="round"/>
<path d="M953.298 230.043C953.298 230.043 954.323 241.064 954.752 244.546C955.182 248.028 956.155 258.028 957.162 261.335C958.17 264.642 963.664 270.393 964.173 269.066C964.681 267.74 967.415 258.743 966.328 253.359C965.242 247.975 964.909 243.377 965.583 242.015C966.258 240.654 968.685 239.127 968.685 239.127C965.858 237.685 963.111 236.092 960.457 234.354C956.584 231.788 953.841 228.883 953.298 230.043Z" fill="white"/>
<path d="M967.362 239.721L966.486 238.028C964.874 237.155 962.63 235.864 960.501 234.441C956.602 231.823 953.859 228.883 953.315 230.078C953.315 230.078 954.341 241.099 954.77 244.581C955.199 248.063 956.172 258.063 957.18 261.37C957.524 262.337 957.998 263.253 958.591 264.093C957.53 257.513 958.678 245.628 958.678 245.628L967.362 239.721Z" fill="#A4A4A4"/>
<path opacity="0.5" d="M967.362 239.721L966.486 238.028C964.874 237.155 962.63 235.864 960.501 234.441C956.602 231.823 953.859 228.883 953.315 230.078C953.315 230.078 954.341 241.099 954.77 244.581C955.199 248.063 956.172 258.063 957.18 261.37C957.524 262.337 957.998 263.253 958.591 264.093C957.53 257.513 958.678 245.628 958.678 245.628L967.362 239.721Z" fill="white"/>
<path fill-rule="evenodd" clip-rule="evenodd" d="M953.298 230.043C953.298 230.043 954.323 241.064 954.752 244.546C955.182 248.028 956.155 258.028 957.162 261.335C958.17 264.642 963.664 270.393 964.173 269.066C964.681 267.74 967.415 258.743 966.328 253.359C965.242 247.975 964.909 243.377 965.583 242.015C966.258 240.654 968.685 239.127 968.685 239.127C965.858 237.685 963.111 236.092 960.457 234.354C956.584 231.788 953.841 228.883 953.298 230.043Z" stroke="#263238" stroke-linecap="round" stroke-linejoin="round"/>
<path d="M952.895 231.64C952.895 231.64 959.204 236.876 964.041 238.795C968.878 240.715 976.309 240.593 977.369 238.089C978.43 235.584 975.529 215.75 973.032 210.532C970.534 205.313 967.87 205.226 963.463 204.825C959.055 204.423 950.239 208.001 948.688 212.242C947.137 216.483 948.908 222.486 950.187 226.047C950.863 228.011 951.772 229.889 952.895 231.64Z" fill="white"/>
<path d="M964.227 231.405C961.992 224.808 961.432 214.424 961.432 211.658C961.432 209.52 967.022 207.173 969.572 206.213C967.899 205.183 965.953 205.052 963.438 204.826C959.057 204.433 950.215 208.002 948.664 212.243C947.113 216.484 948.883 222.487 950.162 226.047C950.839 228.012 951.748 229.89 952.87 231.641C952.87 231.641 959.179 236.876 964.017 238.796C967.369 240.06 971 240.406 974.532 239.8C971.071 238.5 965.717 235.812 964.227 231.405Z" fill="#A4A4A4"/>
<path opacity="0.5" d="M964.227 231.405C961.992 224.808 961.432 214.424 961.432 211.658C961.432 209.52 967.022 207.173 969.572 206.213C967.899 205.183 965.953 205.052 963.438 204.826C959.057 204.433 950.215 208.002 948.664 212.243C947.113 216.484 948.883 222.487 950.162 226.047C950.839 228.012 951.748 229.89 952.87 231.641C952.87 231.641 959.179 236.876 964.017 238.796C967.369 240.06 971 240.406 974.532 239.8C971.071 238.5 965.717 235.812 964.227 231.405Z" fill="white"/>
<path fill-rule="evenodd" clip-rule="evenodd" d="M952.895 231.64C952.895 231.64 959.204 236.876 964.041 238.795C968.878 240.715 976.309 240.593 977.369 238.089C978.43 235.584 975.529 215.75 973.032 210.532C970.534 205.313 967.87 205.226 963.463 204.825C959.055 204.423 950.239 208.001 948.688 212.242C947.137 216.483 948.908 222.486 950.187 226.047C950.863 228.011 951.772 229.889 952.895 231.64Z" stroke="#263238" stroke-linecap="round" stroke-linejoin="round"/>
<path fill-rule="evenodd" clip-rule="evenodd" d="M978.465 217.722C978.57 220.235 977.755 222.304 976.651 222.347C975.547 222.391 974.565 220.392 974.469 217.879C974.372 215.366 975.187 213.289 976.291 213.246C977.395 213.202 978.368 215.209 978.465 217.722Z" stroke="#263238" stroke-linecap="round" stroke-linejoin="round"/>
<path d="M973.768 217.774C973.768 217.774 981.006 219.144 980.305 220.881C979.604 222.617 974.714 224.494 974.714 224.494" fill="white"/>
<path d="M973.768 217.774C973.768 217.774 981.006 219.144 980.305 220.881C979.604 222.617 974.714 224.494 974.714 224.494" stroke="#263238" stroke-linecap="round" stroke-linejoin="round"/>
<path d="M973.321 216.954C973.321 216.954 973.426 216.082 974.539 216.631" stroke="#263238" stroke-linecap="round" stroke-linejoin="round"/>
<path d="M966.057 215.139C966.624 213.861 967.934 213.073 969.334 213.167" stroke="#263238" stroke-width="2" stroke-linecap="round" stroke-linejoin="round"/>
<path d="M974.819 213.228L972.795 213.987" stroke="#263238" stroke-width="2" stroke-linecap="round" stroke-linejoin="round"/>
<path d="M972.682 228.586C972.682 228.586 970.053 229.267 968.563 227.713" stroke="#263238" stroke-linecap="round" stroke-linejoin="round"/>
<path d="M970.254 219.152C970.376 220.025 970.254 220.775 969.894 220.819C969.535 220.863 969.22 220.191 969.097 219.309C968.974 218.428 969.141 217.695 969.465 217.651C969.789 217.608 970.14 218.28 970.254 219.152Z" fill="#263238"/>
<path d="M953.946 224.572C953.946 224.572 953.07 226.317 955.541 226.404C958.012 226.492 959.694 225.296 958.494 223.787C957.293 222.277 955.515 220.863 957.346 218.891C959.177 216.919 962.735 215.261 960.737 213.062C958.739 210.863 951.387 212.861 953.227 211.081C955.068 209.301 963.568 207.443 967.388 207.678C971.209 207.914 978.342 204.964 979.91 201.107C981.479 197.25 979.288 190.121 974.153 190.505C969.018 190.889 965.189 195.418 962.91 195.741C960.632 196.064 955.961 193.542 952.044 195.741C948.127 197.94 947.996 204.257 947.663 205.034C947.33 205.811 942.02 206.963 941.082 212.312C940.369 216.682 941.735 221.135 944.78 224.362C946.979 226.745 947.97 227.652 947.97 227.652L953.946 224.572Z" fill="#E6007A" stroke="#263238" stroke-linecap="round" stroke-linejoin="round"/>
<path d="M942.8 214.903C942.754 215.715 942.949 216.522 943.36 217.224" stroke="white" stroke-width="0.75" stroke-linecap="round" stroke-linejoin="round"/>
<path d="M965.137 201.09C965.137 201.09 963.227 196.928 968.099 196.928C972.971 196.928 973.672 203.036 968.625 205.252C963.577 207.469 952.597 208.027 946.674 210.636C945.511 211.09 944.477 211.817 943.659 212.757" stroke="white" stroke-width="0.75" stroke-linecap="round" stroke-linejoin="round"/>
<path d="M956.312 215.871C954.56 216.499 952.29 217.372 949.985 218.437C945.104 220.697 946.147 222.948 946.147 222.948" stroke="white" stroke-width="0.75" stroke-linecap="round" stroke-linejoin="round"/>
<path d="M959.564 214.799C959.564 214.799 959.135 214.922 958.407 215.157" stroke="white" stroke-width="0.75" stroke-linecap="round" stroke-linejoin="round"/>
<path d="M954.779 226.439C954.779 226.439 951.949 222.373 948.969 224.004C945.99 225.636 948.304 231.439 950.1 233.455C951.896 235.471 955.358 231.71 955.717 230.767" fill="white"/>
<path d="M954.779 226.439C954.779 226.439 951.949 222.373 948.969 224.004C945.99 225.636 948.304 231.439 950.1 233.455C951.896 235.471 955.358 231.71 955.717 230.767" fill="#A4A4A4"/>
<path opacity="0.5" d="M954.779 226.439C954.779 226.439 951.949 222.373 948.969 224.004C945.99 225.636 948.304 231.439 950.1 233.455C951.896 235.471 955.358 231.71 955.717 230.767" fill="white"/>
<path d="M954.779 226.439C954.779 226.439 951.949 222.373 948.969 224.004C945.99 225.636 948.304 231.439 950.1 233.455C951.896 235.471 955.358 231.71 955.717 230.767" stroke="#263238" stroke-linecap="round" stroke-linejoin="round"/>
<rect x="851.736" y="222.73" width="71.7854" height="54.6603" rx="5.12" fill="white" stroke="#263238" stroke-linecap="round" stroke-linejoin="round"/>
<path d="M922.154 262.05L964.216 272.958L922.154 252.451" fill="white"/>
<path d="M922.154 262.05L964.216 272.958L922.154 252.451" stroke="#263238" stroke-linecap="round" stroke-linejoin="round"/>
<rect x="857.537" y="227.984" width="16.886" height="44.1541" fill="#E6007A" stroke="#263238" stroke-linecap="round" stroke-linejoin="round"/>
<rect x="917.686" y="227.984" width="2.11185" height="44.1541" fill="#E6007A" stroke="#263238" stroke-linecap="round" stroke-linejoin="round"/>
<rect x="917.686" y="248.167" width="2.11185" height="3.76968" fill="#263238" stroke="#263238" stroke-linecap="round" stroke-linejoin="round"/>
<path d="M879.707 229.031H912.962H879.707Z" fill="white"/>
<path d="M879.707 229.031H912.962" stroke="#263238" stroke-linecap="round" stroke-linejoin="round"/>
<path d="M879.707 233.761H912.962H879.707Z" fill="white"/>
<path d="M879.707 233.761H912.962" stroke="#263238" stroke-linecap="round" stroke-linejoin="round"/>
<path d="M879.707 238.499H912.962H879.707Z" fill="white"/>
<path d="M879.707 238.499H912.962" stroke="#263238" stroke-linecap="round" stroke-linejoin="round"/>
<path d="M879.707 243.228H912.962H879.707Z" fill="white"/>
<path d="M879.707 243.228H912.962" stroke="#263238" stroke-linecap="round" stroke-linejoin="round"/>
<path d="M879.707 254.791H912.962H879.707Z" fill="white"/>
<path d="M879.707 254.791H912.962" stroke="#263238" stroke-linecap="round" stroke-linejoin="round"/>
<path d="M879.707 258.997H912.962H879.707Z" fill="white"/>
<path d="M879.707 258.997H912.962" stroke="#263238" stroke-linecap="round" stroke-linejoin="round"/>
<path d="M879.707 263.203H912.962H879.707Z" fill="white"/>
<path d="M879.707 263.203H912.962" stroke="#263238" stroke-linecap="round" stroke-linejoin="round"/>
<path d="M879.707 271.928H912.962H879.707Z" fill="white"/>
<path d="M879.707 271.928H912.962" stroke="#263238" stroke-linecap="round" stroke-linejoin="round"/>
<ellipse opacity="0.5" cx="1092.39" cy="387.204" rx="14.6368" ry="6.57398" fill="white"/>
<path d="M1075.27 289.927C1076.83 290.611 1080.66 290.523 1080.66 290.523C1080.66 290.523 1079.84 288.008 1079.79 287.894C1078.91 286.141 1076.29 283.222 1074.13 283.511C1073.41 283.642 1072.78 284.065 1072.39 284.68C1071.99 285.295 1071.87 286.047 1072.06 286.754C1072.38 288.227 1073.93 289.34 1075.27 289.927Z" fill="#263238"/>
<path fill-rule="evenodd" clip-rule="evenodd" d="M1119.9 281.389C1120.7 279.601 1123.28 276.63 1125.45 276.858C1126.21 276.958 1126.88 277.383 1127.3 278.023C1127.72 278.663 1127.84 279.453 1127.63 280.188C1127.3 281.722 1125.83 282.844 1124.48 283.475C1123.13 284.106 1120.04 284.212 1119.27 284.212C1119.17 284.337 1119.06 284.465 1118.96 284.595C1118.64 284.981 1118.3 285.389 1117.94 285.842C1117.81 286.021 1117.67 286.203 1117.53 286.39C1116.85 287.312 1116.08 288.335 1115.32 289.48L1114.58 290.645C1114.77 290.463 1114.98 290.247 1115.19 290.039C1115.57 289.649 1115.93 289.289 1115.98 289.243C1117.51 288.025 1121.16 286.569 1122.98 287.779C1123.57 288.211 1123.96 288.87 1124.04 289.597C1124.12 290.324 1123.9 291.053 1123.43 291.61C1122.45 292.802 1120.62 293.135 1119.13 293.073C1117.65 293.012 1114.77 291.627 1114.15 291.32C1113.61 292.179 1113.08 293.082 1112.59 294.055C1111.67 295.806 1110.9 297.637 1110.31 299.525C1110.3 299.545 1110.29 299.567 1110.28 299.588C1110.25 299.677 1110.22 299.773 1110.22 299.858C1110.44 299.533 1111.8 297.824 1111.91 297.719C1113.29 296.369 1116.76 294.493 1118.7 295.493C1119.34 295.855 1119.79 296.466 1119.96 297.177C1120.12 297.889 1119.99 298.638 1119.58 299.244C1118.74 300.541 1116.92 301.076 1115.47 301.172C1113.81 301.295 1110.35 299.989 1110.22 299.937C1109.68 301.833 1109.26 303.763 1108.97 305.713C1108.74 307.142 1108.56 308.614 1108.42 310.096C1108.71 309.675 1109.98 308.088 1110.09 307.983C1111.46 306.642 1114.94 304.757 1116.88 305.766C1117.52 306.128 1117.97 306.739 1118.14 307.45C1118.3 308.162 1118.17 308.911 1117.76 309.517C1116.92 310.806 1115.1 311.34 1113.65 311.445C1112 311.559 1108.68 310.323 1108.4 310.218L1108.19 312.226C1108.16 312.498 1108.14 312.771 1108.11 313.044C1107.93 314.966 1107.74 316.896 1107.51 318.8C1107.41 319.545 1107.3 320.281 1107.17 321.026C1107.65 320.412 1108.53 319.308 1108.62 319.22C1110 317.879 1113.47 315.995 1115.41 317.003C1116.05 317.365 1116.5 317.976 1116.67 318.687C1116.83 319.399 1116.7 320.148 1116.29 320.754C1115.45 322.043 1113.64 322.577 1112.18 322.683C1110.72 322.788 1107.9 321.806 1107.11 321.517C1106.91 322.744 1106.68 323.954 1106.4 325.137C1106.36 325.296 1106.32 325.455 1106.28 325.615C1106.19 325.966 1106.11 326.316 1106.01 326.653C1105.92 326.973 1105.82 327.288 1105.73 327.6C1105.68 327.768 1105.63 327.934 1105.58 328.1C1105.5 328.344 1105.42 328.585 1105.34 328.823C1105.1 329.54 1104.87 330.228 1104.62 330.887C1104.55 331.065 1104.49 331.239 1104.42 331.412C1104.32 331.681 1104.22 331.947 1104.13 332.219C1104.51 331.527 1105.13 330.431 1105.2 330.343C1106.34 328.774 1109.52 326.417 1111.59 327.109C1112.27 327.372 1112.82 327.909 1113.09 328.589C1113.36 329.27 1113.33 330.033 1113.02 330.694C1112.38 332.096 1110.66 332.903 1109.24 333.218C1107.67 333.578 1104.31 332.894 1103.9 332.806C1103.5 333.885 1103.09 334.936 1102.69 335.909C1101.43 338.986 1100.31 341.51 1099.43 343.263C1099.38 343.36 1099.33 343.448 1099.29 343.544H1105.41L1103.3 384.829C1103.14 387.966 1100.55 390.429 1097.42 390.43C1094.28 390.429 1091.69 387.968 1091.53 384.829L1089.42 343.544H1095.99C1095.98 343.456 1095.97 343.367 1095.95 343.276C1095.92 343.069 1095.89 342.853 1095.89 342.615C1095.67 340.695 1095.32 337.969 1094.74 334.726C1094.58 333.788 1094.39 332.798 1094.19 331.781C1094.11 331.781 1093.9 331.8 1093.61 331.826C1092.48 331.93 1090.07 332.152 1088.84 331.781C1087.44 331.351 1085.79 330.422 1085.27 328.976C1084.99 328.295 1085.01 327.527 1085.33 326.865C1085.66 326.203 1086.25 325.711 1086.95 325.514C1089.06 324.97 1092.04 327.556 1093.08 329.213C1093.14 329.318 1093.79 330.65 1094.1 331.343C1093.98 330.729 1093.86 330.124 1093.72 329.484C1093.58 328.877 1093.43 328.246 1093.28 327.615C1093.21 327.299 1093.13 326.983 1093.06 326.671C1093.03 326.55 1092.99 326.43 1092.96 326.31C1092.85 325.95 1092.74 325.59 1092.65 325.216C1092.57 324.874 1092.45 324.553 1092.34 324.23C1092.29 324.081 1092.24 323.931 1092.19 323.778C1091.99 323.176 1091.75 322.567 1091.51 321.957C1091.47 321.848 1091.42 321.739 1091.38 321.631C1090.46 321.885 1087.79 322.595 1086.35 322.385C1084.92 322.174 1083.14 321.508 1082.4 320.158C1082.03 319.523 1081.95 318.765 1082.17 318.067C1082.38 317.368 1082.88 316.792 1083.54 316.477C1085.55 315.626 1088.88 317.73 1090.16 319.203C1090.2 319.255 1090.44 319.588 1090.71 320C1090.45 319.308 1090.16 318.615 1089.83 317.923C1089.09 316.341 1088.29 314.754 1087.49 313.156C1087.31 312.779 1087.12 312.402 1086.93 312.024C1086.72 311.612 1086.52 311.2 1086.32 310.788C1085.52 311.007 1082.58 311.796 1081.15 311.586C1079.71 311.375 1077.93 310.7 1077.19 309.351C1076.83 308.716 1076.74 307.958 1076.96 307.259C1077.18 306.561 1077.68 305.984 1078.34 305.669C1080.34 304.819 1083.67 306.923 1084.95 308.395C1084.99 308.395 1085.19 308.684 1085.43 309.042C1085.48 309.116 1085.54 309.194 1085.59 309.272C1085.06 308.194 1084.56 307.107 1084.08 306.011C1083.27 304.145 1082.58 302.227 1082.01 300.27C1081.74 300.349 1078.32 301.339 1076.7 301.102C1075.26 300.892 1073.48 300.226 1072.74 298.867C1072.38 298.233 1072.3 297.478 1072.51 296.781C1072.73 296.085 1073.23 295.51 1073.88 295.195C1075.9 294.344 1079.22 296.439 1080.5 297.921C1080.59 298.026 1081.6 299.507 1081.94 300.042C1081.94 300.019 1081.94 299.995 1081.94 299.972C1081.44 298.033 1081.1 296.053 1080.94 294.055C1080.8 292.274 1080.76 290.486 1080.82 288.699C1080.86 287.034 1081 285.518 1081.13 284.177C1081.2 283.539 1081.27 282.943 1081.35 282.389C1081.35 282.318 1081.36 282.248 1081.37 282.178C1081.34 282.196 1080.58 279.645 1080.58 279.478C1080.26 277.55 1080.77 273.641 1082.71 272.641C1083.37 272.32 1084.14 272.296 1084.81 272.576C1085.49 272.855 1086.02 273.412 1086.26 274.105C1086.83 275.534 1086.23 277.287 1085.45 278.576C1084.67 279.864 1082.15 281.652 1081.52 282.082C1081.44 282.73 1081.37 283.414 1081.3 284.177C1081.2 285.518 1081.09 287.034 1081.09 288.682V290.058C1081.16 289.694 1081.25 289.269 1081.33 288.909C1081.42 288.496 1081.49 288.168 1081.49 288.112C1082.09 286.263 1084.34 283.028 1086.53 283.028C1087.25 283.062 1087.93 283.398 1088.41 283.955C1088.88 284.512 1089.1 285.24 1089.01 285.965C1088.85 287.507 1087.53 288.778 1086.23 289.567C1084.92 290.356 1081.79 290.777 1081.1 290.856C1081.14 291.873 1081.19 292.924 1081.31 294.002C1081.5 295.972 1081.87 297.919 1082.41 299.823C1082.43 299.864 1082.45 299.905 1082.46 299.945C1082.5 300.015 1082.53 300.083 1082.53 300.156C1082.53 299.927 1082.61 299.098 1082.68 298.412C1082.72 297.917 1082.76 297.496 1082.76 297.43C1083.16 295.519 1085.04 292.057 1087.21 291.82C1087.93 291.774 1088.64 292.03 1089.17 292.529C1089.7 293.027 1090 293.722 1090 294.45C1090.01 295.992 1088.78 297.456 1087.63 298.333C1086.3 299.332 1082.69 300.208 1082.55 300.208C1083.14 302.087 1083.85 303.926 1084.68 305.713C1085.29 307.054 1085.96 308.36 1086.64 309.684C1086.65 309.39 1086.73 308.612 1086.79 307.967C1086.84 307.476 1086.88 307.062 1086.88 307.001C1087.27 305.091 1089.15 301.628 1091.32 301.392C1092.04 301.346 1092.76 301.602 1093.28 302.1C1093.81 302.599 1094.11 303.294 1094.11 304.021C1094.12 305.564 1092.89 307.028 1091.74 307.904C1090.45 308.895 1086.99 309.71 1086.7 309.771C1087.01 310.376 1087.31 310.972 1087.64 311.568C1087.79 311.865 1087.95 312.163 1088.11 312.46C1088.98 314.115 1089.86 315.766 1090.68 317.423C1091.01 318.107 1091.32 318.782 1091.63 319.466C1091.66 319.067 1091.71 318.501 1091.76 318.029C1091.8 317.587 1091.84 317.229 1091.84 317.169C1092.23 315.258 1094.11 311.796 1096.29 311.559C1097.02 311.5 1097.73 311.752 1098.27 312.253C1098.8 312.755 1099.09 313.458 1099.07 314.189C1099.09 315.732 1097.87 317.178 1096.71 318.072C1095.55 318.966 1092.66 319.702 1091.84 319.895C1092.37 321.035 1092.82 322.174 1093.24 323.314C1093.31 323.519 1093.39 323.725 1093.46 323.929C1093.56 324.222 1093.66 324.511 1093.75 324.795C1093.83 325.036 1093.9 325.277 1093.97 325.518C1094.04 325.759 1094.12 326 1094.19 326.241C1094.45 327.232 1094.7 328.161 1094.92 329.099C1095.04 329.598 1095.13 330.019 1095.24 330.475C1095.18 329.686 1095.11 328.433 1095.11 328.31C1095.21 326.364 1096.55 322.656 1098.66 322.095C1099.37 321.939 1100.12 322.087 1100.72 322.502C1101.31 322.918 1101.71 323.564 1101.82 324.287C1101.83 324.476 1101.83 324.667 1101.82 324.856C1102.68 326.345 1103.14 328.029 1103.16 329.747C1103.16 329.87 1102.96 331.343 1102.84 332.096C1102.87 332.039 1102.89 331.981 1102.91 331.922C1103.12 331.416 1103.33 330.894 1103.54 330.343C1103.77 329.774 1103.99 329.164 1104.2 328.564C1104.32 328.249 1104.43 327.937 1104.54 327.635C1104.61 327.429 1104.67 327.221 1104.74 327.012C1104.82 326.742 1104.91 326.47 1105 326.197C1105.11 325.883 1105.19 325.569 1105.28 325.252C1105.32 325.083 1105.37 324.913 1105.41 324.742C1105.6 324.015 1105.76 323.261 1105.92 322.507C1105.01 322.218 1102.4 321.333 1101.31 320.36C1100.23 319.387 1099.12 317.853 1099.24 316.31C1099.28 315.582 1099.63 314.905 1100.2 314.443C1100.76 313.981 1101.49 313.775 1102.21 313.873C1104.36 314.277 1105.98 317.87 1106.24 319.808V320.772C1106.37 320.035 1106.5 319.299 1106.61 318.545C1106.87 316.803 1107.08 315.032 1107.29 313.256C1107.34 312.843 1107.39 312.429 1107.44 312.015C1107.46 311.814 1107.49 311.625 1107.51 311.44C1107.55 311.174 1107.58 310.917 1107.61 310.648C1106.84 310.402 1103.94 309.421 1102.86 308.448C1101.78 307.475 1100.66 305.941 1100.79 304.398C1100.84 303.669 1101.18 302.994 1101.75 302.533C1102.32 302.073 1103.05 301.869 1103.77 301.97C1105.91 302.365 1107.53 305.958 1107.79 307.895V309.017C1107.95 307.825 1108.12 306.642 1108.33 305.467C1108.68 303.458 1109.16 301.473 1109.76 299.525C1109.49 299.446 1106.1 298.385 1104.87 297.289C1103.79 296.317 1102.68 294.774 1102.8 293.24C1102.85 292.511 1103.19 291.835 1103.76 291.373C1104.32 290.911 1105.05 290.704 1105.77 290.803C1107.93 291.198 1109.54 294.8 1109.8 296.728V299.235C1110.44 297.338 1111.26 295.501 1112.23 293.748C1113.09 292.18 1114.04 290.664 1115.07 289.208C1116.02 287.84 1116.95 286.657 1117.82 285.614C1118.19 285.133 1118.58 284.69 1118.95 284.281C1119.01 284.213 1119.07 284.146 1119.12 284.08H1119.08C1119.03 284.08 1119.83 281.547 1119.9 281.389ZM1098.03 342.475C1098.9 340.766 1100.1 338.294 1101.42 335.27C1101.57 334.918 1101.73 334.556 1101.89 334.188C1102.12 333.65 1102.36 333.1 1102.61 332.553C1101.02 331.828 1099.55 330.884 1098.23 329.748C1097.26 330.268 1096.26 330.737 1095.24 331.15C1095.49 332.272 1095.73 333.377 1095.94 334.411C1096.59 337.628 1097 340.371 1097.26 342.3C1097.31 342.599 1097.34 342.875 1097.37 343.132C1097.39 343.228 1097.4 343.322 1097.41 343.413H1097.56L1098.03 342.475Z" fill="white"/>
<path d="M1114.01 290.768C1114.01 290.768 1114.71 288.217 1114.73 288.051C1115 286.114 1114.38 282.222 1112.42 281.266C1111.75 280.984 1111 280.991 1110.33 281.287C1109.67 281.582 1109.16 282.14 1108.92 282.827C1108.4 284.282 1109.06 286.061 1109.86 287.288C1110.77 288.726 1114.01 290.768 1114.01 290.768Z" fill="#263238"/>
<path d="M242.872 300.646C242.872 300.415 242.114 277.509 238.517 273.885C235.015 270.366 231 273.756 230.826 273.885L230.463 273.444C230.507 273.404 235.047 269.569 238.906 273.444C242.669 277.227 243.408 299.644 243.433 300.599L242.872 300.646Z" fill="#E0E0E0"/>
<path d="M243.719 304.636C243.719 304.359 241.22 277.115 250.987 265.727L251.414 266.109C241.816 277.32 244.263 304.36 244.295 304.604L243.719 304.636Z" fill="#E0E0E0"/>
<path d="M243.176 301.643L242.612 301.604C242.612 301.296 244.491 270.803 237.446 264.158L237.828 263.731C245.067 270.587 243.252 300.379 243.176 301.643Z" fill="#E0E0E0"/>
<path d="M243.987 301.643H243.433C243.433 300.822 243.664 281.476 249.017 278.328C250.048 277.636 251.344 277.507 252.486 277.981C255.722 279.356 257.332 285.265 257.4 285.515L256.862 285.669C256.862 285.612 255.26 279.773 252.272 278.501C251.287 278.109 250.179 278.227 249.293 278.817C244.206 281.804 243.987 301.445 243.987 301.643Z" fill="#E0E0E0"/>
<path d="M242.347 301.643L241.763 301.611C241.763 301.464 242.618 286.4 238.4 281.088C237.378 279.81 236.27 279.171 235.083 279.273C232.317 279.459 230.003 283.36 229.976 283.395L229.465 283.114C229.564 282.942 231.959 278.915 235.044 278.704C236.414 278.615 237.697 279.298 238.851 280.749C243.216 286.227 242.386 301.017 242.347 301.643Z" fill="#E0E0E0"/>
<path d="M243.23 304.636C243.119 303.138 240.662 267.938 244.99 261.736L245.429 262.077C241.226 268.108 243.75 304.23 243.775 304.597L243.23 304.636Z" fill="#E0E0E0"/>
<path d="M254.443 281.922C254.443 281.922 251.786 282.936 252.55 285.331C253.314 287.726 261.734 291.666 261.734 291.666C261.734 291.666 265.25 288.326 262.025 282.899C258.799 277.472 254.538 280.209 254.443 281.922Z" fill="#EBEBEB"/>
<path d="M242.375 276.8C242.375 276.8 245.258 276.676 245.425 279.193C245.592 281.709 239.178 288.673 239.178 288.673C239.178 288.673 234.611 286.998 235.588 280.719C236.566 274.441 241.662 275.255 242.375 276.8Z" fill="#EBEBEB"/>
<path d="M239.629 265.329C239.629 265.329 241.588 265.11 241.428 263.863C241.268 262.617 233.847 259.411 229.465 264.596C229.465 264.596 232.266 269.65 236.321 269.717C240.376 269.784 239.629 265.329 239.629 265.329Z" fill="#EBEBEB"/>
<path d="M242.826 262.213C242.826 262.213 240.992 263.082 240.477 261.965C239.961 260.849 244.835 254.176 251.412 256.094C251.412 256.094 251.589 261.805 248.019 264.054C244.448 266.303 242.826 262.213 242.826 262.213Z" fill="#EBEBEB"/>
<path d="M234.491 280.439C234.491 280.439 235.878 279.385 234.376 278.875C232.874 278.366 225.536 278.509 225.475 285.339C225.475 285.339 234.032 286.669 235.097 284.077C236.161 281.486 234.491 280.439 234.491 280.439Z" fill="#EBEBEB"/>
<path d="M251.352 264.475C251.352 264.475 249.964 263.427 251.467 262.914C252.97 262.402 260.313 262.541 260.394 269.373C260.394 269.373 251.831 270.712 250.773 268.109C249.715 265.505 251.352 264.475 251.352 264.475Z" fill="#EBEBEB"/>
<path d="M246.884 270.586C246.884 270.586 246.762 269.351 247.817 269.827C248.873 270.302 252.528 274.106 248.731 277.699C248.731 277.699 243.621 274.075 244.542 272.179C245.462 270.284 246.884 270.586 246.884 270.586Z" fill="#EBEBEB"/>
<path d="M233.292 271.986C233.292 271.986 234.107 270.863 232.917 270.723C231.728 270.584 226.414 272.118 227.657 277.699C227.657 277.699 234.133 277.183 234.416 274.839C234.699 272.494 233.292 271.986 233.292 271.986Z" fill="#EBEBEB"/>
<path d="M255.007 321.597H232.849L230.463 297.652H257.4L255.007 321.597Z" fill="#F0F0F0"/>
<rect x="229.465" y="294.659" width="28.9326" height="4.98838" fill="#E6E6E6"/>
<path d="M58.8623 399.415H152.644V103.105H58.8623V399.415Z" fill="white"/>
<path d="M64.8477 376.469H146.657V111.087H64.8477V376.469Z" fill="#65656A"/>
<path d="M64.8477 175.936H146.657V111.087H64.8477V175.936Z" fill="#65656A"/>
<path fill-rule="evenodd" clip-rule="evenodd" d="M91.1437 163.964H72.4759V165.549H69.8379V175.936H93.7821V165.55H91.1437V163.964Z" fill="white" stroke="#263238"/>
<path fill-rule="evenodd" clip-rule="evenodd" d="M74.8262 173.941H88.7936V167.955H74.8262V173.941Z" fill="#E6007A"/>
<path fill-rule="evenodd" clip-rule="evenodd" d="M78.8174 162.966H84.4706L95.7779 127.05L82.0236 134.596L78.8174 162.966Z" fill="#E6007A"/>
<path fill-rule="evenodd" clip-rule="evenodd" d="M82.3085 115.078C78.1761 115.078 74.8262 118.428 74.8262 122.561C74.8262 126.693 78.1761 130.043 82.3085 130.043C86.4412 130.043 89.7913 126.693 89.7913 122.561C89.7913 120.576 89.003 118.673 87.5997 117.27C86.1964 115.866 84.2931 115.078 82.3085 115.078V115.078Z" fill="white"/>
<path fill-rule="evenodd" clip-rule="evenodd" d="M67.8428 127.05L79.1498 162.966H84.8033L82.3564 134.596L67.8428 127.05Z" fill="white"/>
<path d="M86.9746 126.76V125.583L84.9496 123.548H83.7296L86.9746 126.76Z" fill="black"/>
<path d="M78.2609 120.6V121.777L80.2863 123.812H81.5059L78.2609 120.6Z" fill="black"/>
<path d="M79.3242 119.342H80.5062L82.5506 121.358L84.5765 119.342H85.8115L82.5506 122.572L79.3242 119.342Z" fill="black"/>
<path d="M79.5225 127.918H80.7049L82.7489 125.902L84.7747 127.918H86.0098L82.7489 124.688L79.5225 127.918Z" fill="black"/>
<ellipse cx="82.628" cy="123.645" rx="0.542084" ry="0.539633" fill="#E6007A"/>
<path d="M133.688 252.757H146.657V197.885H133.688V252.757Z" fill="white"/>
<path d="M134.686 248.766H144.662V242.78H134.686V248.766Z" fill="white"/>
<path opacity="0.3" d="M146.657 252.757H133.688L135.013 247.151V248.598H145.332V242.656H136.076L146.657 197.885V252.757Z" fill="black"/>
<path opacity="0.3" d="M144.662 248.766H134.686V247.308L135.715 242.78H144.662V248.766Z" fill="black"/>
<path d="M119.721 252.757H132.691V197.885H119.721V252.757Z" fill="white"/>
<path d="M120.718 248.766H130.695V242.78H120.718V248.766Z" fill="white"/>
<path opacity="0.3" d="M132.691 252.757H119.721L121.046 247.151V248.598H131.367V242.656H122.109L132.691 197.885V252.757Z" fill="black"/>
<path d="M130.695 248.766H120.718V247.308L121.747 242.78H130.695V248.766Z" fill="#E5E5E5"/>
<path d="M105.753 252.757H118.723V197.885H105.753V252.757Z" fill="white"/>
<path d="M106.75 248.766H116.727V242.78H106.75V248.766Z" fill="white"/>
<path opacity="0.3" d="M118.723 252.757H105.753L107.08 247.153V248.599H117.398V242.656H108.141L118.723 197.885V252.757Z" fill="black"/>
<path opacity="0.3" d="M116.727 248.766H106.75V247.31L107.779 242.78H116.727V248.766Z" fill="black"/>
<path d="M132.69 333.569H146.658V275.704H132.69V333.569Z" fill="white"/>
<path d="M133.688 301.643H144.662V278.696H133.688V301.643Z" fill="white"/>
<path d="M146.28 275.704H146.038L146.28 274.706V275.704Z" fill="#9A6927"/>
<path opacity="0.1" d="M146.658 332.572H132.69L140.321 301.21H145.232V281.029L146.527 275.704H146.658V332.572Z" fill="black"/>
<path d="M144.662 300.646H139.674L144.662 280.692V300.646Z" fill="#E5E5E5"/>
<path d="M143.664 325.587C143.664 326.646 143.243 327.661 142.495 328.41C141.747 329.158 140.732 329.578 139.674 329.578C137.471 329.579 135.684 327.792 135.683 325.587C135.684 323.382 137.471 321.596 139.674 321.597C140.732 321.596 141.747 322.017 142.495 322.765C143.243 323.513 143.664 324.529 143.664 325.587Z" fill="#4D4D4D"/>
<path opacity="0.2" fill-rule="evenodd" clip-rule="evenodd" d="M134.686 326.086C134.689 328.566 136.698 330.575 139.175 330.576C141.652 330.574 143.66 328.566 143.665 326.086C143.66 323.607 141.652 321.599 139.175 321.597C136.698 321.598 134.689 323.607 134.686 326.086ZM135.975 326.087C135.977 324.319 137.409 322.886 139.175 322.884C140.942 322.886 142.374 324.319 142.375 326.087C142.374 327.855 140.942 329.288 139.175 329.29C137.409 329.288 135.977 327.855 135.975 326.087Z" fill="black"/>
<path d="M134.686 282.688H143.665V280.692H134.686V282.688Z" fill="#4D4D4D"/>
<path d="M134.686 285.681H143.665V283.686H134.686V285.681Z" fill="#4D4D4D"/>
<path d="M134.686 289.671H143.665V287.676H134.686V289.671Z" fill="#4D4D4D"/>
<path d="M104.755 333.569H118.722V275.704H104.755V333.569Z" fill="white"/>
<path d="M64.8477 252.757H71.8314V200.878H64.8477V252.757Z" fill="white"/>
<path d="M106.75 301.643H117.724V278.696H106.75V301.643Z" fill="white"/>
<path d="M119.342 333.569V276.247H119.101L119.342 275.704V333.569Z" fill="#9A6927"/>
<path opacity="0.1" d="M104.755 332.572L112.385 301.209L117.296 281.029L118.591 275.704H118.722V332.571L104.755 332.572Z" fill="black"/>
<path d="M115.729 325.587C115.729 326.646 115.309 327.661 114.56 328.41C113.812 329.158 112.798 329.578 111.74 329.578C109.537 329.579 107.75 327.792 107.748 325.587C107.75 323.382 109.537 321.596 111.74 321.597C112.798 321.596 113.812 322.017 114.56 322.765C115.309 323.513 115.729 324.529 115.729 325.587Z" fill="#4D4D4D"/>
<path opacity="0.2" fill-rule="evenodd" clip-rule="evenodd" d="M107.749 326.086C107.752 328.566 109.761 330.575 112.238 330.576C114.715 330.575 116.724 328.566 116.728 326.086C116.724 323.606 114.715 321.598 112.238 321.597C109.761 321.598 107.752 323.607 107.749 326.086ZM109.035 326.087C109.038 324.317 110.471 322.884 112.238 322.884C114.004 322.886 115.436 324.319 115.437 326.087C115.436 327.855 114.004 329.288 112.238 329.29C110.471 329.289 109.038 327.856 109.035 326.087Z" fill="black"/>
<path d="M107.748 282.688H116.727V280.692H107.748V282.688Z" fill="#4D4D4D"/>
<path d="M107.748 286.678H116.727V284.683H107.748V286.678Z" fill="#4D4D4D"/>
<path d="M107.748 289.671H116.727V287.676H107.748V289.671Z" fill="#4D4D4D"/>
<path d="M118.723 333.569H132.69V275.704H118.723V333.569Z" fill="white"/>
<path d="M120.718 301.643H131.692V278.696H120.718V301.643Z" fill="white"/>
<path opacity="0.1" d="M132.69 333.569H118.723L126.48 301.432H131.262V281.618L132.69 275.704V333.569Z" fill="black"/>
<path d="M131.692 301.643H126.704L131.692 281.689V301.643Z" fill="#E5E5E5"/>
<path d="M129.697 325.587C129.697 326.646 129.276 327.661 128.528 328.41C127.78 329.158 126.765 329.578 125.707 329.578C124.648 329.578 123.634 329.158 122.885 328.41C122.137 327.661 121.716 326.646 121.716 325.587C121.716 324.529 122.137 323.513 122.885 322.765C123.634 322.017 124.648 321.596 125.707 321.597C126.765 321.596 127.78 322.017 128.528 322.765C129.276 323.513 129.697 324.529 129.697 325.587Z" fill="#4D4D4D"/>
<path opacity="0.2" fill-rule="evenodd" clip-rule="evenodd" d="M121.716 326.086C121.72 328.566 123.728 330.574 126.205 330.576C128.682 330.575 130.692 328.566 130.695 326.086C130.692 323.606 128.682 321.597 126.205 321.597C123.728 321.599 121.72 323.607 121.716 326.086ZM123.005 326.087C123.006 324.319 124.438 322.886 126.204 322.884C127.971 322.886 129.402 324.319 129.404 326.087C129.402 327.855 127.971 329.288 126.204 329.29C124.438 329.288 123.006 327.855 123.005 326.087Z" fill="black"/>
<path d="M121.716 282.688H130.695V280.692H121.716V282.688Z" fill="#4D4D4D"/>
<path d="M121.716 285.681H130.695V283.686H121.716V285.681Z" fill="#4D4D4D"/>
<path d="M121.716 289.671H130.695V287.676H121.716V289.671Z" fill="#4D4D4D"/>
<path d="M64.8477 259.741H146.657V252.757H64.8477V259.741Z" fill="#263238"/>
<path d="M64.8477 340.553H146.657V333.569H64.8477V340.553Z" fill="#263238"/>
<path d="M64.8477 399.416H146.657V340.553H64.8477V399.416Z" fill="#65656A"/>
<path d="M66.3818 398.418H64.8477V339.555H146.657V341.108H66.3818V398.418Z" fill="#4C4C52"/>
<path d="M88.792 252.757H94.7781V202.873H88.792V252.757Z" fill="white"/>
<path opacity="0.3" d="M89.79 224.822H93.7807V210.854H89.79V224.822Z" fill="black"/>
<path opacity="0.3" d="M88.792 246.771H94.7781V243.778H88.792V246.771Z" fill="black"/>
<path d="M64.8477 182.919H146.657V175.936H64.8477V182.919Z" fill="#263238"/>
<path d="M85.7988 252.757H88.7919V199.88H85.7988V252.757Z" fill="#464740"/>
<path d="M85.7988 252.757H87.7942V199.88H85.7988V252.757Z" fill="white"/>
<path d="M73.8271 252.757H84.8016V201.876H73.8271V252.757Z" fill="white"/>
<path opacity="0.3" d="M73.8271 252.757H84.8016V237.792H73.8271V252.757Z" fill="black"/>
<path opacity="0.3" d="M73.8271 205.866H84.8016V204.868H73.8271V205.866Z" fill="black"/>
<path opacity="0.3" d="M76.8203 234.799H81.8087V206.864H76.8203V234.799Z" fill="black"/>
<path d="M70.834 252.757H73.827V206.864H70.834V252.757Z" fill="white"/>
<path opacity="0.3" d="M64.8477 252.757H71.8314V206.864H64.8477V252.757Z" fill="black"/>
<path opacity="0.3" d="M64.8477 249.764H71.8314V247.769H64.8477V249.764Z" fill="black"/>
<defs>
<linearGradient id="paint0_linear" x1="308.969" y1="598.606" x2="743.47" y2="-73.4403" gradientUnits="userSpaceOnUse">
<stop stop-color="#1C1C26"/>
<stop offset="1" stop-color="#2F313B"/>
</linearGradient>
<linearGradient id="paint1_linear" x1="-44923.9" y1="-3837.83" x2="-44919.7" y2="1998.22" gradientUnits="userSpaceOnUse">
<stop stop-color="#2E303C"/>
<stop offset="1" stop-color="#73747C"/>
</linearGradient>
</defs>
</svg>
