<svg width="133" height="208" viewBox="0 0 133 208" fill="none" xmlns="http://www.w3.org/2000/svg">
<path opacity="0.1" d="M0.265625 70.7227L0.265625 207.499C51.7351 207.499 80.5919 207.499 132.061 207.499V70.7227L66.1635 108.771L0.265625 70.7227Z" fill="url(#paint0_linear_209_1811)"/>
<path opacity="0.3" d="M0.265625 70.7227L0.265625 185.533H66.1635V108.771L0.265625 70.7227Z" fill="url(#paint1_linear_209_1811)"/>
<path d="M0.114746 70.6348L66.227 32.4648L132.339 70.6348L66.227 108.805L0.114746 70.6348Z" fill="url(#paint2_linear_209_1811)"/>
<path opacity="0.1" fill-rule="evenodd" clip-rule="evenodd" d="M41.0844 94.1981C40.5778 94.1981 40.094 94.0958 39.7324 93.8871L23.314 84.3982C22.5163 83.9372 22.6161 83.1328 23.5377 82.601L27.7124 80.1908L39.6748 87.1046C40.0339 87.3117 40.5144 87.4132 41.0177 87.4132C41.6253 87.4132 42.2661 87.2653 42.7664 86.9762L68.2763 71.8389L72.7422 74.4197C73.5399 74.8803 73.4401 75.6851 72.5189 76.2169L42.8459 93.7578C42.3419 94.049 41.6965 94.1981 41.0844 94.1981Z" fill="url(#paint3_radial_209_1811)"/>
<path opacity="0.1" fill-rule="evenodd" clip-rule="evenodd" d="M110.016 78.6846C109.543 78.6846 109.091 78.5905 108.754 78.3985L55.9294 48.8207C55.1842 48.3967 55.2775 47.6569 56.1383 47.1678L60.0378 44.9512L108.7 72.1608C109.035 72.3512 109.484 72.4446 109.954 72.4446C110.522 72.4446 111.12 72.3086 111.588 72.0427L109.954 61.1383L123.174 70.1188C123.92 70.5424 123.826 71.2825 122.966 71.7716L111.662 78.2797C111.191 78.5475 110.588 78.6846 110.016 78.6846Z" fill="url(#paint4_radial_209_1811)"/>
<path fill-rule="evenodd" clip-rule="evenodd" d="M37.077 91.2745C36.5738 91.2745 36.0933 91.173 35.7342 90.9659L23.7718 84.0521L19.7023 81.6998C19.3945 81.5221 19.223 81.2927 19.1795 81.0483L19.1783 81.0491L18.8531 79.4259C18.9074 79.6583 19.0793 79.8749 19.3734 80.0447L35.7918 89.5336C36.1534 89.7423 36.6372 89.8446 37.1437 89.8446C37.7559 89.8446 38.4012 89.6955 38.9053 89.4043L74.043 69.1177C74.4762 68.8676 74.7281 68.5569 74.7898 68.25L74.4572 69.8347L74.4551 69.8322C74.3934 70.1371 74.1457 70.4457 73.7158 70.6942L69.8004 72.9545L38.8258 90.8375C38.3254 91.1266 37.6847 91.2745 37.077 91.2745Z" fill="#8BA1BE" fill-opacity="0.2"/>
<path fill-rule="evenodd" clip-rule="evenodd" d="M37.1622 89.6492C36.6557 89.6492 36.1719 89.5469 35.8103 89.3381L19.3919 79.8493C19.0978 79.6794 18.9259 79.4628 18.8717 79.2304C18.7793 78.8324 19.0336 78.3876 19.6155 78.0517L54.7528 57.765C55.2569 57.4743 55.9022 57.3252 56.5136 57.3252C57.0206 57.3252 57.5047 57.4275 57.8663 57.6362L65.1107 61.8229L65.5245 62.062L74.2848 67.1247C74.7072 67.3687 74.8779 67.7091 74.8083 68.0546C74.7466 68.3615 74.4947 68.6721 74.0615 68.9223L38.9238 89.2089C38.4197 89.5001 37.7744 89.6492 37.1622 89.6492Z" fill="#E3E9F0"/>
<path fill-rule="evenodd" clip-rule="evenodd" d="M38.1957 86.9034C37.7587 86.9034 37.342 86.8152 37.0301 86.6354L23.6863 78.9251C22.9983 78.5279 23.0845 77.8341 23.8789 77.3756L53.7318 60.1358C54.1667 59.8852 54.723 59.7568 55.2507 59.7568C55.6873 59.7568 56.1044 59.8451 56.4158 60.0248L69.8674 67.7968C70.5549 68.1945 70.4688 68.8878 69.6743 69.3468L39.7141 86.5236C39.2796 86.7746 38.723 86.9034 38.1957 86.9034Z" fill="#8BA1BE" fill-opacity="0.2"/>
<path d="M74.0525 68.5672L38.9148 88.8538C37.9932 89.3856 36.5994 89.4436 35.8013 88.983L19.3829 79.4938C19.1111 79.3372 18.9517 79.1388 18.885 78.9259C18.7794 79.2933 18.9343 79.6611 19.3829 79.9204L35.8013 89.4093C36.5994 89.8698 37.9932 89.8123 38.9148 89.28L74.0525 68.9934C74.6597 68.6426 74.902 68.1746 74.7736 67.7637C74.6916 68.0495 74.4555 68.3344 74.0525 68.5672Z" fill="white"/>
<path d="M36.5116 80.4796C36.2598 80.6246 36.2697 80.8764 36.5323 81.0421L38.0889 82.0216C38.3519 82.1873 38.769 82.2043 39.02 82.0589C39.2718 81.914 39.2623 81.6621 38.9988 81.4969L37.4431 80.5169C37.1801 80.3512 36.763 80.3346 36.5116 80.4796Z" fill="white"/>
<path fill-rule="evenodd" clip-rule="evenodd" d="M37.0395 88.5826C36.5442 88.5826 36.0716 88.4828 35.7182 88.2786L20.5921 79.539C19.8126 79.0887 19.9104 78.3022 20.8108 77.7824L54.6508 58.2409C55.1429 57.9563 55.7737 57.8105 56.3714 57.8105C56.8668 57.8105 57.3394 57.9108 57.6923 58.1146L72.9402 66.925C73.7201 67.3748 73.6219 68.1614 72.7219 68.6812L38.7601 88.1526C38.2681 88.4368 37.6372 88.5826 37.0395 88.5826ZM55.2402 59.6276C54.7125 59.6276 54.1563 59.756 53.7214 60.0066L23.8685 77.2464C23.074 77.7049 22.9879 78.3987 23.6759 78.7959L37.0197 86.5062C37.3315 86.686 37.7482 86.7742 38.1852 86.7742C38.7125 86.7742 39.2692 86.6454 39.7037 86.3944L69.6639 69.2176C70.4583 68.7586 70.5445 68.0653 69.8569 67.6676L56.4054 59.8956C56.0939 59.7159 55.6768 59.6276 55.2402 59.6276Z" fill="white"/>
<path opacity="0.1" d="M38.6959 79.5089C38.4449 79.6543 38.454 79.9057 38.717 80.0714L40.0789 80.9287C40.3419 81.094 40.759 81.111 41.0105 80.9656C41.2623 80.8207 41.2523 80.5688 40.9893 80.4036L39.6274 79.5462C39.3648 79.3805 38.9477 79.3639 38.6959 79.5089Z" fill="#EE3C96"/>
<path d="M39.1817 77.3247C38.9303 77.4692 38.9394 77.7211 39.2028 77.8867L42.0836 79.7005C42.347 79.8662 42.7637 79.8828 43.0151 79.7378C43.2669 79.5928 43.2574 79.341 42.994 79.1753L40.1128 77.3615C39.8502 77.1959 39.4331 77.1793 39.1817 77.3247Z" fill="white"/>
<path opacity="0.5" d="M39.4211 75.1425C39.1697 75.2875 39.1788 75.5393 39.4418 75.705L43.9835 78.5638C44.2465 78.7295 44.6636 78.7461 44.9151 78.6011C45.1665 78.4561 45.1569 78.2043 44.8939 78.0386L40.3522 75.1798C40.0896 75.0145 39.6725 74.9976 39.4211 75.1425Z" fill="white"/>
<path opacity="0.1" d="M41.8482 74.413C41.5968 74.5584 41.6063 74.8098 41.8693 74.9755L45.9342 77.5344C46.1977 77.7005 46.6143 77.7171 46.8658 77.5717C47.1172 77.4267 47.1081 77.1753 46.8446 77.0096L42.7797 74.4503C42.5167 74.2851 42.0996 74.2681 41.8482 74.413Z" fill="#EE3C96"/>
<path d="M40.8783 71.2592C40.6268 71.4042 40.6364 71.656 40.899 71.8213L47.9987 76.2905C48.2617 76.4566 48.6788 76.4731 48.9298 76.3277C49.1813 76.1832 49.1722 75.9314 48.9091 75.7657L41.8098 71.2965C41.5468 71.1304 41.1297 71.1138 40.8783 71.2592Z" fill="white"/>
<path d="M35.9637 79.5441C36.2226 79.7069 36.2317 79.9546 35.9844 80.097C35.7372 80.2399 35.3271 80.2234 35.0686 80.0606C34.8098 79.8978 34.8003 79.6501 35.0479 79.5072C35.2952 79.3647 35.7053 79.3809 35.9637 79.5441Z" fill="white"/>
<path d="M34.5094 78.5729C34.7679 78.736 34.777 78.9837 34.5297 79.1262C34.2829 79.2687 33.8724 79.2526 33.6135 79.0894C33.3551 78.9266 33.346 78.6789 33.5932 78.5364C33.8401 78.3939 34.2506 78.4105 34.5094 78.5729Z" fill="white"/>
<path opacity="0.5" d="M50.7988 71.14L51.8981 70.5179C52.1039 70.4015 52.4357 70.4048 52.6391 70.5245C52.8429 70.6446 52.8412 70.836 52.6353 70.9524L51.5361 71.5741C51.3306 71.6909 50.9989 71.688 50.7951 71.5679C50.5913 71.4482 50.5929 71.2564 50.7988 71.14Z" fill="white"/>
<path d="M49.1048 70.331L52.2076 68.5756C52.4134 68.4593 52.7452 68.4622 52.9486 68.5823C53.152 68.702 53.1503 68.8933 52.9449 69.0101L49.8417 70.7655C49.6362 70.8819 49.3045 70.879 49.1011 70.7589C48.8973 70.6392 48.899 70.4474 49.1048 70.331Z" fill="white"/>
<path d="M57.0731 68.0959C57.2773 68.2156 57.2753 68.4074 57.0698 68.5238L53.9663 70.2795C53.7608 70.3955 53.429 70.3926 53.2253 70.2729C53.0219 70.1528 53.0235 69.9614 53.2294 69.845L56.3321 68.0897C56.538 67.9729 56.8698 67.9758 57.0731 68.0959Z" fill="white"/>
<path opacity="0.5" d="M59.3984 67.0849L59.2161 67.1876L58.3343 67.6863C58.1288 67.8027 57.7975 67.7998 57.5933 67.6801C57.3899 67.56 57.3916 67.3686 57.5974 67.2518L58.4788 66.7531L58.6611 66.65L59.5425 66.1513C59.7484 66.0353 60.0801 66.0386 60.2835 66.1583C60.4873 66.2781 60.4856 66.4694 60.2802 66.5858L59.3984 67.0849Z" fill="white"/>
<path d="M109.574 77.1733C109.828 77.3205 110.091 77.3897 110.342 77.3897C110.5 77.3897 110.654 77.3622 110.798 77.309C111.218 77.1554 111.566 76.7863 111.731 76.2494L124.364 35.2306C124.677 34.2136 124.219 32.9775 123.34 32.4708L67.4756 0.216879C67.2207 0.0696969 66.9589 0 66.7076 0C66.5655 0 66.427 0.0224695 66.2949 0.0655695C65.8552 0.209083 65.4893 0.584601 65.3188 1.14032L56.6988 29.1274L56.5603 29.5762L52.685 42.1596C52.3869 43.128 52.7881 44.2944 53.5855 44.8414C53.6254 44.8689 53.6667 44.8951 53.7088 44.9194L109.511 77.1366L109.574 77.1733Z" fill="#E3E9F0"/>
<path fill-rule="evenodd" clip-rule="evenodd" d="M110.116 76.7219C109.872 76.7219 109.619 76.655 109.373 76.5135L54.6603 45.0406C53.9941 44.6576 53.5774 43.8423 53.5761 43.0362C53.5756 42.8154 53.6062 42.5955 53.671 42.3854L65.8666 2.96802C66.0814 2.27299 66.6143 1.87109 67.2092 1.87109C67.4518 1.87109 67.705 1.93793 67.9513 2.07942L122.664 33.5528C123.331 33.9354 123.747 34.7512 123.749 35.5568C123.749 35.778 123.719 35.9974 123.653 36.2076L111.458 75.625C111.243 76.32 110.71 76.7219 110.116 76.7219Z" fill="white"/>
<path fill-rule="evenodd" clip-rule="evenodd" d="M101.526 64.5156C101.361 64.5156 101.189 64.4698 101.022 64.373L64.3406 43.1958C63.7643 42.8625 63.463 42.0513 63.6689 41.3833L71.9634 14.4499C72.1096 13.9758 72.4714 13.7012 72.8758 13.7012C73.0409 13.7012 73.2128 13.747 73.3802 13.8433L76.3742 15.5719L110.061 35.0219C110.638 35.3543 110.939 36.1659 110.734 36.834L102.984 61.9947L102.438 63.7669C102.292 64.241 101.931 64.5156 101.526 64.5156ZM97.667 31.4309C97.369 31.4309 97.1021 31.6335 96.9944 31.9834L90.8774 51.8428C90.7261 52.3353 90.9485 52.9341 91.373 53.1794L100.154 58.229C100.277 58.3 100.404 58.334 100.526 58.334C100.824 58.334 101.091 58.1318 101.198 57.7819L107.315 37.922C107.466 37.4296 107.245 36.8312 106.819 36.5854L98.0384 31.5359C97.9155 31.4648 97.7885 31.4309 97.667 31.4309ZM80.731 41.2439C80.6251 41.2439 80.5316 41.315 80.4949 41.4379C80.4431 41.6125 80.5251 41.8253 80.6787 41.9142L81.6838 42.4943C81.7292 42.5209 81.7755 42.5332 81.82 42.5332C81.9259 42.5332 82.0199 42.4622 82.0566 42.3398C82.1084 42.1651 82.0263 41.9518 81.8722 41.8629L80.8672 41.2829C80.8218 41.2563 80.7755 41.2439 80.731 41.2439ZM76.5975 38.8509C76.4916 38.8509 76.3981 38.9215 76.3609 39.0444C76.3091 39.2191 76.3917 39.4323 76.5457 39.5213L79.311 41.1183C79.3564 41.1444 79.4027 41.1568 79.4472 41.1568C79.5531 41.1568 79.6471 41.0857 79.6838 40.9628C79.736 40.7886 79.6535 40.5749 79.4994 40.4864L76.7342 38.8894C76.6888 38.8633 76.642 38.8509 76.5975 38.8509ZM73.2825 36.9371C73.1766 36.9371 73.0826 37.0077 73.0464 37.1306C72.9941 37.3053 73.0766 37.5185 73.2307 37.607L75.4068 38.8633C75.4522 38.8899 75.4989 38.9023 75.5434 38.9023C75.6493 38.9023 75.7429 38.8317 75.7795 38.7088C75.8314 38.5341 75.7488 38.3209 75.5948 38.2324L73.4187 36.9756C73.3733 36.9495 73.3265 36.9371 73.2825 36.9371ZM71.0275 37.1865C70.9216 37.1865 70.8281 37.2572 70.7914 37.38C70.7387 37.5547 70.8212 37.7684 70.9753 37.8569L72.5397 38.7602C72.5856 38.7863 72.6319 38.7991 72.6764 38.7991C72.7823 38.7991 72.8758 38.7281 72.9129 38.6052C72.9648 38.4305 72.8822 38.2173 72.7282 38.1283L71.1637 37.2251C71.1183 37.1989 71.072 37.1865 71.0275 37.1865ZM76.5375 35.7129C76.4315 35.7129 76.3376 35.784 76.3009 35.9064C76.2491 36.0811 76.3316 36.2947 76.4857 36.3832L78.9295 37.7945C78.9749 37.8207 79.0217 37.833 79.0661 37.833C79.1721 37.833 79.2651 37.7624 79.3018 37.6396C79.3541 37.4649 79.2716 37.2517 79.118 37.1627L76.6741 35.7514C76.6287 35.7253 76.5819 35.7129 76.5375 35.7129ZM71.4223 35.8628C71.3164 35.8628 71.2229 35.9339 71.1857 36.0563C71.1339 36.231 71.2165 36.4442 71.3701 36.5332L72.1954 37.01C72.2408 37.0361 72.2875 37.0485 72.332 37.0485C72.4379 37.0485 72.5315 36.9775 72.5686 36.855C72.6204 36.6804 72.5379 36.4667 72.3838 36.3782L71.559 35.9013C71.5131 35.8752 71.4668 35.8628 71.4223 35.8628ZM73.8043 34.1352C73.6984 34.1352 73.6048 34.2058 73.5677 34.3286C73.5159 34.5033 73.5984 34.7175 73.7525 34.8055L75.41 35.7624C75.4554 35.7885 75.5017 35.8009 75.5462 35.8009C75.6521 35.8009 75.7461 35.7303 75.7823 35.6074C75.8346 35.4327 75.752 35.2195 75.5984 35.1306L73.9409 34.1741C73.8955 34.1475 73.8488 34.1352 73.8043 34.1352ZM72.2119 33.2154C72.106 33.2154 72.0124 33.2864 71.9757 33.4093C71.9235 33.584 72.006 33.7972 72.1601 33.8862L72.8244 34.27C72.8698 34.2966 72.9162 34.3085 72.9606 34.3085C73.0665 34.3085 73.1605 34.2379 73.1972 34.115C73.249 33.9407 73.1665 33.7266 73.0129 33.6386L72.3481 33.2548C72.3027 33.2282 72.2564 33.2154 72.2119 33.2154ZM75.1234 31.7931C75.0175 31.7931 74.9235 31.8642 74.8868 31.9866C74.835 32.1613 74.9175 32.3749 75.0711 32.4634L77.8369 34.0604C77.8823 34.087 77.9286 34.0989 77.9731 34.0989C78.079 34.0989 78.173 34.0283 78.2092 33.9054C78.2619 33.7312 78.1789 33.5171 78.0253 33.429L75.2596 31.8316C75.2142 31.8055 75.1679 31.7931 75.1234 31.7931ZM73.0014 30.5684C72.8955 30.5684 72.802 30.639 72.7653 30.7624C72.7135 30.9366 72.796 31.1498 72.9496 31.2387L73.9854 31.8366C74.0303 31.8628 74.0771 31.8752 74.1216 31.8752C74.2275 31.8752 74.321 31.8045 74.3577 31.6812C74.4095 31.5074 74.3274 31.2938 74.1738 31.2048L73.1381 30.6074C73.0927 30.5808 73.0459 30.5684 73.0014 30.5684ZM80.3087 28.5808C80.2028 28.5808 80.1093 28.6514 80.0726 28.7747C80.0208 28.9489 80.1028 29.1621 80.2569 29.2516L82.7008 30.6624C82.7466 30.6885 82.7929 30.7009 82.8374 30.7009C82.9433 30.7009 83.0369 30.6303 83.074 30.5074C83.1258 30.3327 83.0433 30.1191 82.8892 30.0306L80.4454 28.6197C80.4 28.5931 80.3532 28.5808 80.3087 28.5808ZM73.7914 27.921C73.6855 27.921 73.592 27.992 73.5553 28.1149C73.503 28.2891 73.5851 28.5028 73.7392 28.5913L76.9034 30.4185C76.9488 30.4446 76.9951 30.457 77.0395 30.457C77.1455 30.457 77.239 30.3859 77.2757 30.263C77.3279 30.0888 77.2454 29.8751 77.0918 29.7866L73.9281 27.9595C73.8822 27.9333 73.8359 27.921 73.7914 27.921ZM77.1473 26.7554C77.0414 26.7554 76.9474 26.826 76.9107 26.9489C76.8589 27.1236 76.9414 27.3368 77.095 27.4258L78.7525 28.3827C78.7979 28.4088 78.8447 28.4212 78.8887 28.4212C78.9951 28.4212 79.0886 28.3506 79.1258 28.2277C79.1776 28.053 79.095 27.8393 78.941 27.7509L77.2835 26.7939C77.2381 26.7678 77.1918 26.7554 77.1473 26.7554ZM72.8043 25.7994C72.6979 25.7994 72.6044 25.87 72.5677 25.9929C72.5159 26.1676 72.5979 26.3808 72.752 26.4698L73.7873 27.0677C73.8327 27.0938 73.879 27.1062 73.9235 27.1062C74.0294 27.1062 74.1234 27.0356 74.1601 26.9122C74.2124 26.738 74.1298 26.5243 73.9758 26.4358L72.9404 25.8379C72.8951 25.8118 72.8487 25.7994 72.8043 25.7994Z" fill="#E3E9F0"/>
<path fill-rule="evenodd" clip-rule="evenodd" d="M100.432 58.3338C100.31 58.3338 100.183 58.2998 100.06 58.2288L91.2791 53.1792C90.8545 52.9339 90.6321 52.3351 90.7834 51.8426L96.9004 31.9832C97.0082 31.6333 97.275 31.4307 97.5731 31.4307C97.6946 31.4307 97.8216 31.4646 97.9445 31.5357L106.725 36.5852C107.151 36.831 107.372 37.4294 107.221 37.9218L101.104 57.7817C100.997 58.1316 100.73 58.3338 100.432 58.3338Z" fill="#8BA1BE" fill-opacity="0.2"/>
<path d="M110.184 35.0217L73.5029 13.8431C73.1412 13.6345 72.7574 13.6639 72.4708 13.8784C72.6437 13.8734 72.8243 13.9128 73.0009 14.0142L109.682 35.1923C110.258 35.5247 110.559 36.3368 110.354 37.0044L102.059 63.9373C101.982 64.1867 101.845 64.3806 101.674 64.5086C102.068 64.4971 102.418 64.2307 102.561 63.7667L110.856 36.8338C111.062 36.1657 110.761 35.3542 110.184 35.0217Z" fill="white"/>
<path fill-rule="evenodd" clip-rule="evenodd" d="M96.5682 58.7665L87.7877 53.7174C87.3627 53.4716 87.1403 52.8733 87.2916 52.3808L93.4086 32.5204C93.5599 32.028 94.0281 31.8281 94.4531 32.0739L103.234 37.123C103.659 37.3687 103.881 37.9671 103.729 38.4595L97.6127 58.3195C97.4609 58.8119 96.9937 59.0123 96.5682 58.7665Z" fill="white"/>
<path d="M103.283 37.1217L94.5021 32.0725C94.2141 31.9056 93.9092 31.9478 93.6932 32.1432C93.7946 32.1528 93.8982 32.1849 93.9995 32.2431L102.78 37.2927C103.205 37.5385 103.427 38.1363 103.276 38.6288L97.1587 58.4892C97.1101 58.6483 97.0257 58.7725 96.9235 58.8652C97.2472 58.8977 97.5461 58.6932 97.6616 58.3182L103.778 38.4582C103.93 37.9658 103.708 37.3679 103.283 37.1217Z" fill="#8BA1BE" fill-opacity="0.2"/>
<path opacity="0.1" fill-rule="evenodd" clip-rule="evenodd" d="M79.0294 28.529C78.9854 28.529 78.9386 28.5167 78.8932 28.4905L77.2357 27.5336C77.0821 27.4447 76.9996 27.2315 77.0514 27.0568C77.088 26.9339 77.182 26.8633 77.288 26.8633C77.3324 26.8633 77.3787 26.8757 77.4241 26.9018L79.0817 27.8587C79.2357 27.9472 79.3182 28.1609 79.2664 28.3356C79.2293 28.4584 79.1358 28.529 79.0294 28.529Z" fill="#E6007A"/>
<path opacity="0.1" fill-rule="evenodd" clip-rule="evenodd" d="M82.7719 30.8662C82.7274 30.8662 82.6811 30.8539 82.6353 30.8277L80.1914 29.4169C80.0374 29.3275 79.9553 29.1143 80.0071 28.94C80.0438 28.8167 80.1373 28.7461 80.2432 28.7461C80.2877 28.7461 80.3345 28.7585 80.3799 28.7851L82.8237 30.1959C82.9778 30.2844 83.0603 30.4981 83.0085 30.6728C82.9714 30.7956 82.8778 30.8662 82.7719 30.8662Z" fill="#E6007A"/>
<path opacity="0.1" fill-rule="evenodd" clip-rule="evenodd" d="M75.5364 35.7869C75.492 35.7869 75.4456 35.7745 75.4002 35.7484L73.7427 34.7914C73.5887 34.7034 73.5061 34.4893 73.558 34.3146C73.5951 34.1917 73.6886 34.1211 73.7945 34.1211C73.839 34.1211 73.8858 34.1335 73.9312 34.1601L75.5887 35.1165C75.7423 35.2055 75.8248 35.4187 75.7726 35.5934C75.7363 35.7163 75.6423 35.7869 75.5364 35.7869Z" fill="#E6007A"/>
<path opacity="0.1" fill-rule="evenodd" clip-rule="evenodd" d="M79.0108 37.8516C78.9664 37.8516 78.9196 37.8392 78.8742 37.8131L76.4303 36.4018C76.2763 36.3133 76.1938 36.0996 76.2456 35.9249C76.2823 35.8025 76.3762 35.7314 76.4822 35.7314C76.5266 35.7314 76.5734 35.7438 76.6188 35.77L79.0627 37.1813C79.2163 37.2702 79.2988 37.4834 79.2465 37.6581C79.2098 37.781 79.1168 37.8516 79.0108 37.8516Z" fill="#E6007A"/>
<path opacity="0.1" fill-rule="evenodd" clip-rule="evenodd" d="M73.8422 27.0958C73.7977 27.0958 73.7514 27.0834 73.706 27.0573L72.6707 26.4594C72.5166 26.3704 72.4345 26.1572 72.4863 25.9826C72.523 25.8597 72.6166 25.7891 72.7229 25.7891C72.7674 25.7891 72.8137 25.8014 72.8591 25.8276L73.8944 26.4255C74.0485 26.514 74.131 26.7276 74.0787 26.9019C74.0421 27.0252 73.9481 27.0958 73.8422 27.0958Z" fill="#E6007A"/>
<path opacity="0.1" fill-rule="evenodd" clip-rule="evenodd" d="M77.0424 30.4735C76.998 30.4735 76.9517 30.4611 76.9063 30.435L73.7421 28.6078C73.588 28.5193 73.506 28.3057 73.5582 28.1314C73.5949 28.0086 73.6884 27.9375 73.7944 27.9375C73.8388 27.9375 73.8851 27.9499 73.931 27.976L77.0947 29.8032C77.2483 29.8917 77.3308 30.1053 77.2786 30.2796C77.2419 30.4025 77.1484 30.4735 77.0424 30.4735Z" fill="#E6007A"/>
<path opacity="0.1" fill-rule="evenodd" clip-rule="evenodd" d="M74.1097 31.9347C74.0652 31.9347 74.0184 31.9223 73.9735 31.8962L72.9377 31.2983C72.7841 31.2093 72.7016 30.9961 72.7534 30.8219C72.7901 30.6985 72.8836 30.6279 72.9895 30.6279C73.034 30.6279 73.0808 30.6403 73.1262 30.6669L74.1619 31.2643C74.3155 31.3533 74.3976 31.567 74.3458 31.7407C74.3091 31.8641 74.2156 31.9347 74.1097 31.9347Z" fill="#E6007A"/>
<path opacity="0.1" fill-rule="evenodd" clip-rule="evenodd" d="M79.6006 41.2599C79.5561 41.2599 79.5098 41.2476 79.4644 41.2214L76.6992 39.6244C76.5451 39.5355 76.4626 39.3223 76.5144 39.1476C76.5515 39.0247 76.6451 38.9541 76.751 38.9541C76.7954 38.9541 76.8422 38.9665 76.8876 38.9926L79.6529 40.5896C79.8069 40.6781 79.8895 40.8918 79.8372 41.066C79.8005 41.1889 79.7065 41.2599 79.6006 41.2599Z" fill="#E6007A"/>
<path opacity="0.1" fill-rule="evenodd" clip-rule="evenodd" d="M72.9327 34.4046C72.8882 34.4046 72.8419 34.3927 72.7965 34.3661L72.1322 33.9823C71.9781 33.8934 71.8956 33.6802 71.9478 33.5055C71.9845 33.3826 72.078 33.3115 72.184 33.3115C72.2284 33.3115 72.2747 33.3244 72.3201 33.351L72.985 33.7347C73.1386 33.8228 73.2211 34.0369 73.1693 34.2111C73.1326 34.334 73.0386 34.4046 72.9327 34.4046Z" fill="#E6007A"/>
<path opacity="0.1" fill-rule="evenodd" clip-rule="evenodd" d="M72.2855 37.1867C72.2411 37.1867 72.1943 37.1743 72.1489 37.1482L71.3236 36.6713C71.17 36.5824 71.0874 36.3692 71.1393 36.1945C71.1764 36.072 71.2699 36.001 71.3758 36.001C71.4203 36.001 71.4666 36.0133 71.5125 36.0395L72.3373 36.5163C72.4914 36.6048 72.5739 36.8185 72.5221 36.9932C72.485 37.1156 72.3914 37.1867 72.2855 37.1867Z" fill="#E6007A"/>
<path opacity="0.1" fill-rule="evenodd" clip-rule="evenodd" d="M75.5193 39.0394C75.4749 39.0394 75.4281 39.027 75.3827 39.0004L73.2066 37.7441C73.0526 37.6556 72.97 37.4424 73.0223 37.2677C73.0585 37.1448 73.1525 37.0742 73.2584 37.0742C73.3024 37.0742 73.3492 37.0866 73.3946 37.1127L75.5707 38.3695C75.7248 38.458 75.8073 38.6712 75.7555 38.8459C75.7188 38.9688 75.6253 39.0394 75.5193 39.0394Z" fill="#E6007A"/>
<path opacity="0.1" fill-rule="evenodd" clip-rule="evenodd" d="M72.7596 38.9534C72.7152 38.9534 72.6688 38.9406 72.623 38.9144L71.0586 38.0112C70.9045 37.9227 70.822 37.709 70.8747 37.5343C70.9114 37.4114 71.0049 37.3408 71.1108 37.3408C71.1553 37.3408 71.2016 37.3532 71.247 37.3793L72.8114 38.2826C72.9655 38.3716 73.048 38.5848 72.9962 38.7594C72.9591 38.8823 72.8656 38.9534 72.7596 38.9534Z" fill="#E6007A"/>
<path opacity="0.1" fill-rule="evenodd" clip-rule="evenodd" d="M81.8676 42.6624C81.8231 42.6624 81.7768 42.65 81.7314 42.6234L80.7264 42.0434C80.5728 41.9544 80.4907 41.7417 80.5425 41.567C80.5792 41.4441 80.6727 41.373 80.7786 41.373C80.8231 41.373 80.8694 41.3854 80.9148 41.412L81.9199 41.992C82.0739 42.081 82.156 42.2942 82.1042 42.4689C82.0675 42.5913 81.9735 42.6624 81.8676 42.6624Z" fill="#E6007A"/>
<path opacity="0.1" fill-rule="evenodd" clip-rule="evenodd" d="M77.9917 34.2746C77.9473 34.2746 77.9009 34.2627 77.8555 34.2361L75.0898 32.6391C74.9362 32.5506 74.8537 32.3369 74.9055 32.1622C74.9422 32.0398 75.0362 31.9688 75.1421 31.9688C75.1866 31.9688 75.2329 31.9811 75.2783 32.0073L78.044 33.6047C78.1976 33.6927 78.2806 33.9069 78.2279 34.0811C78.1916 34.204 78.0976 34.2746 77.9917 34.2746Z" fill="#E6007A"/>
<path d="M78.297 32.7347L73.4767 29.9516C73.3231 29.8631 73.2401 29.6494 73.2929 29.4752C73.3447 29.3005 73.5116 29.2312 73.6652 29.3197L78.4855 32.1029C78.6395 32.1918 78.7221 32.4051 78.6693 32.5793C78.6175 32.754 78.4511 32.8237 78.297 32.7347Z" fill="#E6007A"/>
<path d="M75.4364 34.2364L72.6702 32.6389C72.5166 32.5504 72.4345 32.3372 72.4863 32.1625C72.5382 31.9878 72.7055 31.9186 72.8591 32.0075L75.6249 33.6045C75.7785 33.6935 75.861 33.9071 75.8087 34.0809C75.7569 34.2556 75.59 34.3248 75.4364 34.2364Z" fill="#E6007A"/>
<path d="M79.8527 35.3719L78.8481 34.7918C78.694 34.7029 78.6115 34.4897 78.6633 34.3155C78.7156 34.1403 78.8825 34.0711 79.0361 34.1596L80.0411 34.7405C80.1947 34.8285 80.2772 35.0422 80.2254 35.2169C80.1732 35.3911 80.0063 35.4604 79.8527 35.3719Z" fill="#E6007A"/>
<path d="M90.1705 35.0017L84.2204 31.5661C84.0663 31.4772 83.9838 31.264 84.0356 31.0893C84.0879 30.9146 84.2548 30.8453 84.4089 30.9343L90.3589 34.3699C90.5125 34.4589 90.5955 34.6721 90.5433 34.8468C90.491 35.0205 90.3245 35.0907 90.1705 35.0017Z" fill="#E6007A"/>
<path d="M75.1879 37.2465L71.8637 35.3276C71.7096 35.2382 71.6271 35.0255 71.6789 34.8513C71.7312 34.677 71.8981 34.6069 72.0521 34.6958L75.3764 36.6147C75.5304 36.7041 75.6129 36.9173 75.5607 37.0915C75.5084 37.2662 75.342 37.3359 75.1879 37.2465Z" fill="#EE3C96"/>
<path d="M75.6507 26.5249L73.2059 25.1141C73.0528 25.0247 72.9703 24.8115 73.0221 24.6368C73.0739 24.463 73.2412 24.3929 73.3948 24.4823L75.8392 25.8931C75.9928 25.9821 76.0753 26.1953 76.023 26.3699C75.9712 26.5442 75.8039 26.6134 75.6507 26.5249Z" fill="#EE3C96"/>
<path d="M72.0098 40.1848L69.179 38.5507C69.0249 38.4613 68.9428 38.2481 68.9946 38.0738C69.0469 37.8991 69.2133 37.8295 69.3674 37.9189L72.1983 39.553C72.3519 39.6419 72.4344 39.8552 72.3821 40.0294C72.3303 40.2041 72.1634 40.2733 72.0098 40.1848Z" fill="#E6007A"/>
<path d="M91.7561 43.5742C91.5791 43.4724 91.392 43.5316 91.3388 43.7067L91.0234 44.742C90.9697 44.9172 91.0701 45.1419 91.2476 45.2441C91.4245 45.3468 91.6116 45.2877 91.6648 45.1125L91.9803 44.0767C92.0339 43.9016 91.9335 43.6769 91.7561 43.5742Z" fill="#E6007A"/>
<path d="M93.0619 44.6489C92.8849 44.5466 92.6979 44.6053 92.6447 44.7805L92.3682 45.687C92.3146 45.8621 92.415 46.0868 92.5924 46.1895C92.7699 46.2913 92.9565 46.2326 93.0097 46.0574L93.2862 45.1514C93.3398 44.9763 93.2394 44.7516 93.0619 44.6489Z" fill="#EE3C96"/>
<path d="M94.7095 44.3764C94.5321 44.2742 94.3455 44.3329 94.2923 44.508L93.7077 46.4255C93.654 46.6007 93.7545 46.8253 93.9319 46.9276C94.1089 47.0303 94.296 46.9711 94.3491 46.796L94.9337 44.8785C94.9874 44.7033 94.887 44.4787 94.7095 44.3764Z" fill="#E6007A"/>
<path d="M96.3911 44.109C96.2136 44.0063 96.027 44.0655 95.9729 44.2406L95.0522 47.2631C94.9981 47.4383 95.099 47.663 95.276 47.7652C95.4534 47.8675 95.64 47.8088 95.6932 47.6336L96.6148 44.6111C96.6685 44.4364 96.5681 44.2113 96.3911 44.109Z" fill="#E6007A"/>
<path d="M97.6379 45.184C97.4609 45.0818 97.2738 45.1405 97.2202 45.3156L96.3958 48.0208C96.3421 48.196 96.4426 48.4211 96.62 48.5234C96.797 48.6256 96.9841 48.5669 97.0372 48.3918L97.8621 45.6861C97.9153 45.511 97.8149 45.2863 97.6379 45.184Z" fill="#EE3C96"/>
<path d="M99.8663 43.8405C99.6893 43.7378 99.5027 43.7969 99.449 43.9721L98.0088 48.697C97.9552 48.8717 98.0556 49.0969 98.2326 49.1991C98.41 49.3014 98.5966 49.2422 98.6498 49.0675L100.091 44.3421C100.144 44.1674 100.044 43.9423 99.8663 43.8405Z" fill="#E6007A"/>
<defs>
<linearGradient id="paint0_linear_209_1811" x1="7.1779" y1="67.5403" x2="7.1779" y2="130.234" gradientUnits="userSpaceOnUse">
<stop stop-color="white"/>
<stop offset="1" stop-color="white" stop-opacity="0"/>
</linearGradient>
<linearGradient id="paint1_linear_209_1811" x1="33.2146" y1="70.7227" x2="30.6579" y2="180.257" gradientUnits="userSpaceOnUse">
<stop stop-color="white"/>
<stop offset="1" stop-color="white" stop-opacity="0"/>
</linearGradient>
<linearGradient id="paint2_linear_209_1811" x1="58.5987" y1="104.4" x2="66.136" y2="2.16174" gradientUnits="userSpaceOnUse">
<stop offset="0.104167" stop-color="#E6007A"/>
<stop offset="0.963542" stop-color="white"/>
</linearGradient>
<radialGradient id="paint3_radial_209_1811" cx="0" cy="0" r="1" gradientUnits="userSpaceOnUse" gradientTransform="translate(-11.8318 -87.3739) scale(329.881 330.533)">
<stop stop-color="#2A2875"/>
<stop offset="0.6" stop-color="#0F0E40"/>
<stop offset="1" stop-color="#0C1038"/>
</radialGradient>
<radialGradient id="paint4_radial_209_1811" cx="0" cy="0" r="1" gradientUnits="userSpaceOnUse" gradientTransform="translate(39.0709 -76.1602) scale(308.136 303.986)">
<stop stop-color="#2A2875"/>
<stop offset="0.6" stop-color="#0F0E40"/>
<stop offset="1" stop-color="#0C1038"/>
</radialGradient>
</defs>
</svg>
