<svg width="132" height="202" viewBox="0 0 132 202" fill="none" xmlns="http://www.w3.org/2000/svg">
<path opacity="0.1" d="M0.149841 66.2832L0.149841 202C51.2205 202 79.8538 202 130.924 202V66.2832L65.5371 104.037L0.149841 66.2832Z" fill="url(#paint0_linear_209_2115)"/>
<path opacity="0.3" d="M0.149841 66.2832L0.149841 180.204H65.5371V104.037L0.149841 66.2832Z" fill="url(#paint1_linear_209_2115)"/>
<path d="M6.10352e-05 65.8975L65.6001 28.0232L131.2 65.8975L65.6001 103.772L6.10352e-05 65.8975Z" fill="url(#paint2_linear_209_2115)"/>
<path opacity="0.2" d="M24.1311 77.0636C24.1311 77.0636 24.6946 73.9168 30.1653 68.4065C43.774 54.6993 56.2941 49.7648 70.4471 45.9268C61.7376 51.4096 61.3282 90.5105 62.6629 99.2486L24.1311 77.0636Z" fill="url(#paint3_linear_209_2115)"/>
<path d="M64.4563 58.5888C66.09 56.9551 69.2647 50.0826 66.9835 47.8019C64.7023 45.5213 57.8309 48.6954 56.1966 50.3291C54.5624 51.9628 55.0866 55.137 57.3678 57.4176C59.649 59.6983 62.822 60.2231 64.4563 58.5888Z" fill="#E6007A"/>
<path d="M68.579 36.01L59.8895 44.6995L59.1842 28.1049C59.8272 27.9432 60.4887 27.8662 61.1517 27.8758C64.7606 27.9211 67.9435 32.9368 68.579 36.01Z" fill="#9E0054"/>
<path d="M66.8434 36.2029L58.1539 44.8929L56.0265 29.6413C60.8246 24.8421 66.0126 32.1837 66.8434 36.2029Z" fill="#E6007A"/>
<path d="M78.7752 46.207L70.0856 54.8965L86.6803 55.6018C86.842 54.9586 86.919 54.297 86.9094 53.6337C86.8641 50.0254 81.8484 46.8425 78.7752 46.207Z" fill="#9E0054"/>
<path d="M78.5829 47.9434L69.8934 56.6329L85.1445 58.7602C89.9436 53.9622 82.602 48.7741 78.5829 47.9434Z" fill="#E6007A"/>
<path d="M75.1671 18.4717C91.3881 2.25075 114.769 0.143555 114.769 0.143555C114.769 0.143555 112.663 23.5267 96.4409 39.7455C86.3189 49.8674 66.8044 59.8557 60.9301 53.9825C55.0558 48.1093 65.0452 28.5937 75.1671 18.4717Z" fill="white"/>
<path d="M90.4533 7.3929C90.444 12.0213 91.9992 16.3617 95.2126 19.5751C98.4261 22.7885 102.766 24.3432 107.394 24.3339C111.211 16.697 113.711 8.46987 114.787 0C106.317 1.07607 98.0903 3.57555 90.4533 7.3929Z" fill="#E6007A"/>
<path d="M81.0496 33.6461C78.9261 35.7696 76.478 34.7758 75.5801 31.4265C74.6822 28.0773 75.6761 23.6409 77.8002 21.5173C79.9243 19.3937 82.3719 20.3882 83.2692 23.7374C84.1665 27.0867 83.1726 31.5231 81.0496 33.6461Z" fill="#E6007A"/>
<path d="M80.4325 31.3441C79.1152 32.6614 77.596 32.0445 77.0396 29.9667C76.4832 27.889 77.0991 25.1365 78.417 23.8197C79.7349 22.5029 81.2535 23.1188 81.8099 25.1965C82.3663 27.2742 81.7499 30.0267 80.4325 31.3441Z" fill="white"/>
<path d="M80.3402 46.4871L78.3143 45.3672L67.3654 70.2149L69.3188 71.4521C75.319 67.0119 80.2518 55.835 80.3402 46.4871Z" fill="#9E0054"/>
<path d="M78.3843 45.251L67.5161 53.2881L67.3628 70.2154C73.3658 65.7758 78.3003 54.5989 78.3843 45.251Z" fill="#E6007A"/>
<path d="M68.2964 34.4482L69.4163 36.4747L44.5685 47.423L43.3319 45.4697C47.7705 39.4667 58.9479 34.5328 68.2964 34.4482Z" fill="#9E0054"/>
<path d="M69.5341 36.4004L61.4958 47.2669L44.5685 47.4197C49.0087 41.4194 60.1856 36.4849 69.5341 36.4004Z" fill="#E6007A"/>
<defs>
<linearGradient id="paint0_linear_209_2115" x1="7.00856" y1="63.1255" x2="7.00856" y2="125.333" gradientUnits="userSpaceOnUse">
<stop stop-color="white"/>
<stop offset="1" stop-color="white" stop-opacity="0"/>
</linearGradient>
<linearGradient id="paint1_linear_209_2115" x1="32.8435" y1="66.2832" x2="30.3067" y2="174.969" gradientUnits="userSpaceOnUse">
<stop stop-color="white"/>
<stop offset="1" stop-color="white" stop-opacity="0"/>
</linearGradient>
<linearGradient id="paint2_linear_209_2115" x1="58.0309" y1="99.4016" x2="65.5099" y2="-2.04506" gradientUnits="userSpaceOnUse">
<stop offset="0.104167" stop-color="#E6007A"/>
<stop offset="0.963542" stop-color="white"/>
</linearGradient>
<linearGradient id="paint3_linear_209_2115" x1="51.1228" y1="45.9268" x2="37.6011" y2="109.001" gradientUnits="userSpaceOnUse">
<stop stop-color="white"/>
<stop offset="1" stop-color="white" stop-opacity="0"/>
</linearGradient>
</defs>
</svg>
