<svg width="23" height="23" viewBox="0 0 23 23" fill="none" xmlns="http://www.w3.org/2000/svg">
<path d="M3.38201 12.887L4.05932 12.691L3.38201 12.887ZM3.38201 6.63712L2.7047 6.44112H2.7047L3.38201 6.63712ZM19.4173 6.63713L20.0946 6.44112V6.44112L19.4173 6.63713ZM19.4173 12.887L18.74 12.691L18.74 12.691L19.4173 12.887ZM15.9262 16.1334L15.7945 15.4407L15.9262 16.1334ZM6.87314 16.1334L7.00484 15.4407L6.87314 16.1334ZM6.87313 3.39076L6.74143 2.69807L6.87313 3.39076ZM15.9262 3.39076L16.0579 2.69807L15.9262 3.39076ZM3.42739 13.0438L2.75008 13.2398H2.75008L3.42739 13.0438ZM19.3719 13.0438L20.0492 13.2398L20.0492 13.2398L19.3719 13.0438ZM19.3719 6.4803L18.6946 6.67631L18.6946 6.67631L19.3719 6.4803ZM3.42739 6.4803L4.1047 6.67631L3.42739 6.4803ZM12.1048 16.994C12.1048 16.6046 11.7891 16.2889 11.3997 16.2889C11.0102 16.2889 10.6946 16.6046 10.6946 16.994H12.1048ZM10.6946 19.8868C10.6946 20.2762 11.0102 20.5919 11.3997 20.5919C11.7891 20.5919 12.1048 20.2762 12.1048 19.8868H10.6946ZM8.92134 19.1817C8.53192 19.1817 8.21624 19.4974 8.21624 19.8868C8.21624 20.2762 8.53192 20.5919 8.92134 20.5919V19.1817ZM13.878 20.5919C14.2674 20.5919 14.5831 20.2762 14.5831 19.8868C14.5831 19.4974 14.2674 19.1817 13.878 19.1817V20.5919ZM18.6946 6.67631L18.74 6.83313L20.0946 6.44112L20.0492 6.2843L18.6946 6.67631ZM18.74 12.691L18.6946 12.8478L20.0492 13.2398L20.0946 13.083L18.74 12.691ZM4.1047 12.8478L4.05932 12.691L2.7047 13.083L2.75008 13.2398L4.1047 12.8478ZM4.05932 6.83312L4.1047 6.67631L2.75008 6.2843L2.7047 6.44112L4.05932 6.83312ZM4.05932 12.691C3.50499 10.7755 3.50499 8.74867 4.05932 6.83312L2.7047 6.44112C2.07627 8.61275 2.07627 10.9114 2.7047 13.083L4.05932 12.691ZM18.74 6.83313C19.2943 8.74868 19.2943 10.7755 18.74 12.691L20.0946 13.083C20.7231 10.9114 20.7231 8.61276 20.0946 6.44112L18.74 6.83313ZM15.7945 15.4407C12.8921 15.9925 9.90721 15.9925 7.00484 15.4407L6.74143 16.8261C9.81785 17.411 12.9815 17.411 16.0579 16.8261L15.7945 15.4407ZM7.00484 4.08345C9.90721 3.5316 12.8921 3.5316 15.7945 4.08345L16.0579 2.69807C12.9815 2.11313 9.81785 2.11313 6.74143 2.69807L7.00484 4.08345ZM7.00484 15.4407C5.60156 15.1739 4.48575 14.1646 4.1047 12.8478L2.75008 13.2398C3.28338 15.0827 4.83284 16.4632 6.74143 16.8261L7.00484 15.4407ZM16.0579 16.8261C17.9665 16.4632 19.5159 15.0827 20.0492 13.2398L18.6946 12.8478C18.3136 14.1646 17.1978 15.1739 15.7945 15.4407L16.0579 16.8261ZM15.7945 4.08345C17.1978 4.35026 18.3136 5.35954 18.6946 6.67631L20.0492 6.2843C19.5159 4.44144 17.9665 3.06096 16.0579 2.69807L15.7945 4.08345ZM6.74143 2.69807C4.83284 3.06096 3.28338 4.44143 2.75008 6.2843L4.1047 6.67631C4.48575 5.35954 5.60156 4.35026 7.00484 4.08345L6.74143 2.69807ZM10.6946 16.994V19.8868H12.1048V16.994H10.6946ZM8.92134 20.5919H13.878V19.1817H8.92134V20.5919Z" fill="#A1A2A3"/>
</svg>
