<?xml version="1.0" encoding="utf-8"?>
<!DOCTYPE svg PUBLIC "-//W3C//DTD SVG 20010904//EN" "http://www.w3.org/TR/2001/REC-SVG-20010904/DTD/svg10.dtd">
<svg xmlns="http://www.w3.org/2000/svg" xml:space="preserve" xmlns:xlink="http://www.w3.org/1999/xlink" width="984" height="984" viewBox="0 0 984 984">
<defs>
<mask id="qrmask"><g fill="#ffffff">
<g transform="translate(240,48) scale(4)"><rect width="6" height="6"/></g>
<g transform="translate(264,48) scale(4)"><rect width="6" height="6"/></g>
<g transform="translate(288,48) scale(4)"><rect width="6" height="6"/></g>
<g transform="translate(312,48) scale(4)"><rect width="6" height="6"/></g>
<g transform="translate(384,48) scale(4)"><rect width="6" height="6"/></g>
<g transform="translate(432,48) scale(4)"><rect width="6" height="6"/></g>
<g transform="translate(528,48) scale(4)"><rect width="6" height="6"/></g>
<g transform="translate(624,48) scale(4)"><rect width="6" height="6"/></g>
<g transform="translate(720,48) scale(4)"><rect width="6" height="6"/></g>
<g transform="translate(240,72) scale(4)"><rect width="6" height="6"/></g>
<g transform="translate(264,72) scale(4)"><rect width="6" height="6"/></g>
<g transform="translate(360,72) scale(4)"><rect width="6" height="6"/></g>
<g transform="translate(408,72) scale(4)"><rect width="6" height="6"/></g>
<g transform="translate(432,72) scale(4)"><rect width="6" height="6"/></g>
<g transform="translate(456,72) scale(4)"><rect width="6" height="6"/></g>
<g transform="translate(504,72) scale(4)"><rect width="6" height="6"/></g>
<g transform="translate(552,72) scale(4)"><rect width="6" height="6"/></g>
<g transform="translate(600,72) scale(4)"><rect width="6" height="6"/></g>
<g transform="translate(624,72) scale(4)"><rect width="6" height="6"/></g>
<g transform="translate(648,72) scale(4)"><rect width="6" height="6"/></g>
<g transform="translate(696,72) scale(4)"><rect width="6" height="6"/></g>
<g transform="translate(240,96) scale(4)"><rect width="6" height="6"/></g>
<g transform="translate(312,96) scale(4)"><rect width="6" height="6"/></g>
<g transform="translate(336,96) scale(4)"><rect width="6" height="6"/></g>
<g transform="translate(432,96) scale(4)"><rect width="6" height="6"/></g>
<g transform="translate(480,96) scale(4)"><rect width="6" height="6"/></g>
<g transform="translate(504,96) scale(4)"><rect width="6" height="6"/></g>
<g transform="translate(528,96) scale(4)"><rect width="6" height="6"/></g>
<g transform="translate(600,96) scale(4)"><rect width="6" height="6"/></g>
<g transform="translate(624,96) scale(4)"><rect width="6" height="6"/></g>
<g transform="translate(696,96) scale(4)"><rect width="6" height="6"/></g>
<g transform="translate(720,96) scale(4)"><rect width="6" height="6"/></g>
<g transform="translate(264,120) scale(4)"><rect width="6" height="6"/></g>
<g transform="translate(288,120) scale(4)"><rect width="6" height="6"/></g>
<g transform="translate(312,120) scale(4)"><rect width="6" height="6"/></g>
<g transform="translate(408,120) scale(4)"><rect width="6" height="6"/></g>
<g transform="translate(432,120) scale(4)"><rect width="6" height="6"/></g>
<g transform="translate(528,120) scale(4)"><rect width="6" height="6"/></g>
<g transform="translate(552,120) scale(4)"><rect width="6" height="6"/></g>
<g transform="translate(576,120) scale(4)"><rect width="6" height="6"/></g>
<g transform="translate(600,120) scale(4)"><rect width="6" height="6"/></g>
<g transform="translate(624,120) scale(4)"><rect width="6" height="6"/></g>
<g transform="translate(648,120) scale(4)"><rect width="6" height="6"/></g>
<g transform="translate(696,120) scale(4)"><rect width="6" height="6"/></g>
<g transform="translate(264,144) scale(4)"><rect width="6" height="6"/></g>
<g transform="translate(288,144) scale(4)"><rect width="6" height="6"/></g>
<g transform="translate(336,144) scale(4)"><rect width="6" height="6"/></g>
<g transform="translate(360,144) scale(4)"><rect width="6" height="6"/></g>
<g transform="translate(384,144) scale(4)"><rect width="6" height="6"/></g>
<g transform="translate(456,144) scale(4)"><rect width="6" height="6"/></g>
<g transform="translate(504,144) scale(4)"><rect width="6" height="6"/></g>
<g transform="translate(648,144) scale(4)"><rect width="6" height="6"/></g>
<g transform="translate(240,168) scale(4)"><rect width="6" height="6"/></g>
<g transform="translate(288,168) scale(4)"><rect width="6" height="6"/></g>
<g transform="translate(432,168) scale(4)"><rect width="6" height="6"/></g>
<g transform="translate(504,168) scale(4)"><rect width="6" height="6"/></g>
<g transform="translate(600,168) scale(4)"><rect width="6" height="6"/></g>
<g transform="translate(648,168) scale(4)"><rect width="6" height="6"/></g>
<g transform="translate(672,168) scale(4)"><rect width="6" height="6"/></g>
<g transform="translate(696,168) scale(4)"><rect width="6" height="6"/></g>
<g transform="translate(720,168) scale(4)"><rect width="6" height="6"/></g>
<g transform="translate(240,192) scale(4)"><rect width="6" height="6"/></g>
<g transform="translate(288,192) scale(4)"><rect width="6" height="6"/></g>
<g transform="translate(336,192) scale(4)"><rect width="6" height="6"/></g>
<g transform="translate(384,192) scale(4)"><rect width="6" height="6"/></g>
<g transform="translate(432,192) scale(4)"><rect width="6" height="6"/></g>
<g transform="translate(480,192) scale(4)"><rect width="6" height="6"/></g>
<g transform="translate(528,192) scale(4)"><rect width="6" height="6"/></g>
<g transform="translate(576,192) scale(4)"><rect width="6" height="6"/></g>
<g transform="translate(624,192) scale(4)"><rect width="6" height="6"/></g>
<g transform="translate(672,192) scale(4)"><rect width="6" height="6"/></g>
<g transform="translate(720,192) scale(4)"><rect width="6" height="6"/></g>
<g transform="translate(240,216) scale(4)"><rect width="6" height="6"/></g>
<g transform="translate(264,216) scale(4)"><rect width="6" height="6"/></g>
<g transform="translate(312,216) scale(4)"><rect width="6" height="6"/></g>
<g transform="translate(336,216) scale(4)"><rect width="6" height="6"/></g>
<g transform="translate(504,216) scale(4)"><rect width="6" height="6"/></g>
<g transform="translate(528,216) scale(4)"><rect width="6" height="6"/></g>
<g transform="translate(600,216) scale(4)"><rect width="6" height="6"/></g>
<g transform="translate(648,216) scale(4)"><rect width="6" height="6"/></g>
<g transform="translate(720,216) scale(4)"><rect width="6" height="6"/></g>
<g transform="translate(96,240) scale(4)"><rect width="6" height="6"/></g>
<g transform="translate(120,240) scale(4)"><rect width="6" height="6"/></g>
<g transform="translate(144,240) scale(4)"><rect width="6" height="6"/></g>
<g transform="translate(192,240) scale(4)"><rect width="6" height="6"/></g>
<g transform="translate(240,240) scale(4)"><rect width="6" height="6"/></g>
<g transform="translate(288,240) scale(4)"><rect width="6" height="6"/></g>
<g transform="translate(336,240) scale(4)"><rect width="6" height="6"/></g>
<g transform="translate(384,240) scale(4)"><rect width="6" height="6"/></g>
<g transform="translate(408,240) scale(4)"><rect width="6" height="6"/></g>
<g transform="translate(432,240) scale(4)"><rect width="6" height="6"/></g>
<g transform="translate(456,240) scale(4)"><rect width="6" height="6"/></g>
<g transform="translate(528,240) scale(4)"><rect width="6" height="6"/></g>
<g transform="translate(624,240) scale(4)"><rect width="6" height="6"/></g>
<g transform="translate(672,240) scale(4)"><rect width="6" height="6"/></g>
<g transform="translate(720,240) scale(4)"><rect width="6" height="6"/></g>
<g transform="translate(744,240) scale(4)"><rect width="6" height="6"/></g>
<g transform="translate(768,240) scale(4)"><rect width="6" height="6"/></g>
<g transform="translate(792,240) scale(4)"><rect width="6" height="6"/></g>
<g transform="translate(864,240) scale(4)"><rect width="6" height="6"/></g>
<g transform="translate(888,240) scale(4)"><rect width="6" height="6"/></g>
<g transform="translate(912,240) scale(4)"><rect width="6" height="6"/></g>
<g transform="translate(48,264) scale(4)"><rect width="6" height="6"/></g>
<g transform="translate(120,264) scale(4)"><rect width="6" height="6"/></g>
<g transform="translate(216,264) scale(4)"><rect width="6" height="6"/></g>
<g transform="translate(264,264) scale(4)"><rect width="6" height="6"/></g>
<g transform="translate(288,264) scale(4)"><rect width="6" height="6"/></g>
<g transform="translate(336,264) scale(4)"><rect width="6" height="6"/></g>
<g transform="translate(360,264) scale(4)"><rect width="6" height="6"/></g>
<g transform="translate(408,264) scale(4)"><rect width="6" height="6"/></g>
<g transform="translate(432,264) scale(4)"><rect width="6" height="6"/></g>
<g transform="translate(456,264) scale(4)"><rect width="6" height="6"/></g>
<g transform="translate(552,264) scale(4)"><rect width="6" height="6"/></g>
<g transform="translate(648,264) scale(4)"><rect width="6" height="6"/></g>
<g transform="translate(696,264) scale(4)"><rect width="6" height="6"/></g>
<g transform="translate(768,264) scale(4)"><rect width="6" height="6"/></g>
<g transform="translate(792,264) scale(4)"><rect width="6" height="6"/></g>
<g transform="translate(816,264) scale(4)"><rect width="6" height="6"/></g>
<g transform="translate(840,264) scale(4)"><rect width="6" height="6"/></g>
<g transform="translate(864,264) scale(4)"><rect width="6" height="6"/></g>
<g transform="translate(888,264) scale(4)"><rect width="6" height="6"/></g>
<g transform="translate(48,288) scale(4)"><rect width="6" height="6"/></g>
<g transform="translate(72,288) scale(4)"><rect width="6" height="6"/></g>
<g transform="translate(96,288) scale(4)"><rect width="6" height="6"/></g>
<g transform="translate(120,288) scale(4)"><rect width="6" height="6"/></g>
<g transform="translate(192,288) scale(4)"><rect width="6" height="6"/></g>
<g transform="translate(264,288) scale(4)"><rect width="6" height="6"/></g>
<g transform="translate(312,288) scale(4)"><rect width="6" height="6"/></g>
<g transform="translate(360,288) scale(4)"><rect width="6" height="6"/></g>
<g transform="translate(384,288) scale(4)"><rect width="6" height="6"/></g>
<g transform="translate(408,288) scale(4)"><rect width="6" height="6"/></g>
<g transform="translate(432,288) scale(4)"><rect width="6" height="6"/></g>
<g transform="translate(456,288) scale(4)"><rect width="6" height="6"/></g>
<g transform="translate(552,288) scale(4)"><rect width="6" height="6"/></g>
<g transform="translate(648,288) scale(4)"><rect width="6" height="6"/></g>
<g transform="translate(672,288) scale(4)"><rect width="6" height="6"/></g>
<g transform="translate(696,288) scale(4)"><rect width="6" height="6"/></g>
<g transform="translate(720,288) scale(4)"><rect width="6" height="6"/></g>
<g transform="translate(768,288) scale(4)"><rect width="6" height="6"/></g>
<g transform="translate(816,288) scale(4)"><rect width="6" height="6"/></g>
<g transform="translate(888,288) scale(4)"><rect width="6" height="6"/></g>
<g transform="translate(912,288) scale(4)"><rect width="6" height="6"/></g>
<g transform="translate(48,312) scale(4)"><rect width="6" height="6"/></g>
<g transform="translate(72,312) scale(4)"><rect width="6" height="6"/></g>
<g transform="translate(96,312) scale(4)"><rect width="6" height="6"/></g>
<g transform="translate(144,312) scale(4)"><rect width="6" height="6"/></g>
<g transform="translate(168,312) scale(4)"><rect width="6" height="6"/></g>
<g transform="translate(240,312) scale(4)"><rect width="6" height="6"/></g>
<g transform="translate(264,312) scale(4)"><rect width="6" height="6"/></g>
<g transform="translate(288,312) scale(4)"><rect width="6" height="6"/></g>
<g transform="translate(336,312) scale(4)"><rect width="6" height="6"/></g>
<g transform="translate(360,312) scale(4)"><rect width="6" height="6"/></g>
<g transform="translate(408,312) scale(4)"><rect width="6" height="6"/></g>
<g transform="translate(456,312) scale(4)"><rect width="6" height="6"/></g>
<g transform="translate(528,312) scale(4)"><rect width="6" height="6"/></g>
<g transform="translate(576,312) scale(4)"><rect width="6" height="6"/></g>
<g transform="translate(600,312) scale(4)"><rect width="6" height="6"/></g>
<g transform="translate(672,312) scale(4)"><rect width="6" height="6"/></g>
<g transform="translate(696,312) scale(4)"><rect width="6" height="6"/></g>
<g transform="translate(768,312) scale(4)"><rect width="6" height="6"/></g>
<g transform="translate(792,312) scale(4)"><rect width="6" height="6"/></g>
<g transform="translate(816,312) scale(4)"><rect width="6" height="6"/></g>
<g transform="translate(912,312) scale(4)"><rect width="6" height="6"/></g>
<g transform="translate(48,336) scale(4)"><rect width="6" height="6"/></g>
<g transform="translate(72,336) scale(4)"><rect width="6" height="6"/></g>
<g transform="translate(120,336) scale(4)"><rect width="6" height="6"/></g>
<g transform="translate(192,336) scale(4)"><rect width="6" height="6"/></g>
<g transform="translate(264,336) scale(4)"><rect width="6" height="6"/></g>
<g transform="translate(288,336) scale(4)"><rect width="6" height="6"/></g>
<g transform="translate(336,336) scale(4)"><rect width="6" height="6"/></g>
<g transform="translate(360,336) scale(4)"><rect width="6" height="6"/></g>
<g transform="translate(384,336) scale(4)"><rect width="6" height="6"/></g>
<g transform="translate(504,336) scale(4)"><rect width="6" height="6"/></g>
<g transform="translate(528,336) scale(4)"><rect width="6" height="6"/></g>
<g transform="translate(648,336) scale(4)"><rect width="6" height="6"/></g>
<g transform="translate(672,336) scale(4)"><rect width="6" height="6"/></g>
<g transform="translate(696,336) scale(4)"><rect width="6" height="6"/></g>
<g transform="translate(720,336) scale(4)"><rect width="6" height="6"/></g>
<g transform="translate(744,336) scale(4)"><rect width="6" height="6"/></g>
<g transform="translate(768,336) scale(4)"><rect width="6" height="6"/></g>
<g transform="translate(816,336) scale(4)"><rect width="6" height="6"/></g>
<g transform="translate(840,336) scale(4)"><rect width="6" height="6"/></g>
<g transform="translate(864,336) scale(4)"><rect width="6" height="6"/></g>
<g transform="translate(888,336) scale(4)"><rect width="6" height="6"/></g>
<g transform="translate(912,336) scale(4)"><rect width="6" height="6"/></g>
<g transform="translate(48,360) scale(4)"><rect width="6" height="6"/></g>
<g transform="translate(96,360) scale(4)"><rect width="6" height="6"/></g>
<g transform="translate(120,360) scale(4)"><rect width="6" height="6"/></g>
<g transform="translate(144,360) scale(4)"><rect width="6" height="6"/></g>
<g transform="translate(264,360) scale(4)"><rect width="6" height="6"/></g>
<g transform="translate(336,360) scale(4)"><rect width="6" height="6"/></g>
<g transform="translate(384,360) scale(4)"><rect width="6" height="6"/></g>
<g transform="translate(408,360) scale(4)"><rect width="6" height="6"/></g>
<g transform="translate(432,360) scale(4)"><rect width="6" height="6"/></g>
<g transform="translate(456,360) scale(4)"><rect width="6" height="6"/></g>
<g transform="translate(480,360) scale(4)"><rect width="6" height="6"/></g>
<g transform="translate(528,360) scale(4)"><rect width="6" height="6"/></g>
<g transform="translate(576,360) scale(4)"><rect width="6" height="6"/></g>
<g transform="translate(672,360) scale(4)"><rect width="6" height="6"/></g>
<g transform="translate(744,360) scale(4)"><rect width="6" height="6"/></g>
<g transform="translate(792,360) scale(4)"><rect width="6" height="6"/></g>
<g transform="translate(840,360) scale(4)"><rect width="6" height="6"/></g>
<g transform="translate(864,360) scale(4)"><rect width="6" height="6"/></g>
<g transform="translate(48,384) scale(4)"><rect width="6" height="6"/></g>
<g transform="translate(72,384) scale(4)"><rect width="6" height="6"/></g>
<g transform="translate(96,384) scale(4)"><rect width="6" height="6"/></g>
<g transform="translate(120,384) scale(4)"><rect width="6" height="6"/></g>
<g transform="translate(168,384) scale(4)"><rect width="6" height="6"/></g>
<g transform="translate(192,384) scale(4)"><rect width="6" height="6"/></g>
<g transform="translate(216,384) scale(4)"><rect width="6" height="6"/></g>
<g transform="translate(240,384) scale(4)"><rect width="6" height="6"/></g>
<g transform="translate(312,384) scale(4)"><rect width="6" height="6"/></g>
<g transform="translate(336,384) scale(4)"><rect width="6" height="6"/></g>
<g transform="translate(360,384) scale(4)"><rect width="6" height="6"/></g>
<g transform="translate(456,384) scale(4)"><rect width="6" height="6"/></g>
<g transform="translate(480,384) scale(4)"><rect width="6" height="6"/></g>
<g transform="translate(528,384) scale(4)"><rect width="6" height="6"/></g>
<g transform="translate(576,384) scale(4)"><rect width="6" height="6"/></g>
<g transform="translate(672,384) scale(4)"><rect width="6" height="6"/></g>
<g transform="translate(696,384) scale(4)"><rect width="6" height="6"/></g>
<g transform="translate(744,384) scale(4)"><rect width="6" height="6"/></g>
<g transform="translate(840,384) scale(4)"><rect width="6" height="6"/></g>
<g transform="translate(912,384) scale(4)"><rect width="6" height="6"/></g>
<g transform="translate(168,408) scale(4)"><rect width="6" height="6"/></g>
<g transform="translate(288,408) scale(4)"><rect width="6" height="6"/></g>
<g transform="translate(312,408) scale(4)"><rect width="6" height="6"/></g>
<g transform="translate(336,408) scale(4)"><rect width="6" height="6"/></g>
<g transform="translate(384,408) scale(4)"><rect width="6" height="6"/></g>
<g transform="translate(408,408) scale(4)"><rect width="6" height="6"/></g>
<g transform="translate(456,408) scale(4)"><rect width="6" height="6"/></g>
<g transform="translate(504,408) scale(4)"><rect width="6" height="6"/></g>
<g transform="translate(672,408) scale(4)"><rect width="6" height="6"/></g>
<g transform="translate(720,408) scale(4)"><rect width="6" height="6"/></g>
<g transform="translate(768,408) scale(4)"><rect width="6" height="6"/></g>
<g transform="translate(792,408) scale(4)"><rect width="6" height="6"/></g>
<g transform="translate(888,408) scale(4)"><rect width="6" height="6"/></g>
<g transform="translate(72,432) scale(4)"><rect width="6" height="6"/></g>
<g transform="translate(144,432) scale(4)"><rect width="6" height="6"/></g>
<g transform="translate(192,432) scale(4)"><rect width="6" height="6"/></g>
<g transform="translate(216,432) scale(4)"><rect width="6" height="6"/></g>
<g transform="translate(240,432) scale(4)"><rect width="6" height="6"/></g>
<g transform="translate(312,432) scale(4)"><rect width="6" height="6"/></g>
<g transform="translate(336,432) scale(4)"><rect width="6" height="6"/></g>
<g transform="translate(384,432) scale(4)"><rect width="6" height="6"/></g>
<g transform="translate(480,432) scale(4)"><rect width="6" height="6"/></g>
<g transform="translate(504,432) scale(4)"><rect width="6" height="6"/></g>
<g transform="translate(528,432) scale(4)"><rect width="6" height="6"/></g>
<g transform="translate(576,432) scale(4)"><rect width="6" height="6"/></g>
<g transform="translate(624,432) scale(4)"><rect width="6" height="6"/></g>
<g transform="translate(648,432) scale(4)"><rect width="6" height="6"/></g>
<g transform="translate(672,432) scale(4)"><rect width="6" height="6"/></g>
<g transform="translate(696,432) scale(4)"><rect width="6" height="6"/></g>
<g transform="translate(744,432) scale(4)"><rect width="6" height="6"/></g>
<g transform="translate(768,432) scale(4)"><rect width="6" height="6"/></g>
<g transform="translate(816,432) scale(4)"><rect width="6" height="6"/></g>
<g transform="translate(864,432) scale(4)"><rect width="6" height="6"/></g>
<g transform="translate(888,432) scale(4)"><rect width="6" height="6"/></g>
<g transform="translate(912,432) scale(4)"><rect width="6" height="6"/></g>
<g transform="translate(72,456) scale(4)"><rect width="6" height="6"/></g>
<g transform="translate(120,456) scale(4)"><rect width="6" height="6"/></g>
<g transform="translate(144,456) scale(4)"><rect width="6" height="6"/></g>
<g transform="translate(264,456) scale(4)"><rect width="6" height="6"/></g>
<g transform="translate(288,456) scale(4)"><rect width="6" height="6"/></g>
<g transform="translate(312,456) scale(4)"><rect width="6" height="6"/></g>
<g transform="translate(384,456) scale(4)"><rect width="6" height="6"/></g>
<g transform="translate(408,456) scale(4)"><rect width="6" height="6"/></g>
<g transform="translate(600,456) scale(4)"><rect width="6" height="6"/></g>
<g transform="translate(648,456) scale(4)"><rect width="6" height="6"/></g>
<g transform="translate(672,456) scale(4)"><rect width="6" height="6"/></g>
<g transform="translate(720,456) scale(4)"><rect width="6" height="6"/></g>
<g transform="translate(792,456) scale(4)"><rect width="6" height="6"/></g>
<g transform="translate(864,456) scale(4)"><rect width="6" height="6"/></g>
<g transform="translate(48,480) scale(4)"><rect width="6" height="6"/></g>
<g transform="translate(72,480) scale(4)"><rect width="6" height="6"/></g>
<g transform="translate(96,480) scale(4)"><rect width="6" height="6"/></g>
<g transform="translate(144,480) scale(4)"><rect width="6" height="6"/></g>
<g transform="translate(192,480) scale(4)"><rect width="6" height="6"/></g>
<g transform="translate(240,480) scale(4)"><rect width="6" height="6"/></g>
<g transform="translate(264,480) scale(4)"><rect width="6" height="6"/></g>
<g transform="translate(360,480) scale(4)"><rect width="6" height="6"/></g>
<g transform="translate(384,480) scale(4)"><rect width="6" height="6"/></g>
<g transform="translate(408,480) scale(4)"><rect width="6" height="6"/></g>
<g transform="translate(456,480) scale(4)"><rect width="6" height="6"/></g>
<g transform="translate(576,480) scale(4)"><rect width="6" height="6"/></g>
<g transform="translate(600,480) scale(4)"><rect width="6" height="6"/></g>
<g transform="translate(624,480) scale(4)"><rect width="6" height="6"/></g>
<g transform="translate(648,480) scale(4)"><rect width="6" height="6"/></g>
<g transform="translate(672,480) scale(4)"><rect width="6" height="6"/></g>
<g transform="translate(696,480) scale(4)"><rect width="6" height="6"/></g>
<g transform="translate(720,480) scale(4)"><rect width="6" height="6"/></g>
<g transform="translate(744,480) scale(4)"><rect width="6" height="6"/></g>
<g transform="translate(768,480) scale(4)"><rect width="6" height="6"/></g>
<g transform="translate(792,480) scale(4)"><rect width="6" height="6"/></g>
<g transform="translate(816,480) scale(4)"><rect width="6" height="6"/></g>
<g transform="translate(840,480) scale(4)"><rect width="6" height="6"/></g>
<g transform="translate(864,480) scale(4)"><rect width="6" height="6"/></g>
<g transform="translate(888,480) scale(4)"><rect width="6" height="6"/></g>
<g transform="translate(912,480) scale(4)"><rect width="6" height="6"/></g>
<g transform="translate(48,504) scale(4)"><rect width="6" height="6"/></g>
<g transform="translate(72,504) scale(4)"><rect width="6" height="6"/></g>
<g transform="translate(96,504) scale(4)"><rect width="6" height="6"/></g>
<g transform="translate(120,504) scale(4)"><rect width="6" height="6"/></g>
<g transform="translate(168,504) scale(4)"><rect width="6" height="6"/></g>
<g transform="translate(216,504) scale(4)"><rect width="6" height="6"/></g>
<g transform="translate(288,504) scale(4)"><rect width="6" height="6"/></g>
<g transform="translate(312,504) scale(4)"><rect width="6" height="6"/></g>
<g transform="translate(360,504) scale(4)"><rect width="6" height="6"/></g>
<g transform="translate(384,504) scale(4)"><rect width="6" height="6"/></g>
<g transform="translate(408,504) scale(4)"><rect width="6" height="6"/></g>
<g transform="translate(432,504) scale(4)"><rect width="6" height="6"/></g>
<g transform="translate(504,504) scale(4)"><rect width="6" height="6"/></g>
<g transform="translate(528,504) scale(4)"><rect width="6" height="6"/></g>
<g transform="translate(576,504) scale(4)"><rect width="6" height="6"/></g>
<g transform="translate(672,504) scale(4)"><rect width="6" height="6"/></g>
<g transform="translate(696,504) scale(4)"><rect width="6" height="6"/></g>
<g transform="translate(744,504) scale(4)"><rect width="6" height="6"/></g>
<g transform="translate(768,504) scale(4)"><rect width="6" height="6"/></g>
<g transform="translate(792,504) scale(4)"><rect width="6" height="6"/></g>
<g transform="translate(816,504) scale(4)"><rect width="6" height="6"/></g>
<g transform="translate(912,504) scale(4)"><rect width="6" height="6"/></g>
<g transform="translate(48,528) scale(4)"><rect width="6" height="6"/></g>
<g transform="translate(96,528) scale(4)"><rect width="6" height="6"/></g>
<g transform="translate(168,528) scale(4)"><rect width="6" height="6"/></g>
<g transform="translate(192,528) scale(4)"><rect width="6" height="6"/></g>
<g transform="translate(216,528) scale(4)"><rect width="6" height="6"/></g>
<g transform="translate(288,528) scale(4)"><rect width="6" height="6"/></g>
<g transform="translate(312,528) scale(4)"><rect width="6" height="6"/></g>
<g transform="translate(336,528) scale(4)"><rect width="6" height="6"/></g>
<g transform="translate(432,528) scale(4)"><rect width="6" height="6"/></g>
<g transform="translate(528,528) scale(4)"><rect width="6" height="6"/></g>
<g transform="translate(576,528) scale(4)"><rect width="6" height="6"/></g>
<g transform="translate(600,528) scale(4)"><rect width="6" height="6"/></g>
<g transform="translate(624,528) scale(4)"><rect width="6" height="6"/></g>
<g transform="translate(648,528) scale(4)"><rect width="6" height="6"/></g>
<g transform="translate(672,528) scale(4)"><rect width="6" height="6"/></g>
<g transform="translate(696,528) scale(4)"><rect width="6" height="6"/></g>
<g transform="translate(768,528) scale(4)"><rect width="6" height="6"/></g>
<g transform="translate(792,528) scale(4)"><rect width="6" height="6"/></g>
<g transform="translate(816,528) scale(4)"><rect width="6" height="6"/></g>
<g transform="translate(864,528) scale(4)"><rect width="6" height="6"/></g>
<g transform="translate(888,528) scale(4)"><rect width="6" height="6"/></g>
<g transform="translate(912,528) scale(4)"><rect width="6" height="6"/></g>
<g transform="translate(48,552) scale(4)"><rect width="6" height="6"/></g>
<g transform="translate(72,552) scale(4)"><rect width="6" height="6"/></g>
<g transform="translate(96,552) scale(4)"><rect width="6" height="6"/></g>
<g transform="translate(120,552) scale(4)"><rect width="6" height="6"/></g>
<g transform="translate(312,552) scale(4)"><rect width="6" height="6"/></g>
<g transform="translate(456,552) scale(4)"><rect width="6" height="6"/></g>
<g transform="translate(480,552) scale(4)"><rect width="6" height="6"/></g>
<g transform="translate(528,552) scale(4)"><rect width="6" height="6"/></g>
<g transform="translate(552,552) scale(4)"><rect width="6" height="6"/></g>
<g transform="translate(600,552) scale(4)"><rect width="6" height="6"/></g>
<g transform="translate(792,552) scale(4)"><rect width="6" height="6"/></g>
<g transform="translate(840,552) scale(4)"><rect width="6" height="6"/></g>
<g transform="translate(48,576) scale(4)"><rect width="6" height="6"/></g>
<g transform="translate(72,576) scale(4)"><rect width="6" height="6"/></g>
<g transform="translate(96,576) scale(4)"><rect width="6" height="6"/></g>
<g transform="translate(120,576) scale(4)"><rect width="6" height="6"/></g>
<g transform="translate(144,576) scale(4)"><rect width="6" height="6"/></g>
<g transform="translate(192,576) scale(4)"><rect width="6" height="6"/></g>
<g transform="translate(240,576) scale(4)"><rect width="6" height="6"/></g>
<g transform="translate(264,576) scale(4)"><rect width="6" height="6"/></g>
<g transform="translate(360,576) scale(4)"><rect width="6" height="6"/></g>
<g transform="translate(432,576) scale(4)"><rect width="6" height="6"/></g>
<g transform="translate(528,576) scale(4)"><rect width="6" height="6"/></g>
<g transform="translate(552,576) scale(4)"><rect width="6" height="6"/></g>
<g transform="translate(576,576) scale(4)"><rect width="6" height="6"/></g>
<g transform="translate(624,576) scale(4)"><rect width="6" height="6"/></g>
<g transform="translate(696,576) scale(4)"><rect width="6" height="6"/></g>
<g transform="translate(768,576) scale(4)"><rect width="6" height="6"/></g>
<g transform="translate(840,576) scale(4)"><rect width="6" height="6"/></g>
<g transform="translate(864,576) scale(4)"><rect width="6" height="6"/></g>
<g transform="translate(888,576) scale(4)"><rect width="6" height="6"/></g>
<g transform="translate(912,576) scale(4)"><rect width="6" height="6"/></g>
<g transform="translate(48,600) scale(4)"><rect width="6" height="6"/></g>
<g transform="translate(72,600) scale(4)"><rect width="6" height="6"/></g>
<g transform="translate(96,600) scale(4)"><rect width="6" height="6"/></g>
<g transform="translate(120,600) scale(4)"><rect width="6" height="6"/></g>
<g transform="translate(168,600) scale(4)"><rect width="6" height="6"/></g>
<g transform="translate(216,600) scale(4)"><rect width="6" height="6"/></g>
<g transform="translate(240,600) scale(4)"><rect width="6" height="6"/></g>
<g transform="translate(288,600) scale(4)"><rect width="6" height="6"/></g>
<g transform="translate(312,600) scale(4)"><rect width="6" height="6"/></g>
<g transform="translate(336,600) scale(4)"><rect width="6" height="6"/></g>
<g transform="translate(360,600) scale(4)"><rect width="6" height="6"/></g>
<g transform="translate(408,600) scale(4)"><rect width="6" height="6"/></g>
<g transform="translate(432,600) scale(4)"><rect width="6" height="6"/></g>
<g transform="translate(504,600) scale(4)"><rect width="6" height="6"/></g>
<g transform="translate(528,600) scale(4)"><rect width="6" height="6"/></g>
<g transform="translate(552,600) scale(4)"><rect width="6" height="6"/></g>
<g transform="translate(576,600) scale(4)"><rect width="6" height="6"/></g>
<g transform="translate(600,600) scale(4)"><rect width="6" height="6"/></g>
<g transform="translate(624,600) scale(4)"><rect width="6" height="6"/></g>
<g transform="translate(672,600) scale(4)"><rect width="6" height="6"/></g>
<g transform="translate(744,600) scale(4)"><rect width="6" height="6"/></g>
<g transform="translate(768,600) scale(4)"><rect width="6" height="6"/></g>
<g transform="translate(792,600) scale(4)"><rect width="6" height="6"/></g>
<g transform="translate(48,624) scale(4)"><rect width="6" height="6"/></g>
<g transform="translate(192,624) scale(4)"><rect width="6" height="6"/></g>
<g transform="translate(216,624) scale(4)"><rect width="6" height="6"/></g>
<g transform="translate(264,624) scale(4)"><rect width="6" height="6"/></g>
<g transform="translate(288,624) scale(4)"><rect width="6" height="6"/></g>
<g transform="translate(336,624) scale(4)"><rect width="6" height="6"/></g>
<g transform="translate(384,624) scale(4)"><rect width="6" height="6"/></g>
<g transform="translate(432,624) scale(4)"><rect width="6" height="6"/></g>
<g transform="translate(768,624) scale(4)"><rect width="6" height="6"/></g>
<g transform="translate(840,624) scale(4)"><rect width="6" height="6"/></g>
<g transform="translate(864,624) scale(4)"><rect width="6" height="6"/></g>
<g transform="translate(888,624) scale(4)"><rect width="6" height="6"/></g>
<g transform="translate(912,624) scale(4)"><rect width="6" height="6"/></g>
<g transform="translate(48,648) scale(4)"><rect width="6" height="6"/></g>
<g transform="translate(72,648) scale(4)"><rect width="6" height="6"/></g>
<g transform="translate(120,648) scale(4)"><rect width="6" height="6"/></g>
<g transform="translate(360,648) scale(4)"><rect width="6" height="6"/></g>
<g transform="translate(384,648) scale(4)"><rect width="6" height="6"/></g>
<g transform="translate(408,648) scale(4)"><rect width="6" height="6"/></g>
<g transform="translate(456,648) scale(4)"><rect width="6" height="6"/></g>
<g transform="translate(552,648) scale(4)"><rect width="6" height="6"/></g>
<g transform="translate(576,648) scale(4)"><rect width="6" height="6"/></g>
<g transform="translate(624,648) scale(4)"><rect width="6" height="6"/></g>
<g transform="translate(672,648) scale(4)"><rect width="6" height="6"/></g>
<g transform="translate(696,648) scale(4)"><rect width="6" height="6"/></g>
<g transform="translate(720,648) scale(4)"><rect width="6" height="6"/></g>
<g transform="translate(744,648) scale(4)"><rect width="6" height="6"/></g>
<g transform="translate(768,648) scale(4)"><rect width="6" height="6"/></g>
<g transform="translate(840,648) scale(4)"><rect width="6" height="6"/></g>
<g transform="translate(888,648) scale(4)"><rect width="6" height="6"/></g>
<g transform="translate(48,672) scale(4)"><rect width="6" height="6"/></g>
<g transform="translate(96,672) scale(4)"><rect width="6" height="6"/></g>
<g transform="translate(120,672) scale(4)"><rect width="6" height="6"/></g>
<g transform="translate(144,672) scale(4)"><rect width="6" height="6"/></g>
<g transform="translate(192,672) scale(4)"><rect width="6" height="6"/></g>
<g transform="translate(432,672) scale(4)"><rect width="6" height="6"/></g>
<g transform="translate(504,672) scale(4)"><rect width="6" height="6"/></g>
<g transform="translate(528,672) scale(4)"><rect width="6" height="6"/></g>
<g transform="translate(576,672) scale(4)"><rect width="6" height="6"/></g>
<g transform="translate(648,672) scale(4)"><rect width="6" height="6"/></g>
<g transform="translate(672,672) scale(4)"><rect width="6" height="6"/></g>
<g transform="translate(768,672) scale(4)"><rect width="6" height="6"/></g>
<g transform="translate(792,672) scale(4)"><rect width="6" height="6"/></g>
<g transform="translate(864,672) scale(4)"><rect width="6" height="6"/></g>
<g transform="translate(888,672) scale(4)"><rect width="6" height="6"/></g>
<g transform="translate(912,672) scale(4)"><rect width="6" height="6"/></g>
<g transform="translate(48,696) scale(4)"><rect width="6" height="6"/></g>
<g transform="translate(120,696) scale(4)"><rect width="6" height="6"/></g>
<g transform="translate(144,696) scale(4)"><rect width="6" height="6"/></g>
<g transform="translate(240,696) scale(4)"><rect width="6" height="6"/></g>
<g transform="translate(288,696) scale(4)"><rect width="6" height="6"/></g>
<g transform="translate(312,696) scale(4)"><rect width="6" height="6"/></g>
<g transform="translate(336,696) scale(4)"><rect width="6" height="6"/></g>
<g transform="translate(360,696) scale(4)"><rect width="6" height="6"/></g>
<g transform="translate(408,696) scale(4)"><rect width="6" height="6"/></g>
<g transform="translate(456,696) scale(4)"><rect width="6" height="6"/></g>
<g transform="translate(480,696) scale(4)"><rect width="6" height="6"/></g>
<g transform="translate(504,696) scale(4)"><rect width="6" height="6"/></g>
<g transform="translate(576,696) scale(4)"><rect width="6" height="6"/></g>
<g transform="translate(624,696) scale(4)"><rect width="6" height="6"/></g>
<g transform="translate(672,696) scale(4)"><rect width="6" height="6"/></g>
<g transform="translate(720,696) scale(4)"><rect width="6" height="6"/></g>
<g transform="translate(744,696) scale(4)"><rect width="6" height="6"/></g>
<g transform="translate(792,696) scale(4)"><rect width="6" height="6"/></g>
<g transform="translate(48,720) scale(4)"><rect width="6" height="6"/></g>
<g transform="translate(96,720) scale(4)"><rect width="6" height="6"/></g>
<g transform="translate(144,720) scale(4)"><rect width="6" height="6"/></g>
<g transform="translate(192,720) scale(4)"><rect width="6" height="6"/></g>
<g transform="translate(264,720) scale(4)"><rect width="6" height="6"/></g>
<g transform="translate(288,720) scale(4)"><rect width="6" height="6"/></g>
<g transform="translate(336,720) scale(4)"><rect width="6" height="6"/></g>
<g transform="translate(432,720) scale(4)"><rect width="6" height="6"/></g>
<g transform="translate(528,720) scale(4)"><rect width="6" height="6"/></g>
<g transform="translate(552,720) scale(4)"><rect width="6" height="6"/></g>
<g transform="translate(648,720) scale(4)"><rect width="6" height="6"/></g>
<g transform="translate(672,720) scale(4)"><rect width="6" height="6"/></g>
<g transform="translate(720,720) scale(4)"><rect width="6" height="6"/></g>
<g transform="translate(744,720) scale(4)"><rect width="6" height="6"/></g>
<g transform="translate(768,720) scale(4)"><rect width="6" height="6"/></g>
<g transform="translate(792,720) scale(4)"><rect width="6" height="6"/></g>
<g transform="translate(816,720) scale(4)"><rect width="6" height="6"/></g>
<g transform="translate(840,720) scale(4)"><rect width="6" height="6"/></g>
<g transform="translate(864,720) scale(4)"><rect width="6" height="6"/></g>
<g transform="translate(888,720) scale(4)"><rect width="6" height="6"/></g>
<g transform="translate(240,744) scale(4)"><rect width="6" height="6"/></g>
<g transform="translate(264,744) scale(4)"><rect width="6" height="6"/></g>
<g transform="translate(312,744) scale(4)"><rect width="6" height="6"/></g>
<g transform="translate(408,744) scale(4)"><rect width="6" height="6"/></g>
<g transform="translate(432,744) scale(4)"><rect width="6" height="6"/></g>
<g transform="translate(456,744) scale(4)"><rect width="6" height="6"/></g>
<g transform="translate(504,744) scale(4)"><rect width="6" height="6"/></g>
<g transform="translate(528,744) scale(4)"><rect width="6" height="6"/></g>
<g transform="translate(600,744) scale(4)"><rect width="6" height="6"/></g>
<g transform="translate(648,744) scale(4)"><rect width="6" height="6"/></g>
<g transform="translate(672,744) scale(4)"><rect width="6" height="6"/></g>
<g transform="translate(720,744) scale(4)"><rect width="6" height="6"/></g>
<g transform="translate(816,744) scale(4)"><rect width="6" height="6"/></g>
<g transform="translate(888,744) scale(4)"><rect width="6" height="6"/></g>
<g transform="translate(288,768) scale(4)"><rect width="6" height="6"/></g>
<g transform="translate(360,768) scale(4)"><rect width="6" height="6"/></g>
<g transform="translate(432,768) scale(4)"><rect width="6" height="6"/></g>
<g transform="translate(456,768) scale(4)"><rect width="6" height="6"/></g>
<g transform="translate(480,768) scale(4)"><rect width="6" height="6"/></g>
<g transform="translate(504,768) scale(4)"><rect width="6" height="6"/></g>
<g transform="translate(576,768) scale(4)"><rect width="6" height="6"/></g>
<g transform="translate(720,768) scale(4)"><rect width="6" height="6"/></g>
<g transform="translate(768,768) scale(4)"><rect width="6" height="6"/></g>
<g transform="translate(816,768) scale(4)"><rect width="6" height="6"/></g>
<g transform="translate(840,768) scale(4)"><rect width="6" height="6"/></g>
<g transform="translate(888,768) scale(4)"><rect width="6" height="6"/></g>
<g transform="translate(912,768) scale(4)"><rect width="6" height="6"/></g>
<g transform="translate(360,792) scale(4)"><rect width="6" height="6"/></g>
<g transform="translate(384,792) scale(4)"><rect width="6" height="6"/></g>
<g transform="translate(432,792) scale(4)"><rect width="6" height="6"/></g>
<g transform="translate(528,792) scale(4)"><rect width="6" height="6"/></g>
<g transform="translate(552,792) scale(4)"><rect width="6" height="6"/></g>
<g transform="translate(720,792) scale(4)"><rect width="6" height="6"/></g>
<g transform="translate(816,792) scale(4)"><rect width="6" height="6"/></g>
<g transform="translate(888,792) scale(4)"><rect width="6" height="6"/></g>
<g transform="translate(240,816) scale(4)"><rect width="6" height="6"/></g>
<g transform="translate(288,816) scale(4)"><rect width="6" height="6"/></g>
<g transform="translate(336,816) scale(4)"><rect width="6" height="6"/></g>
<g transform="translate(384,816) scale(4)"><rect width="6" height="6"/></g>
<g transform="translate(432,816) scale(4)"><rect width="6" height="6"/></g>
<g transform="translate(456,816) scale(4)"><rect width="6" height="6"/></g>
<g transform="translate(624,816) scale(4)"><rect width="6" height="6"/></g>
<g transform="translate(648,816) scale(4)"><rect width="6" height="6"/></g>
<g transform="translate(696,816) scale(4)"><rect width="6" height="6"/></g>
<g transform="translate(720,816) scale(4)"><rect width="6" height="6"/></g>
<g transform="translate(744,816) scale(4)"><rect width="6" height="6"/></g>
<g transform="translate(768,816) scale(4)"><rect width="6" height="6"/></g>
<g transform="translate(792,816) scale(4)"><rect width="6" height="6"/></g>
<g transform="translate(816,816) scale(4)"><rect width="6" height="6"/></g>
<g transform="translate(864,816) scale(4)"><rect width="6" height="6"/></g>
<g transform="translate(888,816) scale(4)"><rect width="6" height="6"/></g>
<g transform="translate(912,816) scale(4)"><rect width="6" height="6"/></g>
<g transform="translate(240,840) scale(4)"><rect width="6" height="6"/></g>
<g transform="translate(264,840) scale(4)"><rect width="6" height="6"/></g>
<g transform="translate(336,840) scale(4)"><rect width="6" height="6"/></g>
<g transform="translate(456,840) scale(4)"><rect width="6" height="6"/></g>
<g transform="translate(480,840) scale(4)"><rect width="6" height="6"/></g>
<g transform="translate(504,840) scale(4)"><rect width="6" height="6"/></g>
<g transform="translate(552,840) scale(4)"><rect width="6" height="6"/></g>
<g transform="translate(720,840) scale(4)"><rect width="6" height="6"/></g>
<g transform="translate(768,840) scale(4)"><rect width="6" height="6"/></g>
<g transform="translate(816,840) scale(4)"><rect width="6" height="6"/></g>
<g transform="translate(840,840) scale(4)"><rect width="6" height="6"/></g>
<g transform="translate(240,864) scale(4)"><rect width="6" height="6"/></g>
<g transform="translate(264,864) scale(4)"><rect width="6" height="6"/></g>
<g transform="translate(312,864) scale(4)"><rect width="6" height="6"/></g>
<g transform="translate(336,864) scale(4)"><rect width="6" height="6"/></g>
<g transform="translate(432,864) scale(4)"><rect width="6" height="6"/></g>
<g transform="translate(480,864) scale(4)"><rect width="6" height="6"/></g>
<g transform="translate(528,864) scale(4)"><rect width="6" height="6"/></g>
<g transform="translate(552,864) scale(4)"><rect width="6" height="6"/></g>
<g transform="translate(600,864) scale(4)"><rect width="6" height="6"/></g>
<g transform="translate(624,864) scale(4)"><rect width="6" height="6"/></g>
<g transform="translate(672,864) scale(4)"><rect width="6" height="6"/></g>
<g transform="translate(720,864) scale(4)"><rect width="6" height="6"/></g>
<g transform="translate(744,864) scale(4)"><rect width="6" height="6"/></g>
<g transform="translate(792,864) scale(4)"><rect width="6" height="6"/></g>
<g transform="translate(840,864) scale(4)"><rect width="6" height="6"/></g>
<g transform="translate(912,864) scale(4)"><rect width="6" height="6"/></g>
<g transform="translate(288,888) scale(4)"><rect width="6" height="6"/></g>
<g transform="translate(336,888) scale(4)"><rect width="6" height="6"/></g>
<g transform="translate(360,888) scale(4)"><rect width="6" height="6"/></g>
<g transform="translate(408,888) scale(4)"><rect width="6" height="6"/></g>
<g transform="translate(432,888) scale(4)"><rect width="6" height="6"/></g>
<g transform="translate(504,888) scale(4)"><rect width="6" height="6"/></g>
<g transform="translate(528,888) scale(4)"><rect width="6" height="6"/></g>
<g transform="translate(600,888) scale(4)"><rect width="6" height="6"/></g>
<g transform="translate(696,888) scale(4)"><rect width="6" height="6"/></g>
<g transform="translate(720,888) scale(4)"><rect width="6" height="6"/></g>
<g transform="translate(792,888) scale(4)"><rect width="6" height="6"/></g>
<g transform="translate(912,888) scale(4)"><rect width="6" height="6"/></g>
<g transform="translate(360,912) scale(4)"><rect width="6" height="6"/></g>
<g transform="translate(456,912) scale(4)"><rect width="6" height="6"/></g>
<g transform="translate(528,912) scale(4)"><rect width="6" height="6"/></g>
<g transform="translate(552,912) scale(4)"><rect width="6" height="6"/></g>
<g transform="translate(600,912) scale(4)"><rect width="6" height="6"/></g>
<g transform="translate(624,912) scale(4)"><rect width="6" height="6"/></g>
<g transform="translate(648,912) scale(4)"><rect width="6" height="6"/></g>
<g transform="translate(672,912) scale(4)"><rect width="6" height="6"/></g>
<g transform="translate(744,912) scale(4)"><rect width="6" height="6"/></g>
<g transform="translate(840,912) scale(4)"><rect width="6" height="6"/></g>
<g transform="translate(864,912) scale(4)"><rect width="6" height="6"/></g>
<g transform="translate(888,912) scale(4)"><rect width="6" height="6"/></g>
<g transform="translate(912,912) scale(4)"><rect width="6" height="6"/></g>
</g></mask></defs>
<rect width="984" height="984" fill="#ffffff" x="0" y="0" />
<rect x="0" y="0" width="984" height="984" mask="url(#qrmask)" fill="#000000" />
<g transform="translate(48,48)"  fill="#000000"><g transform="scale(12)"><path d="M0,0v14h14V0H0z M12,12H2V2h10V12z"/></g></g>
<g transform="translate(768,48)"  fill="#000000"><g transform="scale(12)"><path d="M0,0v14h14V0H0z M12,12H2V2h10V12z"/></g></g>
<g transform="translate(48,768)"  fill="#000000"><g transform="scale(12)"><path d="M0,0v14h14V0H0z M12,12H2V2h10V12z"/></g></g>
<g transform="translate(96,96)"  fill="#000000"><g transform="scale(12)"><rect width="6" height="6"/></g></g>
<g transform="translate(816,96)"  fill="#000000"><g transform="scale(12)"><rect width="6" height="6"/></g></g>
<g transform="translate(96,816)"  fill="#000000"><g transform="scale(12)"><rect width="6" height="6"/></g></g>
</svg>