<svg width="73" height="52" viewBox="0 0 73 52" fill="none" xmlns="http://www.w3.org/2000/svg">
<path d="M14.4414 17.5846C21.5619 17.9495 27.0113 24.1322 26.613 31.3938C26.5255 33.1121 26.1023 34.8012 25.368 36.3628C24.6337 37.9244 23.603 39.3272 22.3359 40.4894C21.0688 41.6517 19.5907 42.5502 17.9877 43.1327C16.3846 43.7151 14.6887 43.9698 12.9987 43.882C5.87801 43.5176 0.428588 37.3349 0.826839 30.0729C0.914283 28.3546 1.33749 26.6654 2.0718 25.1038C2.80611 23.5422 3.83684 22.1394 5.10395 20.9771C6.37106 19.8148 7.84922 18.9162 9.4523 18.3338C11.0554 17.7514 12.7514 17.4967 14.4414 17.5846Z" fill="#E6007A"/>
<g filter="url(#filter0_b_341_2176)">
<path d="M14.3168 19.8562C20.2073 20.158 24.7154 25.2727 24.3858 31.28C24.3135 32.7015 23.9634 34.0988 23.3559 35.3906C22.7484 36.6824 21.8958 37.8429 20.8476 38.8044C19.7994 39.7659 18.5766 40.5092 17.2505 40.9911C15.9243 41.4729 14.5214 41.6836 13.1233 41.6109C7.23264 41.3095 2.72456 36.1948 3.05402 30.1872C3.12636 28.7657 3.47645 27.3683 4.08392 26.0765C4.69138 24.7846 5.54407 23.6242 6.59229 22.6626C7.64052 21.7011 8.86334 20.9578 10.1895 20.476C11.5157 19.9942 12.9187 19.7835 14.3168 19.8562Z" fill="url(#paint0_linear_341_2176)"/>
<path d="M13.1233 41.6109C14.5214 41.6836 15.9243 41.4729 17.2505 40.9911C18.5766 40.5092 19.7994 39.7659 20.8476 38.8044C21.8958 37.8429 22.7484 36.6824 23.3559 35.3906C23.9634 34.0988 24.3135 32.7015 24.3858 31.28C24.7154 25.2727 20.2073 20.158 14.3168 19.8562L13.1233 41.6109ZM13.1233 41.6109C7.23264 41.3095 2.72456 36.1948 3.05402 30.1872L13.1233 41.6109ZM14.3101 19.956L14.3102 19.956C20.1441 20.2549 24.6125 25.3216 24.2859 31.276L24.2859 31.2764C24.2142 32.6848 23.8673 34.0694 23.2654 35.3493C22.6636 36.6292 21.8188 37.7788 20.7805 38.7313C19.7421 39.6837 18.5309 40.42 17.2175 40.8972C15.904 41.3744 14.5146 41.5831 13.13 41.5111L13.1299 41.5111C7.29579 41.2126 2.82739 36.1459 3.15394 30.1912L3.15396 30.1908C3.22564 28.7823 3.57253 27.3978 4.1744 26.1178C4.77626 24.8379 5.62102 23.6882 6.65941 22.7358C7.69778 21.7833 8.90901 21.047 10.2225 20.5698C11.536 20.0926 12.9255 19.8839 14.3101 19.956Z" stroke="url(#paint1_linear_341_2176)" stroke-opacity="0.5" stroke-width="0.2"/>
</g>
<path opacity="0.105" d="M24.3468 28.0295C22.6287 32.1502 18.3333 34.9583 13.4718 34.7091C8.59191 34.4594 4.61623 31.2038 3.3702 26.8933C3.22538 26.392 6.61723 19.9655 13.9504 20.1878C21.8233 20.5555 24.5845 27.4592 24.3468 28.0295Z" fill="white"/>
<path d="M52.7074 10.3262C63.7464 10.8919 72.1948 20.477 71.5772 31.7349C71.4416 34.3988 70.7855 37.0175 69.6471 39.4384C68.5087 41.8594 66.9107 44.0341 64.9464 45.836C62.982 47.6379 60.6905 49.0309 58.2052 49.9339C55.72 50.8369 53.0908 51.2318 50.4707 51.0956C39.4314 50.5306 30.983 40.9454 31.6004 29.6871C31.736 27.0231 32.3921 24.4043 33.5305 21.9833C34.6689 19.5623 36.2669 17.3875 38.2313 15.5856C40.1958 13.7837 42.4874 12.3907 44.9727 11.4877C47.458 10.5848 50.0872 10.1899 52.7074 10.3262Z" fill="#E6007A"/>
<g filter="url(#filter1_b_341_2176)">
<path d="M52.5139 13.848C61.6461 14.3159 68.6351 22.2453 68.1241 31.5585C68.012 33.7623 67.4692 35.9286 66.5274 37.9313C65.5857 39.9341 64.2638 41.7331 62.6388 43.2238C61.0137 44.7144 59.118 45.8668 57.0621 46.6138C55.0062 47.3608 52.8311 47.6875 50.6636 47.5748C41.5313 47.1074 34.5423 39.178 35.053 29.8644C35.1652 27.6606 35.708 25.4942 36.6497 23.4915C37.5915 21.4887 38.9134 19.6895 40.5385 18.1989C42.1636 16.7082 44.0594 15.5559 46.1153 14.8089C48.1713 14.0619 50.3464 13.7353 52.5139 13.848Z" fill="url(#paint2_linear_341_2176)"/>
<path d="M52.5072 13.9478L52.5073 13.9478C61.5829 14.4128 68.5322 22.2942 68.0242 31.5545L68.0242 31.5549C67.9127 33.7456 67.3731 35.8992 66.437 37.89C65.5008 39.8808 64.1868 41.6691 62.5716 43.1507C60.9564 44.6323 59.0723 45.7776 57.0291 46.5199C54.9859 47.2623 52.8243 47.587 50.6703 47.475L50.6702 47.475C41.5944 47.0105 34.6451 39.1291 35.153 29.8684L35.153 29.868C35.2645 27.6772 35.804 25.5237 36.7402 23.5328C37.6764 21.5419 38.9904 19.7536 40.6056 18.272C42.2209 16.7904 44.105 15.6451 46.1483 14.9027C48.1916 14.1603 50.3532 13.8357 52.5072 13.9478Z" stroke="url(#paint3_linear_341_2176)" stroke-opacity="0.5" stroke-width="0.2"/>
</g>
<path opacity="0.105" d="M68.0655 26.5193C65.402 32.9077 58.7427 37.2611 51.2058 36.8748C43.6404 36.4876 37.4768 31.4405 35.5451 24.7579C35.3206 23.9806 40.579 14.0175 51.9478 14.3622C64.1533 14.9321 68.434 25.6351 68.0655 26.5193Z" fill="white"/>
<g filter="url(#filter2_b_341_2176)">
<path d="M33.7831 1.92429C45.0638 2.50233 53.6971 12.2973 53.0659 23.8015C52.9274 26.5238 52.2569 29.1998 51.0936 31.6737C49.9303 34.1476 48.2974 36.3699 46.29 38.2113C44.2826 40.0526 41.941 41.4761 39.4013 42.3988C36.8617 43.3216 34.1749 43.7251 31.4975 43.5859C20.2166 43.0086 11.5834 33.2136 12.2143 21.7089C12.3528 18.9866 13.0233 16.3105 14.1866 13.8366C15.3499 11.3626 16.9829 9.14019 18.9903 7.29883C20.9977 5.45747 23.3395 4.03397 25.8792 3.11125C28.4189 2.18853 31.1057 1.78504 33.7831 1.92429Z" fill="#E6007A" fill-opacity="0.4"/>
<path d="M31.4645 44.0849C19.9012 43.4931 11.0697 33.4585 11.7146 21.69C11.8565 18.9029 12.543 16.163 13.7342 13.6298C14.9256 11.0962 16.5981 8.81975 18.6547 6.93323C20.7114 5.0467 23.1111 3.58783 25.7142 2.64206C28.3173 1.6963 31.0716 1.28263 33.8164 1.42535C45.3793 2.01797 54.2107 12.0525 53.5656 23.8206C53.4236 26.6075 52.7371 29.3473 51.546 31.8805C50.3546 34.414 48.6822 36.6904 46.6256 38.5769C44.569 40.4634 42.1693 41.9222 39.5663 42.868C36.9633 43.8138 34.2092 44.2275 31.4645 44.0849ZM31.4645 44.0849C31.4644 44.0849 31.4643 44.0848 31.4641 44.0848L31.4975 43.5859L31.4645 44.0849Z" stroke="url(#paint4_linear_341_2176)" stroke-linecap="round" stroke-linejoin="round"/>
</g>
<g filter="url(#filter3_b_341_2176)">
<path d="M33.6072 5.13135C43.1511 5.62041 50.4552 13.9074 49.9212 23.6405C49.804 25.9436 49.2368 28.2076 48.2526 30.3006C47.2683 32.3937 45.8868 34.2739 44.1885 35.8317C42.4902 37.3896 40.509 38.5939 38.3604 39.3746C36.2118 40.1553 33.9386 40.4967 31.6734 40.3789C22.1293 39.8905 14.8252 31.6035 15.359 21.87C15.4762 19.5668 16.0434 17.3027 17.0276 15.2097C18.0119 13.1166 19.3934 11.2363 21.0918 9.67845C22.7901 8.12058 24.7714 6.91624 26.9201 6.13557C29.0687 5.35491 31.3419 5.01354 33.6072 5.13135Z" fill="#E6007A" fill-opacity="0.35"/>
</g>
<defs>
<filter id="filter0_b_341_2176" x="-11.9629" y="4.84216" width="51.3652" height="51.7828" filterUnits="userSpaceOnUse" color-interpolation-filters="sRGB">
<feFlood flood-opacity="0" result="BackgroundImageFix"/>
<feGaussianBlur in="BackgroundImage" stdDeviation="7.5"/>
<feComposite in2="SourceAlpha" operator="in" result="effect1_backgroundBlur_341_2176"/>
<feBlend mode="normal" in="SourceGraphic" in2="effect1_backgroundBlur_341_2176" result="shape"/>
</filter>
<filter id="filter1_b_341_2176" x="20.0264" y="-1.17377" width="63.124" height="63.7703" filterUnits="userSpaceOnUse" color-interpolation-filters="sRGB">
<feFlood flood-opacity="0" result="BackgroundImageFix"/>
<feGaussianBlur in="BackgroundImage" stdDeviation="7.5"/>
<feComposite in2="SourceAlpha" operator="in" result="effect1_backgroundBlur_341_2176"/>
<feBlend mode="normal" in="SourceGraphic" in2="effect1_backgroundBlur_341_2176" result="shape"/>
</filter>
<filter id="filter2_b_341_2176" x="-12.8193" y="-23.1017" width="90.9189" height="91.7137" filterUnits="userSpaceOnUse" color-interpolation-filters="sRGB">
<feFlood flood-opacity="0" result="BackgroundImageFix"/>
<feGaussianBlur in="BackgroundImage" stdDeviation="12"/>
<feComposite in2="SourceAlpha" operator="in" result="effect1_backgroundBlur_341_2176"/>
<feBlend mode="normal" in="SourceGraphic" in2="effect1_backgroundBlur_341_2176" result="shape"/>
</filter>
<filter id="filter3_b_341_2176" x="-8.66895" y="-18.8914" width="82.6182" height="83.293" filterUnits="userSpaceOnUse" color-interpolation-filters="sRGB">
<feFlood flood-opacity="0" result="BackgroundImageFix"/>
<feGaussianBlur in="BackgroundImage" stdDeviation="12"/>
<feComposite in2="SourceAlpha" operator="in" result="effect1_backgroundBlur_341_2176"/>
<feBlend mode="normal" in="SourceGraphic" in2="effect1_backgroundBlur_341_2176" result="shape"/>
</filter>
<linearGradient id="paint0_linear_341_2176" x1="23.2968" y1="24.2026" x2="-0.510878" y2="23.5264" gradientUnits="userSpaceOnUse">
<stop stop-color="#E6007A"/>
<stop offset="1" stop-opacity="0.2"/>
</linearGradient>
<linearGradient id="paint1_linear_341_2176" x1="5.56491" y1="26.774" x2="23.662" y2="27.966" gradientUnits="userSpaceOnUse">
<stop stop-color="white"/>
<stop offset="1" stop-color="white" stop-opacity="0"/>
</linearGradient>
<linearGradient id="paint2_linear_341_2176" x1="66.4359" y1="20.5864" x2="29.5263" y2="19.5381" gradientUnits="userSpaceOnUse">
<stop stop-color="#E6007A"/>
<stop offset="1" stop-opacity="0.2"/>
</linearGradient>
<linearGradient id="paint3_linear_341_2176" x1="38.9457" y1="24.5729" x2="67.002" y2="26.4208" gradientUnits="userSpaceOnUse">
<stop stop-color="white"/>
<stop offset="1" stop-color="white" stop-opacity="0"/>
</linearGradient>
<linearGradient id="paint4_linear_341_2176" x1="19.6771" y1="6.14831" x2="44.5122" y2="39.6818" gradientUnits="userSpaceOnUse">
<stop stop-color="white" stop-opacity="0.25"/>
<stop offset="1" stop-color="white" stop-opacity="0"/>
</linearGradient>
</defs>
</svg>
