<svg width="21" height="21" viewBox="0 0 21 21" fill="none" xmlns="http://www.w3.org/2000/svg">
<path d="M9.02861 8.99054L7.09991 10.9192L6.76829 10.5876L8.69699 8.65892C8.78859 8.56732 8.93705 8.56735 9.02858 8.6589L9.02861 8.65892C9.1202 8.75052 9.1202 8.89895 9.02861 8.99054Z" stroke="#A1A2A3" stroke-width="0.940132"/>
<path d="M11.907 11.8687L12.2173 12.1789L11.907 11.8687L9.97833 13.7974L9.64671 13.4658L11.5754 11.5371C11.667 11.4455 11.8154 11.4455 11.907 11.5371L11.9071 11.5371C11.9986 11.6286 11.9986 11.7771 11.907 11.8687Z" stroke="#A1A2A3" stroke-width="0.940132"/>
<path d="M3.01821 13.1333L5.50125 10.6503L9.91507 15.0641L7.43207 17.5471L7.43204 17.5471C7.34021 17.639 7.21444 17.6887 7.08454 17.6843C7.08454 17.6843 7.08453 17.6843 7.08453 17.6843L4.99231 17.6147L4.9923 17.6147C4.60247 17.6018 4.22459 17.751 3.94875 18.0268L2.45878 19.5168L1.04856 18.1066L2.53845 16.6166C2.53846 16.6166 2.53848 16.6166 2.53849 16.6166C2.8144 16.3407 2.96353 15.9629 2.95057 15.5731L2.95057 15.573L2.88097 13.4808C2.88097 13.4808 2.88097 13.4808 2.88097 13.4808C2.87666 13.351 2.92635 13.2251 3.01821 13.1333C3.01821 13.1333 3.01821 13.1333 3.01821 13.1333Z" stroke="#A1A2A3" stroke-width="0.940132"/>
<path d="M17.4918 7.48707L15.0088 9.97007L10.5949 5.55624L13.0779 3.07321C13.0779 3.0732 13.078 3.0732 13.078 3.0732C13.1698 2.98134 13.2957 2.93165 13.4255 2.93596C13.4255 2.93596 13.4255 2.93596 13.4255 2.93596L15.5177 3.00556L15.5177 3.00556C15.9076 3.01852 16.2854 2.86939 16.5613 2.59348C16.5613 2.59347 16.5613 2.59346 16.5613 2.59344L18.0512 1.10355L19.4615 2.51378L17.9715 4.00374C17.6956 4.27959 17.5465 4.65746 17.5594 5.04729L17.5594 5.0473L17.629 7.13952C17.629 7.13952 17.629 7.13953 17.629 7.13953C17.6333 7.26944 17.5837 7.3952 17.4918 7.48703L17.4918 7.48707Z" stroke="#A1A2A3" stroke-width="0.940132"/>
<path d="M15.0949 10.6952L9.86936 5.46962L10.2439 5.09511L15.4694 10.3207L15.0949 10.6952Z" stroke="#A1A2A3" stroke-width="0.940132"/>
</svg>
