<svg width="1440" height="1719" viewBox="0 0 1440 1719" fill="none" xmlns="http://www.w3.org/2000/svg">
<path d="M455.5 139.491C655.06 43.7297 -13 33.9908 -13 33.9908V15.9908C-13 15.9908 893 -18.5063 489.5 199.492C337.373 281.682 1026 281.494 1047.5 443.494C1060.67 542.753 759 584.507 775 776C800.612 1082.53 1440 1138 1440 1138V1718.5C982.333 1690.46 -178.5 915.793 540 623.991C1176.5 365.491 21 347.991 455.5 139.491Z" fill="#8BA1BE" fill-opacity="0.2"/>
<path opacity="0.3" d="M557.396 612.996C1198.96 354.495 34.2702 336.995 472.225 128.494C668.838 34.8907 28.8938 23.4669 0 23V4.49973C46.9212 2.87439 902.089 -23.5465 506.495 188.496C353.159 270.686 1047.26 270.498 1068.93 432.498C1082.21 531.758 729.756 612.996 783.681 789.5C882.754 1113.78 1440 1138 1440 1138V1688.5C978.695 1660.46 -166.816 904.799 557.396 612.996Z" fill="#E6007A"/>
<path d="M0 23C28.8938 23.4669 668.838 34.8907 472.225 128.494C34.2702 336.995 1198.96 354.495 557.396 612.996C-165.772 904.379 977.399 1657.91 1440 1688M0 4.49973C46.9212 2.87439 902.089 -23.5465 506.495 188.496C353.159 270.686 1047.26 270.498 1068.93 432.498C1082.21 531.758 729.756 612.996 783.681 789.5C879.755 1103.96 1408.27 1136.33 1440 1138" stroke="#E6007A" stroke-width="4"/>
<path d="M1455 1468.5C1455 1468.5 504.5 1159.69 546.5 827.997C567.071 665.536 965.75 533.159 893 436.497C785 292.997 213.5 284.27 506.5 148.997C799.5 13.7232 15 14.3057 15 14.3057" stroke="white" stroke-width="2" stroke-dasharray="20 20"/>
</svg>
