<svg width="186" height="214" viewBox="0 0 186 214" fill="none" xmlns="http://www.w3.org/2000/svg">
<path d="M105.293 159.388C71.3292 158.235 44.1347 145.006 44.5523 129.852C44.4644 126.171 44.5168 118.007 45.1228 115.287C46.9703 100.639 77.3619 105.608 107.575 106.634C129.105 107.365 168.04 120.26 168.04 120.26C168.04 120.26 167.7 128.47 167.547 134.028C167.129 149.209 139.257 160.541 105.293 159.388Z" fill="#0B0B19"/>
<path opacity="0.12" d="M117.018 116.515L116.298 159.435C118.567 159.311 120.793 159.124 122.952 158.854L123.649 117.276C121.499 116.984 119.281 116.713 117.018 116.515Z" fill="white"/>
<path opacity="0.12" d="M89.498 116.793L88.8078 157.972C90.9535 158.356 93.1626 158.681 95.435 158.945L96.1507 116.245C93.8743 116.369 91.6567 116.552 89.498 116.793Z" fill="white"/>
<path opacity="0.12" d="M158.517 119.758C157.34 118.935 156.121 118.173 154.865 117.474L154.805 119.632L59.3998 116.404L59.4774 113.598C57.7211 114.365 56.0188 115.245 54.3815 116.234L44.9869 115.916L44.6015 129.856C44.4164 136.553 49.6691 142.867 58.5283 147.927L59.0144 130.344L154.42 133.572L153.953 150.442C162.291 146.074 167.36 140.381 167.536 134.011L167.921 120.076L158.517 119.758Z" fill="white"/>
<path d="M105.716 146.251C71.75 145.097 44.5538 131.884 44.9711 116.735C45.3884 101.586 73.261 90.2465 107.227 91.3999C141.192 92.5533 168.388 105.767 167.971 120.912C167.554 136.056 139.681 147.404 105.716 146.251Z" fill="#47454D"/>
<path opacity="0.399" d="M105.899 139.335C79.2322 138.429 57.8704 128.365 58.1875 116.859C58.5045 105.353 80.3805 96.7525 107.047 97.6579C133.713 98.5633 155.057 108.64 154.74 120.137C154.423 131.634 132.565 140.24 105.899 139.335Z" fill="black"/>
<path d="M105.915 139.615C79.2514 138.71 57.8726 129.35 58.166 118.709C58.4593 108.068 80.3138 100.17 106.977 101.075C133.641 101.98 155.002 111.344 154.708 121.985C154.415 132.626 132.579 140.519 105.915 139.615Z" fill="url(#paint0_linear_2372_8165)"/>
<path d="M105.915 139.615C79.2514 138.71 57.8726 129.35 58.166 118.709C58.4593 108.068 80.3138 100.17 106.977 101.075C133.641 101.98 155.002 111.344 154.708 121.985C154.415 132.626 132.579 140.519 105.915 139.615Z" fill="#0B0B19"/>
<path opacity="0.34" d="M105.915 139.615C79.2514 138.71 57.8726 129.35 58.166 118.709C58.4593 108.068 80.3138 100.17 106.977 101.075C133.641 101.98 155.002 111.344 154.708 121.985C154.415 132.626 132.579 140.519 105.915 139.615Z" fill="#0B0B19"/>
<g filter="url(#filter0_d_2372_8165)">
<path d="M132.177 117.403L128.61 115.347L115.506 115.274L111.33 117.371L132.177 117.403Z" fill="white"/>
<path d="M84.1719 122.024L87.7395 124.081L100.842 124.154L105.019 122.057L84.1719 122.024Z" fill="white"/>
<path d="M83.5332 117.694L87.5773 115.647L100.292 115.409L101.504 108.598L105.731 106.459L103.737 117.398L83.5332 117.694Z" fill="white"/>
<path d="M110.639 132.594L114.683 130.547L115.957 123.704L128.609 123.498L132.835 121.359L112.513 121.715L110.639 132.594Z" fill="white"/>
<path d="M109.752 120.598C110.756 120.073 110.818 119.216 109.892 118.685C108.965 118.153 107.4 118.149 106.396 118.674C105.393 119.199 105.33 120.056 106.257 120.587C107.183 121.118 108.748 121.123 109.752 120.598Z" fill="#E6007A"/>
</g>
<path d="M153.878 149.308L169.085 138.724L43.208 130.003L-4.43611 148.73C-72.5864 197.466 48.7391 251.234 153.878 149.308Z" fill="#06070A" fill-opacity="0.59"/>
<path d="M105.285 159.333C71.3214 158.18 44.1269 144.952 44.5444 129.797C44.4566 126.116 44.509 117.952 45.115 115.232C46.9624 100.584 77.3541 105.553 107.568 106.579C129.098 107.31 168.033 120.205 168.033 120.205C168.033 120.205 167.692 128.415 167.539 133.973C167.121 149.154 139.25 160.486 105.285 159.333Z" fill="#0B0B19"/>
<path opacity="0.12" d="M116.998 116.475L116.279 159.395C118.548 159.271 120.773 159.084 122.932 158.814L123.629 117.236C121.479 116.944 119.262 116.673 116.998 116.475Z" fill="white"/>
<path opacity="0.12" d="M89.4765 116.752L88.7863 157.931C90.9321 158.315 93.1411 158.64 95.4135 158.904L96.1293 116.204C93.8528 116.328 91.6352 116.511 89.4765 116.752Z" fill="white"/>
<path opacity="0.12" d="M158.498 119.704C157.32 118.881 156.101 118.119 154.845 117.42L154.786 119.578L59.3803 116.35L59.4578 113.544C57.7016 114.311 55.9993 115.191 54.362 116.18L44.9674 115.862L44.582 129.802C44.3968 136.5 49.6496 142.813 58.5088 147.873L58.9949 130.29L154.4 133.518L153.934 150.388C162.272 146.021 167.34 140.327 167.516 133.958L167.901 120.022L158.498 119.704Z" fill="white"/>
<path d="M105.696 146.225C71.7304 145.072 44.5342 131.858 44.9516 116.709C45.3689 101.56 73.2415 90.2211 107.207 91.3745C141.173 92.5279 168.369 105.742 167.952 120.886C167.534 136.031 139.662 147.379 105.696 146.225Z" fill="#47454D"/>
<path opacity="0.399" d="M105.932 139.279C79.2654 138.374 57.9037 128.31 58.2207 116.804C58.5377 105.298 80.4137 96.6969 107.08 97.6022C133.747 98.5076 155.09 108.585 154.773 120.082C154.456 131.579 132.598 140.185 105.932 139.279Z" fill="black"/>
<path d="M105.896 139.575C79.2318 138.67 57.8531 129.31 58.1465 118.669C58.4398 108.028 80.2943 100.13 106.958 101.035C133.622 101.94 154.982 111.304 154.689 121.945C154.396 132.586 132.559 140.479 105.896 139.575Z" fill="url(#paint1_linear_2372_8165)"/>
<path d="M105.896 139.575C79.2318 138.67 57.8531 129.31 58.1465 118.669C58.4398 108.028 80.2943 100.13 106.958 101.035C133.622 101.94 154.982 111.304 154.689 121.945C154.396 132.586 132.559 140.479 105.896 139.575Z" fill="#0B0B19"/>
<path opacity="0.34" d="M105.896 139.575C79.2318 138.67 57.8531 129.31 58.1465 118.669C58.4398 108.028 80.2943 100.13 106.958 101.035C133.622 101.94 154.982 111.304 154.689 121.945C154.396 132.586 132.559 140.479 105.896 139.575Z" fill="#0B0B19"/>
<g filter="url(#filter1_d_2372_8165)">
<path d="M132.169 117.351L128.602 115.295L115.498 115.221L111.322 117.318L132.169 117.351Z" fill="white"/>
<path d="M84.1641 121.972L87.7317 124.028L100.835 124.101L105.011 122.004L84.1641 121.972Z" fill="white"/>
<path d="M83.5254 117.642L87.5695 115.594L100.284 115.357L101.497 108.545L105.723 106.406L103.729 117.345L83.5254 117.642Z" fill="white"/>
<path d="M110.631 132.541L114.675 130.494L115.95 123.651L128.601 123.445L132.827 121.306L112.505 121.663L110.631 132.541Z" fill="white"/>
<path d="M109.744 120.545C110.748 120.02 110.81 119.164 109.884 118.632C108.957 118.101 107.392 118.096 106.389 118.621C105.385 119.146 105.323 120.003 106.249 120.534C107.176 121.065 108.74 121.07 109.744 120.545Z" fill="#E6007A"/>
</g>
<path d="M119.457 139.107C85.4932 137.953 58.2988 124.725 58.7163 109.571C58.6285 105.889 58.6808 97.7253 59.2869 95.0059C61.1343 80.3578 91.526 85.3267 121.739 86.3525C143.269 87.0834 182.205 99.9787 182.205 99.9787C182.205 99.9787 181.864 108.189 181.711 113.746C181.293 128.928 153.421 140.26 119.457 139.107Z" fill="#0B0B19"/>
<path opacity="0.12" d="M131.182 96.2334L130.462 139.154C132.731 139.03 134.957 138.842 137.116 138.573L137.813 96.9944C135.663 96.703 133.445 96.4321 131.182 96.2334Z" fill="white"/>
<path opacity="0.12" d="M103.662 96.5119L102.972 137.691C105.118 138.075 107.327 138.399 109.599 138.664L110.315 95.9639C108.038 96.0877 105.821 96.2704 103.662 96.5119Z" fill="white"/>
<path opacity="0.12" d="M172.681 99.4765C171.504 98.6538 170.285 97.8914 169.029 97.1923L168.969 99.3509L73.5639 96.1225L73.6414 93.3168C71.8852 94.0833 70.1828 94.9639 68.5456 95.9527L59.151 95.6348L58.7656 109.575C58.5804 116.272 63.8332 122.586 72.6924 127.646L73.1785 110.062L168.584 113.291L168.117 130.16C176.456 125.793 181.524 120.1 181.7 113.73L182.085 99.7947L172.681 99.4765Z" fill="white"/>
<path d="M119.88 125.97C85.914 124.816 58.7178 111.603 59.1352 96.4535C59.5525 81.3044 87.4251 69.9653 121.391 71.1187C155.356 72.2721 182.552 85.4857 182.135 100.63C181.718 115.775 153.845 127.123 119.88 125.97Z" fill="#47454D"/>
<path opacity="0.399" d="M120.063 119.054C93.3962 118.148 72.0345 108.084 72.3515 96.578C72.6686 85.072 94.5446 76.4713 121.211 77.3766C147.878 78.282 169.221 88.359 168.904 99.8561C168.587 111.353 146.729 119.959 120.063 119.054Z" fill="black"/>
<path d="M120.079 119.333C93.4154 118.429 72.0367 109.068 72.3301 98.4274C72.6234 87.7864 94.4779 79.8888 121.142 80.7937C147.805 81.6985 169.166 91.0625 168.873 101.704C168.579 112.345 146.743 120.238 120.079 119.333Z" fill="url(#paint2_linear_2372_8165)"/>
<path d="M120.079 119.333C93.4154 118.429 72.0367 109.068 72.3301 98.4274C72.6234 87.7864 94.4779 79.8888 121.142 80.7937C147.805 81.6985 169.166 91.0625 168.873 101.704C168.579 112.345 146.743 120.238 120.079 119.333Z" fill="#0B0B19"/>
<path opacity="0.34" d="M120.079 119.333C93.4154 118.429 72.0367 109.068 72.3301 98.4274C72.6234 87.7864 94.4779 79.8888 121.142 80.7937C147.805 81.6985 169.166 91.0625 168.873 101.704C168.579 112.345 146.743 120.238 120.079 119.333Z" fill="#0B0B19"/>
<g filter="url(#filter2_d_2372_8165)">
<path d="M146.347 97.1319L142.78 95.0758L129.676 95.0025L125.5 97.0996L146.347 97.1319Z" fill="white"/>
<path d="M98.3418 101.753L101.909 103.809L115.012 103.882L119.189 101.785L98.3418 101.753Z" fill="white"/>
<path d="M97.7031 97.4229L101.747 95.3757L114.462 95.1378L115.674 88.3266L119.901 86.1874L117.907 97.1266L97.7031 97.4229Z" fill="white"/>
<path d="M124.809 112.322L128.853 110.275L130.127 103.433L142.779 103.227L147.005 101.088L126.682 101.444L124.809 112.322Z" fill="white"/>
<path d="M123.922 100.327C124.926 99.8013 124.988 98.9448 124.062 98.4133C123.135 97.8818 121.57 97.877 120.566 98.4023C119.563 98.9276 119.5 99.784 120.427 100.315C121.353 100.847 122.918 100.852 123.922 100.327Z" fill="#E6007A"/>
</g>
<path d="M99.1956 116.771C65.2315 115.617 38.037 102.389 38.4546 87.2346C38.3668 83.5533 38.4191 75.3894 39.0251 72.6699C40.8726 58.0219 71.2643 62.9907 101.478 64.0165C123.008 64.7475 161.943 77.6428 161.943 77.6428C161.943 77.6428 161.602 85.8527 161.449 91.4104C161.031 106.592 133.16 117.924 99.1956 116.771Z" fill="#0B0B19"/>
<path opacity="0.12" d="M110.92 73.8975L110.2 116.818C112.47 116.694 114.695 116.507 116.854 116.237L117.551 74.6585C115.401 74.3671 113.184 74.0961 110.92 73.8975Z" fill="white"/>
<path opacity="0.12" d="M83.4004 74.176L82.7102 115.355C84.8559 115.739 87.0649 116.063 89.3374 116.328L90.0531 73.6279C87.7766 73.7518 85.5591 73.9345 83.4004 74.176Z" fill="white"/>
<path opacity="0.12" d="M152.42 77.1406C151.242 76.3179 150.023 75.5555 148.767 74.8564L148.707 77.015L53.3021 73.7866L53.3797 70.9809C51.6234 71.7474 49.9211 72.6279 48.2839 73.6168L38.8892 73.2989L38.5039 87.2387C38.3187 93.9361 43.5715 100.25 52.4307 105.31L52.9168 87.7265L148.322 90.9548L147.856 107.825C156.194 103.457 161.262 97.7636 161.438 91.3942L161.823 77.4588L152.42 77.1406Z" fill="white"/>
<path d="M99.6179 103.634C65.6523 102.48 38.4561 89.2666 38.8734 74.1175C39.2908 58.9685 67.1634 47.6293 101.129 48.7827C135.095 49.9361 162.291 63.1497 161.874 78.2943C161.456 93.439 133.584 104.787 99.6179 103.634Z" fill="#47454D"/>
<path opacity="0.399" d="M99.801 96.7176C73.1345 95.8123 51.7728 85.748 52.0898 74.242C52.4069 62.7361 74.2829 54.1354 100.949 55.0407C127.616 55.9461 148.959 66.023 148.642 77.5201C148.326 89.0172 126.467 97.623 99.801 96.7176Z" fill="black"/>
<path d="M99.8174 96.9974C73.1537 96.0926 51.775 86.7324 52.0683 76.0914C52.3617 65.4504 74.2161 57.5529 100.88 58.4577C127.544 59.3625 148.904 68.7266 148.611 79.3676C148.317 90.0086 126.481 97.9023 99.8174 96.9974Z" fill="url(#paint3_linear_2372_8165)"/>
<path d="M99.8174 96.9974C73.1537 96.0926 51.775 86.7324 52.0683 76.0914C52.3617 65.4504 74.2161 57.5529 100.88 58.4577C127.544 59.3625 148.904 68.7266 148.611 79.3676C148.317 90.0086 126.481 97.9023 99.8174 96.9974Z" fill="#0B0B19"/>
<path opacity="0.34" d="M99.8174 96.9974C73.1537 96.0926 51.775 86.7324 52.0683 76.0914C52.3617 65.4504 74.2161 57.5529 100.88 58.4577C127.544 59.3625 148.904 68.7266 148.611 79.3676C148.317 90.0086 126.481 97.9023 99.8174 96.9974Z" fill="#0B0B19"/>
<g filter="url(#filter3_d_2372_8165)">
<path d="M126.067 74.7774L122.5 72.7213L109.397 72.648L105.221 74.7451L126.067 74.7774Z" fill="white"/>
<path d="M78.0625 79.3984L81.6302 81.4549L94.7331 81.5278L98.9093 79.4307L78.0625 79.3984Z" fill="white"/>
<path d="M77.4238 75.0684L81.4679 73.0212L94.1825 72.7833L95.395 65.9721L99.6216 63.8329L97.6273 74.7721L77.4238 75.0684Z" fill="white"/>
<path d="M104.53 89.9677L108.574 87.9206L109.848 81.0782L122.5 80.8722L126.725 78.7331L106.403 79.0894L104.53 89.9677Z" fill="white"/>
<path d="M103.643 77.972C104.646 77.4468 104.709 76.5903 103.782 76.0588C102.856 75.5274 101.291 75.5225 100.287 76.0478C99.2835 76.5731 99.2211 77.4295 100.148 77.9606C101.074 78.4921 102.639 78.4971 103.643 77.972Z" fill="#E6007A"/>
</g>
<path d="M121.522 92.4454C87.5577 91.2922 60.3632 78.0639 60.7808 62.9094C60.6929 59.2281 60.7453 51.0642 61.3513 48.3448C63.1988 33.6967 93.5905 38.6655 123.804 39.6913C145.334 40.4223 184.269 53.3176 184.269 53.3176C184.269 53.3176 183.928 61.5275 183.775 67.0852C183.357 82.2664 155.486 93.5985 121.522 92.4454Z" fill="#0B0B19"/>
<path opacity="0.12" d="M133.246 49.5723L132.527 92.4928C134.796 92.3687 137.021 92.1813 139.18 91.9117L139.877 50.3333C137.727 50.0419 135.51 49.7709 133.246 49.5723Z" fill="white"/>
<path opacity="0.12" d="M105.727 49.8508L105.036 91.0294C107.182 91.4136 109.391 91.7382 111.664 92.0031L112.379 49.3027C110.103 49.4266 107.885 49.6093 105.727 49.8508Z" fill="white"/>
<path opacity="0.12" d="M174.746 52.8154C173.568 51.9927 172.349 51.2303 171.093 50.5312L171.034 52.6898L75.6283 49.4614L75.7059 46.6557C73.9496 47.4222 72.2473 48.3027 70.6101 49.2916L61.2154 48.9737L60.83 62.9135C60.6449 69.6109 65.8976 75.9244 74.7568 80.9846L75.2429 63.4013L170.648 66.6296L170.182 83.4993C178.52 79.132 183.588 73.4384 183.764 67.069L184.149 53.1336L174.746 52.8154Z" fill="white"/>
<path d="M121.944 79.3084C87.9785 78.155 60.7823 64.9414 61.1996 49.7924C61.6169 34.6433 89.4895 23.3041 123.455 24.4575C157.421 25.6109 184.617 38.8245 184.2 53.9691C183.783 69.1138 155.91 80.4618 121.944 79.3084Z" fill="#47454D"/>
<path opacity="0.399" d="M122.127 72.3924C95.4607 71.4871 74.099 61.4228 74.416 49.9169C74.733 38.4109 96.609 29.8102 123.275 30.7155C149.942 31.6209 171.285 41.6979 170.969 53.1949C170.652 64.692 148.794 73.2978 122.127 72.3924Z" fill="black"/>
<path d="M122.144 72.6722C95.4799 71.7674 74.1012 62.4072 74.3945 51.7662C74.6878 41.1252 96.5423 33.2277 123.206 34.1325C149.87 35.0374 171.23 44.4014 170.937 55.0424C170.644 65.6834 148.807 73.5771 122.144 72.6722Z" fill="url(#paint4_linear_2372_8165)"/>
<path d="M122.144 72.6722C95.4799 71.7674 74.1012 62.4072 74.3945 51.7662C74.6878 41.1252 96.5423 33.2277 123.206 34.1325C149.87 35.0374 171.23 44.4014 170.937 55.0424C170.644 65.6834 148.807 73.5771 122.144 72.6722Z" fill="#0B0B19"/>
<path opacity="0.34" d="M122.144 72.6722C95.4799 71.7674 74.1012 62.4072 74.3945 51.7662C74.6878 41.1252 96.5423 33.2277 123.206 34.1325C149.87 35.0374 171.23 44.4014 170.937 55.0424C170.644 65.6834 148.807 73.5771 122.144 72.6722Z" fill="#0B0B19"/>
<g filter="url(#filter4_d_2372_8165)">
<path d="M148.382 50.4639L144.815 48.4078L131.711 48.3345L127.535 50.4316L148.382 50.4639Z" fill="white"/>
<path d="M100.377 55.085L103.945 57.1414L117.048 57.2143L121.224 55.1172L100.377 55.085Z" fill="white"/>
<path d="M99.7383 50.7549L103.782 48.7078L116.497 48.4699L117.709 41.6586L121.936 39.5194L119.942 50.4586L99.7383 50.7549Z" fill="white"/>
<path d="M126.844 65.6542L130.888 63.6071L132.162 56.7647L144.814 56.5588L149.04 54.4196L128.718 54.776L126.844 65.6542Z" fill="white"/>
<path d="M125.957 53.6586C126.961 53.1333 127.023 52.2768 126.097 51.7453C125.17 51.2139 123.605 51.209 122.602 51.7343C121.598 52.2596 121.536 53.1161 122.462 53.6471C123.389 54.1786 124.953 54.1836 125.957 53.6586Z" fill="#E6007A"/>
</g>
<path d="M91.0979 70.1241C57.1339 68.971 29.9394 55.7426 30.3569 40.5881C30.2691 36.9068 30.3215 28.7429 30.9275 26.0235C32.7749 11.3754 63.1666 16.3443 93.3801 17.37C114.91 18.101 153.845 30.9963 153.845 30.9963C153.845 30.9963 153.505 39.2062 153.352 44.7639C152.933 59.9452 125.062 71.2772 91.0979 70.1241Z" fill="#0B0B19"/>
<path opacity="0.12" d="M102.822 27.251L102.103 70.1715C104.372 70.0475 106.597 69.8601 108.757 69.5904L109.454 28.012C107.304 27.7206 105.086 27.4496 102.822 27.251Z" fill="white"/>
<path opacity="0.12" d="M75.3027 27.5295L74.6125 68.7081C76.7582 69.0924 78.9673 69.4169 81.2397 69.6818L81.9554 26.9814C79.679 27.1053 77.4614 27.288 75.3027 27.5295Z" fill="white"/>
<path opacity="0.12" d="M144.322 30.4941C143.145 29.6714 141.926 28.909 140.67 28.2099L140.61 30.3685L45.2045 27.1401L45.2821 24.3344C43.5258 25.1009 41.8235 25.9814 40.1862 26.9703L30.7916 26.6524L30.4062 40.5923C30.2211 47.2896 35.4738 53.6031 44.333 58.6633L44.8191 41.08L140.224 44.3084L139.758 61.178C148.096 56.8107 153.164 51.1171 153.34 44.7477L153.726 30.8123L144.322 30.4941Z" fill="white"/>
<path d="M91.5202 56.9871C57.5546 55.8337 30.3584 42.6201 30.7758 27.4711C31.1931 12.322 59.0657 0.982857 93.0313 2.13625C126.997 3.28964 154.193 16.5032 153.776 31.6479C153.359 46.7925 125.486 58.1405 91.5202 56.9871Z" fill="#47454D"/>
<path opacity="0.399" d="M91.7033 50.0711C65.0368 49.1658 43.6751 39.1015 43.9922 27.5956C44.3092 16.0896 66.1852 7.48887 92.8517 8.39423C119.518 9.29959 140.862 19.3766 140.545 30.8736C140.228 42.3707 118.37 50.9765 91.7033 50.0711Z" fill="black"/>
<path d="M91.7197 50.3509C65.0561 49.4461 43.6773 40.0859 43.9707 29.4449C44.264 18.8039 66.1185 10.9064 92.7822 11.8112C119.446 12.7161 140.806 22.0801 140.513 32.7211C140.22 43.3621 118.383 51.2558 91.7197 50.3509Z" fill="url(#paint5_linear_2372_8165)"/>
<path d="M91.7197 50.3509C65.0561 49.4461 43.6773 40.0859 43.9707 29.4449C44.264 18.8039 66.1185 10.9064 92.7822 11.8112C119.446 12.7161 140.806 22.0801 140.513 32.7211C140.22 43.3621 118.383 51.2558 91.7197 50.3509Z" fill="#0B0B19"/>
<path opacity="0.34" d="M91.7197 50.3509C65.0561 49.4461 43.6773 40.0859 43.9707 29.4449C44.264 18.8039 66.1185 10.9064 92.7822 11.8112C119.446 12.7161 140.806 22.0801 140.513 32.7211C140.22 43.3621 118.383 51.2558 91.7197 50.3509Z" fill="#0B0B19"/>
<g filter="url(#filter5_d_2372_8165)">
<path d="M117.958 28.1377L114.391 26.0817L101.288 26.0084L97.1113 28.1055L117.958 28.1377Z" fill="white"/>
<path d="M69.9531 32.7588L73.5208 34.8152L86.6237 34.8882L90.7999 32.791L69.9531 32.7588Z" fill="white"/>
<path d="M69.3145 28.4287L73.3585 26.3816L86.0731 26.1437L87.2856 19.3324L91.5122 17.1932L89.5179 28.1325L69.3145 28.4287Z" fill="white"/>
<path d="M96.4204 43.3281L100.464 41.2809L101.739 34.4386L114.39 34.2326L118.616 32.0934L98.2938 32.4498L96.4204 43.3281Z" fill="white"/>
<path d="M95.5334 31.3324C96.537 30.8071 96.5995 29.9506 95.673 29.4192C94.7464 28.8877 93.1813 28.8829 92.1777 29.4081C91.1741 29.9334 91.1117 30.7899 92.0382 31.321C92.9647 31.8524 94.5295 31.8575 95.5334 31.3324Z" fill="#E6007A"/>
</g>
<defs>
<filter id="filter0_d_2372_8165" x="68.8142" y="97.1627" width="67.8933" height="44.7273" filterUnits="userSpaceOnUse" color-interpolation-filters="sRGB">
<feFlood flood-opacity="0" result="BackgroundImageFix"/>
<feColorMatrix in="SourceAlpha" type="matrix" values="0 0 0 0 0 0 0 0 0 0 0 0 0 0 0 0 0 0 127 0" result="hardAlpha"/>
<feOffset dx="-5.42281"/>
<feGaussianBlur stdDeviation="4.64812"/>
<feColorMatrix type="matrix" values="0 0 0 0 0 0 0 0 0 0 0 0 0 0 0 0 0 0 0.51 0"/>
<feBlend mode="normal" in2="BackgroundImageFix" result="effect1_dropShadow_2372_8165"/>
<feBlend mode="normal" in="SourceGraphic" in2="effect1_dropShadow_2372_8165" result="shape"/>
</filter>
<filter id="filter1_d_2372_8165" x="68.8063" y="97.11" width="67.8933" height="44.7273" filterUnits="userSpaceOnUse" color-interpolation-filters="sRGB">
<feFlood flood-opacity="0" result="BackgroundImageFix"/>
<feColorMatrix in="SourceAlpha" type="matrix" values="0 0 0 0 0 0 0 0 0 0 0 0 0 0 0 0 0 0 127 0" result="hardAlpha"/>
<feOffset dx="-5.42281"/>
<feGaussianBlur stdDeviation="4.64812"/>
<feColorMatrix type="matrix" values="0 0 0 0 0 0 0 0 0 0 0 0 0 0 0 0 0 0 0.51 0"/>
<feBlend mode="normal" in2="BackgroundImageFix" result="effect1_dropShadow_2372_8165"/>
<feBlend mode="normal" in="SourceGraphic" in2="effect1_dropShadow_2372_8165" result="shape"/>
</filter>
<filter id="filter2_d_2372_8165" x="82.9841" y="76.8913" width="67.8933" height="44.7273" filterUnits="userSpaceOnUse" color-interpolation-filters="sRGB">
<feFlood flood-opacity="0" result="BackgroundImageFix"/>
<feColorMatrix in="SourceAlpha" type="matrix" values="0 0 0 0 0 0 0 0 0 0 0 0 0 0 0 0 0 0 127 0" result="hardAlpha"/>
<feOffset dx="-5.42281"/>
<feGaussianBlur stdDeviation="4.64812"/>
<feColorMatrix type="matrix" values="0 0 0 0 0 0 0 0 0 0 0 0 0 0 0 0 0 0 0.51 0"/>
<feBlend mode="normal" in2="BackgroundImageFix" result="effect1_dropShadow_2372_8165"/>
<feBlend mode="normal" in="SourceGraphic" in2="effect1_dropShadow_2372_8165" result="shape"/>
</filter>
<filter id="filter3_d_2372_8165" x="62.7048" y="54.5368" width="67.8933" height="44.7273" filterUnits="userSpaceOnUse" color-interpolation-filters="sRGB">
<feFlood flood-opacity="0" result="BackgroundImageFix"/>
<feColorMatrix in="SourceAlpha" type="matrix" values="0 0 0 0 0 0 0 0 0 0 0 0 0 0 0 0 0 0 127 0" result="hardAlpha"/>
<feOffset dx="-5.42281"/>
<feGaussianBlur stdDeviation="4.64812"/>
<feColorMatrix type="matrix" values="0 0 0 0 0 0 0 0 0 0 0 0 0 0 0 0 0 0 0.51 0"/>
<feBlend mode="normal" in2="BackgroundImageFix" result="effect1_dropShadow_2372_8165"/>
<feBlend mode="normal" in="SourceGraphic" in2="effect1_dropShadow_2372_8165" result="shape"/>
</filter>
<filter id="filter4_d_2372_8165" x="85.0192" y="30.2233" width="67.8933" height="44.7273" filterUnits="userSpaceOnUse" color-interpolation-filters="sRGB">
<feFlood flood-opacity="0" result="BackgroundImageFix"/>
<feColorMatrix in="SourceAlpha" type="matrix" values="0 0 0 0 0 0 0 0 0 0 0 0 0 0 0 0 0 0 127 0" result="hardAlpha"/>
<feOffset dx="-5.42281"/>
<feGaussianBlur stdDeviation="4.64812"/>
<feColorMatrix type="matrix" values="0 0 0 0 0 0 0 0 0 0 0 0 0 0 0 0 0 0 0.51 0"/>
<feBlend mode="normal" in2="BackgroundImageFix" result="effect1_dropShadow_2372_8165"/>
<feBlend mode="normal" in="SourceGraphic" in2="effect1_dropShadow_2372_8165" result="shape"/>
</filter>
<filter id="filter5_d_2372_8165" x="54.5954" y="7.89712" width="67.8933" height="44.7273" filterUnits="userSpaceOnUse" color-interpolation-filters="sRGB">
<feFlood flood-opacity="0" result="BackgroundImageFix"/>
<feColorMatrix in="SourceAlpha" type="matrix" values="0 0 0 0 0 0 0 0 0 0 0 0 0 0 0 0 0 0 127 0" result="hardAlpha"/>
<feOffset dx="-5.42281"/>
<feGaussianBlur stdDeviation="4.64812"/>
<feColorMatrix type="matrix" values="0 0 0 0 0 0 0 0 0 0 0 0 0 0 0 0 0 0 0.51 0"/>
<feBlend mode="normal" in2="BackgroundImageFix" result="effect1_dropShadow_2372_8165"/>
<feBlend mode="normal" in="SourceGraphic" in2="effect1_dropShadow_2372_8165" result="shape"/>
</filter>
<linearGradient id="paint0_linear_2372_8165" x1="56.3798" y1="137.934" x2="96.9669" y2="45.8112" gradientUnits="userSpaceOnUse">
<stop stop-color="#00ABD3"/>
<stop offset="0.155" stop-color="#00ABD3"/>
<stop offset="0.68" stop-color="#9C198D"/>
<stop offset="1" stop-color="#FE223B"/>
</linearGradient>
<linearGradient id="paint1_linear_2372_8165" x1="56.3603" y1="137.894" x2="96.9474" y2="45.7712" gradientUnits="userSpaceOnUse">
<stop stop-color="#00ABD3"/>
<stop offset="0.155" stop-color="#00ABD3"/>
<stop offset="0.68" stop-color="#9C198D"/>
<stop offset="1" stop-color="#FE223B"/>
</linearGradient>
<linearGradient id="paint2_linear_2372_8165" x1="70.5438" y1="117.652" x2="111.131" y2="25.53" gradientUnits="userSpaceOnUse">
<stop stop-color="#00ABD3"/>
<stop offset="0.155" stop-color="#00ABD3"/>
<stop offset="0.68" stop-color="#9C198D"/>
<stop offset="1" stop-color="#FE223B"/>
</linearGradient>
<linearGradient id="paint3_linear_2372_8165" x1="50.2821" y1="95.3165" x2="90.8693" y2="3.19404" gradientUnits="userSpaceOnUse">
<stop stop-color="#00ABD3"/>
<stop offset="0.155" stop-color="#00ABD3"/>
<stop offset="0.68" stop-color="#9C198D"/>
<stop offset="1" stop-color="#FE223B"/>
</linearGradient>
<linearGradient id="paint4_linear_2372_8165" x1="72.6083" y1="70.9913" x2="113.195" y2="-21.1312" gradientUnits="userSpaceOnUse">
<stop stop-color="#00ABD3"/>
<stop offset="0.155" stop-color="#00ABD3"/>
<stop offset="0.68" stop-color="#9C198D"/>
<stop offset="1" stop-color="#FE223B"/>
</linearGradient>
<linearGradient id="paint5_linear_2372_8165" x1="42.1845" y1="48.67" x2="82.7716" y2="-43.4524" gradientUnits="userSpaceOnUse">
<stop stop-color="#00ABD3"/>
<stop offset="0.155" stop-color="#00ABD3"/>
<stop offset="0.68" stop-color="#9C198D"/>
<stop offset="1" stop-color="#FE223B"/>
</linearGradient>
</defs>
</svg>
