<svg width="400" height="312" viewBox="0 0 400 312" fill="none" xmlns="http://www.w3.org/2000/svg">
<mask id="mask0_14_944" style="mask-type:alpha" maskUnits="userSpaceOnUse" x="0" y="0" width="400" height="312">
<rect width="400" height="312" rx="27" fill="white"/>
</mask>
<g mask="url(#mask0_14_944)">
<circle cx="182.417" cy="299.342" r="289.417" fill="#E6007A"/>
<mask id="mask1_14_944" style="mask-type:alpha" maskUnits="userSpaceOnUse" x="-107" y="9" width="579" height="580">
<circle cx="182.417" cy="299.342" r="289.417" fill="#E6007A"/>
</mask>
<g mask="url(#mask1_14_944)">
<g opacity="0.570596" filter="url(#filter0_f_14_944)">
<path d="M293.811 -331.134L-11.4491 -293.357C-34.2009 -290.541 -50.7705 -270.279 -48.4584 -248.1L16.725 377.162C19.0371 399.341 39.3554 415.038 62.1072 412.222L367.368 374.445C390.119 371.629 406.689 351.367 404.377 329.189L339.194 -296.074C336.881 -318.253 316.563 -333.949 293.811 -331.134Z" fill="url(#paint0_linear_14_944)"/>
</g>
<g filter="url(#filter1_d_14_944)">
<path d="M319.403 -190.359L325.914 -191.189C327.487 -191.389 328.889 -190.324 329.045 -188.809L334.777 -133.16C334.933 -131.645 333.784 -130.255 332.211 -130.054L325.7 -129.224C324.127 -129.023 322.725 -130.089 322.569 -131.604L316.837 -187.252C316.681 -188.767 317.83 -190.158 319.403 -190.359ZM-19.4101 -197.585L-12.8992 -198.415C-11.3259 -198.616 -9.92411 -197.55 -9.76806 -196.035L-7.58838 -174.873C-7.43233 -173.358 -8.58116 -171.967 -10.1544 -171.767L-16.6653 -170.937C-18.2385 -170.736 -19.6404 -171.802 -19.7964 -173.317L-21.9761 -194.479C-22.1322 -195.994 -20.9833 -197.385 -19.4101 -197.585ZM-14.2838 -147.815L-7.77287 -148.645C-6.19966 -148.846 -4.79782 -147.78 -4.64177 -146.265L-0.282402 -103.941C-0.126353 -102.426 -1.27519 -101.035 -2.8484 -100.835L-9.35936 -100.005C-10.9326 -99.8042 -12.3344 -100.87 -12.4905 -102.385L-16.8498 -144.709C-17.0059 -146.224 -15.857 -147.615 -14.2838 -147.815ZM-7.98697 -86.6805L-1.476 -87.5106C0.0972051 -87.7112 1.49905 -86.6456 1.65509 -85.1306L6.01446 -42.8065C6.17051 -41.2915 5.02167 -39.9007 3.44847 -39.7001L-3.0625 -38.87C-4.63571 -38.6694 -6.03755 -39.735 -6.1936 -41.2501L-10.553 -83.5741C-10.709 -85.0891 -9.56018 -86.4799 -7.98697 -86.6805Z" fill="black"/>
</g>
<mask id="mask2_14_944" style="mask-type:alpha" maskUnits="userSpaceOnUse" x="-8" y="-314" width="372" height="684">
<path d="M266.516 -312.796L24.4999 -281.051C4.91156 -278.482 -9.4465 -261.168 -7.56969 -242.38L50.5607 339.536C52.4375 358.324 69.8385 371.472 89.4269 368.902L331.443 337.158C351.031 334.588 365.39 317.275 363.513 298.487L305.382 -283.429C303.505 -302.217 286.105 -315.365 266.516 -312.796Z" fill="white"/>
</mask>
<g mask="url(#mask2_14_944)">
<path d="M265.307 -312.94L24.3453 -282.177C4.84229 -279.687 -9.4146 -262.409 -7.49836 -243.584L51.8533 339.47C53.7695 358.294 71.1332 371.536 90.6362 369.046L331.598 338.284C351.101 335.794 365.358 318.515 363.441 299.691L304.09 -283.363C302.173 -302.187 284.81 -315.429 265.307 -312.94Z" fill="white" stroke="#979797" stroke-width="0.406862"/>
<path d="M80.8897 232.77C81.4772 234.788 83.3107 235.776 85.7212 235.478C88.0086 235.195 89.5988 233.713 89.377 231.614C89.2037 229.975 88.0242 229.102 86.2218 228.914L84.2027 228.699C83.3728 228.605 82.929 228.285 82.8637 227.668C82.7818 226.892 83.4158 226.313 84.4363 226.187C85.5624 226.048 86.2379 226.536 86.5606 227.229L88.7952 226.953C88.2495 225.162 86.6864 224.034 84.2231 224.338C81.9533 224.619 80.4798 226.194 80.6867 228.151C80.8749 229.932 82.159 230.613 83.7446 230.774L85.7267 230.976C86.6816 231.072 87.106 231.377 87.1749 232.029C87.2662 232.893 86.597 233.476 85.5061 233.611C84.4504 233.741 83.612 233.398 83.2123 232.483L80.8897 232.77ZM91.3519 232.192C91.5364 233.938 92.6232 234.607 94.2244 234.409C94.805 234.337 95.3236 234.184 95.6059 233.988L95.4009 232.049C95.1714 232.238 94.8131 232.389 94.4787 232.431C93.9157 232.5 93.5516 232.26 93.4863 231.642L93.1211 228.187L94.8454 227.973L94.6591 226.21L92.9348 226.423L92.7093 224.29L90.545 224.557L90.7705 226.691L89.574 226.839L89.7604 228.602L90.9569 228.454L91.3519 232.192ZM103.531 233.098L103 228.073C102.801 226.187 101.466 225.191 99.3717 225.449C97.577 225.671 96.408 226.923 96.3302 228.379L98.4065 228.123C98.534 227.643 98.8737 227.315 99.4895 227.239C100.369 227.13 100.832 227.627 100.903 228.297L100.964 228.879C100.623 228.688 99.8071 228.557 99.1209 228.642C97.4141 228.853 96.185 230.041 96.3434 231.539C96.5167 233.179 97.9508 233.931 99.5344 233.735C100.397 233.629 101.157 233.231 101.393 232.934L101.437 233.357L103.531 233.098ZM101.21 231.206C101.061 231.653 100.491 231.992 99.8575 232.07C99.1713 232.155 98.4376 231.959 98.365 231.272C98.2941 230.602 98.9663 230.215 99.6525 230.13C100.286 230.052 100.912 230.243 101.15 230.642L101.21 231.206ZM110.425 232.247L113.011 231.927L109.224 227.804L112.055 224.061L109.345 224.395L106.963 227.655L106.275 221.149L104.093 221.418L105.304 232.879L107.486 232.61L107.223 230.124L107.784 229.358L110.425 232.247ZM118.272 228.669C118.167 229.361 117.655 229.745 116.916 229.837C115.948 229.956 115.205 229.334 115.01 228.161L120.253 227.513L120.183 226.843C119.939 224.533 118.502 223.085 116.197 223.37C113.998 223.642 112.599 225.583 112.85 227.964C113.107 230.397 114.815 231.883 117.103 231.6C119.073 231.356 120.191 230.129 120.296 228.419L118.272 228.669ZM116.403 225.149C117.3 225.038 117.862 225.629 117.967 226.456L114.923 226.832C115.014 225.838 115.558 225.253 116.403 225.149Z" fill="#1C1C26"/>
<path d="M251.379 213.493L252.065 213.41C253.068 213.288 253.829 213.749 253.926 214.666C254.016 215.53 253.424 216.173 252.509 216.285C251.436 216.415 250.786 215.833 250.581 214.894L248.364 215.164C248.707 217.247 250.405 218.487 252.728 218.205C255.034 217.924 256.274 216.327 256.076 214.44C255.973 213.452 255.382 212.578 254.333 212.259C255.068 211.794 255.516 210.793 255.406 209.753C255.212 207.902 253.755 206.757 251.556 207.025C249.391 207.288 248.138 208.941 248.129 210.888L250.311 210.623C250.295 209.786 250.754 209.069 251.74 208.949C252.62 208.842 253.209 209.36 253.288 210.118C253.382 211.017 252.727 211.561 251.811 211.673L251.196 211.748L251.379 213.493Z" fill="#1C1C26"/>
<path d="M257.254 219.422L258.661 219.251L259.507 217.63C259.774 217.115 259.96 216.504 259.904 215.975C259.802 215.005 259.131 214.551 258.374 214.643C257.6 214.737 257.061 215.374 257.142 216.15C257.218 216.873 257.739 217.256 258.331 217.291L257.254 219.422Z" fill="#1C1C26"/>
<path d="M264.86 216.729C267.394 216.421 268.878 213.918 268.532 210.621C268.186 207.323 266.221 205.241 263.687 205.549C261.153 205.857 259.669 208.36 260.015 211.657C260.361 214.955 262.326 217.037 264.86 216.729ZM263.898 207.559C265.341 207.384 266.122 208.878 266.333 210.889C266.543 212.899 266.092 214.543 264.649 214.719C263.188 214.896 262.425 213.4 262.214 211.389C262.004 209.379 262.437 207.737 263.898 207.559Z" fill="#1C1C26"/>
<path d="M274.501 215.556C277.036 215.248 278.52 212.746 278.174 209.448C277.828 206.151 275.863 204.068 273.328 204.376C270.794 204.684 269.31 207.187 269.656 210.484C270.002 213.782 271.967 215.864 274.501 215.556ZM273.539 206.387C274.982 206.211 275.763 207.705 275.974 209.716C276.185 211.726 275.734 213.37 274.29 213.546C272.83 213.724 272.067 212.227 271.856 210.217C271.645 208.206 272.079 206.564 273.539 206.387Z" fill="#1C1C26"/>
<path d="M284.143 214.383C286.677 214.075 288.161 211.573 287.815 208.275C287.469 204.978 285.504 202.895 282.97 203.203C280.436 203.512 278.952 206.014 279.297 209.311C279.643 212.609 281.609 214.692 284.143 214.383ZM283.181 205.214C284.624 205.038 285.404 206.533 285.615 208.543C285.826 210.553 285.375 212.198 283.932 212.373C282.471 212.551 281.708 211.054 281.497 209.044C281.286 207.034 281.72 205.391 283.181 205.214Z" fill="#1C1C26"/>
<path d="M297.717 208.75C300.005 208.471 301.389 207.053 301.148 204.76C300.906 202.45 299.263 201.4 296.975 201.678L292.576 202.214L293.711 213.041L295.946 212.769L295.552 209.013L297.717 208.75ZM298.931 205.03C299.029 205.965 298.536 206.703 297.375 206.845L295.351 207.091L295.012 203.864L297.036 203.618C298.198 203.476 298.829 204.06 298.931 205.03Z" fill="#1C1C26"/>
<path d="M305.448 209.595L304.728 202.736L306.224 202.554C308.283 202.303 309.548 203.489 309.77 205.605C309.99 207.703 309.002 209.163 306.943 209.413L305.448 209.595ZM303.422 211.86L307.24 211.395C310.514 210.997 312.351 208.63 312.005 205.333C311.659 202.035 309.378 200.17 306.105 200.568L302.286 201.032L303.422 211.86Z" fill="#1C1C26"/>
<path d="M313.01 199.728L314.146 210.555L321.484 209.662L321.275 207.67L316.154 208.293L315.884 205.718L320.53 205.153L320.328 203.231L315.682 203.796L315.434 201.433L320.556 200.81L320.348 198.835L313.01 199.728Z" fill="#1C1C26"/>
<path d="M331.059 197.532L328.596 197.832L326.588 201.63L323.897 198.404L321.345 198.714L325.474 203.587L322.305 209.563L324.786 209.261L326.909 205.199L329.837 208.646L332.371 208.338L328.04 203.239L331.059 197.532Z" fill="#1C1C26"/>
<path d="M293.922 104.418L292.513 104.579L289.146 112.444L289.251 113.431L294.235 112.859L294.496 115.309L295.782 115.161L295.52 112.711L297.422 112.492L297.298 111.329L295.396 111.547L295.118 108.938L293.832 109.086L294.111 111.695L290.659 112.091L293.922 104.418Z" fill="#1C1C26"/>
<path d="M302.883 103.389L301.474 103.55L298.106 111.415L298.211 112.402L303.195 111.829L303.457 114.28L304.742 114.132L304.481 111.682L306.383 111.463L306.259 110.3L304.357 110.518L304.078 107.909L302.792 108.057L303.071 110.666L299.619 111.062L302.883 103.389Z" fill="#1C1C26"/>
<path d="M307.517 112.939C307.575 113.486 308.041 113.843 308.57 113.782C309.08 113.723 309.46 113.269 309.401 112.723C309.343 112.176 308.875 111.802 308.364 111.86C307.836 111.921 307.459 112.393 307.517 112.939Z" fill="#1C1C26"/>
<path d="M316.1 102.959L315.985 101.884L308.993 102.687L309.125 103.921L314.69 103.282L311.892 113.311L313.283 113.151L316.1 102.959Z" fill="#1C1C26"/>
<path d="M319.418 112.447L320.509 112.321L326.099 100.722L325.007 100.847L319.418 112.447ZM318.372 103.822C318.295 103.1 318.812 102.433 319.534 102.35C320.256 102.267 320.919 102.798 320.996 103.521C321.073 104.244 320.537 104.894 319.815 104.977C319.093 105.06 318.449 104.545 318.372 103.822ZM328.166 109.229C328.027 107.924 326.877 107.004 325.573 107.153C324.27 107.303 323.342 108.463 323.481 109.767C323.621 111.072 324.771 111.993 326.074 111.843C327.377 111.693 328.305 110.534 328.166 109.229ZM322.018 103.404C321.878 102.099 320.728 101.178 319.425 101.328C318.122 101.478 317.194 102.637 317.333 103.942C317.472 105.246 318.623 106.167 319.926 106.017C321.229 105.868 322.157 104.708 322.018 103.404ZM327.127 109.348C327.204 110.071 326.687 110.737 325.965 110.82C325.243 110.903 324.58 110.373 324.503 109.65C324.426 108.927 324.962 108.276 325.684 108.193C326.406 108.111 327.05 108.626 327.127 109.348Z" fill="#1C1C26"/>
<path d="M69.4689 129.169L66.3995 140.479L67.8084 140.317L68.6925 136.914L73.1481 136.403L74.7471 139.52L76.156 139.359L70.7721 129.02L69.4689 129.169ZM70.2876 130.824L72.5425 135.241L69.0203 135.645L70.2876 130.824ZM81.3931 134.367C83.5769 134.117 84.8299 132.831 84.6037 130.715C84.3757 128.582 82.8833 127.629 80.6995 127.88L76.649 128.345L77.8062 139.169L79.1975 139.009L78.7338 134.673L81.3931 134.367ZM83.2301 130.873C83.3601 132.089 82.6877 132.97 81.2259 133.137L78.6019 133.439L78.1703 129.401L80.7943 129.1C82.256 128.932 83.0981 129.639 83.2301 130.873ZM90.1797 131.967L86.516 127.212L85.0014 127.386L89.5915 133.301L90.0683 137.761L91.442 137.604L90.9651 133.143L94.2296 126.326L92.7502 126.496L90.1797 131.967Z" fill="#1C1C26"/>
<path d="M69.387 161.358L328.807 131.845" stroke="#E3E9F0" stroke-width="0.886564"/>
<path d="M261.493 160.731L260.665 160.825L257.634 162.831L257.783 164.241L260.314 162.56L261.286 171.729L262.643 171.574L261.493 160.731Z" fill="#1C1C26"/>
<path d="M264.394 173.283L265.292 173.181L266.061 171.522C266.237 171.163 266.37 170.738 266.331 170.367C266.262 169.715 265.818 169.391 265.289 169.451C264.761 169.512 264.379 169.948 264.437 170.494C264.491 171.006 264.858 171.267 265.306 171.287L264.394 173.283Z" fill="#1C1C26"/>
<path d="M271.032 169.634C269.676 169.789 268.6 169.055 268.469 167.821C268.34 166.605 269.236 165.646 270.592 165.491C271.966 165.334 273.042 166.068 273.171 167.284C273.302 168.518 272.405 169.477 271.032 169.634ZM270.469 164.327C269.359 164.454 268.42 163.83 268.308 162.772C268.194 161.696 268.98 160.875 270.09 160.748C271.217 160.619 272.156 161.244 272.27 162.319C272.383 163.377 271.596 164.198 270.469 164.327ZM271.151 170.763C273.247 170.523 274.719 169.106 274.521 167.237C274.371 165.827 273.329 164.911 272.116 164.728C273.065 164.263 273.709 163.279 273.584 162.098C273.399 160.352 271.819 159.408 269.97 159.62C268.138 159.829 266.794 161.107 266.979 162.852C267.105 164.033 267.922 164.85 268.963 165.088C267.799 165.542 266.992 166.669 267.141 168.08C267.34 169.949 269.073 171 271.151 170.763Z" fill="#1C1C26"/>
<path d="M280.604 161.51C280.712 162.533 279.927 163.532 278.93 164.895L275.851 169.137L275.948 170.054L283.01 169.247L282.88 168.013L277.719 168.603L280.147 165.274C281.108 163.915 282.086 162.715 281.94 161.34C281.744 159.488 280.384 158.43 278.323 158.666C276.333 158.893 275.142 160.439 275.144 162.473L276.571 162.31C276.544 161.046 277.151 160.049 278.454 159.9C279.652 159.763 280.486 160.399 280.604 161.51Z" fill="#1C1C26"/>
<path d="M289.762 158.608L289.648 157.533L282.656 158.331L282.787 159.566L288.352 158.93L285.547 168.958L286.938 168.799L289.762 158.608Z" fill="#1C1C26"/>
<path d="M300.007 162.916C302.191 162.667 303.445 161.382 303.221 159.266C302.994 157.133 301.503 156.179 299.319 156.428L295.268 156.891L296.416 167.716L297.807 167.557L297.348 163.22L300.007 162.916ZM301.847 159.423C301.976 160.639 301.303 161.519 299.841 161.686L297.217 161.986L296.789 157.948L299.413 157.649C300.875 157.482 301.716 158.189 301.847 159.423Z" fill="#1C1C26"/>
<path d="M307.134 165.225L306.25 156.886L308.311 156.65C310.759 156.371 312.377 157.845 312.646 160.384C312.915 162.923 311.643 164.71 309.195 164.99L307.134 165.225ZM305.876 166.636L309.345 166.24C312.515 165.878 314.369 163.524 314.02 160.227C313.67 156.93 311.368 155.052 308.197 155.414L304.728 155.81L305.876 166.636Z" fill="#1C1C26"/>
<path d="M315.391 154.592L316.539 165.418L323.425 164.631L323.293 163.38L317.78 164.009L317.389 160.324L322.391 159.753L322.26 158.519L317.259 159.09L316.896 155.67L322.409 155.04L322.278 153.806L315.391 154.592Z" fill="#1C1C26"/>
<path d="M332.539 152.634L331.007 152.809L328.53 157.357L325.195 153.473L323.61 153.654L327.855 158.558L324.617 164.495L326.149 164.32L328.729 159.565L332.26 163.622L333.846 163.441L329.419 158.344L332.539 152.634Z" fill="#1C1C26"/>
<path d="M78.1713 186.099C78.9886 185.738 79.644 184.86 79.5073 183.573C79.3088 181.704 77.8636 180.852 75.6269 181.108L72.0693 181.514L73.219 192.339L77.1289 191.893C79.348 191.639 80.6075 190.407 80.3978 188.432C80.2686 187.216 79.3655 186.266 78.1713 186.099ZM73.9254 186.067L73.5546 182.576L75.7561 182.324C77.2003 182.159 78.0509 182.615 78.1763 183.797C78.3018 184.978 77.571 185.65 76.1269 185.815L73.9254 186.067ZM74.049 187.23L76.6027 186.939C78.0645 186.772 78.9162 187.406 79.0379 188.552C79.1578 189.68 78.4615 190.509 76.9997 190.676L74.4459 190.968L74.049 187.23ZM88.8481 186.593C88.5934 184.195 86.9537 182.687 84.8227 182.93C82.674 183.176 81.4077 185.016 81.6624 187.413C81.9171 189.811 83.5392 191.321 85.6878 191.076C87.8189 190.832 89.1028 188.99 88.8481 186.593ZM87.5096 186.745C87.6912 188.456 86.9732 189.751 85.5642 189.912C84.1553 190.073 83.1826 188.971 83.0009 187.26C82.8193 185.55 83.5373 184.255 84.9463 184.094C86.3552 183.933 87.328 185.035 87.5096 186.745ZM91.0521 190.302L92.373 190.151L91.8094 184.844C92.0013 183.966 92.7283 183.258 93.6441 183.154C94.8241 183.019 95.4506 183.715 95.5667 184.808L96.0892 189.727L97.4277 189.574L96.8827 184.443C96.7011 182.733 95.6107 181.698 93.8319 181.901C92.828 182.016 92.0388 182.641 91.6465 183.311L91.5416 182.323L90.2207 182.474L91.0521 190.302ZM104.829 188.728L106.168 188.575L104.951 177.115L103.612 177.268L104.095 181.817C103.648 181.297 102.748 180.882 101.779 180.993C99.4899 181.255 98.4556 183.264 98.6896 185.468C98.9256 187.69 100.355 189.4 102.645 189.139C103.613 189.028 104.404 188.42 104.732 187.812L104.829 188.728ZM104.582 186.401C104.263 187.258 103.539 187.823 102.711 187.918C101.214 188.089 100.204 186.973 100.028 185.315C99.8521 183.658 100.604 182.341 102.101 182.17C102.928 182.075 103.754 182.463 104.245 183.228L104.582 186.401ZM113.192 185.4C113.074 186.305 112.404 186.882 111.436 186.992C110.115 187.143 109.073 186.227 108.877 184.554L114.407 183.922L114.357 183.446C114.115 181.172 112.804 179.734 110.655 179.979C108.524 180.223 107.283 182.131 107.532 184.476C107.788 186.891 109.424 188.364 111.555 188.121C113.317 187.919 114.318 186.77 114.442 185.257L113.192 185.4ZM110.793 181.106C112.096 180.957 112.821 181.909 112.962 183.07L108.806 183.545C108.853 182.148 109.613 181.24 110.793 181.106ZM121.753 186.795L123.092 186.642L121.875 175.182L120.536 175.335L121.019 179.884C120.572 179.364 119.672 178.949 118.703 179.06C116.414 179.321 115.38 181.331 115.614 183.535C115.85 185.756 117.279 187.467 119.569 187.205C120.537 187.095 121.328 186.487 121.656 185.878L121.753 186.795ZM121.506 184.468C121.187 185.325 120.463 185.89 119.635 185.984C118.138 186.155 117.128 185.039 116.952 183.382C116.776 181.725 117.528 180.407 119.025 180.236C119.852 180.142 120.678 180.529 121.169 181.294L121.506 184.468Z" fill="#1C1C26"/>
<path d="M66.3648 277.464C65.611 270.158 70.9076 263.499 78.1951 262.592L330.199 231.212C337.487 230.305 344.005 235.492 344.759 242.798L347.526 269.618C348.28 276.924 342.983 283.583 335.696 284.49L83.692 315.87C76.4045 316.777 69.8857 311.59 69.1319 304.284L66.3648 277.464Z" fill="#7C30DD"/>
<path d="M185.226 281.256C185.877 283.474 187.896 284.559 190.547 284.23C193.063 283.918 194.81 282.286 194.561 279.979C194.367 278.176 193.068 277.217 191.084 277.011L188.863 276.776C187.949 276.673 187.46 276.322 187.387 275.643C187.296 274.79 187.992 274.153 189.114 274.014C190.353 273.86 191.097 274.396 191.454 275.158L193.912 274.853C193.308 272.884 191.585 271.644 188.876 271.98C186.379 272.29 184.762 274.024 184.993 276.176C185.204 278.134 186.618 278.882 188.363 279.059L190.544 279.279C191.595 279.384 192.062 279.719 192.14 280.437C192.242 281.387 191.507 282.028 190.307 282.177C189.146 282.322 188.223 281.945 187.781 280.939L185.226 281.256ZM196.735 280.613C196.942 282.532 198.139 283.268 199.9 283.049C200.539 282.97 201.109 282.801 201.419 282.586L201.19 280.453C200.938 280.661 200.544 280.828 200.176 280.873C199.557 280.95 199.156 280.686 199.083 280.007L198.673 276.207L200.57 275.971L200.361 274.032L198.465 274.268L198.212 271.921L195.832 272.217L196.084 274.563L194.768 274.726L194.977 276.666L196.293 276.502L196.735 280.613ZM210.137 281.602L209.542 276.075C209.319 274.001 207.848 272.906 205.545 273.192C203.57 273.437 202.287 274.815 202.205 276.417L204.488 276.133C204.627 275.605 205.001 275.244 205.678 275.16C206.646 275.04 207.155 275.586 207.235 276.323L207.304 276.962C206.928 276.754 206.03 276.61 205.275 276.703C203.398 276.936 202.048 278.244 202.226 279.892C202.42 281.695 203.999 282.521 205.741 282.305C206.689 282.187 207.525 281.749 207.784 281.422L207.834 281.888L210.137 281.602ZM207.579 279.522C207.416 280.014 206.79 280.386 206.093 280.473C205.338 280.566 204.531 280.352 204.449 279.596C204.37 278.859 205.108 278.434 205.863 278.34C206.56 278.253 207.249 278.462 207.512 278.901L207.579 279.522ZM217.719 280.66L220.564 280.307L216.389 275.775L219.496 271.656L216.515 272.026L213.9 275.613L213.13 268.458L210.731 268.756L212.087 281.359L214.487 281.061L214.193 278.327L214.808 277.485L217.719 280.66ZM226.345 276.72C226.231 277.481 225.669 277.905 224.856 278.006C223.791 278.138 222.973 277.453 222.755 276.164L228.523 275.448L228.443 274.711C228.17 272.171 226.587 270.579 224.051 270.894C221.632 271.195 220.097 273.33 220.379 275.948C220.667 278.624 222.549 280.257 225.065 279.945C227.232 279.675 228.46 278.324 228.571 276.444L226.345 276.72ZM224.281 272.85C225.268 272.728 225.888 273.378 226.005 274.287L222.657 274.702C222.755 273.61 223.352 272.966 224.281 272.85Z" fill="white"/>
</g>
<path fill-rule="evenodd" clip-rule="evenodd" d="M258.09 -325.151C276.777 -327.46 283.74 -326.365 290.938 -323.653C298.22 -320.909 304.192 -316.301 308.587 -310.031C312.888 -303.896 315.547 -297.621 317.441 -279.841L317.498 -279.299L377.234 293.545C379.132 311.741 377.836 318.57 374.878 325.67C371.885 332.852 367.015 338.8 360.483 343.251C354.091 347.606 347.597 350.36 329.336 352.655L328.779 352.724L97.8528 381.258C79.1662 383.567 72.2032 382.472 65.0048 379.76C57.7225 377.016 51.7512 372.408 47.3559 366.138C43.0545 360.003 40.3959 353.728 38.502 335.948L38.4449 335.406L-21.2914 -237.438C-23.1889 -255.634 -21.8934 -262.463 -18.9352 -269.563C-15.9426 -276.745 -11.0722 -282.693 -4.54012 -287.144C1.85219 -291.499 8.34601 -294.253 26.6069 -296.548L27.1638 -296.617L258.09 -325.151ZM24.3818 -282.436L24.0823 -282.397C14.9099 -281.186 6.97356 -276.543 1.5025 -269.971C-4.03653 -263.317 -7.04879 -254.684 -6.25827 -245.632L-6.20486 -245.075L54.7205 339.172L54.7522 339.463C55.7636 348.393 60.3206 356.029 66.9162 361.209C73.5938 366.453 82.3608 369.18 91.6535 368.181L92.2256 368.115L331.561 338.543L331.861 338.504C341.033 337.293 348.969 332.65 354.44 326.078C359.979 319.424 362.992 310.791 362.201 301.739L362.148 301.182L301.222 -283.065L301.191 -283.353C300.169 -292.383 295.522 -300.091 288.807 -305.273C282.02 -310.511 273.122 -313.17 263.721 -312.009L230.503 -307.904L231.99 -293.639L232.013 -293.405C232.42 -288.885 230.941 -284.571 228.204 -281.228C225.42 -277.827 221.333 -275.432 216.604 -274.848L77.9521 -257.716L77.7119 -257.688C73.0717 -257.177 68.6894 -258.514 65.3335 -261.104L65.1608 -261.239C61.8406 -263.872 59.5601 -267.749 59.088 -272.275L57.6005 -286.54L24.3818 -282.436Z" fill="#E3E9F0" stroke="black" stroke-opacity="0.03" stroke-width="2.03431"/>
<path opacity="0.2" d="M749.666 522.371C685.455 546.361 694.802 503.086 609.286 538.843C523.77 574.601 500.908 553.542 456.874 496.342C412.841 439.141 352.71 391.964 365.375 369.696C378.04 347.427 276.612 310.365 271.803 265.351L566.875 354.069L749.666 522.371Z" fill="black" fill-opacity="0.7"/>
<path d="M907.349 355.693C899.436 352.048 890.949 347.904 883.513 343.859C873.891 338.61 866.229 334.375 855.407 331.418C853.691 330.941 851.87 330.451 849.884 329.949C838.536 326.988 823.005 322.937 807.485 314.304C797.032 308.486 778.826 286.417 761.092 265.104C748.389 249.761 736.354 235.337 728.355 228.359L725.543 225.861C704.662 207.569 661.207 169.517 645.461 162.842C630.198 156.488 624.584 158.956 614.42 163.528C613.342 163.969 612.295 164.441 611.067 164.976C607.205 166.644 600.163 169.036 592.044 171.779C573.736 177.968 550.95 185.671 542.395 192.524C534.489 199.029 527.648 206.733 522.127 215.351C505.504 217.871 480.236 225.098 475.299 229.776C471.228 233.567 465.229 244.666 462.461 250.083L461.085 252.829C456.497 253.5 451.964 254.533 447.531 255.92C447.231 256.016 446.962 256.141 446.722 256.236C439.267 259.507 431.248 267.596 427.032 272.171C425.721 273.519 424.828 274.708 424.412 275.227C403.444 271.193 382.67 267.08 373.585 265.246C354.54 261.324 283.617 237.542 282.924 237.316C282.836 237.282 282.74 237.271 282.646 237.283C282.552 237.295 282.462 237.331 282.384 237.386C282.305 237.448 282.235 237.52 282.176 237.601C279.902 238.907 263.607 248.962 271.146 266.705C279.329 286.057 317.91 307.35 336.9 309.966C346.042 311.228 378.188 321.667 411.239 332.689C411.084 337.964 409.736 380.067 402.997 394.59C397.47 406.476 444.406 448.095 482.089 481.513C496.015 493.842 507.976 504.468 514.712 511.321C527.73 524.584 569.929 517.911 610.794 511.399C647.728 505.595 685.967 499.51 700.561 508.641C704.65 511.22 709.401 511.848 714.888 512.416C724.012 513.333 735.206 513.969 748.867 522.908C752.958 525.607 762.922 524.39 774.627 527.104L931.175 366.235C926.277 364.093 917.267 360.275 907.349 355.693ZM451.022 345.997C474.738 353.897 489.026 358.408 491.233 358.29C493.44 358.171 498.48 363.225 503.428 368.099C507.623 372.508 512.137 376.602 516.934 380.347C516.735 383.851 515.854 406.341 522.245 417.271L500.486 415.927L460.805 382.322C460.692 379.23 459.946 358.109 451.022 345.997Z" fill="white"/>
<path opacity="0.4" d="M704.062 501.329C701.124 497.094 684.624 492.81 677.733 491.274C662.037 487.743 532.738 498.282 526.294 472.25C519.85 446.217 540.943 448.694 548.248 443.309C553.487 439.441 558.349 419.542 557.667 418.998C543.692 408.204 546.945 388.501 546.945 388.501C546.945 388.501 495.857 340.862 494.077 344.391C492.297 347.92 384.852 306.283 384.852 306.283C384.852 306.283 306.716 296.766 287.656 274.445C268.596 252.125 282.661 236.938 282.661 236.938L282.1 236.392C279.821 237.702 263.49 247.782 271.046 265.57C279.246 284.972 317.912 306.32 336.944 308.942C346.105 310.208 378.322 320.674 411.447 331.724C411.291 337.013 409.939 379.223 403.186 393.783C397.646 405.699 444.685 447.424 482.45 480.928C496.408 493.289 508.395 503.942 515.145 510.812C528.191 524.11 570.484 517.419 611.439 510.891C648.455 505.073 686.778 498.973 701.403 508.128C705.502 510.713 710.264 511.342 715.762 511.912C711.541 508.755 707.624 505.212 704.062 501.329V501.329ZM451.498 345.153C475.267 353.074 489.586 357.597 491.798 357.478C494.01 357.359 499.06 362.425 504.02 367.313C508.223 371.733 512.747 375.836 517.555 379.591C517.356 383.104 516.472 405.652 522.877 416.61L501.071 415.262L461.302 381.571C461.143 378.427 460.396 357.252 451.453 345.109L451.498 345.153Z" fill="#E3E9F0"/>
<path d="M100.766 59.1109C102.951 58.8624 104.197 57.5786 103.956 55.4644C103.714 53.3327 102.213 52.3791 100.029 52.6277L95.9767 53.0886L97.2073 63.9059L98.5991 63.7475L98.1061 59.4136L100.766 59.1109ZM102.582 55.6208C102.72 56.8364 102.053 57.7154 100.591 57.8817L97.9658 58.1804L97.5068 54.1459L100.132 53.8473C101.594 53.6809 102.442 54.3875 102.582 55.6208ZM112.348 58.2217C112.075 55.8257 110.423 54.3184 108.291 54.5609C106.141 54.8054 104.887 56.6434 105.16 59.0394C105.432 61.4354 107.067 62.9447 109.217 62.7002C111.349 62.4577 112.62 60.6177 112.348 58.2217ZM111.009 58.374C111.203 60.0829 110.494 61.3771 109.085 61.5375C107.675 61.6978 106.693 60.596 106.499 58.8871C106.304 57.1782 107.014 55.884 108.423 55.7236C109.833 55.5633 110.814 56.6651 111.009 58.374ZM114.6 50.3275L113.279 50.4778L114.582 61.9293L115.903 61.779L114.6 50.3275ZM123.408 60.9252L125.029 60.7408L120.877 56.716L124.015 52.9326L122.271 53.131L119.09 57.0085L118.282 49.9086L116.961 50.059L118.263 61.5104L119.585 61.3601L119.266 58.5589L120.02 57.6523L123.408 60.9252ZM131.988 59.949L131.395 54.7342C131.2 53.0253 129.97 52.0945 128.103 52.307C126.605 52.4773 125.545 53.5081 125.431 54.8595L126.735 54.7112C126.899 53.9608 127.387 53.5483 128.215 53.4541C129.343 53.3258 130.022 53.9624 130.132 54.9314L130.245 55.918C129.876 55.6565 129.01 55.416 128.199 55.5082C126.526 55.6986 125.317 56.8355 125.483 58.2978C125.659 59.8481 127.089 60.6492 128.674 60.4688C129.608 60.3626 130.39 59.8631 130.654 59.512L130.72 60.0933L131.988 59.949ZM130.499 58.1554C130.336 58.7628 129.588 59.2406 128.777 59.3328C127.826 59.441 126.86 59.1048 126.751 58.1535C126.645 57.2197 127.513 56.6927 128.465 56.5845C129.275 56.4923 130.112 56.7897 130.407 57.345L130.499 58.1554ZM139.409 59.1048L140.748 58.9525L139.445 47.5011L138.106 47.6534L138.623 52.1987C138.171 51.6791 137.267 51.2644 136.298 51.3746C134.008 51.6351 132.987 53.6429 133.238 55.8451C133.49 58.0649 134.934 59.7745 137.224 59.5139C138.193 59.4037 138.981 58.7966 139.304 58.1887L139.409 59.1048ZM139.144 56.7793C138.831 57.6358 138.11 58.1997 137.282 58.2939C135.784 58.4643 134.765 57.3489 134.577 55.6928C134.388 54.0367 135.131 52.7209 136.629 52.5505C137.457 52.4563 138.286 52.8438 138.783 53.6081L139.144 56.7793ZM147.756 55.7817C147.645 56.6866 146.979 57.2621 146.01 57.3723C144.689 57.5227 143.639 56.6071 143.431 54.9354L148.962 54.3061L148.908 53.8304C148.65 51.5577 147.326 50.12 145.177 50.3645C143.045 50.6071 141.817 52.5135 142.083 54.8567C142.358 57.2703 144.006 58.7424 146.138 58.4999C147.9 58.2994 148.894 57.1514 149.007 55.6394L147.756 55.7817ZM145.323 51.4901C146.626 51.3417 147.359 52.2934 147.509 53.4542L143.351 53.9272C143.389 52.531 144.142 51.6243 145.323 51.4901ZM156.334 49.2559L154.889 49.4202L153.182 52.4519L150.89 49.8752L149.375 50.0475L152.541 53.5599L150.106 57.8878L151.533 57.7255L153.371 54.4291L155.885 57.2304L157.382 57.0601L154.015 53.3387L156.334 49.2559ZM168.568 55.7875L171.013 47.1576L171.951 55.4027L173.272 55.2524L172.042 44.4351L170.526 44.6075L167.89 53.9017L163.215 45.4393L161.647 45.6177L162.878 56.4349L164.199 56.2846L163.261 48.0395L167.617 55.8957L168.568 55.7875ZM181.417 54.3257L180.824 49.1109C180.63 47.402 179.399 46.4712 177.532 46.6837C176.034 46.854 174.974 47.8848 174.86 49.2362L176.164 49.0879C176.328 48.3375 176.817 47.925 177.645 47.8308C178.772 47.7025 179.451 48.3391 179.562 49.3081L179.674 50.2947C179.305 50.0332 178.439 49.7927 177.628 49.8849C175.955 50.0753 174.746 51.2122 174.912 52.6745C175.088 54.2248 176.518 55.0259 178.104 54.8455C179.037 54.7392 179.819 54.2398 180.083 53.8887L180.149 54.47L181.417 54.3257ZM179.928 52.5321C179.765 53.1395 179.017 53.6173 178.206 53.7095C177.255 53.8177 176.289 53.4815 176.181 52.5302C176.074 51.5964 176.942 51.0694 177.894 50.9612C178.704 50.869 179.541 51.1664 179.836 51.7217L179.928 52.5321ZM184.107 46.0962L182.786 46.2466L183.676 54.0688L184.997 53.9185L184.107 46.0962ZM184.032 43.7134C183.978 43.2378 183.549 42.9119 183.073 42.966C182.615 43.0181 182.269 43.4322 182.324 43.9078C182.376 44.3659 182.807 44.7094 183.265 44.6573C183.741 44.6032 184.085 44.1715 184.032 43.7134ZM187.358 53.6499L188.679 53.4996L188.076 48.1967C188.261 47.319 188.984 46.6122 189.9 46.508C191.08 46.3737 191.713 47.0691 191.837 48.1614L192.396 53.0767L193.735 52.9244L193.152 47.7977C192.957 46.0887 191.858 45.0538 190.079 45.2563C189.075 45.3705 188.289 45.9952 187.901 46.664L187.789 45.6774L186.468 45.8277L187.358 53.6499ZM207.144 40.4417L205.823 40.592L206.759 48.8194L200.062 41.2474L198.74 41.3977L199.971 52.2149L201.31 52.0626L200.332 43.4652L207.353 51.3752L208.375 51.2589L207.144 40.4417ZM215.508 48.0739C215.397 48.9788 214.731 49.5543 213.762 49.6645C212.441 49.8148 211.391 48.8992 211.183 47.2276L216.715 46.5982L216.661 46.1226C216.402 43.8499 215.078 42.4122 212.929 42.6567C210.797 42.8992 209.569 44.8057 209.835 47.1489C210.11 49.5625 211.759 51.0346 213.89 50.792C215.652 50.5916 216.646 49.4435 216.759 47.9316L215.508 48.0739ZM213.075 43.7822C214.379 43.6339 215.112 44.5856 215.261 45.7463L211.104 46.2194C211.141 44.8231 211.895 43.9165 213.075 43.7822ZM219.039 48.0469C219.204 49.4916 220.163 50.0785 221.431 49.9342C221.907 49.88 222.353 49.7222 222.634 49.5296L222.494 48.2964C222.25 48.5026 221.878 48.6876 221.508 48.7297C220.839 48.8059 220.431 48.5132 220.345 47.7557L219.823 43.1751L221.709 42.9606L221.58 41.8331L219.695 42.0476L219.461 39.9863L218.139 40.1366L218.374 42.1979L217.105 42.3422L217.234 43.4697L218.502 43.3254L219.039 48.0469ZM228.443 41.0524L227.263 41.1866L226.339 47.3414L223.933 41.5654L222.612 41.7158L225.81 49.2754L227.096 49.1291L228.059 43.0056L230.355 48.7583L231.641 48.612L233.059 40.5272L231.773 40.6735L230.726 46.8423L228.443 41.0524ZM241.624 43.5146C241.351 41.1186 239.699 39.6113 237.567 39.8538C235.418 40.0983 234.163 41.9363 234.436 44.3323C234.709 46.7283 236.344 48.2376 238.493 47.9931C240.625 47.7506 241.897 45.9106 241.624 43.5146ZM240.285 43.6669C240.48 45.3758 239.77 46.67 238.361 46.8304C236.951 46.9907 235.969 45.8889 235.775 44.18C235.581 42.4711 236.29 41.1769 237.699 41.0165C239.109 40.8562 240.091 41.958 240.285 43.6669ZM246.981 38.9077C246.832 38.8533 246.544 38.8325 246.209 38.8706C245.346 38.9688 244.664 39.5639 244.406 40.2714L244.289 39.2496L242.968 39.3999L243.858 47.2222L245.179 47.0719L244.582 41.8218C244.742 40.8756 245.402 40.2473 246.23 40.1531C246.565 40.115 246.908 40.1474 247.135 40.2643L246.981 38.9077ZM254.663 45.993L256.283 45.8086L252.131 41.7838L255.27 38.0004L253.526 38.1988L250.344 42.0763L249.537 34.9764L248.215 35.1268L249.518 46.5782L250.84 46.4279L250.521 43.6267L251.274 42.7201L254.663 45.993Z" fill="#1C1C26"/>
<path d="M98.5546 81.0295L99.6206 80.9083L99.1339 76.6304C99.2837 75.9223 99.8666 75.3521 100.606 75.268C101.558 75.1597 102.068 75.7207 102.168 76.6019L102.619 80.5671L103.699 80.4442L103.229 76.3085C103.072 74.9299 102.185 74.095 100.75 74.2583C99.9398 74.3505 99.3061 74.8544 98.9932 75.3939L98.9027 74.598L97.8367 74.7193L98.5546 81.0295ZM110.493 76.4754C110.273 74.5425 108.94 73.3266 107.22 73.5222C105.486 73.7195 104.474 75.2022 104.694 77.1351C104.914 79.068 106.233 80.2855 107.967 80.0883C109.687 79.8927 110.713 78.4083 110.493 76.4754ZM109.413 76.5983C109.57 77.9769 108.997 79.0209 107.86 79.1503C106.723 79.2796 105.931 78.3908 105.775 77.0122C105.618 75.6336 106.19 74.5896 107.327 74.4602C108.464 74.3309 109.256 75.2197 109.413 76.5983ZM116.487 78.9895L117.567 78.8666L116.516 69.6286L115.436 69.7515L115.853 73.4182C115.489 72.999 114.76 72.6645 113.978 72.7534C112.13 72.9636 111.307 74.5833 111.509 76.3598C111.713 78.1506 112.877 79.5297 114.725 79.3195C115.507 79.2306 116.142 78.7408 116.403 78.2504L116.487 78.9895ZM116.274 77.1134C116.021 77.8044 115.439 78.2593 114.771 78.3353C113.563 78.4727 112.741 77.5729 112.589 76.2369C112.437 74.901 113.036 73.8395 114.244 73.702C114.912 73.6261 115.581 73.9386 115.983 74.5552L116.274 77.1134ZM123.221 76.3087C123.131 77.0387 122.594 77.5029 121.812 77.5918C120.746 77.7131 119.899 76.9745 119.732 75.6259L124.194 75.1182L124.151 74.7345C123.942 72.9011 122.874 71.7413 121.14 71.9386C119.421 72.1342 118.43 73.6722 118.645 75.5624C118.866 77.5095 120.196 78.6971 121.916 78.5014C123.337 78.3397 124.139 77.4136 124.23 76.1939L123.221 76.3087ZM121.258 72.8465C122.31 72.7269 122.901 73.4946 123.022 74.431L119.668 74.8126C119.698 73.6862 120.306 72.9549 121.258 72.8465ZM125.165 79.2115L126.231 79.0902L128.569 68.2574L127.503 68.3787L125.165 79.2115ZM133.714 70.5657C133.808 71.39 133.18 72.1957 132.384 73.294L129.922 76.7124L130.006 77.4515L135.705 76.8031L135.592 75.8082L131.428 76.282L133.369 73.5994C134.137 72.5043 134.919 71.5371 134.793 70.4286C134.623 68.9363 133.518 68.083 131.856 68.2722C130.25 68.4549 129.297 69.7006 129.311 71.3402L130.462 71.2092C130.433 70.1904 130.917 69.3867 131.969 69.2671C132.935 69.1571 133.613 69.6703 133.714 70.5657ZM141.093 68.229L140.995 67.362L135.353 68.0039L135.466 68.9988L139.957 68.4879L137.752 76.5702L138.875 76.4425L141.093 68.229ZM144.551 71.7514L145.162 71.6819C146.157 71.5687 147.005 72.0625 147.117 73.0431C147.227 74.0095 146.587 74.7157 145.55 74.8338C144.455 74.9583 143.715 74.3947 143.444 73.4034L142.349 73.5279C142.671 75.0893 143.969 75.9926 145.674 75.7986C147.422 75.5997 148.344 74.3431 148.181 72.9076C148.07 71.927 147.384 71.2132 146.415 71.0499C147.183 70.7177 147.663 69.8714 147.553 68.9049C147.395 67.5121 146.287 66.6305 144.624 66.8196C143.075 66.9959 142.127 68.1546 142.082 69.657L143.176 69.5325C143.2 68.6083 143.753 67.8976 144.734 67.7861C145.714 67.6745 146.398 68.2445 146.494 69.0831C146.6 70.0211 145.95 70.6278 145.026 70.7329L144.443 70.7992L144.551 71.7514ZM165.22 70.0622L163.771 70.2271L164.021 68.1256L165.4 67.9687L165.475 67.1108L164.125 67.2644L164.437 64.6951L163.485 64.8035L163.158 67.3744L161.154 67.6023L161.481 65.0314L160.514 65.1414L160.202 67.7107L158.724 67.8788L158.649 68.7367L160.099 68.5718L159.848 70.6734L158.47 70.8302L158.38 71.6898L159.745 71.5345L159.432 74.1038L160.384 73.9955L160.697 71.4262L162.701 71.1982L162.388 73.7675L163.355 73.6576L163.667 71.0883L165.145 70.9201L165.22 70.0622ZM161.051 68.4635L163.055 68.2355L162.804 70.3371L160.8 70.565L161.051 68.4635ZM169.142 64.1455L168.474 64.2215L166.038 65.8375L166.167 66.9745L168.201 65.6201L169.042 73.0105L170.136 72.886L169.142 64.1455ZM171.562 74.2643L172.286 74.1818L172.897 72.8455C173.037 72.556 173.142 72.213 173.108 71.9145C173.048 71.3887 172.688 71.1274 172.261 71.1759C171.835 71.2244 171.529 71.5759 171.579 72.0165C171.626 72.4286 171.924 72.6395 172.286 72.6559L171.562 74.2643ZM177.892 65.5398C177.986 66.3641 177.358 67.1698 176.561 68.2681L174.1 71.6866L174.184 72.4256L179.883 71.7772L179.77 70.7824L175.605 71.2561L177.546 68.5736C178.314 67.4785 179.097 66.5113 178.97 65.4027C178.801 63.9104 177.696 63.0572 176.033 63.2463C174.427 63.4291 173.475 64.6747 173.488 66.3143L174.64 66.1833C174.61 65.1646 175.095 64.3609 176.146 64.2412C177.113 64.1313 177.79 64.6444 177.892 65.5398ZM184.92 65.1865C185.054 66.3662 184.365 67.2652 183.256 67.3913C182.162 67.5158 181.286 66.7804 181.154 65.615C181.023 64.4638 181.712 63.5648 182.807 63.4403C183.93 63.3126 184.791 64.0496 184.92 65.1865ZM180.689 69.6269C181.182 70.924 182.114 71.6529 183.649 71.4783C185.539 71.2633 186.64 69.2954 186.318 66.4671C186.202 65.4438 185.961 64.593 185.503 63.8534C184.838 62.8205 183.85 62.3571 182.713 62.4864C180.922 62.6902 179.935 64.1413 180.118 65.7473C180.297 67.3248 181.585 68.5172 183.276 68.3248C184.299 68.2084 185.125 67.4954 185.309 66.5819C185.319 66.6672 185.357 66.8787 185.367 66.964C185.58 68.84 184.823 70.409 183.544 70.5545C182.663 70.6548 182.123 70.2123 181.797 69.5008L180.689 69.6269ZM191.239 70.6149C193.186 70.3934 194.285 68.4113 193.982 65.7536C193.68 63.0959 192.164 61.4112 190.217 61.6327C188.27 61.8543 187.171 63.8364 187.473 66.4941C187.775 69.1518 189.291 70.8364 191.239 70.6149ZM190.332 62.6418C191.739 62.4817 192.657 63.8457 192.888 65.8781C193.119 67.9104 192.531 69.4458 191.124 69.6058C189.703 69.7675 188.799 68.402 188.567 66.3696C188.336 64.3372 188.91 62.8035 190.332 62.6418ZM194.976 71.6006L195.701 71.5181L196.312 70.1817C196.451 69.8923 196.556 69.5493 196.522 69.2508C196.463 68.7249 196.102 68.4637 195.675 68.5122C195.249 68.5607 194.944 68.9122 194.994 69.3527C195.041 69.7649 195.338 69.9758 195.7 69.9922L194.976 71.6006ZM201.871 61.3147L201.772 60.4477L196.13 61.0896L196.243 62.0845L200.734 61.5736L198.529 69.6559L199.652 69.5282L201.871 61.3147ZM206.659 59.8917L205.522 60.021L202.846 66.3576L202.936 67.1535L206.958 66.6959L207.183 68.6714L208.221 68.5534L207.996 66.5779L209.531 66.4032L209.424 65.4652L207.889 65.6399L207.65 63.5364L206.612 63.6545L206.852 65.7579L204.066 66.0748L206.659 59.8917ZM213.011 63.2576C214.077 63.1363 214.898 63.8924 215.022 64.9868C215.147 66.0811 214.516 66.9879 213.464 67.1075C212.369 67.232 211.673 66.6778 211.372 65.6756L210.277 65.8001C210.661 67.3976 211.911 68.2631 213.574 68.074C215.222 67.8864 216.261 66.5157 216.074 64.8671C215.883 63.1901 214.607 62.0971 213.001 62.2798C212.29 62.3607 211.74 62.7112 211.472 63.0152L211.173 60.3859L215.01 59.9494L214.897 58.9545L210.122 59.4978L210.667 64.2873L211.548 64.1871C211.83 63.752 212.315 63.3368 213.011 63.2576Z" fill="#656576"/>
<circle cx="66.7974" cy="70.0015" r="22.4096" transform="rotate(-5.67116 66.7974 70.0015)" fill="white" stroke="#E3E9F0" stroke-width="0.953599"/>
<path d="M81.3447 79.7659L80.9521 75.8117L73.5263 69.7276L69.5722 70.1202L81.3447 79.7659Z" fill="#1C1C26"/>
<path d="M57.2554 85.1509L61.162 84.7629L67.1454 77.515L74.3899 83.4493L78.3865 83.0524L66.7527 73.5608L57.2554 85.1509Z" fill="#1C1C26"/>
<path d="M51.5386 61.0938L51.9312 65.0479L59.357 71.1321L63.3111 70.7394L51.5386 61.0938Z" fill="#1C1C26"/>
<path d="M75.6287 55.7087L71.722 56.0966L65.7386 63.3446L58.4941 57.4102L54.4975 57.8071L66.1313 67.2987L75.6287 55.7087Z" fill="#1C1C26"/>
<path d="M66.652 72.2366C67.6703 72.1354 68.4138 71.228 68.3127 70.2097C68.2116 69.1914 67.3041 68.4478 66.2858 68.549C65.2675 68.6501 64.524 69.5576 64.6251 70.5759C64.7262 71.5942 65.6337 72.3377 66.652 72.2366Z" fill="#E6007A"/>
<circle cx="153.575" cy="69.0478" r="0.953599" fill="#656576"/>
</g>
<circle cx="182.417" cy="299.342" r="288.941" stroke="#E3E9F0" stroke-width="0.953599"/>
</g>
<defs>
<filter id="filter0_f_14_944" x="-89.3599" y="-372.147" width="534.638" height="825.382" filterUnits="userSpaceOnUse" color-interpolation-filters="sRGB">
<feFlood flood-opacity="0" result="BackgroundImageFix"/>
<feBlend mode="normal" in="SourceGraphic" in2="BackgroundImageFix" result="shape"/>
<feGaussianBlur stdDeviation="20.3431" result="effect1_foregroundBlur_14_944"/>
</filter>
<filter id="filter1_d_14_944" x="-70.8138" y="-225.292" width="454.428" height="257.241" filterUnits="userSpaceOnUse" color-interpolation-filters="sRGB">
<feFlood flood-opacity="0" result="BackgroundImageFix"/>
<feColorMatrix in="SourceAlpha" type="matrix" values="0 0 0 0 0 0 0 0 0 0 0 0 0 0 0 0 0 0 127 0" result="hardAlpha"/>
<feOffset dy="21.9706"/>
<feGaussianBlur stdDeviation="24.4117"/>
<feColorMatrix type="matrix" values="0 0 0 0 0 0 0 0 0 0 0 0 0 0 0 0 0 0 0.132841 0"/>
<feBlend mode="normal" in2="BackgroundImageFix" result="effect1_dropShadow_14_944"/>
<feBlend mode="normal" in="SourceGraphic" in2="effect1_dropShadow_14_944" result="shape"/>
</filter>
<linearGradient id="paint0_linear_14_944" x1="141.181" y1="-312.245" x2="228.292" y2="391.656" gradientUnits="userSpaceOnUse">
<stop stop-color="#ABB2C4" stop-opacity="0.238649"/>
<stop offset="1" stop-color="#737A91" stop-opacity="0.331635"/>
</linearGradient>
</defs>
</svg>
