<svg width="638" height="741" viewBox="0 0 638 741" fill="none" xmlns="http://www.w3.org/2000/svg">
<mask id="mask0_239_2324" style="mask-type:alpha" maskUnits="userSpaceOnUse" x="0" y="0" width="638" height="741">
<rect width="638" height="741" rx="30" fill="#E7E7E7"/>
</mask>
<g mask="url(#mask0_239_2324)">
<path opacity="0.4" d="M-3.50018 334.702C0.119817 325.462 -7.93017 315.332 -0.340173 308.942C22.0998 290.032 50.5598 280.652 79.5698 283.502C113.62 286.842 125.27 296.432 134.39 307.762C144.14 319.862 154.33 333.382 151.14 348.582C160.53 341.452 174.97 346.022 182.43 355.142C189.89 364.262 192.19 376.432 194.24 388.042C201.2 385.637 208.677 385.135 215.897 386.588C223.116 388.041 229.817 391.396 235.305 396.306C240.793 401.217 244.87 407.504 247.115 414.518C249.359 421.532 249.689 429.018 248.07 436.202C264.41 428.382 285.73 432.812 297.6 446.502C301.159 446.701 304.593 447.888 307.514 449.931C310.436 451.973 312.729 454.791 314.137 458.066C315.545 461.341 316.011 464.944 315.484 468.469C314.956 471.995 313.455 475.303 311.15 478.022C322.22 475.732 333.73 487.022 331.6 498.172C333.277 495.518 335.668 493.39 338.499 492.033C341.33 490.676 344.487 490.144 347.606 490.499C350.726 490.854 353.682 492.081 356.136 494.04C358.59 495.999 360.442 498.609 361.48 501.572C363.841 499.567 366.737 498.296 369.811 497.916C372.886 497.536 376.004 498.064 378.782 499.434C381.561 500.804 383.878 502.957 385.448 505.627C387.018 508.297 387.773 511.369 387.62 514.462C390.852 511.553 394.855 509.637 399.148 508.946C403.442 508.255 407.844 508.817 411.826 510.565C415.808 512.313 419.201 515.173 421.598 518.802C423.995 522.431 425.294 526.674 425.34 531.022V546.962L-3.50018 546.382V356.932V334.702Z" fill="#8BA1BE" fill-opacity="0.2"/>
<path d="M1097.86 728.308L808.456 562.286L758.443 567.357L726.29 519.841L611.365 465.7L-1.1084 747.936V787.515H1097.86V728.308Z" fill="#8BA1BE" fill-opacity="0.2"/>
<path d="M417.777 553.686L359.327 530.073L301.668 524.114L278.29 487.678L71.4818 371L-2.11816 407.957V606.663V759.5L417.777 553.686Z" fill="#8BA1BE" fill-opacity="0.2"/>
<path opacity="0.1" d="M70.4818 371L-3.11816 407.957V606.663L85.2018 705.663L95.0359 557.663L61.0609 597.008L70.4828 525.583L47.7268 507.918L78.0508 425.327L47.7268 441.986L70.4818 371Z" fill="black"/>
<path opacity="0.1" d="M359.047 529.588L171.188 641.091L302.114 524.653L359.047 529.588Z" fill="black"/>
<path d="M73 274.939C76.9 264.099 87.92 258.999 98.95 262.339C100.047 259.424 101.824 256.812 104.131 254.72C106.439 252.628 109.211 251.116 112.22 250.308C115.228 249.501 118.386 249.422 121.431 250.078C124.476 250.733 127.321 252.105 129.73 254.079C132.39 244.939 143.09 239.749 152.49 241.259C161.89 242.769 169.72 249.629 174.75 257.709C177.755 256.634 180.952 256.2 184.135 256.436C187.318 256.672 190.416 257.573 193.23 259.079C198.83 262.079 203.02 268.739 204.46 274.939H73Z" fill="#8BA1BE" fill-opacity="0.2"/>
<path d="M226 160.608C228.37 154.018 235.07 150.908 241.78 152.948C242.451 151.177 243.533 149.592 244.938 148.322C246.342 147.053 248.029 146.136 249.858 145.648C251.687 145.159 253.606 145.113 255.457 145.513C257.307 145.913 259.036 146.747 260.5 147.948C262.12 142.398 268.63 139.238 274.34 140.158C280.05 141.078 284.82 145.248 287.88 150.158C289.707 149.507 291.649 149.244 293.583 149.387C295.516 149.53 297.399 150.075 299.11 150.988C302.52 152.838 305.11 156.868 305.94 160.638L226 160.608Z" fill="#8BA1BE" fill-opacity="0.2"/>
<path d="M392.23 349.73C392.23 349.73 391.85 349.63 391.16 349.49C390.173 349.288 389.157 349.261 388.16 349.41C386.691 349.608 385.307 350.21 384.16 351.15C382.769 352.284 381.788 353.844 381.37 355.59L381.2 356.25L380.95 355.62C380.261 353.966 379.095 352.556 377.6 351.57C376.376 350.769 374.969 350.291 373.51 350.18C372.157 350.114 370.803 350.287 369.51 350.69C369.819 350.492 370.156 350.344 370.51 350.25C371.48 349.946 372.496 349.817 373.51 349.87C375.034 349.943 376.513 350.411 377.8 351.23C379.387 352.242 380.623 353.719 381.34 355.46H380.92C381.371 353.614 382.427 351.974 383.92 350.8C385.121 349.838 386.571 349.238 388.1 349.07C389.105 348.958 390.122 349.033 391.1 349.29C391.5 349.368 391.883 349.517 392.23 349.73Z" fill="#9397A2"/>
<path d="M278 347.659C278 347.659 277.65 348.069 277 348.789C276.104 349.808 275.298 350.902 274.59 352.059C272.224 355.868 270.979 360.266 271 364.749V364.909H270.56C269.864 360.523 267.816 356.464 264.7 353.299C263.39 352.013 261.96 350.854 260.43 349.839C260.43 349.839 260.56 349.839 260.78 349.999C261.124 350.163 261.458 350.347 261.78 350.549C262.926 351.279 263.992 352.127 264.96 353.079C266.411 354.49 267.644 356.107 268.62 357.879C269.833 360.05 270.646 362.421 271.02 364.879H270.58V364.719C270.548 360.159 271.852 355.688 274.33 351.859C275.072 350.704 275.926 349.626 276.88 348.639C277.21 348.279 277.5 348.039 277.68 347.869C277.86 347.699 277.94 347.639 278 347.659Z" fill="#9397A2"/>
<path d="M711.31 734.79H709.12H702.69L677.97 734.84L587 735L287 735.08H284.28V734.56H302.72V735.08H283.14V734.56H300.45V735.08H272.21V734.57H298.21V735.07L74.6297 735L9.62973 734.92H-7.76027H-12.2503H-13.7803C-13.7803 734.92 -13.2603 734.92 -12.2503 734.92H-7.76027L9.62973 734.87L74.6297 734.8L298.19 734.71V735.21H272.19V734.7H300.43V735.22H283.14V734.7H302.78V735.22H284.34V734.7H287.06L587.06 734.78L677.99 734.86L702.71 734.91H709.14L711.31 734.79Z" fill="#263238"/>
<path d="M35.1798 741.55H87.3398L87.3398 402H35.1798L35.1798 741.55Z" fill="#252D43"/>
<path d="M61.7799 566.99H77.6299V536.44H61.7799V566.99Z" fill="#151515" fill-opacity="0.7"/>
<path d="M69.2198 566.98C69.3398 566.98 69.4298 560.14 69.4298 551.71C69.4298 543.28 69.3398 536.43 69.2198 536.43C69.0998 536.43 69.0098 543.27 69.0098 551.71C69.0098 560.15 69.1298 566.98 69.2198 566.98Z" fill="#444C61"/>
<path d="M61.77 547.05C64.408 547.256 67.0548 547.326 69.7 547.26C72.3419 547.326 74.9854 547.256 77.62 547.05C74.9861 546.831 72.3421 546.757 69.7 546.83C67.0547 546.757 64.4073 546.831 61.77 547.05Z" fill="#444C61"/>
<path d="M61.6899 557.97C64.351 558.183 67.0214 558.253 69.6899 558.18C72.3584 558.253 75.0289 558.183 77.6899 557.97C75.0286 557.764 72.3584 557.694 69.6899 557.76C67.0214 557.694 64.3513 557.764 61.6899 557.97Z" fill="#444C61"/>
<path d="M61.7799 606.89H77.6299V576.34H61.7799V606.89Z" fill="#151515" fill-opacity="0.7"/>
<path d="M69.2198 606.89C69.3398 606.89 69.4298 600.05 69.4298 591.61C69.4298 583.17 69.3398 576.34 69.2198 576.34C69.0998 576.34 69.0098 583.18 69.0098 591.61C69.0098 600.04 69.1298 606.89 69.2198 606.89Z" fill="#444C61"/>
<path d="M61.77 586.95C64.4077 587.162 67.0548 587.232 69.7 587.16C72.3419 587.232 74.9857 587.162 77.62 586.95C74.9857 586.738 72.3419 586.668 69.7 586.74C67.0548 586.668 64.4077 586.738 61.77 586.95Z" fill="#444C61"/>
<path d="M61.6899 597.88C64.3513 598.086 67.0214 598.156 69.6899 598.09C72.3584 598.156 75.0286 598.086 77.6899 597.88C75.0289 597.667 72.3584 597.597 69.6899 597.67C67.0214 597.597 64.351 597.667 61.6899 597.88Z" fill="#444C61"/>
<path d="M61.7799 646.8H77.6299V616.25H61.7799V646.8Z" fill="#151515" fill-opacity="0.7"/>
<path d="M69.2198 646.79C69.3398 646.79 69.4298 639.95 69.4298 631.52C69.4298 623.09 69.3698 616.29 69.2198 616.29C69.0698 616.29 69.0098 623.13 69.0098 631.57C69.0098 640.01 69.1298 646.79 69.2198 646.79Z" fill="#444C61"/>
<path d="M61.77 626.86C64.408 627.066 67.0548 627.136 69.7 627.07C72.3419 627.136 74.9854 627.066 77.62 626.86C74.9857 626.647 72.3419 626.577 69.7 626.65C67.0548 626.577 64.4077 626.648 61.77 626.86Z" fill="#444C61"/>
<path d="M61.6899 637.78C64.3506 637.999 67.0213 638.072 69.6899 638C72.3586 638.072 75.0293 637.999 77.6899 637.78C75.0286 637.573 72.3584 637.503 69.6899 637.57C67.0214 637.503 64.3513 637.573 61.6899 637.78Z" fill="#444C61"/>
<path d="M61.7799 686.7H77.6299V656.15H61.7799V686.7Z" fill="#151515" fill-opacity="0.7"/>
<path d="M69.2198 686.7C69.3398 686.7 69.4298 679.86 69.4298 671.43C69.4298 663 69.3398 656.15 69.2198 656.15C69.0998 656.15 69.0098 662.99 69.0098 671.43C69.0098 679.87 69.1298 686.7 69.2198 686.7Z" fill="#444C61"/>
<path d="M61.77 666.76C64.4073 666.979 67.0547 667.052 69.7 666.98C72.3421 667.053 74.9861 666.979 77.62 666.76C74.9854 666.554 72.3419 666.484 69.7 666.55C67.0548 666.484 64.408 666.554 61.77 666.76Z" fill="#444C61"/>
<path d="M61.6899 677.69C64.351 677.902 67.0214 677.972 69.6899 677.9C72.3584 677.972 75.0289 677.902 77.6899 677.69C75.0289 677.477 72.3584 677.407 69.6899 677.48C67.0214 677.407 64.351 677.477 61.6899 677.69Z" fill="#444C61"/>
<path d="M12.9998 741.55H51.0098L51.0098 402H12.9998L12.9998 741.55Z" fill="#444C61"/>
<path d="M23.36 566.99H39.21L39.21 536.44H23.36L23.36 566.99Z" fill="#151515" fill-opacity="0.7"/>
<path d="M30.8301 566.98C30.9501 566.98 31.0401 560.14 31.0401 551.71C31.0401 543.28 30.9501 536.43 30.8301 536.43C30.7101 536.43 30.6201 543.27 30.6201 551.71C30.6201 560.15 30.7201 566.98 30.8301 566.98Z" fill="#444C61"/>
<path d="M23.3501 547.05C25.9881 547.256 28.6349 547.326 31.2801 547.26C33.9253 547.326 36.5721 547.256 39.2101 547.05C36.5728 546.831 33.9255 546.758 31.2801 546.83C28.6347 546.758 25.9874 546.831 23.3501 547.05Z" fill="#444C61"/>
<path d="M23.27 557.97C25.931 558.182 28.6015 558.252 31.27 558.18C33.9385 558.253 36.609 558.183 39.27 557.97C36.6087 557.763 33.9385 557.693 31.27 557.76C28.6015 557.693 25.9314 557.763 23.27 557.97Z" fill="#444C61"/>
<path d="M61.7799 525.8H77.6299V495.25H61.7799V525.8Z" fill="#151515" fill-opacity="0.7"/>
<path d="M69.2198 525.8C69.3398 525.8 69.4298 518.96 69.4298 510.52C69.4298 502.08 69.3698 495.29 69.2198 495.29C69.0698 495.29 69.0098 502.13 69.0098 510.56C69.0098 518.99 69.1298 525.8 69.2198 525.8Z" fill="#444C61"/>
<path d="M61.77 505.86C64.4077 506.072 67.0548 506.142 69.7 506.07C72.3419 506.142 74.9857 506.072 77.62 505.86C74.9854 505.653 72.3419 505.583 69.7 505.65C67.0548 505.583 64.408 505.654 61.77 505.86Z" fill="#444C61"/>
<path d="M61.6899 516.79C64.351 517.002 67.0214 517.072 69.6899 517C72.3584 517.072 75.0289 517.002 77.6899 516.79C75.0289 516.577 72.3584 516.507 69.6899 516.58C67.0214 516.507 64.351 516.577 61.6899 516.79Z" fill="#444C61"/>
<path d="M23.36 525.8H39.21L39.21 495.25H23.36L23.36 525.8Z" fill="#151515" fill-opacity="0.7"/>
<path d="M30.8301 525.8C30.9501 525.8 31.0401 518.96 31.0401 510.52C31.0401 502.08 30.9501 495.29 30.8301 495.29C30.7101 495.29 30.6201 502.13 30.6201 510.56C30.6201 518.99 30.7201 525.8 30.8301 525.8Z" fill="#444C61"/>
<path d="M23.3501 505.86C25.9878 506.072 28.6349 506.142 31.2801 506.07C33.9253 506.142 36.5724 506.072 39.2101 505.86C36.5721 505.653 33.9253 505.583 31.2801 505.65C28.6349 505.583 25.9881 505.653 23.3501 505.86Z" fill="#444C61"/>
<path d="M23.27 516.79C25.931 517.003 28.6015 517.073 31.27 517C33.9385 517.073 36.609 517.003 39.27 516.79C36.609 516.577 33.9385 516.507 31.27 516.58C28.6015 516.508 25.931 516.578 23.27 516.79Z" fill="#444C61"/>
<path d="M61.7799 484.61H77.6299V454.06H61.7799V484.61Z" fill="#151515" fill-opacity="0.7"/>
<path d="M69.2198 484.62C69.3398 484.62 69.4298 477.78 69.4298 469.34C69.4298 460.9 69.3398 454.07 69.2198 454.07C69.0998 454.07 69.0098 460.9 69.0098 469.34C69.0098 477.78 69.1298 484.62 69.2198 484.62Z" fill="#444C61"/>
<path d="M61.77 464.68C64.4077 464.892 67.0548 464.962 69.7 464.89C72.3419 464.962 74.9857 464.892 77.62 464.68C74.9857 464.468 72.3419 464.398 69.7 464.47C67.0548 464.398 64.4077 464.468 61.77 464.68Z" fill="#444C61"/>
<path d="M61.6899 475.6C64.3506 475.819 67.0213 475.893 69.6899 475.82C72.3586 475.893 75.0293 475.819 77.6899 475.6C75.0286 475.394 72.3584 475.324 69.6899 475.39C67.0214 475.324 64.3513 475.394 61.6899 475.6Z" fill="#444C61"/>
<path d="M23.36 484.61H39.21L39.21 454.06H23.36L23.36 484.61Z" fill="#151515" fill-opacity="0.7"/>
<path d="M30.8301 484.62C30.9501 484.62 31.0401 477.78 31.0401 469.34C31.0401 460.9 30.9501 454.07 30.8301 454.07C30.7101 454.07 30.6201 460.9 30.6201 469.34C30.6201 477.78 30.7201 484.62 30.8301 484.62Z" fill="#444C61"/>
<path d="M23.3501 464.68C25.9878 464.892 28.6349 464.962 31.2801 464.89C33.9253 464.962 36.5724 464.892 39.2101 464.68C36.5724 464.468 33.9253 464.398 31.2801 464.47C28.6349 464.398 25.9878 464.468 23.3501 464.68Z" fill="#444C61"/>
<path d="M23.27 475.6C25.9307 475.819 28.6013 475.892 31.27 475.82C33.9387 475.893 36.6094 475.819 39.27 475.6C36.6087 475.393 33.9385 475.323 31.27 475.39C28.6015 475.323 25.9314 475.393 23.27 475.6Z" fill="#444C61"/>
<path d="M61.7799 443.43H77.6299V412.88H61.7799V443.43Z" fill="#151515" fill-opacity="0.7"/>
<path d="M69.2198 443.43C69.3398 443.43 69.4298 436.59 69.4298 428.16C69.4298 419.73 69.3398 412.88 69.2198 412.88C69.0998 412.88 69.0098 419.72 69.0098 428.16C69.0098 436.6 69.1298 443.43 69.2198 443.43Z" fill="#444C61"/>
<path d="M61.77 423.5C64.408 423.706 67.0548 423.776 69.7 423.71C72.3419 423.776 74.9854 423.706 77.62 423.5C74.9861 423.281 72.3421 423.207 69.7 423.28C67.0547 423.208 64.4073 423.281 61.77 423.5Z" fill="#444C61"/>
<path d="M61.6899 434.42C64.351 434.632 67.0214 434.702 69.6899 434.63C72.3584 434.702 75.0289 434.632 77.6899 434.42C75.0289 434.207 72.3584 434.137 69.6899 434.21C67.0214 434.137 64.351 434.207 61.6899 434.42Z" fill="#444C61"/>
<path d="M23.36 443.43H39.21L39.21 412.88H23.36L23.36 443.43Z" fill="#151515" fill-opacity="0.7"/>
<path d="M30.8301 443.43C30.9501 443.43 31.0401 436.59 31.0401 428.16C31.0401 419.73 30.9501 412.88 30.8301 412.88C30.7101 412.88 30.6201 419.72 30.6201 428.16C30.6201 436.6 30.7201 443.43 30.8301 443.43Z" fill="#444C61"/>
<path d="M23.3501 423.5C25.9881 423.706 28.6349 423.776 31.2801 423.71C33.9253 423.776 36.5721 423.706 39.2101 423.5C36.5728 423.281 33.9255 423.208 31.2801 423.28C28.6347 423.208 25.9874 423.281 23.3501 423.5Z" fill="#444C61"/>
<path d="M23.27 434.42C25.931 434.632 28.6015 434.703 31.27 434.63C33.9385 434.703 36.609 434.633 39.27 434.42C36.609 434.207 33.9385 434.137 31.27 434.21C28.6015 434.137 25.931 434.208 23.27 434.42Z" fill="#444C61"/>
<path d="M23.36 607.21H39.21L39.21 576.66H23.36L23.36 607.21Z" fill="#151515" fill-opacity="0.7"/>
<path d="M30.8301 607.22C30.9501 607.22 31.0401 600.38 31.0401 591.94C31.0401 583.5 30.9501 576.67 30.8301 576.67C30.7101 576.67 30.6201 583.5 30.6201 591.94C30.6201 600.38 30.7201 607.22 30.8301 607.22Z" fill="#444C61"/>
<path d="M23.3501 587.29C25.9878 587.502 28.6349 587.572 31.2801 587.5C33.9286 587.573 36.5791 587.503 39.2201 587.29C36.5824 587.078 33.9353 587.008 31.2901 587.08C28.6416 587.007 25.9911 587.077 23.3501 587.29Z" fill="#444C61"/>
<path d="M23.27 598.21C25.9314 598.417 28.6015 598.487 31.27 598.42C33.9385 598.487 36.6087 598.417 39.27 598.21C36.6094 597.991 33.9387 597.917 31.27 597.99C28.6013 597.918 25.9307 597.991 23.27 598.21Z" fill="#444C61"/>
<path d="M23.36 647.45H39.21L39.21 616.9H23.36L23.36 647.45Z" fill="#151515" fill-opacity="0.7"/>
<path d="M30.8301 647.45C30.9501 647.45 31.0401 640.61 31.0401 632.17C31.0401 623.73 30.9501 616.9 30.8301 616.9C30.7101 616.9 30.6201 623.74 30.6201 632.17C30.6201 640.6 30.7201 647.45 30.8301 647.45Z" fill="#444C61"/>
<path d="M23.3501 627.51C25.9878 627.722 28.6349 627.792 31.2801 627.72C33.9253 627.792 36.5724 627.722 39.2101 627.51C36.5721 627.304 33.9253 627.234 31.2801 627.3C28.6349 627.234 25.9881 627.304 23.3501 627.51Z" fill="#444C61"/>
<path d="M23.27 638.44C25.931 638.652 28.6015 638.723 31.27 638.65C33.9385 638.723 36.609 638.653 39.27 638.44C36.609 638.227 33.9385 638.157 31.27 638.23C28.6015 638.157 25.931 638.228 23.27 638.44Z" fill="#444C61"/>
<path d="M23.36 687.68H39.21L39.21 657.13H23.36L23.36 687.68Z" fill="#151515" fill-opacity="0.7"/>
<path d="M30.8301 687.68C30.9501 687.68 31.0401 680.84 31.0401 672.41C31.0401 663.98 30.9501 657.13 30.8301 657.13C30.7101 657.13 30.6201 663.97 30.6201 672.41C30.6201 680.85 30.7201 687.68 30.8301 687.68Z" fill="#444C61"/>
<path d="M23.3501 667.75C25.9881 667.956 28.6349 668.026 31.2801 667.96C33.9253 668.026 36.5721 667.956 39.2101 667.75C36.5728 667.531 33.9255 667.458 31.2801 667.53C28.6347 667.458 25.9874 667.531 23.3501 667.75Z" fill="#444C61"/>
<path d="M23.27 678.67C25.931 678.882 28.6015 678.953 31.27 678.88C33.9385 678.953 36.609 678.883 39.27 678.67C36.609 678.457 33.9385 678.387 31.27 678.46C28.6015 678.387 25.931 678.458 23.27 678.67Z" fill="#444C61"/>
<path d="M61.7799 726.61H77.6299V696.06H61.7799V726.61Z" fill="#151515" fill-opacity="0.7"/>
<path d="M69.2198 726.61C69.3398 726.61 69.4298 719.77 69.4298 711.33C69.4298 702.89 69.3398 696.05 69.2198 696.05C69.0998 696.05 69.0098 702.89 69.0098 711.33C69.0098 719.77 69.1298 726.61 69.2198 726.61Z" fill="#444C61"/>
<path d="M61.77 706.67C64.4077 706.882 67.0548 706.952 69.7 706.88C72.3419 706.952 74.9857 706.882 77.62 706.67C74.9857 706.457 72.3419 706.387 69.7 706.46C67.0548 706.387 64.4077 706.458 61.77 706.67Z" fill="#444C61"/>
<path d="M61.6899 717.59C64.3506 717.809 67.0213 717.882 69.6899 717.81C72.3586 717.882 75.0293 717.809 77.6899 717.59C75.0286 717.383 72.3584 717.313 69.6899 717.38C67.0214 717.313 64.3513 717.383 61.6899 717.59Z" fill="#444C61"/>
<path d="M23.36 727.92H39.21L39.21 697.37H23.36L23.36 727.92Z" fill="#151515" fill-opacity="0.7"/>
<path d="M30.8301 727.92C30.9501 727.92 31.0401 721.08 31.0401 712.64C31.0401 704.2 30.9501 697.36 30.8301 697.36C30.7101 697.36 30.6201 704.2 30.6201 712.64C30.6201 721.08 30.7201 727.92 30.8301 727.92Z" fill="#444C61"/>
<path d="M23.3501 707.98C25.9878 708.192 28.6349 708.262 31.2801 708.19C33.9253 708.262 36.5724 708.192 39.2101 707.98C36.5724 707.768 33.9253 707.697 31.2801 707.77C28.6349 707.697 25.9878 707.768 23.3501 707.98Z" fill="#444C61"/>
<path d="M23.27 718.9C25.9307 719.119 28.6013 719.193 31.27 719.12C33.9387 719.193 36.6094 719.119 39.27 718.9C36.6087 718.693 33.9385 718.623 31.27 718.69C28.6015 718.623 25.9314 718.694 23.27 718.9Z" fill="#444C61"/>
<path d="M67.9901 729.58C68.4868 730.029 68.9029 730.56 69.2201 731.15C70.9183 733.852 72.0984 736.846 72.7001 739.98C72.8704 740.632 72.9312 741.308 72.8801 741.98C72.7301 741.98 72.2501 739.04 70.8801 735.62C69.5101 732.2 67.8601 729.67 67.9901 729.58Z" fill="#263238"/>
<path d="M76.4701 722.17C76.5031 723.132 76.4597 724.095 76.3402 725.05C76.2202 726.83 76.1001 729.28 76.1201 731.99C76.1401 734.7 76.2901 737.14 76.4301 738.92C76.566 739.874 76.6262 740.837 76.6101 741.8C76.3209 740.874 76.1397 739.918 76.0701 738.95C75.7688 736.629 75.6118 734.291 75.6001 731.95C75.5806 729.611 75.7042 727.274 75.9701 724.95C76.0399 724.008 76.2075 723.077 76.4701 722.17Z" fill="#263238"/>
<path d="M83.3499 732.51C83.4999 732.58 82.4999 734.58 81.9199 737.24C81.3399 739.9 81.3599 742.13 81.1999 742.13C80.7413 738.769 81.5042 735.355 83.3499 732.51Z" fill="#263238"/>
<path d="M29.0698 740.94H64.5298L64.5298 591H29.0698L29.0698 740.94Z" fill="#252D43"/>
<path d="M47.1399 622.27H57.9199V601.5H47.1399V622.27Z" fill="#151515" fill-opacity="0.7"/>
<path d="M52.2298 622.27C52.3098 622.27 52.3798 617.62 52.3798 611.89C52.3798 606.16 52.3098 601.5 52.2298 601.5C52.1498 601.5 52.0898 606.15 52.0898 611.89C52.0898 617.63 52.1498 622.27 52.2298 622.27Z" fill="#444C61"/>
<path d="M47.1499 608.72C48.9395 608.861 50.7354 608.908 52.5299 608.86C54.3278 608.908 56.127 608.862 57.9199 608.72C56.1273 608.572 54.328 608.522 52.5299 608.57C50.7352 608.522 48.9392 608.572 47.1499 608.72Z" fill="#444C61"/>
<path d="M47.0898 616.14C48.8958 616.288 50.7085 616.338 52.5198 616.29C54.3312 616.338 56.1439 616.288 57.9498 616.14C57.9498 616.07 55.5198 616 52.5198 616C49.5198 616 47.0898 616.07 47.0898 616.14Z" fill="#444C61"/>
<path d="M47.1399 649.39H57.9199V628.62H47.1399V649.39Z" fill="#151515" fill-opacity="0.7"/>
<path d="M52.2298 649.4C52.3098 649.4 52.3798 644.75 52.3798 639.01C52.3798 633.27 52.3098 628.63 52.2298 628.63C52.1498 628.63 52.0898 633.28 52.0898 639.01C52.0898 644.74 52.1498 649.4 52.2298 649.4Z" fill="#444C61"/>
<path d="M47.1499 635.84C48.9392 635.988 50.7352 636.038 52.5299 635.99C54.328 636.038 56.1273 635.988 57.9199 635.84C56.127 635.699 54.3278 635.652 52.5299 635.7C50.7354 635.652 48.9395 635.699 47.1499 635.84Z" fill="#444C61"/>
<path d="M47.0898 643.27C48.8962 643.412 50.7086 643.458 52.5198 643.41C54.331 643.458 56.1435 643.412 57.9498 643.27C56.1435 643.129 54.331 643.082 52.5198 643.13C50.7086 643.082 48.8962 643.129 47.0898 643.27Z" fill="#444C61"/>
<path d="M47.1399 676.53H57.9199V655.76H47.1399V676.53Z" fill="#151515" fill-opacity="0.7"/>
<path d="M52.2298 676.52C52.3098 676.52 52.3798 671.87 52.3798 666.14C52.3798 660.41 52.3098 655.75 52.2298 655.75C52.1498 655.75 52.0898 660.4 52.0898 666.14C52.0898 671.88 52.1498 676.52 52.2298 676.52Z" fill="#444C61"/>
<path d="M47.1499 662.97C48.9395 663.111 50.7354 663.158 52.5299 663.11C54.3278 663.158 56.127 663.111 57.9199 662.97C56.127 662.828 54.3278 662.782 52.5299 662.83C50.7354 662.782 48.9395 662.829 47.1499 662.97Z" fill="#444C61"/>
<path d="M47.0898 670.4C48.8962 670.542 50.7086 670.588 52.5198 670.54C54.331 670.588 56.1435 670.542 57.9498 670.4C56.1439 670.252 54.3312 670.202 52.5198 670.25C50.7085 670.202 48.8958 670.252 47.0898 670.4Z" fill="#444C61"/>
<path d="M47.1399 703.65H57.9199V682.88H47.1399V703.65Z" fill="#151515" fill-opacity="0.7"/>
<path d="M52.2298 703.67C52.3098 703.67 52.3798 699.02 52.3798 693.28C52.3798 687.54 52.3098 682.9 52.2298 682.9C52.1498 682.9 52.0898 687.55 52.0898 693.28C52.0898 699.01 52.1498 703.67 52.2298 703.67Z" fill="#444C61"/>
<path d="M47.1499 690.09C48.9392 690.238 50.7352 690.288 52.5299 690.24C54.328 690.288 56.1273 690.238 57.9199 690.09C57.9199 690.02 55.5099 689.95 52.5299 689.95C49.5499 689.95 47.1499 690.02 47.1499 690.09Z" fill="#444C61"/>
<path d="M47.0898 697.52C48.8958 697.668 50.7085 697.718 52.5198 697.67C54.3312 697.718 56.1439 697.668 57.9498 697.52C56.1435 697.379 54.331 697.332 52.5198 697.38C50.7086 697.332 48.8962 697.379 47.0898 697.52Z" fill="#444C61"/>
<path d="M14.0001 740.94H39.8301L39.8301 591H14.0001L14.0001 740.94Z" fill="#444C61"/>
<path d="M21.0301 622.27H31.8101L31.8101 601.5H21.0301V622.27Z" fill="#151515" fill-opacity="0.7"/>
<path d="M26.1202 622.27C26.2002 622.27 26.2602 617.62 26.2602 611.89C26.2602 606.16 26.2002 601.5 26.1202 601.5C26.0402 601.5 25.9702 606.15 25.9702 611.89C25.9702 617.63 26.0402 622.27 26.1202 622.27Z" fill="#444C61"/>
<path d="M21.0298 608.72C22.8227 608.862 24.6219 608.908 26.4198 608.86C28.2177 608.908 30.0168 608.862 31.8098 608.72C30.0172 608.572 28.2178 608.522 26.4198 608.57C24.6217 608.522 22.8224 608.572 21.0298 608.72Z" fill="#444C61"/>
<path d="M20.9702 616.14C22.7795 616.288 24.5955 616.338 26.4102 616.29C28.2216 616.338 30.0343 616.288 31.8402 616.14C31.8402 616.07 29.4102 616 26.4102 616C23.4102 616 20.9702 616.07 20.9702 616.14Z" fill="#444C61"/>
<path d="M21.0301 649.62H31.8101L31.8101 628.85H21.0301V649.62Z" fill="#151515" fill-opacity="0.7"/>
<path d="M26.1202 649.67C26.2002 649.67 26.2602 645.02 26.2602 639.29C26.2602 633.56 26.2002 628.9 26.1202 628.9C26.0402 628.9 25.9702 633.55 25.9702 639.29C25.9702 645.03 26.0402 649.67 26.1202 649.67Z" fill="#444C61"/>
<path d="M21.0298 636.07C22.8227 636.212 24.6219 636.258 26.4198 636.21C28.2177 636.258 30.0168 636.212 31.8098 636.07C30.0172 635.922 28.2178 635.872 26.4198 635.92C24.6217 635.872 22.8224 635.922 21.0298 636.07Z" fill="#444C61"/>
<path d="M20.9702 643.49C22.7795 643.638 24.5955 643.688 26.4102 643.64C28.2216 643.688 30.0343 643.638 31.8402 643.49C30.0339 643.348 28.2214 643.302 26.4102 643.35C24.5957 643.302 22.7799 643.349 20.9702 643.49Z" fill="#444C61"/>
<path d="M21.0301 676.97H31.8101L31.8101 656.2H21.0301V676.97Z" fill="#151515" fill-opacity="0.7"/>
<path d="M26.1202 676.97C26.2002 676.97 26.2602 672.32 26.2602 666.58C26.2602 660.84 26.2002 656.2 26.1202 656.2C26.0402 656.2 25.9702 660.85 25.9702 666.58C25.9702 672.31 26.0402 676.97 26.1202 676.97Z" fill="#444C61"/>
<path d="M21.0298 663.41C22.8224 663.558 24.6217 663.608 26.4198 663.56C28.2178 663.608 30.0172 663.558 31.8098 663.41C30.0168 663.268 28.2177 663.222 26.4198 663.27C24.6219 663.222 22.8227 663.268 21.0298 663.41Z" fill="#444C61"/>
<path d="M20.9702 670.84C22.7795 670.988 24.5955 671.038 26.4102 670.99C28.2216 671.038 30.0343 670.988 31.8402 670.84C30.0339 670.699 28.2214 670.652 26.4102 670.7C24.5957 670.652 22.7799 670.699 20.9702 670.84Z" fill="#444C61"/>
<path d="M21.0301 704.31H31.8101L31.8101 683.54H21.0301V704.31Z" fill="#151515" fill-opacity="0.7"/>
<path d="M26.1202 704.31C26.2002 704.31 26.2602 699.67 26.2602 693.93C26.2602 688.19 26.2002 683.55 26.1202 683.55C26.0402 683.55 25.9702 688.2 25.9702 693.93C25.9702 699.66 26.0402 704.31 26.1202 704.31Z" fill="#444C61"/>
<path d="M21.0298 690.76C22.8224 690.908 24.6217 690.958 26.4198 690.91C28.2178 690.958 30.0172 690.908 31.8098 690.76C30.0168 690.618 28.2177 690.572 26.4198 690.62C24.6219 690.572 22.8227 690.618 21.0298 690.76Z" fill="#444C61"/>
<path d="M20.9702 698.19C22.7799 698.331 24.5957 698.378 26.4102 698.33C28.2214 698.378 30.0339 698.332 31.8402 698.19C30.0339 698.049 28.2214 698.002 26.4102 698.05C24.5957 698.002 22.7799 698.049 20.9702 698.19Z" fill="#444C61"/>
<path d="M47.1399 730.77H57.9199V710H47.1399V730.77Z" fill="#151515" fill-opacity="0.7"/>
<path d="M52.2298 730.77C52.3098 730.77 52.3798 726.12 52.3798 720.39C52.3798 714.66 52.3098 710.01 52.2298 710.01C52.1498 710.01 52.0898 714.65 52.0898 720.39C52.0898 726.13 52.1498 730.77 52.2298 730.77Z" fill="#444C61"/>
<path d="M47.1499 717.22C48.9395 717.361 50.7354 717.408 52.5299 717.36C54.3278 717.408 56.127 717.361 57.9199 717.22C56.127 717.078 54.3278 717.032 52.5299 717.08C50.7354 717.032 48.9395 717.079 47.1499 717.22Z" fill="#444C61"/>
<path d="M47.0898 724.67C48.8962 724.812 50.7086 724.858 52.5198 724.81C54.331 724.858 56.1435 724.812 57.9498 724.67C56.1439 724.522 54.3312 724.472 52.5198 724.52C50.7085 724.472 48.8958 724.522 47.0898 724.67Z" fill="#444C61"/>
<path d="M21.0301 731.66H31.8101L31.8101 710.89H21.0301V731.66Z" fill="#151515" fill-opacity="0.7"/>
<path d="M26.1202 731.67C26.2002 731.67 26.2602 727.02 26.2602 721.29C26.2602 715.56 26.2002 710.91 26.1202 710.91C26.0402 710.91 25.9702 715.55 25.9702 721.29C25.9702 727.03 26.0402 731.67 26.1202 731.67Z" fill="#444C61"/>
<path d="M21.0298 718.11C22.8227 718.252 24.6219 718.298 26.4198 718.25C28.2177 718.298 30.0168 718.252 31.8098 718.11C30.0168 717.969 28.2177 717.922 26.4198 717.97C24.6219 717.922 22.8227 717.969 21.0298 718.11Z" fill="#444C61"/>
<path d="M20.9702 725.54C22.7799 725.681 24.5957 725.728 26.4102 725.68C28.2214 725.728 30.0339 725.681 31.8402 725.54C30.0343 725.392 28.2216 725.342 26.4102 725.39C24.5955 725.342 22.7795 725.392 20.9702 725.54Z" fill="#444C61"/>
<path d="M33.3702 733.43C33.3702 733.43 33.2002 733.43 32.9402 733.23L33.1002 733.09C33.968 734.269 34.6962 735.544 35.2702 736.89C36.0026 738.339 36.47 739.907 36.6502 741.52C36.5002 741.52 35.8702 739.52 34.7902 737.1C34.0202 735.35 33.2302 733.89 32.9202 733.21L32.6602 732.64L33.0802 733.06C33.2902 733.27 33.4002 733.4 33.3702 733.43Z" fill="#263238"/>
<path d="M40.3997 723.67C40.3492 724.578 40.2288 725.481 40.0397 726.37C39.7997 728.03 39.5197 730.32 39.3897 732.87C39.2597 735.42 39.3197 737.74 39.3897 739.41C39.4866 740.313 39.5134 741.223 39.4697 742.13C39.2194 741.253 39.0684 740.351 39.0197 739.44C38.5788 735.052 38.7945 730.624 39.6597 726.3C39.8004 725.397 40.0489 724.514 40.3997 723.67Z" fill="#263238"/>
<path d="M47.7298 732.95C47.8598 733.05 46.5398 734.64 45.6298 736.95C44.7198 739.26 44.5498 741.33 44.3898 741.32C44.2297 739.757 44.4886 738.18 45.1398 736.75C45.6471 735.274 46.5416 733.962 47.7298 732.95Z" fill="#263238"/>
<path d="M75.1099 733.42C76.4158 734.324 77.4526 735.564 78.1099 737.01C78.9133 738.372 79.3283 739.928 79.3099 741.51C79.1499 741.51 78.8099 739.51 77.6399 737.24C76.4699 734.97 74.9899 733.54 75.1099 733.42Z" fill="#263238"/>
<path d="M85.26 723.35C85.0677 724.208 84.8205 725.053 84.52 725.88C83.9105 727.904 83.4658 729.974 83.19 732.07C82.9287 734.166 82.835 736.279 82.91 738.39C82.9938 739.264 83.0238 740.142 83 741.02C82.7259 740.176 82.5743 739.297 82.55 738.41C82.1771 734.126 82.7296 729.812 84.17 725.76C84.4207 724.91 84.7874 724.099 85.26 723.35Z" fill="#263238"/>
<path d="M225.46 667.47H182.27V772.68H225.46V667.47Z" fill="white"/>
<path d="M461.25 663.71H419.32V772.68H461.25V663.71Z" fill="white"/>
<path d="M225.46 667.47C225.46 667.47 253.65 636.89 323 636.89C392.35 636.89 419.54 667.48 419.54 667.48H461.49L462.55 612.99H182.27V667.48L225.46 667.47Z" fill="white"/>
<path d="M-2 668C-2 668 22.2979 637.129 89.5708 637.129C156.844 637.129 183.258 668 183.258 668H225V613H-2" fill="white"/>
<path d="M461.32 667.47C461.32 667.47 493.5 636.89 562.61 636.89C631.72 636.89 659.22 667.48 659.22 667.48H701.77V612.98H418.2L419.49 667.47H461.32Z" fill="white"/>
<path d="M701.77 623.75C701.77 623.89 543.33 624.01 347.92 624.01C152.51 624.01 -5.9502 623.89 -5.9502 623.75C-5.9502 623.61 152.45 623.49 347.92 623.49C543.39 623.49 701.77 623.6 701.77 623.75Z" fill="#263238"/>
<path d="M461.25 692.89C461.238 692.68 461.238 692.47 461.25 692.26C461.25 691.82 461.25 691.26 461.25 690.54C461.25 689 461.19 686.87 461.15 684.21L461.32 684.38C455.04 684.44 445.63 684.47 435.13 684.47L435.39 684.21V686.42C435.39 687.16 435.39 687.9 435.39 688.62V692.89L435.14 692.63L453.81 692.75L459.3 692.82H460.8H461.33C461.174 692.835 461.016 692.835 460.86 692.82H459.42L453.98 692.89L435.14 693.01H434.88V684.11L435.14 683.85C445.64 683.85 455.05 683.85 461.33 683.94H461.51V684.11C461.51 686.81 461.44 688.98 461.42 690.54C461.42 691.24 461.42 691.8 461.42 692.23C461.391 692.456 461.333 692.678 461.25 692.89Z" fill="#263238"/>
<g opacity="0.2">
<path opacity="0.2" d="M451.23 692.85H425.03V701.53H451.23V692.85Z" fill="black"/>
</g>
<path d="M229 632.45C228.984 632.244 228.984 632.037 229 631.83C229 631.39 229 630.83 229 630.11C229 628.57 228.95 626.43 228.91 623.78L229.08 623.95C222.79 624 213.38 624.04 202.88 624.04L203.14 623.78V628.21C203.14 629.66 203.14 631.07 203.14 632.44L202.89 632.19L221.56 632.31L227.06 632.38H228.55H229.09C228.93 632.394 228.769 632.394 228.61 632.38H227.17L221.73 632.45L202.89 632.57H202.64V632.31C202.64 630.94 202.64 629.53 202.64 628.08V623.79L202.9 623.53C213.4 623.53 222.81 623.53 229.1 623.62H229.27V623.79C229.27 626.49 229.2 628.66 229.17 630.22C229.17 630.91 229.17 631.47 229.17 631.91C229.127 632.094 229.07 632.275 229 632.45Z" fill="#263238"/>
<g opacity="0.2">
<path opacity="0.2" d="M218.95 632.45H192.75V641.13H218.95V632.45Z" fill="black"/>
</g>
<path d="M482.6 636.11C482.6 636.11 482.6 635.88 482.6 635.49C482.6 635.1 482.6 634.49 482.6 633.76C482.6 632.23 482.6 630.09 482.51 627.43L482.68 627.6C476.4 627.66 466.98 627.69 456.48 627.69L456.74 627.43V631.89C456.74 633.34 456.74 634.76 456.74 636.13L456.49 635.88L475.16 635.99L480.66 636.07H482.15H482.69C482.53 636.085 482.369 636.085 482.21 636.07H480.78L475.34 636.14L456.49 636.26H456.24V636.01C456.24 634.64 456.24 633.22 456.24 631.77V627.35C456.76 626.83 456.39 627.21 456.5 627.09C467 627.09 476.42 627.09 482.7 627.18H482.87V627.35C482.87 630.05 482.8 632.22 482.78 633.78C482.78 634.48 482.78 635.04 482.78 635.47C482.736 635.688 482.676 635.902 482.6 636.11Z" fill="#263238"/>
<path d="M225.82 721.95C225.808 721.744 225.808 721.537 225.82 721.33C225.82 720.89 225.82 720.33 225.82 719.61C225.82 718.07 225.76 715.93 225.72 713.28L225.89 713.45C219.61 713.5 210.19 713.54 199.7 713.54L199.96 713.28V715.51C199.96 716.25 199.96 716.98 199.96 717.71V721.94L199.71 721.69L218.38 721.81L223.87 721.88H225.37H225.9C225.743 721.892 225.586 721.892 225.43 721.88H223.99L218.55 721.95L199.71 722.07H199.45V713.29C199.97 712.77 199.6 713.14 199.72 713.03C210.21 713.03 219.63 713.03 225.91 713.12H226V713.29C226 715.99 225.93 718.16 225.91 719.72C225.91 720.41 225.91 720.97 225.91 721.41C225.898 721.593 225.868 721.774 225.82 721.95Z" fill="#263238"/>
<path d="M200.6 687.2C200.584 686.987 200.584 686.773 200.6 686.56C200.6 686.1 200.6 685.56 200.55 684.82C200.55 683.26 200.49 681.13 200.45 678.53L200.64 678.72L182.49 678.79L182.75 678.53V682.99C182.75 684.44 182.75 685.85 182.75 687.19L182.5 686.95C187.74 686.95 192.24 687.02 195.5 687.07L199.29 687.13C199.757 687.126 200.225 687.146 200.69 687.19C200.262 687.239 199.831 687.262 199.4 687.26L195.67 687.32C192.46 687.37 187.88 687.42 182.54 687.44H182.29V687.19C182.29 685.85 182.29 684.44 182.29 682.99V678.53L182.55 678.27L200.7 678.34H200.9V678.53C200.9 681.17 200.82 683.34 200.8 684.93C200.8 685.62 200.8 686.19 200.75 686.64C200.721 686.832 200.67 687.019 200.6 687.2Z" fill="#263238"/>
<path d="M413.06 632.72C413.06 632.72 413.06 632.49 413.06 632.08C413.06 631.67 413.06 631.08 413.06 630.33C413.06 628.77 412.99 626.64 412.95 624.05L413.14 624.24L394.99 624.31L395.25 624.05V628.51C395.25 629.96 395.25 631.37 395.25 632.71L395 632.47C400.24 632.47 404.74 632.54 408 632.58L411.79 632.65C412.257 632.646 412.725 632.666 413.19 632.71C412.762 632.757 412.331 632.777 411.9 632.77L408 632.89C404.79 632.94 400.22 632.99 394.87 633.01H394.63V632.76C394.63 631.42 394.63 630.01 394.63 628.56C394.63 627.84 394.63 627.1 394.63 626.35V624.1L394.89 623.84L413.04 623.9H413.24V624.09C413.19 626.73 413.16 628.9 413.13 630.49C413.13 631.18 413.13 631.75 413.13 632.2C413.129 632.375 413.106 632.55 413.06 632.72Z" fill="#263238"/>
<path d="M29.4296 632.6C29.4072 632.394 29.4072 632.186 29.4296 631.98C29.4296 631.53 29.4296 630.98 29.4296 630.24C29.4296 628.69 29.3796 626.56 29.3396 623.93L29.5196 624.11L6.23963 624.19C5.99963 624.42 6.54963 623.87 6.49963 623.93V632.59L6.24963 632.34L22.8496 632.46L27.7196 632.53H29.0496H29.5296C29.3902 632.548 29.249 632.548 29.1096 632.53H27.8396L23.0196 632.6L6.14963 632.89H5.89963V623.97C5.83963 623.97 6.38963 623.47 6.15963 623.71L29.4396 623.79H29.6196V623.89C29.6196 626.56 29.5496 628.74 29.5296 630.31C29.5296 631 29.5296 631.56 29.5296 632C29.5137 632.202 29.4803 632.403 29.4296 632.6Z" fill="#263238"/>
<path d="M312.49 422.61C312.49 422.61 311.73 422.35 310.31 422.03C308.302 421.595 306.234 421.517 304.2 421.8C301.184 422.2 298.339 423.429 295.98 425.35C293.089 427.701 291.052 430.937 290.18 434.56V434.66L290.01 435.32L289.76 434.7C288.335 431.256 285.893 428.328 282.76 426.31C280.219 424.654 277.296 423.679 274.27 423.48C272.233 423.334 270.187 423.52 268.21 424.03C266.81 424.4 266.07 424.73 266.05 424.69C266.215 424.582 266.393 424.494 266.58 424.43C267.094 424.21 267.622 424.023 268.16 423.87C270.642 423.142 273.251 422.956 275.811 423.323C278.371 423.691 280.823 424.603 283 426C286.198 428.061 288.69 431.052 290.14 434.57H289.72V434.46C290.621 430.739 292.732 427.423 295.72 425.03C297.752 423.416 300.129 422.291 302.666 421.743C305.203 421.195 307.832 421.238 310.35 421.87C310.898 422.002 311.436 422.172 311.96 422.38C312.143 422.442 312.32 422.519 312.49 422.61Z" fill="#263238"/>
<path d="M373.51 389.13C373.51 389.13 373.08 389.01 372.3 388.85C371.201 388.624 370.071 388.59 368.96 388.75C367.314 388.99 365.766 389.683 364.49 390.75C362.921 392.028 361.811 393.784 361.33 395.75L361.16 396.41L360.91 395.79C360.14 393.917 358.823 392.321 357.13 391.21C355.745 390.303 354.151 389.766 352.5 389.65C351.386 389.561 350.265 389.653 349.18 389.92C348.41 390.11 348 390.28 347.99 390.24C347.98 390.2 348.08 390.17 348.27 390.08C348.552 389.949 348.843 389.839 349.14 389.75C350.509 389.339 351.95 389.226 353.366 389.419C354.783 389.613 356.141 390.107 357.35 390.87C359.139 392.005 360.535 393.664 361.35 395.62H360.93V395.57C361.426 393.501 362.598 391.657 364.26 390.33C365.601 389.231 367.228 388.537 368.95 388.33C370.095 388.197 371.255 388.279 372.37 388.57C372.669 388.652 372.963 388.752 373.25 388.87C373.42 389.07 373.52 389.12 373.51 389.13Z" fill="#263238"/>
<path d="M333.62 375.43C333.62 375.43 333.2 375.91 332.44 376.76C331.382 377.969 330.426 379.264 329.58 380.63C326.779 385.13 325.305 390.329 325.33 395.63V395.82H324.88C324.451 392.962 323.52 390.203 322.13 387.67C321.007 385.595 319.596 383.689 317.94 382.01C316.825 380.896 315.61 379.889 314.31 379C313.39 378.36 312.85 378 312.87 378C313.013 378.051 313.151 378.119 313.28 378.2C313.54 378.35 313.94 378.54 314.41 378.86C315.764 379.726 317.025 380.731 318.17 381.86C319.874 383.537 321.329 385.45 322.49 387.54C323.918 390.109 324.877 392.913 325.32 395.82H324.88V395.63C324.844 390.232 326.387 384.942 329.32 380.41C330.195 379.043 331.2 377.764 332.32 376.59C332.7 376.17 333.05 375.88 333.26 375.67C333.369 375.575 333.49 375.494 333.62 375.43Z" fill="#263238"/>
<path d="M289.16 739.2C289.187 740.162 289.143 741.125 289.03 742.08C288.91 743.86 288.79 746.31 288.81 749.02C288.83 751.73 288.98 754.18 289.12 755.95C289.256 756.904 289.316 757.867 289.3 758.83C289.011 757.907 288.83 756.954 288.76 755.99C288.459 753.669 288.302 751.331 288.29 748.99C288.271 746.651 288.394 744.314 288.66 741.99C288.73 741.045 288.898 740.111 289.16 739.2Z" fill="#263238"/>
<path d="M333.8 740.6C333.75 741.508 333.63 742.411 333.44 743.3C333.2 744.96 332.92 747.3 332.79 749.81C332.66 752.32 332.72 754.67 332.79 756.35C332.88 757.254 332.91 758.162 332.88 759.07C332.618 758.195 332.464 757.292 332.42 756.38C331.978 751.993 332.194 747.564 333.06 743.24C333.204 742.334 333.452 741.449 333.8 740.6Z" fill="#263238"/>
<path opacity="0.5" d="M725.3 202.028C721.85 192.438 712.1 187.918 702.35 190.878C701.376 188.301 699.803 185.992 697.76 184.142C695.718 182.293 693.265 180.956 690.603 180.242C687.942 179.528 685.149 179.457 682.455 180.035C679.761 180.613 677.244 181.824 675.11 183.568C672.76 175.478 663.29 170.898 654.98 172.228C646.67 173.558 639.74 179.638 635.29 186.778C632.631 185.831 629.803 185.45 626.987 185.658C624.172 185.866 621.431 186.66 618.94 187.988C613.99 190.678 610.28 196.548 609 201.988L725.3 202.028Z" fill="#8BA1BE" fill-opacity="0.2"/>
<path opacity="0.1" d="M180 440.92C183.79 430.41 194.46 425.46 205.15 428.7C206.213 425.875 207.934 423.344 210.171 421.316C212.408 419.288 215.095 417.823 218.011 417.041C220.927 416.259 223.987 416.183 226.938 416.819C229.889 417.456 232.646 418.786 234.98 420.7C237.56 411.84 247.92 406.81 256.98 408.27C266.04 409.73 273.67 416.39 278.55 424.27C281.462 423.229 284.56 422.809 287.645 423.037C290.729 423.264 293.732 424.134 296.46 425.59C301.88 428.53 305.95 434.96 307.34 440.97L180 440.92Z" fill="#8BA1BE" fill-opacity="0.2"/>
<path d="M90.02 568.82H79.54V610.6H90.02V568.82Z" fill="white"/>
<g opacity="0.2">
<path opacity="0.2" d="M90.02 568.82H79.54V610.6H90.02V568.82Z" fill="black"/>
</g>
<path d="M78.97 613.07L-68.04 612.79V568.82L-65.74 564.26L76.4799 563.63L78.97 567.36V613.07Z" fill="#343A4A"/>
<path d="M79.09 569.54H-68.04V600.92H79.09V569.54Z" fill="white"/>
<path d="M2.66003 612.69H-24.96V577.07C-24.9573 576.573 -24.7581 576.098 -24.4058 575.747C-24.0535 575.397 -23.5769 575.2 -23.08 575.2H0.780029C1.27691 575.2 1.75358 575.397 2.10587 575.747C2.45815 576.098 2.65739 576.573 2.66003 577.07V612.69Z" fill="white"/>
<path d="M2.66009 612.69C2.64643 612.574 2.64643 612.456 2.66009 612.34C2.66009 612.09 2.66009 611.76 2.66009 611.34C2.66009 610.44 2.66009 609.18 2.66009 607.56C2.66009 604.27 2.60009 599.56 2.57009 593.78C2.57009 590.88 2.57007 587.7 2.52007 584.3C2.52007 582.59 2.52007 580.83 2.52007 579.02V577.65C2.56373 577.22 2.50901 576.786 2.36007 576.38C2.18283 576.003 1.87323 575.704 1.49007 575.54C1.29474 575.468 1.08829 575.431 0.880089 575.43H-21.6299C-22.1599 575.43 -22.7499 575.43 -23.2499 575.43C-23.487 575.457 -23.7152 575.536 -23.9176 575.662C-24.1201 575.789 -24.2917 575.959 -24.4199 576.16C-24.6196 576.483 -24.7107 576.861 -24.6799 577.24V586C-24.6799 589.27 -24.6799 592.46 -24.6799 595.54C-24.6799 601.71 -24.6799 607.46 -24.6799 612.65L-24.8899 612.44L-4.88993 612.55L0.710075 612.6H2.19009C2.36646 612.586 2.54371 612.586 2.72009 612.6C2.56046 612.615 2.3997 612.615 2.24007 612.6H0.800072H-4.75993L-24.8999 612.71H-25.1099V612.5C-25.1099 607.31 -25.1099 601.56 -25.1099 595.39C-25.1099 592.31 -25.1099 589.12 -25.1099 585.85V577.09C-25.1409 576.612 -25.022 576.137 -24.7699 575.73C-24.6025 575.458 -24.3764 575.227 -24.1082 575.054C-23.84 574.881 -23.5365 574.771 -23.2199 574.73C-22.6099 574.73 -22.0999 574.73 -21.5399 574.73H-11.8899H0.180077H0.900078C1.17154 574.729 1.44034 574.784 1.69009 574.89C2.18447 575.093 2.58426 575.475 2.81008 575.96C2.98205 576.43 3.04697 576.932 3.00008 577.43V578.82C3.00008 580.65 3.00008 582.42 3.00008 584.14C3.00008 587.57 3.00008 590.77 3.00008 593.69C3.00008 599.48 2.93009 604.18 2.91009 607.47C2.91009 609.06 2.91007 610.31 2.86007 611.19C2.86007 611.59 2.86007 611.9 2.86007 612.19C2.86007 612.48 2.66009 612.7 2.66009 612.69Z" fill="#263238"/>
<path d="M0.29007 576.2H-9.06995C-9.68851 576.2 -10.1899 576.702 -10.1899 577.32V598.09C-10.1899 598.709 -9.68851 599.21 -9.06995 599.21H0.29007C0.908628 599.21 1.41006 598.709 1.41006 598.09V577.32C1.41006 576.702 0.908628 576.2 0.29007 576.2Z" fill="#8BA1BE" fill-opacity="0.2"/>
<path d="M1.41006 595.51H-10.1899V599.21H1.41006V595.51Z" fill="#263238"/>
<path d="M-68.04 569.56V574.12H79.09V569.78L-68.04 569.56Z" fill="#E6007A"/>
<path d="M79.09 605.79C79.09 605.93 46.15 606.05 5.52997 606.05C-35.09 606.05 -68.04 605.93 -68.04 605.79C-68.04 605.65 -35.11 605.53 5.52997 605.53C46.17 605.53 79.09 605.64 79.09 605.79Z" fill="#263238"/>
<path d="M78.97 613.09L-68.03 612.79V608.45H78.97V613.09Z" fill="#E6007A"/>
<g opacity="0.6">
<g opacity="0.5">
<path opacity="0.5" d="M-7.68994 576.2L-10.1899 580.07V592.82L0.330048 576.2H-7.68994Z" fill="#151515" fill-opacity="0.7"/>
</g>
</g>
<path d="M36.1797 576.2H7.33975C6.32907 576.2 5.50977 577.02 5.50977 578.03V597.38C5.50977 598.391 6.32907 599.21 7.33975 599.21H36.1797C37.1904 599.21 38.0098 598.391 38.0098 597.38V578.03C38.0098 577.02 37.1904 576.2 36.1797 576.2Z" fill="#8BA1BE" fill-opacity="0.2"/>
<path d="M36.18 599.22C36.5376 599.176 36.8799 599.049 37.18 598.85C37.5234 598.611 37.7685 598.256 37.87 597.85C37.9169 597.254 37.9169 596.656 37.87 596.06C37.87 593.29 37.87 589.35 37.79 584.5C37.79 583.28 37.79 582 37.79 580.67C37.79 580 37.79 579.32 37.79 578.67C37.8139 578.336 37.7937 577.999 37.73 577.67C37.6493 577.362 37.4772 577.085 37.2363 576.876C36.9953 576.667 36.6968 576.536 36.38 576.5C36.07 576.5 35.66 576.5 35.3 576.5H28.3H7.30002C6.89856 576.504 6.51357 576.66 6.22236 576.937C5.93114 577.213 5.75524 577.589 5.73002 577.99V580.72C5.73002 582.53 5.73002 584.32 5.73002 586.07C5.73002 589.58 5.73002 592.97 5.73002 596.2C5.73002 596.6 5.73002 597 5.73002 597.4C5.72057 597.758 5.82956 598.11 6.04004 598.4C6.24591 598.677 6.53233 598.883 6.86002 598.99C7.21538 599.061 7.57853 599.084 7.94004 599.06H12.37H20.37L31.93 599.15H35.07H35.89H36.17C36.0773 599.165 35.9828 599.165 35.89 599.15H35.07L31.93 599.2L20.37 599.28H12.37H7.92002H7.37003C7.15362 599.279 6.93834 599.249 6.73002 599.19C6.30632 599.058 5.93525 598.796 5.67002 598.44C5.40905 598.076 5.26914 597.638 5.27002 597.19V595.99C5.27002 592.76 5.27002 589.37 5.27002 585.86V577.89C5.29565 577.352 5.52681 576.845 5.91575 576.473C6.30468 576.101 6.8217 575.892 7.36002 575.89H28.36H35.36C35.75 575.89 36.07 575.89 36.49 575.89C36.8891 575.945 37.2635 576.115 37.5673 576.38C37.871 576.645 38.0909 576.992 38.2 577.38C38.271 577.742 38.2945 578.112 38.27 578.48C38.27 579.17 38.27 579.85 38.27 580.48C38.27 581.81 38.27 583.09 38.27 584.31C38.27 589.16 38.2 593.1 38.18 595.87C38.2015 596.481 38.1748 597.093 38.1 597.7C37.9811 598.146 37.7038 598.534 37.32 598.79C37.0847 598.942 36.818 599.037 36.54 599.07C36.4311 599.143 36.3087 599.194 36.18 599.22Z" fill="#263238"/>
<path d="M5.50977 595.51H38.0098V598.38C38.0098 598.6 37.9223 598.811 37.7667 598.967C37.611 599.122 37.3999 599.21 37.1797 599.21H6.36975C6.14962 599.21 5.93852 599.122 5.78287 598.967C5.62721 598.811 5.53976 598.6 5.53976 598.38V595.51H5.50977Z" fill="#263238"/>
<g opacity="0.6">
<path opacity="0.6" d="M24.74 576.2L9.79004 599.22H18.18L32.76 576.2H24.74Z" fill="#151515" fill-opacity="0.7"/>
</g>
<path d="M71.6502 576.2H42.2502C41.3942 576.2 40.7002 576.894 40.7002 577.75V597.66C40.7002 598.516 41.3942 599.21 42.2502 599.21H71.6502C72.5062 599.21 73.2002 598.516 73.2002 597.66V577.75C73.2002 576.894 72.5062 576.2 71.6502 576.2Z" fill="#8BA1BE" fill-opacity="0.2"/>
<path d="M71.6498 599.22C72.0167 599.18 72.3641 599.034 72.6498 598.8C72.8092 598.659 72.9362 598.485 73.0225 598.29C73.1087 598.095 73.1522 597.883 73.1498 597.67C73.1498 597.13 73.1498 596.52 73.1498 595.84C73.1498 593.06 73.0998 589.11 73.0598 584.23C73.0598 583.01 73.0598 581.72 73.0598 580.39C73.0598 579.72 73.0598 579.03 73.0598 578.34C73.0844 578.006 73.0642 577.669 72.9998 577.34C72.9007 577.046 72.7074 576.793 72.4498 576.62C72.1715 576.449 71.8454 576.372 71.5198 576.4H63.3698H42.2798C42.0875 576.404 41.8984 576.45 41.7256 576.535C41.5529 576.619 41.4007 576.741 41.2798 576.89C41.163 577.045 41.078 577.222 41.0298 577.41C41.0132 577.623 41.0132 577.837 41.0298 578.05V586.18C41.0298 589.7 41.0298 593.11 41.0298 596.35V597.56C41.0171 597.903 41.1392 598.237 41.3698 598.49C41.5921 598.742 41.9046 598.897 42.2398 598.92H47.8498H55.8498L67.4598 599.01H70.6198H71.4398H71.7198C71.6271 599.025 71.5326 599.025 71.4398 599.01H70.6198L67.4598 599.06L55.8498 599.14H47.8498H43.3798H42.2098C41.7558 599.106 41.3312 598.902 41.0198 598.57C40.7121 598.227 40.5444 597.781 40.5498 597.32V596.11C40.5498 592.87 40.5498 589.46 40.5498 585.94C40.5498 584.17 40.5498 582.38 40.5498 580.56V577.81C40.5385 577.559 40.5553 577.308 40.5998 577.06C40.6594 576.795 40.7754 576.546 40.9398 576.33C41.1105 576.117 41.3265 575.945 41.5721 575.825C41.8177 575.706 42.0868 575.643 42.3598 575.64H63.4498H71.5598C71.9681 575.619 72.3729 575.724 72.7198 575.94C73.0725 576.176 73.3282 576.531 73.4398 576.94C73.5137 577.305 73.5406 577.678 73.5198 578.05C73.5198 578.74 73.5198 579.43 73.5198 580.1C73.5198 581.43 73.5198 582.72 73.5198 583.94C73.5198 588.82 73.4598 592.77 73.4398 595.55C73.4398 596.23 73.4398 596.84 73.4398 597.38C73.434 597.612 73.3783 597.841 73.2765 598.049C73.1747 598.258 73.0292 598.443 72.8498 598.59C72.7271 598.796 72.5501 598.963 72.3384 599.074C72.1267 599.185 71.8884 599.236 71.6498 599.22Z" fill="#263238"/>
<path d="M40.7002 595.51H73.2002V598.66C73.2002 598.732 73.186 598.804 73.1584 598.87C73.1307 598.937 73.0902 598.998 73.0391 599.049C72.9881 599.1 72.9274 599.14 72.8607 599.168C72.794 599.196 72.7224 599.21 72.6502 599.21H41.2602C41.1144 599.21 40.9745 599.152 40.8713 599.049C40.7682 598.946 40.7102 598.806 40.7102 598.66V595.51H40.7002Z" fill="#263238"/>
<g opacity="0.6">
<path opacity="0.6" d="M59.9402 576.2L44.9902 599.22H53.3702L67.9602 576.2H59.9402Z" fill="#151515" fill-opacity="0.7"/>
</g>
<path d="M228.99 613.09H239.47V571.31H228.99V613.09Z" fill="white"/>
<g opacity="0.2">
<path opacity="0.2" d="M228.99 613.09H239.47V571.31H228.99V613.09Z" fill="black"/>
</g>
<path d="M367.95 612.8C370.05 612.807 372.069 611.988 373.57 610.52C374.93 609.2 376.28 607.62 376.12 606.72C374.986 602.4 373.539 598.169 371.79 594.06C369.87 589.58 359.47 570.81 355.79 567.96C354.221 566.885 352.479 566.086 350.64 565.6C347.604 564.707 344.454 564.262 341.29 564.28H236.94C236.162 565.71 235.52 567.21 235.02 568.76C234.86 569.88 234.95 608.16 234.95 608.16V612.8H367.95Z" fill="#343A4A"/>
<path d="M351.67 572.75L365.37 596.38C365.634 596.851 365.768 597.383 365.759 597.923C365.75 598.462 365.598 598.99 365.318 599.451C365.039 599.913 364.642 600.292 364.168 600.55C363.694 600.808 363.16 600.936 362.62 600.92H234.95V569.79L346.01 569.55C347.151 569.543 348.273 569.835 349.266 570.397C350.259 570.958 351.088 571.769 351.67 572.75Z" fill="white"/>
<path d="M313.21 612.7H340.82V577.7C340.82 577.028 340.554 576.384 340.08 575.908C339.605 575.432 338.962 575.163 338.29 575.16H315.74C315.068 575.163 314.424 575.432 313.95 575.908C313.476 576.384 313.21 577.028 313.21 577.7V612.7Z" fill="white"/>
<path d="M313.21 612.7C313.194 612.597 313.194 612.493 313.21 612.39C313.21 612.14 313.21 611.83 313.21 611.39C313.21 610.51 313.21 609.27 313.21 607.69C313.21 604.42 313.15 599.74 313.12 593.97C313.12 591.06 313.12 587.88 313.12 584.46C313.12 582.75 313.12 580.98 313.12 579.16V577.78C313.106 577.395 313.172 577.012 313.314 576.654C313.456 576.296 313.672 575.973 313.947 575.703C314.222 575.434 314.55 575.225 314.911 575.09C315.271 574.955 315.656 574.897 316.04 574.92H338.37C338.674 574.923 338.974 574.978 339.26 575.08C339.837 575.29 340.328 575.684 340.66 576.2C340.915 576.591 341.063 577.043 341.09 577.51C341.09 577.97 341.09 578.36 341.09 578.79V586.22C341.09 589.46 341.09 592.62 341.09 595.68C341.09 601.8 341.09 607.51 341.09 612.68V612.89H340.87L320.73 612.78L315.18 612.72H313.74C313.58 612.73 313.42 612.73 313.26 612.72H313.78H315.27L320.87 612.66L340.87 612.55L340.66 612.77C340.66 607.61 340.66 601.9 340.66 595.77C340.66 592.71 340.66 589.55 340.66 586.31C340.66 584.68 340.66 583.04 340.66 581.38V578.88C340.66 578.47 340.66 578.02 340.66 577.64C340.636 577.259 340.515 576.891 340.31 576.57C340.037 576.152 339.638 575.833 339.17 575.66C338.672 575.524 338.154 575.477 337.64 575.52H328.03H316.03C315.709 575.5 315.387 575.548 315.085 575.659C314.783 575.771 314.507 575.944 314.276 576.168C314.045 576.392 313.862 576.662 313.741 576.96C313.619 577.258 313.561 577.578 313.57 577.9V579.27C313.57 581.07 313.57 582.82 313.57 584.52C313.57 587.91 313.57 591.07 313.57 593.96C313.57 599.73 313.5 604.41 313.48 607.68C313.48 609.29 313.48 610.55 313.48 611.44C313.48 611.85 313.48 612.18 313.48 612.44C313.48 612.7 313.21 612.69 313.21 612.7Z" fill="#263238"/>
<path d="M329.33 599.23H338.59C339.236 599.23 339.76 598.706 339.76 598.06V577.39C339.76 576.744 339.236 576.22 338.59 576.22H329.33C328.684 576.22 328.16 576.744 328.16 577.39V598.06C328.16 598.706 328.684 599.23 329.33 599.23Z" fill="#8BA1BE" fill-opacity="0.2"/>
<path d="M315.86 599.23H324.66C325.433 599.23 326.06 598.603 326.06 597.83V577.62C326.06 576.847 325.433 576.22 324.66 576.22H315.86C315.087 576.22 314.46 576.847 314.46 577.62V597.83C314.46 598.603 315.087 599.23 315.86 599.23Z" fill="#8BA1BE" fill-opacity="0.2"/>
<path d="M327.02 612.65C326.87 612.65 326.75 604.28 326.75 593.95C326.75 583.62 326.87 575.25 327.02 575.25C327.17 575.25 327.28 583.62 327.28 593.95C327.28 604.28 327.16 612.65 327.02 612.65Z" fill="#263238"/>
<path d="M328.16 599.23H339.76V595.53H328.16V599.23Z" fill="#263238"/>
<path d="M314.45 599.23H326.05V595.53H314.45V599.23Z" fill="#263238"/>
<path d="M352.46 574.13H234.95V569.79L345.84 569.56C347.718 569.603 349.508 570.366 350.84 571.69L352.46 574.13Z" fill="#E6007A"/>
<path d="M358.58 571.1C358.58 571.1 357.58 571.65 358.22 573.01C358.76 574.16 364.91 582.94 367.84 588.92C370.77 594.9 372.43 599.22 372.43 599.22H373.79C373.79 599.22 372.01 594.57 370.97 592.3C369.8 589.77 366.37 583.47 363.14 578.09L358.58 571.1Z" fill="#252D43"/>
<path d="M234.95 605.8C234.95 605.65 265.84 605.54 303.95 605.54C342.06 605.54 372.95 605.65 372.95 605.8C372.95 605.95 342.06 606.06 303.95 606.06C265.84 606.06 234.95 605.94 234.95 605.8Z" fill="#263238"/>
<path d="M234.95 612.8L367.95 613.09C369.504 612.887 370.994 612.339 372.309 611.486C373.624 610.633 374.731 609.497 375.55 608.16H234.95V612.8Z" fill="#E6007A"/>
<path d="M343.37 564.34C343.583 564.335 343.795 564.362 344 564.42C344.595 564.539 345.183 564.693 345.76 564.88C347.898 565.53 349.922 566.508 351.76 567.78C352.377 568.198 352.959 568.667 353.5 569.18C354.062 569.759 354.586 570.374 355.07 571.02C356.07 572.34 357.07 573.8 358.07 575.36C360.07 578.49 362.22 581.98 364.37 585.71C366.52 589.44 368.19 593.19 369.69 596.6C371.09 599.599 372.204 602.723 373.02 605.93C373.087 606.261 373.137 606.594 373.17 606.93C373.19 607.106 373.19 607.284 373.17 607.46C373.171 607.631 373.141 607.8 373.08 607.96C372.847 608.538 372.508 609.067 372.08 609.52C371.423 610.227 370.7 610.87 369.92 611.44C369.29 611.91 368.78 612.24 368.42 612.44C368.252 612.565 368.066 612.666 367.87 612.74C368.026 612.597 368.193 612.466 368.37 612.35C368.7 612.11 369.19 611.75 369.8 611.26C370.544 610.655 371.233 609.986 371.86 609.26C372.246 608.833 372.548 608.338 372.75 607.8C372.795 607.658 372.816 607.509 372.81 607.36C372.83 607.207 372.83 607.053 372.81 606.9C372.75 606.57 372.74 606.24 372.65 605.9C371.819 602.775 370.722 599.727 369.37 596.79C367.85 593.41 366.09 589.72 364.03 585.96C361.97 582.2 359.79 578.75 357.79 575.62C356.79 574.06 355.79 572.62 354.79 571.28C354.325 570.643 353.818 570.038 353.27 569.47C352.753 568.965 352.198 568.5 351.61 568.08C349.808 566.803 347.831 565.793 345.74 565.08C345 564.82 344.41 564.65 344.02 564.54C343.799 564.49 343.581 564.423 343.37 564.34Z" fill="#263238"/>
<path d="M373.79 599.22C373.79 599.22 373.68 599.27 373.45 599.22C373.115 599.184 372.796 599.063 372.52 598.87C372.321 598.728 372.148 598.552 372.01 598.35C371.864 598.109 371.734 597.858 371.62 597.6L370.75 595.77C370.1 594.39 369.36 592.77 368.54 591.02C367.674 589.064 366.699 587.158 365.62 585.31C363.33 581.37 361.07 577.91 359.49 575.38C359.09 574.74 358.74 574.17 358.49 573.65C358.18 573.216 358 572.703 357.97 572.17C357.962 571.999 357.992 571.829 358.055 571.67C358.119 571.512 358.216 571.368 358.34 571.25C358.5 571.09 358.62 571.05 358.63 571.07C358.64 571.09 358.54 571.15 358.42 571.32C358.234 571.563 358.145 571.866 358.17 572.17C358.236 572.657 358.433 573.116 358.74 573.5C359.067 574.014 359.437 574.574 359.85 575.18C361.51 577.66 363.85 581.09 366.12 585.05C367.205 586.908 368.174 588.832 369.02 590.81L371.14 595.63L371.93 597.48C372.065 597.955 372.332 598.381 372.7 598.71C373.017 598.965 373.391 599.14 373.79 599.22Z" fill="#263238"/>
<path d="M351.67 572.75C351.253 572.116 350.744 571.546 350.16 571.06C349.437 570.488 348.602 570.073 347.71 569.84C346.46 569.617 345.186 569.553 343.92 569.65L319.28 569.77L234.95 570.04L235.2 569.79C235.2 579.79 235.2 590.22 235.2 600.92L234.94 600.66H241.14L350.9 600.74H360.9C361.671 600.771 362.442 600.751 363.21 600.68C363.92 600.541 364.556 600.151 365 599.58C365.441 599.011 365.651 598.297 365.59 597.58C365.488 596.901 365.224 596.256 364.82 595.7C362.04 590.86 359.64 586.7 357.68 583.3L353.18 575.45C352.68 574.56 352.29 573.88 352.03 573.4C351.77 572.92 351.65 572.69 351.65 572.69C351.65 572.69 351.8 572.92 352.07 573.37L353.27 575.37C354.33 577.16 355.87 579.79 357.85 583.16C359.83 586.53 362.26 590.71 365.07 595.52C365.502 596.11 365.783 596.797 365.89 597.52C365.95 598.297 365.722 599.07 365.25 599.69C364.755 600.327 364.043 600.761 363.25 600.91C362.463 600.992 361.671 601.018 360.88 600.99H350.88L241.12 601.07H234.66V600.89C234.66 590.19 234.66 579.76 234.66 569.76V569.51H234.91L319.24 569.42H343.88C345.159 569.339 346.442 569.42 347.7 569.66C348.608 569.907 349.453 570.344 350.18 570.94C350.62 571.309 351.007 571.736 351.33 572.21C351.455 572.382 351.569 572.563 351.67 572.75Z" fill="#263238"/>
<g opacity="0.3">
<path opacity="0.3" d="M348.37 574.13V591.77L340.85 595.35V600.89H362.64C363.414 600.907 364.166 600.635 364.749 600.126C365.331 599.617 365.703 598.909 365.79 598.14C365.834 597.638 365.74 597.133 365.52 596.68L352.52 574.1L348.37 574.13Z" fill="black"/>
</g>
<g opacity="0.6">
<g opacity="0.5">
<path opacity="0.5" d="M338.5 599.23H330.12L328.17 596.15V583.32L338.5 599.23Z" fill="#151515" fill-opacity="0.7"/>
</g>
<g opacity="0.5">
<path opacity="0.5" d="M323.55 576.21L326.06 580.07V592.83L315.53 576.21H323.55Z" fill="#151515" fill-opacity="0.7"/>
</g>
</g>
<path d="M308.41 576.21H279.81C278.733 576.21 277.86 577.083 277.86 578.16V597.27C277.86 598.347 278.733 599.22 279.81 599.22H308.41C309.487 599.22 310.36 598.347 310.36 597.27V578.16C310.36 577.083 309.487 576.21 308.41 576.21Z" fill="#8BA1BE" fill-opacity="0.2"/>
<path d="M279.81 599.22C279.718 599.237 279.623 599.237 279.53 599.22C279.251 599.194 278.981 599.105 278.74 598.96C278.352 598.732 278.053 598.38 277.89 597.96C277.767 597.359 277.723 596.743 277.76 596.13C277.76 593.37 277.76 589.44 277.68 584.6C277.68 583.38 277.68 582.1 277.68 580.77C277.68 580.11 277.68 579.43 277.68 578.77C277.66 578.405 277.684 578.039 277.75 577.68C277.846 577.299 278.047 576.953 278.33 576.68C278.621 576.397 278.984 576.2 279.38 576.11C279.758 576.06 280.139 576.043 280.52 576.06H287.52H308.52C309.048 576.061 309.558 576.252 309.958 576.597C310.358 576.941 310.621 577.418 310.7 577.94C310.7 578.94 310.7 579.79 310.7 580.71C310.7 582.52 310.7 584.31 310.7 586.06C310.7 589.56 310.7 592.94 310.7 596.17C310.7 596.57 310.7 596.97 310.7 597.37C310.706 597.816 310.573 598.253 310.32 598.62C310.073 598.98 309.725 599.258 309.32 599.42C308.928 599.553 308.512 599.601 308.1 599.56H303.66H295.66L284.12 599.48L280.98 599.43H280.17C280.077 599.443 279.983 599.443 279.89 599.43H280.17H280.98H284.12L295.66 599.35H303.66H308.1C308.439 599.375 308.779 599.331 309.1 599.22C309.425 599.097 309.704 598.877 309.9 598.59C310.094 598.293 310.195 597.945 310.19 597.59V596.39C310.19 593.16 310.19 589.78 310.19 586.28V580.93C310.19 580.05 310.19 579.08 310.19 578.24C310.126 577.842 309.924 577.479 309.618 577.215C309.313 576.951 308.924 576.805 308.52 576.8H287.52H280.52C280.187 576.776 279.853 576.776 279.52 576.8C279.204 576.869 278.912 577.024 278.68 577.25C278.457 577.471 278.295 577.747 278.21 578.05C278.148 578.38 278.128 578.716 278.15 579.05C278.15 579.74 278.15 580.42 278.15 581.05C278.15 582.38 278.15 583.66 278.15 584.88C278.15 589.72 278.08 593.65 278.06 596.41C278.012 597.004 278.039 597.603 278.14 598.19C278.274 598.599 278.542 598.951 278.9 599.19C279.198 599.26 279.508 599.271 279.81 599.22Z" fill="#263238"/>
<path d="M309.41 599.23H278.85C278.585 599.23 278.331 599.125 278.143 598.937C277.955 598.75 277.85 598.495 277.85 598.23V595.48H310.35V598.23C310.351 598.485 310.253 598.731 310.079 598.917C309.904 599.103 309.665 599.215 309.41 599.23Z" fill="#263238"/>
<g opacity="0.6">
<path opacity="0.6" d="M291.12 576.21L306.07 599.23H297.69L283.1 576.21H291.12Z" fill="#151515" fill-opacity="0.7"/>
</g>
<path d="M273.35 576.21H244.49C243.485 576.21 242.67 577.025 242.67 578.03V597.4C242.67 598.405 243.485 599.22 244.49 599.22H273.35C274.355 599.22 275.17 598.405 275.17 597.4V578.03C275.17 577.025 274.355 576.21 273.35 576.21Z" fill="#8BA1BE" fill-opacity="0.2"/>
<path d="M244.48 599.22C244.388 599.238 244.293 599.238 244.2 599.22C243.922 599.189 243.655 599.093 243.42 598.94C243.036 598.679 242.76 598.289 242.64 597.84C242.574 597.232 242.551 596.621 242.57 596.01C242.57 593.24 242.52 589.3 242.48 584.45C242.48 583.23 242.48 581.95 242.48 580.62C242.48 579.95 242.48 579.27 242.48 578.62C242.455 578.252 242.479 577.882 242.55 577.52C242.653 577.13 242.871 576.779 243.176 576.515C243.481 576.251 243.859 576.085 244.26 576.04C244.68 576.04 245.01 576.04 245.39 576.04H252.39H273.39C273.928 576.042 274.443 576.251 274.831 576.623C275.218 576.996 275.447 577.503 275.47 578.04V586.15C275.47 589.66 275.47 593.05 275.47 596.28V597.48C275.472 597.93 275.329 598.369 275.06 598.73C274.799 599.087 274.426 599.348 274 599.47C273.603 599.554 273.195 599.581 272.79 599.55H268.27H260.27L248.71 599.47L245.57 599.42H244.75H244.47H244.75H245.57H248.71L260.27 599.34H268.27H272.72C273.082 599.359 273.444 599.336 273.8 599.27C274.129 599.17 274.416 598.966 274.62 598.69C274.828 598.399 274.937 598.048 274.93 597.69C274.93 597.29 274.93 596.89 274.93 596.49C274.93 593.26 274.93 589.87 274.93 586.36C274.93 584.6 274.93 582.81 274.93 581V578.27C274.912 577.869 274.74 577.49 274.449 577.212C274.159 576.934 273.772 576.78 273.37 576.78H252.37H245.37C245.01 576.78 244.61 576.78 244.3 576.78C243.979 576.818 243.676 576.95 243.43 577.16C243.193 577.366 243.022 577.637 242.94 577.94C242.873 578.269 242.852 578.606 242.88 578.94C242.88 579.63 242.88 580.31 242.88 580.94C242.88 582.27 242.88 583.55 242.88 584.77C242.88 589.62 242.82 593.56 242.8 596.33C242.764 596.926 242.764 597.524 242.8 598.12C242.893 598.543 243.139 598.917 243.49 599.17C243.812 599.263 244.151 599.28 244.48 599.22Z" fill="#263238"/>
<path d="M274.34 599.23H243.46C243.243 599.23 243.034 599.144 242.88 598.99C242.727 598.836 242.64 598.627 242.64 598.41V595.53H275.16V598.41C275.16 598.627 275.074 598.836 274.92 598.99C274.766 599.144 274.558 599.23 274.34 599.23Z" fill="#263238"/>
<g opacity="0.6">
<path opacity="0.6" d="M255.93 576.21L270.88 599.23H262.49L247.9 576.21H255.93Z" fill="#151515" fill-opacity="0.7"/>
</g>
<path d="M231.49 613.07L84.48 612.79V568.82L86.77 564.26L229 563.63L231.49 567.36V613.07Z" fill="#343A4A"/>
<path d="M231.61 569.54H84.48V600.92H231.61V569.54Z" fill="white"/>
<path d="M155.17 612.69H127.56V576.89C127.56 576.45 127.735 576.027 128.046 575.716C128.358 575.405 128.78 575.23 129.22 575.23H153.52C153.738 575.23 153.953 575.273 154.154 575.357C154.355 575.44 154.537 575.563 154.69 575.717C154.844 575.871 154.965 576.054 155.047 576.255C155.13 576.457 155.171 576.672 155.17 576.89V612.69Z" fill="white"/>
<path d="M155.17 612.69C155.17 612.69 155.17 612.56 155.17 612.34C155.17 612.12 155.17 611.76 155.17 611.34C155.17 610.44 155.17 609.17 155.17 607.56C155.17 604.26 155.11 599.56 155.07 593.75C155.07 590.85 155.07 587.67 155.07 584.25C155.07 582.55 155.07 580.78 155.07 578.97C155.07 578.51 155.07 578.06 155.07 577.6V576.89C155.074 576.688 155.037 576.487 154.96 576.3C154.884 576.111 154.767 575.94 154.619 575.801C154.47 575.661 154.293 575.555 154.1 575.49C153.655 575.409 153.201 575.385 152.75 575.42H129.35C129.115 575.417 128.883 575.475 128.677 575.587C128.47 575.699 128.296 575.862 128.17 576.06C127.974 576.388 127.896 576.772 127.95 577.15V580.95C127.95 582.63 127.95 584.29 127.95 585.95V595.52C127.95 601.71 127.95 607.52 127.95 612.67L127.74 612.46L147.74 612.57L153.34 612.62H154.82C154.993 612.605 155.167 612.605 155.34 612.62C155.184 612.637 155.026 612.637 154.87 612.62H153.42H147.87L127.73 612.73H127.37V612.52C127.37 607.32 127.37 601.52 127.37 595.37C127.37 592.28 127.37 589.08 127.37 585.8V577.19C127.319 576.713 127.424 576.232 127.67 575.82C127.844 575.549 128.084 575.327 128.367 575.173C128.65 575.019 128.968 574.939 129.29 574.94H140.61H152.69H153.37C153.637 574.925 153.905 574.959 154.16 575.04C154.415 575.13 154.648 575.273 154.845 575.459C155.041 575.645 155.196 575.87 155.3 576.12C155.395 576.365 155.443 576.627 155.44 576.89V577.59C155.44 578.06 155.44 578.52 155.44 578.98C155.44 580.81 155.44 582.59 155.44 584.31C155.44 587.75 155.44 590.95 155.44 593.87C155.44 599.68 155.36 604.38 155.34 607.67C155.34 609.26 155.34 610.51 155.34 611.4C155.34 611.8 155.34 612.11 155.34 612.4C155.3 612.506 155.242 612.604 155.17 612.69Z" fill="#263238"/>
<path d="M139.15 576.2H129.67C129.084 576.2 128.61 576.675 128.61 577.26V598.15C128.61 598.736 129.084 599.21 129.67 599.21H139.15C139.735 599.21 140.21 598.736 140.21 598.15V577.26C140.21 576.675 139.735 576.2 139.15 576.2Z" fill="#8BA1BE" fill-opacity="0.2"/>
<path d="M152.86 576.2H143.38C142.794 576.2 142.32 576.675 142.32 577.26V598.15C142.32 598.736 142.794 599.21 143.38 599.21H152.86C153.445 599.21 153.92 598.736 153.92 598.15V577.26C153.92 576.675 153.445 576.2 152.86 576.2Z" fill="#8BA1BE" fill-opacity="0.2"/>
<path d="M141.37 612.64C141.22 612.64 141.11 604.27 141.11 593.94C141.11 583.61 141.22 575.25 141.37 575.25C141.52 575.25 141.63 583.62 141.63 593.94C141.63 604.26 141.51 612.64 141.37 612.64Z" fill="#263238"/>
<path d="M140.21 595.51H128.61V599.21H140.21V595.51Z" fill="#263238"/>
<path d="M153.92 595.51H142.32V599.21H153.92V595.51Z" fill="#263238"/>
<path d="M84.48 569.56V574.12H231.61V569.78L84.48 569.56Z" fill="#E6007A"/>
<path d="M231.61 605.79C231.61 605.93 198.67 606.05 158.05 606.05C117.43 606.05 84.48 605.93 84.48 605.79C84.48 605.65 117.41 605.53 158.05 605.53C198.69 605.53 231.61 605.64 231.61 605.79Z" fill="#263238"/>
<path d="M231.49 613.09L84.4902 612.79V608.45H231.49V613.09Z" fill="#E6007A"/>
<g opacity="0.6">
<g opacity="0.5">
<path opacity="0.5" d="M129.88 599.22H138.27L140.22 596.15V583.31L129.88 599.22Z" fill="#151515" fill-opacity="0.7"/>
</g>
<g opacity="0.5">
<path opacity="0.5" d="M144.83 576.2L142.32 580.07V592.82L152.85 576.2H144.83Z" fill="#151515" fill-opacity="0.7"/>
</g>
</g>
<path d="M188.43 576.2H160.11C158.956 576.2 158.02 577.136 158.02 578.29V597.12C158.02 598.274 158.956 599.21 160.11 599.21H188.43C189.584 599.21 190.52 598.274 190.52 597.12V578.29C190.52 577.136 189.584 576.2 188.43 576.2Z" fill="#8BA1BE" fill-opacity="0.2"/>
<path d="M188.43 599.22C188.782 599.177 189.122 599.065 189.43 598.89C189.798 598.67 190.086 598.336 190.25 597.94C190.419 597.373 190.47 596.777 190.4 596.19C190.4 593.43 190.35 589.51 190.32 584.68C190.32 583.46 190.32 582.19 190.32 580.86C190.32 580.2 190.32 579.52 190.32 578.86C190.337 578.526 190.317 578.19 190.26 577.86C190.185 577.552 190.03 577.269 189.81 577.04C189.589 576.803 189.31 576.627 189 576.53C188.672 576.453 188.335 576.426 188 576.45H181H160.09C159.685 576.467 159.296 576.617 158.985 576.878C158.674 577.138 158.458 577.494 158.37 577.89C158.308 578.32 158.288 578.756 158.31 579.19V585.89C158.31 589.38 158.31 592.76 158.31 595.97V597.17C158.315 597.428 158.374 597.682 158.483 597.917C158.592 598.151 158.748 598.36 158.941 598.531C159.135 598.702 159.362 598.831 159.608 598.91C159.853 598.989 160.113 599.016 160.37 598.99H164.8H172.75L184.26 599.08H187.39H188.2C188.293 599.067 188.387 599.067 188.48 599.08C188.387 599.096 188.293 599.096 188.2 599.08H187.39L184.26 599.13L172.75 599.21H164.8H160.37C159.944 599.24 159.517 599.154 159.135 598.963C158.754 598.771 158.43 598.48 158.2 598.12C157.961 597.751 157.836 597.32 157.84 596.88C157.84 596.48 157.84 596.08 157.84 595.68C157.84 592.47 157.84 589.09 157.84 585.6C157.84 583.85 157.84 582.07 157.84 580.26V578.9C157.814 578.425 157.84 577.949 157.92 577.48C158.047 576.973 158.339 576.523 158.75 576.201C159.161 575.878 159.667 575.702 160.19 575.7H181.1H188.1C188.487 575.674 188.875 575.711 189.25 575.81C189.63 575.935 189.973 576.151 190.25 576.44C190.507 576.725 190.693 577.068 190.79 577.44C190.856 577.799 190.88 578.165 190.86 578.53C190.86 579.22 190.86 579.9 190.86 580.53C190.86 581.86 190.86 583.13 190.86 584.35C190.86 589.18 190.8 593.1 190.78 595.86C190.839 596.471 190.767 597.088 190.57 597.67C190.392 598.099 190.07 598.452 189.66 598.67C189.418 598.809 189.148 598.891 188.87 598.91C188.754 599.052 188.602 599.159 188.43 599.22Z" fill="#263238"/>
<path d="M158.02 595.51H190.52V598.12C190.52 598.409 190.405 598.686 190.201 598.891C189.996 599.095 189.719 599.21 189.43 599.21H159.12C158.831 599.21 158.554 599.095 158.349 598.891C158.145 598.686 158.03 598.409 158.03 598.12V595.51H158.02Z" fill="#263238"/>
<g opacity="0.6">
<path opacity="0.6" d="M177.26 576.2L162.31 599.22H170.7L185.28 576.2H177.26Z" fill="#151515" fill-opacity="0.7"/>
</g>
<path d="M224.11 576.2H194.83C193.941 576.2 193.22 576.921 193.22 577.81V597.6C193.22 598.489 193.941 599.21 194.83 599.21H224.11C224.999 599.21 225.72 598.489 225.72 597.6V577.81C225.72 576.921 224.999 576.2 224.11 576.2Z" fill="#8BA1BE" fill-opacity="0.2"/>
<path d="M224.11 599.22C224.475 599.178 224.82 599.036 225.11 598.81C225.272 598.673 225.404 598.503 225.497 598.312C225.59 598.121 225.642 597.913 225.65 597.7C225.65 597.16 225.65 596.56 225.65 595.88C225.65 593.1 225.65 589.15 225.57 584.28C225.57 583.06 225.57 581.77 225.57 580.44V578.39C225.591 578.055 225.567 577.719 225.5 577.39C225.407 577.093 225.221 576.834 224.97 576.65C224.7 576.475 224.382 576.388 224.06 576.4H215.96H194.89C194.691 576.403 194.494 576.449 194.315 576.535C194.135 576.621 193.975 576.744 193.847 576.897C193.719 577.05 193.625 577.228 193.572 577.42C193.519 577.612 193.508 577.813 193.54 578.01V580.76C193.54 582.58 193.54 584.37 193.54 586.13C193.54 589.66 193.54 593.06 193.54 596.29V597.5C193.529 597.841 193.645 598.173 193.865 598.433C194.084 598.694 194.392 598.863 194.73 598.91C195.06 598.91 195.49 598.91 195.86 598.91H200.32H208.32L219.92 599H223.08H223.9H224.18C224.087 599.015 223.993 599.015 223.9 599H223.08L219.92 599.05L208.32 599.13H200.32H195.86C195.46 599.13 195.12 599.13 194.67 599.13C194.218 599.073 193.802 598.851 193.505 598.505C193.207 598.16 193.049 597.716 193.06 597.26V596.05C193.06 592.82 193.06 589.42 193.06 585.89V577.77C193.033 577.508 193.058 577.244 193.133 576.991C193.209 576.739 193.333 576.504 193.5 576.3C193.678 576.095 193.897 575.93 194.144 575.816C194.39 575.702 194.658 575.642 194.93 575.64H216H224.1C224.511 575.621 224.916 575.741 225.25 575.98C225.593 576.222 225.84 576.575 225.95 576.98C226.026 577.342 226.049 577.712 226.02 578.08V580.13C226.02 581.46 226.02 582.75 226.02 583.97C226.02 588.84 225.96 592.79 225.94 595.57C225.94 596.237 225.94 596.847 225.94 597.4C225.922 597.632 225.856 597.858 225.746 598.063C225.635 598.268 225.484 598.447 225.3 598.59C225.077 598.758 224.816 598.868 224.54 598.91C224.427 599.05 224.278 599.157 224.11 599.22Z" fill="#263238"/>
<path d="M193.22 595.51H225.72V598.6C225.72 598.68 225.704 598.759 225.673 598.833C225.643 598.907 225.598 598.974 225.541 599.031C225.484 599.088 225.417 599.133 225.343 599.163C225.269 599.194 225.19 599.21 225.11 599.21H193.83C193.75 599.21 193.67 599.194 193.596 599.163C193.522 599.133 193.455 599.088 193.398 599.031C193.342 598.974 193.297 598.907 193.266 598.833C193.235 598.759 193.22 598.68 193.22 598.6V595.51Z" fill="#263238"/>
<g opacity="0.6">
<path opacity="0.6" d="M212.46 576.2L197.5 599.22H205.89L220.48 576.2H212.46Z" fill="#151515" fill-opacity="0.7"/>
</g>
<path d="M121.88 576.2H93.4802C92.348 576.2 91.4302 577.118 91.4302 578.25V597.16C91.4302 598.292 92.348 599.21 93.4802 599.21H121.88C123.012 599.21 123.93 598.292 123.93 597.16V578.25C123.93 577.118 123.012 576.2 121.88 576.2Z" fill="#8BA1BE" fill-opacity="0.2"/>
<path d="M121.88 599.22C122.231 599.173 122.57 599.061 122.88 598.89C123.253 598.655 123.537 598.304 123.69 597.89C123.842 597.317 123.886 596.72 123.82 596.13C123.82 593.37 123.82 589.45 123.74 584.62C123.74 583.4 123.74 582.12 123.74 580.8C123.74 580.13 123.74 579.46 123.74 578.8C123.763 578.466 123.742 578.13 123.68 577.8C123.608 577.489 123.448 577.204 123.22 576.98C123 576.745 122.72 576.576 122.41 576.49C122.082 576.418 121.745 576.395 121.41 576.42H114.37H93.4499C93.0434 576.423 92.6497 576.563 92.3322 576.817C92.0147 577.071 91.792 577.424 91.6999 577.82C91.6517 578.255 91.635 578.693 91.6499 579.13V585.89C91.6499 589.39 91.6499 592.77 91.6499 595.98V597.18C91.6489 597.535 91.7495 597.882 91.9399 598.18C92.1317 598.472 92.4004 598.705 92.7163 598.853C93.0323 599.001 93.3831 599.059 93.7299 599.02H98.1599H106.16L117.67 599.11H120.81H121.62H121.9C121.807 599.125 121.713 599.125 121.62 599.11H120.81L117.67 599.16L106.16 599.24H98.1599H93.7299C93.3042 599.278 92.8763 599.2 92.4909 599.016C92.1056 598.831 91.7771 598.546 91.5399 598.19C91.3022 597.817 91.1772 597.383 91.1799 596.94C91.1799 596.55 91.1799 596.15 91.1799 595.74C91.1799 592.53 91.1799 589.15 91.1799 585.65C91.1799 583.9 91.1799 582.12 91.1799 580.32V578.96C91.1616 578.483 91.1816 578.005 91.2399 577.53C91.3608 577.021 91.6492 576.566 92.059 576.24C92.4687 575.913 92.9761 575.734 93.4999 575.73H114.42H121.37C121.759 575.707 122.149 575.737 122.53 575.82C122.91 575.939 123.255 576.152 123.53 576.44C123.796 576.721 123.985 577.065 124.08 577.44C124.146 577.8 124.17 578.165 124.15 578.53C124.15 579.22 124.15 579.89 124.15 580.53C124.15 581.85 124.15 583.13 124.15 584.35C124.15 589.18 124.09 593.1 124.07 595.86C124.13 596.474 124.065 597.093 123.88 597.68C123.696 598.102 123.38 598.453 122.98 598.68C122.742 598.819 122.475 598.901 122.2 598.92C122.117 599.043 122.007 599.145 121.88 599.22Z" fill="#263238"/>
<path d="M91.4302 595.51H123.93V598.16C123.93 598.299 123.903 598.437 123.849 598.565C123.796 598.694 123.718 598.811 123.62 598.909C123.521 599.008 123.404 599.086 123.276 599.139C123.147 599.192 123.009 599.22 122.87 599.22H92.4902C92.351 599.22 92.2131 599.192 92.0845 599.139C91.9559 599.086 91.8391 599.008 91.7406 598.909C91.6422 598.811 91.5641 598.694 91.5109 598.565C91.4576 598.437 91.4302 598.299 91.4302 598.16V595.51Z" fill="#263238"/>
<g opacity="0.6">
<path opacity="0.6" d="M110.67 576.2L95.7197 599.22H104.11L118.69 576.2H110.67Z" fill="#151515" fill-opacity="0.7"/>
</g>
<path d="M1018.5 548.46C1018.5 548.61 252.98 548.87 61.6 548.87C-129.78 548.87 -285 548.76 -285 548.61C-285 548.46 -129.85 548.35 61.6 548.35C253.05 548.35 1018.5 548.32 1018.5 548.46Z" fill="white"/>
<path d="M-5 602C266 750.701 875.5 678.786 1138 709.641V740.746L26 742C4.79 740.434 0.0305476 736.227 -5 727.2V602Z" fill="#3D3D4B"/>
<path d="M529.899 615.905C696.083 486.927 942.581 481.776 1049.81 457L1050 699.318C1050 724.045 1028.06 741 1008.25 741H140C196.68 736.115 363.715 744.882 529.899 615.905Z" fill="#2A2A3C"/>
<rect x="528.746" y="355.305" width="8.49067" height="12.1295" fill="white"/>
<path opacity="0.1" d="M528.746 352.879H537.237V359.55C533.748 360.661 531.888 360.661 528.746 359.55V352.879Z" fill="#1C1C26"/>
<path d="M554.218 329.227C554.218 340.95 545.257 360.157 534.204 360.157C523.151 360.157 514.19 340.95 514.19 329.227C514.19 317.504 523.151 308 534.204 308C545.257 308 554.218 317.504 554.218 329.227Z" fill="white"/>
<path d="M553.835 323.797C553.835 332.521 555.655 349.24 533.821 349.24C511.988 349.24 513.808 332.521 513.808 323.797C513.808 315.072 522.768 308 533.821 308C544.875 308 559.9 317.704 553.835 323.797Z" fill="#E6007A"/>
<path d="M571.2 493.581V476.6H559.677L560.89 493.581C560.89 499.646 570.593 499.04 571.2 493.581Z" fill="white"/>
<path d="M571.2 480.239L559.677 380.17V480.239H571.2Z" fill="url(#paint0_linear_239_2324)"/>
<path d="M488.352 485.747L490.155 475.388L501.496 476.601L498.514 487.489C497.489 493.466 488.028 491.229 488.352 485.747Z" fill="white"/>
<path d="M490.043 475.526L511.184 377.039L508.956 432.934L501.512 476.639L490.043 475.526Z" fill="url(#paint1_linear_239_2324)"/>
<path d="M556.937 533.609L541.775 502.073H527.22L516.198 628.826L502.961 635.627L507.206 477.207H561.182L573.781 533.036L572.32 587.002L556.937 597.9V533.609Z" fill="#A3B0BF"/>
<path d="M556.937 533.609L541.775 502.073H536.716L527.013 477.207H561.182L573.918 533.609L572.457 587.31L556.937 597.958V533.609Z" fill="white" fill-opacity="0.31"/>
<path d="M560.283 477.207H506.913L510.551 381.384C515.403 357.125 552.398 356.518 560.283 381.384V477.207Z" fill="url(#paint2_linear_239_2324)"/>
<path d="M432.324 605.759C432.324 605.759 425.289 615.67 418.828 615.807C412.366 615.944 402.558 611.214 402.558 611.214C402.558 611.214 396.632 598.005 400.652 592.836C402.029 592.346 403.508 592.213 404.951 592.45C406.394 592.687 407.752 593.287 408.9 594.194C409.709 594.8 410.442 595.502 411.083 596.284C411.955 597.373 413.136 598.174 414.472 598.58C419.081 599.981 424.539 596.685 426.588 599.867C427.591 601.418 428.788 602.834 430.151 604.082C430.827 604.701 431.554 605.262 432.324 605.759Z" fill="white"/>
<path d="M340.531 677.259C347.735 653.24 365.419 616.957 410.214 615.809C410.214 615.809 451.564 620.403 453.862 677.259C453.862 677.259 461.303 712.406 381.418 711.887C301.533 711.367 333.333 701.279 340.531 677.259Z" fill="white"/>
<path d="M397.943 617.651C397.943 617.651 415.895 621.644 421.438 619.298C421.438 619.298 422.275 611.789 414.714 612.843C409.538 613.563 406.168 611.075 404.184 610.067C401.377 608.639 397.197 614.509 397.943 617.651Z" fill="#E6007A"/>
<path opacity="0.21" d="M413.573 606.333C412.424 607.193 408.897 594.192 408.897 594.192C409.706 594.799 410.439 595.5 411.08 596.282C411.952 597.372 413.134 598.173 414.469 598.578C414.475 598.958 414.682 605.497 413.573 606.333Z" fill="#1C1C26"/>
<path opacity="0.21" d="M430.142 604.08C429.889 604.231 421.584 609.204 420.46 609.204C419.312 609.204 426.581 599.864 426.581 599.864C427.583 601.416 428.78 602.833 430.142 604.08Z" fill="#1C1C26"/>
<path d="M364.846 660.414C364.386 660.021 382.458 633.806 387.434 633.608C392.411 633.41 403.595 639.349 411.693 640.115C419.792 640.882 427.638 638.583 429.17 643.37C430.702 648.156 434.913 665.124 432.323 667.839C429.734 670.553 374.781 668.904 364.846 660.414Z" fill="#1C1C26"/>
<path d="M409.972 664.751L410.877 661.979L407.688 655.696L404.916 654.791L409.972 664.751Z" fill="white"/>
<path d="M392.197 661.245L394.936 662.14L401.098 659.04L404.21 665.169L407.012 666.084L402.004 656.268L392.197 661.245Z" fill="white"/>
<path d="M395.47 643.395L394.565 646.167L397.754 652.45L400.526 653.355L395.47 643.395Z" fill="white"/>
<path d="M413.245 646.9L410.506 646.006L404.343 649.105L401.232 642.976L398.43 642.061L403.438 651.878L413.245 646.9Z" fill="white"/>
<path d="M402.328 655.349C403.042 655.582 403.81 655.192 404.043 654.478C404.276 653.764 403.887 652.996 403.173 652.763C402.459 652.53 401.691 652.92 401.458 653.634C401.224 654.348 401.614 655.115 402.328 655.349Z" fill="#E6007A"/>
<path d="M568.12 496.614C568.12 496.614 568.14 504.836 568.12 515.415C568.074 539.571 574.471 593.9 546.679 604.325C507.089 619.175 519.22 645.642 499.253 636.104C479.285 626.565 469.575 689.024 459.832 662.182C455.689 650.781 449.378 644.667 444.67 631.913C438.484 615.164 433.052 621.09 416.659 617.718" stroke="#E6007A" stroke-width="2"/>
<path d="M223 328.155C223 328.155 225.998 303.946 255.182 306.2C284.366 308.453 278.974 337.59 278.974 337.59C278.974 337.59 275.739 342.443 249.766 337.59C223.794 332.736 223 328.155 223 328.155Z" fill="url(#paint3_linear_239_2324)"/>
<path d="M224.842 322C227.807 315.089 235.601 304.686 255.184 306.2C274.708 307.709 278.757 321.248 279.302 330.138C279.564 334.397 275.591 339.024 249.619 334.17C223.646 329.316 223.325 325.534 224.842 322Z" fill="#212A2F"/>
<path d="M223 328.154C223 328.154 226.298 304 254.687 306.133C254.687 306.133 242.099 308.825 237.588 312.496C234.175 315.29 231.46 318.842 229.659 322.869C228.279 322.751 226.901 323.129 225.774 323.934C224.11 325.256 223 328.154 223 328.154Z" fill="#E6007A"/>
<path d="M255.183 306.2C246.229 309.918 243.267 322.017 243.267 322.017C243.267 322.017 240.941 320.445 236.147 320.745C231.353 321.046 229.661 322.869 229.661 322.869C229.661 322.869 235.801 307.417 255.183 306.2Z" fill="#1C1C26"/>
<path d="M255.183 306.2C261.645 308.439 259.235 323.478 259.235 323.478C256.855 322.069 254.183 321.224 251.425 321.009C248.664 320.723 245.875 321.067 243.267 322.017C243.267 322.017 245.277 310.515 255.183 306.2Z" fill="#E6007A"/>
<path d="M255.182 306.2C274.747 309.729 272.623 330.093 272.623 330.093C272.623 330.093 273.376 327.157 268.348 324.889C263.32 322.621 259.236 323.478 259.236 323.478C259.236 323.478 262.231 309.792 255.182 306.2Z" fill="#1C1C26"/>
<path d="M255.182 306.2C284.367 308.456 278.974 337.589 278.974 337.589C278.974 337.589 279.954 335.861 277.714 333.219C276.401 331.652 274.614 330.555 272.622 330.093C272.622 330.093 274.226 309.864 255.182 306.2Z" fill="#E6007A"/>
<path d="M241.8 352.457L223.691 329.279" stroke="black"/>
<path d="M229.761 322.653L243.045 352.944" stroke="black"/>
<path d="M243.044 321.76L243.994 352.542" stroke="black"/>
<path d="M259.181 323.553L245.251 352.491" stroke="black"/>
<path d="M272.441 330.171L246.062 353.19" stroke="black"/>
<path d="M277.543 338.893L247.654 353.042" stroke="black"/>
<path d="M224.883 373.081L239.199 375.931H260.048L263.852 358.437L255.556 352.444L224.883 373.081Z" fill="black"/>
<path d="M260.048 375.931L263.852 358.437L255.556 352.444L252.227 372.895L260.048 375.931Z" fill="#1C1C26"/>
<path d="M228.262 352.815L255.567 352.457L252.19 372.725L224.883 373.081L228.262 352.815Z" fill="#1C1C26"/>
<path d="M227.032 360.423L255.07 360.796L262.675 364.782L261.949 368.042L253.693 364.077L231.266 363.661L226.539 363.57L227.032 360.423Z" fill="#E6007A"/>
<path d="M239.974 352.673H243.229L239.827 372.954H236.464L239.974 352.673Z" fill="#E6007A"/>
<path d="M239.465 367.637C242.447 367.637 244.864 365.22 244.864 362.237C244.864 359.255 242.447 356.838 239.465 356.838C236.482 356.838 234.065 359.255 234.065 362.237C234.065 365.22 236.482 367.637 239.465 367.637Z" fill="white"/>
<path d="M241.307 365.677L241.678 364.766L241.034 362.853L240.285 362.644L241.307 365.677Z" fill="#1C1C26"/>
<path d="M236.152 364.912L236.93 365.128L238.903 363.899L239.562 365.861L240.358 366.082L239.294 362.941L236.152 364.912Z" fill="#1C1C26"/>
<path d="M237.409 359.172L237.038 360.083L237.682 361.997L238.431 362.205L237.409 359.172Z" fill="#1C1C26"/>
<path d="M242.564 359.937L241.787 359.721L239.814 360.949L239.154 358.988L238.359 358.766L239.422 361.907L242.564 359.937Z" fill="#1C1C26"/>
<path d="M239.194 362.845C239.387 362.898 239.621 362.751 239.717 362.517C239.813 362.282 239.734 362.048 239.541 361.994C239.348 361.94 239.114 362.087 239.018 362.322C238.922 362.557 239.001 362.791 239.194 362.845Z" fill="#E6007A"/>
<path opacity="0.9" d="M239.827 372.954L246.293 376H243.088L236.465 372.954H239.827Z" fill="#E6007A"/>
<path d="M81.6155 74.6972C75.6193 69.0008 62.4889 56.7341 61.3272 55.7896C60.1654 54.8451 54.719 58.6913 54.719 58.6913L70.5763 92.9215L90.2495 78.9866C90.2495 78.9866 87.6113 80.3927 81.6155 74.6972Z" fill="#3A3A4A"/>
<path opacity="0.5" d="M56.4902 59.0973C55.4123 59.8207 54.5202 60.5388 54.5202 60.5388L67.9077 92.9457L71.3807 90.1382L56.4902 59.0973Z" fill="#1C1C26"/>
<path d="M233.879 20.7246C232.956 19.1529 217.1 6.18188 203.547 12.9168C189.995 19.6518 96.4547 74.2503 96.4547 74.2503L74.4636 90.3332L64.3699 100.238L66.1304 106.292C66.1304 106.292 108.204 103.973 121.232 97.5014C133.902 90.1857 214.285 44.2344 219.677 40.8768C225.068 37.5192 237.995 29.5321 233.879 20.7246Z" fill="#3A3A4A"/>
<path opacity="0.04" d="M154.172 49.0435C154.172 49.0435 157.483 57.5873 135.307 68.4871C114.479 78.7264 118.871 62.0399 118.871 62.0399L146.738 47.3008L154.172 49.0435Z" fill="black"/>
<path d="M29.4584 86.8078L34.4867 83.5801L73.7201 92.1317L72.7499 95.6562L64.4661 100.441L29.4584 86.8078Z" fill="#3A3A4A"/>
<path opacity="0.5" d="M35.0581 83.6084L73.429 95.7426L74.4013 92.1973L35.0581 83.6084Z" fill="black"/>
<path d="M129.047 74.5395L106.105 56.8351L39.3888 29.3617L27.5386 18.0112L29.3713 16.4485L44.0487 25.442L135.464 50.2213C135.464 50.2213 138.361 50.6776 154.87 56.6553C143.111 71.9509 131.314 74.2194 129.336 74.4997C129.147 74.5311 129.047 74.5395 129.047 74.5395Z" fill="#E6007A"/>
<path d="M181.176 59.4929L181.14 59.5182C183.043 57.4373 184.771 55.1465 186.311 52.663C174.322 59.2647 138.645 78.8829 138.645 78.8829C141.053 79.9021 149.163 78.799 158.384 75.0084L158.363 75.0215L170.633 76.3875L201.419 95.9769L207.617 92.898L181.176 59.4929Z" fill="#E6007A"/>
<path opacity="0.2" d="M104.527 55.1924L39.5213 28.5372L29.1823 18.6781L27.5133 20.0912L39.0534 31.096L104.057 57.7516L126.401 74.9203C127.42 74.7932 128.41 74.5804 129.364 74.2833L104.527 55.1924Z" fill="black"/>
<path opacity="0.35" d="M120.027 97.1906C132.805 89.6711 213.875 42.4388 219.313 38.9879C224.75 35.537 237.786 27.3268 233.621 18.2874C233.515 18.1266 233.395 17.9789 233.266 17.8487C216.951 20.9327 107.118 85.7195 107.118 85.7195L64.0244 104.857L64.4248 106.253C64.4248 106.253 106.888 103.848 120.027 97.1906Z" fill="black"/>
<path d="M141.431 36.0908C141.431 36.0908 128.578 38.7292 127.79 47.2729L127.804 47.3103C127.767 48.3415 127.914 49.4531 128.237 50.5808C128.56 51.7084 129.053 52.8296 129.686 53.8793C131.536 57.1677 134.045 59.4101 135.675 59.3677C135.697 59.3772 145.764 58.4362 149.797 52.6356C149.797 52.6356 152.73 50.2249 148.897 42.6604C145.065 35.0959 141.431 36.0908 141.431 36.0908Z" fill="#3A3A4A"/>
<path opacity="0.5" d="M128.226 53.5938C130.16 57.0343 132.779 59.3796 134.479 59.334C134.502 59.3439 144.998 58.3513 149.195 52.2767C148.536 52.3944 147.797 52.2866 147.043 51.9627C146.289 51.6388 145.543 51.1088 144.872 50.4192C143.176 48.9358 141.407 45.5738 140.707 44.1853L127.539 52.24C127.75 52.6979 127.979 53.15 128.226 53.5938Z" fill="black"/>
<path d="M202.986 57.8633C202.986 57.8633 190.133 60.5017 189.345 69.0454L189.359 69.0827C189.322 70.1139 189.469 71.2256 189.792 72.3532C190.115 73.4809 190.608 74.602 191.242 75.6517C193.091 78.9401 195.6 81.1826 197.23 81.1402C197.252 81.1496 207.319 80.2086 211.352 74.4081C211.352 74.4081 214.285 71.9973 210.453 64.4328C206.62 56.8683 202.986 57.8633 202.986 57.8633Z" fill="#3A3A4A"/>
<path opacity="0.5" d="M189.781 75.3663C191.715 78.8068 194.334 81.1521 196.034 81.1065C196.057 81.1164 206.553 80.1237 210.75 74.0491C210.091 74.1669 209.352 74.0591 208.598 73.7352C207.844 73.4113 207.099 72.8813 206.427 72.1916C204.731 70.7083 202.962 67.3462 202.262 65.9578L189.095 74.0124C189.305 74.4704 189.535 74.9225 189.781 75.3663Z" fill="black"/>
<path d="M76.4248 101.737L85.7319 100.461L88.8349 100.036L92.4159 106.342L88.0116 109.882L76.4248 101.737Z" fill="#3A3A4A"/>
<path opacity="0.5" d="M92.8535 105.898L86.7129 100.412L89.5661 100.017L92.8535 105.898Z" fill="black"/>
</g>
<defs>
<linearGradient id="paint0_linear_239_2324" x1="565.928" y1="449.542" x2="505.168" y2="423.948" gradientUnits="userSpaceOnUse">
<stop offset="0.104167" stop-color="#E6007A"/>
<stop offset="0.963542" stop-color="white"/>
</linearGradient>
<linearGradient id="paint1_linear_239_2324" x1="498.257" y1="445.483" x2="561.206" y2="425.88" gradientUnits="userSpaceOnUse">
<stop offset="0.104167" stop-color="#E6007A"/>
<stop offset="0.963542" stop-color="white"/>
</linearGradient>
<linearGradient id="paint2_linear_239_2324" x1="527.117" y1="450.093" x2="594.575" y2="433.162" gradientUnits="userSpaceOnUse">
<stop offset="0.104167" stop-color="#E6007A"/>
<stop offset="0.963542" stop-color="white"/>
</linearGradient>
<linearGradient id="paint3_linear_239_2324" x1="251.183" y1="306.052" x2="283.929" y2="336.455" gradientUnits="userSpaceOnUse">
<stop stop-color="#484750"/>
<stop offset="1" stop-color="#0E0E10"/>
</linearGradient>
</defs>
</svg>
