<svg width="400" height="312" viewBox="0 0 400 312" fill="none" xmlns="http://www.w3.org/2000/svg">
<mask id="mask0_14_944" style="mask-type:alpha" maskUnits="userSpaceOnUse" x="0" y="0" width="400" height="312">
<rect width="400" height="312" rx="27" fill="white"/>
</mask>
<g mask="url(#mask0_14_944)">
<circle cx="182.417" cy="299.342" r="289.417" fill="#E6007A"/>
<mask id="mask1_14_944" style="mask-type:alpha" maskUnits="userSpaceOnUse" x="-107" y="9" width="579" height="580">
<circle cx="182.417" cy="299.342" r="289.417" fill="#E6007A"/>
</mask>
<g mask="url(#mask1_14_944)">
<g opacity="0.570596" filter="url(#filter0_f_14_944)">
<path d="M269.899 -332.668L-14.2924 -306.261C-35.4739 -304.292 -50.0887 -284.349 -46.9356 -261.717L41.9577 376.34C45.1108 398.973 64.8379 415.725 86.0194 413.757L370.211 387.349C391.392 385.381 406.007 365.438 402.854 342.805L313.961 -295.252C310.808 -317.885 291.081 -334.636 269.899 -332.668Z" fill="url(#paint0_linear_14_944)"/>
</g>
<g filter="url(#filter1_d_14_944)">
<path d="M313.038 -186.043L319.368 -186.589C320.897 -186.721 322.338 -185.484 322.586 -183.825L331.702 -122.895C331.951 -121.236 330.912 -119.784 329.383 -119.652L323.053 -119.106C321.524 -118.974 320.083 -120.211 319.835 -121.87L310.719 -182.8C310.471 -184.459 311.509 -185.911 313.038 -186.043ZM-19.4896 -212.524L-13.1603 -213.071C-11.631 -213.203 -10.1901 -211.965 -9.94191 -210.306L-6.47519 -187.136C-6.227 -185.477 -7.26555 -184.025 -8.79486 -183.893L-15.1241 -183.347C-16.6534 -183.215 -18.0944 -184.452 -18.3426 -186.111L-21.8093 -209.282C-22.0575 -210.94 -21.0189 -212.392 -19.4896 -212.524ZM-11.3364 -158.031L-5.00715 -158.577C-3.47785 -158.709 -2.0369 -157.472 -1.78871 -155.813L5.14471 -109.472C5.3929 -107.813 4.35435 -106.361 2.82505 -106.229L-3.50422 -105.683C-5.03353 -105.551 -6.47447 -106.788 -6.72266 -108.447L-13.6561 -154.788C-13.9043 -156.447 -12.8657 -157.899 -11.3364 -158.031ZM-1.32147 -91.094L5.00779 -91.6406C6.5371 -91.7726 7.97804 -90.5349 8.22623 -88.8761L15.1597 -42.5352C15.4078 -40.8764 14.3693 -39.4246 12.84 -39.2925L6.51073 -38.746C4.98142 -38.6139 3.54047 -39.8516 3.29229 -41.5104L-3.64114 -87.8513C-3.88933 -89.5101 -2.85078 -90.9619 -1.32147 -91.094Z" fill="black"/>
</g>
<mask id="mask2_14_944" style="mask-type:alpha" maskUnits="userSpaceOnUse" x="-7" y="-315" width="370" height="687">
<path d="M233.935 -314.793L20.3354 -296.68C3.04699 -295.214 -8.58549 -278.382 -5.64649 -259.084L85.3829 338.614C88.3219 357.911 104.719 372.366 122.008 370.9L335.608 352.787C352.896 351.321 364.528 334.489 361.589 315.191L270.56 -282.507C267.621 -301.804 251.223 -316.259 233.935 -314.793Z" fill="white"/>
</mask>
<g mask="url(#mask2_14_944)">
<path d="M237.472 -314.647L20.7875 -295.534C3.24941 -293.987 -8.67897 -277.119 -5.85529 -257.859L81.6025 338.681C84.4262 357.941 100.933 372.301 118.471 370.754L335.155 351.641C352.694 350.094 364.622 333.226 361.798 313.966L274.34 -282.574C271.517 -301.834 255.01 -316.194 237.472 -314.647Z" fill="white" stroke="#979797" stroke-width="0.406862"/>
<path d="M83.8689 232.498C84.5462 234.517 86.4377 235.561 88.8578 235.351C91.1543 235.152 92.6969 233.739 92.3854 231.653C92.1419 230.022 90.9151 229.116 89.0883 228.866L87.0418 228.581C86.2004 228.459 85.7391 228.126 85.6475 227.512C85.5323 226.741 86.1479 226.19 87.1725 226.101C88.303 226.003 89.0051 226.511 89.3598 227.208L91.6032 227.014C90.9776 225.221 89.353 224.047 86.8799 224.262C84.6011 224.459 83.1802 225.968 83.4708 227.914C83.7352 229.685 85.0595 230.405 86.6664 230.621L88.675 230.891C89.6427 231.02 90.0836 231.337 90.1805 231.986C90.3088 232.845 89.6579 233.399 88.5626 233.494C87.5027 233.586 86.6424 233.216 86.2007 232.295L83.8689 232.498ZM99.4884 234.252L102.085 234.027L98.0913 229.808L100.791 226.199L98.0708 226.435L95.8027 229.58L94.8365 223.11L92.6461 223.3L94.3479 234.697L96.5384 234.508L96.1692 232.035L96.7031 231.296L99.4884 234.252ZM109.422 233.391L108.676 228.393C108.396 226.517 107.007 225.483 104.904 225.665C103.103 225.821 101.975 227.02 101.958 228.461L104.042 228.28C104.151 227.809 104.48 227.496 105.098 227.442C105.981 227.366 106.469 227.874 106.568 228.541L106.655 229.119C106.303 228.919 105.474 228.76 104.785 228.819C103.071 228.968 101.881 230.101 102.103 231.592C102.347 233.223 103.825 234.018 105.415 233.88C106.281 233.805 107.031 233.438 107.257 233.152L107.32 233.573L109.422 233.391ZM107 231.434C106.869 231.871 106.308 232.186 105.672 232.242C104.983 232.301 104.234 232.082 104.132 231.398C104.033 230.732 104.695 230.373 105.384 230.313C106.02 230.258 106.659 230.469 106.917 230.873L107 231.434ZM111.257 230.834C111.516 232.57 112.641 233.272 114.248 233.132C114.831 233.082 115.348 232.948 115.625 232.764L115.337 230.835C115.113 231.015 114.758 231.152 114.422 231.181C113.857 231.23 113.479 230.979 113.387 230.365L112.874 226.928L114.605 226.778L114.344 225.025L112.612 225.175L112.296 223.053L110.123 223.241L110.44 225.363L109.238 225.467L109.5 227.221L110.702 227.117L111.257 230.834ZM115.954 248.262C115.877 248.944 115.376 249.307 114.634 249.371C113.663 249.455 112.887 248.812 112.641 247.643L117.905 247.187L117.805 246.521C117.462 244.224 115.952 242.738 113.638 242.939C111.43 243.13 110.099 245.004 110.453 247.371C110.814 249.791 112.6 251.324 114.896 251.124C116.874 250.953 117.951 249.776 117.985 248.086L115.954 248.262ZM113.92 244.708C114.821 244.63 115.412 245.236 115.553 246.059L112.497 246.324C112.547 245.342 113.072 244.782 113.92 244.708Z" fill="#1C1C26"/>
<path d="M294.016 206.995L294.705 206.933C295.711 206.842 296.495 207.323 296.627 208.235C296.751 209.094 296.178 209.714 295.26 209.797C294.183 209.894 293.507 209.297 293.265 208.36L291.04 208.56C291.465 210.636 293.223 211.917 295.554 211.707C297.866 211.499 299.056 209.953 298.786 208.076C298.644 207.094 298.016 206.209 296.946 205.861C297.67 205.422 298.083 204.443 297.934 203.409C297.669 201.567 296.158 200.388 293.951 200.587C291.779 200.782 290.579 202.383 290.643 204.314L292.832 204.117C292.784 203.286 293.22 202.589 294.209 202.5C295.091 202.421 295.704 202.952 295.813 203.706C295.942 204.601 295.302 205.12 294.384 205.203L293.766 205.259L294.016 206.995ZM300.16 213.052L301.572 212.924L302.364 211.343C302.613 210.841 302.777 210.24 302.701 209.713C302.562 208.749 301.868 208.278 301.109 208.347C300.332 208.416 299.813 209.032 299.924 209.804C300.028 210.523 300.568 210.918 301.165 210.971L300.16 213.052ZM307.724 210.612C310.266 210.383 311.668 207.947 311.195 204.667C310.722 201.387 308.663 199.262 306.121 199.491C303.579 199.72 302.177 202.156 302.65 205.436C303.123 208.716 305.182 210.841 307.724 210.612ZM306.409 201.491C307.857 201.361 308.7 202.866 308.988 204.866C309.276 206.865 308.883 208.482 307.436 208.612C305.97 208.744 305.145 207.237 304.857 205.237C304.569 203.238 304.944 201.623 306.409 201.491ZM317.396 209.741C319.938 209.512 321.34 207.076 320.867 203.796C320.394 200.516 318.336 198.392 315.793 198.621C313.251 198.849 311.849 201.285 312.322 204.565C312.795 207.845 314.854 209.97 317.396 209.741ZM316.082 200.62C317.529 200.49 318.372 201.995 318.66 203.995C318.949 205.994 318.556 207.611 317.108 207.741C315.643 207.873 314.817 206.366 314.529 204.367C314.241 202.367 314.616 200.752 316.082 200.62ZM327.068 208.87C329.611 208.642 331.012 206.206 330.54 202.926C330.067 199.646 328.008 197.521 325.466 197.75C322.923 197.979 321.522 200.415 321.995 203.695C322.467 206.975 324.526 209.099 327.068 208.87ZM325.754 199.75C327.201 199.619 328.044 201.125 328.333 203.124C328.621 205.124 328.228 206.741 326.78 206.871C325.315 207.003 324.49 205.496 324.201 203.496C323.913 201.497 324.288 199.881 325.754 199.75ZM299.414 225.435C301.709 225.228 303.05 223.863 302.722 221.583C302.39 219.285 300.695 218.194 298.4 218.401L293.986 218.798L295.539 229.568L297.781 229.366L297.242 225.63L299.414 225.435ZM300.497 221.783C300.631 222.713 300.162 223.43 298.997 223.535L296.967 223.718L296.504 220.508L298.534 220.326C299.699 220.221 300.358 220.819 300.497 221.783ZM307.236 226.507L306.253 219.684L307.753 219.549C309.819 219.363 311.139 220.577 311.442 222.682C311.743 224.769 310.803 226.186 308.737 226.372L307.236 226.507ZM305.28 228.691L309.111 228.346C312.395 228.051 314.157 225.76 313.684 222.48C313.211 219.2 310.842 217.281 307.559 217.577L303.727 217.921L305.28 228.691ZM314.486 216.953L316.038 227.723L323.4 227.06L323.115 225.078L317.977 225.54L317.608 222.979L322.269 222.56L321.993 220.648L317.332 221.068L316.994 218.717L322.131 218.255L321.848 216.29L314.486 216.953ZM332.593 215.323L330.121 215.546L328.241 219.251L325.408 215.97L322.848 216.2L327.193 221.157L324.223 226.986L326.713 226.762L328.699 222.798L331.78 226.306L334.322 226.077L329.765 220.89L332.593 215.323Z" fill="#1C1C26"/>
<path d="M293.502 104.015L292.092 104.16L288.865 111.949L288.989 112.933L293.976 112.419L294.285 114.861L295.572 114.728L295.263 112.286L297.166 112.09L297.019 110.931L295.116 111.127L294.787 108.527L293.501 108.66L293.83 111.26L290.376 111.615L293.502 104.015ZM302.468 103.091L301.058 103.236L297.831 111.025L297.955 112.009L302.942 111.495L303.251 113.937L304.538 113.805L304.229 111.363L306.132 111.167L305.985 110.007L304.082 110.203L303.753 107.603L302.467 107.736L302.796 110.336L299.342 110.692L302.468 103.091ZM307.298 112.648C307.367 113.193 307.841 113.553 308.369 113.499C308.88 113.446 309.252 112.999 309.183 112.454C309.114 111.909 308.638 111.531 308.127 111.584C307.598 111.639 307.229 112.104 307.298 112.648ZM315.715 102.812L315.579 101.74L308.583 102.461L308.738 103.691L314.307 103.117L311.692 113.068L313.085 112.924L315.715 102.812ZM319.223 112.292L320.315 112.179L325.7 100.698L324.607 100.81L319.223 112.292ZM318.01 103.697C317.919 102.976 318.425 102.319 319.147 102.245C319.87 102.17 320.545 102.706 320.636 103.426C320.727 104.146 320.201 104.788 319.479 104.862C318.756 104.937 318.101 104.417 318.01 103.697ZM327.934 109.188C327.77 107.888 326.599 106.958 325.295 107.093C323.991 107.227 323.082 108.371 323.247 109.671C323.411 110.971 324.582 111.9 325.886 111.766C327.19 111.631 328.099 110.488 327.934 109.188ZM321.658 103.321C321.493 102.021 320.322 101.092 319.018 101.226C317.714 101.36 316.806 102.504 316.97 103.804C317.135 105.104 318.306 106.033 319.61 105.899C320.914 105.764 321.822 104.621 321.658 103.321ZM326.895 109.295C326.986 110.015 326.48 110.672 325.757 110.747C325.035 110.821 324.36 110.286 324.269 109.565C324.178 108.845 324.704 108.204 325.426 108.129C326.149 108.055 326.804 108.575 326.895 109.295Z" fill="#1C1C26"/>
<path d="M69.5137 128.799L66.655 140.018L68.0649 139.873L68.8854 136.497L73.3442 136.04L75.0085 139.161L76.4184 139.017L70.8179 128.665L69.5137 128.799ZM70.367 130.455L72.7143 134.877L69.1896 135.238L70.367 130.455ZM81.5739 134.11C83.7592 133.886 84.9909 132.621 84.723 130.513C84.4528 128.388 82.9375 127.422 80.7522 127.646L76.6988 128.062L78.0697 138.847L79.462 138.705L78.9127 134.383L81.5739 134.11ZM83.3484 130.654C83.5024 131.866 82.8451 132.734 81.3823 132.884L78.7564 133.154L78.2452 129.131L80.871 128.862C82.3338 128.712 83.1921 129.425 83.3484 130.654ZM73.1404 154.663L69.3735 149.889L67.8579 150.044L72.5763 155.984L73.1412 160.428L74.5158 160.287L73.9509 155.843L77.0926 149.097L75.6122 149.249L73.1404 154.663Z" fill="#1C1C26"/>
<path d="M69.3871 161.358L328.807 131.845" stroke="#E3E9F0" stroke-width="0.886564"/>
<path d="M261.125 160.16L260.298 160.248L257.293 162.223L257.465 163.629L259.974 161.974L261.096 171.111L262.453 170.967L261.125 160.16ZM264.235 172.682L265.134 172.587L265.877 170.941C266.048 170.585 266.174 170.162 266.129 169.793C266.049 169.143 265.598 168.817 265.07 168.873C264.542 168.929 264.166 169.361 264.233 169.906C264.296 170.415 264.667 170.678 265.116 170.702L264.235 172.682ZM270.827 169.098C269.47 169.242 268.38 168.504 268.229 167.274C268.08 166.061 268.963 165.113 270.319 164.969C271.693 164.823 272.783 165.561 272.932 166.774C273.083 168.004 272.2 168.952 270.827 169.098ZM270.177 163.809C269.067 163.927 268.116 163.298 267.986 162.244C267.855 161.172 268.629 160.36 269.739 160.242C270.866 160.122 271.818 160.751 271.949 161.823C272.079 162.877 271.304 163.689 270.177 163.809ZM270.965 170.223C273.061 170 274.512 168.599 274.284 166.737C274.111 165.331 273.052 164.411 271.833 164.22C272.777 163.764 273.406 162.789 273.262 161.612C273.048 159.872 271.45 158.921 269.601 159.117C267.769 159.312 266.443 160.574 266.657 162.314C266.801 163.491 267.633 164.311 268.681 164.555C267.522 164.999 266.731 166.116 266.904 167.521C267.132 169.384 268.886 170.444 270.965 170.223ZM280.286 161.079C280.411 162.098 279.64 163.088 278.664 164.438L275.647 168.639L275.759 169.553L282.822 168.802L282.671 167.572L277.51 168.121L279.889 164.824C280.83 163.478 281.79 162.29 281.622 160.919C281.396 159.074 280.016 158.01 277.955 158.229C275.965 158.441 274.797 159.971 274.831 161.997L276.258 161.845C276.21 160.587 276.803 159.598 278.106 159.459C279.304 159.332 280.15 159.972 280.286 161.079ZM289.415 158.258L289.283 157.186L282.29 157.929L282.441 159.159L288.007 158.567L285.359 168.533L286.751 168.385L289.415 158.258ZM299.749 162.624C301.933 162.392 303.169 161.121 302.91 159.013C302.649 156.887 301.139 155.926 298.955 156.158L294.904 156.588L296.229 167.377L297.621 167.229L297.09 162.907L299.749 162.624ZM301.536 159.159C301.685 160.371 301.025 161.242 299.563 161.398L296.939 161.677L296.444 157.653L299.069 157.374C300.531 157.218 301.385 157.929 301.536 159.159ZM306.928 164.976L305.907 156.665L307.968 156.446C310.416 156.186 312.061 157.666 312.372 160.197C312.683 162.727 311.437 164.497 308.989 164.757L306.928 164.976ZM305.689 166.372L309.159 166.003C312.33 165.666 314.149 163.337 313.746 160.051C313.342 156.765 311.005 154.877 307.834 155.214L304.364 155.583L305.689 166.372ZM315.029 154.449L316.354 165.238L323.241 164.506L323.088 163.259L317.575 163.845L317.124 160.172L322.126 159.641L321.975 158.411L316.973 158.942L316.554 155.533L322.067 154.947L321.916 153.717L315.029 154.449ZM332.178 152.627L330.646 152.79L328.238 157.3L324.834 153.407L323.248 153.576L327.581 158.491L324.432 164.38L325.965 164.217L328.473 159.5L332.077 163.567L333.662 163.399L329.145 158.289L332.178 152.627Z" fill="#1C1C26"/>
<path d="M78.2988 185.621C79.1117 185.268 79.7536 184.399 79.5948 183.117C79.3641 181.254 77.9013 180.394 75.6641 180.63L72.1057 181.004L73.4418 191.792L77.3525 191.38C79.5721 191.147 80.8134 189.93 80.5696 187.962C80.4195 186.75 79.4984 185.797 78.2988 185.621ZM74.0431 185.553L73.6123 182.074L75.8143 181.842C77.2587 181.69 78.1189 182.151 78.2647 183.328C78.4105 184.505 77.6896 185.169 76.2451 185.321L74.0431 185.553ZM74.1868 186.712L76.741 186.443C78.2031 186.289 79.0674 186.928 79.2089 188.07C79.3481 189.194 78.6644 190.014 77.2023 190.168L74.6481 190.437L74.1868 186.712ZM89.0069 186.201C88.711 183.811 87.0422 182.296 84.9107 182.521C82.7615 182.747 81.5238 184.569 81.8197 186.958C82.1156 189.348 83.7668 190.865 85.916 190.638C88.0475 190.414 89.3028 188.59 89.0069 186.201ZM87.6681 186.342C87.8792 188.046 87.1816 189.33 85.7723 189.479C84.3631 189.627 83.3696 188.521 83.1585 186.817C82.9474 185.113 83.645 183.829 85.0543 183.681C86.4635 183.532 87.4571 184.638 87.6681 186.342ZM91.2787 189.913L92.5998 189.774L91.9449 184.485C92.1223 183.612 92.8388 182.914 93.7548 182.817C94.9351 182.693 95.5747 183.391 95.7097 184.48L96.3168 189.382L97.6556 189.241L97.0223 184.128C96.8113 182.424 95.701 181.384 93.9218 181.571C92.9177 181.677 92.1374 182.293 91.7556 182.957L91.6337 181.973L90.3125 182.112L91.2787 189.913ZM105.059 188.461L106.397 188.32L104.983 176.899L103.644 177.04L104.206 181.574C103.749 181.052 102.84 180.632 101.871 180.734C99.581 180.975 98.5785 182.967 98.8505 185.164C99.1247 187.378 100.586 189.092 102.876 188.851C103.845 188.749 104.628 188.15 104.946 187.547L105.059 188.461ZM104.771 186.142C104.466 186.993 103.75 187.549 102.922 187.636C101.425 187.794 100.394 186.674 100.189 185.023C99.9848 183.371 100.715 182.066 102.213 181.908C103.041 181.821 103.875 182.214 104.38 182.979L104.771 186.142ZM113.383 185.217C113.28 186.117 112.619 186.685 111.65 186.788C110.329 186.927 109.269 186.006 109.044 184.339L114.576 183.756L114.517 183.282C114.236 181.015 112.898 179.572 110.748 179.798C108.617 180.023 107.406 181.913 107.695 184.25C107.993 186.657 109.658 188.137 111.789 187.912C113.551 187.726 114.534 186.59 114.633 185.085L113.383 185.217ZM110.905 180.921C112.209 180.784 112.952 181.738 113.113 182.895L108.956 183.334C108.98 181.943 109.725 181.045 110.905 180.921ZM121.986 186.677L123.325 186.536L121.911 175.116L120.572 175.257L121.133 179.79C120.676 179.268 119.767 178.848 118.799 178.95C116.509 179.191 115.506 181.184 115.778 183.38C116.052 185.594 117.514 187.309 119.804 187.067C120.773 186.965 121.555 186.367 121.873 185.764L121.986 186.677ZM121.699 184.358C121.394 185.209 120.678 185.765 119.85 185.852C118.352 186.01 117.321 184.891 117.117 183.239C116.912 181.587 117.643 180.282 119.14 180.124C119.968 180.037 120.802 180.43 121.307 181.195L121.699 184.358Z" fill="#1C1C26"/>
<path d="M67.3276 267.425C66.2694 260.158 71.3418 253.74 78.6571 253.089L326.809 231.015C334.124 230.364 340.912 235.728 341.97 242.995L347.387 280.192C348.445 287.459 343.373 293.877 336.057 294.528L87.9055 316.602C80.5902 317.253 73.8022 311.889 72.744 304.622L67.3276 267.425Z" fill="#7C30DD"/>
<path d="M191.434 274.939C192.186 277.162 194.272 278.314 196.935 278.088C199.462 277.873 201.156 276.323 200.807 274.027C200.534 272.233 199.18 271.234 197.169 270.955L194.915 270.638C193.989 270.502 193.48 270.135 193.377 269.46C193.248 268.611 193.924 268.006 195.051 267.911C196.295 267.805 197.07 268.365 197.462 269.133L199.931 268.923C199.237 266.95 197.445 265.656 194.724 265.887C192.216 266.1 190.656 267.756 190.982 269.897C191.279 271.846 192.739 272.64 194.508 272.881L196.72 273.182C197.786 273.326 198.272 273.675 198.381 274.389C198.525 275.334 197.81 275.942 196.604 276.044C195.438 276.143 194.49 275.735 194.001 274.722L191.434 274.939ZM203.029 274.737C203.32 276.647 204.56 277.421 206.329 277.271C206.971 277.217 207.539 277.071 207.843 276.869L207.52 274.747C207.275 274.944 206.884 275.094 206.515 275.126C205.892 275.178 205.476 274.901 205.373 274.226L204.798 270.445L206.703 270.283L206.409 268.354L204.504 268.516L204.149 266.182L201.758 266.384L202.113 268.719L200.791 268.831L201.085 270.76L202.407 270.648L203.029 274.737ZM216.604 276.224L215.767 270.726C215.453 268.662 213.921 267.522 211.607 267.718C209.624 267.886 208.387 269.202 208.372 270.786L210.666 270.592C210.785 270.074 211.146 269.731 211.826 269.673C212.798 269.59 213.336 270.15 213.448 270.884L213.545 271.52C213.157 271.299 212.244 271.122 211.486 271.187C209.6 271.347 208.293 272.591 208.542 274.231C208.815 276.025 210.446 276.903 212.195 276.754C213.148 276.673 213.973 276.271 214.22 275.957L214.291 276.42L216.604 276.224ZM213.932 274.067C213.789 274.548 213.172 274.893 212.472 274.952C211.714 275.017 210.89 274.774 210.775 274.022C210.663 273.289 211.391 272.895 212.149 272.83C212.849 272.771 213.554 273.004 213.839 273.449L213.932 274.067ZM224.221 275.578L227.078 275.335L222.669 270.688L225.63 266.724L222.636 266.978L220.149 270.432L219.065 263.314L216.655 263.518L218.563 276.058L220.974 275.853L220.56 273.133L221.145 272.321L224.221 275.578ZM214.051 296.63C213.968 297.379 213.419 297.777 212.602 297.847C211.533 297.937 210.677 297.228 210.402 295.943L216.195 295.451L216.084 294.718C215.699 292.191 214.032 290.554 211.485 290.77C209.055 290.976 207.596 293.035 207.993 295.639C208.398 298.301 210.368 299.99 212.896 299.776C215.073 299.591 216.255 298.299 216.287 296.44L214.051 296.63ZM211.801 292.717C212.793 292.633 213.446 293.3 213.603 294.205L210.24 294.491C210.293 293.412 210.868 292.796 211.801 292.717Z" fill="white"/>
</g>
<path fill-rule="evenodd" clip-rule="evenodd" d="M236.876 -327.162C254.171 -328.774 260.702 -327.391 267.524 -324.358C274.426 -321.29 280.19 -316.381 284.561 -309.848C288.838 -303.456 291.592 -296.986 294.145 -278.872L294.222 -278.32L375.28 305.201C377.854 323.736 376.952 330.614 374.513 337.701C372.046 344.871 367.775 350.716 361.892 354.976C356.134 359.144 350.21 361.685 333.311 363.299L332.796 363.348L119.067 383.269C101.772 384.881 95.2409 383.498 88.4186 380.465C81.5168 377.397 75.7528 372.488 71.3822 365.955C67.1051 359.562 64.3512 353.093 61.7983 334.979L61.721 334.427L-19.3367 -249.094C-21.9115 -267.629 -21.0086 -274.507 -18.5699 -281.594C-16.1027 -288.764 -11.8325 -294.609 -5.9487 -298.869C-0.190804 -303.037 5.73271 -305.578 22.6319 -307.192L23.1474 -307.241L236.876 -327.162ZM21.1871 -292.961L20.91 -292.934C12.4242 -292.064 5.2415 -287.664 0.439781 -281.21C-4.4216 -274.675 -6.84266 -266.035 -5.70462 -256.82L-5.63014 -256.252L77.0411 338.884L77.0836 339.181C78.4218 348.28 83.0036 356.206 89.3743 361.719C95.8241 367.301 104.107 370.41 112.715 369.76L113.244 369.715L334.756 349.068L335.033 349.041C343.519 348.171 350.701 343.771 355.503 337.317C360.365 330.782 362.786 322.142 361.648 312.927L361.573 312.359L278.902 -282.777L278.86 -283.071C277.507 -292.272 272.838 -300.274 266.356 -305.794C259.805 -311.374 251.403 -314.419 242.702 -313.608L211.958 -310.743L213.976 -296.212L214.008 -295.974C214.587 -291.372 213.402 -287.053 211.002 -283.768C208.561 -280.427 204.863 -278.156 200.486 -277.748L72.1598 -265.787L71.9374 -265.768C67.64 -265.432 63.5006 -266.959 60.2612 -269.718L60.0944 -269.862C56.8863 -272.663 54.5909 -276.685 53.9504 -281.297L51.9319 -295.827L21.1871 -292.961Z" fill="#E3E9F0" stroke="black" stroke-opacity="0.03" stroke-width="2.03431"/>
<path opacity="0.2" d="M749.666 526.351C686.61 548.82 694.919 506.152 611.025 539.846C527.13 573.54 504.033 552.227 459.182 494.696C414.332 437.165 353.761 389.239 365.815 367.44C377.869 345.642 276.627 306.902 270.882 262.228L564.993 356.009L749.666 526.351Z" fill="black" fill-opacity="0.7"/>
<path d="M907.197 361.891C899.23 358.099 890.68 353.799 883.18 349.618C873.475 344.194 865.745 339.819 854.894 336.655C853.174 336.145 851.348 335.62 849.357 335.08C837.983 331.9 822.414 327.55 806.756 318.635C796.21 312.627 777.579 290.27 759.435 268.676C746.438 253.133 734.126 238.517 726 231.403L723.142 228.857C701.929 210.21 657.782 171.419 641.942 164.45C626.59 157.81 621.049 160.156 611.02 164.506C609.955 164.924 608.921 165.372 607.71 165.881C603.897 167.465 596.932 169.706 588.899 172.275C570.789 178.071 548.248 185.287 539.873 191.942C532.136 198.263 525.487 205.801 520.174 214.276C503.662 216.451 478.637 223.141 473.82 227.703C469.845 231.398 464.11 242.335 461.471 247.677L460.16 250.385C455.602 250.961 451.107 251.899 446.719 253.191C446.422 253.28 446.156 253.4 445.92 253.49C438.562 256.598 430.747 264.496 426.646 268.969C425.368 270.285 424.505 271.452 424.101 271.961C403.114 267.518 382.32 263 373.224 260.989C354.157 256.697 282.948 231.569 282.252 231.329C282.163 231.294 282.068 231.28 281.974 231.291C281.881 231.301 281.792 231.335 281.715 231.389C281.638 231.448 281.57 231.519 281.512 231.598C279.275 232.854 263.256 242.543 271.16 260.373C279.74 279.821 318.661 301.816 337.645 304.806C346.784 306.248 379.053 317.299 412.236 328.948C412.198 334.201 411.78 376.124 405.383 390.458C400.135 402.189 447.83 444.605 486.122 478.663C500.273 491.229 512.428 502.058 519.292 509.022C532.557 522.5 574.47 516.703 615.054 511.04C651.738 506.004 689.716 500.713 704.461 510.107C708.594 512.758 713.343 513.48 718.824 514.156C727.937 515.255 739.108 516.114 752.92 525.298C757.056 528.069 766.96 527.057 778.687 529.998L931.175 372.876C926.247 370.643 917.182 366.657 907.197 361.891ZM452.179 343.011C475.99 351.362 490.329 356.146 492.526 356.072C494.723 355.999 499.857 361.135 504.896 366.092C509.174 370.57 513.762 374.74 518.626 378.568C518.505 382.056 518.121 404.446 524.732 415.466L503.016 413.687L462.728 379.403C462.547 376.319 461.339 355.26 452.179 343.011Z" fill="white"/>
<path opacity="0.4" d="M703.969 504.39C700.974 500.146 684.575 495.581 677.732 493.925C662.144 490.119 534.601 497.947 527.666 472.086C520.73 446.225 541.628 449.096 548.729 443.92C553.822 440.201 558.193 420.629 557.508 420.078C543.462 409.128 546.247 389.719 546.247 389.719C546.247 389.719 494.723 341.606 493.041 345.059C491.359 348.511 384.274 305.203 384.274 305.203C384.274 305.203 306.853 294.23 287.531 271.785C268.21 249.341 281.777 234.612 281.777 234.612L281.211 234.061C278.988 235.31 263.07 244.946 270.924 262.68C279.45 282.022 318.126 303.898 336.99 306.872C346.071 308.306 378.136 319.296 411.11 330.883C411.072 336.107 410.656 377.802 404.3 392.059C399.085 403.727 446.479 445.912 484.529 479.785C498.591 492.283 510.669 503.053 517.49 509.979C530.672 523.384 572.319 517.619 612.648 511.986C649.1 506.977 686.838 501.715 701.49 511.058C705.597 513.695 710.316 514.412 715.762 515.086C711.522 511.881 707.574 508.301 703.969 504.39ZM450.982 344.959C474.642 353.265 488.891 358.022 491.074 357.949C493.257 357.876 498.359 362.985 503.366 367.915C507.617 372.368 512.176 376.515 517.009 380.323C516.889 383.791 516.508 406.06 523.076 417.02L501.498 415.251L461.464 381.153C461.238 378.041 460.038 357.096 450.936 344.914L450.982 344.959Z" fill="#E3E9F0"/>
<path d="M100.766 59.1109C102.951 58.8624 104.197 57.5786 103.956 55.4644C103.714 53.3327 102.213 52.3791 100.029 52.6277L95.9767 53.0886L97.2073 63.9059L98.5991 63.7475L98.1061 59.4136L100.766 59.1109ZM102.582 55.6208C102.72 56.8364 102.053 57.7154 100.591 57.8817L97.9658 58.1804L97.5068 54.1459L100.132 53.8473C101.594 53.6809 102.442 54.3875 102.582 55.6208ZM112.348 58.2217C112.075 55.8257 110.423 54.3184 108.291 54.5609C106.141 54.8054 104.887 56.6434 105.16 59.0394C105.432 61.4354 107.067 62.9447 109.217 62.7002C111.349 62.4577 112.62 60.6177 112.348 58.2217ZM111.009 58.374C111.203 60.0829 110.494 61.3771 109.085 61.5375C107.675 61.6978 106.693 60.596 106.499 58.8871C106.304 57.1782 107.014 55.884 108.423 55.7236C109.833 55.5633 110.814 56.6651 111.009 58.374ZM114.6 50.3275L113.279 50.4778L114.582 61.9293L115.903 61.779L114.6 50.3275ZM123.408 60.9252L125.029 60.7408L120.877 56.716L124.015 52.9326L122.271 53.131L119.09 57.0085L118.282 49.9086L116.961 50.059L118.263 61.5104L119.585 61.3601L119.266 58.5589L120.02 57.6523L123.408 60.9252ZM131.988 59.949L131.395 54.7342C131.2 53.0253 129.97 52.0945 128.103 52.307C126.605 52.4773 125.545 53.5081 125.431 54.8595L126.735 54.7112C126.899 53.9608 127.387 53.5483 128.215 53.4541C129.343 53.3258 130.022 53.9624 130.132 54.9314L130.245 55.918C129.876 55.6565 129.01 55.416 128.199 55.5082C126.526 55.6986 125.317 56.8355 125.483 58.2978C125.659 59.8481 127.089 60.6492 128.674 60.4688C129.608 60.3626 130.39 59.8631 130.654 59.512L130.72 60.0933L131.988 59.949ZM130.499 58.1554C130.336 58.7628 129.588 59.2406 128.777 59.3328C127.826 59.441 126.86 59.1048 126.751 58.1535C126.645 57.2197 127.513 56.6927 128.465 56.5845C129.275 56.4923 130.112 56.7897 130.407 57.345L130.499 58.1554ZM139.409 59.1048L140.748 58.9525L139.445 47.5011L138.106 47.6534L138.623 52.1987C138.171 51.6791 137.267 51.2644 136.298 51.3746C134.008 51.6351 132.987 53.6429 133.238 55.8451C133.49 58.0649 134.934 59.7745 137.224 59.5139C138.193 59.4037 138.981 58.7966 139.304 58.1887L139.409 59.1048ZM139.144 56.7793C138.831 57.6358 138.11 58.1997 137.282 58.2939C135.784 58.4643 134.765 57.3489 134.577 55.6928C134.388 54.0367 135.131 52.7209 136.629 52.5505C137.457 52.4563 138.286 52.8438 138.783 53.6081L139.144 56.7793ZM147.756 55.7817C147.645 56.6866 146.979 57.2621 146.01 57.3723C144.689 57.5227 143.639 56.6071 143.431 54.9354L148.962 54.3061L148.908 53.8304C148.65 51.5577 147.326 50.12 145.177 50.3645C143.045 50.6071 141.817 52.5135 142.083 54.8567C142.358 57.2703 144.006 58.7424 146.138 58.4999C147.9 58.2994 148.894 57.1514 149.007 55.6394L147.756 55.7817ZM145.323 51.4901C146.626 51.3417 147.359 52.2934 147.509 53.4542L143.351 53.9272C143.389 52.531 144.142 51.6243 145.323 51.4901ZM156.334 49.2559L154.889 49.4202L153.182 52.4519L150.89 49.8752L149.375 50.0475L152.541 53.5599L150.106 57.8878L151.533 57.7255L153.371 54.4291L155.885 57.2304L157.382 57.0601L154.015 53.3387L156.334 49.2559ZM168.568 55.7875L171.013 47.1576L171.951 55.4027L173.272 55.2524L172.042 44.4351L170.526 44.6075L167.89 53.9017L163.215 45.4393L161.647 45.6177L162.878 56.4349L164.199 56.2846L163.261 48.0395L167.617 55.8957L168.568 55.7875ZM181.417 54.3257L180.824 49.1109C180.63 47.402 179.399 46.4712 177.532 46.6837C176.034 46.854 174.974 47.8848 174.86 49.2362L176.164 49.0879C176.328 48.3375 176.817 47.925 177.645 47.8308C178.772 47.7025 179.451 48.3391 179.562 49.3081L179.674 50.2947C179.305 50.0332 178.439 49.7927 177.628 49.8849C175.955 50.0753 174.746 51.2122 174.912 52.6745C175.088 54.2248 176.518 55.0259 178.104 54.8455C179.037 54.7392 179.819 54.2398 180.083 53.8887L180.149 54.47L181.417 54.3257ZM179.928 52.5321C179.765 53.1395 179.017 53.6173 178.206 53.7095C177.255 53.8177 176.289 53.4815 176.181 52.5302C176.074 51.5964 176.942 51.0694 177.894 50.9612C178.704 50.869 179.541 51.1664 179.836 51.7217L179.928 52.5321ZM184.107 46.0962L182.786 46.2466L183.676 54.0688L184.997 53.9185L184.107 46.0962ZM184.032 43.7134C183.978 43.2378 183.549 42.9119 183.073 42.966C182.615 43.0181 182.269 43.4322 182.324 43.9078C182.376 44.3659 182.807 44.7094 183.265 44.6573C183.741 44.6032 184.085 44.1715 184.032 43.7134ZM187.358 53.6499L188.679 53.4996L188.076 48.1967C188.261 47.319 188.984 46.6122 189.9 46.508C191.08 46.3737 191.713 47.0691 191.837 48.1614L192.396 53.0767L193.735 52.9244L193.152 47.7977C192.957 46.0887 191.858 45.0538 190.079 45.2563C189.075 45.3705 188.289 45.9952 187.901 46.664L187.789 45.6774L186.468 45.8277L187.358 53.6499ZM207.144 40.4417L205.823 40.592L206.759 48.8194L200.062 41.2474L198.74 41.3977L199.971 52.2149L201.31 52.0626L200.332 43.4652L207.353 51.3752L208.375 51.2589L207.144 40.4417ZM215.508 48.0739C215.397 48.9788 214.731 49.5543 213.762 49.6645C212.441 49.8148 211.391 48.8992 211.183 47.2276L216.715 46.5982L216.661 46.1226C216.402 43.8499 215.078 42.4122 212.929 42.6567C210.797 42.8992 209.569 44.8057 209.835 47.1489C210.11 49.5625 211.759 51.0346 213.89 50.792C215.652 50.5916 216.646 49.4435 216.759 47.9316L215.508 48.0739ZM213.075 43.7822C214.379 43.6339 215.112 44.5856 215.261 45.7463L211.104 46.2194C211.141 44.8231 211.895 43.9165 213.075 43.7822ZM219.039 48.0469C219.204 49.4916 220.163 50.0785 221.431 49.9342C221.907 49.88 222.353 49.7222 222.634 49.5296L222.494 48.2964C222.25 48.5026 221.878 48.6876 221.508 48.7297C220.839 48.8059 220.431 48.5132 220.345 47.7557L219.823 43.1751L221.709 42.9606L221.58 41.8331L219.695 42.0476L219.461 39.9863L218.139 40.1366L218.374 42.1979L217.105 42.3422L217.234 43.4697L218.502 43.3254L219.039 48.0469ZM228.443 41.0524L227.263 41.1866L226.339 47.3414L223.933 41.5654L222.612 41.7158L225.81 49.2754L227.096 49.1291L228.059 43.0056L230.355 48.7583L231.641 48.612L233.059 40.5272L231.773 40.6735L230.726 46.8423L228.443 41.0524ZM241.624 43.5146C241.351 41.1186 239.699 39.6113 237.567 39.8538C235.418 40.0983 234.163 41.9363 234.436 44.3323C234.709 46.7283 236.344 48.2376 238.493 47.9931C240.625 47.7506 241.897 45.9106 241.624 43.5146ZM240.285 43.6669C240.48 45.3758 239.77 46.67 238.361 46.8304C236.951 46.9907 235.969 45.8889 235.775 44.18C235.581 42.4711 236.29 41.1769 237.699 41.0165C239.109 40.8562 240.091 41.958 240.285 43.6669ZM246.981 38.9077C246.832 38.8533 246.544 38.8325 246.209 38.8706C245.346 38.9688 244.664 39.5639 244.406 40.2714L244.289 39.2496L242.968 39.3999L243.858 47.2222L245.179 47.0719L244.582 41.8218C244.742 40.8756 245.402 40.2473 246.23 40.1531C246.565 40.115 246.908 40.1474 247.135 40.2643L246.981 38.9077ZM254.663 45.993L256.283 45.8086L252.131 41.7838L255.27 38.0004L253.526 38.1988L250.344 42.0763L249.537 34.9764L248.215 35.1268L249.518 46.5782L250.84 46.4279L250.521 43.6267L251.274 42.7201L254.663 45.993Z" fill="#1C1C26"/>
<path d="M98.5546 81.0295L99.6206 80.9083L99.1339 76.6304C99.2837 75.9223 99.8666 75.3521 100.606 75.268C101.558 75.1597 102.068 75.7207 102.168 76.6019L102.619 80.5671L103.699 80.4442L103.229 76.3085C103.072 74.9299 102.185 74.095 100.75 74.2583C99.9398 74.3505 99.3061 74.8544 98.9932 75.3939L98.9027 74.598L97.8367 74.7193L98.5546 81.0295ZM110.493 76.4754C110.273 74.5425 108.94 73.3266 107.22 73.5222C105.486 73.7195 104.474 75.2022 104.694 77.1351C104.914 79.068 106.233 80.2855 107.967 80.0883C109.687 79.8927 110.713 78.4083 110.493 76.4754ZM109.413 76.5983C109.57 77.9769 108.997 79.0209 107.86 79.1503C106.723 79.2796 105.931 78.3908 105.775 77.0122C105.618 75.6336 106.19 74.5896 107.327 74.4602C108.464 74.3309 109.256 75.2197 109.413 76.5983ZM116.487 78.9895L117.567 78.8666L116.516 69.6286L115.436 69.7515L115.853 73.4182C115.489 72.999 114.76 72.6645 113.978 72.7534C112.13 72.9636 111.307 74.5833 111.509 76.3598C111.713 78.1506 112.877 79.5297 114.725 79.3195C115.507 79.2306 116.142 78.7408 116.403 78.2504L116.487 78.9895ZM116.274 77.1134C116.021 77.8044 115.439 78.2593 114.771 78.3353C113.563 78.4727 112.741 77.5729 112.589 76.2369C112.437 74.901 113.036 73.8395 114.244 73.702C114.912 73.6261 115.581 73.9386 115.983 74.5552L116.274 77.1134ZM123.221 76.3087C123.131 77.0387 122.594 77.5029 121.812 77.5918C120.746 77.7131 119.899 76.9745 119.732 75.6259L124.194 75.1182L124.151 74.7345C123.942 72.9011 122.874 71.7413 121.14 71.9386C119.421 72.1342 118.43 73.6722 118.645 75.5624C118.866 77.5095 120.196 78.6971 121.916 78.5014C123.337 78.3397 124.139 77.4136 124.23 76.1939L123.221 76.3087ZM121.258 72.8465C122.31 72.7269 122.901 73.4946 123.022 74.431L119.668 74.8126C119.698 73.6862 120.306 72.9549 121.258 72.8465ZM125.165 79.2115L126.231 79.0902L128.569 68.2574L127.503 68.3787L125.165 79.2115ZM133.714 70.5657C133.808 71.39 133.18 72.1957 132.384 73.294L129.922 76.7124L130.006 77.4515L135.705 76.8031L135.592 75.8082L131.428 76.282L133.369 73.5994C134.137 72.5043 134.919 71.5371 134.793 70.4286C134.623 68.9363 133.518 68.083 131.856 68.2722C130.25 68.4549 129.297 69.7006 129.311 71.3402L130.462 71.2092C130.433 70.1904 130.917 69.3867 131.969 69.2671C132.935 69.1571 133.613 69.6703 133.714 70.5657ZM141.093 68.229L140.995 67.362L135.353 68.0039L135.466 68.9988L139.957 68.4879L137.752 76.5702L138.875 76.4425L141.093 68.229ZM144.551 71.7514L145.162 71.6819C146.157 71.5687 147.005 72.0625 147.117 73.0431C147.227 74.0095 146.587 74.7157 145.55 74.8338C144.455 74.9583 143.715 74.3947 143.444 73.4034L142.349 73.5279C142.671 75.0893 143.969 75.9926 145.674 75.7986C147.422 75.5997 148.344 74.3431 148.181 72.9076C148.07 71.927 147.384 71.2132 146.415 71.0499C147.183 70.7177 147.663 69.8714 147.553 68.9049C147.395 67.5121 146.287 66.6305 144.624 66.8196C143.075 66.9959 142.127 68.1546 142.082 69.657L143.176 69.5325C143.2 68.6083 143.753 67.8976 144.734 67.7861C145.714 67.6745 146.398 68.2445 146.494 69.0831C146.6 70.0211 145.95 70.6278 145.026 70.7329L144.443 70.7992L144.551 71.7514ZM165.22 70.0622L163.771 70.2271L164.021 68.1256L165.4 67.9687L165.475 67.1108L164.125 67.2644L164.437 64.6951L163.485 64.8035L163.158 67.3744L161.154 67.6023L161.481 65.0314L160.514 65.1414L160.202 67.7107L158.724 67.8788L158.649 68.7367L160.099 68.5718L159.848 70.6734L158.47 70.8302L158.38 71.6898L159.745 71.5345L159.432 74.1038L160.384 73.9955L160.697 71.4262L162.701 71.1982L162.388 73.7675L163.355 73.6576L163.667 71.0883L165.145 70.9201L165.22 70.0622ZM161.051 68.4635L163.055 68.2355L162.804 70.3371L160.8 70.565L161.051 68.4635ZM169.142 64.1455L168.474 64.2215L166.038 65.8375L166.167 66.9745L168.201 65.6201L169.042 73.0105L170.136 72.886L169.142 64.1455ZM171.562 74.2643L172.286 74.1818L172.897 72.8455C173.037 72.556 173.142 72.213 173.108 71.9145C173.048 71.3887 172.688 71.1274 172.261 71.1759C171.835 71.2244 171.529 71.5759 171.579 72.0165C171.626 72.4286 171.924 72.6395 172.286 72.6559L171.562 74.2643ZM177.892 65.5398C177.986 66.3641 177.358 67.1698 176.561 68.2681L174.1 71.6866L174.184 72.4256L179.883 71.7772L179.77 70.7824L175.605 71.2561L177.546 68.5736C178.314 67.4785 179.097 66.5113 178.97 65.4027C178.801 63.9104 177.696 63.0572 176.033 63.2463C174.427 63.4291 173.475 64.6747 173.488 66.3143L174.64 66.1833C174.61 65.1646 175.095 64.3609 176.146 64.2412C177.113 64.1313 177.79 64.6444 177.892 65.5398ZM184.92 65.1865C185.054 66.3662 184.365 67.2652 183.256 67.3913C182.162 67.5158 181.286 66.7804 181.154 65.615C181.023 64.4638 181.712 63.5648 182.807 63.4403C183.93 63.3126 184.791 64.0496 184.92 65.1865ZM180.689 69.6269C181.182 70.924 182.114 71.6529 183.649 71.4783C185.539 71.2633 186.64 69.2954 186.318 66.4671C186.202 65.4438 185.961 64.593 185.503 63.8534C184.838 62.8205 183.85 62.3571 182.713 62.4864C180.922 62.6902 179.935 64.1413 180.118 65.7473C180.297 67.3248 181.585 68.5172 183.276 68.3248C184.299 68.2084 185.125 67.4954 185.309 66.5819C185.319 66.6672 185.357 66.8787 185.367 66.964C185.58 68.84 184.823 70.409 183.544 70.5545C182.663 70.6548 182.123 70.2123 181.797 69.5008L180.689 69.6269ZM191.239 70.6149C193.186 70.3934 194.285 68.4113 193.982 65.7536C193.68 63.0959 192.164 61.4112 190.217 61.6327C188.27 61.8543 187.171 63.8364 187.473 66.4941C187.775 69.1518 189.291 70.8364 191.239 70.6149ZM190.332 62.6418C191.739 62.4817 192.657 63.8457 192.888 65.8781C193.119 67.9104 192.531 69.4458 191.124 69.6058C189.703 69.7675 188.799 68.402 188.567 66.3696C188.336 64.3372 188.91 62.8035 190.332 62.6418ZM194.976 71.6006L195.701 71.5181L196.312 70.1817C196.451 69.8923 196.556 69.5493 196.522 69.2508C196.463 68.7249 196.102 68.4637 195.675 68.5122C195.249 68.5607 194.944 68.9122 194.994 69.3527C195.041 69.7649 195.338 69.9758 195.7 69.9922L194.976 71.6006ZM201.871 61.3147L201.772 60.4477L196.13 61.0896L196.243 62.0845L200.734 61.5736L198.529 69.6559L199.652 69.5282L201.871 61.3147ZM206.659 59.8917L205.522 60.021L202.846 66.3576L202.936 67.1535L206.958 66.6959L207.183 68.6714L208.221 68.5534L207.996 66.5779L209.531 66.4032L209.424 65.4652L207.889 65.6399L207.65 63.5364L206.612 63.6545L206.852 65.7579L204.066 66.0748L206.659 59.8917ZM213.011 63.2576C214.077 63.1363 214.898 63.8924 215.022 64.9868C215.147 66.0811 214.516 66.9879 213.464 67.1075C212.369 67.232 211.673 66.6778 211.372 65.6756L210.277 65.8001C210.661 67.3976 211.911 68.2631 213.574 68.074C215.222 67.8864 216.261 66.5157 216.074 64.8671C215.883 63.1901 214.607 62.0971 213.001 62.2798C212.29 62.3607 211.74 62.7112 211.472 63.0152L211.173 60.3859L215.01 59.9494L214.897 58.9545L210.122 59.4978L210.667 64.2873L211.548 64.1871C211.83 63.752 212.315 63.3368 213.011 63.2576Z" fill="#656576"/>
<circle cx="66.7974" cy="70.0015" r="22.4096" transform="rotate(-5.67116 66.7974 70.0015)" fill="white" stroke="#E3E9F0" stroke-width="0.953599"/>
<path d="M81.3448 79.7659L80.9521 75.8117L73.5264 69.7276L69.5722 70.1202L81.3448 79.7659Z" fill="#1C1C26"/>
<path d="M57.2554 85.1509L61.162 84.7629L67.1454 77.515L74.3899 83.4493L78.3865 83.0524L66.7527 73.5608L57.2554 85.1509Z" fill="#1C1C26"/>
<path d="M51.5386 61.0938L51.9312 65.0479L59.357 71.1321L63.3111 70.7394L51.5386 61.0938Z" fill="#1C1C26"/>
<path d="M75.6287 55.7087L71.722 56.0966L65.7386 63.3446L58.4941 57.4102L54.4975 57.8071L66.1313 67.2987L75.6287 55.7087Z" fill="#1C1C26"/>
<path d="M66.652 72.2366C67.6703 72.1354 68.4138 71.228 68.3127 70.2097C68.2116 69.1914 67.3041 68.4478 66.2858 68.549C65.2675 68.6501 64.524 69.5576 64.6251 70.5759C64.7262 71.5942 65.6337 72.3377 66.652 72.2366Z" fill="#E6007A"/>
<circle cx="153.575" cy="69.0478" r="0.953599" fill="#656576"/>
</g>
<circle cx="182.417" cy="299.342" r="288.941" stroke="#E3E9F0" stroke-width="0.953599"/>
</g>
<defs>
<filter id="filter0_f_14_944" x="-88.0496" y="-373.512" width="532.018" height="828.111" filterUnits="userSpaceOnUse" color-interpolation-filters="sRGB">
<feFlood flood-opacity="0" result="BackgroundImageFix"/>
<feBlend mode="normal" in="SourceGraphic" in2="BackgroundImageFix" result="shape"/>
<feGaussianBlur stdDeviation="20.3431" result="effect1_foregroundBlur_14_944"/>
</filter>
<filter id="filter1_d_14_944" x="-70.6694" y="-239.933" width="451.232" height="271.991" filterUnits="userSpaceOnUse" color-interpolation-filters="sRGB">
<feFlood flood-opacity="0" result="BackgroundImageFix"/>
<feColorMatrix in="SourceAlpha" type="matrix" values="0 0 0 0 0 0 0 0 0 0 0 0 0 0 0 0 0 0 127 0" result="hardAlpha"/>
<feOffset dy="21.9706"/>
<feGaussianBlur stdDeviation="24.4117"/>
<feColorMatrix type="matrix" values="0 0 0 0 0 0 0 0 0 0 0 0 0 0 0 0 0 0 0.132841 0"/>
<feBlend mode="normal" in2="BackgroundImageFix" result="effect1_dropShadow_14_944"/>
<feBlend mode="normal" in="SourceGraphic" in2="effect1_dropShadow_14_944" result="shape"/>
</filter>
<linearGradient id="paint0_linear_14_944" x1="127.803" y1="-319.464" x2="194.995" y2="403.63" gradientUnits="userSpaceOnUse">
<stop stop-color="#ABB2C4" stop-opacity="0.238649"/>
<stop offset="1" stop-color="#737A91" stop-opacity="0.331635"/>
</linearGradient>
</defs>
</svg>
