<svg width="1511" height="411" viewBox="0 0 1511 411" fill="none" xmlns="http://www.w3.org/2000/svg">
<mask id="mask0_330_8472" style="mask-type:alpha" maskUnits="userSpaceOnUse" x="-1" y="0" width="1512" height="376">
<rect x="-1" width="1512" height="376" fill="#D9D9D9"/>
</mask>
<g mask="url(#mask0_330_8472)">
<g filter="url(#filter0_d_330_8472)">
<path d="M116.233 311.511C78.804 315.891 14.8392 313.336 -7.5 311.511V384.089H1293.04C1134.93 289.612 1177.63 295.147 1125.71 211.703C1116.02 196.121 1110.12 214.651 1097.05 229.39C1083.98 244.13 1054.06 264.765 1043.1 250.447C1032.14 236.128 1026.24 250.868 1022.45 261.818C1018.65 272.767 986.197 286.243 961.75 275.294C937.303 264.344 930.559 268.556 925.923 273.609C921.287 278.663 913.278 286.664 901.476 271.504C889.675 256.343 874.501 277.821 861.013 276.978C847.525 276.136 830.244 279.926 826.029 289.612C821.814 299.298 816.756 295.929 799.053 289.612C781.351 283.295 765.755 289.191 751.846 298.877C737.937 308.563 745.523 298.877 721.498 298.877C697.473 298.877 676.82 311.511 639.729 306.458C602.637 301.404 588.306 306.458 563.438 311.511C538.57 316.565 348.897 324.566 331.616 314.459C314.335 304.352 163.018 306.037 116.233 311.511Z" fill="#1C1C26"/>
</g>
</g>
<path d="M-2 306.5C20.3392 308.325 77.3748 309.219 114.803 304.84C161.589 299.365 312.906 297.68 330.187 307.788C347.468 317.895 537.141 309.893 562.009 304.84C586.877 299.786 601.208 294.732 638.299 299.786C675.391 304.84 696.044 292.206 720.069 292.206C744.094 292.206 736.507 301.892 750.417 292.206C764.326 282.52 779.921 276.624 797.624 282.941C815.327 289.258 820.385 292.627 824.6 282.941C828.815 273.255 846.096 269.464 859.584 270.307C873.072 271.149 888.245 249.671 900.047 264.832C911.849 279.993 919.857 271.991 924.494 266.938C929.13 261.884 935.874 257.673 960.321 268.622C984.768 279.572 1017.22 266.095 1021.02 255.146C1024.81 244.196 1030.71 229.457 1041.67 243.775C1052.63 258.094 1082.55 237.458 1095.62 222.718C1108.69 207.979 1114.59 189.449 1124.28 205.031C1133.98 220.613 1157.16 206.294 1167.7 177.236C1178.23 148.178 1205.63 125.015 1208.16 149.441C1210.69 173.867 1264.64 103.959 1273.91 77.0062C1281.33 55.4441 1286.69 47.1845 1289.5 45.5" stroke="#8BA1BE" stroke-opacity="0.2" stroke-width="4"/>
<path d="M113.803 306.511C76.3748 310.891 22.3392 308.336 0 306.511V410.521H1290.62V46.6718C1287.81 48.3563 1280.33 57.1159 1272.91 78.6779C1263.64 105.631 1209.69 175.539 1207.16 151.113C1204.63 126.687 1177.23 149.85 1166.7 178.908C1156.16 207.966 1132.98 222.285 1123.28 206.703C1113.59 191.121 1107.69 209.651 1094.62 224.39C1081.55 239.13 1051.63 259.766 1040.67 245.447C1029.71 231.128 1023.81 245.868 1020.02 256.818C1016.22 267.767 983.767 281.243 959.321 270.294C934.874 259.344 928.13 263.556 923.494 268.609C918.857 273.663 910.849 281.664 899.047 266.504C887.245 251.343 872.072 272.821 858.584 271.978C845.096 271.136 827.815 274.926 823.6 284.612C819.385 294.298 814.327 290.929 796.624 284.612C778.921 278.295 763.326 284.191 749.417 293.877C735.507 303.563 743.094 293.877 719.069 293.877C695.044 293.877 674.391 306.511 637.299 301.458C600.208 296.404 585.877 301.458 561.009 306.511C536.141 311.565 346.468 319.566 329.187 309.459C311.906 299.352 160.589 301.037 113.803 306.511Z" fill="#1C1C26"/>
<circle cx="1292.76" cy="42.7624" r="4.76242" fill="#8BA1BE" fill-opacity="0.2"/>
<defs>
<filter id="filter0_d_330_8472" x="-375.5" y="-78.2047" width="1800.54" height="678.293" filterUnits="userSpaceOnUse" color-interpolation-filters="sRGB">
<feFlood flood-opacity="0" result="BackgroundImageFix"/>
<feColorMatrix in="SourceAlpha" type="matrix" values="0 0 0 0 0 0 0 0 0 0 0 0 0 0 0 0 0 0 127 0" result="hardAlpha"/>
<feOffset dx="-118" dy="-34"/>
<feGaussianBlur stdDeviation="125"/>
<feComposite in2="hardAlpha" operator="out"/>
<feColorMatrix type="matrix" values="0 0 0 0 0.901961 0 0 0 0 0 0 0 0 0 0.478431 0 0 0 0.72 0"/>
<feBlend mode="normal" in2="BackgroundImageFix" result="effect1_dropShadow_330_8472"/>
<feBlend mode="normal" in="SourceGraphic" in2="effect1_dropShadow_330_8472" result="shape"/>
</filter>
</defs>
</svg>
