<svg width="1203" height="461" viewBox="0 0 1203 461" fill="none" xmlns="http://www.w3.org/2000/svg">
<rect opacity="0.4" width="144.421" height="144.421" rx="15.3543" transform="matrix(0.866025 0.5 -0.866025 0.5 134.072 151.677)" fill="#8BA1BE" fill-opacity="0.2"/>
<path fill-rule="evenodd" clip-rule="evenodd" d="M14.0648 189.207C6.72094 184.967 0.767578 188.404 0.767578 196.884V211.604C0.767578 215.844 3.74425 220.999 7.41616 223.119L112.702 283.906C115.395 285.461 117.9 285.983 119.994 285.603C122.874 285.804 126.195 284.949 129.731 282.908L229.837 225.112C233.509 222.992 236.485 217.836 236.485 213.596V197.01C236.485 188.53 230.532 185.093 223.188 189.333L118.735 249.639L14.0648 189.207Z" fill="white"/>
<path d="M14.0648 189.207L13.8728 189.54L14.0648 189.207ZM7.41616 223.119L7.22424 223.452L7.41616 223.119ZM112.702 283.906L112.51 284.238L112.702 283.906ZM119.994 285.603L120.021 285.221L119.973 285.217L119.926 285.226L119.994 285.603ZM129.731 282.908L129.923 283.24L129.731 282.908ZM229.837 225.112L230.029 225.445L229.837 225.112ZM223.188 189.333L223.38 189.665V189.665L223.188 189.333ZM118.735 249.639L118.543 249.971L118.735 250.082L118.927 249.971L118.735 249.639ZM1.15144 196.884C1.15144 192.725 2.60847 189.905 4.85417 188.608C7.09986 187.312 10.2709 187.46 13.8728 189.54L14.2567 188.875C10.5149 186.714 7.03725 186.461 4.47031 187.943C1.90336 189.425 0.383721 192.564 0.383721 196.884H1.15144ZM1.15144 211.604V196.884H0.383721V211.604H1.15144ZM7.60809 222.787C5.84422 221.769 4.22573 220.006 3.04733 217.965C1.86894 215.924 1.15144 213.64 1.15144 211.604H0.383721C0.383721 213.807 1.15455 216.222 2.38247 218.348C3.61039 220.475 5.31619 222.35 7.22424 223.452L7.60809 222.787ZM112.894 283.574L7.60809 222.787L7.22424 223.452L112.51 284.238L112.894 283.574ZM119.926 285.226C117.947 285.585 115.533 285.098 112.894 283.574L112.51 284.238C115.256 285.824 117.854 286.382 120.063 285.981L119.926 285.226ZM129.539 282.575C126.051 284.59 122.805 285.415 120.021 285.221L119.968 285.986C122.943 286.194 126.34 285.309 129.923 283.24L129.539 282.575ZM229.645 224.78L129.539 282.575L129.923 283.24L230.029 225.445L229.645 224.78ZM236.101 213.596C236.101 215.633 235.384 217.916 234.205 219.957C233.027 221.998 231.409 223.761 229.645 224.78L230.029 225.445C231.937 224.343 233.642 222.468 234.87 220.341C236.098 218.214 236.869 215.8 236.869 213.596H236.101ZM236.101 197.01V213.596H236.869V197.01H236.101ZM223.38 189.665C226.982 187.585 230.153 187.437 232.399 188.734C234.644 190.03 236.101 192.85 236.101 197.01H236.869C236.869 192.689 235.349 189.551 232.783 188.069C230.216 186.587 226.738 186.84 222.996 189L223.38 189.665ZM118.927 249.971L223.38 189.665L222.996 189L118.543 249.306L118.927 249.971ZM13.8728 189.54L118.543 249.971L118.927 249.306L14.2567 188.875L13.8728 189.54Z" fill="black"/>
<path opacity="0.2" d="M0.767578 196.904C0.767578 188.425 6.72093 184.987 14.0648 189.227L125.999 253.853L125.999 276.249C125.999 284.729 120.046 288.166 112.702 283.926L7.41616 223.139C3.74425 221.019 0.767577 215.864 0.767577 211.624L0.767578 196.904Z" fill="black"/>
<path d="M105.774 129.354C113.118 125.114 125.025 125.114 132.369 129.354L230.846 186.21C238.19 190.45 238.19 197.325 230.846 201.565L132.369 258.421C125.025 262.661 113.118 262.661 105.774 258.421L7.29695 201.565C-0.0468893 197.325 -0.0469046 190.45 7.29693 186.21L105.774 129.354Z" fill="white" stroke="black" stroke-width="0.767714"/>
<path d="M194.759 183.319L182.724 176.371L141.571 176.1L129.332 183.167L194.759 183.319Z" fill="#1C1C26"/>
<path d="M44.252 197.459L56.2856 204.407L97.4319 204.683L109.679 197.612L44.252 197.459Z" fill="#1C1C26"/>
<path d="M42.0801 183.87L53.9498 177.017L95.0914 177.07L94.815 153.423L107.217 146.263L107.512 184.24L42.0801 183.87Z" fill="#1C1C26"/>
<path d="M131.782 233.353L143.65 226.501L143.558 202.748L184.516 202.907L196.919 195.746L131.14 195.576L131.782 233.353Z" fill="#1C1C26"/>
<ellipse cx="6.17638" cy="6.26342" rx="6.17638" ry="6.26342" transform="matrix(0.895567 -0.517051 0.895567 0.517051 109.123 190.592)" fill="#E6007A"/>
<rect opacity="0.4" width="98.0524" height="98.0524" rx="15.3543" transform="matrix(0.866026 0.499999 -0.866026 0.499999 384.1 100.045)" fill="#8BA1BE" fill-opacity="0.2"/>
<path fill-rule="evenodd" clip-rule="evenodd" d="M302.622 125.526C297.636 122.647 293.594 124.981 293.594 130.738V140.732C293.594 143.61 295.615 147.111 298.108 148.55L369.59 189.82C371.418 190.876 373.119 191.231 374.541 190.973C376.496 191.109 378.751 190.529 381.152 189.143L449.117 149.903C451.61 148.464 453.631 144.963 453.631 142.084V130.823C453.631 125.066 449.589 122.732 444.603 125.611L373.686 166.555L302.622 125.526Z" fill="white"/>
<path d="M302.622 125.526L302.491 125.751L302.622 125.526ZM298.108 148.55L298.238 148.324L298.108 148.55ZM369.59 189.82L369.72 189.595L369.59 189.82ZM374.541 190.973L374.559 190.713L374.527 190.71L374.495 190.716L374.541 190.973ZM381.152 189.143L381.282 189.368L381.152 189.143ZM449.117 149.903L449.247 150.129L449.117 149.903ZM444.603 125.611L444.473 125.385L444.603 125.611ZM373.686 166.555L373.556 166.78L373.686 166.856L373.816 166.78L373.686 166.555ZM293.854 130.738C293.854 127.914 294.844 125.999 296.368 125.119C297.893 124.239 300.046 124.34 302.491 125.751L302.752 125.3C300.212 123.833 297.85 123.661 296.108 124.668C294.365 125.674 293.333 127.805 293.333 130.738H293.854ZM293.854 140.732V130.738H293.333V140.732H293.854ZM298.238 148.324C297.04 147.633 295.942 146.436 295.142 145.05C294.342 143.664 293.854 142.114 293.854 140.732H293.333C293.333 142.227 293.856 143.867 294.69 145.311C295.524 146.755 296.682 148.028 297.977 148.776L298.238 148.324ZM369.72 189.595L298.238 148.324L297.977 148.776L369.46 190.046L369.72 189.595ZM374.495 190.716C373.151 190.96 371.512 190.629 369.72 189.595L369.46 190.046C371.324 191.122 373.088 191.501 374.588 191.229L374.495 190.716ZM381.021 188.917C378.653 190.284 376.45 190.845 374.559 190.713L374.523 191.233C376.543 191.374 378.849 190.773 381.282 189.368L381.021 188.917ZM448.987 149.677L381.021 188.917L381.282 189.368L449.247 150.129L448.987 149.677ZM453.37 142.084C453.37 143.467 452.883 145.017 452.083 146.403C451.283 147.789 450.184 148.986 448.987 149.677L449.247 150.129C450.543 149.381 451.701 148.108 452.534 146.664C453.368 145.22 453.892 143.58 453.892 142.084H453.37ZM453.37 130.823V142.084H453.892V130.823H453.37ZM444.733 125.836C447.179 124.425 449.332 124.324 450.856 125.204C452.381 126.084 453.37 127.999 453.37 130.823H453.892C453.892 127.89 452.86 125.759 451.117 124.753C449.374 123.747 447.013 123.918 444.473 125.385L444.733 125.836ZM373.816 166.78L444.733 125.836L444.473 125.385L373.556 166.329L373.816 166.78ZM302.491 125.751L373.556 166.78L373.816 166.329L302.752 125.3L302.491 125.751Z" fill="black"/>
<path opacity="0.2" d="M293.594 130.752C293.594 124.994 297.636 122.661 302.622 125.539L378.618 169.416L378.618 184.622C378.618 190.379 374.576 192.712 369.59 189.834L298.108 148.564C295.615 147.124 293.594 143.624 293.594 140.745L293.594 130.752Z" fill="black"/>
<path d="M364.888 84.2121C369.874 81.3334 377.957 81.3334 382.943 84.2121L449.803 122.814C454.789 125.692 454.789 130.36 449.803 133.238L382.943 171.84C377.957 174.719 369.874 174.719 364.888 171.84L298.028 133.238C293.042 130.36 293.042 125.692 298.028 122.814L364.888 84.2121Z" fill="#BDBDBD" stroke="black" stroke-width="0.521229"/>
<circle cx="3.76223" cy="3.76223" r="3.76223" transform="matrix(0.866025 0.5 -2.20305e-08 1 304.593 141.978)" fill="#1C1C26"/>
<path d="M364.6 84.159C369.586 81.2803 377.669 81.2803 382.655 84.159L449.515 122.761C454.501 125.639 454.501 130.307 449.515 133.185L382.655 171.787C377.669 174.666 369.585 174.666 364.599 171.787L297.739 133.185C292.753 130.307 292.754 125.639 297.74 122.761L364.6 84.159Z" fill="white" stroke="black" stroke-width="0.521229"/>
<path d="M351.738 146.006C355.29 147.925 360.187 147.515 364.589 144.974C369.13 142.352 369.765 139.393 366.213 137.342C363.422 135.73 360.25 135.745 355.798 137.408L353.108 138.418C350.52 139.356 348.998 139.502 347.869 138.851C346.511 138.067 346.879 136.814 348.77 135.723C350.685 134.617 352.981 134.375 354.656 135.196L358.246 133.123C354.872 131.248 350 131.526 345.738 133.987C341.653 136.346 340.968 139.319 344.342 141.268C347.019 142.813 350.393 142.842 354.491 141.312L357.396 140.235C360.098 139.246 361.633 139.122 362.826 139.81C364.17 140.586 363.752 141.956 361.709 143.135C359.679 144.307 357.117 144.644 355.43 143.875L351.738 146.006ZM382.73 125.257L380.662 124.063L372.949 128.516L375.74 130.127L379.723 127.828L380.002 128.003C382.197 129.358 381.994 131.248 379.495 132.691C376.45 134.449 372.099 134.163 368.128 131.871C364.234 129.622 363.752 127.249 366.771 125.506C368.839 124.312 371.541 124.07 374.015 124.854L377.858 122.635C373.609 120.811 367.862 121.214 363.587 123.682C358.208 126.788 358.411 130.772 364.272 134.156C370.221 137.591 377.148 137.723 382.616 134.566C387.715 131.622 387.715 128.135 382.73 125.257ZM391.724 128.941L395.86 126.553L393.487 120.525L393.589 120.467L404.004 121.851L408.368 119.332L393.348 117.486L393.259 117.435L390.138 108.719L385.863 111.187L388.54 117.259L388.438 117.317L377.96 115.75L373.456 118.35L388.261 120.232L388.362 120.291L391.724 128.941Z" fill="#1C1C26"/>
<rect opacity="0.4" width="98.0524" height="98.0524" rx="15.3543" transform="matrix(0.866025 0.5 -0.866025 0.5 312.1 286.045)" fill="#8BA1BE" fill-opacity="0.2"/>
<path fill-rule="evenodd" clip-rule="evenodd" d="M230.622 311.526C225.636 308.647 221.594 310.981 221.594 316.738V326.732C221.594 329.61 223.615 333.111 226.108 334.55L297.59 375.82C299.418 376.876 301.119 377.231 302.541 376.973C304.496 377.109 306.751 376.529 309.152 375.143L377.117 335.903C379.61 334.464 381.631 330.963 381.631 328.085V316.823C381.631 311.066 377.589 308.732 372.603 311.611L301.686 352.555L230.622 311.526Z" fill="white"/>
<path d="M230.622 311.526L230.491 311.752L230.622 311.526ZM226.108 334.55L226.238 334.324L226.108 334.55ZM297.59 375.82L297.72 375.595L297.59 375.82ZM302.541 376.973L302.559 376.713L302.527 376.711L302.495 376.716L302.541 376.973ZM309.152 375.143L309.282 375.368L309.152 375.143ZM377.117 335.903L377.247 336.129L377.117 335.903ZM372.603 311.611L372.473 311.385L372.603 311.611ZM301.686 352.555L301.556 352.781L301.686 352.856L301.816 352.781L301.686 352.555ZM221.854 316.738C221.854 313.914 222.844 311.999 224.368 311.119C225.893 310.239 228.046 310.34 230.491 311.752L230.752 311.3C228.212 309.833 225.85 309.662 224.108 310.668C222.365 311.674 221.333 313.805 221.333 316.738H221.854ZM221.854 326.732V316.738H221.333V326.732H221.854ZM226.238 334.324C225.04 333.633 223.942 332.436 223.142 331.05C222.342 329.665 221.854 328.114 221.854 326.732H221.333C221.333 328.227 221.856 329.867 222.69 331.311C223.524 332.755 224.682 334.028 225.977 334.776L226.238 334.324ZM297.72 375.595L226.238 334.324L225.977 334.776L297.46 376.046L297.72 375.595ZM302.495 376.716C301.151 376.96 299.512 376.629 297.72 375.595L297.46 376.046C299.324 377.122 301.088 377.501 302.588 377.229L302.495 376.716ZM309.021 374.917C306.653 376.285 304.45 376.845 302.559 376.713L302.523 377.233C304.543 377.374 306.849 376.773 309.282 375.368L309.021 374.917ZM376.987 335.677L309.021 374.917L309.282 375.368L377.247 336.129L376.987 335.677ZM381.37 328.085C381.37 329.467 380.883 331.017 380.083 332.403C379.283 333.789 378.184 334.986 376.987 335.677L377.247 336.129C378.543 335.381 379.701 334.108 380.534 332.664C381.368 331.22 381.892 329.58 381.892 328.085H381.37ZM381.37 316.823V328.085H381.892V316.823H381.37ZM372.733 311.837C375.179 310.425 377.332 310.324 378.856 311.204C380.381 312.085 381.37 313.999 381.37 316.823H381.892C381.892 313.89 380.86 311.759 379.117 310.753C377.374 309.747 375.013 309.918 372.473 311.385L372.733 311.837ZM301.816 352.781L372.733 311.837L372.473 311.385L301.556 352.329L301.816 352.781ZM230.491 311.752L301.556 352.781L301.816 352.329L230.752 311.3L230.491 311.752Z" fill="black"/>
<path opacity="0.2" d="M221.594 316.752C221.594 310.994 225.636 308.661 230.622 311.539L306.618 355.416L306.618 370.622C306.618 376.379 302.576 378.713 297.59 375.834L226.108 334.564C223.615 333.124 221.594 329.624 221.594 326.745L221.594 316.752Z" fill="black"/>
<path d="M292.888 271.212C297.874 268.333 305.957 268.333 310.943 271.212L377.803 309.814C382.789 312.692 382.789 317.36 377.803 320.238L310.943 358.84C305.957 361.719 297.874 361.719 292.888 358.84L226.028 320.238C221.042 317.36 221.042 312.692 226.028 309.814L292.888 271.212Z" fill="#BDBDBD" stroke="black" stroke-width="0.521229"/>
<path d="M292.888 271.212C297.874 268.334 305.957 268.334 310.943 271.212L377.803 309.814C382.789 312.693 382.789 317.36 377.803 320.238L310.943 358.84C305.957 361.719 297.874 361.719 292.888 358.84L226.028 320.238C221.042 317.36 221.042 312.693 226.028 309.814L292.888 271.212Z" fill="white" stroke="black" stroke-width="0.521229"/>
<path d="M286.973 314.187L289.364 312.807L303.377 320.898L300.986 322.278L286.973 314.187ZM291.755 311.426L296.631 308.611C297.692 307.998 298.699 307.556 299.611 307.291C300.523 307.027 301.394 306.894 302.184 306.9C302.949 306.895 303.702 307 304.378 307.205C305.063 307.414 305.689 307.681 306.234 307.998C306.819 308.333 307.318 308.714 307.714 309.132C308.095 309.535 308.303 309.985 308.323 310.445C308.311 310.967 308.089 311.481 307.672 311.945C307.227 312.48 306.487 313.045 305.44 313.65L302.874 315.132L308.119 318.16L305.768 319.517L291.755 311.426ZM303.424 312.549C303.942 312.267 304.386 311.943 304.742 311.588C304.992 311.34 305.136 311.061 305.161 310.775C305.169 310.524 305.064 310.277 304.857 310.057C304.615 309.815 304.319 309.592 303.977 309.394C303.638 309.188 303.246 309.015 302.815 308.878C302.441 308.765 302.02 308.715 301.598 308.733C301.108 308.763 300.636 308.856 300.217 309.006C299.621 309.215 299.075 309.468 298.593 309.759L296.108 311.194L300.939 313.983L303.424 312.549ZM312.723 299.32L314.765 300.499L308.156 304.315L312.12 306.603L318.34 303.012L320.395 304.199L314.176 307.79L320.128 311.227L317.737 312.607L303.723 304.516L312.723 299.32ZM325.972 302.905C327.001 303.375 328.004 303.567 328.968 303.487C329.933 303.408 330.993 303.043 332.094 302.407C332.566 302.15 332.965 301.852 333.277 301.524C333.499 301.28 333.641 301.015 333.697 300.742C333.727 300.51 333.649 300.278 333.473 300.07C333.291 299.857 333.048 299.664 332.753 299.499C332.534 299.37 332.282 299.261 332.005 299.176C331.709 299.091 331.386 299.041 331.055 299.031C330.658 299.027 330.262 299.067 329.89 299.149C329.386 299.265 328.908 299.417 328.468 299.6L326.334 300.447C325.577 300.753 324.778 301.023 323.946 301.255C323.265 301.449 322.529 301.57 321.775 301.615C321.084 301.648 320.39 301.583 319.754 301.425C319.011 301.228 318.34 300.952 317.777 300.609C317.171 300.284 316.718 299.875 316.461 299.42C316.203 298.965 316.15 298.479 316.306 298.007C316.462 297.507 316.783 297.029 317.251 296.598C317.781 296.102 318.413 295.644 319.133 295.234C320.1 294.676 321.026 294.264 321.911 294.015C322.678 293.782 323.516 293.638 324.377 293.593C325.115 293.566 325.853 293.628 326.545 293.775C327.223 293.924 327.861 294.125 328.443 294.374L326.534 295.877C325.558 295.531 324.675 295.378 323.832 295.419C322.988 295.459 322.089 295.762 321.095 296.336C320.613 296.605 320.189 296.907 319.831 297.235C319.581 297.47 319.411 297.73 319.332 298.001C319.274 298.218 319.315 298.439 319.449 298.643C319.58 298.83 319.775 299.001 320.021 299.144C320.635 299.499 321.25 299.667 321.893 299.651C322.536 299.634 323.354 299.424 324.374 299.036L326.695 298.127C328.466 297.428 330.022 297.069 331.374 297.044C332.727 297.018 334.037 297.371 335.278 298.088C335.846 298.41 336.295 298.796 336.597 299.222C336.89 299.642 336.998 300.099 336.911 300.551C336.816 301.065 336.55 301.564 336.126 302.021C335.6 302.587 334.924 303.102 334.123 303.547C332.323 304.587 330.525 305.193 328.744 305.343C326.962 305.493 325.223 305.156 323.554 304.301L325.972 302.905Z" fill="#1C1C26"/>
<path d="M272.418 338.156L290.175 335.378L294.985 325.126L282.039 317.652L264.283 320.429L259.472 330.681L272.418 338.156Z" fill="#469EA2"/>
<path d="M264.675 321.99L261.179 329.433C261.339 329.51 261.487 329.595 261.62 329.688L274.498 327.677C274.588 327.34 274.862 327.028 275.28 326.787C275.698 326.545 276.239 326.387 276.822 326.335L280.305 318.9C280.145 318.823 279.997 318.738 279.864 318.646L266.999 320.649C266.91 320.985 266.636 321.298 266.218 321.539C265.799 321.781 265.259 321.939 264.675 321.99ZM282.392 319.19L278.949 326.664C279.406 326.876 279.733 327.167 279.886 327.494C280.038 327.821 280.006 328.169 279.796 328.487L289.152 333.873C289.343 333.83 289.54 333.798 289.742 333.779L293.224 326.344C292.768 326.131 292.44 325.841 292.288 325.513C292.136 325.186 292.167 324.839 292.378 324.521L282.982 319.096C282.79 319.136 282.592 319.168 282.392 319.19ZM262.189 330.916C262.155 331.032 262.101 331.146 262.026 331.256L271.422 336.681C271.971 336.553 272.576 336.532 273.146 336.62C273.715 336.709 274.218 336.901 274.579 337.17L287.458 335.159C287.491 335.043 287.546 334.929 287.62 334.819L278.224 329.394C277.675 329.522 277.07 329.543 276.501 329.455C275.931 329.367 275.428 329.174 275.067 328.905L262.189 330.916Z" fill="#6ACAD1"/>
<path d="M265.684 321.238L281.564 318.758L293.135 325.439L288.84 334.608L272.959 337.088L261.375 330.399L265.684 321.238ZM264.309 320.445L259.498 330.697L272.445 338.171L290.201 335.394L295.012 325.142L282.066 317.667L264.309 320.445Z" fill="#469EA2"/>
<path d="M279.511 329.129L279.35 329.222C279.073 329.382 278.745 329.51 278.384 329.597C278.023 329.684 277.636 329.73 277.245 329.73C276.854 329.731 276.468 329.687 276.107 329.601C275.747 329.515 275.42 329.389 275.146 329.23L274.985 329.137C274.709 328.979 274.491 328.79 274.342 328.582C274.193 328.374 274.117 328.151 274.118 327.925C274.12 327.7 274.198 327.476 274.349 327.267C274.5 327.059 274.721 326.869 274.999 326.71L275.16 326.617C275.437 326.456 275.765 326.329 276.126 326.242C276.487 326.154 276.874 326.109 277.265 326.108C277.656 326.108 278.042 326.151 278.403 326.237C278.763 326.323 279.09 326.449 279.364 326.609L279.525 326.701C279.801 326.86 280.019 327.049 280.168 327.257C280.317 327.465 280.393 327.688 280.392 327.913C280.391 328.139 280.312 328.362 280.161 328.571C280.01 328.78 279.789 328.969 279.511 329.129ZM288.12 334.099L287.958 334.192C287.583 334.408 287.313 334.677 287.177 334.972C287.041 335.267 287.044 335.578 287.186 335.871L290.201 335.394L291.028 333.653C290.52 333.571 289.982 333.569 289.471 333.648C288.96 333.726 288.493 333.882 288.12 334.099ZM292.863 323.886L292.782 323.932C292.504 324.092 292.284 324.282 292.132 324.49C291.981 324.699 291.903 324.922 291.902 325.148C291.9 325.373 291.976 325.596 292.125 325.804C292.274 326.012 292.493 326.201 292.769 326.36L292.929 326.452C293.283 326.659 293.725 326.807 294.212 326.883L295.025 325.134L292.863 323.886ZM279.064 318.137C279.197 318.417 279.454 318.672 279.809 318.878L279.969 318.97C280.244 319.129 280.571 319.256 280.931 319.342C281.292 319.428 281.678 319.471 282.069 319.471C282.46 319.47 282.847 319.425 283.208 319.337C283.569 319.25 283.897 319.123 284.174 318.962L284.254 318.916L282.079 317.66L279.064 318.137ZM264.309 320.445L263.482 322.186C263.991 322.269 264.53 322.272 265.044 322.195C265.557 322.118 266.027 321.964 266.404 321.747L266.565 321.654C266.941 321.439 267.211 321.169 267.346 320.874C267.482 320.579 267.479 320.269 267.338 319.975L264.309 320.445ZM260.312 328.948L259.498 330.697L261.674 331.953L261.755 331.906C262.032 331.746 262.253 331.557 262.404 331.348C262.555 331.14 262.634 330.916 262.635 330.691C262.636 330.465 262.56 330.242 262.412 330.034C262.263 329.826 262.044 329.637 261.768 329.479L261.608 329.386C261.244 329.181 260.799 329.031 260.312 328.948ZM270.363 336.876L270.282 336.923L272.445 338.171L275.473 337.702C275.34 337.421 275.083 337.166 274.728 336.961L274.567 336.868C274.293 336.709 273.966 336.583 273.606 336.497C273.245 336.411 272.859 336.367 272.468 336.368C272.077 336.368 271.69 336.414 271.329 336.501C270.968 336.588 270.639 336.716 270.363 336.876Z" fill="#469EA2"/>
<path d="M290.269 335.432L277.309 327.95L259.553 330.727L272.512 338.209L290.269 335.432Z" fill="#083B54" fill-opacity="0.15"/>
<path d="M294.973 325.103L282.027 317.629L277.216 327.881L290.176 335.363L294.973 325.103Z" fill="#083B54" fill-opacity="0.05"/>
<rect opacity="0.4" width="98.0524" height="98.0524" rx="15.3543" transform="matrix(0.866025 0.5 -0.866025 0.5 505.1 211.045)" fill="#8BA1BE" fill-opacity="0.2"/>
<path fill-rule="evenodd" clip-rule="evenodd" d="M423.622 236.526C418.636 233.647 414.594 235.981 414.594 241.738V251.732C414.594 254.61 416.615 258.111 419.108 259.55L490.59 300.82C492.418 301.876 494.119 302.231 495.541 301.973C497.496 302.109 499.751 301.529 502.152 300.143L570.117 260.903C572.61 259.464 574.631 255.963 574.631 253.085V241.823C574.631 236.066 570.589 233.732 565.603 236.611L494.686 277.555L423.622 236.526Z" fill="white"/>
<path d="M423.622 236.526L423.491 236.752L423.622 236.526ZM419.108 259.55L419.238 259.324L419.108 259.55ZM490.59 300.82L490.72 300.595L490.59 300.82ZM495.541 301.973L495.559 301.713L495.527 301.711L495.495 301.716L495.541 301.973ZM502.152 300.143L502.282 300.368L502.152 300.143ZM570.117 260.903L570.247 261.129L570.117 260.903ZM565.603 236.611L565.473 236.385L565.603 236.611ZM494.686 277.555L494.556 277.781L494.686 277.856L494.816 277.781L494.686 277.555ZM414.854 241.738C414.854 238.914 415.844 236.999 417.368 236.119C418.893 235.239 421.046 235.34 423.491 236.752L423.752 236.3C421.212 234.833 418.85 234.662 417.108 235.668C415.365 236.674 414.333 238.805 414.333 241.738H414.854ZM414.854 251.732V241.738H414.333V251.732H414.854ZM419.238 259.324C418.04 258.633 416.942 257.436 416.142 256.05C415.342 254.665 414.854 253.114 414.854 251.732H414.333C414.333 253.227 414.856 254.867 415.69 256.311C416.524 257.755 417.682 259.028 418.977 259.776L419.238 259.324ZM490.72 300.595L419.238 259.324L418.977 259.776L490.46 301.046L490.72 300.595ZM495.495 301.716C494.151 301.96 492.512 301.629 490.72 300.595L490.46 301.046C492.324 302.122 494.088 302.501 495.588 302.229L495.495 301.716ZM502.021 299.917C499.653 301.285 497.45 301.845 495.559 301.713L495.523 302.233C497.543 302.374 499.849 301.773 502.282 300.368L502.021 299.917ZM569.987 260.677L502.021 299.917L502.282 300.368L570.247 261.129L569.987 260.677ZM574.37 253.085C574.37 254.467 573.883 256.017 573.083 257.403C572.283 258.789 571.184 259.986 569.987 260.677L570.247 261.129C571.543 260.381 572.701 259.108 573.534 257.664C574.368 256.22 574.892 254.58 574.892 253.085H574.37ZM574.37 241.823V253.085H574.892V241.823H574.37ZM565.733 236.837C568.179 235.425 570.332 235.324 571.856 236.204C573.381 237.085 574.37 238.999 574.37 241.823H574.892C574.892 238.89 573.86 236.759 572.117 235.753C570.374 234.747 568.013 234.918 565.473 236.385L565.733 236.837ZM494.816 277.781L565.733 236.837L565.473 236.385L494.556 277.329L494.816 277.781ZM423.491 236.752L494.556 277.781L494.816 277.329L423.752 236.3L423.491 236.752Z" fill="black"/>
<path opacity="0.2" d="M414.594 241.752C414.594 235.994 418.636 233.661 423.622 236.539L499.618 280.416L499.618 295.622C499.618 301.379 495.576 303.713 490.59 300.834L419.108 259.564C416.615 258.124 414.594 254.624 414.594 251.745L414.594 241.752Z" fill="black"/>
<circle cx="3.76223" cy="3.76223" r="3.76223" transform="matrix(0.866025 0.5 -2.20305e-08 1 447 263.677)" fill="#1C1C26"/>
<path d="M485.888 194.212C490.874 191.333 498.957 191.333 503.943 194.212L570.803 232.814C575.789 235.692 575.789 240.36 570.803 243.238L503.943 281.84C498.957 284.719 490.874 284.719 485.888 281.84L419.028 243.238C414.042 240.36 414.042 235.692 419.028 232.814L485.888 194.212Z" fill="#BDBDBD" stroke="black" stroke-width="0.521229"/>
<path d="M485.888 194.212C490.874 191.333 498.957 191.333 503.943 194.212L570.803 232.814C575.789 235.692 575.789 240.36 570.803 243.238L503.943 281.84C498.957 284.719 490.874 284.719 485.888 281.84L419.028 243.238C414.042 240.36 414.042 235.692 419.028 232.814L485.888 194.212Z" fill="white" stroke="black" stroke-width="0.521229"/>
<path d="M527.097 255.003L526.745 255.758L526.982 255.721L527.27 255.103L528.039 255.547L539.709 230.402L537.986 229.407L526.315 254.552L527.097 255.003ZM521.858 251.979L519.593 256.864L520.003 256.802L522.163 252.154L522.81 252.528L534.477 227.381L532.878 226.458L521.208 251.603L521.858 251.979ZM516.623 248.956L512.438 257.973L513.027 257.88L517.055 249.205L517.571 249.503L529.241 224.358L527.77 223.509L516.1 248.654L516.623 248.956ZM507.808 211.983L507.167 212.083L497.823 232.219L493.295 232.92L496.134 226.8L495.163 226.24L501.312 212.988L500.191 213.162L494.34 225.764L493.507 225.283L489.706 233.475L484.813 234.232L494.157 214.096L493.212 214.242L483.868 234.378L479.107 235.114L481.18 230.65L479.735 230.874L487.008 215.201L486.239 215.319L478.966 230.992L477.591 231.205L475.505 235.676L476.521 236.263L474.573 240.459L474.044 240.542L468.276 252.959L469.616 253.732L475.87 240.257L475.335 240.34L477.078 236.588L478.123 237.192L482.904 236.452L481.545 239.375L481.193 239.43L473.515 255.984L474.726 256.683L482.852 239.171L482.494 239.227L483.849 236.305L488.742 235.549L485.9 241.678L486.605 242.085L478.751 259.007L479.831 259.63L487.685 242.708L488.511 243.186L493.058 242.481L483.987 262.026L484.455 262.296L485.118 262.194L494.362 242.279L499.066 241.55L496.202 247.622L497.08 248.129L490.975 261.288L492.097 261.114L497.903 248.604L498.916 249.189L502.722 240.986L507.013 240.322L505.885 242.753L506.144 242.902L498.124 260.18L499.069 260.033L506.837 243.302L507.096 243.452L508.669 240.065L513.325 239.345L511.291 243.731L511.957 243.628L510.993 245.702L511.383 245.927L505.283 259.077L506.052 258.959L511.947 246.257L512.335 246.48L513.787 243.348L514.879 243.18L516.921 238.797L516.116 238.333L524.008 221.333L522.669 220.56L514.777 237.56L514.287 237.277L509.631 237.996L518.766 218.31L517.555 217.611L507.974 238.253L503.684 238.918L506.523 232.798L505.638 232.287L513.53 215.288L512.451 214.664L504.558 231.664L503.895 231.281L499.124 232.019L508.291 212.263L507.808 211.983ZM489.495 241.112L492.334 234.992L496.858 234.293L495.506 237.208L494.019 240.412L489.495 241.112ZM502.934 233.353L500.047 239.478L495.327 240.209L496.631 237.395L498.166 234.089L502.934 233.353ZM468.183 241.454L479.853 216.309L479.26 216.399L467.59 241.545L466.885 241.656L463.04 249.936L464.511 250.785L468.895 241.343L468.183 241.454ZM461.028 242.566L472.701 217.415L472.285 217.478L460.615 242.631L459.727 242.769L457.805 246.913L459.403 247.836L461.916 242.427L461.028 242.566ZM453.87 243.679L465.543 218.521L465.306 218.558L453.633 243.716L452.572 243.881L452.565 243.889L454.296 244.888L454.933 243.513L453.87 243.679Z" fill="#1C1C26"/>
<rect opacity="0.4" width="90.8132" height="90.8132" rx="11.9439" transform="matrix(0.866025 0.5 -0.866025 0.5 906.077 234.864)" fill="#8BA1BE" fill-opacity="0.2"/>
<path d="M829.278 257.054C825.399 254.815 822.255 256.63 822.255 261.109V272.683C822.255 274.923 823.827 277.646 825.766 278.765L893.979 318.148C895.203 318.854 896.353 319.157 897.355 319.1C898.86 319.203 900.595 318.755 902.442 317.688L966.646 280.62C968.568 279.51 970.127 276.811 970.127 274.591V261.955C970.127 257.515 967.01 255.716 963.165 257.936L896.985 296.145L829.278 257.054Z" fill="#44444C" stroke="black" stroke-width="0.405458"/>
<path opacity="0.2" d="M822.256 261.109C822.256 256.63 825.4 254.815 829.279 257.054L898 296.731L898 316.469C898 318.678 896.449 319.573 894.536 318.469L825.767 278.765C823.828 277.646 822.256 274.923 822.256 272.683L822.256 261.109Z" fill="black"/>
<path d="M888.83 219.054C892.708 216.815 898.997 216.815 902.875 219.054L966.682 255.893C970.561 258.133 970.561 261.763 966.682 264.002L902.875 300.841C898.997 303.081 892.708 303.081 888.83 300.841L825.023 264.002C821.145 261.763 821.145 258.133 825.023 255.893L888.83 219.054Z" fill="#44444C" stroke="black" stroke-width="0.405458"/>
<rect opacity="0.4" width="80.4111" height="80.4111" rx="11.9439" transform="matrix(0.866025 0.5 -0.866025 0.5 946.987 380.589)" fill="#8BA1BE" fill-opacity="0.2"/>
<path d="M878.985 400.237C875.551 398.255 872.767 399.862 872.767 403.827V414.076C872.767 416.059 874.159 418.47 875.876 419.461L936.275 454.333C937.359 454.959 938.378 455.227 939.265 455.176C940.597 455.267 942.133 454.87 943.769 453.926L1000.62 421.104C1002.32 420.121 1003.7 417.731 1003.7 415.766V404.576C1003.7 400.645 1000.94 399.052 997.537 401.017L938.936 434.85L878.985 400.237Z" fill="#44444C" stroke="black" stroke-width="0.405458"/>
<path opacity="0.2" d="M872.768 404.756C872.768 400.278 875.912 398.463 879.79 400.702L939.836 435.369L939.836 452.388C939.836 454.597 938.285 455.493 936.372 454.388L876.279 419.694C874.34 418.574 872.768 415.851 872.768 413.612L872.768 404.756Z" fill="black"/>
<path d="M930.911 367.054C934.79 364.815 941.078 364.815 944.957 367.054L999.846 398.745C1003.72 400.984 1003.72 404.615 999.846 406.854L944.957 438.544C941.078 440.783 934.79 440.783 930.911 438.544L876.022 406.854C872.144 404.615 872.144 400.984 876.022 398.745L930.911 367.054Z" fill="#44444C" stroke="black" stroke-width="0.405458"/>
<rect opacity="0.4" width="70.5648" height="70.5648" rx="11.9439" transform="matrix(0.866025 0.5 -0.866025 0.5 541.438 362.435)" fill="#8BA1BE" fill-opacity="0.2"/>
<path d="M481.763 379.678C478.749 377.938 476.306 379.348 476.306 382.828V391.822C476.306 393.562 477.527 395.678 479.034 396.548L532.038 427.149C532.989 427.698 533.883 427.934 534.661 427.889C535.831 427.969 537.179 427.621 538.614 426.792L588.502 397.989C589.996 397.127 591.207 395.029 591.207 393.304V383.485C591.207 380.036 588.785 378.637 585.798 380.362L534.373 410.052L481.763 379.678Z" fill="#44444C" stroke="black" stroke-width="0.405458"/>
<path opacity="0.2" d="M476.306 384.636C476.306 380.158 479.45 378.342 483.328 380.582L535.161 410.507L535.161 424.953C535.161 427.162 533.61 428.057 531.697 426.953L479.817 397C477.878 395.88 476.306 393.157 476.306 390.918L476.306 384.636Z" fill="black"/>
<path d="M526.47 351.054C530.349 348.815 536.637 348.815 540.516 351.054L586.964 377.871C590.843 380.111 590.843 383.741 586.964 385.98L540.516 412.797C536.637 415.037 530.349 415.037 526.47 412.797L480.022 385.98C476.144 383.741 476.144 380.111 480.022 377.871L526.47 351.054Z" fill="#44444C" stroke="black" stroke-width="0.405458"/>
<rect opacity="0.4" width="104.036" height="104.036" rx="11.9439" transform="matrix(0.866025 0.5 -0.866025 0.5 1112.9 167.641)" fill="#8BA1BE" fill-opacity="0.2"/>
<path d="M1024.92 193.062C1020.48 190.497 1016.87 192.577 1016.87 197.707V210.967C1016.87 213.532 1018.68 216.652 1020.9 217.934L1099.04 263.052C1100.44 263.861 1101.76 264.208 1102.91 264.143C1104.63 264.26 1106.62 263.747 1108.74 262.525L1182.29 220.059C1184.49 218.788 1186.28 215.696 1186.28 213.153V198.676C1186.28 193.59 1182.71 191.529 1178.3 194.072L1102.48 237.845L1024.92 193.062Z" fill="#44444C" stroke="black" stroke-width="0.405458"/>
<path opacity="0.2" d="M1016.87 196.527C1016.87 192.048 1020.02 190.233 1023.9 192.472L1103.65 238.516L1103.65 261.71C1103.65 263.92 1102.1 264.815 1100.18 263.71L1020.39 217.639C1018.45 216.52 1016.87 213.797 1016.87 211.557L1016.87 196.527Z" fill="black"/>
<path d="M1094.16 148.939C1098.04 146.7 1104.33 146.7 1108.21 148.939L1183.35 192.323C1187.23 194.562 1187.23 198.192 1183.35 200.432L1108.21 243.815C1104.33 246.055 1098.04 246.055 1094.16 243.815L1019.02 200.432C1015.14 198.192 1015.14 194.562 1019.02 192.323L1094.16 148.939Z" fill="#44444C" stroke="black" stroke-width="0.405458"/>
<circle cx="5.53603" cy="5.53603" r="5.53603" transform="matrix(0.866025 -0.5 2.20305e-08 1 191 231.214)" fill="#1C1C26"/>
<circle cx="5.53603" cy="5.53603" r="5.53603" transform="matrix(0.866025 -0.5 2.20305e-08 1 216 214.536)" fill="#1C1C26"/>
<path d="M602 187.177L381.066 62.8596C371.775 57.6313 360.407 57.726 351.193 63.0903C322.603 79.7361 256.356 118.166 184 159.177" stroke="#E6007A" stroke-linecap="round"/>
<ellipse opacity="0.1" cx="1.70147" cy="1.76263" rx="1.70147" ry="1.76263" transform="matrix(0.866025 -0.5 2.20305e-08 1 183 156.701)" fill="#1C1C26"/>
<path opacity="0.5" d="M590 195.177L381.234 77.6361C371.853 72.3543 360.4 72.4787 351.135 77.9613C325.104 93.3653 267.407 127.271 197 167.177" stroke="#8BA1BE" stroke-opacity="0.2" stroke-width="2" stroke-linecap="round" stroke-linejoin="round"/>
<path d="M195.062 233.419L236.641 257.335C245.882 262.651 257.25 262.663 266.502 257.367L299.093 238.712C308.329 233.426 319.673 233.428 328.907 238.717L401.855 280.502C411.217 285.865 422.739 285.787 432.028 280.298L450.001 269.678" stroke="#E6007A" stroke-linecap="round"/>
<ellipse opacity="0.1" cx="1.70147" cy="1.76263" rx="1.70147" ry="1.76263" transform="matrix(0.866025 -0.5 2.20305e-08 1 219 215.701)" fill="#1C1C26"/>
<path opacity="0.5" d="M195.062 245.315L236.641 269.232C245.882 274.548 257.25 274.56 266.502 269.264L299.093 250.609C308.329 245.322 319.674 245.324 328.908 250.614L401.703 292.311C411.146 297.721 422.779 297.591 432.1 291.973L452.5 279.677" stroke="#8BA1BE" stroke-opacity="0.2" stroke-width="2" stroke-linecap="round" stroke-linejoin="round"/>
<circle cx="5.53603" cy="5.53603" r="5.53603" transform="matrix(0.866025 -0.5 2.20305e-08 1 141.371 259.659)" fill="#1C1C26"/>
<line x1="146.683" y1="263.493" x2="225.816" y2="308.994" stroke="#E6007A" stroke-linecap="round"/>
<line opacity="0.5" x1="145.362" y1="275.297" x2="221.62" y2="318.315" stroke="#8BA1BE" stroke-opacity="0.2" stroke-width="2" stroke-linecap="round" stroke-linejoin="round"/>
<line x1="235.184" y1="188.994" x2="307.317" y2="147.493" stroke="#E6007A" stroke-linecap="round"/>
<ellipse opacity="0.1" cx="1.70147" cy="1.76263" rx="1.70147" ry="1.76263" transform="matrix(0.866025 -0.5 2.20305e-08 1 306 146.701)" fill="#1C1C26"/>
<line opacity="0.5" x1="235.368" y1="198.312" x2="306.635" y2="157.309" stroke="#8BA1BE" stroke-opacity="0.2" stroke-width="2" stroke-linecap="round" stroke-linejoin="round"/>
<ellipse opacity="0.1" cx="1.70147" cy="1.76263" rx="1.70147" ry="1.76263" transform="matrix(0.866025 -0.5 2.20305e-08 1 146 262.701)" fill="#1C1C26"/>
<ellipse opacity="0.1" cx="1.70147" cy="1.76263" rx="1.70147" ry="1.76263" transform="matrix(0.866025 -0.5 2.20305e-08 1 194 232.701)" fill="#1C1C26"/>
<rect opacity="0.4" width="104.036" height="104.036" rx="15.3543" transform="matrix(0.866026 0.5 -0.866026 0.5 751.903 290.611)" fill="#8BA1BE" fill-opacity="0.2"/>
<path fill-rule="evenodd" clip-rule="evenodd" d="M664.902 317.328C659.916 314.45 655.874 316.783 655.874 322.541V334.098C655.874 336.977 657.895 340.477 660.388 341.916L737.059 386.182C738.445 386.982 739.758 387.38 740.931 387.413C742.978 387.666 745.38 387.105 747.949 385.622L821.163 343.352C823.656 341.913 825.677 338.412 825.677 335.533V322.631C825.677 316.873 821.635 314.54 816.649 317.418L740.854 361.179L664.902 317.328Z" fill="#44444C"/>
<path d="M664.902 317.328L665.003 317.153L665.003 317.153L664.902 317.328ZM660.388 341.916L660.287 342.092L660.287 342.092L660.388 341.916ZM737.059 386.182L736.957 386.358L736.957 386.358L737.059 386.182ZM740.931 387.413L740.956 387.212L740.946 387.211L740.937 387.21L740.931 387.413ZM747.949 385.622L747.848 385.447L747.848 385.447L747.949 385.622ZM821.163 343.352L821.265 343.527L821.265 343.527L821.163 343.352ZM816.649 317.418L816.548 317.243L816.548 317.243L816.649 317.418ZM740.854 361.179L740.752 361.355L740.854 361.413L740.955 361.355L740.854 361.179ZM656.077 322.541C656.077 319.704 657.071 317.766 658.62 316.871C660.169 315.977 662.345 316.086 664.801 317.504L665.003 317.153C662.473 315.692 660.135 315.528 658.417 316.52C656.698 317.513 655.671 319.619 655.671 322.541H656.077ZM656.077 334.098V322.541H655.671V334.098H656.077ZM660.489 341.741C659.281 341.043 658.176 339.838 657.372 338.446C656.568 337.053 656.077 335.493 656.077 334.098H655.671C655.671 335.581 656.191 337.211 657.021 338.648C657.851 340.086 659.002 341.35 660.287 342.092L660.489 341.741ZM737.16 386.007L660.489 341.741L660.287 342.092L736.957 386.358L737.16 386.007ZM740.937 387.21C739.804 387.178 738.524 386.794 737.16 386.007L736.957 386.358C738.365 387.171 739.711 387.581 740.925 387.616L740.937 387.21ZM747.848 385.447C745.305 386.915 742.947 387.458 740.956 387.212L740.906 387.614C743.008 387.874 745.455 387.296 748.05 385.798L747.848 385.447ZM821.062 343.176L747.848 385.447L748.05 385.798L821.265 343.527L821.062 343.176ZM825.475 335.533C825.475 336.929 824.983 338.489 824.18 339.881C823.376 341.273 822.27 342.479 821.062 343.176L821.265 343.527C822.549 342.786 823.701 341.521 824.531 340.084C825.361 338.646 825.88 337.017 825.88 335.533H825.475ZM825.475 322.631V335.533H825.88V322.631H825.475ZM816.751 317.594C819.207 316.176 821.383 316.067 822.932 316.962C824.481 317.856 825.475 319.795 825.475 322.631H825.88C825.88 319.709 824.853 317.603 823.134 316.61C821.416 315.618 819.078 315.782 816.548 317.243L816.751 317.594ZM740.955 361.355L816.751 317.594L816.548 317.243L740.752 361.003L740.955 361.355ZM664.801 317.504L740.752 361.355L740.955 361.003L665.003 317.153L664.801 317.504Z" fill="black"/>
<path opacity="0.2" d="M655.875 322.555C655.875 316.797 659.917 314.464 664.903 317.342L746.088 364.214L746.088 380.984C746.088 386.742 742.046 389.075 737.06 386.196L660.389 341.931C657.896 340.491 655.875 336.991 655.875 334.112L655.875 322.555Z" fill="black"/>
<path d="M731.727 273.212C736.713 270.334 744.797 270.334 749.783 273.212L821.482 314.607C826.468 317.486 826.468 322.153 821.482 325.032L749.783 366.427C744.797 369.306 736.713 369.306 731.727 366.427L660.029 325.032C655.043 322.153 655.043 317.486 660.029 314.607L731.727 273.212Z" fill="#BDBDBD" stroke="black" stroke-width="0.521229"/>
<path d="M732.069 273.212C737.055 270.334 745.139 270.334 750.125 273.212L822.167 314.805C827.153 317.684 827.153 322.351 822.167 325.23L750.125 366.823C745.139 369.702 737.055 369.702 732.069 366.823L660.028 325.23C655.042 322.351 655.042 317.684 660.028 314.806L732.069 273.212Z" fill="#44444C" stroke="black" stroke-width="0.405458"/>
<rect opacity="0.4" width="98.0524" height="98.0524" rx="15.3543" transform="matrix(0.866025 0.5 -0.866025 0.5 677.1 171.045)" fill="#8BA1BE" fill-opacity="0.2"/>
<path fill-rule="evenodd" clip-rule="evenodd" d="M595.622 196.526C590.636 193.647 586.594 195.981 586.594 201.738V211.732C586.594 214.61 588.615 218.111 591.108 219.55L662.59 260.82C664.418 261.876 666.119 262.231 667.541 261.973C669.496 262.109 671.751 261.529 674.152 260.143L742.117 220.903C744.61 219.464 746.631 215.963 746.631 213.085V201.823C746.631 196.066 742.589 193.732 737.603 196.611L666.686 237.555L595.622 196.526Z" fill="white"/>
<path d="M595.622 196.526L595.491 196.752L595.622 196.526ZM591.108 219.55L591.238 219.324L591.108 219.55ZM662.59 260.82L662.72 260.595L662.59 260.82ZM667.541 261.973L667.559 261.713L667.527 261.711L667.495 261.716L667.541 261.973ZM674.152 260.143L674.282 260.368L674.152 260.143ZM742.117 220.903L742.247 221.129L742.117 220.903ZM737.603 196.611L737.473 196.385L737.603 196.611ZM666.686 237.555L666.556 237.781L666.686 237.856L666.816 237.781L666.686 237.555ZM586.854 201.738C586.854 198.914 587.844 196.999 589.368 196.119C590.893 195.239 593.046 195.34 595.491 196.752L595.752 196.3C593.212 194.833 590.85 194.662 589.108 195.668C587.365 196.674 586.333 198.805 586.333 201.738H586.854ZM586.854 211.732V201.738H586.333V211.732H586.854ZM591.238 219.324C590.04 218.633 588.942 217.436 588.142 216.05C587.342 214.665 586.854 213.114 586.854 211.732H586.333C586.333 213.227 586.856 214.867 587.69 216.311C588.524 217.755 589.682 219.028 590.977 219.776L591.238 219.324ZM662.72 260.595L591.238 219.324L590.977 219.776L662.46 261.046L662.72 260.595ZM667.495 261.716C666.151 261.96 664.512 261.629 662.72 260.595L662.46 261.046C664.324 262.122 666.088 262.501 667.588 262.229L667.495 261.716ZM674.021 259.917C671.653 261.285 669.45 261.845 667.559 261.713L667.523 262.233C669.543 262.374 671.849 261.773 674.282 260.368L674.021 259.917ZM741.987 220.677L674.021 259.917L674.282 260.368L742.247 221.129L741.987 220.677ZM746.37 213.085C746.37 214.467 745.883 216.017 745.083 217.403C744.283 218.789 743.184 219.986 741.987 220.677L742.247 221.129C743.543 220.381 744.701 219.108 745.534 217.664C746.368 216.22 746.892 214.58 746.892 213.085H746.37ZM746.37 201.823V213.085H746.892V201.823H746.37ZM737.733 196.837C740.179 195.425 742.332 195.324 743.856 196.204C745.381 197.085 746.37 198.999 746.37 201.823H746.892C746.892 198.89 745.86 196.759 744.117 195.753C742.374 194.747 740.013 194.918 737.473 196.385L737.733 196.837ZM666.816 237.781L737.733 196.837L737.473 196.385L666.556 237.329L666.816 237.781ZM595.491 196.752L666.556 237.781L666.816 237.329L595.752 196.3L595.491 196.752Z" fill="black"/>
<path opacity="0.2" d="M586.594 201.752C586.594 195.994 590.636 193.661 595.622 196.539L671.618 240.416L671.618 255.622C671.618 261.379 667.576 263.713 662.59 260.834L591.108 219.564C588.615 218.124 586.594 214.624 586.594 211.745L586.594 201.752Z" fill="black"/>
<path d="M657.889 154.212C662.875 151.333 670.958 151.333 675.944 154.212L742.804 192.814C747.79 195.692 747.79 200.36 742.804 203.238L675.944 241.84C670.958 244.719 662.875 244.719 657.889 241.84L591.029 203.238C586.043 200.36 586.043 195.692 591.029 192.814L657.889 154.212Z" fill="#BDBDBD" stroke="black" stroke-width="0.521229"/>
<path d="M657.888 154.212C662.874 151.333 670.957 151.333 675.943 154.212L742.803 192.814C747.789 195.692 747.789 200.36 742.803 203.238L675.943 241.84C670.957 244.719 662.874 244.719 657.888 241.84L591.028 203.238C586.042 200.36 586.042 195.692 591.028 192.814L657.888 154.212Z" fill="white" stroke="black" stroke-width="0.521229"/>
<path d="M696.933 213.597C713.673 203.932 713.673 188.262 696.933 178.597C680.192 168.932 653.051 168.932 636.311 178.597C619.571 188.262 619.571 203.932 636.311 213.597C653.051 223.262 680.192 223.262 696.933 213.597Z" fill="#FF8C00"/>
<path d="M644.842 183.522C635.835 188.722 635.792 197.197 644.842 202.422C646.66 203.472 648.739 204.322 651.034 204.997C652.592 205.447 654.541 205.072 655.364 204.147C656.143 203.247 655.494 202.122 653.891 201.647C652.073 201.147 650.427 200.447 649.042 199.597C643.109 195.972 643.023 190.222 648.825 186.522C655.277 182.397 666.319 182.272 673.031 186.147C679.309 189.772 679.526 195.597 673.68 199.372C673.68 199.372 671.515 200.772 670.562 201.522C670.086 201.897 669.74 202.197 669.48 202.397C669.393 202.497 669.134 202.497 669.047 202.397L667.531 201.072L659.867 194.197C658.914 193.347 656.923 193.097 655.45 193.647C653.978 194.197 653.545 195.347 654.498 196.197C654.498 196.197 673.204 212.897 673.42 213.072C674.373 213.922 676.365 214.172 677.837 213.622C679.309 213.072 679.742 211.922 678.79 211.072C678.573 210.897 676.105 208.672 676.105 208.672C674.2 206.972 674.416 204.797 676.451 203.272C676.884 202.922 678.79 201.672 678.79 201.672C686.584 196.422 686.194 188.497 677.577 183.522C668.527 178.297 653.848 178.322 644.842 183.522ZM683.683 204.597C681.907 205.272 681.344 206.647 682.557 207.697C683.726 208.722 686.108 209.047 687.926 208.347C689.702 207.672 690.265 206.297 689.052 205.247C687.84 204.197 685.501 203.897 683.683 204.597Z" fill="white"/>
</svg>
