<svg width="1210" height="456" viewBox="0 0 1210 456" fill="none" xmlns="http://www.w3.org/2000/svg">
<rect opacity="0.4" width="144.421" height="144.421" rx="15.3543" transform="matrix(0.866025 0.5 -0.866025 0.5 140.572 151.877)" fill="#8BA1BE" fill-opacity="0.2"/>
<path fill-rule="evenodd" clip-rule="evenodd" d="M20.5648 189.407C13.2209 185.167 7.26758 188.604 7.26758 197.084V211.804C7.26758 216.044 10.2442 221.199 13.9162 223.319L119.202 284.106C121.895 285.661 124.4 286.183 126.494 285.804C129.374 286.004 132.695 285.15 136.231 283.108L236.337 225.312C240.009 223.192 242.985 218.036 242.985 213.796V197.21C242.985 188.73 237.032 185.293 229.688 189.533L125.235 249.839L20.5648 189.407Z" fill="white"/>
<path d="M20.5648 189.407L20.3728 189.74L20.5648 189.407ZM13.9162 223.319L13.7242 223.652L13.9162 223.319ZM119.202 284.106L119.01 284.439L119.202 284.106ZM126.494 285.804L126.521 285.421L126.473 285.417L126.426 285.426L126.494 285.804ZM136.231 283.108L136.423 283.44L136.231 283.108ZM236.337 225.312L236.529 225.645L236.337 225.312ZM229.688 189.533L229.88 189.865V189.865L229.688 189.533ZM125.235 249.839L125.043 250.171L125.235 250.282L125.427 250.171L125.235 249.839ZM7.65144 197.084C7.65144 192.925 9.10847 190.105 11.3542 188.808C13.5999 187.512 16.7709 187.66 20.3728 189.74L20.7567 189.075C17.0149 186.914 13.5373 186.661 10.9703 188.143C8.40336 189.625 6.88372 192.764 6.88372 197.084H7.65144ZM7.65144 211.804V197.084H6.88372V211.804H7.65144ZM14.1081 222.987C12.3442 221.969 10.7257 220.206 9.54733 218.165C8.36894 216.124 7.65144 213.84 7.65144 211.804H6.88372C6.88372 214.007 7.65455 216.422 8.88247 218.549C10.1104 220.675 11.8162 222.55 13.7242 223.652L14.1081 222.987ZM119.394 283.774L14.1081 222.987L13.7242 223.652L119.01 284.439L119.394 283.774ZM126.426 285.426C124.447 285.785 122.033 285.298 119.394 283.774L119.01 284.439C121.756 286.024 124.354 286.582 126.563 286.181L126.426 285.426ZM136.039 282.776C132.551 284.79 129.305 285.615 126.521 285.421L126.468 286.186C129.443 286.394 132.84 285.509 136.423 283.44L136.039 282.776ZM236.145 224.98L136.039 282.776L136.423 283.44L236.529 225.645L236.145 224.98ZM242.601 213.796C242.601 215.833 241.884 218.116 240.705 220.157C239.527 222.198 237.909 223.961 236.145 224.98L236.529 225.645C238.437 224.543 240.142 222.668 241.37 220.541C242.598 218.414 243.369 216 243.369 213.796H242.601ZM242.601 197.21V213.796H243.369V197.21H242.601ZM229.88 189.865C233.482 187.785 236.653 187.637 238.899 188.934C241.144 190.23 242.601 193.051 242.601 197.21H243.369C243.369 192.889 241.849 189.751 239.283 188.269C236.716 186.787 233.238 187.04 229.496 189.2L229.88 189.865ZM125.427 250.171L229.88 189.865L229.496 189.2L125.043 249.506L125.427 250.171ZM20.3728 189.74L125.043 250.171L125.427 249.506L20.7567 189.075L20.3728 189.74Z" fill="black"/>
<path opacity="0.2" d="M7.26758 197.105C7.26758 188.625 13.2209 185.187 20.5648 189.427L132.499 254.053L132.499 276.449C132.499 284.929 126.546 288.366 119.202 284.126L13.9162 223.34C10.2442 221.22 7.26758 216.064 7.26758 211.824L7.26758 197.105Z" fill="black"/>
<rect width="144.421" height="144.421" rx="15.3543" transform="matrix(0.866025 0.5 -0.866025 0.5 125.572 121.877)" fill="white" stroke="black" stroke-width="0.767714"/>
<path d="M201.258 183.519L189.223 176.571L148.07 176.3L135.831 183.367L201.258 183.519Z" fill="#1C1C26"/>
<path d="M50.752 197.659L62.7856 204.607L103.932 204.883L116.179 197.812L50.752 197.659Z" fill="#1C1C26"/>
<path d="M48.5801 184.07L60.4498 177.217L101.591 177.27L101.315 153.624L113.717 146.463L114.012 184.44L48.5801 184.07Z" fill="#1C1C26"/>
<path d="M138.282 233.553L150.15 226.7L150.058 202.947L191.016 203.107L203.419 195.946L137.64 195.776L138.282 233.553Z" fill="#1C1C26"/>
<ellipse rx="6.2787" ry="6.36718" transform="matrix(0.881039 -0.508663 0.881039 0.508663 126.764 190.838)" fill="#E6007A"/>
<rect opacity="0.4" width="98.0524" height="98.0524" rx="15.3543" transform="matrix(0.866025 0.5 -0.866025 0.5 390.6 100.245)" fill="#8BA1BE" fill-opacity="0.2"/>
<path fill-rule="evenodd" clip-rule="evenodd" d="M309.122 125.726C304.136 122.847 300.094 125.181 300.094 130.938V140.932C300.094 143.81 302.115 147.311 304.608 148.75L376.09 190.02C377.918 191.076 379.619 191.431 381.041 191.173C382.996 191.309 385.251 190.729 387.652 189.343L455.617 150.103C458.11 148.664 460.131 145.163 460.131 142.284V131.023C460.131 125.266 456.089 122.932 451.103 125.811L380.186 166.755L309.122 125.726Z" fill="white"/>
<path d="M309.122 125.726L308.991 125.952L309.122 125.726ZM304.608 148.75L304.738 148.524L304.608 148.75ZM376.09 190.02L376.22 189.795L376.09 190.02ZM381.041 191.173L381.059 190.913L381.027 190.911L380.995 190.916L381.041 191.173ZM387.652 189.343L387.782 189.568L387.652 189.343ZM455.617 150.103L455.747 150.329L455.617 150.103ZM451.103 125.811L450.973 125.585L451.103 125.811ZM380.186 166.755L380.056 166.98L380.186 167.056L380.316 166.98L380.186 166.755ZM300.354 130.938C300.354 128.114 301.344 126.199 302.868 125.319C304.393 124.439 306.546 124.54 308.991 125.952L309.252 125.5C306.712 124.033 304.35 123.862 302.608 124.868C300.865 125.874 299.833 128.005 299.833 130.938H300.354ZM300.354 140.932V130.938H299.833V140.932H300.354ZM304.738 148.524C303.54 147.833 302.442 146.636 301.642 145.25C300.842 143.865 300.354 142.314 300.354 140.932H299.833C299.833 142.427 300.356 144.067 301.19 145.511C302.024 146.955 303.182 148.228 304.477 148.976L304.738 148.524ZM376.22 189.795L304.738 148.524L304.477 148.976L375.96 190.246L376.22 189.795ZM380.995 190.916C379.651 191.16 378.012 190.829 376.22 189.795L375.96 190.246C377.824 191.322 379.588 191.701 381.088 191.429L380.995 190.916ZM387.521 189.117C385.153 190.484 382.95 191.045 381.059 190.913L381.023 191.433C383.043 191.574 385.349 190.973 387.782 189.568L387.521 189.117ZM455.487 149.877L387.521 189.117L387.782 189.568L455.747 150.329L455.487 149.877ZM459.87 142.284C459.87 143.667 459.383 145.217 458.583 146.603C457.783 147.989 456.684 149.186 455.487 149.877L455.747 150.329C457.043 149.581 458.201 148.308 459.034 146.864C459.868 145.42 460.392 143.78 460.392 142.284H459.87ZM459.87 131.023V142.284H460.392V131.023H459.87ZM451.233 126.037C453.679 124.625 455.832 124.524 457.356 125.404C458.881 126.284 459.87 128.199 459.87 131.023H460.392C460.392 128.09 459.36 125.959 457.617 124.953C455.874 123.947 453.513 124.118 450.973 125.585L451.233 126.037ZM380.316 166.98L451.233 126.037L450.973 125.585L380.056 166.529L380.316 166.98ZM308.991 125.952L380.056 166.98L380.316 166.529L309.252 125.5L308.991 125.952Z" fill="black"/>
<path opacity="0.2" d="M300.095 130.952C300.095 125.194 304.137 122.861 309.123 125.739L385.119 169.616L385.119 184.822C385.119 190.579 381.077 192.912 376.091 190.034L304.609 148.763C302.116 147.324 300.095 143.824 300.095 140.945L300.095 130.952Z" fill="black"/>
<circle r="3.76223" transform="matrix(0.866025 0.5 -2.20305e-08 1 314.352 147.822)" fill="#1C1C26"/>
<rect width="98.0524" height="98.0524" rx="10.4246" transform="matrix(0.866025 0.5 -0.866025 0.5 380.416 79.8772)" fill="white" stroke="black" stroke-width="0.521229"/>
<path d="M400.093 112.894C400.093 112.894 400.236 116.76 402.301 116.801L417.259 117.212C417.402 117.212 417.544 117.212 417.686 117.13L423.029 114.046C423.242 113.922 423.242 113.758 423.029 113.635C422.957 113.593 422.815 113.511 422.744 113.552L400.093 112.894Z" fill="#8C145A"/>
<path d="M408.499 109.687C408.499 109.687 408.356 105.821 406.29 105.78L391.333 105.369C391.19 105.369 391.048 105.369 390.905 105.451L385.563 108.535C385.349 108.659 385.349 108.823 385.563 108.947C385.634 108.988 385.848 109.029 385.991 109.029L408.499 109.687Z" fill="#8C145A"/>
<path d="M408.498 109.687C408.498 109.687 408.356 105.821 406.29 105.78C411.205 105.903 413.484 105.986 414.339 105.986C414.624 105.986 414.838 106.109 414.838 106.273L416.618 121.612C416.618 121.695 416.618 121.777 416.476 121.859L411.134 124.943C410.92 125.067 410.635 125.067 410.421 124.943C410.35 124.902 410.208 124.82 410.279 124.779L408.498 109.687Z" fill="#F05A28"/>
<path d="M400.094 112.894C400.094 112.894 400.236 116.76 402.302 116.801L394.253 116.596C393.968 116.596 393.755 116.472 393.755 116.308L391.974 100.969C391.974 100.887 391.974 100.804 392.116 100.722L397.459 97.6378C397.672 97.5144 397.957 97.5144 398.171 97.6378C398.242 97.6789 398.384 97.7612 398.313 97.8023L400.094 112.894Z" fill="#F05A28"/>
<path d="M356.787 128.438L374.594 138.719C374.807 138.842 374.807 139.007 374.594 139.13L372.172 140.528C371.958 140.652 371.673 140.652 371.46 140.528L355.719 131.44C355.648 131.399 355.577 131.276 355.505 131.235L355.292 128.973C355.292 128.891 355.292 128.809 355.434 128.726L356.004 128.397C356.289 128.315 356.574 128.315 356.787 128.438ZM377.941 115.814L368.112 121.489C367.899 121.612 367.899 121.777 368.112 121.9L370.035 123.01C370.249 123.134 370.534 123.134 370.748 123.01L373.454 121.448C373.668 121.324 373.953 121.324 374.166 121.448L389.266 130.166C389.48 130.289 389.765 130.289 389.978 130.166L392.329 128.809C392.543 128.685 392.543 128.521 392.329 128.397L377.3 119.721C377.087 119.597 377.087 119.433 377.3 119.309L378.867 118.405C378.939 118.363 379.01 118.24 379.01 118.158L378.867 116.102C378.867 115.937 378.654 115.814 378.369 115.814C378.155 115.691 378.084 115.732 377.941 115.814ZM384.067 130.289L379.58 132.88C379.366 133.003 379.081 133.003 378.867 132.88L363.981 124.285C363.767 124.162 363.483 124.162 363.269 124.285L360.847 125.683C360.634 125.807 360.634 125.971 360.847 126.094L378.654 136.375C378.867 136.498 379.152 136.498 379.366 136.375L385.206 133.003C385.278 132.962 385.349 132.839 385.349 132.756L385.064 130.453C385.064 130.289 384.779 130.124 384.494 130.124C384.352 130.207 384.209 130.207 384.067 130.289ZM355.007 139.583C354.793 139.542 354.722 139.5 354.651 139.377L350.947 132.057C350.804 131.893 350.519 131.81 350.306 131.852C350.235 131.893 350.092 131.893 350.092 131.893L347.314 133.497C347.172 133.579 347.101 133.702 347.172 133.825L351.161 141.639L365.691 144.106C365.904 144.147 366.118 144.106 366.26 144.024L368.967 142.461C369.181 142.338 369.181 142.173 368.967 142.05C368.896 142.009 368.824 141.968 368.682 141.968L355.007 139.583ZM341.26 136.992L338.838 138.39C338.625 138.513 338.625 138.678 338.838 138.801L356.645 149.082C356.859 149.205 357.143 149.205 357.357 149.082L359.779 147.684C359.992 147.56 359.992 147.396 359.779 147.273L341.972 136.992C341.83 136.827 341.474 136.869 341.26 136.992Z" fill="#50415A"/>
<rect opacity="0.4" width="98.0524" height="98.0524" rx="15.3543" transform="matrix(0.866025 0.5 -0.866025 0.5 318.6 286.245)" fill="#8BA1BE" fill-opacity="0.2"/>
<path fill-rule="evenodd" clip-rule="evenodd" d="M237.122 311.726C232.136 308.847 228.094 311.181 228.094 316.938V326.932C228.094 329.811 230.115 333.311 232.608 334.75L304.09 376.021C305.918 377.076 307.619 377.431 309.041 377.173C310.996 377.309 313.251 376.729 315.652 375.343L383.617 336.103C386.11 334.664 388.131 331.163 388.131 328.285V317.023C388.131 311.266 384.089 308.932 379.103 311.811L308.186 352.755L237.122 311.726Z" fill="white"/>
<path d="M237.122 311.726L236.991 311.952L237.122 311.726ZM232.608 334.75L232.738 334.525L232.608 334.75ZM304.09 376.021L304.22 375.795L304.09 376.021ZM309.041 377.173L309.059 376.913L309.027 376.911L308.995 376.917L309.041 377.173ZM315.652 375.343L315.782 375.569L315.652 375.343ZM383.617 336.103L383.747 336.329L383.617 336.103ZM379.103 311.811L378.973 311.585L379.103 311.811ZM308.186 352.755L308.056 352.981L308.186 353.056L308.316 352.981L308.186 352.755ZM228.354 316.938C228.354 314.114 229.344 312.2 230.868 311.319C232.393 310.439 234.546 310.54 236.991 311.952L237.252 311.5C234.712 310.034 232.35 309.862 230.608 310.868C228.865 311.874 227.833 314.005 227.833 316.938H228.354ZM228.354 326.932V316.938H227.833V326.932H228.354ZM232.738 334.525C231.54 333.833 230.442 332.636 229.642 331.25C228.842 329.865 228.354 328.315 228.354 326.932H227.833C227.833 328.428 228.356 330.067 229.19 331.511C230.024 332.955 231.182 334.228 232.477 334.976L232.738 334.525ZM304.22 375.795L232.738 334.525L232.477 334.976L303.96 376.246L304.22 375.795ZM308.995 376.917C307.651 377.16 306.012 376.83 304.22 375.795L303.96 376.246C305.824 377.323 307.588 377.701 309.088 377.429L308.995 376.917ZM315.521 375.117C313.153 376.485 310.95 377.045 309.059 376.913L309.023 377.433C311.043 377.574 313.349 376.973 315.782 375.569L315.521 375.117ZM383.487 335.877L315.521 375.117L315.782 375.569L383.747 336.329L383.487 335.877ZM387.87 328.285C387.87 329.668 387.383 331.218 386.583 332.603C385.783 333.989 384.684 335.186 383.487 335.877L383.747 336.329C385.043 335.581 386.201 334.308 387.034 332.864C387.868 331.42 388.392 329.781 388.392 328.285H387.87ZM387.87 317.023V328.285H388.392V317.023H387.87ZM379.233 312.037C381.679 310.625 383.832 310.524 385.356 311.404C386.881 312.285 387.87 314.2 387.87 317.023H388.392C388.392 314.09 387.36 311.959 385.617 310.953C383.874 309.947 381.513 310.119 378.973 311.585L379.233 312.037ZM308.316 352.981L379.233 312.037L378.973 311.585L308.056 352.529L308.316 352.981ZM236.991 311.952L308.056 352.981L308.316 352.529L237.252 311.5L236.991 311.952Z" fill="black"/>
<path opacity="0.2" d="M228.095 316.952C228.095 311.194 232.137 308.861 237.123 311.74L313.119 355.616L313.119 370.822C313.119 376.579 309.077 378.913 304.091 376.034L232.609 334.764C230.116 333.324 228.095 329.824 228.095 326.945L228.095 316.952Z" fill="black"/>
<rect width="98.0524" height="98.0524" rx="10.4246" transform="matrix(0.866025 0.5 -0.866025 0.5 308.416 265.877)" fill="white" stroke="black" stroke-width="0.521229"/>
<path d="M293.474 314.064L295.865 312.684L309.878 320.775L307.487 322.155L293.474 314.064ZM298.256 311.304L303.132 308.488C304.193 307.876 305.2 307.433 306.112 307.169C307.024 306.904 307.895 306.771 308.685 306.777C309.45 306.773 310.203 306.877 310.879 307.082C311.564 307.291 312.19 307.558 312.735 307.875C313.32 308.21 313.819 308.592 314.215 309.009C314.596 309.412 314.804 309.862 314.824 310.322C314.812 310.844 314.589 311.358 314.173 311.823C313.728 312.357 312.988 312.923 311.941 313.528L309.375 315.009L314.62 318.037L312.269 319.394L298.256 311.304ZM309.925 312.426C310.443 312.144 310.887 311.82 311.243 311.465C311.493 311.217 311.637 310.938 311.662 310.652C311.67 310.401 311.565 310.154 311.358 309.934C311.116 309.692 310.82 309.469 310.478 309.271C310.139 309.066 309.747 308.892 309.316 308.755C308.942 308.642 308.521 308.592 308.099 308.611C307.609 308.64 307.137 308.734 306.718 308.884C306.122 309.092 305.576 309.345 305.094 309.637L302.609 311.071L307.44 313.861L309.925 312.426ZM319.224 299.197L321.266 300.376L314.657 304.192L318.621 306.481L324.841 302.89L326.896 304.076L320.677 307.667L326.629 311.104L324.238 312.484L310.224 304.393L319.224 299.197ZM332.473 302.783C333.502 303.252 334.505 303.444 335.469 303.365C336.434 303.286 337.493 302.92 338.595 302.284C339.067 302.027 339.466 301.729 339.778 301.401C339.999 301.157 340.142 300.892 340.198 300.619C340.228 300.387 340.15 300.156 339.974 299.947C339.792 299.735 339.549 299.541 339.254 299.377C339.035 299.247 338.783 299.138 338.506 299.053C338.21 298.968 337.887 298.919 337.556 298.908C337.159 298.905 336.763 298.945 336.391 299.026C335.887 299.143 335.409 299.294 334.969 299.477L332.835 300.324C332.078 300.63 331.279 300.9 330.447 301.132C329.766 301.326 329.03 301.448 328.276 301.492C327.585 301.526 326.891 301.461 326.255 301.302C325.512 301.106 324.841 300.829 324.278 300.487C323.672 300.161 323.219 299.752 322.961 299.297C322.704 298.842 322.651 298.356 322.807 297.884C322.963 297.385 323.284 296.907 323.752 296.476C324.282 295.979 324.914 295.521 325.634 295.111C326.601 294.553 327.527 294.142 328.412 293.893C329.179 293.659 330.017 293.516 330.878 293.471C331.616 293.444 332.354 293.506 333.046 293.652C333.724 293.801 334.362 294.003 334.944 294.252L333.035 295.755C332.059 295.409 331.176 295.256 330.332 295.296C329.489 295.336 328.59 295.639 327.596 296.213C327.114 296.483 326.69 296.785 326.332 297.112C326.082 297.347 325.912 297.607 325.833 297.879C325.775 298.095 325.816 298.316 325.95 298.52C326.081 298.708 326.276 298.878 326.522 299.021C327.136 299.376 327.751 299.545 328.394 299.528C329.037 299.512 329.855 299.301 330.875 298.913L333.196 298.004C334.967 297.305 336.523 296.947 337.875 296.921C339.228 296.895 340.538 297.248 341.779 297.965C342.347 298.287 342.796 298.673 343.098 299.099C343.391 299.519 343.499 299.976 343.412 300.428C343.317 300.942 343.051 301.441 342.627 301.898C342.101 302.464 341.425 302.979 340.624 303.425C338.824 304.464 337.026 305.07 335.245 305.22C333.463 305.371 331.724 305.034 330.055 304.179L332.473 302.783Z" fill="#1C1C26"/>
<path d="M278.919 338.033L296.676 335.255L301.486 325.004L288.54 317.529L270.784 320.307L265.973 330.558L278.919 338.033Z" fill="#469EA2"/>
<path d="M271.176 321.868L267.68 329.311C267.84 329.388 267.988 329.473 268.121 329.565L280.999 327.554C281.089 327.218 281.363 326.905 281.781 326.664C282.199 326.422 282.74 326.264 283.323 326.213L286.806 318.777C286.646 318.7 286.498 318.615 286.365 318.523L273.5 320.526C273.411 320.863 273.137 321.175 272.719 321.416C272.3 321.658 271.76 321.816 271.176 321.868ZM288.893 319.067L285.45 326.541C285.907 326.753 286.234 327.044 286.387 327.371C286.539 327.699 286.507 328.046 286.297 328.364L295.653 333.75C295.844 333.707 296.041 333.676 296.243 333.656L299.725 326.221C299.269 326.009 298.941 325.718 298.789 325.391C298.637 325.063 298.668 324.716 298.879 324.398L289.483 318.973C289.291 319.014 289.093 319.045 288.893 319.067ZM268.69 330.793C268.656 330.91 268.602 331.024 268.527 331.134L277.923 336.558C278.472 336.431 279.077 336.41 279.647 336.498C280.216 336.586 280.719 336.779 281.08 337.047L293.959 335.037C293.992 334.92 294.047 334.806 294.121 334.696L284.725 329.271C284.176 329.399 283.571 329.42 283.002 329.332C282.432 329.244 281.929 329.051 281.568 328.782L268.69 330.793Z" fill="#6ACAD1"/>
<path d="M272.185 321.116L288.065 318.636L299.636 325.316L295.341 334.485L279.46 336.965L267.876 330.277L272.185 321.116ZM270.81 320.322L265.999 330.574L278.946 338.048L296.702 335.271L301.513 325.019L288.566 317.545L270.81 320.322Z" fill="#469EA2"/>
<path d="M286.012 329.006L285.851 329.099C285.574 329.26 285.246 329.387 284.885 329.474C284.524 329.562 284.137 329.607 283.746 329.608C283.355 329.608 282.969 329.564 282.608 329.479C282.248 329.393 281.921 329.266 281.647 329.107L281.486 329.014C281.21 328.856 280.992 328.667 280.843 328.459C280.694 328.251 280.618 328.028 280.619 327.802C280.621 327.577 280.699 327.353 280.85 327.145C281.001 326.936 281.222 326.747 281.5 326.587L281.661 326.494C281.938 326.334 282.266 326.206 282.627 326.119C282.988 326.032 283.375 325.986 283.766 325.986C284.157 325.985 284.543 326.029 284.904 326.115C285.264 326.201 285.591 326.327 285.865 326.486L286.026 326.579C286.302 326.737 286.52 326.926 286.669 327.134C286.818 327.342 286.894 327.565 286.893 327.791C286.892 328.016 286.813 328.24 286.662 328.448C286.511 328.657 286.29 328.846 286.012 329.006ZM294.621 333.976L294.459 334.069C294.084 334.285 293.814 334.554 293.678 334.849C293.542 335.145 293.545 335.455 293.687 335.748L296.702 335.271L297.529 333.53C297.021 333.448 296.483 333.447 295.972 333.525C295.461 333.603 294.994 333.759 294.621 333.976ZM299.364 323.763L299.283 323.81C299.005 323.969 298.785 324.159 298.633 324.367C298.482 324.576 298.404 324.799 298.403 325.025C298.401 325.251 298.477 325.474 298.626 325.682C298.775 325.89 298.994 326.078 299.27 326.237L299.43 326.33C299.784 326.536 300.226 326.685 300.713 326.76L301.526 325.011L299.364 323.763ZM285.565 318.014C285.698 318.295 285.955 318.55 286.31 318.755L286.47 318.847C286.745 319.007 287.072 319.133 287.432 319.219C287.793 319.305 288.179 319.349 288.57 319.348C288.961 319.347 289.348 319.302 289.709 319.215C290.07 319.127 290.398 319 290.675 318.84L290.755 318.793L288.58 317.537L285.565 318.014ZM270.81 320.322L269.983 322.063C270.492 322.146 271.031 322.15 271.545 322.073C272.058 321.995 272.528 321.841 272.905 321.625L273.066 321.532C273.442 321.316 273.712 321.047 273.847 320.751C273.983 320.456 273.98 320.146 273.839 319.853L270.81 320.322ZM266.813 328.825L265.999 330.574L268.175 331.83L268.255 331.783C268.533 331.624 268.754 331.434 268.905 331.226C269.056 331.017 269.135 330.794 269.136 330.568C269.137 330.342 269.061 330.119 268.913 329.911C268.764 329.703 268.545 329.515 268.269 329.356L268.109 329.264C267.745 329.059 267.3 328.908 266.813 328.825ZM276.864 336.753L276.783 336.8L278.946 338.048L281.974 337.579C281.841 337.298 281.584 337.043 281.228 336.838L281.068 336.746C280.794 336.586 280.467 336.46 280.107 336.374C279.746 336.288 279.36 336.244 278.969 336.245C278.578 336.246 278.191 336.291 277.83 336.378C277.469 336.466 277.14 336.593 276.864 336.753Z" fill="#469EA2"/>
<path d="M296.77 335.309L283.81 327.827L266.054 330.605L279.013 338.087L296.77 335.309Z" fill="#083B54" fill-opacity="0.15"/>
<path d="M301.474 324.981L288.528 317.506L283.717 327.758L296.677 335.24L301.474 324.981Z" fill="#083B54" fill-opacity="0.05"/>
<rect opacity="0.4" width="98.0524" height="98.0524" rx="15.3543" transform="matrix(0.866025 0.5 -0.866025 0.5 511.6 211.245)" fill="#8BA1BE" fill-opacity="0.2"/>
<path fill-rule="evenodd" clip-rule="evenodd" d="M430.122 236.726C425.136 233.847 421.094 236.181 421.094 241.938V251.932C421.094 254.81 423.115 258.311 425.608 259.75L497.09 301.02C498.918 302.076 500.619 302.431 502.041 302.173C503.996 302.309 506.251 301.729 508.652 300.343L576.617 261.103C579.11 259.664 581.131 256.163 581.131 253.285V242.023C581.131 236.266 577.089 233.932 572.103 236.811L501.186 277.755L430.122 236.726Z" fill="white"/>
<path d="M430.122 236.726L429.991 236.952L430.122 236.726ZM425.608 259.75L425.738 259.524L425.608 259.75ZM497.09 301.02L497.22 300.795L497.09 301.02ZM502.041 302.173L502.059 301.913L502.027 301.911L501.995 301.916L502.041 302.173ZM508.652 300.343L508.782 300.568L508.652 300.343ZM576.617 261.103L576.747 261.329L576.617 261.103ZM572.103 236.811L571.973 236.585L572.103 236.811ZM501.186 277.755L501.056 277.981L501.186 278.056L501.316 277.981L501.186 277.755ZM421.354 241.938C421.354 239.114 422.344 237.2 423.868 236.319C425.393 235.439 427.546 235.54 429.991 236.952L430.252 236.5C427.712 235.033 425.35 234.862 423.608 235.868C421.865 236.874 420.833 239.005 420.833 241.938H421.354ZM421.354 251.932V241.938H420.833V251.932H421.354ZM425.738 259.524C424.54 258.833 423.442 257.636 422.642 256.25C421.842 254.865 421.354 253.315 421.354 251.932H420.833C420.833 253.428 421.356 255.067 422.19 256.511C423.024 257.955 424.182 259.228 425.477 259.976L425.738 259.524ZM497.22 300.795L425.738 259.524L425.477 259.976L496.96 301.246L497.22 300.795ZM501.995 301.916C500.651 302.16 499.012 301.829 497.22 300.795L496.96 301.246C498.824 302.323 500.588 302.701 502.088 302.429L501.995 301.916ZM508.521 300.117C506.153 301.485 503.95 302.045 502.059 301.913L502.023 302.433C504.043 302.574 506.349 301.973 508.782 300.568L508.521 300.117ZM576.487 260.877L508.521 300.117L508.782 300.568L576.747 261.329L576.487 260.877ZM580.87 253.285C580.87 254.667 580.383 256.218 579.583 257.603C578.783 258.989 577.684 260.186 576.487 260.877L576.747 261.329C578.043 260.581 579.201 259.308 580.034 257.864C580.868 256.42 581.392 254.78 581.392 253.285H580.87ZM580.87 242.023V253.285H581.392V242.023H580.87ZM572.233 237.037C574.679 235.625 576.832 235.524 578.356 236.404C579.881 237.285 580.87 239.199 580.87 242.023H581.392C581.392 239.09 580.36 236.959 578.617 235.953C576.874 234.947 574.513 235.119 571.973 236.585L572.233 237.037ZM501.316 277.981L572.233 237.037L571.973 236.585L501.056 277.529L501.316 277.981ZM429.991 236.952L501.056 277.981L501.316 277.529L430.252 236.5L429.991 236.952Z" fill="black"/>
<path opacity="0.2" d="M421.095 241.952C421.095 236.194 425.137 233.861 430.123 236.739L506.119 280.616L506.119 295.822C506.119 301.579 502.077 303.913 497.091 301.034L425.609 259.764C423.116 258.324 421.095 254.824 421.095 251.945L421.095 241.952Z" fill="black"/>
<circle r="3.76223" transform="matrix(0.866025 0.5 -2.20305e-08 1 456.758 269.521)" fill="#1C1C26"/>
<rect width="98.0524" height="98.0524" rx="10.4246" transform="matrix(0.866025 0.5 -0.866025 0.5 501.416 190.877)" fill="white" stroke="black" stroke-width="0.521229"/>
<path d="M533.598 256.881L533.246 257.635L533.483 257.598L533.771 256.981L534.54 257.425L546.21 232.279L544.487 231.284L532.816 256.429L533.598 256.881ZM528.359 253.856L526.094 258.742L526.504 258.679L528.664 254.032L529.311 254.405L540.978 229.258L539.379 228.335L527.709 253.48L528.359 253.856ZM523.123 250.833L518.939 259.85L519.528 259.757L523.556 251.083L524.072 251.381L535.742 226.235L534.271 225.386L522.601 250.531L523.123 250.833ZM514.308 213.861L513.668 213.961L504.324 234.096L499.796 234.797L502.635 228.677L501.664 228.117L507.813 214.865L506.692 215.039L500.841 227.641L500.008 227.16L496.207 235.352L491.314 236.109L500.658 215.973L499.713 216.12L490.369 236.255L485.608 236.991L487.681 232.527L486.236 232.751L493.509 217.078L492.74 217.196L485.467 232.87L484.092 233.082L482.006 237.554L483.022 238.14L481.074 242.336L480.545 242.419L474.777 254.836L476.117 255.61L482.371 242.134L481.836 242.218L483.579 238.466L484.624 239.069L489.405 238.329L488.046 241.252L487.694 241.307L480.016 257.861L481.227 258.56L489.353 241.048L488.995 241.104L490.35 238.183L495.243 237.426L492.401 243.555L493.106 243.962L485.252 260.884L486.332 261.508L494.186 244.586L495.012 245.063L499.559 244.358L490.488 263.903L490.956 264.173L491.619 264.072L500.863 244.156L505.567 243.427L502.703 249.499L503.581 250.006L497.476 263.165L498.598 262.991L504.404 250.482L505.417 251.066L509.223 242.863L513.514 242.199L512.386 244.63L512.645 244.78L504.625 262.057L505.57 261.911L513.338 245.179L513.597 245.329L515.17 241.942L519.826 241.222L517.792 245.609L518.458 245.505L517.494 247.579L517.884 247.805L511.783 260.954L512.553 260.836L518.448 248.134L518.836 248.358L520.288 245.226L521.38 245.057L523.421 240.675L522.617 240.21L530.509 223.211L529.17 222.437L521.278 239.437L520.788 239.154L516.132 239.874L525.267 220.188L524.056 219.488L514.475 240.131L510.185 240.795L513.024 234.675L512.139 234.165L520.031 217.165L518.952 216.541L511.059 233.541L510.396 233.158L505.625 233.896L514.792 214.14L514.308 213.861ZM495.996 242.989L498.835 236.869L503.359 236.17L502.007 239.086L500.52 242.29L495.996 242.989ZM509.435 235.23L506.548 241.355L501.828 242.086L503.132 239.272L504.667 235.966L509.435 235.23ZM474.684 243.331L486.354 218.186L485.761 218.277L474.091 243.422L473.386 243.533L469.541 251.814L471.012 252.663L475.396 243.22L474.684 243.331ZM467.529 244.443L479.202 219.292L478.786 219.355L467.116 244.508L466.228 244.647L464.305 248.791L465.904 249.714L468.417 244.304L467.529 244.443ZM460.371 245.557L472.044 220.399L471.807 220.436L460.133 245.594L459.073 245.758L459.066 245.766L460.797 246.765L461.434 245.39L460.371 245.557Z" fill="#1C1C26"/>
<g opacity="0.42">
<rect opacity="0.4" width="67.6292" height="67.6292" rx="9.87481" transform="matrix(0.866025 0.5 -0.866025 0.5 547.092 364.248)" fill="#8BA1BE" fill-opacity="0.2"/>
<path fill-rule="evenodd" clip-rule="evenodd" d="M490.474 381.58C487.267 379.729 484.668 381.23 484.668 384.932V392.554C484.668 394.405 485.968 396.656 487.571 397.582L537.505 426.411C538.267 426.851 538.995 427.102 539.661 427.179C541.031 427.424 542.669 427.081 544.428 426.065L592.147 398.515C593.75 397.589 595.05 395.338 595.05 393.487V384.991C595.05 381.288 592.45 379.787 589.244 381.639L539.91 410.122L490.474 381.58Z" fill="white"/>
<path d="M490.474 381.58L490.39 381.725L490.474 381.58ZM487.571 397.582L487.655 397.437L487.571 397.582ZM537.505 426.411L537.589 426.266L537.505 426.411ZM539.661 427.179L539.691 427.014L539.681 427.012L539.661 427.179ZM544.428 426.065L544.344 425.92L544.428 426.065ZM592.147 398.515L592.231 398.66L592.147 398.515ZM589.244 381.639L589.327 381.784L589.244 381.639ZM539.91 410.122L539.826 410.267L539.91 410.315L539.993 410.267L539.91 410.122ZM484.836 384.932C484.836 383.116 485.472 381.885 486.452 381.319C487.433 380.753 488.818 380.817 490.39 381.725L490.558 381.435C488.924 380.492 487.406 380.381 486.285 381.028C485.164 381.675 484.5 383.046 484.5 384.932H484.836ZM484.836 392.554V384.932H484.5V392.554H484.836ZM487.655 397.437C486.885 396.992 486.178 396.222 485.663 395.331C485.149 394.44 484.836 393.443 484.836 392.554H484.5C484.5 393.516 484.837 394.57 485.373 395.499C485.909 396.427 486.654 397.246 487.487 397.727L487.655 397.437ZM537.589 426.266L487.655 397.437L487.487 397.727L537.421 426.557L537.589 426.266ZM539.681 427.012C539.041 426.939 538.335 426.697 537.589 426.266L537.421 426.557C538.199 427.006 538.948 427.265 539.642 427.345L539.681 427.012ZM544.344 425.92C542.608 426.923 541.011 427.25 539.691 427.014L539.632 427.344C541.051 427.598 542.729 427.24 544.512 426.211L544.344 425.92ZM592.063 398.37L544.344 425.92L544.512 426.211L592.231 398.66L592.063 398.37ZM594.882 393.487C594.882 394.376 594.569 395.373 594.054 396.264C593.54 397.155 592.833 397.925 592.063 398.37L592.231 398.66C593.064 398.179 593.809 397.361 594.345 396.432C594.881 395.503 595.217 394.449 595.217 393.487H594.882ZM594.882 384.991V393.487H595.217V384.991H594.882ZM589.327 381.784C590.9 380.876 592.285 380.811 593.265 381.377C594.246 381.943 594.882 383.175 594.882 384.991H595.217C595.217 383.104 594.554 381.734 593.433 381.087C592.312 380.44 590.794 380.55 589.16 381.494L589.327 381.784ZM539.993 410.267L589.327 381.784L589.16 381.494L539.826 409.977L539.993 410.267ZM490.39 381.725L539.826 410.267L539.993 409.977L490.558 381.435L490.39 381.725Z" fill="black"/>
<path opacity="0.2" d="M484.669 384.942C484.669 381.239 487.268 379.738 490.475 381.589L543.312 412.095L543.312 423.068C543.312 426.771 540.713 428.272 537.506 426.421L487.572 397.591C485.969 396.665 484.669 394.414 484.669 392.563L484.669 384.942Z" fill="black"/>
<rect width="67.6292" height="67.6292" rx="6.70437" transform="matrix(0.866025 0.5 -0.866025 0.5 540.068 350.2)" fill="white" stroke="black" stroke-width="0.335219"/>
</g>
<g opacity="0.42">
<rect opacity="0.4" width="75.0812" height="75.0812" rx="9.87481" transform="matrix(0.866025 0.5 -0.866025 0.5 953.319 380.796)" fill="#8BA1BE" fill-opacity="0.2"/>
<path fill-rule="evenodd" clip-rule="evenodd" d="M889.824 399.669C886.617 397.817 884.018 399.318 884.018 403.021V412.59C884.018 414.441 885.317 416.693 886.921 417.618L943.317 450.179C945.02 451.162 946.552 451.2 947.614 450.463C948.402 450.283 949.237 449.948 950.103 449.449L1003.69 418.508C1005.28 417.593 1006.56 415.37 1006.56 413.541V403.13C1006.56 399.472 1003.99 397.99 1000.83 399.819L945.455 431.787L889.824 399.669Z" fill="white"/>
<path d="M889.824 399.669L889.74 399.814L889.824 399.669ZM886.921 417.618L886.837 417.763H886.837L886.921 417.618ZM943.317 450.179L943.233 450.324L943.317 450.179ZM947.614 450.463L947.577 450.3L947.545 450.307L947.519 450.326L947.614 450.463ZM950.103 449.449L950.186 449.594L950.103 449.449ZM1003.69 418.508L1003.61 418.362L1003.69 418.508ZM1000.83 399.819L1000.91 399.964V399.964L1000.83 399.819ZM945.455 431.787L945.371 431.933L945.455 431.981L945.539 431.933L945.455 431.787ZM884.185 403.021C884.185 401.205 884.821 399.973 885.802 399.407C886.783 398.841 888.167 398.906 889.74 399.814L889.908 399.523C888.274 398.58 886.755 398.47 885.634 399.117C884.514 399.764 883.85 401.134 883.85 403.021H884.185ZM884.185 412.59V403.021H883.85V412.59H884.185ZM887.004 417.473C886.234 417.028 885.528 416.259 885.013 415.368C884.498 414.476 884.185 413.479 884.185 412.59H883.85C883.85 413.552 884.187 414.606 884.723 415.535C885.259 416.464 886.004 417.282 886.837 417.763L887.004 417.473ZM943.4 450.033L887.004 417.473L886.837 417.763L943.233 450.324L943.4 450.033ZM947.519 450.326C946.529 451.011 945.071 450.998 943.4 450.033L943.233 450.324C944.969 451.326 946.575 451.388 947.71 450.601L947.519 450.326ZM950.019 449.304C949.166 449.796 948.346 450.124 947.577 450.3L947.652 450.627C948.458 450.442 949.309 450.1 950.186 449.594L950.019 449.304ZM1003.61 418.362L950.019 449.304L950.186 449.594L1003.78 418.653L1003.61 418.362ZM1006.39 413.541C1006.39 414.419 1006.08 415.403 1005.58 416.283C1005.07 417.163 1004.37 417.923 1003.61 418.362L1003.78 418.653C1004.6 418.177 1005.34 417.368 1005.87 416.451C1006.4 415.533 1006.73 414.492 1006.73 413.541H1006.39ZM1006.39 403.13V413.541H1006.73V403.13H1006.39ZM1000.91 399.964C1002.46 399.067 1003.83 399.003 1004.8 399.562C1005.77 400.121 1006.39 401.336 1006.39 403.13H1006.73C1006.73 401.266 1006.07 399.912 1004.97 399.272C1003.86 398.632 1002.36 398.742 1000.74 399.674L1000.91 399.964ZM945.539 431.933L1000.91 399.964L1000.74 399.674L945.371 431.642L945.539 431.933ZM889.74 399.814L945.371 431.933L945.539 431.642L889.908 399.523L889.74 399.814Z" fill="black"/>
<path opacity="0.2" d="M884.019 403.031C884.019 399.328 886.618 397.827 889.825 399.679L949.124 433.915L949.124 446.836C949.124 450.539 946.524 452.04 943.318 450.189L886.922 417.628C885.318 416.703 884.019 414.452 884.019 412.6L884.019 403.031Z" fill="black"/>
<rect width="75.0812" height="75.0812" rx="6.70437" transform="matrix(0.866025 0.5 -0.866025 0.5 945.522 365.2)" fill="white" stroke="black" stroke-width="0.335219"/>
</g>
<g opacity="0.42">
<rect opacity="0.4" width="90.8132" height="90.8132" rx="11.9439" transform="matrix(0.866025 0.5 -0.866025 0.5 912.577 235.064)" fill="#8BA1BE" fill-opacity="0.2"/>
<path fill-rule="evenodd" clip-rule="evenodd" d="M835.777 257.891C831.898 255.652 828.754 257.467 828.754 261.946V273.52C828.754 275.759 830.326 278.482 832.265 279.602L900.478 318.985C902.347 320.064 904.046 320.201 905.304 319.553C906.193 319.324 907.129 318.935 908.095 318.377L973.145 280.82C975.068 279.71 976.626 277.011 976.626 274.792V262.155C976.626 257.715 973.509 255.916 969.665 258.136L902.933 296.663L835.777 257.891Z" fill="white"/>
<path d="M835.777 257.891L835.878 257.715L835.777 257.891ZM832.265 279.602L832.164 279.777L832.265 279.602ZM900.478 318.985L900.377 319.16L900.478 318.985ZM905.304 319.553L905.253 319.356L905.231 319.362L905.211 319.373L905.304 319.553ZM908.095 318.377L908.197 318.552L908.095 318.377ZM973.145 280.82L973.044 280.645V280.645L973.145 280.82ZM969.665 258.136L969.563 257.96L969.665 258.136ZM902.933 296.663L902.831 296.839L902.933 296.898L903.034 296.839L902.933 296.663ZM828.957 261.946C828.957 259.749 829.726 258.259 830.912 257.575C832.098 256.89 833.773 256.968 835.675 258.067L835.878 257.715C833.902 256.574 832.065 256.441 830.709 257.224C829.354 258.006 828.551 259.664 828.551 261.946H828.957ZM828.957 273.52V261.946H828.551V273.52H828.957ZM832.367 279.426C831.435 278.888 830.58 277.957 829.958 276.879C829.336 275.801 828.957 274.596 828.957 273.52H828.551C828.551 274.684 828.958 275.959 829.607 277.082C830.255 278.205 831.156 279.196 832.164 279.777L832.367 279.426ZM900.579 318.809L832.367 279.426L832.164 279.777L900.377 319.16L900.579 318.809ZM905.211 319.373C904.035 319.978 902.413 319.867 900.579 318.809L900.377 319.16C902.281 320.26 904.056 320.424 905.397 319.733L905.211 319.373ZM907.994 318.201C907.041 318.752 906.122 319.133 905.253 319.356L905.355 319.749C906.263 319.515 907.216 319.118 908.197 318.552L907.994 318.201ZM973.044 280.645L907.994 318.201L908.197 318.552L973.247 280.996L973.044 280.645ZM976.423 274.792C976.423 275.857 976.048 277.052 975.431 278.121C974.814 279.189 973.967 280.112 973.044 280.645L973.247 280.996C974.246 280.419 975.139 279.437 975.782 278.323C976.425 277.21 976.829 275.945 976.829 274.792H976.423ZM976.423 262.155V274.792H976.829V262.155H976.423ZM969.766 258.311C971.651 257.223 973.311 257.145 974.486 257.824C975.661 258.502 976.423 259.978 976.423 262.155H976.829C976.829 259.892 976.033 258.249 974.688 257.472C973.344 256.696 971.523 256.829 969.563 257.96L969.766 258.311ZM903.034 296.839L969.766 258.311L969.563 257.96L902.831 296.488L903.034 296.839ZM835.675 258.067L902.831 296.839L903.034 296.488L835.878 257.715L835.675 258.067Z" fill="black"/>
<path opacity="0.2" d="M828.756 261.958C828.756 257.479 831.9 255.664 835.779 257.903L907.503 299.313L907.503 314.942C907.503 319.421 904.359 321.236 900.48 318.997L832.267 279.614C830.328 278.494 828.756 275.771 828.756 273.532L828.756 261.958Z" fill="black"/>
<rect width="90.8132" height="90.8132" rx="8.10916" transform="matrix(0.866025 0.5 -0.866025 0.5 903.146 216.2)" fill="white" stroke="black" stroke-width="0.405458"/>
</g>
<rect opacity="0.4" width="104.036" height="104.036" rx="15.3543" transform="matrix(0.866025 0.5 -0.866025 0.5 758.403 290.811)" fill="#8BA1BE" fill-opacity="0.2"/>
<path fill-rule="evenodd" clip-rule="evenodd" d="M671.402 317.528C666.416 314.65 662.374 316.983 662.374 322.741V334.298C662.374 337.177 664.395 340.677 666.888 342.117L743.559 386.382C744.945 387.183 746.258 387.58 747.431 387.613C749.478 387.866 751.88 387.306 754.449 385.822L827.663 343.552C830.156 342.113 832.177 338.612 832.177 335.733V322.831C832.177 317.073 828.135 314.74 823.149 317.618L747.354 361.379L671.402 317.528Z" fill="white"/>
<path d="M671.402 317.528L671.532 317.303L671.402 317.528ZM666.888 342.117L667.018 341.891L666.888 342.117ZM743.559 386.382L743.689 386.157L743.559 386.382ZM747.431 387.613L747.463 387.354L747.451 387.353L747.438 387.353L747.431 387.613ZM754.449 385.822L754.319 385.597L754.449 385.822ZM827.663 343.552L827.794 343.778L827.663 343.552ZM823.149 317.618L823.019 317.393L823.149 317.618ZM747.354 361.379L747.223 361.605L747.354 361.68L747.484 361.605L747.354 361.379ZM662.635 322.741C662.635 319.917 663.624 318.002 665.149 317.122C666.673 316.241 668.826 316.342 671.272 317.754L671.532 317.303C668.992 315.836 666.631 315.664 664.888 316.67C663.145 317.676 662.113 319.807 662.113 322.741H662.635ZM662.635 334.298V322.741H662.113V334.298H662.635ZM667.018 341.891C665.821 341.199 664.722 340.002 663.922 338.617C663.122 337.231 662.635 335.681 662.635 334.298H662.113C662.113 335.794 662.637 337.433 663.47 338.877C664.304 340.321 665.462 341.594 666.758 342.342L667.018 341.891ZM743.689 386.157L667.018 341.891L666.758 342.342L743.428 386.608L743.689 386.157ZM747.438 387.353C746.318 387.321 745.047 386.941 743.689 386.157L743.428 386.608C744.842 387.424 746.197 387.839 747.424 387.874L747.438 387.353ZM754.319 385.597C751.784 387.06 749.438 387.599 747.463 387.354L747.399 387.872C749.517 388.134 751.976 387.551 754.579 386.048L754.319 385.597ZM827.533 343.326L754.319 385.597L754.579 386.048L827.794 343.778L827.533 343.326ZM831.917 335.733C831.917 337.116 831.43 338.666 830.629 340.052C829.829 341.438 828.731 342.635 827.533 343.326L827.794 343.778C829.089 343.03 830.247 341.757 831.081 340.313C831.915 338.869 832.438 337.229 832.438 335.733H831.917ZM831.917 322.831V335.733H832.438V322.831H831.917ZM823.28 317.844C825.725 316.432 827.878 316.332 829.403 317.212C830.927 318.092 831.917 320.007 831.917 322.831H832.438C832.438 319.897 831.406 317.767 829.663 316.76C827.921 315.754 825.559 315.926 823.019 317.393L823.28 317.844ZM747.484 361.605L823.28 317.844L823.019 317.393L747.223 361.153L747.484 361.605ZM671.272 317.754L747.223 361.605L747.484 361.153L671.532 317.303L671.272 317.754Z" fill="black"/>
<path opacity="0.2" d="M662.375 322.755C662.375 316.998 666.417 314.664 671.403 317.543L752.588 364.415L752.588 381.184C752.588 386.942 748.546 389.275 743.56 386.397L666.889 342.131C664.396 340.692 662.375 337.191 662.375 334.312L662.375 322.755Z" fill="black"/>
<rect width="104.036" height="104.036" rx="10.4246" transform="matrix(0.866025 0.5 -0.866025 0.5 747.598 269.2)" fill="white" stroke="black" stroke-width="0.521229"/>
<path d="M726.238 336.206C729.79 338.125 734.687 337.715 739.089 335.174C743.63 332.552 744.265 329.593 740.713 327.542C737.922 325.93 734.75 325.945 730.298 327.608L727.608 328.618C725.02 329.556 723.498 329.702 722.369 329.051C721.011 328.267 721.379 327.014 723.27 325.923C725.185 324.817 727.481 324.575 729.156 325.396L732.746 323.323C729.372 321.448 724.5 321.726 720.238 324.187C716.153 326.546 715.468 329.519 718.842 331.468C721.519 333.013 724.893 333.042 728.991 331.511L731.896 330.435C734.598 329.446 736.133 329.322 737.326 330.01C738.67 330.786 738.252 332.156 736.209 333.335C734.179 334.507 731.617 334.844 729.93 334.075L726.238 336.206ZM757.23 315.457L755.162 314.263L747.449 318.716L750.24 320.327L754.223 318.028L754.502 318.203C756.697 319.558 756.494 321.448 753.995 322.891C750.95 324.649 746.599 324.363 742.628 322.071C738.734 319.822 738.252 317.449 741.271 315.706C743.339 314.512 746.041 314.27 748.515 315.054L752.358 312.835C748.109 311.011 742.362 311.414 738.087 313.882C732.708 316.988 732.911 320.972 738.772 324.356C744.721 327.791 751.648 327.923 757.116 324.766C762.215 321.822 762.215 318.335 757.23 315.457ZM766.224 319.141L770.36 316.753L767.987 310.725L768.089 310.667L778.504 312.051L782.868 309.531L767.848 307.686L767.759 307.635L764.638 298.919L760.363 301.387L763.04 307.459L762.938 307.517L752.46 305.95L747.956 308.55L762.761 310.432L762.862 310.491L766.224 319.141Z" fill="#1C1C26"/>
<g opacity="0.42">
<rect opacity="0.4" width="104.036" height="104.036" rx="15.3543" transform="matrix(0.866025 0.5 -0.866025 0.5 1119.4 174.811)" fill="#8BA1BE" fill-opacity="0.2"/>
<path fill-rule="evenodd" clip-rule="evenodd" d="M1032.4 201.528C1027.42 198.65 1023.37 200.983 1023.37 206.741V218.298C1023.37 221.177 1025.4 224.677 1027.89 226.117L1104.56 270.382C1105.94 271.183 1107.26 271.58 1108.43 271.613C1110.48 271.866 1112.88 271.306 1115.45 269.822L1188.66 227.552C1191.16 226.113 1193.18 222.612 1193.18 219.733V206.831C1193.18 201.073 1189.14 198.74 1184.15 201.618L1108.35 245.379L1032.4 201.528Z" fill="white"/>
<path d="M1032.4 201.528L1032.53 201.303L1032.4 201.528ZM1027.89 226.117L1028.02 225.891L1027.89 226.117ZM1104.56 270.382L1104.69 270.157L1104.56 270.382ZM1108.43 271.613L1108.46 271.354L1108.45 271.353L1108.44 271.353L1108.43 271.613ZM1115.45 269.822L1115.32 269.597L1115.45 269.822ZM1188.66 227.552L1188.79 227.778L1188.66 227.552ZM1184.15 201.618L1184.02 201.393L1184.15 201.618ZM1108.35 245.379L1108.22 245.605L1108.35 245.68L1108.48 245.605L1108.35 245.379ZM1023.63 206.741C1023.63 203.917 1024.62 202.002 1026.15 201.122C1027.67 200.241 1029.83 200.342 1032.27 201.754L1032.53 201.303C1029.99 199.836 1027.63 199.664 1025.89 200.67C1024.15 201.676 1023.11 203.807 1023.11 206.741H1023.63ZM1023.63 218.298V206.741H1023.11V218.298H1023.63ZM1028.02 225.891C1026.82 225.199 1025.72 224.002 1024.92 222.617C1024.12 221.231 1023.63 219.681 1023.63 218.298H1023.11C1023.11 219.794 1023.64 221.433 1024.47 222.877C1025.3 224.321 1026.46 225.594 1027.76 226.342L1028.02 225.891ZM1104.69 270.157L1028.02 225.891L1027.76 226.342L1104.43 270.608L1104.69 270.157ZM1108.44 271.353C1107.32 271.321 1106.05 270.941 1104.69 270.157L1104.43 270.608C1105.84 271.424 1107.2 271.839 1108.42 271.874L1108.44 271.353ZM1115.32 269.597C1112.78 271.06 1110.44 271.599 1108.46 271.354L1108.4 271.872C1110.52 272.134 1112.98 271.551 1115.58 270.048L1115.32 269.597ZM1188.53 227.326L1115.32 269.597L1115.58 270.048L1188.79 227.778L1188.53 227.326ZM1192.92 219.733C1192.92 221.116 1192.43 222.666 1191.63 224.052C1190.83 225.438 1189.73 226.635 1188.53 227.326L1188.79 227.778C1190.09 227.03 1191.25 225.757 1192.08 224.313C1192.91 222.869 1193.44 221.229 1193.44 219.733H1192.92ZM1192.92 206.831V219.733H1193.44V206.831H1192.92ZM1184.28 201.844C1186.73 200.432 1188.88 200.332 1190.4 201.212C1191.93 202.092 1192.92 204.007 1192.92 206.831H1193.44C1193.44 203.897 1192.41 201.767 1190.66 200.76C1188.92 199.754 1186.56 199.926 1184.02 201.393L1184.28 201.844ZM1108.48 245.605L1184.28 201.844L1184.02 201.393L1108.22 245.153L1108.48 245.605ZM1032.27 201.754L1108.22 245.605L1108.48 245.153L1032.53 201.303L1032.27 201.754Z" fill="black"/>
<path opacity="0.2" d="M1023.37 206.755C1023.37 200.997 1027.42 198.664 1032.4 201.542L1113.59 248.414L1113.59 265.184C1113.59 270.942 1109.55 273.275 1104.56 270.397L1027.89 226.131C1025.4 224.691 1023.37 221.191 1023.37 218.312L1023.37 206.755Z" fill="black"/>
<rect width="104.036" height="104.036" rx="10.4246" transform="matrix(0.866025 0.5 -0.866025 0.5 1108.6 153.2)" fill="white" stroke="black" stroke-width="0.521229"/>
</g>
<rect opacity="0.4" width="98.0524" height="98.0524" rx="15.3543" transform="matrix(0.866025 0.5 -0.866025 0.5 683.6 171.245)" fill="#8BA1BE" fill-opacity="0.2"/>
<path fill-rule="evenodd" clip-rule="evenodd" d="M602.122 196.726C597.136 193.847 593.094 196.181 593.094 201.938V211.932C593.094 214.81 595.115 218.311 597.608 219.75L669.09 261.02C670.918 262.076 672.619 262.431 674.041 262.173C675.996 262.309 678.251 261.729 680.652 260.343L748.617 221.103C751.11 219.664 753.131 216.163 753.131 213.285V202.023C753.131 196.266 749.089 193.932 744.103 196.811L673.186 237.755L602.122 196.726Z" fill="white"/>
<path d="M602.122 196.726L601.991 196.952L602.122 196.726ZM597.608 219.75L597.738 219.524L597.608 219.75ZM669.09 261.02L669.22 260.795L669.09 261.02ZM674.041 262.173L674.059 261.913L674.027 261.911L673.995 261.916L674.041 262.173ZM680.652 260.343L680.782 260.568L680.652 260.343ZM748.617 221.103L748.747 221.329L748.617 221.103ZM744.103 196.811L743.973 196.585L744.103 196.811ZM673.186 237.755L673.056 237.981L673.186 238.056L673.316 237.981L673.186 237.755ZM593.354 201.938C593.354 199.114 594.344 197.2 595.868 196.319C597.393 195.439 599.546 195.54 601.991 196.952L602.252 196.5C599.712 195.033 597.35 194.862 595.608 195.868C593.865 196.874 592.833 199.005 592.833 201.938H593.354ZM593.354 211.932V201.938H592.833V211.932H593.354ZM597.738 219.524C596.54 218.833 595.442 217.636 594.642 216.25C593.842 214.865 593.354 213.315 593.354 211.932H592.833C592.833 213.428 593.356 215.067 594.19 216.511C595.024 217.955 596.182 219.228 597.477 219.976L597.738 219.524ZM669.22 260.795L597.738 219.524L597.477 219.976L668.96 261.246L669.22 260.795ZM673.995 261.916C672.651 262.16 671.012 261.829 669.22 260.795L668.96 261.246C670.824 262.323 672.588 262.701 674.088 262.429L673.995 261.916ZM680.521 260.117C678.153 261.485 675.95 262.045 674.059 261.913L674.023 262.433C676.043 262.574 678.349 261.973 680.782 260.568L680.521 260.117ZM748.487 220.877L680.521 260.117L680.782 260.568L748.747 221.329L748.487 220.877ZM752.87 213.285C752.87 214.667 752.383 216.218 751.583 217.603C750.783 218.989 749.684 220.186 748.487 220.877L748.747 221.329C750.043 220.581 751.201 219.308 752.034 217.864C752.868 216.42 753.392 214.78 753.392 213.285H752.87ZM752.87 202.023V213.285H753.392V202.023H752.87ZM744.233 197.037C746.679 195.625 748.832 195.524 750.356 196.404C751.881 197.285 752.87 199.199 752.87 202.023H753.392C753.392 199.09 752.36 196.959 750.617 195.953C748.874 194.947 746.513 195.119 743.973 196.585L744.233 197.037ZM673.316 237.981L744.233 197.037L743.973 196.585L673.056 237.529L673.316 237.981ZM601.991 196.952L673.056 237.981L673.316 237.529L602.252 196.5L601.991 196.952Z" fill="black"/>
<path opacity="0.2" d="M593.095 201.952C593.095 196.194 597.137 193.861 602.123 196.739L678.119 240.616L678.119 255.822C678.119 261.579 674.077 263.913 669.091 261.034L597.609 219.764C595.116 218.324 593.095 214.824 593.095 211.945L593.095 201.952Z" fill="black"/>
<rect width="98.0524" height="98.0524" rx="10.4246" transform="matrix(0.866025 0.5 -0.866025 0.5 673.416 150.877)" fill="white" stroke="black" stroke-width="0.521229"/>
<path d="M708.433 215.377C725.173 205.712 725.173 190.042 708.433 180.377C691.692 170.712 664.551 170.712 647.811 180.377C631.071 190.042 631.071 205.712 647.811 215.377C664.551 225.042 691.692 225.042 708.433 215.377Z" fill="#FF8C00"/>
<path d="M656.342 185.302C647.335 190.502 647.292 198.977 656.342 204.202C658.16 205.252 660.239 206.102 662.534 206.777C664.092 207.227 666.041 206.852 666.864 205.927C667.643 205.027 666.994 203.902 665.391 203.427C663.573 202.927 661.927 202.227 660.542 201.377C654.609 197.752 654.523 192.002 660.325 188.302C666.777 184.177 677.819 184.052 684.531 187.927C690.809 191.552 691.026 197.377 685.18 201.152C685.18 201.152 683.015 202.552 682.062 203.302C681.586 203.677 681.24 203.977 680.98 204.177C680.893 204.277 680.634 204.277 680.547 204.177L679.031 202.852L671.367 195.977C670.414 195.127 668.423 194.877 666.95 195.427C665.478 195.977 665.045 197.127 665.998 197.977C665.998 197.977 684.704 214.677 684.92 214.852C685.873 215.702 687.865 215.952 689.337 215.402C690.809 214.852 691.242 213.702 690.29 212.852C690.073 212.677 687.605 210.452 687.605 210.452C685.7 208.752 685.916 206.577 687.951 205.052C688.384 204.702 690.29 203.452 690.29 203.452C698.084 198.202 697.694 190.277 689.077 185.302C680.027 180.077 665.348 180.102 656.342 185.302ZM695.183 206.377C693.407 207.052 692.844 208.427 694.057 209.477C695.226 210.502 697.608 210.827 699.426 210.127C701.202 209.452 701.765 208.077 700.552 207.027C699.34 205.977 697.001 205.677 695.183 206.377Z" fill="white"/>
<line x1="241.684" y1="189.194" x2="313.817" y2="147.693" stroke="#E6007A" stroke-linecap="round"/>
<line opacity="0.5" x1="241.868" y1="198.512" x2="313.135" y2="157.509" stroke="#8BA1BE" stroke-opacity="0.2" stroke-width="2" stroke-linecap="round" stroke-linejoin="round"/>
<circle r="5.53603" transform="matrix(0.866025 -0.5 2.20305e-08 1 152.665 262.627)" fill="#1C1C26"/>
<line x1="153.183" y1="263.693" x2="232.316" y2="309.194" stroke="#E6007A" stroke-linecap="round"/>
<line opacity="0.5" x1="151.862" y1="275.498" x2="228.12" y2="318.515" stroke="#8BA1BE" stroke-opacity="0.2" stroke-width="2" stroke-linecap="round" stroke-linejoin="round"/>
<circle r="5.53603" transform="matrix(0.866025 -0.5 2.20305e-08 1 202.294 234.182)" fill="#1C1C26"/>
<circle r="5.53603" transform="matrix(0.866025 -0.5 2.20305e-08 1 227.294 217.504)" fill="#1C1C26"/>
<path d="M608.5 187.377L387.566 63.0596C378.275 57.8314 366.907 57.9261 357.693 63.2904C329.103 79.9361 262.856 118.366 190.5 159.377" stroke="#E6007A" stroke-linecap="round"/>
<path opacity="0.5" d="M596.5 195.377L387.734 77.8362C378.353 72.5544 366.9 72.6787 357.635 78.1614C331.604 93.5653 273.907 127.471 203.5 167.377" stroke="#8BA1BE" stroke-opacity="0.2" stroke-width="2" stroke-linecap="round" stroke-linejoin="round"/>
<path d="M201.562 233.619L243.141 257.536C252.382 262.851 263.75 262.863 273.002 257.567L305.593 238.913C314.829 233.626 326.173 233.628 335.407 238.917L408.355 280.702C417.717 286.065 429.239 285.987 438.528 280.498L456.501 269.878" stroke="#E6007A" stroke-linecap="round"/>
<path d="M226.562 216.733L252.764 227.056C261.234 230.393 270.762 229.703 278.663 225.18L314.123 204.883C323.127 199.729 334.154 199.593 343.283 204.523L371.139 219.569C380.366 224.552 391.524 224.356 400.57 219.052L473.799 176.113C483.184 170.61 494.811 170.619 504.187 176.136L704 293.7" stroke="#E6007A" stroke-linecap="round"/>
<path opacity="0.5" d="M226.562 228.676L252.729 238.93C261.242 242.266 270.812 241.537 278.722 236.951L314.516 216.199C323.539 210.967 334.632 210.798 343.811 215.751L371.492 230.69C380.769 235.697 391.992 235.467 401.056 230.085L474.81 186.294C484.241 180.694 495.976 180.688 505.413 186.276L694.585 298.306" stroke="#8BA1BE" stroke-opacity="0.2" stroke-width="2" stroke-linecap="round" stroke-linejoin="round"/>
<path opacity="0.5" d="M201.562 245.515L243.141 269.432C252.382 274.748 263.75 274.76 273.002 269.464L305.593 250.809C314.829 245.523 326.174 245.524 335.408 250.814L408.203 292.511C417.646 297.921 429.279 297.791 438.6 292.173L459 279.877" stroke="#8BA1BE" stroke-opacity="0.2" stroke-width="2" stroke-linecap="round" stroke-linejoin="round"/>
</svg>
