<svg width="236" height="236" viewBox="0 0 236 236" fill="none" xmlns="http://www.w3.org/2000/svg">
<mask id="mask0_2102_8236" style="mask-type:alpha" maskUnits="userSpaceOnUse" x="0" y="0" width="236" height="236">
<rect width="236" height="236" rx="118" fill="#292D37"/>
</mask>
<g mask="url(#mask0_2102_8236)">
<rect x="-4.15234" y="-14.5332" width="251.226" height="312.821" rx="18.6862" fill="#0D0F16"/>
<path opacity="0.23" d="M-30.4132 270.532C-30.4132 270.532 20.4894 288.63 70.4577 259.812C120.426 230.993 145.639 173.793 167.287 127.97C188.935 82.1473 176.478 35.5425 138.33 14.2886C100.183 -6.96523 74.2503 24.3653 20.7455 25.8879C-32.7594 27.4105 -47.1547 19.763 -91.5587 49.9931C-135.963 80.2232 -143.984 151.612 -108.958 204.445C-73.9314 257.279 -30.4132 270.532 -30.4132 270.532Z" fill="#8BA1BE" fill-opacity="0.2"/>
<path opacity="0.1" d="M20.873 53.3733C21.9996 53.1185 23.166 53.094 24.3023 53.3012C25.4385 53.5083 26.5212 53.943 27.4854 54.579C29.4113 55.8612 31.0158 57.5702 32.1741 59.5731C34.5211 63.3615 35.3141 68.4307 35.3891 72.8836C30.4433 72.6371 26.2797 68.7093 24.2542 66.5874C21.082 63.2222 17.4382 55.222 20.873 53.3733Z" fill="#F5F5F5"/>
<path opacity="0.2" d="M43.3093 75.9438C42.3247 75.1074 41.579 74.0253 41.148 72.8075C40.7169 71.5897 40.6159 70.2794 40.8551 69.0099C41.1169 67.747 41.6268 66.5487 42.3553 65.4844C43.0838 64.4202 44.0164 63.5112 45.099 62.8101C46.0903 62.151 47.3067 61.6259 48.4481 61.9742C48.9704 62.1693 49.4314 62.5 49.7836 62.9323C50.1358 63.3645 50.3665 63.8828 50.4521 64.4338C50.6017 65.5424 50.4595 66.6709 50.0395 67.7078C48.7535 71.298 46.8566 74.5399 43.3093 75.9438Z" fill="#F5F5F5"/>
<path d="M46.1822 86.7195C45.6296 85.9045 45.161 85.0355 44.7837 84.126C44.333 83.1476 44.0019 82.1185 43.7977 81.0609C43.5003 79.7867 43.2873 78.4943 43.1601 77.1921C42.951 74.791 43.3337 72.3753 44.2746 70.1564C44.5685 69.4971 44.9275 68.8688 45.3463 68.2809C45.6678 67.879 45.8822 67.6754 45.8822 67.6968C45.8822 67.7183 45.2391 68.6292 44.5693 70.2957C43.7497 72.4836 43.4276 74.8266 43.6262 77.1546C43.7445 78.4394 43.9341 79.7167 44.1942 80.9805C44.3742 82.0133 44.6615 83.0244 45.0516 83.9974C45.7964 85.6531 46.2573 86.6873 46.1822 86.7195Z" fill="#E0E0E0"/>
<path d="M24.2061 59.2139C24.584 59.5393 24.9319 59.8979 25.2456 60.2856C25.8833 60.9982 26.7996 62.0431 27.9248 63.3399C30.1593 65.9388 33.2083 69.5611 36.4984 73.6389C39.7885 77.7167 42.6232 81.5052 44.6058 84.2809C45.6078 85.6741 46.4063 86.8047 46.9421 87.5978C47.2438 87.9958 47.5109 88.4189 47.7405 88.8624C47.391 88.5076 47.0719 88.124 46.7867 87.7157L44.3218 84.5006C42.2427 81.7785 39.3491 78.0382 36.0805 73.9604L27.6462 63.565L25.0956 60.4142C24.7677 60.0383 24.4702 59.6369 24.2061 59.2139Z" fill="#E0E0E0"/>
<path opacity="0.2" d="M39.9445 80.7611C37.6962 79.2235 35.114 78.2436 32.4117 77.9025C29.7094 77.5615 26.9647 77.8691 24.4049 78.7999C23.1081 79.2822 21.7256 80.1877 21.6613 81.5702C21.597 82.9527 22.9795 83.9387 24.2602 84.4745C26.9473 85.5358 29.8884 85.778 32.7129 85.1706C35.5373 84.5632 38.1188 83.1333 40.132 81.0612" fill="#F5F5F5"/>
<path d="M27.8711 80.9427C28.1042 80.8181 28.3556 80.7313 28.6159 80.6855C29.0982 80.5515 29.8109 80.3961 30.695 80.23C33.0206 79.7813 35.4086 79.7613 37.7414 80.1711C39.0271 80.4368 40.2613 80.9091 41.3959 81.5696C42.9322 82.4892 44.2373 83.7485 45.2112 85.2509C45.3739 85.4577 45.5024 85.6893 45.5916 85.9368C45.5112 85.9957 44.9004 85.058 43.6358 83.7934C41.9858 82.1806 39.9025 81.0822 37.6396 80.6319C35.3614 80.24 33.0353 80.2128 30.7486 80.5515C28.9803 80.7819 27.8872 80.9963 27.8711 80.9427Z" fill="#E0E0E0"/>
<path d="M185.794 131.453L160.943 155.651L138.044 199.347L112.295 248.759L80.6575 233.909L46.4584 216.402L68.3322 174.614L81.9272 127.837C72.3193 134.208 54.455 142.888 33.1456 138.358C10.0245 133.458 -8.08496 123.108 -8.08496 123.108L17.323 122.455L49.0868 107.092L77.7841 94.4106L77.8286 94.5145C79.5586 93.772 81.0733 93.0295 81.8752 92.6212C97.757 83.9563 108.182 82.9094 125.222 88.9904L149.806 97.1578C156.124 100.128 179.416 111.599 185.794 131.453Z" fill="#E6007A"/>
<path d="M140.176 135.797C140.072 135.841 139.166 133.569 137.896 130.83C136.627 128.09 135.498 125.914 135.595 125.862C135.945 126.271 136.242 126.723 136.478 127.206C136.976 128.068 137.614 129.285 138.245 130.666C138.876 132.047 139.396 133.317 139.73 134.252C139.949 134.744 140.099 135.264 140.176 135.797Z" fill="#FAFAFA"/>
<path d="M160.401 125.632C158.87 126.822 157.257 127.904 155.575 128.869C153.964 129.95 152.282 130.923 150.541 131.78C152.081 130.598 153.696 129.517 155.375 128.542C156.984 127.462 158.663 126.49 160.401 125.632Z" fill="#FAFAFA"/>
<path d="M151.623 118.31C151.366 117.012 151.232 115.692 151.222 114.368C151.098 113.047 151.098 111.717 151.222 110.396C151.489 111.695 151.623 113.019 151.623 114.346C151.753 115.664 151.753 116.992 151.623 118.31Z" fill="#FAFAFA"/>
<path d="M171.813 116.9C169.322 115.664 166.95 114.2 164.729 112.526C166.004 113.086 167.224 113.762 168.375 114.546C169.592 115.221 170.743 116.009 171.813 116.9Z" fill="#FAFAFA"/>
<path d="M140.948 156.949C141.497 155.192 142.167 153.475 142.953 151.811C143.626 150.099 144.414 148.434 145.314 146.829C144.768 148.587 144.098 150.304 143.309 151.967C142.639 153.68 141.85 155.345 140.948 156.949Z" fill="#FAFAFA"/>
<path d="M131.956 166.052C131.243 165.054 130.635 163.984 130.144 162.859C129.535 161.79 129.037 160.66 128.659 159.488C129.373 160.487 129.983 161.557 130.478 162.681C131.089 163.749 131.584 164.879 131.956 166.052Z" fill="#FAFAFA"/>
<path d="M139.476 178.312C138.264 178.837 136.975 179.165 135.66 179.285C134.363 179.535 133.034 179.576 131.725 179.404C131.725 179.292 133.469 179.211 135.608 178.906C137.746 178.602 139.446 178.193 139.476 178.312Z" fill="#FAFAFA"/>
<path d="M149.122 164.902C149.445 163.662 149.887 162.456 150.444 161.301C150.882 160.097 151.442 158.94 152.114 157.849C151.797 159.09 151.356 160.296 150.8 161.45C150.364 162.657 149.802 163.814 149.122 164.902Z" fill="#FAFAFA"/>
<path d="M125.668 193.221C125.571 193.28 124.48 191.773 122.98 190.043C121.48 188.313 120.144 187.013 120.225 186.932C122.455 188.629 124.308 190.77 125.668 193.221Z" fill="#FAFAFA"/>
<path d="M121.413 162.771C120.887 164.068 120.238 165.311 119.475 166.484C118.826 167.73 118.063 168.913 117.195 170.018C117.732 168.725 118.383 167.483 119.141 166.306C119.788 165.06 120.548 163.877 121.413 162.771Z" fill="#FAFAFA"/>
<path d="M124.441 152.324C123.034 152.154 121.645 151.861 120.29 151.448C118.904 151.156 117.547 150.738 116.236 150.2C117.644 150.366 119.033 150.659 120.387 151.076C121.774 151.366 123.131 151.783 124.441 152.324Z" fill="#FAFAFA"/>
<path d="M124.264 130.792C125.08 131.745 125.825 132.758 126.491 133.821C127.256 134.808 127.946 135.85 128.555 136.94C127.642 136.078 126.843 135.103 126.179 134.037C125.399 133.045 124.755 131.954 124.264 130.792Z" fill="#FAFAFA"/>
<path d="M122.823 118.451C120.315 116.474 118.225 114.019 116.675 111.227C116.771 111.168 117.989 112.905 119.689 114.895C121.39 116.885 122.904 118.37 122.823 118.451Z" fill="#FAFAFA"/>
<path d="M141.815 114.985C140.473 115.602 139.079 116.099 137.65 116.47C136.26 116.963 134.829 117.331 133.373 117.569C134.718 116.959 136.111 116.462 137.538 116.084C138.929 115.593 140.36 115.225 141.815 114.985Z" fill="#FAFAFA"/>
<path d="M131.273 41.1735C130.931 38.0959 130.894 34.9922 131.161 31.9073C131.438 28.8036 132.627 25.851 134.577 23.4206C136.604 21.0744 139.722 19.5671 142.789 19.9606C144.689 20.2056 146.501 21.1412 148.394 21.0892C150.622 21.0224 152.53 19.6562 154.542 18.7429C157.714 17.303 161.268 16.9304 164.67 17.6812C166.463 18.0192 168.123 18.8584 169.459 20.1017C170.117 20.729 170.604 21.5134 170.876 22.381C171.147 23.2486 171.194 24.171 171.011 25.0615C173.254 24.963 175.501 25.1602 177.693 25.6481C179.888 26.1427 181.804 27.4747 183.032 29.3605C184.138 31.2984 184.064 33.9937 182.475 35.5603C183.521 35.4202 184.582 35.6717 185.453 36.2665C186.325 36.8614 186.946 37.7576 187.197 38.7827C187.394 39.8201 187.289 40.8924 186.894 41.8718C186.499 42.8511 185.831 43.6964 184.969 44.3068C182.893 45.5781 180.434 46.0727 178.027 45.7027C175.963 45.3092 173.572 44.7301 171.916 43.4753" fill="#263238"/>
<path d="M151.491 90.7869C146.013 89.0609 141.172 85.745 137.584 81.2607C137.584 81.2607 138.371 90.9651 150.496 93.8831L151.491 90.7869Z" fill="#1C1C26" fill-opacity="0.3"/>
<path d="M131.31 46.638C131.14 46.4821 124.012 41.5223 121.569 49.6748C119.126 57.8273 127.806 58.5847 127.888 58.3693C127.969 58.154 131.31 46.638 131.31 46.638Z" fill="white"/>
<mask id="path-28-inside-1_2102_8236" fill="white">
<path fill-rule="evenodd" clip-rule="evenodd" d="M141.753 109.42C138.104 111.559 133.758 112.169 129.662 111.117C127.593 110.593 125.648 109.661 123.944 108.376C122.24 107.09 120.81 105.477 119.737 103.631C118.665 101.784 117.973 99.7426 117.701 97.6251C117.429 95.5077 117.583 93.3572 118.154 91.3L127.196 58.3644C125.173 58.1139 119.542 56.441 121.569 49.6761C123.55 43.0639 128.613 45.0773 130.547 46.1573L133.917 33.8833L136.144 33.1408C143.421 30.6327 151.236 30.112 158.781 31.6326C166.327 33.1532 173.33 36.6599 179.067 41.7908C179.067 41.7908 172.036 69.5154 167.93 81.2987C163.824 93.082 151.417 90.951 151.417 90.951C151.417 90.951 150.392 94.9382 149.138 99.6976C148.056 103.786 145.401 107.281 141.753 109.42Z"/>
</mask>
<path fill-rule="evenodd" clip-rule="evenodd" d="M141.753 109.42C138.104 111.559 133.758 112.169 129.662 111.117C127.593 110.593 125.648 109.661 123.944 108.376C122.24 107.09 120.81 105.477 119.737 103.631C118.665 101.784 117.973 99.7426 117.701 97.6251C117.429 95.5077 117.583 93.3572 118.154 91.3L127.196 58.3644C125.173 58.1139 119.542 56.441 121.569 49.6761C123.55 43.0639 128.613 45.0773 130.547 46.1573L133.917 33.8833L136.144 33.1408C143.421 30.6327 151.236 30.112 158.781 31.6326C166.327 33.1532 173.33 36.6599 179.067 41.7908C179.067 41.7908 172.036 69.5154 167.93 81.2987C163.824 93.082 151.417 90.951 151.417 90.951C151.417 90.951 150.392 94.9382 149.138 99.6976C148.056 103.786 145.401 107.281 141.753 109.42Z" fill="white"/>
<path d="M129.662 111.117L129.855 110.368L129.852 110.367L129.662 111.117ZM141.753 109.42L141.361 108.752L141.361 108.752L141.753 109.42ZM123.944 108.376L123.478 108.993L123.478 108.993L123.944 108.376ZM119.737 103.631L120.407 103.242L120.407 103.242L119.737 103.631ZM117.701 97.6251L118.468 97.5265L117.701 97.6251ZM118.154 91.3L118.899 91.5069L118.9 91.5049L118.154 91.3ZM127.196 58.3644L127.942 58.5692L128.179 57.7064L127.291 57.5964L127.196 58.3644ZM121.569 49.6761L122.31 49.8982L122.31 49.8982L121.569 49.6761ZM130.547 46.1573L130.17 46.8329L131.032 47.3144L131.293 46.3622L130.547 46.1573ZM133.917 33.8833L133.672 33.1492L133.28 33.2799L133.17 33.6785L133.917 33.8833ZM136.144 33.1408L136.389 33.875L136.396 33.8724L136.144 33.1408ZM158.781 31.6326L158.934 30.874L158.934 30.874L158.781 31.6326ZM179.067 41.7908L179.817 41.9811L179.933 41.5266L179.583 41.214L179.067 41.7908ZM167.93 81.2987L168.661 81.5533L168.661 81.5533L167.93 81.2987ZM151.417 90.951L151.548 90.1884L150.845 90.0676L150.668 90.7584L151.417 90.951ZM149.138 99.6976L149.886 99.8956L149.886 99.8948L149.138 99.6976ZM129.47 111.867C133.764 112.969 138.32 112.33 142.144 110.087L141.361 108.752C137.889 110.788 133.753 111.369 129.855 110.368L129.47 111.867ZM123.478 108.993C125.265 110.341 127.303 111.318 129.472 111.867L129.852 110.367C127.882 109.868 126.032 108.981 124.41 107.758L123.478 108.993ZM119.068 104.019C120.192 105.954 121.691 107.646 123.478 108.993L124.41 107.758C122.788 106.534 121.427 104.999 120.407 103.242L119.068 104.019ZM116.933 97.7237C117.218 99.9435 117.944 102.084 119.068 104.019L120.407 103.242C119.386 101.485 118.727 99.5418 118.468 97.5265L116.933 97.7237ZM117.408 91.0931C116.81 93.2496 116.648 95.504 116.933 97.7237L118.468 97.5265C118.21 95.5113 118.356 93.4647 118.899 91.5069L117.408 91.0931ZM126.449 58.1595L117.407 91.0951L118.9 91.5049L127.942 58.5692L126.449 58.1595ZM120.828 49.454C120.29 51.2483 120.243 52.7644 120.557 54.0378C120.873 55.3153 121.539 56.2953 122.34 57.0325C123.915 58.4822 126.012 58.9975 127.101 59.1323L127.291 57.5964C126.357 57.4808 124.627 57.0343 123.388 55.8937C122.782 55.3358 122.293 54.6136 122.06 53.6669C121.825 52.7161 121.834 51.4864 122.31 49.8982L120.828 49.454ZM130.924 45.4817C129.921 44.9211 127.995 44.0481 125.993 44.2627C124.968 44.3726 123.929 44.7679 123.01 45.6166C122.099 46.4586 121.351 47.7064 120.828 49.454L122.31 49.8982C122.777 48.3396 123.405 47.3596 124.061 46.7531C124.71 46.1535 125.428 45.8798 126.158 45.8015C127.667 45.6397 129.24 46.3135 130.17 46.8329L130.924 45.4817ZM133.17 33.6785L129.801 45.9524L131.293 46.3622L134.663 34.0882L133.17 33.6785ZM135.899 32.4067L133.672 33.1492L134.161 34.6174L136.389 33.8749L135.899 32.4067ZM158.934 30.874C151.254 29.3263 143.299 29.8562 135.892 32.4092L136.396 33.8724C143.543 31.4092 151.218 30.8978 158.628 32.3912L158.934 30.874ZM179.583 41.214C173.743 35.9913 166.615 32.4218 158.934 30.874L158.628 32.3912C166.039 33.8846 172.917 37.3286 178.552 42.3677L179.583 41.214ZM168.661 81.5533C170.724 75.6317 173.515 65.7289 175.785 57.3279C176.922 53.1228 177.93 49.2865 178.654 46.5016C179.015 45.109 179.306 43.9792 179.507 43.1973C179.607 42.8064 179.685 42.5025 179.737 42.2962C179.764 42.1931 179.784 42.1144 179.797 42.0614C179.804 42.0349 179.809 42.0149 179.812 42.0014C179.814 41.9947 179.815 41.9896 179.816 41.9862C179.817 41.9845 179.817 41.9833 179.817 41.9824C179.817 41.982 179.817 41.9816 179.817 41.9814C179.817 41.9812 179.817 41.9811 179.067 41.7908C178.317 41.6006 178.317 41.6007 178.317 41.6009C178.317 41.6011 178.317 41.6014 178.317 41.6018C178.317 41.6026 178.316 41.6039 178.316 41.6055C178.315 41.6089 178.314 41.6139 178.312 41.6205C178.309 41.6338 178.304 41.6537 178.297 41.68C178.284 41.7327 178.264 41.8111 178.238 41.9139C178.185 42.1195 178.108 42.4227 178.008 42.8129C177.808 43.5933 177.517 44.7215 177.156 46.1123C176.433 48.8939 175.426 52.7251 174.291 56.9241C172.02 65.3312 169.242 75.1823 167.199 81.0441L168.661 81.5533ZM151.417 90.951C151.286 91.7137 151.287 91.7138 151.287 91.7139C151.287 91.7139 151.288 91.714 151.288 91.7141C151.289 91.7142 151.29 91.7144 151.291 91.7146C151.294 91.715 151.297 91.7155 151.301 91.7162C151.309 91.7175 151.32 91.7193 151.334 91.7214C151.362 91.7257 151.401 91.7316 151.451 91.7386C151.552 91.7525 151.697 91.7708 151.88 91.7895C152.247 91.8267 152.771 91.8655 153.41 91.8737C154.686 91.8899 156.437 91.7844 158.329 91.2925C162.137 90.3021 166.505 87.7394 168.661 81.5533L167.199 81.0441C165.249 86.6413 161.361 88.9048 157.939 89.7947C156.216 90.2429 154.608 90.3412 153.43 90.3261C152.842 90.3186 152.364 90.283 152.036 90.2497C151.873 90.2331 151.747 90.2171 151.664 90.2056C151.622 90.1998 151.591 90.1952 151.572 90.1922C151.562 90.1907 151.555 90.1895 151.551 90.1889C151.549 90.1886 151.548 90.1884 151.547 90.1883C151.547 90.1882 151.547 90.1882 151.547 90.1882C151.547 90.1882 151.547 90.1883 151.548 90.1883C151.548 90.1883 151.548 90.1884 151.417 90.951ZM149.886 99.8948C150.514 97.5139 151.084 95.3263 151.497 93.7339C151.704 92.9377 151.871 92.2902 151.987 91.8418C152.045 91.6176 152.09 91.4431 152.12 91.3246C152.135 91.2654 152.147 91.2202 152.155 91.1898C152.159 91.1746 152.162 91.163 152.164 91.1553C152.165 91.1515 152.165 91.1485 152.166 91.1466C152.166 91.1456 152.166 91.1449 152.166 91.1444C152.166 91.1442 152.167 91.144 152.167 91.1438C152.167 91.1438 152.167 91.1437 152.167 91.1437C152.167 91.1437 152.167 91.1436 151.417 90.951C150.668 90.7584 150.668 90.7585 150.668 90.7585C150.668 90.7585 150.668 90.7586 150.668 90.7586C150.668 90.7587 150.668 90.7589 150.667 90.7591C150.667 90.7596 150.667 90.7603 150.667 90.7613C150.666 90.7632 150.666 90.7661 150.665 90.7699C150.663 90.7776 150.66 90.789 150.656 90.8042C150.648 90.8345 150.636 90.8796 150.621 90.9387C150.591 91.0569 150.546 91.2311 150.488 91.455C150.373 91.9029 150.205 92.5497 149.999 93.3452C149.586 94.9362 149.016 97.1218 148.389 99.5003L149.886 99.8948ZM142.144 110.087C145.969 107.845 148.751 104.181 149.886 99.8956L148.39 99.4996C147.36 103.391 144.833 106.717 141.361 108.752L142.144 110.087Z" fill="#1C1C26" mask="url(#path-28-inside-1_2102_8236)"/>
<path d="M126.306 54.5306C126.306 54.5306 126.135 54.59 125.86 54.6271C125.487 54.6581 125.116 54.5467 124.821 54.3153C124.078 53.7436 123.744 52.1547 124.145 50.6771C124.331 49.9714 124.674 49.3167 125.148 48.7615C125.304 48.5353 125.513 48.3498 125.755 48.2206C125.998 48.0914 126.269 48.0223 126.544 48.019C126.724 48.0172 126.898 48.081 127.035 48.1985C127.172 48.316 127.261 48.4791 127.286 48.6575C127.331 48.9174 127.227 49.0659 127.286 49.0956C127.345 49.1253 127.501 49.0065 127.531 48.6501C127.547 48.4368 127.489 48.2246 127.368 48.0487C127.28 47.9283 127.169 47.8268 127.042 47.7503C126.914 47.6737 126.773 47.6237 126.625 47.6032C126.271 47.5675 125.913 47.6239 125.586 47.767C125.26 47.9101 124.976 48.135 124.762 48.4199C124.201 49.0201 123.798 49.7496 123.588 50.5434C123.143 52.1992 123.522 53.9886 124.598 54.6865C124.799 54.8151 125.026 54.8972 125.262 54.9268C125.498 54.9563 125.738 54.9326 125.964 54.8573C126.254 54.7237 126.351 54.5603 126.306 54.5306Z" fill="#1C1C26" fill-opacity="0.3"/>
<path d="M169.08 58.8081C168.935 59.2547 168.62 59.6261 168.203 59.8415C167.786 60.057 167.301 60.0992 166.853 59.959C166.633 59.9038 166.426 59.8052 166.245 59.6691C166.064 59.533 165.912 59.362 165.798 59.1662C165.684 58.9705 165.61 58.7539 165.581 58.5292C165.551 58.3045 165.567 58.0762 165.628 57.8577C165.771 57.4182 166.08 57.0517 166.489 56.8356C166.897 56.6195 167.374 56.5707 167.818 56.6994C168.041 56.7513 168.252 56.8477 168.437 56.9828C168.623 57.1179 168.779 57.289 168.897 57.4858C169.015 57.6826 169.092 57.9011 169.123 58.1283C169.155 58.3555 169.14 58.5867 169.08 58.8081Z" fill="#263238"/>
<path d="M171.278 57.6635C170.995 57.812 170.038 56.4458 168.226 55.837C166.414 55.2281 164.773 55.6959 164.655 55.4063C164.588 55.2801 164.937 54.9534 165.657 54.7232C166.63 54.4361 167.669 54.4621 168.627 54.7975C169.571 55.11 170.391 55.7162 170.966 56.5275C171.359 57.1438 171.411 57.6041 171.278 57.6635Z" fill="#263238"/>
<path d="M151.26 52.8307C151.116 53.2702 150.808 53.6367 150.399 53.8529C149.99 54.069 149.514 54.1178 149.07 53.989C148.85 53.9338 148.643 53.8353 148.462 53.6992C148.281 53.563 148.129 53.3921 148.015 53.1963C147.901 53.0005 147.827 52.7839 147.797 52.5592C147.768 52.3345 147.784 52.1062 147.844 51.8878C147.986 51.4472 148.295 51.0795 148.704 50.8631C149.113 50.6467 149.591 50.5987 150.035 50.7295C150.255 50.7847 150.461 50.8832 150.642 51.0193C150.823 51.1555 150.976 51.3265 151.09 51.5222C151.204 51.718 151.278 51.9346 151.307 52.1593C151.336 52.384 151.32 52.6123 151.26 52.8307Z" fill="#263238"/>
<path d="M153.355 52.0223C153.073 52.1782 152.107 50.8046 150.296 50.1957C148.484 49.5869 146.851 50.0546 146.724 49.7651C146.665 49.6389 147.007 49.3122 147.734 49.0894C148.707 48.8019 149.745 48.8252 150.704 49.1562C151.649 49.471 152.47 50.0766 153.05 50.8862C153.429 51.5025 153.488 51.9629 153.355 52.0223Z" fill="#263238"/>
<path d="M155.419 67.6799C155.419 67.5759 156.636 67.7541 158.537 68.1328C159.02 68.2442 159.487 68.2962 159.673 68.0066C159.871 67.538 159.923 67.0202 159.822 66.5216C159.762 65.252 159.703 63.9229 159.636 62.5344C159.421 56.8841 159.428 52.2955 159.636 52.2881C159.844 52.2807 160.222 56.8618 160.438 62.5122C160.482 63.9006 160.519 65.2297 160.557 66.4993C160.663 67.1536 160.534 67.8246 160.193 68.3927C160.071 68.5336 159.919 68.645 159.748 68.7183C159.577 68.7917 159.391 68.825 159.205 68.8159C158.925 68.8018 158.647 68.7494 158.381 68.66C156.532 68.1477 155.389 67.7764 155.419 67.6799Z" fill="#263238"/>
<path d="M149.664 67.1394C149.961 67.221 149.307 69.1886 150.525 71.1488C151.743 73.109 153.903 73.599 153.829 73.8737C153.829 74.0074 153.227 74.1039 152.344 73.8292C151.187 73.4588 150.198 72.6908 149.552 71.6611C148.927 70.6754 148.714 69.4836 148.958 68.3422C149.151 67.4958 149.53 67.08 149.664 67.1394Z" fill="#263238"/>
<path d="M171.679 54.2566C171.226 54.5611 170.12 53.7146 168.628 53.1875C167.135 52.6603 165.762 52.5341 165.613 52.0069C165.554 51.7545 165.895 51.4055 166.578 51.205C167.482 50.9878 168.429 51.0441 169.3 51.3667C170.172 51.6893 170.927 52.2636 171.471 53.0167C171.857 53.6181 171.887 54.1007 171.679 54.2566Z" fill="#263238"/>
<path d="M153.191 44.664C152.917 44.8125 152.449 44.5674 151.922 44.2482C151.239 43.8407 150.524 43.4906 149.783 43.2013C149.033 42.9311 148.26 42.7274 147.474 42.5924C146.843 42.4662 146.353 42.3697 146.242 42.0727C146.13 41.7757 146.487 41.3302 147.289 41.0332C148.356 40.6961 149.505 40.7249 150.554 41.1149C151.603 41.505 152.492 42.234 153.08 43.1864C153.488 43.966 153.451 44.5452 153.191 44.664Z" fill="#263238"/>
<path d="M178.45 45.6431C172.249 45.2822 166.324 42.9545 161.536 38.9978C156.205 34.6319 149.53 31.5729 147.711 32.4342C145.892 33.2955 144.162 39.4136 137.791 39.8591C137.791 39.8591 135.519 51.776 130.901 50.2539C126.283 48.7318 133.388 31.12 133.388 31.12L146.196 28.1055L159.316 28.5881L171.099 31.261L181.294 37.1193L178.45 45.6431Z" fill="#263238"/>
<g opacity="0.3">
<path d="M126.349 196.149C119.244 215.387 106.466 226.139 88.3711 235.776C99.0538 234.593 109.292 230.843 118.212 224.847" fill="black"/>
</g>
<path d="M133.996 241.448C133.9 241.5 132.652 239.562 130.922 237.297C129.192 235.033 127.663 233.31 127.744 233.229C128.167 233.516 128.544 233.863 128.865 234.261C129.702 235.153 130.492 236.087 131.234 237.06C132.095 238.203 132.816 239.287 133.298 240.089C133.593 240.507 133.828 240.965 133.996 241.448Z" fill="#FAFAFA"/>
<path d="M138.519 217.979C136.223 219.54 133.787 220.884 131.242 221.995C132.356 221.163 133.544 220.435 134.791 219.82C135.973 219.09 137.221 218.474 138.519 217.979Z" fill="#FAFAFA"/>
<path d="M134.041 207.732C133.573 207.458 133.146 207.121 132.771 206.729C131.809 205.851 130.914 204.903 130.091 203.893C129.26 202.885 128.504 201.818 127.826 200.7C127.513 200.257 127.263 199.772 127.084 199.26C127.188 199.201 128.458 201.309 130.381 203.648C132.304 205.987 134.138 207.643 134.041 207.732Z" fill="#FAFAFA"/>
<path d="M141.748 207.516C142.086 206.389 142.544 205.301 143.114 204.272C143.573 203.186 144.148 202.152 144.829 201.19C144.495 202.319 144.037 203.407 143.463 204.435C143.008 205.523 142.433 206.557 141.748 207.516Z" fill="#FAFAFA"/>
<path d="M139.692 195.793C139.573 195.793 139.692 193.484 139.261 190.7C138.83 187.916 138.006 185.762 138.118 185.718C138.398 186.143 138.611 186.609 138.749 187.099C139.159 188.249 139.46 189.434 139.647 190.64C139.832 191.846 139.909 193.066 139.877 194.286C139.897 194.795 139.834 195.304 139.692 195.793Z" fill="#FAFAFA"/>
<path d="M104.758 216.248C104.442 216.715 104.059 217.133 103.622 217.488C102.632 218.409 101.569 219.248 100.444 219.998C99.3172 220.753 98.1301 221.414 96.8946 221.973C96.3972 222.238 95.8647 222.43 95.3131 222.545C95.2686 222.433 97.6223 221.423 100.228 219.679C102.835 217.934 104.676 216.159 104.758 216.248Z" fill="#FAFAFA"/>
<path d="M106.666 208.378C106.513 206.17 106.617 203.953 106.978 201.77C107.132 203.977 107.027 206.195 106.666 208.378Z" fill="#FAFAFA"/>
<path d="M91.8531 214.986C90.5229 214.591 89.2328 214.071 87.9996 213.435C86.706 212.914 85.4632 212.275 84.2871 211.526C85.6159 211.926 86.9057 212.446 88.1406 213.078C89.4342 213.599 90.6769 214.237 91.8531 214.986Z" fill="#FAFAFA"/>
<path d="M118.279 204.918C118.193 203.548 118.235 202.173 118.405 200.812C118.44 199.44 118.609 198.074 118.91 196.735C118.996 198.105 118.957 199.479 118.791 200.841C118.75 202.213 118.578 203.578 118.279 204.918Z" fill="#FAFAFA"/>
<path d="M83.9841 230.727C82.4801 230.348 81.0498 229.721 79.7519 228.871C78.3866 228.131 77.1585 227.161 76.1211 226.005C76.1953 225.916 77.7769 227.245 79.9449 228.545C82.113 229.844 84.0286 230.616 83.9841 230.727Z" fill="#FAFAFA"/>
<path d="M72.9714 215.616C72.0152 216.934 70.9576 218.175 69.8084 219.329C68.7512 220.579 67.5994 221.745 66.3633 222.818C68.3738 220.237 70.5832 217.816 72.9714 215.579V215.616Z" fill="#FAFAFA"/>
<path d="M72.0287 202.082C70.7638 201.654 69.5884 200.997 68.5613 200.144C67.4612 199.393 66.5033 198.453 65.7324 197.367C65.8141 197.285 67.0615 198.54 68.7989 199.832C70.5363 201.124 72.0807 201.985 72.0287 202.082Z" fill="#FAFAFA"/>
<path d="M65.087 204.917C64.6665 205.712 64.1338 206.442 63.5055 207.085C62.9721 207.811 62.3398 208.458 61.627 209.008C62.5784 207.486 63.7436 206.108 65.087 204.917Z" fill="#FAFAFA"/>
<path d="M79.9363 179.791C79.0719 181.148 78.1011 182.434 77.0331 183.637C76.0672 184.926 74.9969 186.133 73.833 187.246C74.6983 185.887 75.669 184.599 76.7361 183.392C77.7058 182.109 78.7758 180.905 79.9363 179.791Z" fill="#FAFAFA"/>
<path d="M67.2175 182.65C66.0725 181.634 65.0145 180.524 64.0545 179.332C63.0019 178.225 62.0433 177.033 61.1885 175.768C62.3347 176.78 63.3929 177.888 64.3515 179.079C65.4045 180.188 66.3632 181.382 67.2175 182.65Z" fill="#FAFAFA"/>
<path d="M73.5874 166.525C72.7358 165.424 71.99 164.246 71.3599 163.005C70.6243 161.826 69.9956 160.584 69.4814 159.293C70.332 160.397 71.0777 161.577 71.7089 162.82C72.4453 163.996 73.074 165.236 73.5874 166.525Z" fill="#FAFAFA"/>
<path d="M73.254 156.121C73.1649 156.047 74.2787 154.636 75.1623 152.639C76.0458 150.642 76.3651 148.882 76.4839 148.927C76.2991 151.64 75.1541 154.198 73.254 156.144V156.121Z" fill="#FAFAFA"/>
<path d="M61.0105 155.505C60.8952 153.936 61.211 152.364 61.9238 150.961C62.3847 149.954 62.9955 149.023 63.7355 148.199C64.0188 147.836 64.3692 147.531 64.7675 147.301C63.8037 148.481 62.9674 149.761 62.2728 151.117C61.6958 152.53 61.2726 154.002 61.0105 155.505Z" fill="#FAFAFA"/>
<path d="M149.269 94.9971H-2.13477V238.433H149.269V94.9971Z" fill="#FAFAFA"/>
<path d="M149.068 250.306C149.068 249.351 148.994 186.322 148.89 95.1125L149.068 95.219H-17.8789L-17.6781 95.1036C-17.6781 153.818 -17.6781 207.881 -17.7228 250.297L-17.8789 250.204L149.091 250.297L-17.8789 250.386H-18.0276V250.306C-18.0276 207.89 -18.0276 153.827 -18.0723 95.1125V94.9971H-17.8566H149.091H149.269V95.1036C149.143 186.327 149.068 249.356 149.068 250.306Z" fill="#263238"/>
<path d="M77.3036 138.543H60.3812C59.8198 138.543 59.2814 138.32 58.8839 137.924C58.4864 137.528 58.2623 136.99 58.2607 136.428V113.003C58.2623 112.442 58.4864 111.904 58.8839 111.508C59.2814 111.111 59.8198 110.889 60.3812 110.889H71.1131L79.4182 119.447V136.428C79.4182 136.989 79.1954 137.527 78.7988 137.924C78.4023 138.32 77.8644 138.543 77.3036 138.543Z" fill="#E6007A"/>
<path d="M71.1133 110.889V117.48C71.1148 118.001 71.3226 118.501 71.6912 118.869C72.0598 119.238 72.5593 119.446 73.0806 119.447H79.4184L71.1133 110.889Z" fill="#E6007A"/>
<g opacity="0.2">
<path d="M71.2021 118.057C71.2047 118.555 71.3779 119.038 71.6929 119.425C72.008 119.812 72.4459 120.079 72.9339 120.183L73.1459 120.23C73.9705 120.377 79.4189 121.343 79.4189 121.22V119.453H73.0811C73.0811 119.453 71.5025 119.394 71.2021 118.057Z" fill="black"/>
</g>
<g opacity="0.3">
<path d="M71.1123 110.889V117.48C71.1139 118.001 71.3216 118.501 71.6902 118.869C72.0588 119.238 72.5583 119.446 73.0796 119.447H79.4174L71.1123 110.889Z" fill="white"/>
</g>
<path d="M69.6932 117.203C68.3935 117.354 67.0839 117.405 65.7763 117.356C64.4706 117.405 63.163 117.354 61.8652 117.203C63.163 117.051 64.4706 117 65.7763 117.05C67.0839 117 68.3935 117.051 69.6932 117.203Z" fill="#FAFAFA"/>
<path d="M74.747 120.937C74.747 121.02 71.8667 121.09 68.3091 121.09C64.7514 121.09 61.8652 121.02 61.8652 120.937C61.8652 120.855 64.7514 120.784 68.3091 120.784C71.8667 120.784 74.747 120.849 74.747 120.937Z" fill="#FAFAFA"/>
<path d="M75.9074 124.048C75.9074 124.136 72.7679 124.201 68.8863 124.201C65.0047 124.201 61.8652 124.136 61.8652 124.048C61.8652 123.959 65.0106 123.895 68.8863 123.895C72.762 123.895 75.9074 123.965 75.9074 124.048Z" fill="#FAFAFA"/>
<path d="M75.9074 126.986C75.9074 127.069 72.7679 127.139 68.8863 127.139C65.0047 127.139 61.8652 127.069 61.8652 126.986C61.8652 126.904 65.0106 126.833 68.8863 126.833C72.762 126.833 75.9074 126.898 75.9074 126.986Z" fill="#FAFAFA"/>
<path d="M75.9074 129.92C75.9074 130.008 72.7679 130.073 68.8863 130.073C65.0047 130.073 61.8652 130.008 61.8652 129.92C61.8652 129.831 65.0106 129.767 68.8863 129.767C72.762 129.767 75.9074 129.837 75.9074 129.92Z" fill="#FAFAFA"/>
<path d="M75.9074 132.859C75.9074 132.942 72.7679 133.012 68.8863 133.012C65.0047 133.012 61.8652 132.942 61.8652 132.859C61.8652 132.777 65.0106 132.706 68.8863 132.706C72.762 132.706 75.9074 132.771 75.9074 132.859Z" fill="#FAFAFA"/>
<path d="M138.389 111.598H137.572C137.064 111.598 136.652 111.839 136.652 112.136V229.925C136.652 230.222 137.064 230.463 137.572 230.463H138.389C138.897 230.463 139.309 230.222 139.309 229.925V112.136C139.309 111.839 138.897 111.598 138.389 111.598Z" fill="#E0E0E0"/>
<path d="M138.384 111.55H137.508C136.963 111.55 136.521 111.992 136.521 112.537V222.938C136.521 223.483 136.963 223.926 137.508 223.926H138.384C138.93 223.926 139.372 223.483 139.372 222.938V112.537C139.372 111.992 138.93 111.55 138.384 111.55Z" fill="#E6007A"/>
<path d="M8.47187 176.614V181.812H7.72938V177.268H6.54883V176.614H8.47187Z" fill="#263238"/>
<path d="M9.60081 181.373C9.60227 181.274 9.63312 181.177 9.68949 181.095C9.74585 181.013 9.82519 180.949 9.91757 180.912C10.0099 180.875 10.1112 180.866 10.2087 180.887C10.3061 180.907 10.3954 180.956 10.4652 181.026C10.5351 181.097 10.5825 181.187 10.6014 181.285C10.6202 181.383 10.6098 181.484 10.5714 181.576C10.533 181.668 10.4683 181.746 10.3854 181.801C10.3025 181.856 10.2052 181.886 10.1057 181.886C10.0385 181.887 9.97175 181.874 9.90954 181.849C9.84732 181.823 9.79092 181.785 9.74373 181.738C9.69654 181.69 9.65954 181.633 9.63498 181.57C9.61041 181.508 9.59879 181.441 9.60081 181.373Z" fill="#263238"/>
<path d="M14.7822 177.268H12.9854V176.614H17.3141V177.268H15.5172V181.841H14.7748L14.7822 177.268Z" fill="#263238"/>
<path d="M21.176 180.103H17.961C18.0074 180.443 18.1815 180.752 18.4478 180.967C18.7141 181.182 19.0526 181.288 19.394 181.262C19.6082 181.269 19.8212 181.229 20.0186 181.146C20.216 181.062 20.393 180.937 20.5375 180.779L20.931 181.247C20.6405 181.553 20.2664 181.767 19.8553 181.862C19.4442 181.957 19.0142 181.93 18.6186 181.783C18.2231 181.635 17.8796 181.375 17.6306 181.035C17.3817 180.694 17.2384 180.287 17.2185 179.866C17.2073 179.601 17.2506 179.336 17.3457 179.089C17.4409 178.841 17.5859 178.615 17.7717 178.426C17.9576 178.237 18.1803 178.088 18.4262 177.988C18.672 177.888 18.9358 177.84 19.201 177.846C19.4673 177.84 19.732 177.888 19.9783 177.99C20.2247 178.091 20.4472 178.243 20.6317 178.435C20.8161 178.627 20.9585 178.855 21.0496 179.106C21.1408 179.356 21.1788 179.622 21.1612 179.888C21.1909 179.94 21.1834 180.037 21.176 180.103ZM17.961 179.584H20.5375C20.5036 179.271 20.3552 178.981 20.1208 178.771C19.8865 178.561 19.5827 178.444 19.2678 178.444C18.9529 178.444 18.6491 178.561 18.4148 178.771C18.1804 178.981 18.0321 179.271 17.9982 179.584H17.961Z" fill="#263238"/>
<path d="M24.3085 177.847V178.545H24.1452C23.9706 178.533 23.7956 178.561 23.6329 178.625C23.4703 178.689 23.324 178.789 23.2046 178.917C23.0852 179.045 22.9958 179.198 22.9427 179.365C22.8896 179.531 22.8743 179.708 22.8978 179.881V181.849H22.1553V177.891H22.8384V178.56C22.9869 178.31 23.2053 178.109 23.4666 177.983C23.7279 177.856 24.0206 177.809 24.3085 177.847Z" fill="#263238"/>
<path d="M31.7634 179.562V181.841H31.021V179.614C31.021 178.871 30.6497 178.463 29.9963 178.463C29.3429 178.463 28.8158 178.916 28.8158 179.777V181.811H28.0733V179.584C28.0733 178.842 27.702 178.433 27.0486 178.433C26.8796 178.426 26.7111 178.456 26.5551 178.521C26.3991 178.587 26.2594 178.686 26.146 178.811C26.0325 178.937 25.9482 179.086 25.8988 179.247C25.8495 179.409 25.8365 179.58 25.8607 179.747V181.782H25.1182V177.824H25.8013V178.418C25.96 178.209 26.1675 178.043 26.4057 177.933C26.6439 177.822 26.9055 177.773 27.1674 177.787C27.4428 177.771 27.7171 177.832 27.9597 177.963C28.2023 178.094 28.4036 178.291 28.541 178.53C28.7144 178.289 28.945 178.095 29.212 177.965C29.479 177.836 29.774 177.774 30.0706 177.787C30.309 177.748 30.5534 177.768 30.7826 177.844C31.0117 177.921 31.2187 178.053 31.3855 178.228C31.5523 178.402 31.6739 178.615 31.7398 178.848C31.8056 179.08 31.8138 179.325 31.7634 179.562Z" fill="#263238"/>
<path d="M120.944 193.595C120.944 193.707 95.3207 193.788 63.7203 193.788C32.12 193.788 6.48926 193.707 6.48926 193.595C6.48926 193.484 32.1126 193.402 63.7203 193.402C95.3281 193.402 120.944 193.491 120.944 193.595Z" fill="#263238"/>
<path d="M120.944 202.259C120.944 202.363 95.3207 202.453 63.7203 202.453C32.12 202.453 6.48926 202.363 6.48926 202.259C6.48926 202.156 32.1126 202.066 63.7203 202.066C95.3281 202.066 120.944 202.148 120.944 202.259Z" fill="#263238"/>
<path d="M106.83 206.263C105.309 205.246 103.86 204.124 102.493 202.907C101.046 201.786 99.6789 200.566 98.4023 199.254C99.9239 200.271 101.373 201.392 102.738 202.61C104.186 203.73 105.553 204.951 106.83 206.263Z" fill="#FAFAFA"/>
<path d="M122.378 227.513C122.378 227.572 121.45 227.209 119.957 226.726C116.071 225.475 111.994 224.92 107.914 225.085C106.348 225.145 105.382 225.256 105.375 225.189C105.589 225.105 105.814 225.053 106.043 225.033C106.474 224.952 107.112 224.877 107.899 224.81C112.016 224.499 116.151 225.066 120.032 226.474C120.622 226.687 121.2 226.935 121.762 227.216C121.981 227.283 122.189 227.383 122.378 227.513Z" fill="#FAFAFA"/>
<path d="M129.297 208.193H68.7549V230.75H129.297V208.193Z" fill="#E6007A"/>
<path d="M88.9202 220.637H85.9502L85.3339 222.04H84.5098L87.0491 216.435H87.8361L90.3829 222.04H89.5438L88.9202 220.637ZM88.638 219.999L87.4277 217.251L86.2249 219.999H88.638Z" fill="white"/>
<path d="M90.6664 219.917C90.6609 219.626 90.7154 219.337 90.8262 219.068C90.9371 218.799 91.1021 218.556 91.311 218.353C91.5199 218.15 91.7682 217.993 92.0404 217.89C92.3127 217.788 92.6032 217.742 92.8939 217.756C93.2373 217.736 93.5798 217.809 93.8846 217.969C94.1894 218.129 94.445 218.368 94.6238 218.662L94.0373 219.033C93.9143 218.841 93.7437 218.684 93.542 218.577C93.3403 218.471 93.1145 218.418 92.8864 218.425C92.4926 218.425 92.1149 218.581 91.8364 218.859C91.5579 219.138 91.4014 219.516 91.4014 219.909C91.4014 220.303 91.5579 220.681 91.8364 220.96C92.1149 221.238 92.4926 221.394 92.8864 221.394C93.1145 221.401 93.3403 221.348 93.542 221.242C93.7437 221.135 93.9143 220.978 94.0373 220.786L94.6238 221.149C94.4453 221.444 94.1901 221.685 93.8853 221.846C93.5806 222.007 93.2379 222.082 92.8939 222.063C92.6045 222.077 92.3153 222.032 92.044 221.93C91.7727 221.828 91.5251 221.672 91.3165 221.471C91.1078 221.27 90.9425 221.029 90.8307 220.761C90.7189 220.494 90.663 220.207 90.6664 219.917Z" fill="white"/>
<path d="M95.1713 219.917C95.1658 219.626 95.2203 219.337 95.3312 219.068C95.442 218.799 95.607 218.556 95.8159 218.353C96.0248 218.151 96.2731 217.993 96.5454 217.89C96.8176 217.788 97.1081 217.742 97.3987 217.757C97.7423 217.735 98.0852 217.808 98.3901 217.968C98.6951 218.128 98.9505 218.368 99.1288 218.662L98.5422 219.034C98.4192 218.841 98.2486 218.684 98.0469 218.578C97.8452 218.471 97.6194 218.418 97.3913 218.425C96.9975 218.425 96.6198 218.581 96.3413 218.86C96.0628 219.138 95.9063 219.516 95.9063 219.91C95.9063 220.304 96.0628 220.681 96.3413 220.96C96.6198 221.238 96.9975 221.395 97.3913 221.395C97.6194 221.401 97.8452 221.349 98.0469 221.242C98.2486 221.135 98.4192 220.978 98.5422 220.786L99.1288 221.15C98.9509 221.445 98.6957 221.686 98.3908 221.847C98.086 222.008 97.7429 222.083 97.3987 222.063C97.1094 222.077 96.8202 222.032 96.5489 221.93C96.2776 221.829 96.0301 221.672 95.8214 221.471C95.6127 221.27 95.4474 221.029 95.3356 220.762C95.2238 220.494 95.1679 220.207 95.1713 219.917Z" fill="white"/>
<path d="M103.897 220.2H100.452C100.502 220.563 100.688 220.894 100.974 221.125C101.26 221.355 101.623 221.468 101.989 221.44C102.218 221.448 102.446 221.406 102.657 221.318C102.869 221.229 103.058 221.096 103.214 220.928L103.637 221.425C103.424 221.654 103.163 221.834 102.873 221.952C102.584 222.07 102.271 222.123 101.959 222.108C101.663 222.13 101.367 222.09 101.088 221.99C100.809 221.89 100.553 221.733 100.339 221.529C100.124 221.325 99.9545 221.078 99.841 220.804C99.7274 220.531 99.6723 220.236 99.6794 219.94C99.6681 219.656 99.7153 219.372 99.818 219.107C99.9207 218.842 100.077 218.6 100.277 218.398C100.476 218.195 100.715 218.036 100.979 217.929C101.243 217.823 101.526 217.772 101.81 217.779C102.096 217.77 102.38 217.821 102.644 217.929C102.909 218.037 103.148 218.198 103.346 218.404C103.544 218.61 103.696 218.855 103.794 219.123C103.891 219.392 103.931 219.677 103.912 219.962C103.912 220.007 103.904 220.103 103.897 220.2ZM100.452 219.643H103.169C103.134 219.307 102.976 218.996 102.725 218.77C102.474 218.544 102.148 218.419 101.81 218.419C101.473 218.419 101.147 218.544 100.896 218.77C100.645 218.996 100.487 219.307 100.452 219.643Z" fill="white"/>
<path d="M109.369 219.917C109.385 220.204 109.341 220.491 109.239 220.76C109.137 221.029 108.98 221.273 108.778 221.477C108.575 221.682 108.333 221.841 108.065 221.946C107.797 222.051 107.511 222.098 107.224 222.085C106.94 222.094 106.658 222.038 106.4 221.919C106.143 221.8 105.916 221.623 105.739 221.402V223.592H104.996V217.794H105.739V218.469C105.908 218.235 106.132 218.045 106.39 217.916C106.649 217.787 106.935 217.722 107.224 217.727C107.513 217.714 107.801 217.762 108.071 217.868C108.34 217.974 108.584 218.135 108.786 218.342C108.989 218.549 109.145 218.796 109.246 219.067C109.346 219.339 109.388 219.628 109.369 219.917ZM108.59 219.917C108.58 219.636 108.487 219.364 108.323 219.136C108.16 218.907 107.933 218.731 107.67 218.631C107.407 218.53 107.121 218.509 106.847 218.57C106.572 218.631 106.322 218.772 106.127 218.974C105.931 219.176 105.8 219.432 105.749 219.708C105.697 219.985 105.729 220.27 105.839 220.529C105.948 220.788 106.132 221.008 106.366 221.164C106.601 221.319 106.876 221.402 107.157 221.402C107.351 221.406 107.543 221.371 107.723 221.297C107.902 221.223 108.064 221.113 108.199 220.974C108.333 220.834 108.438 220.668 108.505 220.486C108.572 220.304 108.601 220.111 108.59 219.917Z" fill="white"/>
<path d="M112.822 221.788C112.553 221.99 112.223 222.095 111.886 222.085C111.706 222.106 111.523 222.086 111.352 222.027C111.18 221.968 111.024 221.871 110.895 221.743C110.766 221.616 110.667 221.461 110.606 221.29C110.545 221.119 110.523 220.936 110.542 220.756V218.424H109.8V217.793H110.542V216.865H111.285V217.793H112.502V218.424H111.285V220.726C111.266 220.821 111.27 220.918 111.295 221.011C111.32 221.104 111.367 221.19 111.431 221.262C111.495 221.333 111.575 221.39 111.664 221.426C111.753 221.461 111.85 221.476 111.946 221.469C112.163 221.472 112.375 221.401 112.547 221.268L112.822 221.788Z" fill="white"/>
<path d="M19.8899 162.295V154.749H18.4658V153.875H22.447V154.749H21.0645V162.295H19.8899Z" fill="#1C1C26"/>
<path d="M23.2587 162.295V153.875H26.5227V154.749H24.4334V157.534H26.1277V158.366H24.4334V161.453H26.5435V162.295H23.2587Z" fill="#1C1C26"/>
<path d="M27.4918 162.295V153.875H29.1862C29.7475 153.875 30.2118 153.952 30.5791 154.104C30.9464 154.25 31.2166 154.489 31.3899 154.821C31.57 155.147 31.6601 155.577 31.6601 156.11C31.6601 156.436 31.6255 156.734 31.5562 157.004C31.4869 157.268 31.376 157.493 31.2235 157.68C31.0711 157.86 30.8701 157.992 30.6206 158.075L31.8161 162.295H30.683L29.5812 158.345H28.6664V162.295H27.4918ZM28.6664 157.503H29.1134C29.446 157.503 29.7163 157.462 29.9242 157.379C30.1321 157.295 30.2845 157.153 30.3816 156.952C30.4786 156.751 30.5271 156.471 30.5271 156.11C30.5271 155.618 30.437 155.265 30.2568 155.05C30.0767 154.828 29.7198 154.717 29.1862 154.717H28.6664V157.503Z" fill="#1C1C26"/>
<path d="M32.8613 162.295L33.0172 153.875H34.1711L35.6575 160.705L37.1544 153.875H38.2978L38.4537 162.295H37.5078L37.4143 156.183L35.9902 162.295H35.3249L33.9112 156.183L33.8176 162.295H32.8613Z" fill="#1C1C26"/>
<path d="M41.7297 162.389C41.2446 162.389 40.8392 162.285 40.5135 162.077C40.1948 161.869 39.9522 161.582 39.7859 161.214C39.6196 160.847 39.5226 160.421 39.4948 159.936L40.5343 159.655C40.5551 159.953 40.6002 160.241 40.6695 160.518C40.7457 160.795 40.867 161.024 41.0333 161.204C41.1996 161.377 41.4318 161.464 41.7297 161.464C42.0347 161.464 42.2633 161.381 42.4158 161.214C42.5752 161.041 42.6549 160.795 42.6549 160.476C42.6549 160.095 42.5683 159.79 42.395 159.561C42.2218 159.326 42.0035 159.09 41.7401 158.855L40.3264 157.607C40.0492 157.365 39.8448 157.101 39.7131 156.817C39.5815 156.526 39.5156 156.169 39.5156 155.747C39.5156 155.13 39.6923 154.652 40.0458 154.312C40.3992 153.973 40.8808 153.803 41.4907 153.803C41.8233 153.803 42.1143 153.848 42.3638 153.938C42.6202 154.021 42.8316 154.153 42.9979 154.333C43.1712 154.513 43.3063 154.742 43.4033 155.019C43.5073 155.289 43.5766 155.608 43.6112 155.975L42.6133 156.246C42.5925 155.968 42.5509 155.715 42.4886 155.487C42.4262 155.251 42.3153 155.064 42.1559 154.925C42.0035 154.78 41.7817 154.707 41.4907 154.707C41.1996 154.707 40.9709 154.787 40.8046 154.946C40.6452 155.099 40.5655 155.327 40.5655 155.632C40.5655 155.889 40.6071 156.1 40.6903 156.266C40.7803 156.433 40.9224 156.602 41.1164 156.776L42.5405 158.023C42.8593 158.3 43.14 158.633 43.3825 159.021C43.6251 159.402 43.7463 159.856 43.7463 160.383C43.7463 160.798 43.6597 161.159 43.4865 161.464C43.3132 161.762 43.0741 161.99 42.7692 162.15C42.4712 162.309 42.1247 162.389 41.7297 162.389Z" fill="#1C1C26"/>
<path d="M46.5755 162.295L48.3634 153.875H49.4965L51.2948 162.295H50.1825L49.7979 160.175H48.0828L47.6774 162.295H46.5755ZM48.2387 159.333H49.642L48.9352 155.539L48.2387 159.333Z" fill="#1C1C26"/>
<path d="M52.1491 162.295V153.875H52.9495L55.3403 159.468V153.875H56.3174V162.295H55.569L53.147 156.547V162.295H52.1491Z" fill="#1C1C26"/>
<path d="M57.6409 162.295V153.875H59.4704C60.0941 153.875 60.5861 153.973 60.9465 154.167C61.3138 154.354 61.5736 154.638 61.7261 155.019C61.8855 155.4 61.9652 155.875 61.9652 156.443V159.541C61.9652 160.137 61.8855 160.639 61.7261 161.048C61.5736 161.457 61.3207 161.769 60.9673 161.983C60.6208 162.191 60.153 162.295 59.564 162.295H57.6409ZM58.8155 161.453H59.4808C59.9105 161.453 60.2154 161.37 60.3956 161.204C60.5757 161.038 60.6832 160.795 60.7178 160.476C60.7594 160.157 60.7802 159.773 60.7802 159.322V156.589C60.7802 156.152 60.7525 155.799 60.697 155.528C60.6416 155.258 60.5203 155.061 60.3332 154.936C60.1461 154.811 59.8516 154.749 59.4496 154.749H58.8155V161.453Z" fill="#1C1C26"/>
<path d="M67.6081 162.389C67.0122 162.389 66.5478 162.264 66.2152 162.015C65.8895 161.765 65.6608 161.429 65.5292 161.006C65.4044 160.584 65.342 160.112 65.342 159.593V156.62C65.342 156.051 65.4044 155.556 65.5292 155.133C65.6608 154.711 65.8895 154.385 66.2152 154.156C66.5478 153.921 67.0122 153.803 67.6081 153.803C68.1348 153.803 68.5506 153.9 68.8555 154.094C69.1674 154.288 69.3891 154.565 69.5208 154.925C69.6594 155.286 69.7287 155.719 69.7287 156.225V156.89H68.6164V156.297C68.6164 155.986 68.5991 155.712 68.5645 155.476C68.5367 155.234 68.4536 155.047 68.315 154.915C68.1764 154.783 67.9442 154.717 67.6185 154.717C67.2859 154.717 67.0433 154.79 66.8909 154.936C66.7384 155.074 66.6379 155.275 66.5894 155.539C66.5478 155.795 66.5271 156.097 66.5271 156.443V159.78C66.5271 160.202 66.5617 160.539 66.631 160.788C66.7003 161.031 66.8147 161.204 66.974 161.308C67.1334 161.412 67.3483 161.464 67.6185 161.464C67.9373 161.464 68.166 161.394 68.3046 161.256C68.4432 161.11 68.5298 160.913 68.5645 160.663C68.5991 160.414 68.6164 160.123 68.6164 159.79V159.166H69.7287V159.79C69.7287 160.303 69.6663 160.757 69.5416 161.152C69.4168 161.54 69.202 161.845 68.8971 162.067C68.5922 162.281 68.1625 162.389 67.6081 162.389Z" fill="#1C1C26"/>
<path d="M72.9994 162.389C72.4311 162.389 71.9772 162.278 71.6377 162.056C71.2981 161.834 71.0556 161.519 70.91 161.11C70.7645 160.695 70.6917 160.209 70.6917 159.655V156.464C70.6917 155.909 70.7645 155.435 70.91 155.04C71.0625 154.638 71.305 154.333 71.6377 154.125C71.9772 153.91 72.4311 153.803 72.9994 153.803C73.5676 153.803 74.0181 153.91 74.3507 154.125C74.6834 154.34 74.9224 154.645 75.068 155.04C75.2204 155.435 75.2967 155.909 75.2967 156.464V159.665C75.2967 160.213 75.2204 160.691 75.068 161.1C74.9224 161.509 74.6834 161.828 74.3507 162.056C74.0181 162.278 73.5676 162.389 72.9994 162.389ZM72.9994 161.464C73.3112 161.464 73.5469 161.401 73.7062 161.277C73.8656 161.145 73.973 160.965 74.0285 160.736C74.0839 160.5 74.1116 160.227 74.1116 159.915V156.225C74.1116 155.913 74.0839 155.646 74.0285 155.424C73.973 155.196 73.8656 155.022 73.7062 154.905C73.5469 154.78 73.3112 154.717 72.9994 154.717C72.6875 154.717 72.4485 154.78 72.2821 154.905C72.1228 155.022 72.0153 155.196 71.9599 155.424C71.9045 155.646 71.8768 155.913 71.8768 156.225V159.915C71.8768 160.227 71.9045 160.5 71.9599 160.736C72.0153 160.965 72.1228 161.145 72.2821 161.277C72.4485 161.401 72.6875 161.464 72.9994 161.464Z" fill="#1C1C26"/>
<path d="M76.4511 162.295V153.875H77.2515L79.6424 159.468V153.875H80.6195V162.295H79.871L77.449 156.547V162.295H76.4511Z" fill="#1C1C26"/>
<path d="M81.9429 162.295V153.875H83.7724C84.3961 153.875 84.8882 153.973 85.2485 154.167C85.6158 154.354 85.8757 154.638 86.0281 155.019C86.1875 155.4 86.2672 155.875 86.2672 156.443V159.541C86.2672 160.137 86.1875 160.639 86.0281 161.048C85.8757 161.457 85.6227 161.769 85.2693 161.983C84.9228 162.191 84.455 162.295 83.866 162.295H81.9429ZM83.1176 161.453H83.7828C84.2125 161.453 84.5174 161.37 84.6976 161.204C84.8778 161.038 84.9852 160.795 85.0198 160.476C85.0614 160.157 85.0822 159.773 85.0822 159.322V156.589C85.0822 156.152 85.0545 155.799 84.999 155.528C84.9436 155.258 84.8223 155.061 84.6352 154.936C84.4481 154.811 84.1536 154.749 83.7517 154.749H83.1176V161.453Z" fill="#1C1C26"/>
<path d="M87.487 162.295V153.875H88.6408V162.295H87.487Z" fill="#1C1C26"/>
<path d="M90.9282 162.295V154.749H89.5041V153.875H93.4853V154.749H92.1028V162.295H90.9282Z" fill="#1C1C26"/>
<path d="M94.3593 162.295V153.875H95.5132V162.295H94.3593Z" fill="#1C1C26"/>
<path d="M99.0271 162.389C98.4589 162.389 98.005 162.278 97.6654 162.056C97.3258 161.834 97.0833 161.519 96.9378 161.11C96.7922 160.695 96.7195 160.209 96.7195 159.655V156.464C96.7195 155.909 96.7922 155.435 96.9378 155.04C97.0902 154.638 97.3328 154.333 97.6654 154.125C98.005 153.91 98.4589 153.803 99.0271 153.803C99.5954 153.803 100.046 153.91 100.378 154.125C100.711 154.34 100.95 154.645 101.096 155.04C101.248 155.435 101.324 155.909 101.324 156.464V159.665C101.324 160.213 101.248 160.691 101.096 161.1C100.95 161.509 100.711 161.828 100.378 162.056C100.046 162.278 99.5954 162.389 99.0271 162.389ZM99.0271 161.464C99.339 161.464 99.5746 161.401 99.734 161.277C99.8934 161.145 100.001 160.965 100.056 160.736C100.112 160.5 100.139 160.227 100.139 159.915V156.225C100.139 155.913 100.112 155.646 100.056 155.424C100.001 155.196 99.8934 155.022 99.734 154.905C99.5746 154.78 99.339 154.717 99.0271 154.717C98.7153 154.717 98.4762 154.78 98.3099 154.905C98.1505 155.022 98.0431 155.196 97.9876 155.424C97.9322 155.646 97.9045 155.913 97.9045 156.225V159.915C97.9045 160.227 97.9322 160.5 97.9876 160.736C98.0431 160.965 98.1505 161.145 98.3099 161.277C98.4762 161.401 98.7153 161.464 99.0271 161.464Z" fill="#1C1C26"/>
<path d="M102.479 162.295V153.875H103.279L105.67 159.468V153.875H106.647V162.295H105.899L103.477 156.547V162.295H102.479Z" fill="#1C1C26"/>
<path d="M109.956 162.389C109.471 162.389 109.066 162.285 108.74 162.077C108.421 161.869 108.179 161.582 108.012 161.214C107.846 160.847 107.749 160.421 107.721 159.936L108.761 159.655C108.781 159.953 108.827 160.241 108.896 160.518C108.972 160.795 109.093 161.024 109.26 161.204C109.426 161.377 109.658 161.464 109.956 161.464C110.261 161.464 110.49 161.381 110.642 161.214C110.802 161.041 110.881 160.795 110.881 160.476C110.881 160.095 110.795 159.79 110.621 159.561C110.448 159.326 110.23 159.09 109.966 158.855L108.553 157.607C108.276 157.365 108.071 157.101 107.939 156.817C107.808 156.526 107.742 156.169 107.742 155.747C107.742 155.13 107.919 154.652 108.272 154.312C108.626 153.973 109.107 153.803 109.717 153.803C110.05 153.803 110.341 153.848 110.59 153.938C110.847 154.021 111.058 154.153 111.224 154.333C111.398 154.513 111.533 154.742 111.63 155.019C111.734 155.289 111.803 155.608 111.838 155.975L110.84 156.246C110.819 155.968 110.777 155.715 110.715 155.487C110.653 155.251 110.542 155.064 110.382 154.925C110.23 154.78 110.008 154.707 109.717 154.707C109.426 154.707 109.197 154.787 109.031 154.946C108.872 155.099 108.792 155.327 108.792 155.632C108.792 155.889 108.833 156.1 108.917 156.266C109.007 156.433 109.149 156.602 109.343 156.776L110.767 158.023C111.086 158.3 111.366 158.633 111.609 159.021C111.851 159.402 111.973 159.856 111.973 160.383C111.973 160.798 111.886 161.159 111.713 161.464C111.54 161.762 111.3 161.99 110.996 162.15C110.698 162.309 110.351 162.389 109.956 162.389Z" fill="#1C1C26"/>
<path opacity="0.2" d="M148.936 98.2852C151.945 146.488 151.239 120.145 154.248 168.343L148.936 178.304V98.2852Z" fill="black"/>
<path d="M103.992 206.15L103.993 206.15C105.203 206.486 106.294 206.748 107.269 206.971C107.269 206.971 107.269 206.971 107.269 206.971L117.498 209.335L122.071 222.855L113.745 226.86L113.733 226.865L113.673 226.891C113.621 226.913 113.544 226.945 113.444 226.987C113.244 227.071 112.955 227.191 112.597 227.338C111.88 227.632 110.889 228.032 109.79 228.454C107.582 229.303 104.97 230.231 103.266 230.591L103.264 230.592C102.907 230.669 102.488 230.606 102.01 230.401C101.533 230.197 101.024 229.863 100.505 229.44C99.4662 228.594 98.4377 227.435 97.6051 226.393C96.8081 225.392 96.3439 224.167 96.2775 222.89C96.2111 221.613 96.5459 220.346 97.2349 219.269L97.2958 219.173V219.06V219.016V218.987L97.2916 218.958C97.2313 218.556 96.9007 218.322 96.5851 218.187C96.2556 218.045 95.8243 217.957 95.3428 217.903C94.3736 217.793 93.0911 217.809 91.7435 217.892C89.0433 218.057 86.0024 218.496 84.5012 218.792C83.059 219.077 82.0473 218.915 81.5107 218.579C81.2507 218.416 81.1133 218.222 81.0633 218.021C81.0129 217.818 81.0388 217.555 81.2058 217.236C81.2053 217.237 81.205 217.238 81.205 217.238C81.2054 217.238 81.225 217.211 81.2948 217.159C81.3697 217.104 81.4778 217.038 81.6224 216.965C81.9113 216.818 82.3103 216.656 82.798 216.484C83.7712 216.14 85.0568 215.77 86.4273 215.415C89.1676 214.706 92.2119 214.064 93.6988 213.814C93.7868 213.799 93.8796 213.783 93.9769 213.767C95.5188 213.509 98.1629 213.067 99.9559 212.376C100.436 212.191 100.872 211.982 101.217 211.743C101.555 211.509 101.849 211.216 101.97 210.847C102.1 210.45 102.003 210.051 101.731 209.683C101.468 209.329 101.032 208.985 100.427 208.641C98.1236 207.331 96.3282 205.752 95.1124 204.325C94.5043 203.611 94.0457 202.941 93.7412 202.366C93.4309 201.781 93.3012 201.333 93.3012 201.055C93.3012 200.525 93.662 200.156 94.1692 200.042C94.6778 199.928 95.2879 200.092 95.6839 200.631L95.695 200.646L95.7075 200.66C96.943 202.039 98.3619 203.242 99.9244 204.236C101.163 205.097 102.539 205.744 103.992 206.15Z" fill="white" stroke="#1C1C26" stroke-width="0.773829"/>
<path d="M113.377 202.495L121.478 229.886L184.374 210.774C187.584 209.793 190.567 208.182 193.147 206.034C195.728 203.886 197.854 201.246 199.401 198.267C200.948 195.287 201.886 192.029 202.159 188.683C202.432 185.337 202.035 181.971 200.991 178.78L185.569 130.793L152.075 139.109L170.46 183.51L113.377 202.495Z" fill="#E6007A"/>
<path d="M185.792 210.291L185.488 210.403L184.582 210.692L181.062 211.784L167.883 215.823L122.101 229.715L121.931 229.759L121.871 229.596C119.072 221.221 116.354 212.014 113.214 202.554L113.154 202.376L113.34 202.309L114.921 201.79L170.43 183.354L170.341 183.554C165.886 172.788 162.277 163.967 159.753 157.82C158.506 154.76 157.525 152.37 156.857 150.729C156.538 149.919 156.285 149.296 156.115 148.865C155.944 148.434 155.877 148.227 155.877 148.227C155.877 148.227 155.981 148.434 156.159 148.85L156.946 150.692C157.629 152.325 158.632 154.708 159.916 157.753C162.47 163.886 166.138 172.692 170.623 183.443L170.682 183.591L170.526 183.643L115.018 202.154L113.436 202.681L113.555 202.436C116.703 211.902 119.406 221.109 122.198 229.477L121.975 229.358L167.794 215.607L181.025 211.665L184.559 210.633L185.48 210.373L185.792 210.291Z" fill="#263238"/>
<path d="M182.087 191.49C182.028 191.49 181.612 190.8 180.773 189.753C178.57 187.017 175.574 185.031 172.197 184.066C170.905 183.694 170.074 183.59 170.081 183.524C170.278 183.488 170.479 183.488 170.675 183.524C171.211 183.573 171.742 183.663 172.264 183.791C173.998 184.211 175.647 184.93 177.135 185.914C178.624 186.899 179.928 188.138 180.988 189.575C181.309 190.008 181.597 190.465 181.85 190.941C181.961 191.108 182.042 191.294 182.087 191.49Z" fill="#263238"/>
<path d="M166.844 141.44C166.649 140.096 166.585 138.736 166.651 137.379C166.585 136.022 166.649 134.662 166.844 133.317C167.102 136.019 167.102 138.739 166.844 141.44Z" fill="#FAFAFA"/>
<path d="M179.473 142.086C178.895 140.835 178.438 139.533 178.107 138.195C177.65 136.896 177.317 135.556 177.112 134.193C178.145 136.744 178.936 139.387 179.473 142.086Z" fill="#FAFAFA"/>
<path d="M171.64 153.482C169.04 153.462 166.496 152.717 164.297 151.329C164.349 151.225 165.901 151.96 167.928 152.547C169.955 153.133 171.648 153.371 171.64 153.482Z" fill="#FAFAFA"/>
<path d="M185.926 159.75C185.955 158.445 186.114 157.147 186.401 155.874C186.56 154.577 186.846 153.299 187.255 152.058C187.221 153.364 187.062 154.665 186.78 155.941C186.623 157.236 186.337 158.512 185.926 159.75Z" fill="#FAFAFA"/>
<path d="M180.818 169.982C179.472 167.666 178.355 165.224 177.484 162.69C178.827 165.008 179.943 167.45 180.818 169.982Z" fill="#FAFAFA"/>
<path d="M178.724 178.936C177.501 178.562 176.319 178.064 175.197 177.451C174.02 176.954 172.898 176.337 171.849 175.609C173.066 175.992 174.245 176.489 175.368 177.094C176.546 177.592 177.671 178.209 178.724 178.936Z" fill="#FAFAFA"/>
<path d="M194.791 176.552C194.39 177.716 193.917 178.855 193.373 179.96C192.948 181.113 192.452 182.239 191.888 183.331C192.416 180.907 193.402 178.607 194.791 176.552Z" fill="#FAFAFA"/>
<path d="M190.321 198.121C189.785 195.374 189.509 192.582 189.497 189.783C189.82 191.146 190.021 192.535 190.099 193.934C190.3 195.32 190.375 196.722 190.321 198.121Z" fill="#FAFAFA"/>
<path d="M178.976 204.931C177.905 204.218 176.909 203.397 176.006 202.48C175.021 201.661 174.121 200.746 173.318 199.748C174.39 200.461 175.385 201.282 176.288 202.198C177.273 203.017 178.173 203.933 178.976 204.931Z" fill="#FAFAFA"/>
<path d="M159.374 206.883C157.97 209.24 156.344 211.458 154.519 213.506C155.163 212.294 155.924 211.148 156.791 210.083C157.55 208.938 158.415 207.866 159.374 206.883Z" fill="#FAFAFA"/>
<path d="M165.589 197.698C164.461 196.969 163.448 196.079 162.581 195.054C161.622 194.118 160.811 193.042 160.176 191.862C160.265 191.795 161.371 193.191 162.864 194.795C164.356 196.398 165.655 197.616 165.589 197.698Z" fill="#FAFAFA"/>
<path d="M150.807 199.784C149.866 200.163 148.842 200.289 147.837 200.148C146.825 200.135 145.834 199.865 144.956 199.361C145.001 199.25 146.255 199.651 147.859 199.762C149.463 199.873 150.807 199.673 150.807 199.784Z" fill="#FAFAFA"/>
<path d="M141.444 216.03C141.073 214.999 140.824 213.927 140.701 212.838C140.45 211.77 140.328 210.675 140.337 209.578C140.958 211.678 141.329 213.844 141.444 216.03Z" fill="#FAFAFA"/>
<path d="M130.394 221.629C127.833 220.32 125.395 218.782 123.11 217.033C124.421 217.633 125.676 218.349 126.86 219.172C128.108 219.886 129.29 220.708 130.394 221.629Z" fill="#FAFAFA"/>
<path d="M134.338 201.864C134.42 201.939 133.343 203.216 132.148 204.879C130.952 206.542 130.061 207.96 129.965 207.908C130.413 206.731 131.042 205.632 131.828 204.649C132.512 203.594 133.36 202.654 134.338 201.864Z" fill="#FAFAFA"/>
<path d="M125.799 205.613C125.032 205.443 124.297 205.15 123.624 204.744C122.897 204.452 122.225 204.04 121.634 203.526C123.129 203.985 124.536 204.691 125.799 205.613Z" fill="#FAFAFA"/>
<path opacity="0.21" d="M169.933 182.373C173.289 182.715 176.652 183.064 180.001 183.487C181.169 183.572 182.318 183.822 183.416 184.23C183.962 184.442 184.459 184.763 184.877 185.173C185.296 185.582 185.627 186.072 185.852 186.613C186.061 187.161 186.084 187.764 185.916 188.326C185.748 188.889 185.399 189.38 184.923 189.724C184.448 189.968 183.917 190.083 183.384 190.06C182.85 190.036 182.332 189.875 181.879 189.59C180.98 189.018 180.14 188.359 179.37 187.623C177.86 186.374 176.104 185.456 174.217 184.928C173.357 184.764 172.526 184.474 171.752 184.066C171.365 183.851 171.054 183.522 170.863 183.123C170.671 182.724 170.608 182.275 170.683 181.839" fill="black"/>
</g>
</svg>
