<svg width="432" height="1212" viewBox="0 0 432 1212" fill="none" xmlns="http://www.w3.org/2000/svg">
<path d="M144.342 1028.45L72.5125 1069.91L0.682617 1028.45V1018.38H144.342V1028.45Z" fill="#B3B3B3"/>
<path d="M145.24 935L0.333984 1018.22L215.403 1141.83L360.343 1058.45L145.24 935Z" fill="#797979"/>
<path d="M359.13 1151.92L287.3 1193.38L215.471 1151.92V1141.83H359.13V1151.92Z" fill="#828282"/>
<path d="M287.3 1183.31L359.13 1141.83L287.3 1100.37L215.471 1141.83L287.3 1183.31Z" fill="#A0A0A0"/>
<path d="M143.659 1110.45L71.8291 1151.92L0 1110.45V1100.37H143.659V1110.45Z" fill="#B3B3B3"/>
<path d="M71.8291 1141.83L143.659 1100.37L71.8291 1058.89L0 1100.37L71.8291 1141.83Z" fill="#8C8C8C"/>
<path d="M142.889 1100.37H0.771484" stroke="#C9C9C9" stroke-width="0.5" stroke-linecap="round" stroke-linejoin="round"/>
<path d="M215.559 1151.75L143.729 1193.23L71.8999 1151.75V1141.67H215.576L215.559 1151.75Z" fill="#CCCCCC"/>
<path d="M143.571 1193.38C143.571 1193.38 215.418 1234.86 287.265 1193.38V1183.31H143.571V1193.38Z" fill="#B3B3B3"/>
<path d="M215.401 1141.83L143.554 1183.31C143.554 1183.31 215.401 1224.77 287.248 1183.31L215.401 1141.83Z" fill="#969696"/>
<path d="M143.574 1183.31L215.403 1141.83L143.574 1100.37L71.7441 1141.83L143.574 1183.31Z" fill="#EBEBEB" stroke="#C9C9C9" stroke-width="0.5"/>
<path d="M287.343 1100.5L360.343 1058.5L430.767 1100.21L358.843 1142L287.343 1100.5Z" fill="#B4B4B4"/>
<path d="M359.132 1151.75L430.944 1110.27V1100.39L359.132 1141.85V1151.75Z" fill="#262626"/>
<path d="M216.155 1017.15L108.717 955.15" stroke="#919191" stroke-width="0.5" stroke-linecap="round" stroke-linejoin="round"/>
<path d="M214.813 1140.32L215.882 1138.23L205.736 1132.41C203.738 1131.13 200.619 1130.66 195.853 1133.2C188.538 1136.92 183.586 1144.07 182.675 1152.23L192.576 1157.86L218.861 1142.65L214.813 1140.32Z" fill="#81D4DB"/>
<path d="M218.912 1142.66L192.627 1157.87C193.54 1149.72 198.492 1142.58 205.805 1138.86C216.494 1133.11 218.912 1142.66 218.912 1142.66Z" fill="#065467"/>
<rect width="165" height="165" transform="matrix(0.866025 -0.5 0.866025 0.5 48.0166 1010.5)" fill="#C4C4C4"/>
<rect opacity="0.1" width="104.825" height="104.825" transform="matrix(0.866025 -0.5 0.866025 0.5 100.13 980.413)" fill="#1C1C26"/>
<rect width="165.012" height="10.6414" transform="matrix(0.866026 -0.5 2.20305e-08 1 191.006 1093)" fill="#9E9E9E"/>
<rect width="165.122" height="10.6637" transform="matrix(-0.866024 -0.500003 -2.20303e-08 1 191 1093.04)" fill="#EAEAEA"/>
<rect width="165" height="165" transform="matrix(0.866025 -0.5 0.866025 0.5 48.0166 880.5)" fill="#C4C4C4"/>
<rect opacity="0.2" width="91.2888" height="91.2888" transform="matrix(0.866025 -0.5 0.866025 0.5 111.853 843.645)" fill="#1C1C26"/>
<rect width="165.012" height="10.6414" transform="matrix(0.866026 -0.5 2.20305e-08 1 191.006 963.005)" fill="#9E9E9E"/>
<rect width="165.122" height="10.6637" transform="matrix(-0.866024 -0.500003 -2.20303e-08 1 191 963.038)" fill="#EAEAEA"/>
<rect width="165" height="165" transform="matrix(0.866025 -0.5 0.866025 0.5 48.0244 726.5)" fill="#E6007A"/>
<rect width="165.012" height="32.5119" transform="matrix(0.866026 -0.499998 2.20306e-08 1 191.014 809.135)" fill="#96004F"/>
<rect width="165.122" height="32.9133" transform="matrix(-0.866025 -0.500001 -2.20305e-08 1 191 808.788)" fill="#FF6CBA"/>
<rect width="165" height="165" transform="matrix(0.866025 -0.5 0.866025 0.5 48.0327 588.5)" fill="#C4C4C4"/>
<rect opacity="0.2" width="93.5892" height="93.5892" transform="matrix(0.866025 -0.5 0.866025 0.5 109.876 552.794)" fill="#1C1C26"/>
<rect width="165.012" height="118.59" transform="matrix(0.866026 -0.5 2.20305e-08 1 191.022 671.135)" fill="#9E9E9E"/>
<rect width="165.122" height="118.354" transform="matrix(-0.866025 -0.5 -2.20305e-08 1 191 670.788)" fill="#EAEAEA"/>
<rect width="165" height="165" transform="matrix(0.866025 -0.5 0.866025 0.5 48.0244 456.5)" fill="#C4C4C4"/>
<rect opacity="0.2" width="91.7072" height="91.7072" transform="matrix(0.866025 -0.5 0.866025 0.5 111.498 419.854)" fill="#1C1C26"/>
<rect width="165.012" height="32.5119" transform="matrix(0.866026 -0.499998 2.20306e-08 1 191.014 539.135)" fill="#9E9E9E"/>
<rect width="165.122" height="32.9133" transform="matrix(-0.866025 -0.500001 -2.20305e-08 1 191 538.788)" fill="#EAEAEA"/>
<rect width="165" height="165" transform="matrix(0.866025 -0.5 0.866025 0.5 48.0176 347.5)" fill="#C4C4C4"/>
<rect opacity="0.2" width="85.515" height="85.515" transform="matrix(0.866025 -0.5 0.866025 0.5 116.854 307.757)" fill="#1C1C26"/>
<rect width="165.012" height="11.433" transform="matrix(0.866027 -0.499997 2.20307e-08 1 191.007 430.213)" fill="#9E9E9E"/>
<rect width="165.122" height="11.7891" transform="matrix(-0.866025 -0.500001 -2.20304e-08 1 191 429.912)" fill="#EAEAEA"/>
<rect width="165" height="165" transform="matrix(0.866025 -0.5 0.866025 0.5 48.0166 218.5)" fill="#C4C4C4"/>
<rect opacity="0.12" width="97.0515" height="97.0515" transform="matrix(0.866025 -0.5 0.866025 0.5 106.862 184.526)" fill="#1C1C26"/>
<rect width="165.012" height="10.6414" transform="matrix(0.866026 -0.5 2.20305e-08 1 191.006 301.005)" fill="#9E9E9E"/>
<rect width="165.122" height="10.6637" transform="matrix(-0.866024 -0.500003 -2.20303e-08 1 191 301.038)" fill="#EAEAEA"/>
<rect width="165" height="165" transform="matrix(0.866025 -0.5 0.866025 0.5 48.0112 82.5)" fill="#C4C4C4"/>
<rect width="165.012" height="16.6746" transform="matrix(0.866026 -0.5 2.20305e-08 1 191.001 164.972)" fill="#9E9E9E"/>
<rect width="165.122" height="16.6556" transform="matrix(-0.866025 -0.5 -2.20305e-08 1 191 165.045)" fill="#EAEAEA"/>
<path d="M142.657 1113.15H138.381C136.93 1113.15 135.752 1114.33 135.752 1115.78V1133.32C135.752 1134.77 136.93 1135.95 138.381 1135.95H142.657C144.108 1135.95 145.285 1134.77 145.285 1133.32V1115.78C145.285 1114.33 144.108 1113.15 142.657 1113.15Z" fill="black"/>
<path d="M140.477 1119.19C153.271 1119.02 163.501 1108.5 163.329 1095.71C163.158 1082.92 152.647 1072.69 139.855 1072.86C127.061 1073.03 116.83 1083.54 117.002 1096.33C117.174 1109.13 127.685 1119.36 140.477 1119.19Z" fill="#009385"/>
<g style="mix-blend-mode:multiply">
<path d="M139.645 1134.26H187.134" stroke="#B3B3B3" stroke-width="2" stroke-linecap="round" stroke-linejoin="round"/>
</g>
</svg>
