<svg width="587" height="257" viewBox="0 0 587 257" fill="none" xmlns="http://www.w3.org/2000/svg">
<mask id="mask0_2102_8236" style="mask-type:alpha" maskUnits="userSpaceOnUse" x="0" y="0" width="587" height="257">
<rect width="587" height="257" rx="27" fill="#292D37"/>
</mask>
<g mask="url(#mask0_2102_8236)">
<rect width="587" height="257" rx="27" fill="#0D0F16"/>
<path d="M634.965 -21.8946C634.965 -21.8946 561.415 -48.0446 489.215 -6.40461C417.015 35.2354 380.585 117.885 349.305 184.095C318.025 250.305 336.025 317.645 391.145 348.355C446.265 379.065 483.735 333.795 561.045 331.595C638.355 329.395 659.155 340.445 723.315 296.765C787.475 253.085 799.065 149.935 748.455 73.5954C697.845 -2.74461 634.965 -21.8946 634.965 -21.8946Z" fill="#E6007A"/>
<path d="M455.493 -10.8857H55.5771V234.7H455.493V-10.8857Z" stroke="#263238" stroke-width="1.12651" stroke-linecap="round" stroke-linejoin="round"/>
<path d="M455.493 221.767H55.5771V234.688H455.493V221.767Z" fill="#969696" stroke="#263238" stroke-width="1.12651" stroke-linecap="round" stroke-linejoin="round"/>
<path d="M455.493 234.558H55.5771V242.832H455.493V234.558Z" fill="#263238" stroke="#263238" stroke-width="1.12651" stroke-miterlimit="10"/>
<path d="M559.739 228.007L550.824 328.389H469.978L466.659 226.94C466.618 225.513 466.863 224.093 467.381 222.762C467.898 221.432 468.678 220.219 469.672 219.196C470.667 218.172 471.857 217.359 473.172 216.803C474.487 216.248 475.9 215.962 477.328 215.963L549.2 216.437C550.669 216.45 552.12 216.766 553.461 217.365C554.803 217.965 556.006 218.835 556.995 219.921C557.985 221.007 558.739 222.286 559.211 223.678C559.683 225.069 559.863 226.543 559.739 228.007Z" fill="#E6007A" stroke="#263238" stroke-width="1.12651" stroke-linecap="round" stroke-linejoin="round"/>
<path d="M554.771 228.007L545.845 328.389H465.046L461.679 226.94C461.638 225.513 461.883 224.093 462.401 222.762C462.919 221.432 463.698 220.219 464.693 219.196C465.688 218.172 466.878 217.359 468.193 216.803C469.508 216.248 470.921 215.962 472.348 215.963L544.233 216.437C545.702 216.45 547.152 216.766 548.494 217.365C549.835 217.965 551.038 218.835 552.028 219.921C553.017 221.007 553.771 222.286 554.243 223.678C554.716 225.069 554.895 226.543 554.771 228.007Z" fill="#263238" stroke="#263238" stroke-width="1.12651" stroke-linecap="round" stroke-linejoin="round"/>
<path d="M319.298 456.546H314.461L311.521 251.953H319.571L319.298 456.546Z" fill="white" stroke="#263238" stroke-width="1.12651" stroke-linecap="round" stroke-linejoin="round"/>
<path d="M323.291 456.546H318.466L318.182 251.953H326.243L323.291 456.546Z" fill="#263238" stroke="#263238" stroke-width="1.12651" stroke-linecap="round" stroke-linejoin="round"/>
<path d="M349.597 456.546H344.76L341.82 251.953H349.869L349.597 456.546Z" fill="white" stroke="#263238" stroke-width="1.12651" stroke-linecap="round" stroke-linejoin="round"/>
<path d="M353.592 456.546H348.767L348.482 251.953H356.543L353.592 456.546Z" fill="#263238" stroke="#263238" stroke-width="1.12651" stroke-linecap="round" stroke-linejoin="round"/>
<path d="M537.356 456.546H532.532L529.58 251.953H537.629L537.356 456.546Z" fill="white" stroke="#263238" stroke-width="1.12651" stroke-linecap="round" stroke-linejoin="round"/>
<path d="M541.364 456.546H536.528L536.255 251.953H544.304L541.364 456.546Z" fill="#263238" stroke="#263238" stroke-width="1.12651" stroke-linecap="round" stroke-linejoin="round"/>
<path d="M560.39 456.546H555.553L552.613 251.953H560.662L560.39 456.546Z" fill="white" stroke="#263238" stroke-width="1.12651" stroke-linecap="round" stroke-linejoin="round"/>
<path d="M564.386 456.546H559.561L559.276 251.953H567.337L564.386 456.546Z" fill="#263238" stroke="#263238" stroke-width="1.12651" stroke-linecap="round" stroke-linejoin="round"/>
<path d="M573.097 251.953H308.142V281.411H573.097V251.953Z" fill="white" stroke="#263238" stroke-width="1.12651" stroke-linecap="round" stroke-linejoin="round"/>
<path d="M573.097 251.953H540.06V281.411H573.097V251.953Z" fill="#263238" stroke="#263238" stroke-width="1.12651" stroke-linecap="round" stroke-linejoin="round"/>
<path d="M573.097 251.953H308.142V264.448H573.097V251.953Z" fill="#263238" stroke="#263238" stroke-width="1.12651" stroke-linecap="round" stroke-linejoin="round"/>
<path d="M576.429 249.582H304.823V257.169H576.429V249.582Z" fill="white" stroke="#263238" stroke-width="1.12651" stroke-linecap="round" stroke-linejoin="round"/>
<path d="M576.429 249.582H543.842V257.169H576.429V249.582Z" fill="#263238" stroke="#263238" stroke-width="1.12651" stroke-linecap="round" stroke-linejoin="round"/>
<path d="M109.197 249.103C109.197 249.103 102.441 264.312 105.819 288.53C109.197 312.748 120.471 344.862 120.471 344.862C137.941 349.397 155.921 351.668 173.969 351.619C204.387 351.619 219.016 344.293 219.016 344.293C219.016 344.293 230.277 301.487 230.277 277.826C230.277 254.165 224.077 240.663 224.077 240.663C224.077 240.663 170.01 252.517 119.878 235.589L109.197 249.103Z" fill="black" stroke="black" stroke-width="1.12651" stroke-linecap="round" stroke-linejoin="round"/>
<path d="M163.835 127.443L138.49 125.748C138.49 125.748 144.69 166.871 135.669 192.215C126.648 217.56 119.903 235.59 119.903 235.59L113.703 247.444C126.835 252.09 140.433 255.298 154.257 257.011C175.108 259.263 194.253 260.401 204.388 258.137C211.278 256.522 218.054 254.455 224.671 251.949C224.671 251.949 205.515 202.919 205.515 176.449C205.561 160.752 203.524 145.118 199.457 129.956L189.701 128.771L163.835 127.443Z" fill="white" stroke="black" stroke-width="1.12651" stroke-linecap="round" stroke-linejoin="round"/>
<path d="M189.084 157.671L181.284 259.227L188.112 260.199L189.084 157.671Z" fill="black" stroke="black" stroke-width="1.12651" stroke-linecap="round" stroke-linejoin="round"/>
<path d="M162.152 98.9922C163.337 100.901 162.081 117.959 161.903 121.385C161.725 124.811 160.196 127.312 156.521 126.316C148.614 124.088 150.321 129.41 150.321 129.41C150.321 129.41 149.195 141.81 155.383 151.933C161.571 162.057 178.203 164.037 185.801 159.259C193.4 154.482 194.538 131.212 194.538 131.212L189.701 128.841C188.453 128.217 187.408 127.25 186.69 126.053C185.972 124.856 185.61 123.48 185.647 122.084L186.37 108.606C186.37 108.606 169.75 110.823 162.152 98.9922Z" fill="white" stroke="black" stroke-width="1.12651" stroke-linecap="round" stroke-linejoin="round"/>
<path d="M186.371 108.57C186.371 108.57 169.775 110.823 162.153 98.9922C163.267 100.747 162.283 115.138 161.963 120.223C164.193 122.049 166.854 123.273 169.692 123.78C175.299 124.42 181.179 122.072 185.814 119.121L186.371 108.57Z" fill="black" stroke="black" stroke-width="1.12651" stroke-linecap="round" stroke-linejoin="round"/>
<path d="M159.627 125.474C159.627 125.474 145.532 124.917 132.86 124.633C120.188 124.348 113.988 125.486 109.151 128.023C104.315 130.56 73.1023 159.555 71.1345 164.344C69.1666 169.134 67.1396 174.835 79.2546 175.12C91.3697 175.404 116.477 167.723 116.477 167.723C116.477 167.723 125.818 192.214 125.012 203.203C124.206 214.192 116.845 230.8 110.645 240.662C104.445 250.525 104.445 255.018 104.445 255.018C104.445 255.018 111.214 266.007 128.948 270.227C139.388 272.745 150.047 274.254 160.777 274.732L157.955 211.37L159.627 125.474Z" fill="#2E303C" stroke="black" stroke-width="1.12651" stroke-linecap="round" stroke-linejoin="round"/>
<path d="M112.031 154.967L116.524 167.71L109.826 159.365" stroke="black" stroke-width="1.12651" stroke-linecap="round" stroke-linejoin="round"/>
<path d="M105.82 154.483L70.7314 172.668C71.9999 174.067 74.5722 175.039 79.3021 175.11C83.1985 175.068 87.083 174.671 90.9075 173.924L105.82 154.483Z" fill="black" stroke="black" stroke-width="1.12651" stroke-linecap="round" stroke-linejoin="round"/>
<path d="M148.365 125.404C148.365 133.702 148.365 163.409 149.752 178.132C150.938 190.508 155.549 205.788 158.05 213.387L157.955 211.372L159.627 125.475C159.627 125.475 154.861 125.475 148.365 125.404Z" fill="#2E303C" stroke="black" stroke-width="1.12651" stroke-linecap="round" stroke-linejoin="round"/>
<path d="M189.701 128.807C189.701 128.807 187.781 193.626 187.212 202.92C186.643 212.213 183.549 275.575 183.549 275.575C192.521 275.564 201.377 273.538 209.462 269.647C222.976 263.163 230.302 258.374 231.985 255.565C233.669 252.755 230.575 247.397 228.038 239.229C225.501 231.062 221.838 218.662 220.997 214.442C220.155 210.222 220.712 199.802 220.712 199.802C220.712 199.802 234.238 213.031 238.173 211.905C242.109 210.779 268.592 218.39 269.161 216.41C269.73 214.43 247.183 173.889 239.3 156.143C231.416 138.397 220.155 133.738 212.544 132.043C204.934 130.348 189.701 128.807 189.701 128.807Z" fill="#2E303C" stroke="black" stroke-width="1.12651" stroke-linecap="round" stroke-linejoin="round"/>
<path d="M199.458 129.956C194.159 129.268 189.702 128.771 189.702 128.771C189.702 128.771 187.781 193.59 187.212 202.884C187.07 205.183 186.774 210.802 186.418 217.962C188.931 210.281 194.716 191.705 196.506 179.222C198.284 166.574 199.078 139.582 199.458 129.956Z" fill="#2E303C" stroke="black" stroke-width="1.12651" stroke-linecap="round" stroke-linejoin="round"/>
<path d="M208.335 146.588L188.053 210.53L191.431 213.055L212.556 148.568L208.335 146.588Z" fill="black" stroke="black" stroke-width="1.12651" stroke-linecap="round" stroke-linejoin="round"/>
<path d="M212.556 148.566L251.142 162.649L228.891 219.823L191.432 213.054L212.556 148.566Z" fill="white" stroke="black" stroke-width="1.12651" stroke-linecap="round" stroke-linejoin="round"/>
<path d="M210.019 156.166L189.748 220.096L193.127 222.633L214.251 158.146L210.019 156.166Z" fill="black" stroke="black" stroke-width="1.12651" stroke-linecap="round" stroke-linejoin="round"/>
<path d="M214.251 158.146L252.837 172.217L230.587 229.39L193.127 222.633L214.251 158.146Z" fill="white" stroke="black" stroke-width="1.12651" stroke-linecap="round" stroke-linejoin="round"/>
<path d="M209.178 175.879C209.178 175.879 201.579 171.374 199.042 171.137C198.487 171.039 197.918 171.06 197.371 171.198C196.825 171.335 196.314 171.587 195.871 171.937C195.429 172.286 195.066 172.725 194.805 173.224C194.545 173.724 194.393 174.273 194.36 174.836C194.313 176.045 194.498 177.252 194.905 178.392C194.905 178.392 192.155 179.127 190.875 186.406C190.424 188.966 189.179 190.91 190.875 192.89C193.577 195.887 197.284 197.789 201.295 198.236C205.488 198.869 209.628 199.812 213.682 201.058C219.692 207.262 226.107 213.06 232.886 218.412C243.022 226.295 252.031 235.305 259.641 233.894C267.252 232.483 272.029 223.759 269.22 216.433C266.41 209.107 226.129 192.783 224.719 192.214C223.398 191.523 222.167 190.671 221.056 189.677C221.056 189.677 221.056 183.49 219.645 180.668C218.234 177.847 213.718 173.627 213.718 169.691C213.718 165.756 214.002 164.049 211.75 164.618C209.498 165.187 208.051 172.216 209.178 175.879Z" fill="white" stroke="black" stroke-width="1.12651" stroke-linecap="round" stroke-linejoin="round"/>
<path d="M155.525 75.2246C155.525 75.2246 151.969 66.2628 149.349 72.2373C146.148 79.6344 152.336 86.9722 153.937 87.968C155.537 88.9638 155.525 75.2246 155.525 75.2246Z" fill="white" stroke="black" stroke-width="1.12651" stroke-linecap="round" stroke-linejoin="round"/>
<path d="M206.949 81.6137C206.949 81.6137 211.513 75.9948 212.876 80.9143C214.239 85.8338 210.066 90.7534 206.949 92.8634C203.831 94.9735 202.729 97.7829 202.729 93.9184C202.729 90.0539 206.949 81.6137 206.949 81.6137Z" fill="white" stroke="black" stroke-width="1.12651" stroke-linecap="round" stroke-linejoin="round"/>
<path d="M180.621 6.12577C180.621 6.12577 173.248 0.75578 168.269 6.92001C163.29 13.0842 168.47 17.6837 164.879 19.0707C161.287 20.4576 158.951 14.0919 151.543 20.2561C144.134 26.4203 148.958 31.411 149.35 33.5922C149.741 35.7733 148.354 35.7852 142.782 38.1798C137.211 40.5743 134.223 46.3355 141.597 52.3101C148.97 58.2846 152.55 49.7258 153.546 53.7089C154.542 57.6919 153.546 61.0823 158.525 60.8215C163.504 60.5607 173.461 52.4523 179.637 56.2339C185.813 60.0154 192.57 69.5818 197.158 66.5945C201.745 63.6072 203.334 58.4269 207.317 61.023C211.3 63.6191 216.872 64.8045 220.06 56.6369C223.249 48.4693 216.872 45.6835 217.867 41.3093C218.863 36.9351 224.435 31.1502 219.657 24.3814C214.88 17.6126 210.103 24.7726 205.124 18.4542C200.145 12.1359 205.325 5.50935 198.948 1.9175C197.417 1.0365 195.727 0.467239 193.975 0.242535C192.223 0.0178321 190.444 0.142129 188.74 0.608265C187.037 1.0744 185.442 1.87316 184.049 2.95848C182.655 4.04379 181.49 5.39421 180.621 6.93186" fill="#E6007A"/>
<path d="M163.373 51.6813C163.373 51.6813 155.988 58.0115 155.288 66.0962C154.589 74.1808 151.424 93.5033 154.932 100.889C158.441 108.274 167.214 118.67 174.966 119.512C185.86 120.768 197.809 110.728 199.564 106.863C201.318 102.999 210.849 75.5796 208.704 63.2748C205.894 47.1174 178.831 36.5671 163.373 51.6813Z" fill="white" stroke="black" stroke-width="1.12651" stroke-linecap="round" stroke-linejoin="round"/>
<path d="M208.703 63.2748C205.894 47.1174 178.83 36.5671 163.372 51.6813C163.372 51.6813 155.987 58.0115 155.288 66.0962C155.086 68.384 154.695 71.5728 154.304 75.141C156.483 73.3123 157.851 70.6958 158.109 67.8625C158.512 62.8837 162.697 57.7033 178.629 55.5103C194.561 53.3172 203.523 65.0767 204.91 69.2494C206.297 73.4221 204.317 79.0055 205.313 81.8031C205.401 82.2008 205.571 82.5758 205.812 82.9043C206.052 83.2329 206.359 83.5078 206.712 83.7116C208.466 76.1368 209.592 68.3959 208.703 63.2748Z" fill="#E6007A"/>
<path d="M176.851 32.003C176.684 32.1737 176.53 32.356 176.388 32.5483C175.073 34.4213 174.018 34.5398 171.848 33.8048C167.106 32.2164 163.088 34.4094 163.289 38.3925C163.491 42.3755 165.281 41.7709 161.701 44.3196C158.121 46.8683 155.122 48.7057 157.113 53.483C159.105 58.2602 164.131 55.7116 164.131 59.0901C164.131 62.4685 163.93 66.8546 168.873 66.8546C173.816 66.8546 177.242 60.9275 178.641 64.0689C180.039 67.2102 181.628 71.8334 186.002 71.0273C190.376 70.2212 192.771 63.2628 197.157 66.6531C201.543 70.0434 203.926 73.0188 206.32 70.2094C208.715 67.3999 206.119 63.2391 209.308 61.4491C212.497 59.6591 215.472 58.8648 213.682 52.8903C211.892 46.9157 209.308 49.903 207.316 45.3154C205.325 40.7278 205.716 35.7608 201.934 34.9666C198.153 34.1723 196.363 36.7566 192.771 36.3654C189.713 36.0216 188.503 32.2994 185.919 31.0547C183.335 29.81 179.008 29.8692 176.851 32.003Z" fill="#E6007A" stroke="black" stroke-width="1.12651" stroke-linecap="round" stroke-linejoin="round"/>
<path d="M182.435 80.1787C182.435 80.1787 180.68 85.0982 181.38 88.2633C182.079 91.4284 183.845 94.1905 181.024 94.5935C178.203 94.9966 176.104 93.1829 176.104 91.4284" stroke="black" stroke-width="1.12651" stroke-linecap="round" stroke-linejoin="round"/>
<path d="M169.727 95.8389C170.85 97.3041 172.282 98.5043 173.921 99.3545C175.559 100.205 177.365 100.684 179.21 100.758C182.844 100.732 186.39 99.6352 189.405 97.6052" stroke="black" stroke-width="1.12651" stroke-linecap="round" stroke-linejoin="round"/>
<path d="M174.197 80.1082C174.031 81.7559 173.165 83.0243 172.264 82.9295C171.364 82.8346 170.759 81.4358 170.925 79.7881C171.091 78.1403 171.956 76.8838 172.857 76.9668C173.758 77.0498 174.363 78.4604 174.197 80.1082Z" fill="black"/>
<path d="M190.317 83.0009C190.151 84.6486 189.285 85.9052 188.385 85.8222C187.484 85.7392 186.879 84.3167 187.045 82.669C187.211 81.0212 188.076 79.7647 188.977 79.8476C189.878 79.9306 190.483 81.3531 190.317 83.0009Z" fill="black"/>
<path d="M180.252 76.4931C180.294 78.7125 179.677 80.8945 178.478 82.7626C177.279 84.6307 175.552 86.101 173.517 86.9871C171.482 87.8732 169.229 88.1354 167.045 87.7404C164.86 87.3453 162.842 86.3109 161.246 84.768C159.65 83.2252 158.548 81.2434 158.079 79.0737C157.61 76.9039 157.796 74.6438 158.613 72.5797C159.429 70.5155 160.84 68.7401 162.667 67.4785C164.493 66.2168 166.653 65.5255 168.872 65.4923C171.838 65.451 174.699 66.5847 176.831 68.6459C178.963 70.707 180.193 73.5281 180.252 76.4931Z" stroke="black" stroke-width="1.12651" stroke-linecap="round" stroke-linejoin="round"/>
<path d="M205.171 81.2477C205.213 83.4651 204.597 85.6451 203.4 87.5121C202.202 89.379 200.479 90.8491 198.446 91.7365C196.414 92.6238 194.164 92.8886 191.981 92.4973C189.798 92.106 187.78 91.0762 186.182 89.5381C184.584 88 183.478 86.0227 183.004 83.8562C182.53 81.6896 182.709 79.4312 183.519 77.3664C184.328 75.3016 185.731 73.5231 187.552 72.2559C189.372 70.9887 191.527 70.2896 193.744 70.247C196.717 70.193 199.591 71.3211 201.733 73.3836C203.876 75.4461 205.112 78.2744 205.171 81.2477Z" stroke="black" stroke-width="1.12651" stroke-linecap="round" stroke-linejoin="round"/>
<path d="M180.277 77.6904L182.897 78.295" stroke="black" stroke-width="1.12651" stroke-linecap="round" stroke-linejoin="round"/>
<path d="M157.978 73.5414L154.481 72.7354" stroke="black" stroke-width="1.12651" stroke-linecap="round" stroke-linejoin="round"/>
<path d="M205.171 81.2461L207.791 81.7321" stroke="black" stroke-width="1.12651" stroke-linecap="round" stroke-linejoin="round"/>
<path d="M166.359 72.1304C167.632 71.0292 169.162 70.2671 170.807 69.9148C172.452 69.5625 174.16 69.6314 175.772 70.1151" stroke="black" stroke-width="1.12651" stroke-linecap="round" stroke-linejoin="round"/>
<path d="M198.129 79.1009C197.332 77.617 196.173 76.3586 194.759 75.4426C193.346 74.5265 191.724 73.9826 190.044 73.8613" stroke="black" stroke-width="1.12651" stroke-linecap="round" stroke-linejoin="round"/>
<path d="M143.226 80.4281C145.665 76.9832 148.364 73.7296 151.299 70.6957C155.566 66.4163 161.268 64.5196 161.268 67.1394C161.268 69.7592 157.475 70.2215 154.855 73.5407C152.235 76.8599 146.071 85.6558 145.834 88.0267C145.597 90.3975 145.834 94.4398 150.113 93.7286C154.393 93.0173 159.134 88.9869 161.268 87.5525C163.402 86.1181 169.341 87.5525 167.195 89.461C165.05 91.3696 161.268 92.3061 158.174 94.914C155.08 97.5219 150.101 102.75 147.505 104.184C144.909 105.618 143.001 106.555 143.001 106.555C143.001 106.555 142.052 107.503 138.721 113.205C135.39 118.907 124.947 135.29 118.569 142.414C112.191 149.539 88.1746 173.235 82.2475 175.416C76.3203 177.598 61.8225 175.654 59.7243 168.055C57.6261 160.456 62.5693 151.672 73.25 144.074C83.9308 136.475 114.337 118.895 120.987 115.339C127.638 111.783 130.245 109.874 130.471 107.977C130.696 106.081 133.79 93.7523 136.647 88.7379C138.417 85.6578 140.634 82.8573 143.226 80.4281Z" fill="white" stroke="black" stroke-width="1.12651" stroke-linecap="round" stroke-linejoin="round"/>
<path d="M135.551 92.5542C135.551 92.5542 136.736 84.1021 137.993 82.9759C139.249 81.8498 146.812 82.0394 148.318 82.7862C149.823 83.5331 149.811 90.3019 149.254 91.8074C148.697 93.3129 147.749 94.2375 147.192 93.6803C146.635 93.1232 145.497 87.4805 145.497 87.4805L141.561 86.9234L140.245 92.5542" fill="white"/>
<path d="M135.551 92.5542C135.551 92.5542 136.736 84.1021 137.993 82.9759C139.249 81.8498 146.812 82.0394 148.318 82.7862C149.823 83.5331 149.811 90.3019 149.254 91.8074C148.697 93.3129 147.749 94.2375 147.192 93.6803C146.635 93.1232 145.497 87.4805 145.497 87.4805L141.561 86.9234L140.245 92.5542" stroke="black" stroke-width="1.12651" stroke-linecap="round" stroke-linejoin="round"/>
<path d="M134.792 95.187C134.792 95.187 135.977 86.7349 137.234 85.6087C138.491 84.4826 146.065 84.6722 147.559 85.4191C149.053 86.1659 149.065 92.9347 148.507 94.4283C147.95 95.922 147.002 96.8703 146.433 96.3131C145.864 95.756 144.75 90.1134 144.75 90.1134L140.802 89.5444L139.486 95.187" fill="white"/>
<path d="M134.792 95.187C134.792 95.187 135.977 86.7349 137.234 85.6087C138.491 84.4826 146.065 84.6722 147.559 85.4191C149.053 86.1659 149.065 92.9347 148.507 94.4283C147.95 95.922 147.002 96.8703 146.433 96.3131C145.864 95.756 144.75 90.1134 144.75 90.1134L140.802 89.5444L139.486 95.187" stroke="black" stroke-width="1.12651" stroke-linecap="round" stroke-linejoin="round"/>
<path d="M134.424 98.625C134.424 98.625 135.491 90.6234 136.795 89.5565C138.099 88.4896 145.093 88.6674 146.574 89.3787C148.056 90.0899 147.997 96.4913 147.464 97.9138C146.93 99.3363 146.041 100.225 145.508 99.6919C144.974 99.1585 143.907 93.824 143.907 93.824L140.173 93.2906L138.988 98.625" fill="white"/>
<path d="M134.424 98.625C134.424 98.625 135.491 90.6234 136.795 89.5565C138.099 88.4896 145.093 88.6674 146.574 89.3787C148.056 90.0899 147.997 96.4913 147.464 97.9138C146.93 99.3363 146.041 100.225 145.508 99.6919C144.974 99.1585 143.907 93.824 143.907 93.824L140.173 93.2906L138.988 98.625" stroke="black" stroke-width="1.12651" stroke-linecap="round" stroke-linejoin="round"/>
<path d="M141.952 95.4365C141.952 95.4365 142.971 102.431 141.087 106.105C139.202 109.78 137.009 109.745 137.009 109.745" fill="white"/>
<path d="M141.952 95.4365C141.952 95.4365 142.971 102.431 141.087 106.105C139.202 109.78 137.009 109.745 137.009 109.745" stroke="black" stroke-width="1.12651" stroke-linecap="round" stroke-linejoin="round"/>
</g>
</svg>
