<svg width="26" height="19" viewBox="0 0 26 19" fill="none" xmlns="http://www.w3.org/2000/svg">
<path fill-rule="evenodd" clip-rule="evenodd" d="M4.51592 0.144089C3.36607 0.144089 2.36357 0.76427 1.80215 1.68164C2.25636 1.52429 2.73501 1.41998 3.24003 1.41998H22.3784C22.8834 1.41998 23.3621 1.52429 23.8163 1.68164C23.2549 0.76427 22.2524 0.144089 21.1025 0.144089H4.51592ZM3.24003 2.69587C1.48395 2.69587 0.050293 4.12953 0.050293 5.88561V14.8169C0.050293 16.5729 1.48395 18.0066 3.24003 18.0066H9.61949C9.78868 18.0066 9.95093 17.9394 10.0706 17.8197C10.1902 17.7001 10.2574 17.5378 10.2574 17.3686C10.2574 16.6418 10.5368 15.7962 11.005 15.1782C11.4733 14.5602 12.0819 14.1789 12.8092 14.1789C13.5366 14.1789 14.1451 14.5602 14.6134 15.1782C15.0817 15.7962 15.361 16.6418 15.361 17.3686C15.361 17.5378 15.4282 17.7001 15.5479 17.8197C15.6675 17.9394 15.8298 18.0066 15.999 18.0066H22.3784C24.1345 18.0066 25.5681 16.5729 25.5681 14.8169V5.88561C25.5681 4.12953 24.1345 2.69587 22.3784 2.69587H3.24003ZM6.42727 5.88062C8.53374 5.88062 10.2599 7.6093 10.2599 9.71578C10.2599 11.8223 8.53374 13.5385 6.42727 13.5385C4.32079 13.5385 2.60457 11.8223 2.60457 9.71578C2.60457 7.6093 4.32079 5.88062 6.42727 5.88062ZM19.1887 5.88062C21.2952 5.88062 23.0139 7.6093 23.0139 9.71578C23.0139 11.8223 21.2952 13.5385 19.1887 13.5385C17.0822 13.5385 15.366 11.8223 15.366 9.71578C15.366 7.6093 17.0822 5.88062 19.1887 5.88062Z" fill="#A1A2A3"/>
<path fill-rule="evenodd" clip-rule="evenodd" d="M12.8095 15.4548C12.5281 15.4548 12.3215 15.553 12.0221 15.9482C11.8666 16.1534 11.7441 16.4424 11.6558 16.7332H13.9633C13.875 16.4424 13.7525 16.1534 13.597 15.9482C13.2975 15.5529 13.091 15.4548 12.8095 15.4548Z" fill="#A1A2A3"/>
</svg>
