<svg width="200" height="162" viewBox="0 0 200 162" fill="none" xmlns="http://www.w3.org/2000/svg">
<mask id="mask0_788_2926" style="mask-type:alpha" maskUnits="userSpaceOnUse" x="0" y="0" width="200" height="162">
<rect width="200" height="162" rx="27" fill="white"/>
</mask>
<g mask="url(#mask0_788_2926)">
<path d="M116.053 7.24609H171.589C171.589 7.24609 188.682 38.386 185.217 61.3327C181.751 84.2794 149.952 90.5069 141.101 91.8188C132.249 93.1306 102.745 82.3126 101.106 58.7111C99.4667 35.1095 116.053 7.24609 116.053 7.24609Z" fill="#FEFFFE"/>
<path d="M144.451 88.207H140.457V197.488H144.451V88.207Z" fill="#FEFFFE"/>
<path d="M185.219 61.3326C185.939 55.7497 185.792 50.089 184.783 44.5509C174.993 41.6039 158.153 46.6223 148.943 49.5806C138.621 52.9012 117.707 51.421 117.707 51.421L182.346 69.8133C183.801 67.1798 184.774 64.3079 185.219 61.3326V61.3326Z" fill="#AE005C"/>
<path d="M122.79 46.6564C115.979 44.8169 108.872 44.3318 101.874 45.2286C101.1 49.6779 100.843 54.2018 101.108 58.7102C102.751 82.3117 132.252 93.1297 141.103 91.8178C149.954 90.506 181.754 84.2784 185.219 61.3318C185.67 58.1644 185.795 54.9591 185.592 51.7661C167.155 60.1534 140.738 51.7476 122.79 46.6564Z" fill="#E6007A"/>
<path d="M170.401 15.7969C170.401 15.7969 184.945 45.4228 179.024 68.584" stroke="#230F0C" stroke-width="0.942" stroke-linecap="round" stroke-linejoin="round"/>
<path d="M171.529 29.8029C171.529 29.8029 178.304 49.9627 175.996 59.8126" stroke="#230F0C" stroke-width="0.942" stroke-linecap="round" stroke-linejoin="round"/>
<path d="M162.315 100.247L161.579 100.586L161.757 101.375L161.757 101.375L161.757 101.376L161.757 101.376L161.757 101.376L161.76 101.388C161.762 101.4 161.766 101.419 161.771 101.445C161.782 101.498 161.798 101.579 161.816 101.686C161.853 101.901 161.9 102.217 161.941 102.612C162.024 103.403 162.078 104.498 161.969 105.712C161.75 108.157 160.885 110.952 158.41 112.837L157.76 113.333L158.116 114.067L158.116 114.068L158.116 114.068L158.116 114.068L158.117 114.069L158.122 114.08C158.124 114.085 158.128 114.093 158.132 114.101C158.136 114.112 158.142 114.124 158.149 114.139C158.173 114.193 158.209 114.278 158.254 114.389C158.343 114.611 158.464 114.937 158.585 115.341C158.828 116.155 159.06 117.253 159.045 118.432C159.03 119.606 158.77 120.83 158.06 121.943C157.355 123.049 156.156 124.12 154.133 124.917L153.129 125.313L153.598 126.281L153.599 126.281L153.599 126.282L153.599 126.283L153.6 126.284L153.603 126.291C153.608 126.302 153.617 126.321 153.628 126.347C153.652 126.401 153.687 126.486 153.731 126.601C153.819 126.83 153.94 127.178 154.06 127.629C154.302 128.531 154.543 129.842 154.528 131.445C154.496 134.63 153.451 139.039 149.237 143.761C145.937 147.458 142.423 150.534 138.906 153.613C137.805 154.576 136.704 155.54 135.609 156.523C131.038 160.627 126.635 165.023 123.106 170.994C119.644 176.852 107.94 198.155 97.115 217.966C91.6996 227.878 86.4999 237.424 82.6541 244.493C80.7312 248.027 79.1468 250.942 78.0431 252.973C77.4912 253.989 77.0595 254.784 76.7658 255.325L76.6002 255.63H-39.125C-38.6083 254.861 -37.9073 253.82 -37.0386 252.534C-35.0207 249.546 -32.0981 245.237 -28.4797 239.95C-21.2428 229.377 -11.2234 214.895 -0.0932503 199.262C22.1834 167.972 48.8576 132.143 66.5839 113.76C84.3589 95.3265 95.4255 86.1848 102.59 81.9125C106.167 79.7797 108.714 78.8963 110.593 78.6452C112.436 78.399 113.693 78.7531 114.732 79.2254C114.968 79.3326 115.158 79.5352 115.264 80.0016C115.378 80.504 115.367 81.2242 115.204 82.1636C114.88 84.0333 114.017 86.4261 112.971 88.9242C112.248 90.6513 111.459 92.3796 110.727 93.9815C110.404 94.6907 110.091 95.3752 109.801 96.0238C109.333 97.0696 108.92 98.0262 108.623 98.8205C108.345 99.5648 108.108 100.32 108.108 100.891C108.108 101.516 108.476 101.954 108.898 102.192C109.268 102.402 109.713 102.487 110.125 102.523C110.97 102.597 112.121 102.5 113.474 102.285C116.208 101.852 120.049 100.891 124.562 99.5255C133.599 96.7912 145.455 92.395 156.779 87.2005C167.994 82.0555 175.547 80.455 180.328 80.423C182.718 80.4069 184.374 80.7829 185.442 81.2669C186.533 81.7611 186.91 82.314 186.995 82.5966C186.999 82.6087 187.032 82.7733 186.861 83.1791C186.699 83.5668 186.394 84.0669 185.915 84.672C184.961 85.8787 183.416 87.3756 181.292 89.0583C177.052 92.417 170.62 96.4251 162.315 100.247Z" fill="white" stroke="#1C1C26" stroke-width="2"/>
<path d="M117.708 117.271C117.708 117.271 169.497 101.859 185.219 86.7555" stroke="#230F0C" stroke-width="0.942" stroke-linecap="round" stroke-linejoin="round"/>
<path d="M126.336 127.271C126.336 127.271 161.361 118.062 162.568 108.401" stroke="#230F0C" stroke-width="0.942" stroke-linecap="round" stroke-linejoin="round"/>
<path d="M132.984 138.592C132.984 138.592 157.742 126.365 159.252 121.836" stroke="#230F0C" stroke-width="0.942" stroke-linecap="round" stroke-linejoin="round"/>
<path d="M154.908 135.443C154.908 135.443 155.431 139.337 141.981 152.227C133.821 160.046 128.181 163.456 122.558 173.259C104.548 204.668 77.1948 256.629 77.1948 256.629" stroke="#230F0C" stroke-width="0.942" stroke-linecap="round" stroke-linejoin="round"/>
</g>
</svg>
