<svg xmlns="http://www.w3.org/2000/svg" width="36" height="36" viewBox="0 0 36 36">
  <g id="medium" transform="translate(-1014 -7072)">
    <rect id="Retângulo_1718" data-name="Retângulo 1718" width="36" height="36" rx="5" transform="translate(1014 7072)"/>
    <path id="medium-2" data-name="medium" d="M15.228,4.04l1.32-1.263V2.5H11.974l-3.26,8.114L5.005,2.5H.209v.277L1.751,4.633a.647.647,0,0,1,.209.54v7.3a.832.832,0,0,1-.223.724L0,15.3v.273H4.927V15.3l-1.738-2.1a.858.858,0,0,1-.239-.724V6.159l4.325,9.418h.5L11.5,6.159v7.5c0,.2,0,.239-.13.368l-1.338,1.294V15.6h6.49v-.277l-1.289-1.263a.384.384,0,0,1-.148-.368V4.408a.382.382,0,0,1,.147-.368Z" transform="translate(1024 7080.5)" fill="#fff"/>
  </g>
</svg>
