<svg xmlns="http://www.w3.org/2000/svg" width="36" height="36" viewBox="0 0 36 36">
  <g id="twitter" transform="translate(-1014 -7072)">
    <rect id="Retângulo_1718" data-name="Retângulo 1718" width="36" height="36" rx="5" transform="translate(1014 7072)" fill="#2cb1ea"/>
    <path id="twitter-2" data-name="twitter" d="M18.826,49.811a8.047,8.047,0,0,1-2.224.609,3.838,3.838,0,0,0,1.7-2.133,7.713,7.713,0,0,1-2.447.934,3.859,3.859,0,0,0-6.676,2.639,3.974,3.974,0,0,0,.089.88A10.924,10.924,0,0,1,1.311,48.7,3.861,3.861,0,0,0,2.5,53.862a3.812,3.812,0,0,1-1.744-.475v.042a3.877,3.877,0,0,0,3.092,3.792,3.852,3.852,0,0,1-1.012.127,3.412,3.412,0,0,1-.731-.066,3.9,3.9,0,0,0,3.606,2.689A7.755,7.755,0,0,1,.924,61.617,7.229,7.229,0,0,1,0,61.564,10.866,10.866,0,0,0,5.921,63.3,10.909,10.909,0,0,0,16.906,52.314c0-.171-.006-.335-.014-.5A7.7,7.7,0,0,0,18.826,49.811Z" transform="translate(1023.587 7034.352)" fill="#fff"/>
  </g>
</svg>
